%TF.GenerationSoftware,KiCad,Pcbnew,9.0.6*%
%TF.CreationDate,2026-01-17T02:02:38+03:00*%
%TF.ProjectId,Backup power switch 12v Module,4261636b-7570-4207-906f-776572207377,rev?*%
%TF.SameCoordinates,Original*%
%TF.FileFunction,Soldermask,Bot*%
%TF.FilePolarity,Negative*%
%FSLAX46Y46*%
G04 Gerber Fmt 4.6, Leading zero omitted, Abs format (unit mm)*
G04 Created by KiCad (PCBNEW 9.0.6) date 2026-01-17 02:02:38*
%MOMM*%
%LPD*%
G01*
G04 APERTURE LIST*
G04 Aperture macros list*
%AMRoundRect*
0 Rectangle with rounded corners*
0 $1 Rounding radius*
0 $2 $3 $4 $5 $6 $7 $8 $9 X,Y pos of 4 corners*
0 Add a 4 corners polygon primitive as box body*
4,1,4,$2,$3,$4,$5,$6,$7,$8,$9,$2,$3,0*
0 Add four circle primitives for the rounded corners*
1,1,$1+$1,$2,$3*
1,1,$1+$1,$4,$5*
1,1,$1+$1,$6,$7*
1,1,$1+$1,$8,$9*
0 Add four rect primitives between the rounded corners*
20,1,$1+$1,$2,$3,$4,$5,0*
20,1,$1+$1,$4,$5,$6,$7,0*
20,1,$1+$1,$6,$7,$8,$9,0*
20,1,$1+$1,$8,$9,$2,$3,0*%
G04 Aperture macros list end*
%ADD10RoundRect,0.250000X-0.625000X0.350000X-0.625000X-0.350000X0.625000X-0.350000X0.625000X0.350000X0*%
%ADD11O,1.750000X1.200000*%
%ADD12RoundRect,0.250000X0.550000X0.550000X-0.550000X0.550000X-0.550000X-0.550000X0.550000X-0.550000X0*%
%ADD13C,1.600000*%
%ADD14C,3.000000*%
%ADD15C,2.500000*%
%ADD16C,1.440000*%
%ADD17C,3.500000*%
%ADD18C,3.900000*%
%ADD19C,7.000000*%
%ADD20C,3.400000*%
%ADD21C,1.500000*%
%ADD22R,4.500000X2.500000*%
%ADD23O,4.500000X2.500000*%
%ADD24C,2.000000*%
G04 APERTURE END LIST*
D10*
X96266000Y-78138000D03*
D11*
X96266000Y-80138000D03*
X96266000Y-82138000D03*
X96266000Y-84138000D03*
X96266000Y-86138000D03*
X96266000Y-88138000D03*
D12*
X135885000Y-106685000D03*
D13*
X135885000Y-104145000D03*
X128265000Y-104145000D03*
X128265000Y-106685000D03*
D14*
X161925000Y-79765000D03*
D15*
X155875000Y-81715000D03*
D14*
X155875000Y-93915000D03*
X167925000Y-93965000D03*
D15*
X167875000Y-81715000D03*
D16*
X105664000Y-82042000D03*
X108204000Y-82042000D03*
X110743999Y-82042000D03*
D17*
X107950000Y-70040000D03*
X115570000Y-70040000D03*
X156210000Y-70040000D03*
X163830000Y-70040000D03*
D18*
X177410000Y-62230000D03*
D19*
X177410000Y-62230000D03*
D12*
X135885000Y-114305000D03*
D13*
X135885000Y-111765000D03*
X128265000Y-111765000D03*
X128265000Y-114305000D03*
D18*
X177800000Y-133350000D03*
D19*
X177800000Y-133350000D03*
D20*
X178054000Y-104648000D03*
D17*
X128270000Y-70040000D03*
X135890000Y-70040000D03*
D18*
X94860000Y-62230000D03*
D19*
X94860000Y-62230000D03*
D16*
X137160000Y-83820000D03*
X139700000Y-83820000D03*
X142239999Y-83820000D03*
D18*
X94860000Y-133350000D03*
D19*
X94860000Y-133350000D03*
D20*
X178054000Y-118364000D03*
D21*
X97780000Y-118000000D03*
X100320000Y-118000000D03*
X102860000Y-118000000D03*
X105400000Y-118000000D03*
X107940000Y-118000000D03*
X115560000Y-102760000D03*
X113020000Y-102746000D03*
X110480000Y-102746000D03*
X107940000Y-102746000D03*
X105400000Y-102746000D03*
X102860000Y-102746000D03*
X100320000Y-102746000D03*
X97780000Y-102746000D03*
X110480000Y-118000000D03*
X115560000Y-118000000D03*
X113020000Y-118000000D03*
D20*
X178054000Y-111506000D03*
D22*
X178120000Y-81915000D03*
D23*
X178120000Y-87365000D03*
X178120000Y-92815000D03*
D24*
X163195000Y-100965000D02*
X170180000Y-100965000D01*
X156145000Y-93915000D02*
X163195000Y-100965000D01*
X170180000Y-100965000D02*
X178120000Y-93025000D01*
X144780000Y-93915000D02*
X137730000Y-93915000D01*
X144780000Y-93915000D02*
X155875000Y-93915000D01*
X137730000Y-93915000D02*
X121285000Y-77470000D01*
X176530000Y-81915000D02*
X174625000Y-81915000D01*
X167894000Y-93934000D02*
X167925000Y-93965000D01*
X150495000Y-86360000D02*
X141605000Y-77470000D01*
X167925000Y-90520000D02*
X167575000Y-90170000D01*
X174625000Y-81915000D02*
X170180000Y-86360000D01*
X170180000Y-86360000D02*
X150495000Y-86360000D01*
X161798000Y-86360000D02*
X162814000Y-86360000D01*
X162814000Y-86360000D02*
X167894000Y-91440000D01*
X167894000Y-91440000D02*
X167894000Y-93934000D01*
X167575000Y-90170000D02*
X166370000Y-90170000D01*
X167925000Y-93965000D02*
X167925000Y-90520000D01*
X166370000Y-90170000D02*
X170180000Y-86360000D01*
M02*
