%TF.GenerationSoftware,KiCad,Pcbnew,10.0.1*%
%TF.CreationDate,2026-05-03T00:07:23+03:00*%
%TF.ProjectId,Backup power switch 12v Module,4261636b-7570-4207-906f-776572207377,rev?*%
%TF.SameCoordinates,Original*%
%TF.FileFunction,Paste,Top*%
%TF.FilePolarity,Positive*%
%FSLAX46Y46*%
G04 Gerber Fmt 4.6, Leading zero omitted, Abs format (unit mm)*
G04 Created by KiCad (PCBNEW 10.0.1) date 2026-05-03 00:07:23*
%MOMM*%
%LPD*%
G01*
G04 APERTURE LIST*
G04 Aperture macros list*
%AMRoundRect*
0 Rectangle with rounded corners*
0 $1 Rounding radius*
0 $2 $3 $4 $5 $6 $7 $8 $9 X,Y pos of 4 corners*
0 Add a 4 corners polygon primitive as box body*
4,1,4,$2,$3,$4,$5,$6,$7,$8,$9,$2,$3,0*
0 Add four circle primitives for the rounded corners*
1,1,$1+$1,$2,$3*
1,1,$1+$1,$4,$5*
1,1,$1+$1,$6,$7*
1,1,$1+$1,$8,$9*
0 Add four rect primitives between the rounded corners*
20,1,$1+$1,$2,$3,$4,$5,0*
20,1,$1+$1,$4,$5,$6,$7,0*
20,1,$1+$1,$6,$7,$8,$9,0*
20,1,$1+$1,$8,$9,$2,$3,0*%
G04 Aperture macros list end*
%ADD10RoundRect,0.249999X-0.450001X-1.425001X0.450001X-1.425001X0.450001X1.425001X-0.450001X1.425001X0*%
%ADD11RoundRect,0.250000X0.450000X-0.350000X0.450000X0.350000X-0.450000X0.350000X-0.450000X-0.350000X0*%
%ADD12RoundRect,0.250000X1.000000X0.650000X-1.000000X0.650000X-1.000000X-0.650000X1.000000X-0.650000X0*%
%ADD13RoundRect,0.250000X-0.475000X0.337500X-0.475000X-0.337500X0.475000X-0.337500X0.475000X0.337500X0*%
%ADD14RoundRect,0.250000X-0.350000X-0.450000X0.350000X-0.450000X0.350000X0.450000X-0.350000X0.450000X0*%
%ADD15RoundRect,0.150000X0.150000X-0.587500X0.150000X0.587500X-0.150000X0.587500X-0.150000X-0.587500X0*%
%ADD16RoundRect,0.250001X0.944999X-0.507499X0.944999X0.507499X-0.944999X0.507499X-0.944999X-0.507499X0*%
%ADD17RoundRect,0.237500X0.287500X0.237500X-0.287500X0.237500X-0.287500X-0.237500X0.287500X-0.237500X0*%
%ADD18RoundRect,0.200000X0.200000X-0.750000X0.200000X0.750000X-0.200000X0.750000X-0.200000X-0.750000X0*%
%ADD19RoundRect,0.250000X0.350000X0.450000X-0.350000X0.450000X-0.350000X-0.450000X0.350000X-0.450000X0*%
%ADD20RoundRect,0.250000X0.650000X-0.412500X0.650000X0.412500X-0.650000X0.412500X-0.650000X-0.412500X0*%
%ADD21RoundRect,0.250000X-1.100000X0.412500X-1.100000X-0.412500X1.100000X-0.412500X1.100000X0.412500X0*%
%ADD22RoundRect,0.150000X0.150000X-0.825000X0.150000X0.825000X-0.150000X0.825000X-0.150000X-0.825000X0*%
%ADD23RoundRect,0.250001X1.499999X-0.949999X1.499999X0.949999X-1.499999X0.949999X-1.499999X-0.949999X0*%
%ADD24RoundRect,0.250000X0.475000X-0.337500X0.475000X0.337500X-0.475000X0.337500X-0.475000X-0.337500X0*%
%ADD25RoundRect,0.237500X-0.287500X-0.237500X0.287500X-0.237500X0.287500X0.237500X-0.287500X0.237500X0*%
%ADD26RoundRect,0.250000X0.650000X-1.000000X0.650000X1.000000X-0.650000X1.000000X-0.650000X-1.000000X0*%
%ADD27RoundRect,0.249999X1.425001X-0.450001X1.425001X0.450001X-1.425001X0.450001X-1.425001X-0.450001X0*%
%ADD28RoundRect,0.375000X-0.625000X-0.375000X0.625000X-0.375000X0.625000X0.375000X-0.625000X0.375000X0*%
%ADD29RoundRect,0.500000X-0.500000X-1.400000X0.500000X-1.400000X0.500000X1.400000X-0.500000X1.400000X0*%
%ADD30R,0.510000X1.100000*%
%ADD31RoundRect,0.381000X0.381000X-0.762000X0.381000X0.762000X-0.381000X0.762000X-0.381000X-0.762000X0*%
%ADD32RoundRect,0.381000X0.381000X-0.869000X0.381000X0.869000X-0.381000X0.869000X-0.381000X-0.869000X0*%
G04 APERTURE END LIST*
D10*
X111250000Y-78105000D03*
X117350000Y-78105000D03*
D11*
X150368000Y-124444000D03*
X150368000Y-122444000D03*
D12*
X155670001Y-130810000D03*
X151669999Y-130810000D03*
D13*
X139700000Y-123422500D03*
X139700000Y-125497500D03*
D14*
X137750000Y-94996000D03*
X139750000Y-94996000D03*
D15*
X141163000Y-120317500D03*
X143063000Y-120317500D03*
X142113000Y-118442500D03*
D16*
X122174000Y-116943500D03*
X122174000Y-113688500D03*
D17*
X124573000Y-107061000D03*
X122823000Y-107061000D03*
D12*
X157575001Y-119380000D03*
X153574999Y-119380000D03*
D11*
X99568000Y-91424000D03*
X99568000Y-89424000D03*
D16*
X126492000Y-116943500D03*
X126492000Y-113688500D03*
D11*
X139700000Y-130540000D03*
X139700000Y-128540000D03*
D14*
X137684000Y-92202000D03*
X139684000Y-92202000D03*
D18*
X138054000Y-84812000D03*
X139954000Y-84812000D03*
X139004000Y-81812000D03*
D19*
X129524000Y-104775000D03*
X127524000Y-104775000D03*
D14*
X127524000Y-107061000D03*
X129524000Y-107061000D03*
D20*
X131572000Y-116878500D03*
X131572000Y-113753500D03*
D10*
X131570000Y-77470000D03*
X137670000Y-77470000D03*
D19*
X139969200Y-87595200D03*
X137969200Y-87595200D03*
D21*
X156972000Y-124167500D03*
X156972000Y-127292500D03*
D22*
X108331000Y-89089000D03*
X109601000Y-89089000D03*
X110871000Y-89089000D03*
X112141000Y-89089000D03*
X112141000Y-84139000D03*
X110871000Y-84139000D03*
X109601000Y-84139000D03*
X108331000Y-84139000D03*
D23*
X167132000Y-131270000D03*
X167132000Y-125270000D03*
D24*
X121158000Y-122703500D03*
X121158000Y-120628500D03*
X135890000Y-130577500D03*
X135890000Y-128502500D03*
D11*
X103505000Y-91424000D03*
X103505000Y-89424000D03*
D14*
X122698000Y-109347000D03*
X124698000Y-109347000D03*
D25*
X137976600Y-89779600D03*
X139726600Y-89779600D03*
D13*
X153416000Y-124946500D03*
X153416000Y-127021500D03*
D17*
X124573000Y-104775000D03*
X122823000Y-104775000D03*
D21*
X135890000Y-122389500D03*
X135890000Y-125514500D03*
D26*
X146685000Y-85693001D03*
X146685000Y-81692999D03*
D27*
X161036000Y-128780000D03*
X161036000Y-122680000D03*
D28*
X124358000Y-120890000D03*
X124358000Y-123190000D03*
X124358000Y-125490000D03*
D29*
X130658000Y-123190000D03*
D30*
X144050000Y-129550000D03*
X145050000Y-129550000D03*
X146050000Y-129550000D03*
X147050000Y-129550000D03*
X148050000Y-129550000D03*
X148050000Y-124450000D03*
X147050000Y-124450000D03*
X146050000Y-124450000D03*
X145050000Y-124450000D03*
X144050000Y-124450000D03*
D31*
X109591000Y-100728000D03*
X107051000Y-100728000D03*
X104511000Y-100728000D03*
X101971000Y-100728000D03*
X99431000Y-100728000D03*
D32*
X91811000Y-118728000D03*
X94351000Y-118728000D03*
X96891000Y-118728000D03*
X99431000Y-118728000D03*
X101971000Y-118728000D03*
X104511000Y-118728000D03*
X107051000Y-118728000D03*
X109591000Y-118728000D03*
D31*
X96891000Y-100728000D03*
X91811000Y-100728000D03*
X94351000Y-100728000D03*
D22*
X115570000Y-89216000D03*
X116840000Y-89216000D03*
X118110000Y-89216000D03*
X119380000Y-89216000D03*
X119380000Y-84266000D03*
X118110000Y-84266000D03*
X116840000Y-84266000D03*
X115570000Y-84266000D03*
M02*
