%TF.GenerationSoftware,KiCad,Pcbnew,9.0.6*%
%TF.CreationDate,2026-01-18T01:02:47+03:00*%
%TF.ProjectId,Backup power switch 12v Module,4261636b-7570-4207-906f-776572207377,rev?*%
%TF.SameCoordinates,Original*%
%TF.FileFunction,Legend,Top*%
%TF.FilePolarity,Positive*%
%FSLAX46Y46*%
G04 Gerber Fmt 4.6, Leading zero omitted, Abs format (unit mm)*
G04 Created by KiCad (PCBNEW 9.0.6) date 2026-01-18 01:02:47*
%MOMM*%
%LPD*%
G01*
G04 APERTURE LIST*
%ADD10C,0.150000*%
%ADD11C,0.100000*%
%ADD12C,0.300000*%
%ADD13C,0.200000*%
%ADD14C,0.125000*%
%ADD15C,0.120000*%
G04 APERTURE END LIST*
D10*
X98234741Y-79685362D02*
X98853788Y-79685362D01*
X98853788Y-79685362D02*
X98520455Y-80066314D01*
X98520455Y-80066314D02*
X98663312Y-80066314D01*
X98663312Y-80066314D02*
X98758550Y-80113933D01*
X98758550Y-80113933D02*
X98806169Y-80161552D01*
X98806169Y-80161552D02*
X98853788Y-80256790D01*
X98853788Y-80256790D02*
X98853788Y-80494885D01*
X98853788Y-80494885D02*
X98806169Y-80590123D01*
X98806169Y-80590123D02*
X98758550Y-80637743D01*
X98758550Y-80637743D02*
X98663312Y-80685362D01*
X98663312Y-80685362D02*
X98377598Y-80685362D01*
X98377598Y-80685362D02*
X98282360Y-80637743D01*
X98282360Y-80637743D02*
X98234741Y-80590123D01*
X99187122Y-80018695D02*
X99425217Y-80685362D01*
X99425217Y-80685362D02*
X99663312Y-80018695D01*
X99949027Y-79685362D02*
X100568074Y-79685362D01*
X100568074Y-79685362D02*
X100234741Y-80066314D01*
X100234741Y-80066314D02*
X100377598Y-80066314D01*
X100377598Y-80066314D02*
X100472836Y-80113933D01*
X100472836Y-80113933D02*
X100520455Y-80161552D01*
X100520455Y-80161552D02*
X100568074Y-80256790D01*
X100568074Y-80256790D02*
X100568074Y-80494885D01*
X100568074Y-80494885D02*
X100520455Y-80590123D01*
X100520455Y-80590123D02*
X100472836Y-80637743D01*
X100472836Y-80637743D02*
X100377598Y-80685362D01*
X100377598Y-80685362D02*
X100091884Y-80685362D01*
X100091884Y-80685362D02*
X99996646Y-80637743D01*
X99996646Y-80637743D02*
X99949027Y-80590123D01*
X98329979Y-88784333D02*
X98329979Y-87784333D01*
X98329979Y-87784333D02*
X98568074Y-87784333D01*
X98568074Y-87784333D02*
X98710931Y-87831952D01*
X98710931Y-87831952D02*
X98806169Y-87927190D01*
X98806169Y-87927190D02*
X98853788Y-88022428D01*
X98853788Y-88022428D02*
X98901407Y-88212904D01*
X98901407Y-88212904D02*
X98901407Y-88355761D01*
X98901407Y-88355761D02*
X98853788Y-88546237D01*
X98853788Y-88546237D02*
X98806169Y-88641475D01*
X98806169Y-88641475D02*
X98710931Y-88736714D01*
X98710931Y-88736714D02*
X98568074Y-88784333D01*
X98568074Y-88784333D02*
X98329979Y-88784333D01*
X99472836Y-88784333D02*
X99377598Y-88736714D01*
X99377598Y-88736714D02*
X99329979Y-88689094D01*
X99329979Y-88689094D02*
X99282360Y-88593856D01*
X99282360Y-88593856D02*
X99282360Y-88308142D01*
X99282360Y-88308142D02*
X99329979Y-88212904D01*
X99329979Y-88212904D02*
X99377598Y-88165285D01*
X99377598Y-88165285D02*
X99472836Y-88117666D01*
X99472836Y-88117666D02*
X99615693Y-88117666D01*
X99615693Y-88117666D02*
X99710931Y-88165285D01*
X99710931Y-88165285D02*
X99758550Y-88212904D01*
X99758550Y-88212904D02*
X99806169Y-88308142D01*
X99806169Y-88308142D02*
X99806169Y-88593856D01*
X99806169Y-88593856D02*
X99758550Y-88689094D01*
X99758550Y-88689094D02*
X99710931Y-88736714D01*
X99710931Y-88736714D02*
X99615693Y-88784333D01*
X99615693Y-88784333D02*
X99472836Y-88784333D01*
X100234741Y-88117666D02*
X100234741Y-88784333D01*
X100234741Y-88212904D02*
X100282360Y-88165285D01*
X100282360Y-88165285D02*
X100377598Y-88117666D01*
X100377598Y-88117666D02*
X100520455Y-88117666D01*
X100520455Y-88117666D02*
X100615693Y-88165285D01*
X100615693Y-88165285D02*
X100663312Y-88260523D01*
X100663312Y-88260523D02*
X100663312Y-88784333D01*
X101520455Y-88736714D02*
X101425217Y-88784333D01*
X101425217Y-88784333D02*
X101234741Y-88784333D01*
X101234741Y-88784333D02*
X101139503Y-88736714D01*
X101139503Y-88736714D02*
X101091884Y-88641475D01*
X101091884Y-88641475D02*
X101091884Y-88260523D01*
X101091884Y-88260523D02*
X101139503Y-88165285D01*
X101139503Y-88165285D02*
X101234741Y-88117666D01*
X101234741Y-88117666D02*
X101425217Y-88117666D01*
X101425217Y-88117666D02*
X101520455Y-88165285D01*
X101520455Y-88165285D02*
X101568074Y-88260523D01*
X101568074Y-88260523D02*
X101568074Y-88355761D01*
X101568074Y-88355761D02*
X101091884Y-88450999D01*
D11*
X181485217Y-82254209D02*
X181628074Y-82301828D01*
X181628074Y-82301828D02*
X181675693Y-82349447D01*
X181675693Y-82349447D02*
X181723312Y-82444685D01*
X181723312Y-82444685D02*
X181723312Y-82587542D01*
X181723312Y-82587542D02*
X181675693Y-82682780D01*
X181675693Y-82682780D02*
X181628074Y-82730400D01*
X181628074Y-82730400D02*
X181532836Y-82778019D01*
X181532836Y-82778019D02*
X181151884Y-82778019D01*
X181151884Y-82778019D02*
X181151884Y-81778019D01*
X181151884Y-81778019D02*
X181485217Y-81778019D01*
X181485217Y-81778019D02*
X181580455Y-81825638D01*
X181580455Y-81825638D02*
X181628074Y-81873257D01*
X181628074Y-81873257D02*
X181675693Y-81968495D01*
X181675693Y-81968495D02*
X181675693Y-82063733D01*
X181675693Y-82063733D02*
X181628074Y-82158971D01*
X181628074Y-82158971D02*
X181580455Y-82206590D01*
X181580455Y-82206590D02*
X181485217Y-82254209D01*
X181485217Y-82254209D02*
X181151884Y-82254209D01*
D10*
X98282360Y-84687229D02*
X98425217Y-84734848D01*
X98425217Y-84734848D02*
X98663312Y-84734848D01*
X98663312Y-84734848D02*
X98758550Y-84687229D01*
X98758550Y-84687229D02*
X98806169Y-84639609D01*
X98806169Y-84639609D02*
X98853788Y-84544371D01*
X98853788Y-84544371D02*
X98853788Y-84449133D01*
X98853788Y-84449133D02*
X98806169Y-84353895D01*
X98806169Y-84353895D02*
X98758550Y-84306276D01*
X98758550Y-84306276D02*
X98663312Y-84258657D01*
X98663312Y-84258657D02*
X98472836Y-84211038D01*
X98472836Y-84211038D02*
X98377598Y-84163419D01*
X98377598Y-84163419D02*
X98329979Y-84115800D01*
X98329979Y-84115800D02*
X98282360Y-84020562D01*
X98282360Y-84020562D02*
X98282360Y-83925324D01*
X98282360Y-83925324D02*
X98329979Y-83830086D01*
X98329979Y-83830086D02*
X98377598Y-83782467D01*
X98377598Y-83782467D02*
X98472836Y-83734848D01*
X98472836Y-83734848D02*
X98710931Y-83734848D01*
X98710931Y-83734848D02*
X98853788Y-83782467D01*
X99710931Y-84734848D02*
X99710931Y-83734848D01*
X99710931Y-84687229D02*
X99615693Y-84734848D01*
X99615693Y-84734848D02*
X99425217Y-84734848D01*
X99425217Y-84734848D02*
X99329979Y-84687229D01*
X99329979Y-84687229D02*
X99282360Y-84639609D01*
X99282360Y-84639609D02*
X99234741Y-84544371D01*
X99234741Y-84544371D02*
X99234741Y-84258657D01*
X99234741Y-84258657D02*
X99282360Y-84163419D01*
X99282360Y-84163419D02*
X99329979Y-84115800D01*
X99329979Y-84115800D02*
X99425217Y-84068181D01*
X99425217Y-84068181D02*
X99615693Y-84068181D01*
X99615693Y-84068181D02*
X99710931Y-84115800D01*
X100615693Y-84734848D02*
X100615693Y-84211038D01*
X100615693Y-84211038D02*
X100568074Y-84115800D01*
X100568074Y-84115800D02*
X100472836Y-84068181D01*
X100472836Y-84068181D02*
X100282360Y-84068181D01*
X100282360Y-84068181D02*
X100187122Y-84115800D01*
X100615693Y-84687229D02*
X100520455Y-84734848D01*
X100520455Y-84734848D02*
X100282360Y-84734848D01*
X100282360Y-84734848D02*
X100187122Y-84687229D01*
X100187122Y-84687229D02*
X100139503Y-84591990D01*
X100139503Y-84591990D02*
X100139503Y-84496752D01*
X100139503Y-84496752D02*
X100187122Y-84401514D01*
X100187122Y-84401514D02*
X100282360Y-84353895D01*
X100282360Y-84353895D02*
X100520455Y-84353895D01*
X100520455Y-84353895D02*
X100615693Y-84306276D01*
X98282360Y-92548104D02*
X98758550Y-92548104D01*
X98187122Y-92833819D02*
X98520455Y-91833819D01*
X98520455Y-91833819D02*
X98853788Y-92833819D01*
X99377598Y-91833819D02*
X99472836Y-91833819D01*
X99472836Y-91833819D02*
X99568074Y-91881438D01*
X99568074Y-91881438D02*
X99615693Y-91929057D01*
X99615693Y-91929057D02*
X99663312Y-92024295D01*
X99663312Y-92024295D02*
X99710931Y-92214771D01*
X99710931Y-92214771D02*
X99710931Y-92452866D01*
X99710931Y-92452866D02*
X99663312Y-92643342D01*
X99663312Y-92643342D02*
X99615693Y-92738580D01*
X99615693Y-92738580D02*
X99568074Y-92786200D01*
X99568074Y-92786200D02*
X99472836Y-92833819D01*
X99472836Y-92833819D02*
X99377598Y-92833819D01*
X99377598Y-92833819D02*
X99282360Y-92786200D01*
X99282360Y-92786200D02*
X99234741Y-92738580D01*
X99234741Y-92738580D02*
X99187122Y-92643342D01*
X99187122Y-92643342D02*
X99139503Y-92452866D01*
X99139503Y-92452866D02*
X99139503Y-92214771D01*
X99139503Y-92214771D02*
X99187122Y-92024295D01*
X99187122Y-92024295D02*
X99234741Y-91929057D01*
X99234741Y-91929057D02*
X99282360Y-91881438D01*
X99282360Y-91881438D02*
X99377598Y-91833819D01*
D11*
X181304284Y-96544819D02*
X181304284Y-95544819D01*
X181304284Y-95544819D02*
X181685236Y-95544819D01*
X181685236Y-95544819D02*
X181780474Y-95592438D01*
X181780474Y-95592438D02*
X181828093Y-95640057D01*
X181828093Y-95640057D02*
X181875712Y-95735295D01*
X181875712Y-95735295D02*
X181875712Y-95878152D01*
X181875712Y-95878152D02*
X181828093Y-95973390D01*
X181828093Y-95973390D02*
X181780474Y-96021009D01*
X181780474Y-96021009D02*
X181685236Y-96068628D01*
X181685236Y-96068628D02*
X181304284Y-96068628D01*
D12*
X154639489Y-58174600D02*
X153496632Y-58174600D01*
X125484600Y-57433367D02*
X125484600Y-58576225D01*
X124913171Y-58004796D02*
X126056028Y-58004796D01*
D13*
X172512745Y-122209275D02*
X172512745Y-121209275D01*
X172512745Y-121209275D02*
X172893697Y-121209275D01*
X172893697Y-121209275D02*
X172988935Y-121256894D01*
X172988935Y-121256894D02*
X173036554Y-121304513D01*
X173036554Y-121304513D02*
X173084173Y-121399751D01*
X173084173Y-121399751D02*
X173084173Y-121542608D01*
X173084173Y-121542608D02*
X173036554Y-121637846D01*
X173036554Y-121637846D02*
X172988935Y-121685465D01*
X172988935Y-121685465D02*
X172893697Y-121733084D01*
X172893697Y-121733084D02*
X172512745Y-121733084D01*
X173655602Y-122209275D02*
X173560364Y-122161656D01*
X173560364Y-122161656D02*
X173512745Y-122114036D01*
X173512745Y-122114036D02*
X173465126Y-122018798D01*
X173465126Y-122018798D02*
X173465126Y-121733084D01*
X173465126Y-121733084D02*
X173512745Y-121637846D01*
X173512745Y-121637846D02*
X173560364Y-121590227D01*
X173560364Y-121590227D02*
X173655602Y-121542608D01*
X173655602Y-121542608D02*
X173798459Y-121542608D01*
X173798459Y-121542608D02*
X173893697Y-121590227D01*
X173893697Y-121590227D02*
X173941316Y-121637846D01*
X173941316Y-121637846D02*
X173988935Y-121733084D01*
X173988935Y-121733084D02*
X173988935Y-122018798D01*
X173988935Y-122018798D02*
X173941316Y-122114036D01*
X173941316Y-122114036D02*
X173893697Y-122161656D01*
X173893697Y-122161656D02*
X173798459Y-122209275D01*
X173798459Y-122209275D02*
X173655602Y-122209275D01*
X174322269Y-121542608D02*
X174512745Y-122209275D01*
X174512745Y-122209275D02*
X174703221Y-121733084D01*
X174703221Y-121733084D02*
X174893697Y-122209275D01*
X174893697Y-122209275D02*
X175084173Y-121542608D01*
X175846078Y-122161656D02*
X175750840Y-122209275D01*
X175750840Y-122209275D02*
X175560364Y-122209275D01*
X175560364Y-122209275D02*
X175465126Y-122161656D01*
X175465126Y-122161656D02*
X175417507Y-122066417D01*
X175417507Y-122066417D02*
X175417507Y-121685465D01*
X175417507Y-121685465D02*
X175465126Y-121590227D01*
X175465126Y-121590227D02*
X175560364Y-121542608D01*
X175560364Y-121542608D02*
X175750840Y-121542608D01*
X175750840Y-121542608D02*
X175846078Y-121590227D01*
X175846078Y-121590227D02*
X175893697Y-121685465D01*
X175893697Y-121685465D02*
X175893697Y-121780703D01*
X175893697Y-121780703D02*
X175417507Y-121875941D01*
X176322269Y-122209275D02*
X176322269Y-121542608D01*
X176322269Y-121733084D02*
X176369888Y-121637846D01*
X176369888Y-121637846D02*
X176417507Y-121590227D01*
X176417507Y-121590227D02*
X176512745Y-121542608D01*
X176512745Y-121542608D02*
X176607983Y-121542608D01*
X171274649Y-122819219D02*
X171607982Y-123819219D01*
X171607982Y-123819219D02*
X171941315Y-122819219D01*
X172417506Y-123819219D02*
X172322268Y-123771600D01*
X172322268Y-123771600D02*
X172274649Y-123723980D01*
X172274649Y-123723980D02*
X172227030Y-123628742D01*
X172227030Y-123628742D02*
X172227030Y-123343028D01*
X172227030Y-123343028D02*
X172274649Y-123247790D01*
X172274649Y-123247790D02*
X172322268Y-123200171D01*
X172322268Y-123200171D02*
X172417506Y-123152552D01*
X172417506Y-123152552D02*
X172560363Y-123152552D01*
X172560363Y-123152552D02*
X172655601Y-123200171D01*
X172655601Y-123200171D02*
X172703220Y-123247790D01*
X172703220Y-123247790D02*
X172750839Y-123343028D01*
X172750839Y-123343028D02*
X172750839Y-123628742D01*
X172750839Y-123628742D02*
X172703220Y-123723980D01*
X172703220Y-123723980D02*
X172655601Y-123771600D01*
X172655601Y-123771600D02*
X172560363Y-123819219D01*
X172560363Y-123819219D02*
X172417506Y-123819219D01*
X173322268Y-123819219D02*
X173227030Y-123771600D01*
X173227030Y-123771600D02*
X173179411Y-123676361D01*
X173179411Y-123676361D02*
X173179411Y-122819219D01*
X173560364Y-123152552D02*
X173941316Y-123152552D01*
X173703221Y-122819219D02*
X173703221Y-123676361D01*
X173703221Y-123676361D02*
X173750840Y-123771600D01*
X173750840Y-123771600D02*
X173846078Y-123819219D01*
X173846078Y-123819219D02*
X173941316Y-123819219D01*
X174703221Y-123819219D02*
X174703221Y-123295409D01*
X174703221Y-123295409D02*
X174655602Y-123200171D01*
X174655602Y-123200171D02*
X174560364Y-123152552D01*
X174560364Y-123152552D02*
X174369888Y-123152552D01*
X174369888Y-123152552D02*
X174274650Y-123200171D01*
X174703221Y-123771600D02*
X174607983Y-123819219D01*
X174607983Y-123819219D02*
X174369888Y-123819219D01*
X174369888Y-123819219D02*
X174274650Y-123771600D01*
X174274650Y-123771600D02*
X174227031Y-123676361D01*
X174227031Y-123676361D02*
X174227031Y-123581123D01*
X174227031Y-123581123D02*
X174274650Y-123485885D01*
X174274650Y-123485885D02*
X174369888Y-123438266D01*
X174369888Y-123438266D02*
X174607983Y-123438266D01*
X174607983Y-123438266D02*
X174703221Y-123390647D01*
X175607983Y-123152552D02*
X175607983Y-123962076D01*
X175607983Y-123962076D02*
X175560364Y-124057314D01*
X175560364Y-124057314D02*
X175512745Y-124104933D01*
X175512745Y-124104933D02*
X175417507Y-124152552D01*
X175417507Y-124152552D02*
X175274650Y-124152552D01*
X175274650Y-124152552D02*
X175179412Y-124104933D01*
X175607983Y-123771600D02*
X175512745Y-123819219D01*
X175512745Y-123819219D02*
X175322269Y-123819219D01*
X175322269Y-123819219D02*
X175227031Y-123771600D01*
X175227031Y-123771600D02*
X175179412Y-123723980D01*
X175179412Y-123723980D02*
X175131793Y-123628742D01*
X175131793Y-123628742D02*
X175131793Y-123343028D01*
X175131793Y-123343028D02*
X175179412Y-123247790D01*
X175179412Y-123247790D02*
X175227031Y-123200171D01*
X175227031Y-123200171D02*
X175322269Y-123152552D01*
X175322269Y-123152552D02*
X175512745Y-123152552D01*
X175512745Y-123152552D02*
X175607983Y-123200171D01*
X176465126Y-123771600D02*
X176369888Y-123819219D01*
X176369888Y-123819219D02*
X176179412Y-123819219D01*
X176179412Y-123819219D02*
X176084174Y-123771600D01*
X176084174Y-123771600D02*
X176036555Y-123676361D01*
X176036555Y-123676361D02*
X176036555Y-123295409D01*
X176036555Y-123295409D02*
X176084174Y-123200171D01*
X176084174Y-123200171D02*
X176179412Y-123152552D01*
X176179412Y-123152552D02*
X176369888Y-123152552D01*
X176369888Y-123152552D02*
X176465126Y-123200171D01*
X176465126Y-123200171D02*
X176512745Y-123295409D01*
X176512745Y-123295409D02*
X176512745Y-123390647D01*
X176512745Y-123390647D02*
X176036555Y-123485885D01*
D10*
X98282360Y-82662486D02*
X98425217Y-82710105D01*
X98425217Y-82710105D02*
X98663312Y-82710105D01*
X98663312Y-82710105D02*
X98758550Y-82662486D01*
X98758550Y-82662486D02*
X98806169Y-82614866D01*
X98806169Y-82614866D02*
X98853788Y-82519628D01*
X98853788Y-82519628D02*
X98853788Y-82424390D01*
X98853788Y-82424390D02*
X98806169Y-82329152D01*
X98806169Y-82329152D02*
X98758550Y-82281533D01*
X98758550Y-82281533D02*
X98663312Y-82233914D01*
X98663312Y-82233914D02*
X98472836Y-82186295D01*
X98472836Y-82186295D02*
X98377598Y-82138676D01*
X98377598Y-82138676D02*
X98329979Y-82091057D01*
X98329979Y-82091057D02*
X98282360Y-81995819D01*
X98282360Y-81995819D02*
X98282360Y-81900581D01*
X98282360Y-81900581D02*
X98329979Y-81805343D01*
X98329979Y-81805343D02*
X98377598Y-81757724D01*
X98377598Y-81757724D02*
X98472836Y-81710105D01*
X98472836Y-81710105D02*
X98710931Y-81710105D01*
X98710931Y-81710105D02*
X98853788Y-81757724D01*
X99710931Y-82662486D02*
X99615693Y-82710105D01*
X99615693Y-82710105D02*
X99425217Y-82710105D01*
X99425217Y-82710105D02*
X99329979Y-82662486D01*
X99329979Y-82662486D02*
X99282360Y-82614866D01*
X99282360Y-82614866D02*
X99234741Y-82519628D01*
X99234741Y-82519628D02*
X99234741Y-82233914D01*
X99234741Y-82233914D02*
X99282360Y-82138676D01*
X99282360Y-82138676D02*
X99329979Y-82091057D01*
X99329979Y-82091057D02*
X99425217Y-82043438D01*
X99425217Y-82043438D02*
X99615693Y-82043438D01*
X99615693Y-82043438D02*
X99710931Y-82091057D01*
X100282360Y-82710105D02*
X100187122Y-82662486D01*
X100187122Y-82662486D02*
X100139503Y-82567247D01*
X100139503Y-82567247D02*
X100139503Y-81710105D01*
X98853788Y-77708238D02*
X98758550Y-77660619D01*
X98758550Y-77660619D02*
X98615693Y-77660619D01*
X98615693Y-77660619D02*
X98472836Y-77708238D01*
X98472836Y-77708238D02*
X98377598Y-77803476D01*
X98377598Y-77803476D02*
X98329979Y-77898714D01*
X98329979Y-77898714D02*
X98282360Y-78089190D01*
X98282360Y-78089190D02*
X98282360Y-78232047D01*
X98282360Y-78232047D02*
X98329979Y-78422523D01*
X98329979Y-78422523D02*
X98377598Y-78517761D01*
X98377598Y-78517761D02*
X98472836Y-78613000D01*
X98472836Y-78613000D02*
X98615693Y-78660619D01*
X98615693Y-78660619D02*
X98710931Y-78660619D01*
X98710931Y-78660619D02*
X98853788Y-78613000D01*
X98853788Y-78613000D02*
X98901407Y-78565380D01*
X98901407Y-78565380D02*
X98901407Y-78232047D01*
X98901407Y-78232047D02*
X98710931Y-78232047D01*
X99329979Y-78660619D02*
X99329979Y-77660619D01*
X99329979Y-77660619D02*
X99901407Y-78660619D01*
X99901407Y-78660619D02*
X99901407Y-77660619D01*
X100377598Y-78660619D02*
X100377598Y-77660619D01*
X100377598Y-77660619D02*
X100615693Y-77660619D01*
X100615693Y-77660619D02*
X100758550Y-77708238D01*
X100758550Y-77708238D02*
X100853788Y-77803476D01*
X100853788Y-77803476D02*
X100901407Y-77898714D01*
X100901407Y-77898714D02*
X100949026Y-78089190D01*
X100949026Y-78089190D02*
X100949026Y-78232047D01*
X100949026Y-78232047D02*
X100901407Y-78422523D01*
X100901407Y-78422523D02*
X100853788Y-78517761D01*
X100853788Y-78517761D02*
X100758550Y-78613000D01*
X100758550Y-78613000D02*
X100615693Y-78660619D01*
X100615693Y-78660619D02*
X100377598Y-78660619D01*
D12*
X105418600Y-57433367D02*
X105418600Y-58576225D01*
X104847171Y-58004796D02*
X105990028Y-58004796D01*
D10*
X98282360Y-90523361D02*
X98758550Y-90523361D01*
X98187122Y-90809076D02*
X98520455Y-89809076D01*
X98520455Y-89809076D02*
X98853788Y-90809076D01*
X99710931Y-90809076D02*
X99139503Y-90809076D01*
X99425217Y-90809076D02*
X99425217Y-89809076D01*
X99425217Y-89809076D02*
X99329979Y-89951933D01*
X99329979Y-89951933D02*
X99234741Y-90047171D01*
X99234741Y-90047171D02*
X99139503Y-90094790D01*
D13*
X172227030Y-108388838D02*
X172131792Y-108341219D01*
X172131792Y-108341219D02*
X171988935Y-108341219D01*
X171988935Y-108341219D02*
X171846078Y-108388838D01*
X171846078Y-108388838D02*
X171750840Y-108484076D01*
X171750840Y-108484076D02*
X171703221Y-108579314D01*
X171703221Y-108579314D02*
X171655602Y-108769790D01*
X171655602Y-108769790D02*
X171655602Y-108912647D01*
X171655602Y-108912647D02*
X171703221Y-109103123D01*
X171703221Y-109103123D02*
X171750840Y-109198361D01*
X171750840Y-109198361D02*
X171846078Y-109293600D01*
X171846078Y-109293600D02*
X171988935Y-109341219D01*
X171988935Y-109341219D02*
X172084173Y-109341219D01*
X172084173Y-109341219D02*
X172227030Y-109293600D01*
X172227030Y-109293600D02*
X172274649Y-109245980D01*
X172274649Y-109245980D02*
X172274649Y-108912647D01*
X172274649Y-108912647D02*
X172084173Y-108912647D01*
X172703221Y-109341219D02*
X172703221Y-108674552D01*
X172703221Y-108865028D02*
X172750840Y-108769790D01*
X172750840Y-108769790D02*
X172798459Y-108722171D01*
X172798459Y-108722171D02*
X172893697Y-108674552D01*
X172893697Y-108674552D02*
X172988935Y-108674552D01*
X173465126Y-109341219D02*
X173369888Y-109293600D01*
X173369888Y-109293600D02*
X173322269Y-109245980D01*
X173322269Y-109245980D02*
X173274650Y-109150742D01*
X173274650Y-109150742D02*
X173274650Y-108865028D01*
X173274650Y-108865028D02*
X173322269Y-108769790D01*
X173322269Y-108769790D02*
X173369888Y-108722171D01*
X173369888Y-108722171D02*
X173465126Y-108674552D01*
X173465126Y-108674552D02*
X173607983Y-108674552D01*
X173607983Y-108674552D02*
X173703221Y-108722171D01*
X173703221Y-108722171D02*
X173750840Y-108769790D01*
X173750840Y-108769790D02*
X173798459Y-108865028D01*
X173798459Y-108865028D02*
X173798459Y-109150742D01*
X173798459Y-109150742D02*
X173750840Y-109245980D01*
X173750840Y-109245980D02*
X173703221Y-109293600D01*
X173703221Y-109293600D02*
X173607983Y-109341219D01*
X173607983Y-109341219D02*
X173465126Y-109341219D01*
X174655602Y-108674552D02*
X174655602Y-109341219D01*
X174227031Y-108674552D02*
X174227031Y-109198361D01*
X174227031Y-109198361D02*
X174274650Y-109293600D01*
X174274650Y-109293600D02*
X174369888Y-109341219D01*
X174369888Y-109341219D02*
X174512745Y-109341219D01*
X174512745Y-109341219D02*
X174607983Y-109293600D01*
X174607983Y-109293600D02*
X174655602Y-109245980D01*
X175131793Y-108674552D02*
X175131793Y-109341219D01*
X175131793Y-108769790D02*
X175179412Y-108722171D01*
X175179412Y-108722171D02*
X175274650Y-108674552D01*
X175274650Y-108674552D02*
X175417507Y-108674552D01*
X175417507Y-108674552D02*
X175512745Y-108722171D01*
X175512745Y-108722171D02*
X175560364Y-108817409D01*
X175560364Y-108817409D02*
X175560364Y-109341219D01*
X176465126Y-109341219D02*
X176465126Y-108341219D01*
X176465126Y-109293600D02*
X176369888Y-109341219D01*
X176369888Y-109341219D02*
X176179412Y-109341219D01*
X176179412Y-109341219D02*
X176084174Y-109293600D01*
X176084174Y-109293600D02*
X176036555Y-109245980D01*
X176036555Y-109245980D02*
X175988936Y-109150742D01*
X175988936Y-109150742D02*
X175988936Y-108865028D01*
X175988936Y-108865028D02*
X176036555Y-108769790D01*
X176036555Y-108769790D02*
X176084174Y-108722171D01*
X176084174Y-108722171D02*
X176179412Y-108674552D01*
X176179412Y-108674552D02*
X176369888Y-108674552D01*
X176369888Y-108674552D02*
X176465126Y-108722171D01*
D12*
X117648510Y-58157400D02*
X118791368Y-58157400D01*
D13*
X172102206Y-98759009D02*
X172245063Y-98806628D01*
X172245063Y-98806628D02*
X172292682Y-98854247D01*
X172292682Y-98854247D02*
X172340301Y-98949485D01*
X172340301Y-98949485D02*
X172340301Y-99092342D01*
X172340301Y-99092342D02*
X172292682Y-99187580D01*
X172292682Y-99187580D02*
X172245063Y-99235200D01*
X172245063Y-99235200D02*
X172149825Y-99282819D01*
X172149825Y-99282819D02*
X171768873Y-99282819D01*
X171768873Y-99282819D02*
X171768873Y-98282819D01*
X171768873Y-98282819D02*
X172102206Y-98282819D01*
X172102206Y-98282819D02*
X172197444Y-98330438D01*
X172197444Y-98330438D02*
X172245063Y-98378057D01*
X172245063Y-98378057D02*
X172292682Y-98473295D01*
X172292682Y-98473295D02*
X172292682Y-98568533D01*
X172292682Y-98568533D02*
X172245063Y-98663771D01*
X172245063Y-98663771D02*
X172197444Y-98711390D01*
X172197444Y-98711390D02*
X172102206Y-98759009D01*
X172102206Y-98759009D02*
X171768873Y-98759009D01*
X173197444Y-99282819D02*
X173197444Y-98759009D01*
X173197444Y-98759009D02*
X173149825Y-98663771D01*
X173149825Y-98663771D02*
X173054587Y-98616152D01*
X173054587Y-98616152D02*
X172864111Y-98616152D01*
X172864111Y-98616152D02*
X172768873Y-98663771D01*
X173197444Y-99235200D02*
X173102206Y-99282819D01*
X173102206Y-99282819D02*
X172864111Y-99282819D01*
X172864111Y-99282819D02*
X172768873Y-99235200D01*
X172768873Y-99235200D02*
X172721254Y-99139961D01*
X172721254Y-99139961D02*
X172721254Y-99044723D01*
X172721254Y-99044723D02*
X172768873Y-98949485D01*
X172768873Y-98949485D02*
X172864111Y-98901866D01*
X172864111Y-98901866D02*
X173102206Y-98901866D01*
X173102206Y-98901866D02*
X173197444Y-98854247D01*
X174102206Y-99235200D02*
X174006968Y-99282819D01*
X174006968Y-99282819D02*
X173816492Y-99282819D01*
X173816492Y-99282819D02*
X173721254Y-99235200D01*
X173721254Y-99235200D02*
X173673635Y-99187580D01*
X173673635Y-99187580D02*
X173626016Y-99092342D01*
X173626016Y-99092342D02*
X173626016Y-98806628D01*
X173626016Y-98806628D02*
X173673635Y-98711390D01*
X173673635Y-98711390D02*
X173721254Y-98663771D01*
X173721254Y-98663771D02*
X173816492Y-98616152D01*
X173816492Y-98616152D02*
X174006968Y-98616152D01*
X174006968Y-98616152D02*
X174102206Y-98663771D01*
X174530778Y-99282819D02*
X174530778Y-98282819D01*
X174626016Y-98901866D02*
X174911730Y-99282819D01*
X174911730Y-98616152D02*
X174530778Y-98997104D01*
X175768873Y-98616152D02*
X175768873Y-99282819D01*
X175340302Y-98616152D02*
X175340302Y-99139961D01*
X175340302Y-99139961D02*
X175387921Y-99235200D01*
X175387921Y-99235200D02*
X175483159Y-99282819D01*
X175483159Y-99282819D02*
X175626016Y-99282819D01*
X175626016Y-99282819D02*
X175721254Y-99235200D01*
X175721254Y-99235200D02*
X175768873Y-99187580D01*
X176245064Y-98616152D02*
X176245064Y-99616152D01*
X176245064Y-98663771D02*
X176340302Y-98616152D01*
X176340302Y-98616152D02*
X176530778Y-98616152D01*
X176530778Y-98616152D02*
X176626016Y-98663771D01*
X176626016Y-98663771D02*
X176673635Y-98711390D01*
X176673635Y-98711390D02*
X176721254Y-98806628D01*
X176721254Y-98806628D02*
X176721254Y-99092342D01*
X176721254Y-99092342D02*
X176673635Y-99187580D01*
X176673635Y-99187580D02*
X176626016Y-99235200D01*
X176626016Y-99235200D02*
X176530778Y-99282819D01*
X176530778Y-99282819D02*
X176340302Y-99282819D01*
X176340302Y-99282819D02*
X176245064Y-99235200D01*
X178102207Y-98282819D02*
X178292683Y-98282819D01*
X178292683Y-98282819D02*
X178387921Y-98330438D01*
X178387921Y-98330438D02*
X178483159Y-98425676D01*
X178483159Y-98425676D02*
X178530778Y-98616152D01*
X178530778Y-98616152D02*
X178530778Y-98949485D01*
X178530778Y-98949485D02*
X178483159Y-99139961D01*
X178483159Y-99139961D02*
X178387921Y-99235200D01*
X178387921Y-99235200D02*
X178292683Y-99282819D01*
X178292683Y-99282819D02*
X178102207Y-99282819D01*
X178102207Y-99282819D02*
X178006969Y-99235200D01*
X178006969Y-99235200D02*
X177911731Y-99139961D01*
X177911731Y-99139961D02*
X177864112Y-98949485D01*
X177864112Y-98949485D02*
X177864112Y-98616152D01*
X177864112Y-98616152D02*
X177911731Y-98425676D01*
X177911731Y-98425676D02*
X178006969Y-98330438D01*
X178006969Y-98330438D02*
X178102207Y-98282819D01*
X178959350Y-99282819D02*
X178959350Y-98282819D01*
X178959350Y-98282819D02*
X179530778Y-99282819D01*
X179530778Y-99282819D02*
X179530778Y-98282819D01*
D12*
X132658225Y-135852019D02*
X132943939Y-135947257D01*
X132943939Y-135947257D02*
X133039177Y-136042495D01*
X133039177Y-136042495D02*
X133134415Y-136232971D01*
X133134415Y-136232971D02*
X133134415Y-136518685D01*
X133134415Y-136518685D02*
X133039177Y-136709161D01*
X133039177Y-136709161D02*
X132943939Y-136804400D01*
X132943939Y-136804400D02*
X132753463Y-136899638D01*
X132753463Y-136899638D02*
X131991558Y-136899638D01*
X131991558Y-136899638D02*
X131991558Y-134899638D01*
X131991558Y-134899638D02*
X132658225Y-134899638D01*
X132658225Y-134899638D02*
X132848701Y-134994876D01*
X132848701Y-134994876D02*
X132943939Y-135090114D01*
X132943939Y-135090114D02*
X133039177Y-135280590D01*
X133039177Y-135280590D02*
X133039177Y-135471066D01*
X133039177Y-135471066D02*
X132943939Y-135661542D01*
X132943939Y-135661542D02*
X132848701Y-135756780D01*
X132848701Y-135756780D02*
X132658225Y-135852019D01*
X132658225Y-135852019D02*
X131991558Y-135852019D01*
X134848701Y-136899638D02*
X134848701Y-135852019D01*
X134848701Y-135852019D02*
X134753463Y-135661542D01*
X134753463Y-135661542D02*
X134562987Y-135566304D01*
X134562987Y-135566304D02*
X134182034Y-135566304D01*
X134182034Y-135566304D02*
X133991558Y-135661542D01*
X134848701Y-136804400D02*
X134658225Y-136899638D01*
X134658225Y-136899638D02*
X134182034Y-136899638D01*
X134182034Y-136899638D02*
X133991558Y-136804400D01*
X133991558Y-136804400D02*
X133896320Y-136613923D01*
X133896320Y-136613923D02*
X133896320Y-136423447D01*
X133896320Y-136423447D02*
X133991558Y-136232971D01*
X133991558Y-136232971D02*
X134182034Y-136137733D01*
X134182034Y-136137733D02*
X134658225Y-136137733D01*
X134658225Y-136137733D02*
X134848701Y-136042495D01*
X136658225Y-136804400D02*
X136467749Y-136899638D01*
X136467749Y-136899638D02*
X136086796Y-136899638D01*
X136086796Y-136899638D02*
X135896320Y-136804400D01*
X135896320Y-136804400D02*
X135801082Y-136709161D01*
X135801082Y-136709161D02*
X135705844Y-136518685D01*
X135705844Y-136518685D02*
X135705844Y-135947257D01*
X135705844Y-135947257D02*
X135801082Y-135756780D01*
X135801082Y-135756780D02*
X135896320Y-135661542D01*
X135896320Y-135661542D02*
X136086796Y-135566304D01*
X136086796Y-135566304D02*
X136467749Y-135566304D01*
X136467749Y-135566304D02*
X136658225Y-135661542D01*
X137515368Y-136899638D02*
X137515368Y-134899638D01*
X137705844Y-136137733D02*
X138277273Y-136899638D01*
X138277273Y-135566304D02*
X137515368Y-136328209D01*
X139991559Y-135566304D02*
X139991559Y-136899638D01*
X139134416Y-135566304D02*
X139134416Y-136613923D01*
X139134416Y-136613923D02*
X139229654Y-136804400D01*
X139229654Y-136804400D02*
X139420130Y-136899638D01*
X139420130Y-136899638D02*
X139705845Y-136899638D01*
X139705845Y-136899638D02*
X139896321Y-136804400D01*
X139896321Y-136804400D02*
X139991559Y-136709161D01*
X140943940Y-135566304D02*
X140943940Y-137566304D01*
X140943940Y-135661542D02*
X141134416Y-135566304D01*
X141134416Y-135566304D02*
X141515369Y-135566304D01*
X141515369Y-135566304D02*
X141705845Y-135661542D01*
X141705845Y-135661542D02*
X141801083Y-135756780D01*
X141801083Y-135756780D02*
X141896321Y-135947257D01*
X141896321Y-135947257D02*
X141896321Y-136518685D01*
X141896321Y-136518685D02*
X141801083Y-136709161D01*
X141801083Y-136709161D02*
X141705845Y-136804400D01*
X141705845Y-136804400D02*
X141515369Y-136899638D01*
X141515369Y-136899638D02*
X141134416Y-136899638D01*
X141134416Y-136899638D02*
X140943940Y-136804400D01*
X144277274Y-135566304D02*
X144277274Y-137566304D01*
X144277274Y-135661542D02*
X144467750Y-135566304D01*
X144467750Y-135566304D02*
X144848703Y-135566304D01*
X144848703Y-135566304D02*
X145039179Y-135661542D01*
X145039179Y-135661542D02*
X145134417Y-135756780D01*
X145134417Y-135756780D02*
X145229655Y-135947257D01*
X145229655Y-135947257D02*
X145229655Y-136518685D01*
X145229655Y-136518685D02*
X145134417Y-136709161D01*
X145134417Y-136709161D02*
X145039179Y-136804400D01*
X145039179Y-136804400D02*
X144848703Y-136899638D01*
X144848703Y-136899638D02*
X144467750Y-136899638D01*
X144467750Y-136899638D02*
X144277274Y-136804400D01*
X146372512Y-136899638D02*
X146182036Y-136804400D01*
X146182036Y-136804400D02*
X146086798Y-136709161D01*
X146086798Y-136709161D02*
X145991560Y-136518685D01*
X145991560Y-136518685D02*
X145991560Y-135947257D01*
X145991560Y-135947257D02*
X146086798Y-135756780D01*
X146086798Y-135756780D02*
X146182036Y-135661542D01*
X146182036Y-135661542D02*
X146372512Y-135566304D01*
X146372512Y-135566304D02*
X146658227Y-135566304D01*
X146658227Y-135566304D02*
X146848703Y-135661542D01*
X146848703Y-135661542D02*
X146943941Y-135756780D01*
X146943941Y-135756780D02*
X147039179Y-135947257D01*
X147039179Y-135947257D02*
X147039179Y-136518685D01*
X147039179Y-136518685D02*
X146943941Y-136709161D01*
X146943941Y-136709161D02*
X146848703Y-136804400D01*
X146848703Y-136804400D02*
X146658227Y-136899638D01*
X146658227Y-136899638D02*
X146372512Y-136899638D01*
X147705846Y-135566304D02*
X148086798Y-136899638D01*
X148086798Y-136899638D02*
X148467751Y-135947257D01*
X148467751Y-135947257D02*
X148848703Y-136899638D01*
X148848703Y-136899638D02*
X149229655Y-135566304D01*
X150753465Y-136804400D02*
X150562989Y-136899638D01*
X150562989Y-136899638D02*
X150182036Y-136899638D01*
X150182036Y-136899638D02*
X149991560Y-136804400D01*
X149991560Y-136804400D02*
X149896322Y-136613923D01*
X149896322Y-136613923D02*
X149896322Y-135852019D01*
X149896322Y-135852019D02*
X149991560Y-135661542D01*
X149991560Y-135661542D02*
X150182036Y-135566304D01*
X150182036Y-135566304D02*
X150562989Y-135566304D01*
X150562989Y-135566304D02*
X150753465Y-135661542D01*
X150753465Y-135661542D02*
X150848703Y-135852019D01*
X150848703Y-135852019D02*
X150848703Y-136042495D01*
X150848703Y-136042495D02*
X149896322Y-136232971D01*
X151705846Y-136899638D02*
X151705846Y-135566304D01*
X151705846Y-135947257D02*
X151801084Y-135756780D01*
X151801084Y-135756780D02*
X151896322Y-135661542D01*
X151896322Y-135661542D02*
X152086798Y-135566304D01*
X152086798Y-135566304D02*
X152277275Y-135566304D01*
X154372513Y-136804400D02*
X154562989Y-136899638D01*
X154562989Y-136899638D02*
X154943941Y-136899638D01*
X154943941Y-136899638D02*
X155134418Y-136804400D01*
X155134418Y-136804400D02*
X155229656Y-136613923D01*
X155229656Y-136613923D02*
X155229656Y-136518685D01*
X155229656Y-136518685D02*
X155134418Y-136328209D01*
X155134418Y-136328209D02*
X154943941Y-136232971D01*
X154943941Y-136232971D02*
X154658227Y-136232971D01*
X154658227Y-136232971D02*
X154467751Y-136137733D01*
X154467751Y-136137733D02*
X154372513Y-135947257D01*
X154372513Y-135947257D02*
X154372513Y-135852019D01*
X154372513Y-135852019D02*
X154467751Y-135661542D01*
X154467751Y-135661542D02*
X154658227Y-135566304D01*
X154658227Y-135566304D02*
X154943941Y-135566304D01*
X154943941Y-135566304D02*
X155134418Y-135661542D01*
X155896323Y-135566304D02*
X156277275Y-136899638D01*
X156277275Y-136899638D02*
X156658228Y-135947257D01*
X156658228Y-135947257D02*
X157039180Y-136899638D01*
X157039180Y-136899638D02*
X157420132Y-135566304D01*
X158182037Y-136899638D02*
X158182037Y-135566304D01*
X158182037Y-134899638D02*
X158086799Y-134994876D01*
X158086799Y-134994876D02*
X158182037Y-135090114D01*
X158182037Y-135090114D02*
X158277275Y-134994876D01*
X158277275Y-134994876D02*
X158182037Y-134899638D01*
X158182037Y-134899638D02*
X158182037Y-135090114D01*
X158848704Y-135566304D02*
X159610608Y-135566304D01*
X159134418Y-134899638D02*
X159134418Y-136613923D01*
X159134418Y-136613923D02*
X159229656Y-136804400D01*
X159229656Y-136804400D02*
X159420132Y-136899638D01*
X159420132Y-136899638D02*
X159610608Y-136899638D01*
X161134418Y-136804400D02*
X160943942Y-136899638D01*
X160943942Y-136899638D02*
X160562989Y-136899638D01*
X160562989Y-136899638D02*
X160372513Y-136804400D01*
X160372513Y-136804400D02*
X160277275Y-136709161D01*
X160277275Y-136709161D02*
X160182037Y-136518685D01*
X160182037Y-136518685D02*
X160182037Y-135947257D01*
X160182037Y-135947257D02*
X160277275Y-135756780D01*
X160277275Y-135756780D02*
X160372513Y-135661542D01*
X160372513Y-135661542D02*
X160562989Y-135566304D01*
X160562989Y-135566304D02*
X160943942Y-135566304D01*
X160943942Y-135566304D02*
X161134418Y-135661542D01*
X161991561Y-136899638D02*
X161991561Y-134899638D01*
X162848704Y-136899638D02*
X162848704Y-135852019D01*
X162848704Y-135852019D02*
X162753466Y-135661542D01*
X162753466Y-135661542D02*
X162562990Y-135566304D01*
X162562990Y-135566304D02*
X162277275Y-135566304D01*
X162277275Y-135566304D02*
X162086799Y-135661542D01*
X162086799Y-135661542D02*
X161991561Y-135756780D01*
X165324895Y-136899638D02*
X165324895Y-134899638D01*
X165324895Y-135661542D02*
X165515371Y-135566304D01*
X165515371Y-135566304D02*
X165896324Y-135566304D01*
X165896324Y-135566304D02*
X166086800Y-135661542D01*
X166086800Y-135661542D02*
X166182038Y-135756780D01*
X166182038Y-135756780D02*
X166277276Y-135947257D01*
X166277276Y-135947257D02*
X166277276Y-136518685D01*
X166277276Y-136518685D02*
X166182038Y-136709161D01*
X166182038Y-136709161D02*
X166086800Y-136804400D01*
X166086800Y-136804400D02*
X165896324Y-136899638D01*
X165896324Y-136899638D02*
X165515371Y-136899638D01*
X165515371Y-136899638D02*
X165324895Y-136804400D01*
X167420133Y-136899638D02*
X167229657Y-136804400D01*
X167229657Y-136804400D02*
X167134419Y-136709161D01*
X167134419Y-136709161D02*
X167039181Y-136518685D01*
X167039181Y-136518685D02*
X167039181Y-135947257D01*
X167039181Y-135947257D02*
X167134419Y-135756780D01*
X167134419Y-135756780D02*
X167229657Y-135661542D01*
X167229657Y-135661542D02*
X167420133Y-135566304D01*
X167420133Y-135566304D02*
X167705848Y-135566304D01*
X167705848Y-135566304D02*
X167896324Y-135661542D01*
X167896324Y-135661542D02*
X167991562Y-135756780D01*
X167991562Y-135756780D02*
X168086800Y-135947257D01*
X168086800Y-135947257D02*
X168086800Y-136518685D01*
X168086800Y-136518685D02*
X167991562Y-136709161D01*
X167991562Y-136709161D02*
X167896324Y-136804400D01*
X167896324Y-136804400D02*
X167705848Y-136899638D01*
X167705848Y-136899638D02*
X167420133Y-136899638D01*
X169801086Y-136899638D02*
X169801086Y-135852019D01*
X169801086Y-135852019D02*
X169705848Y-135661542D01*
X169705848Y-135661542D02*
X169515372Y-135566304D01*
X169515372Y-135566304D02*
X169134419Y-135566304D01*
X169134419Y-135566304D02*
X168943943Y-135661542D01*
X169801086Y-136804400D02*
X169610610Y-136899638D01*
X169610610Y-136899638D02*
X169134419Y-136899638D01*
X169134419Y-136899638D02*
X168943943Y-136804400D01*
X168943943Y-136804400D02*
X168848705Y-136613923D01*
X168848705Y-136613923D02*
X168848705Y-136423447D01*
X168848705Y-136423447D02*
X168943943Y-136232971D01*
X168943943Y-136232971D02*
X169134419Y-136137733D01*
X169134419Y-136137733D02*
X169610610Y-136137733D01*
X169610610Y-136137733D02*
X169801086Y-136042495D01*
X170753467Y-136899638D02*
X170753467Y-135566304D01*
X170753467Y-135947257D02*
X170848705Y-135756780D01*
X170848705Y-135756780D02*
X170943943Y-135661542D01*
X170943943Y-135661542D02*
X171134419Y-135566304D01*
X171134419Y-135566304D02*
X171324896Y-135566304D01*
X172848705Y-136899638D02*
X172848705Y-134899638D01*
X172848705Y-136804400D02*
X172658229Y-136899638D01*
X172658229Y-136899638D02*
X172277276Y-136899638D01*
X172277276Y-136899638D02*
X172086800Y-136804400D01*
X172086800Y-136804400D02*
X171991562Y-136709161D01*
X171991562Y-136709161D02*
X171896324Y-136518685D01*
X171896324Y-136518685D02*
X171896324Y-135947257D01*
X171896324Y-135947257D02*
X171991562Y-135756780D01*
X171991562Y-135756780D02*
X172086800Y-135661542D01*
X172086800Y-135661542D02*
X172277276Y-135566304D01*
X172277276Y-135566304D02*
X172658229Y-135566304D01*
X172658229Y-135566304D02*
X172848705Y-135661542D01*
D13*
X90492054Y-68161504D02*
X90968244Y-68161504D01*
X90396816Y-68447219D02*
X90730149Y-67447219D01*
X90730149Y-67447219D02*
X91063482Y-68447219D01*
X91396816Y-68447219D02*
X91396816Y-67447219D01*
X91396816Y-67828171D02*
X91492054Y-67780552D01*
X91492054Y-67780552D02*
X91682530Y-67780552D01*
X91682530Y-67780552D02*
X91777768Y-67828171D01*
X91777768Y-67828171D02*
X91825387Y-67875790D01*
X91825387Y-67875790D02*
X91873006Y-67971028D01*
X91873006Y-67971028D02*
X91873006Y-68256742D01*
X91873006Y-68256742D02*
X91825387Y-68351980D01*
X91825387Y-68351980D02*
X91777768Y-68399600D01*
X91777768Y-68399600D02*
X91682530Y-68447219D01*
X91682530Y-68447219D02*
X91492054Y-68447219D01*
X91492054Y-68447219D02*
X91396816Y-68399600D01*
X92682530Y-68399600D02*
X92587292Y-68447219D01*
X92587292Y-68447219D02*
X92396816Y-68447219D01*
X92396816Y-68447219D02*
X92301578Y-68399600D01*
X92301578Y-68399600D02*
X92253959Y-68304361D01*
X92253959Y-68304361D02*
X92253959Y-67923409D01*
X92253959Y-67923409D02*
X92301578Y-67828171D01*
X92301578Y-67828171D02*
X92396816Y-67780552D01*
X92396816Y-67780552D02*
X92587292Y-67780552D01*
X92587292Y-67780552D02*
X92682530Y-67828171D01*
X92682530Y-67828171D02*
X92730149Y-67923409D01*
X92730149Y-67923409D02*
X92730149Y-68018647D01*
X92730149Y-68018647D02*
X92253959Y-68113885D01*
X93301578Y-68447219D02*
X93206340Y-68399600D01*
X93206340Y-68399600D02*
X93158721Y-68304361D01*
X93158721Y-68304361D02*
X93158721Y-67447219D01*
X94634912Y-67447219D02*
X94730150Y-67447219D01*
X94730150Y-67447219D02*
X94825388Y-67494838D01*
X94825388Y-67494838D02*
X94873007Y-67542457D01*
X94873007Y-67542457D02*
X94920626Y-67637695D01*
X94920626Y-67637695D02*
X94968245Y-67828171D01*
X94968245Y-67828171D02*
X94968245Y-68066266D01*
X94968245Y-68066266D02*
X94920626Y-68256742D01*
X94920626Y-68256742D02*
X94873007Y-68351980D01*
X94873007Y-68351980D02*
X94825388Y-68399600D01*
X94825388Y-68399600D02*
X94730150Y-68447219D01*
X94730150Y-68447219D02*
X94634912Y-68447219D01*
X94634912Y-68447219D02*
X94539674Y-68399600D01*
X94539674Y-68399600D02*
X94492055Y-68351980D01*
X94492055Y-68351980D02*
X94444436Y-68256742D01*
X94444436Y-68256742D02*
X94396817Y-68066266D01*
X94396817Y-68066266D02*
X94396817Y-67828171D01*
X94396817Y-67828171D02*
X94444436Y-67637695D01*
X94444436Y-67637695D02*
X94492055Y-67542457D01*
X94492055Y-67542457D02*
X94539674Y-67494838D01*
X94539674Y-67494838D02*
X94634912Y-67447219D01*
X95920626Y-68447219D02*
X95349198Y-68447219D01*
X95634912Y-68447219D02*
X95634912Y-67447219D01*
X95634912Y-67447219D02*
X95539674Y-67590076D01*
X95539674Y-67590076D02*
X95444436Y-67685314D01*
X95444436Y-67685314D02*
X95349198Y-67732933D01*
X97063483Y-67399600D02*
X96206341Y-68685314D01*
X97349198Y-67542457D02*
X97396817Y-67494838D01*
X97396817Y-67494838D02*
X97492055Y-67447219D01*
X97492055Y-67447219D02*
X97730150Y-67447219D01*
X97730150Y-67447219D02*
X97825388Y-67494838D01*
X97825388Y-67494838D02*
X97873007Y-67542457D01*
X97873007Y-67542457D02*
X97920626Y-67637695D01*
X97920626Y-67637695D02*
X97920626Y-67732933D01*
X97920626Y-67732933D02*
X97873007Y-67875790D01*
X97873007Y-67875790D02*
X97301579Y-68447219D01*
X97301579Y-68447219D02*
X97920626Y-68447219D01*
X98539674Y-67447219D02*
X98634912Y-67447219D01*
X98634912Y-67447219D02*
X98730150Y-67494838D01*
X98730150Y-67494838D02*
X98777769Y-67542457D01*
X98777769Y-67542457D02*
X98825388Y-67637695D01*
X98825388Y-67637695D02*
X98873007Y-67828171D01*
X98873007Y-67828171D02*
X98873007Y-68066266D01*
X98873007Y-68066266D02*
X98825388Y-68256742D01*
X98825388Y-68256742D02*
X98777769Y-68351980D01*
X98777769Y-68351980D02*
X98730150Y-68399600D01*
X98730150Y-68399600D02*
X98634912Y-68447219D01*
X98634912Y-68447219D02*
X98539674Y-68447219D01*
X98539674Y-68447219D02*
X98444436Y-68399600D01*
X98444436Y-68399600D02*
X98396817Y-68351980D01*
X98396817Y-68351980D02*
X98349198Y-68256742D01*
X98349198Y-68256742D02*
X98301579Y-68066266D01*
X98301579Y-68066266D02*
X98301579Y-67828171D01*
X98301579Y-67828171D02*
X98349198Y-67637695D01*
X98349198Y-67637695D02*
X98396817Y-67542457D01*
X98396817Y-67542457D02*
X98444436Y-67494838D01*
X98444436Y-67494838D02*
X98539674Y-67447219D01*
X99253960Y-67542457D02*
X99301579Y-67494838D01*
X99301579Y-67494838D02*
X99396817Y-67447219D01*
X99396817Y-67447219D02*
X99634912Y-67447219D01*
X99634912Y-67447219D02*
X99730150Y-67494838D01*
X99730150Y-67494838D02*
X99777769Y-67542457D01*
X99777769Y-67542457D02*
X99825388Y-67637695D01*
X99825388Y-67637695D02*
X99825388Y-67732933D01*
X99825388Y-67732933D02*
X99777769Y-67875790D01*
X99777769Y-67875790D02*
X99206341Y-68447219D01*
X99206341Y-68447219D02*
X99825388Y-68447219D01*
X100682531Y-67447219D02*
X100492055Y-67447219D01*
X100492055Y-67447219D02*
X100396817Y-67494838D01*
X100396817Y-67494838D02*
X100349198Y-67542457D01*
X100349198Y-67542457D02*
X100253960Y-67685314D01*
X100253960Y-67685314D02*
X100206341Y-67875790D01*
X100206341Y-67875790D02*
X100206341Y-68256742D01*
X100206341Y-68256742D02*
X100253960Y-68351980D01*
X100253960Y-68351980D02*
X100301579Y-68399600D01*
X100301579Y-68399600D02*
X100396817Y-68447219D01*
X100396817Y-68447219D02*
X100587293Y-68447219D01*
X100587293Y-68447219D02*
X100682531Y-68399600D01*
X100682531Y-68399600D02*
X100730150Y-68351980D01*
X100730150Y-68351980D02*
X100777769Y-68256742D01*
X100777769Y-68256742D02*
X100777769Y-68018647D01*
X100777769Y-68018647D02*
X100730150Y-67923409D01*
X100730150Y-67923409D02*
X100682531Y-67875790D01*
X100682531Y-67875790D02*
X100587293Y-67828171D01*
X100587293Y-67828171D02*
X100396817Y-67828171D01*
X100396817Y-67828171D02*
X100301579Y-67875790D01*
X100301579Y-67875790D02*
X100253960Y-67923409D01*
X100253960Y-67923409D02*
X100206341Y-68018647D01*
D10*
X98901407Y-86664351D02*
X98853788Y-86711971D01*
X98853788Y-86711971D02*
X98710931Y-86759590D01*
X98710931Y-86759590D02*
X98615693Y-86759590D01*
X98615693Y-86759590D02*
X98472836Y-86711971D01*
X98472836Y-86711971D02*
X98377598Y-86616732D01*
X98377598Y-86616732D02*
X98329979Y-86521494D01*
X98329979Y-86521494D02*
X98282360Y-86331018D01*
X98282360Y-86331018D02*
X98282360Y-86188161D01*
X98282360Y-86188161D02*
X98329979Y-85997685D01*
X98329979Y-85997685D02*
X98377598Y-85902447D01*
X98377598Y-85902447D02*
X98472836Y-85807209D01*
X98472836Y-85807209D02*
X98615693Y-85759590D01*
X98615693Y-85759590D02*
X98710931Y-85759590D01*
X98710931Y-85759590D02*
X98853788Y-85807209D01*
X98853788Y-85807209D02*
X98901407Y-85854828D01*
X99329979Y-86759590D02*
X99329979Y-85759590D01*
X99329979Y-86235780D02*
X99901407Y-86235780D01*
X99901407Y-86759590D02*
X99901407Y-85759590D01*
X100949026Y-86759590D02*
X100615693Y-86283399D01*
X100377598Y-86759590D02*
X100377598Y-85759590D01*
X100377598Y-85759590D02*
X100758550Y-85759590D01*
X100758550Y-85759590D02*
X100853788Y-85807209D01*
X100853788Y-85807209D02*
X100901407Y-85854828D01*
X100901407Y-85854828D02*
X100949026Y-85950066D01*
X100949026Y-85950066D02*
X100949026Y-86092923D01*
X100949026Y-86092923D02*
X100901407Y-86188161D01*
X100901407Y-86188161D02*
X100853788Y-86235780D01*
X100853788Y-86235780D02*
X100758550Y-86283399D01*
X100758550Y-86283399D02*
X100377598Y-86283399D01*
X101901407Y-85807209D02*
X101806169Y-85759590D01*
X101806169Y-85759590D02*
X101663312Y-85759590D01*
X101663312Y-85759590D02*
X101520455Y-85807209D01*
X101520455Y-85807209D02*
X101425217Y-85902447D01*
X101425217Y-85902447D02*
X101377598Y-85997685D01*
X101377598Y-85997685D02*
X101329979Y-86188161D01*
X101329979Y-86188161D02*
X101329979Y-86331018D01*
X101329979Y-86331018D02*
X101377598Y-86521494D01*
X101377598Y-86521494D02*
X101425217Y-86616732D01*
X101425217Y-86616732D02*
X101520455Y-86711971D01*
X101520455Y-86711971D02*
X101663312Y-86759590D01*
X101663312Y-86759590D02*
X101758550Y-86759590D01*
X101758550Y-86759590D02*
X101901407Y-86711971D01*
X101901407Y-86711971D02*
X101949026Y-86664351D01*
X101949026Y-86664351D02*
X101949026Y-86331018D01*
X101949026Y-86331018D02*
X101758550Y-86331018D01*
D12*
X166107400Y-58627489D02*
X166107400Y-57484632D01*
X166678828Y-58056060D02*
X165535971Y-58056060D01*
D13*
X143413483Y-111068419D02*
X143413483Y-110068419D01*
X143413483Y-110068419D02*
X143651578Y-110068419D01*
X143651578Y-110068419D02*
X143794435Y-110116038D01*
X143794435Y-110116038D02*
X143889673Y-110211276D01*
X143889673Y-110211276D02*
X143937292Y-110306514D01*
X143937292Y-110306514D02*
X143984911Y-110496990D01*
X143984911Y-110496990D02*
X143984911Y-110639847D01*
X143984911Y-110639847D02*
X143937292Y-110830323D01*
X143937292Y-110830323D02*
X143889673Y-110925561D01*
X143889673Y-110925561D02*
X143794435Y-111020800D01*
X143794435Y-111020800D02*
X143651578Y-111068419D01*
X143651578Y-111068419D02*
X143413483Y-111068419D01*
X144603959Y-110068419D02*
X144794435Y-110068419D01*
X144794435Y-110068419D02*
X144889673Y-110116038D01*
X144889673Y-110116038D02*
X144984911Y-110211276D01*
X144984911Y-110211276D02*
X145032530Y-110401752D01*
X145032530Y-110401752D02*
X145032530Y-110735085D01*
X145032530Y-110735085D02*
X144984911Y-110925561D01*
X144984911Y-110925561D02*
X144889673Y-111020800D01*
X144889673Y-111020800D02*
X144794435Y-111068419D01*
X144794435Y-111068419D02*
X144603959Y-111068419D01*
X144603959Y-111068419D02*
X144508721Y-111020800D01*
X144508721Y-111020800D02*
X144413483Y-110925561D01*
X144413483Y-110925561D02*
X144365864Y-110735085D01*
X144365864Y-110735085D02*
X144365864Y-110401752D01*
X144365864Y-110401752D02*
X144413483Y-110211276D01*
X144413483Y-110211276D02*
X144508721Y-110116038D01*
X144508721Y-110116038D02*
X144603959Y-110068419D01*
X145461102Y-111068419D02*
X145461102Y-110068419D01*
X145461102Y-110068419D02*
X146032530Y-111068419D01*
X146032530Y-111068419D02*
X146032530Y-110068419D01*
X146508721Y-110544609D02*
X146842054Y-110544609D01*
X146984911Y-111068419D02*
X146508721Y-111068419D01*
X146508721Y-111068419D02*
X146508721Y-110068419D01*
X146508721Y-110068419D02*
X146984911Y-110068419D01*
X143984911Y-103149980D02*
X143937292Y-103197600D01*
X143937292Y-103197600D02*
X143794435Y-103245219D01*
X143794435Y-103245219D02*
X143699197Y-103245219D01*
X143699197Y-103245219D02*
X143556340Y-103197600D01*
X143556340Y-103197600D02*
X143461102Y-103102361D01*
X143461102Y-103102361D02*
X143413483Y-103007123D01*
X143413483Y-103007123D02*
X143365864Y-102816647D01*
X143365864Y-102816647D02*
X143365864Y-102673790D01*
X143365864Y-102673790D02*
X143413483Y-102483314D01*
X143413483Y-102483314D02*
X143461102Y-102388076D01*
X143461102Y-102388076D02*
X143556340Y-102292838D01*
X143556340Y-102292838D02*
X143699197Y-102245219D01*
X143699197Y-102245219D02*
X143794435Y-102245219D01*
X143794435Y-102245219D02*
X143937292Y-102292838D01*
X143937292Y-102292838D02*
X143984911Y-102340457D01*
X144413483Y-103245219D02*
X144413483Y-102245219D01*
X144413483Y-102721409D02*
X144984911Y-102721409D01*
X144984911Y-103245219D02*
X144984911Y-102245219D01*
X146032530Y-103245219D02*
X145699197Y-102769028D01*
X145461102Y-103245219D02*
X145461102Y-102245219D01*
X145461102Y-102245219D02*
X145842054Y-102245219D01*
X145842054Y-102245219D02*
X145937292Y-102292838D01*
X145937292Y-102292838D02*
X145984911Y-102340457D01*
X145984911Y-102340457D02*
X146032530Y-102435695D01*
X146032530Y-102435695D02*
X146032530Y-102578552D01*
X146032530Y-102578552D02*
X145984911Y-102673790D01*
X145984911Y-102673790D02*
X145937292Y-102721409D01*
X145937292Y-102721409D02*
X145842054Y-102769028D01*
X145842054Y-102769028D02*
X145461102Y-102769028D01*
X146984911Y-102292838D02*
X146889673Y-102245219D01*
X146889673Y-102245219D02*
X146746816Y-102245219D01*
X146746816Y-102245219D02*
X146603959Y-102292838D01*
X146603959Y-102292838D02*
X146508721Y-102388076D01*
X146508721Y-102388076D02*
X146461102Y-102483314D01*
X146461102Y-102483314D02*
X146413483Y-102673790D01*
X146413483Y-102673790D02*
X146413483Y-102816647D01*
X146413483Y-102816647D02*
X146461102Y-103007123D01*
X146461102Y-103007123D02*
X146508721Y-103102361D01*
X146508721Y-103102361D02*
X146603959Y-103197600D01*
X146603959Y-103197600D02*
X146746816Y-103245219D01*
X146746816Y-103245219D02*
X146842054Y-103245219D01*
X146842054Y-103245219D02*
X146984911Y-103197600D01*
X146984911Y-103197600D02*
X147032530Y-103149980D01*
X147032530Y-103149980D02*
X147032530Y-102816647D01*
X147032530Y-102816647D02*
X146842054Y-102816647D01*
D11*
X176592512Y-91318780D02*
X176544893Y-91366400D01*
X176544893Y-91366400D02*
X176402036Y-91414019D01*
X176402036Y-91414019D02*
X176306798Y-91414019D01*
X176306798Y-91414019D02*
X176163941Y-91366400D01*
X176163941Y-91366400D02*
X176068703Y-91271161D01*
X176068703Y-91271161D02*
X176021084Y-91175923D01*
X176021084Y-91175923D02*
X175973465Y-90985447D01*
X175973465Y-90985447D02*
X175973465Y-90842590D01*
X175973465Y-90842590D02*
X176021084Y-90652114D01*
X176021084Y-90652114D02*
X176068703Y-90556876D01*
X176068703Y-90556876D02*
X176163941Y-90461638D01*
X176163941Y-90461638D02*
X176306798Y-90414019D01*
X176306798Y-90414019D02*
X176402036Y-90414019D01*
X176402036Y-90414019D02*
X176544893Y-90461638D01*
X176544893Y-90461638D02*
X176592512Y-90509257D01*
D12*
X137714510Y-58157400D02*
X138857368Y-58157400D01*
D13*
X171988934Y-115081465D02*
X172131791Y-115129084D01*
X172131791Y-115129084D02*
X172179410Y-115176703D01*
X172179410Y-115176703D02*
X172227029Y-115271941D01*
X172227029Y-115271941D02*
X172227029Y-115414798D01*
X172227029Y-115414798D02*
X172179410Y-115510036D01*
X172179410Y-115510036D02*
X172131791Y-115557656D01*
X172131791Y-115557656D02*
X172036553Y-115605275D01*
X172036553Y-115605275D02*
X171655601Y-115605275D01*
X171655601Y-115605275D02*
X171655601Y-114605275D01*
X171655601Y-114605275D02*
X171988934Y-114605275D01*
X171988934Y-114605275D02*
X172084172Y-114652894D01*
X172084172Y-114652894D02*
X172131791Y-114700513D01*
X172131791Y-114700513D02*
X172179410Y-114795751D01*
X172179410Y-114795751D02*
X172179410Y-114890989D01*
X172179410Y-114890989D02*
X172131791Y-114986227D01*
X172131791Y-114986227D02*
X172084172Y-115033846D01*
X172084172Y-115033846D02*
X171988934Y-115081465D01*
X171988934Y-115081465D02*
X171655601Y-115081465D01*
X173084172Y-115605275D02*
X173084172Y-115081465D01*
X173084172Y-115081465D02*
X173036553Y-114986227D01*
X173036553Y-114986227D02*
X172941315Y-114938608D01*
X172941315Y-114938608D02*
X172750839Y-114938608D01*
X172750839Y-114938608D02*
X172655601Y-114986227D01*
X173084172Y-115557656D02*
X172988934Y-115605275D01*
X172988934Y-115605275D02*
X172750839Y-115605275D01*
X172750839Y-115605275D02*
X172655601Y-115557656D01*
X172655601Y-115557656D02*
X172607982Y-115462417D01*
X172607982Y-115462417D02*
X172607982Y-115367179D01*
X172607982Y-115367179D02*
X172655601Y-115271941D01*
X172655601Y-115271941D02*
X172750839Y-115224322D01*
X172750839Y-115224322D02*
X172988934Y-115224322D01*
X172988934Y-115224322D02*
X173084172Y-115176703D01*
X173417506Y-114938608D02*
X173798458Y-114938608D01*
X173560363Y-114605275D02*
X173560363Y-115462417D01*
X173560363Y-115462417D02*
X173607982Y-115557656D01*
X173607982Y-115557656D02*
X173703220Y-115605275D01*
X173703220Y-115605275D02*
X173798458Y-115605275D01*
X173988935Y-114938608D02*
X174369887Y-114938608D01*
X174131792Y-114605275D02*
X174131792Y-115462417D01*
X174131792Y-115462417D02*
X174179411Y-115557656D01*
X174179411Y-115557656D02*
X174274649Y-115605275D01*
X174274649Y-115605275D02*
X174369887Y-115605275D01*
X175084173Y-115557656D02*
X174988935Y-115605275D01*
X174988935Y-115605275D02*
X174798459Y-115605275D01*
X174798459Y-115605275D02*
X174703221Y-115557656D01*
X174703221Y-115557656D02*
X174655602Y-115462417D01*
X174655602Y-115462417D02*
X174655602Y-115081465D01*
X174655602Y-115081465D02*
X174703221Y-114986227D01*
X174703221Y-114986227D02*
X174798459Y-114938608D01*
X174798459Y-114938608D02*
X174988935Y-114938608D01*
X174988935Y-114938608D02*
X175084173Y-114986227D01*
X175084173Y-114986227D02*
X175131792Y-115081465D01*
X175131792Y-115081465D02*
X175131792Y-115176703D01*
X175131792Y-115176703D02*
X174655602Y-115271941D01*
X175560364Y-115605275D02*
X175560364Y-114938608D01*
X175560364Y-115129084D02*
X175607983Y-115033846D01*
X175607983Y-115033846D02*
X175655602Y-114986227D01*
X175655602Y-114986227D02*
X175750840Y-114938608D01*
X175750840Y-114938608D02*
X175846078Y-114938608D01*
X176084174Y-114938608D02*
X176322269Y-115605275D01*
X176560364Y-114938608D02*
X176322269Y-115605275D01*
X176322269Y-115605275D02*
X176227031Y-115843370D01*
X176227031Y-115843370D02*
X176179412Y-115890989D01*
X176179412Y-115890989D02*
X176084174Y-115938608D01*
X171274649Y-116215219D02*
X171607982Y-117215219D01*
X171607982Y-117215219D02*
X171941315Y-116215219D01*
X172417506Y-117215219D02*
X172322268Y-117167600D01*
X172322268Y-117167600D02*
X172274649Y-117119980D01*
X172274649Y-117119980D02*
X172227030Y-117024742D01*
X172227030Y-117024742D02*
X172227030Y-116739028D01*
X172227030Y-116739028D02*
X172274649Y-116643790D01*
X172274649Y-116643790D02*
X172322268Y-116596171D01*
X172322268Y-116596171D02*
X172417506Y-116548552D01*
X172417506Y-116548552D02*
X172560363Y-116548552D01*
X172560363Y-116548552D02*
X172655601Y-116596171D01*
X172655601Y-116596171D02*
X172703220Y-116643790D01*
X172703220Y-116643790D02*
X172750839Y-116739028D01*
X172750839Y-116739028D02*
X172750839Y-117024742D01*
X172750839Y-117024742D02*
X172703220Y-117119980D01*
X172703220Y-117119980D02*
X172655601Y-117167600D01*
X172655601Y-117167600D02*
X172560363Y-117215219D01*
X172560363Y-117215219D02*
X172417506Y-117215219D01*
X173322268Y-117215219D02*
X173227030Y-117167600D01*
X173227030Y-117167600D02*
X173179411Y-117072361D01*
X173179411Y-117072361D02*
X173179411Y-116215219D01*
X173560364Y-116548552D02*
X173941316Y-116548552D01*
X173703221Y-116215219D02*
X173703221Y-117072361D01*
X173703221Y-117072361D02*
X173750840Y-117167600D01*
X173750840Y-117167600D02*
X173846078Y-117215219D01*
X173846078Y-117215219D02*
X173941316Y-117215219D01*
X174703221Y-117215219D02*
X174703221Y-116691409D01*
X174703221Y-116691409D02*
X174655602Y-116596171D01*
X174655602Y-116596171D02*
X174560364Y-116548552D01*
X174560364Y-116548552D02*
X174369888Y-116548552D01*
X174369888Y-116548552D02*
X174274650Y-116596171D01*
X174703221Y-117167600D02*
X174607983Y-117215219D01*
X174607983Y-117215219D02*
X174369888Y-117215219D01*
X174369888Y-117215219D02*
X174274650Y-117167600D01*
X174274650Y-117167600D02*
X174227031Y-117072361D01*
X174227031Y-117072361D02*
X174227031Y-116977123D01*
X174227031Y-116977123D02*
X174274650Y-116881885D01*
X174274650Y-116881885D02*
X174369888Y-116834266D01*
X174369888Y-116834266D02*
X174607983Y-116834266D01*
X174607983Y-116834266D02*
X174703221Y-116786647D01*
X175607983Y-116548552D02*
X175607983Y-117358076D01*
X175607983Y-117358076D02*
X175560364Y-117453314D01*
X175560364Y-117453314D02*
X175512745Y-117500933D01*
X175512745Y-117500933D02*
X175417507Y-117548552D01*
X175417507Y-117548552D02*
X175274650Y-117548552D01*
X175274650Y-117548552D02*
X175179412Y-117500933D01*
X175607983Y-117167600D02*
X175512745Y-117215219D01*
X175512745Y-117215219D02*
X175322269Y-117215219D01*
X175322269Y-117215219D02*
X175227031Y-117167600D01*
X175227031Y-117167600D02*
X175179412Y-117119980D01*
X175179412Y-117119980D02*
X175131793Y-117024742D01*
X175131793Y-117024742D02*
X175131793Y-116739028D01*
X175131793Y-116739028D02*
X175179412Y-116643790D01*
X175179412Y-116643790D02*
X175227031Y-116596171D01*
X175227031Y-116596171D02*
X175322269Y-116548552D01*
X175322269Y-116548552D02*
X175512745Y-116548552D01*
X175512745Y-116548552D02*
X175607983Y-116596171D01*
X176465126Y-117167600D02*
X176369888Y-117215219D01*
X176369888Y-117215219D02*
X176179412Y-117215219D01*
X176179412Y-117215219D02*
X176084174Y-117167600D01*
X176084174Y-117167600D02*
X176036555Y-117072361D01*
X176036555Y-117072361D02*
X176036555Y-116691409D01*
X176036555Y-116691409D02*
X176084174Y-116596171D01*
X176084174Y-116596171D02*
X176179412Y-116548552D01*
X176179412Y-116548552D02*
X176369888Y-116548552D01*
X176369888Y-116548552D02*
X176465126Y-116596171D01*
X176465126Y-116596171D02*
X176512745Y-116691409D01*
X176512745Y-116691409D02*
X176512745Y-116786647D01*
X176512745Y-116786647D02*
X176036555Y-116881885D01*
D10*
X143978333Y-105864819D02*
X143645000Y-105388628D01*
X143406905Y-105864819D02*
X143406905Y-104864819D01*
X143406905Y-104864819D02*
X143787857Y-104864819D01*
X143787857Y-104864819D02*
X143883095Y-104912438D01*
X143883095Y-104912438D02*
X143930714Y-104960057D01*
X143930714Y-104960057D02*
X143978333Y-105055295D01*
X143978333Y-105055295D02*
X143978333Y-105198152D01*
X143978333Y-105198152D02*
X143930714Y-105293390D01*
X143930714Y-105293390D02*
X143883095Y-105341009D01*
X143883095Y-105341009D02*
X143787857Y-105388628D01*
X143787857Y-105388628D02*
X143406905Y-105388628D01*
X144930714Y-105864819D02*
X144359286Y-105864819D01*
X144645000Y-105864819D02*
X144645000Y-104864819D01*
X144645000Y-104864819D02*
X144549762Y-105007676D01*
X144549762Y-105007676D02*
X144454524Y-105102914D01*
X144454524Y-105102914D02*
X144359286Y-105150533D01*
X115987533Y-79423419D02*
X115654200Y-78947228D01*
X115416105Y-79423419D02*
X115416105Y-78423419D01*
X115416105Y-78423419D02*
X115797057Y-78423419D01*
X115797057Y-78423419D02*
X115892295Y-78471038D01*
X115892295Y-78471038D02*
X115939914Y-78518657D01*
X115939914Y-78518657D02*
X115987533Y-78613895D01*
X115987533Y-78613895D02*
X115987533Y-78756752D01*
X115987533Y-78756752D02*
X115939914Y-78851990D01*
X115939914Y-78851990D02*
X115892295Y-78899609D01*
X115892295Y-78899609D02*
X115797057Y-78947228D01*
X115797057Y-78947228D02*
X115416105Y-78947228D01*
X116844676Y-78756752D02*
X116844676Y-79423419D01*
X116606581Y-78375800D02*
X116368486Y-79090085D01*
X116368486Y-79090085D02*
X116987533Y-79090085D01*
X150963333Y-121104819D02*
X150630000Y-120628628D01*
X150391905Y-121104819D02*
X150391905Y-120104819D01*
X150391905Y-120104819D02*
X150772857Y-120104819D01*
X150772857Y-120104819D02*
X150868095Y-120152438D01*
X150868095Y-120152438D02*
X150915714Y-120200057D01*
X150915714Y-120200057D02*
X150963333Y-120295295D01*
X150963333Y-120295295D02*
X150963333Y-120438152D01*
X150963333Y-120438152D02*
X150915714Y-120533390D01*
X150915714Y-120533390D02*
X150868095Y-120581009D01*
X150868095Y-120581009D02*
X150772857Y-120628628D01*
X150772857Y-120628628D02*
X150391905Y-120628628D01*
X151868095Y-120104819D02*
X151391905Y-120104819D01*
X151391905Y-120104819D02*
X151344286Y-120581009D01*
X151344286Y-120581009D02*
X151391905Y-120533390D01*
X151391905Y-120533390D02*
X151487143Y-120485771D01*
X151487143Y-120485771D02*
X151725238Y-120485771D01*
X151725238Y-120485771D02*
X151820476Y-120533390D01*
X151820476Y-120533390D02*
X151868095Y-120581009D01*
X151868095Y-120581009D02*
X151915714Y-120676247D01*
X151915714Y-120676247D02*
X151915714Y-120914342D01*
X151915714Y-120914342D02*
X151868095Y-121009580D01*
X151868095Y-121009580D02*
X151820476Y-121057200D01*
X151820476Y-121057200D02*
X151725238Y-121104819D01*
X151725238Y-121104819D02*
X151487143Y-121104819D01*
X151487143Y-121104819D02*
X151391905Y-121057200D01*
X151391905Y-121057200D02*
X151344286Y-121009580D01*
X92173466Y-74275619D02*
X92173466Y-74989904D01*
X92173466Y-74989904D02*
X92125847Y-75132761D01*
X92125847Y-75132761D02*
X92030609Y-75228000D01*
X92030609Y-75228000D02*
X91887752Y-75275619D01*
X91887752Y-75275619D02*
X91792514Y-75275619D01*
X93125847Y-74275619D02*
X92649657Y-74275619D01*
X92649657Y-74275619D02*
X92602038Y-74751809D01*
X92602038Y-74751809D02*
X92649657Y-74704190D01*
X92649657Y-74704190D02*
X92744895Y-74656571D01*
X92744895Y-74656571D02*
X92982990Y-74656571D01*
X92982990Y-74656571D02*
X93078228Y-74704190D01*
X93078228Y-74704190D02*
X93125847Y-74751809D01*
X93125847Y-74751809D02*
X93173466Y-74847047D01*
X93173466Y-74847047D02*
X93173466Y-75085142D01*
X93173466Y-75085142D02*
X93125847Y-75180380D01*
X93125847Y-75180380D02*
X93078228Y-75228000D01*
X93078228Y-75228000D02*
X92982990Y-75275619D01*
X92982990Y-75275619D02*
X92744895Y-75275619D01*
X92744895Y-75275619D02*
X92649657Y-75228000D01*
X92649657Y-75228000D02*
X92602038Y-75180380D01*
X158265905Y-132788819D02*
X158265905Y-131788819D01*
X158265905Y-131788819D02*
X158504000Y-131788819D01*
X158504000Y-131788819D02*
X158646857Y-131836438D01*
X158646857Y-131836438D02*
X158742095Y-131931676D01*
X158742095Y-131931676D02*
X158789714Y-132026914D01*
X158789714Y-132026914D02*
X158837333Y-132217390D01*
X158837333Y-132217390D02*
X158837333Y-132360247D01*
X158837333Y-132360247D02*
X158789714Y-132550723D01*
X158789714Y-132550723D02*
X158742095Y-132645961D01*
X158742095Y-132645961D02*
X158646857Y-132741200D01*
X158646857Y-132741200D02*
X158504000Y-132788819D01*
X158504000Y-132788819D02*
X158265905Y-132788819D01*
X159694476Y-132122152D02*
X159694476Y-132788819D01*
X159456381Y-131741200D02*
X159218286Y-132455485D01*
X159218286Y-132455485D02*
X159837333Y-132455485D01*
X169141807Y-104340819D02*
X168808474Y-103864628D01*
X168570379Y-104340819D02*
X168570379Y-103340819D01*
X168570379Y-103340819D02*
X168951331Y-103340819D01*
X168951331Y-103340819D02*
X169046569Y-103388438D01*
X169046569Y-103388438D02*
X169094188Y-103436057D01*
X169094188Y-103436057D02*
X169141807Y-103531295D01*
X169141807Y-103531295D02*
X169141807Y-103674152D01*
X169141807Y-103674152D02*
X169094188Y-103769390D01*
X169094188Y-103769390D02*
X169046569Y-103817009D01*
X169046569Y-103817009D02*
X168951331Y-103864628D01*
X168951331Y-103864628D02*
X168570379Y-103864628D01*
X170094188Y-104340819D02*
X169522760Y-104340819D01*
X169808474Y-104340819D02*
X169808474Y-103340819D01*
X169808474Y-103340819D02*
X169713236Y-103483676D01*
X169713236Y-103483676D02*
X169617998Y-103578914D01*
X169617998Y-103578914D02*
X169522760Y-103626533D01*
X171046569Y-104340819D02*
X170475141Y-104340819D01*
X170760855Y-104340819D02*
X170760855Y-103340819D01*
X170760855Y-103340819D02*
X170665617Y-103483676D01*
X170665617Y-103483676D02*
X170570379Y-103578914D01*
X170570379Y-103578914D02*
X170475141Y-103626533D01*
X129868419Y-103621904D02*
X130677942Y-103621904D01*
X130677942Y-103621904D02*
X130773180Y-103574285D01*
X130773180Y-103574285D02*
X130820800Y-103526666D01*
X130820800Y-103526666D02*
X130868419Y-103431428D01*
X130868419Y-103431428D02*
X130868419Y-103240952D01*
X130868419Y-103240952D02*
X130820800Y-103145714D01*
X130820800Y-103145714D02*
X130773180Y-103098095D01*
X130773180Y-103098095D02*
X130677942Y-103050476D01*
X130677942Y-103050476D02*
X129868419Y-103050476D01*
X130201752Y-102145714D02*
X130868419Y-102145714D01*
X129820800Y-102383809D02*
X130535085Y-102621904D01*
X130535085Y-102621904D02*
X130535085Y-102002857D01*
X167917905Y-77670819D02*
X167917905Y-76670819D01*
X168489333Y-77670819D02*
X168060762Y-77099390D01*
X168489333Y-76670819D02*
X167917905Y-77242247D01*
X169441714Y-77670819D02*
X168870286Y-77670819D01*
X169156000Y-77670819D02*
X169156000Y-76670819D01*
X169156000Y-76670819D02*
X169060762Y-76813676D01*
X169060762Y-76813676D02*
X168965524Y-76908914D01*
X168965524Y-76908914D02*
X168870286Y-76956533D01*
X107608761Y-86156819D02*
X107275428Y-85680628D01*
X107037333Y-86156819D02*
X107037333Y-85156819D01*
X107037333Y-85156819D02*
X107418285Y-85156819D01*
X107418285Y-85156819D02*
X107513523Y-85204438D01*
X107513523Y-85204438D02*
X107561142Y-85252057D01*
X107561142Y-85252057D02*
X107608761Y-85347295D01*
X107608761Y-85347295D02*
X107608761Y-85490152D01*
X107608761Y-85490152D02*
X107561142Y-85585390D01*
X107561142Y-85585390D02*
X107513523Y-85633009D01*
X107513523Y-85633009D02*
X107418285Y-85680628D01*
X107418285Y-85680628D02*
X107037333Y-85680628D01*
X107894476Y-85156819D02*
X108227809Y-86156819D01*
X108227809Y-86156819D02*
X108561142Y-85156819D01*
X109418285Y-86156819D02*
X108846857Y-86156819D01*
X109132571Y-86156819D02*
X109132571Y-85156819D01*
X109132571Y-85156819D02*
X109037333Y-85299676D01*
X109037333Y-85299676D02*
X108942095Y-85394914D01*
X108942095Y-85394914D02*
X108846857Y-85442533D01*
X139533333Y-121009580D02*
X139485714Y-121057200D01*
X139485714Y-121057200D02*
X139342857Y-121104819D01*
X139342857Y-121104819D02*
X139247619Y-121104819D01*
X139247619Y-121104819D02*
X139104762Y-121057200D01*
X139104762Y-121057200D02*
X139009524Y-120961961D01*
X139009524Y-120961961D02*
X138961905Y-120866723D01*
X138961905Y-120866723D02*
X138914286Y-120676247D01*
X138914286Y-120676247D02*
X138914286Y-120533390D01*
X138914286Y-120533390D02*
X138961905Y-120342914D01*
X138961905Y-120342914D02*
X139009524Y-120247676D01*
X139009524Y-120247676D02*
X139104762Y-120152438D01*
X139104762Y-120152438D02*
X139247619Y-120104819D01*
X139247619Y-120104819D02*
X139342857Y-120104819D01*
X139342857Y-120104819D02*
X139485714Y-120152438D01*
X139485714Y-120152438D02*
X139533333Y-120200057D01*
X140390476Y-120104819D02*
X140200000Y-120104819D01*
X140200000Y-120104819D02*
X140104762Y-120152438D01*
X140104762Y-120152438D02*
X140057143Y-120200057D01*
X140057143Y-120200057D02*
X139961905Y-120342914D01*
X139961905Y-120342914D02*
X139914286Y-120533390D01*
X139914286Y-120533390D02*
X139914286Y-120914342D01*
X139914286Y-120914342D02*
X139961905Y-121009580D01*
X139961905Y-121009580D02*
X140009524Y-121057200D01*
X140009524Y-121057200D02*
X140104762Y-121104819D01*
X140104762Y-121104819D02*
X140295238Y-121104819D01*
X140295238Y-121104819D02*
X140390476Y-121057200D01*
X140390476Y-121057200D02*
X140438095Y-121009580D01*
X140438095Y-121009580D02*
X140485714Y-120914342D01*
X140485714Y-120914342D02*
X140485714Y-120676247D01*
X140485714Y-120676247D02*
X140438095Y-120581009D01*
X140438095Y-120581009D02*
X140390476Y-120533390D01*
X140390476Y-120533390D02*
X140295238Y-120485771D01*
X140295238Y-120485771D02*
X140104762Y-120485771D01*
X140104762Y-120485771D02*
X140009524Y-120533390D01*
X140009524Y-120533390D02*
X139961905Y-120581009D01*
X139961905Y-120581009D02*
X139914286Y-120676247D01*
X169141807Y-109420819D02*
X168808474Y-108944628D01*
X168570379Y-109420819D02*
X168570379Y-108420819D01*
X168570379Y-108420819D02*
X168951331Y-108420819D01*
X168951331Y-108420819D02*
X169046569Y-108468438D01*
X169046569Y-108468438D02*
X169094188Y-108516057D01*
X169094188Y-108516057D02*
X169141807Y-108611295D01*
X169141807Y-108611295D02*
X169141807Y-108754152D01*
X169141807Y-108754152D02*
X169094188Y-108849390D01*
X169094188Y-108849390D02*
X169046569Y-108897009D01*
X169046569Y-108897009D02*
X168951331Y-108944628D01*
X168951331Y-108944628D02*
X168570379Y-108944628D01*
X169475141Y-108420819D02*
X170094188Y-108420819D01*
X170094188Y-108420819D02*
X169760855Y-108801771D01*
X169760855Y-108801771D02*
X169903712Y-108801771D01*
X169903712Y-108801771D02*
X169998950Y-108849390D01*
X169998950Y-108849390D02*
X170046569Y-108897009D01*
X170046569Y-108897009D02*
X170094188Y-108992247D01*
X170094188Y-108992247D02*
X170094188Y-109230342D01*
X170094188Y-109230342D02*
X170046569Y-109325580D01*
X170046569Y-109325580D02*
X169998950Y-109373200D01*
X169998950Y-109373200D02*
X169903712Y-109420819D01*
X169903712Y-109420819D02*
X169617998Y-109420819D01*
X169617998Y-109420819D02*
X169522760Y-109373200D01*
X169522760Y-109373200D02*
X169475141Y-109325580D01*
X145192761Y-117390057D02*
X145097523Y-117342438D01*
X145097523Y-117342438D02*
X145002285Y-117247200D01*
X145002285Y-117247200D02*
X144859428Y-117104342D01*
X144859428Y-117104342D02*
X144764190Y-117056723D01*
X144764190Y-117056723D02*
X144668952Y-117056723D01*
X144716571Y-117294819D02*
X144621333Y-117247200D01*
X144621333Y-117247200D02*
X144526095Y-117151961D01*
X144526095Y-117151961D02*
X144478476Y-116961485D01*
X144478476Y-116961485D02*
X144478476Y-116628152D01*
X144478476Y-116628152D02*
X144526095Y-116437676D01*
X144526095Y-116437676D02*
X144621333Y-116342438D01*
X144621333Y-116342438D02*
X144716571Y-116294819D01*
X144716571Y-116294819D02*
X144907047Y-116294819D01*
X144907047Y-116294819D02*
X145002285Y-116342438D01*
X145002285Y-116342438D02*
X145097523Y-116437676D01*
X145097523Y-116437676D02*
X145145142Y-116628152D01*
X145145142Y-116628152D02*
X145145142Y-116961485D01*
X145145142Y-116961485D02*
X145097523Y-117151961D01*
X145097523Y-117151961D02*
X145002285Y-117247200D01*
X145002285Y-117247200D02*
X144907047Y-117294819D01*
X144907047Y-117294819D02*
X144716571Y-117294819D01*
X145526095Y-116390057D02*
X145573714Y-116342438D01*
X145573714Y-116342438D02*
X145668952Y-116294819D01*
X145668952Y-116294819D02*
X145907047Y-116294819D01*
X145907047Y-116294819D02*
X146002285Y-116342438D01*
X146002285Y-116342438D02*
X146049904Y-116390057D01*
X146049904Y-116390057D02*
X146097523Y-116485295D01*
X146097523Y-116485295D02*
X146097523Y-116580533D01*
X146097523Y-116580533D02*
X146049904Y-116723390D01*
X146049904Y-116723390D02*
X145478476Y-117294819D01*
X145478476Y-117294819D02*
X146097523Y-117294819D01*
X106259333Y-124057580D02*
X106211714Y-124105200D01*
X106211714Y-124105200D02*
X106068857Y-124152819D01*
X106068857Y-124152819D02*
X105973619Y-124152819D01*
X105973619Y-124152819D02*
X105830762Y-124105200D01*
X105830762Y-124105200D02*
X105735524Y-124009961D01*
X105735524Y-124009961D02*
X105687905Y-123914723D01*
X105687905Y-123914723D02*
X105640286Y-123724247D01*
X105640286Y-123724247D02*
X105640286Y-123581390D01*
X105640286Y-123581390D02*
X105687905Y-123390914D01*
X105687905Y-123390914D02*
X105735524Y-123295676D01*
X105735524Y-123295676D02*
X105830762Y-123200438D01*
X105830762Y-123200438D02*
X105973619Y-123152819D01*
X105973619Y-123152819D02*
X106068857Y-123152819D01*
X106068857Y-123152819D02*
X106211714Y-123200438D01*
X106211714Y-123200438D02*
X106259333Y-123248057D01*
X106640286Y-123248057D02*
X106687905Y-123200438D01*
X106687905Y-123200438D02*
X106783143Y-123152819D01*
X106783143Y-123152819D02*
X107021238Y-123152819D01*
X107021238Y-123152819D02*
X107116476Y-123200438D01*
X107116476Y-123200438D02*
X107164095Y-123248057D01*
X107164095Y-123248057D02*
X107211714Y-123343295D01*
X107211714Y-123343295D02*
X107211714Y-123438533D01*
X107211714Y-123438533D02*
X107164095Y-123581390D01*
X107164095Y-123581390D02*
X106592667Y-124152819D01*
X106592667Y-124152819D02*
X107211714Y-124152819D01*
X165276305Y-118260019D02*
X165276305Y-117260019D01*
X165276305Y-117260019D02*
X165514400Y-117260019D01*
X165514400Y-117260019D02*
X165657257Y-117307638D01*
X165657257Y-117307638D02*
X165752495Y-117402876D01*
X165752495Y-117402876D02*
X165800114Y-117498114D01*
X165800114Y-117498114D02*
X165847733Y-117688590D01*
X165847733Y-117688590D02*
X165847733Y-117831447D01*
X165847733Y-117831447D02*
X165800114Y-118021923D01*
X165800114Y-118021923D02*
X165752495Y-118117161D01*
X165752495Y-118117161D02*
X165657257Y-118212400D01*
X165657257Y-118212400D02*
X165514400Y-118260019D01*
X165514400Y-118260019D02*
X165276305Y-118260019D01*
X166181067Y-117260019D02*
X166800114Y-117260019D01*
X166800114Y-117260019D02*
X166466781Y-117640971D01*
X166466781Y-117640971D02*
X166609638Y-117640971D01*
X166609638Y-117640971D02*
X166704876Y-117688590D01*
X166704876Y-117688590D02*
X166752495Y-117736209D01*
X166752495Y-117736209D02*
X166800114Y-117831447D01*
X166800114Y-117831447D02*
X166800114Y-118069542D01*
X166800114Y-118069542D02*
X166752495Y-118164780D01*
X166752495Y-118164780D02*
X166704876Y-118212400D01*
X166704876Y-118212400D02*
X166609638Y-118260019D01*
X166609638Y-118260019D02*
X166323924Y-118260019D01*
X166323924Y-118260019D02*
X166228686Y-118212400D01*
X166228686Y-118212400D02*
X166181067Y-118164780D01*
D14*
X105393333Y-60403595D02*
X105393333Y-60975023D01*
X105393333Y-60975023D02*
X105355238Y-61089309D01*
X105355238Y-61089309D02*
X105279047Y-61165500D01*
X105279047Y-61165500D02*
X105164762Y-61203595D01*
X105164762Y-61203595D02*
X105088571Y-61203595D01*
X105736190Y-60479785D02*
X105774286Y-60441690D01*
X105774286Y-60441690D02*
X105850476Y-60403595D01*
X105850476Y-60403595D02*
X106040952Y-60403595D01*
X106040952Y-60403595D02*
X106117143Y-60441690D01*
X106117143Y-60441690D02*
X106155238Y-60479785D01*
X106155238Y-60479785D02*
X106193333Y-60555976D01*
X106193333Y-60555976D02*
X106193333Y-60632166D01*
X106193333Y-60632166D02*
X106155238Y-60746452D01*
X106155238Y-60746452D02*
X105698095Y-61203595D01*
X105698095Y-61203595D02*
X106193333Y-61203595D01*
D13*
X109083810Y-58364219D02*
X109083810Y-57364219D01*
X109083810Y-57364219D02*
X109464762Y-57364219D01*
X109464762Y-57364219D02*
X109560000Y-57411838D01*
X109560000Y-57411838D02*
X109607619Y-57459457D01*
X109607619Y-57459457D02*
X109655238Y-57554695D01*
X109655238Y-57554695D02*
X109655238Y-57697552D01*
X109655238Y-57697552D02*
X109607619Y-57792790D01*
X109607619Y-57792790D02*
X109560000Y-57840409D01*
X109560000Y-57840409D02*
X109464762Y-57888028D01*
X109464762Y-57888028D02*
X109083810Y-57888028D01*
X109988572Y-57364219D02*
X110226667Y-58364219D01*
X110226667Y-58364219D02*
X110417143Y-57649933D01*
X110417143Y-57649933D02*
X110607619Y-58364219D01*
X110607619Y-58364219D02*
X110845715Y-57364219D01*
X111798095Y-58364219D02*
X111464762Y-57888028D01*
X111226667Y-58364219D02*
X111226667Y-57364219D01*
X111226667Y-57364219D02*
X111607619Y-57364219D01*
X111607619Y-57364219D02*
X111702857Y-57411838D01*
X111702857Y-57411838D02*
X111750476Y-57459457D01*
X111750476Y-57459457D02*
X111798095Y-57554695D01*
X111798095Y-57554695D02*
X111798095Y-57697552D01*
X111798095Y-57697552D02*
X111750476Y-57792790D01*
X111750476Y-57792790D02*
X111702857Y-57840409D01*
X111702857Y-57840409D02*
X111607619Y-57888028D01*
X111607619Y-57888028D02*
X111226667Y-57888028D01*
X112988572Y-58364219D02*
X112988572Y-57364219D01*
X113464762Y-58364219D02*
X113464762Y-57364219D01*
X113464762Y-57364219D02*
X114036190Y-58364219D01*
X114036190Y-58364219D02*
X114036190Y-57364219D01*
D10*
X111593333Y-93418819D02*
X111260000Y-92942628D01*
X111021905Y-93418819D02*
X111021905Y-92418819D01*
X111021905Y-92418819D02*
X111402857Y-92418819D01*
X111402857Y-92418819D02*
X111498095Y-92466438D01*
X111498095Y-92466438D02*
X111545714Y-92514057D01*
X111545714Y-92514057D02*
X111593333Y-92609295D01*
X111593333Y-92609295D02*
X111593333Y-92752152D01*
X111593333Y-92752152D02*
X111545714Y-92847390D01*
X111545714Y-92847390D02*
X111498095Y-92895009D01*
X111498095Y-92895009D02*
X111402857Y-92942628D01*
X111402857Y-92942628D02*
X111021905Y-92942628D01*
X112450476Y-92418819D02*
X112260000Y-92418819D01*
X112260000Y-92418819D02*
X112164762Y-92466438D01*
X112164762Y-92466438D02*
X112117143Y-92514057D01*
X112117143Y-92514057D02*
X112021905Y-92656914D01*
X112021905Y-92656914D02*
X111974286Y-92847390D01*
X111974286Y-92847390D02*
X111974286Y-93228342D01*
X111974286Y-93228342D02*
X112021905Y-93323580D01*
X112021905Y-93323580D02*
X112069524Y-93371200D01*
X112069524Y-93371200D02*
X112164762Y-93418819D01*
X112164762Y-93418819D02*
X112355238Y-93418819D01*
X112355238Y-93418819D02*
X112450476Y-93371200D01*
X112450476Y-93371200D02*
X112498095Y-93323580D01*
X112498095Y-93323580D02*
X112545714Y-93228342D01*
X112545714Y-93228342D02*
X112545714Y-92990247D01*
X112545714Y-92990247D02*
X112498095Y-92895009D01*
X112498095Y-92895009D02*
X112450476Y-92847390D01*
X112450476Y-92847390D02*
X112355238Y-92799771D01*
X112355238Y-92799771D02*
X112164762Y-92799771D01*
X112164762Y-92799771D02*
X112069524Y-92847390D01*
X112069524Y-92847390D02*
X112021905Y-92895009D01*
X112021905Y-92895009D02*
X111974286Y-92990247D01*
D14*
X153653333Y-60403595D02*
X153653333Y-60975023D01*
X153653333Y-60975023D02*
X153615238Y-61089309D01*
X153615238Y-61089309D02*
X153539047Y-61165500D01*
X153539047Y-61165500D02*
X153424762Y-61203595D01*
X153424762Y-61203595D02*
X153348571Y-61203595D01*
X153958095Y-60403595D02*
X154453333Y-60403595D01*
X154453333Y-60403595D02*
X154186667Y-60708357D01*
X154186667Y-60708357D02*
X154300952Y-60708357D01*
X154300952Y-60708357D02*
X154377143Y-60746452D01*
X154377143Y-60746452D02*
X154415238Y-60784547D01*
X154415238Y-60784547D02*
X154453333Y-60860738D01*
X154453333Y-60860738D02*
X154453333Y-61051214D01*
X154453333Y-61051214D02*
X154415238Y-61127404D01*
X154415238Y-61127404D02*
X154377143Y-61165500D01*
X154377143Y-61165500D02*
X154300952Y-61203595D01*
X154300952Y-61203595D02*
X154072381Y-61203595D01*
X154072381Y-61203595D02*
X153996190Y-61165500D01*
X153996190Y-61165500D02*
X153958095Y-61127404D01*
D12*
X147074856Y-75608328D02*
X146360570Y-75608328D01*
X146360570Y-75608328D02*
X146360570Y-74108328D01*
X147860571Y-74108328D02*
X148146285Y-74108328D01*
X148146285Y-74108328D02*
X148289142Y-74179757D01*
X148289142Y-74179757D02*
X148431999Y-74322614D01*
X148431999Y-74322614D02*
X148503428Y-74608328D01*
X148503428Y-74608328D02*
X148503428Y-75108328D01*
X148503428Y-75108328D02*
X148431999Y-75394042D01*
X148431999Y-75394042D02*
X148289142Y-75536900D01*
X148289142Y-75536900D02*
X148146285Y-75608328D01*
X148146285Y-75608328D02*
X147860571Y-75608328D01*
X147860571Y-75608328D02*
X147717714Y-75536900D01*
X147717714Y-75536900D02*
X147574856Y-75394042D01*
X147574856Y-75394042D02*
X147503428Y-75108328D01*
X147503428Y-75108328D02*
X147503428Y-74608328D01*
X147503428Y-74608328D02*
X147574856Y-74322614D01*
X147574856Y-74322614D02*
X147717714Y-74179757D01*
X147717714Y-74179757D02*
X147860571Y-74108328D01*
X149074857Y-75179757D02*
X149789143Y-75179757D01*
X148932000Y-75608328D02*
X149432000Y-74108328D01*
X149432000Y-74108328D02*
X149932000Y-75608328D01*
X150431999Y-75608328D02*
X150431999Y-74108328D01*
X150431999Y-74108328D02*
X150789142Y-74108328D01*
X150789142Y-74108328D02*
X151003428Y-74179757D01*
X151003428Y-74179757D02*
X151146285Y-74322614D01*
X151146285Y-74322614D02*
X151217714Y-74465471D01*
X151217714Y-74465471D02*
X151289142Y-74751185D01*
X151289142Y-74751185D02*
X151289142Y-74965471D01*
X151289142Y-74965471D02*
X151217714Y-75251185D01*
X151217714Y-75251185D02*
X151146285Y-75394042D01*
X151146285Y-75394042D02*
X151003428Y-75536900D01*
X151003428Y-75536900D02*
X150789142Y-75608328D01*
X150789142Y-75608328D02*
X150431999Y-75608328D01*
X153074856Y-75608328D02*
X153074856Y-74108328D01*
X153074856Y-74108328D02*
X153646285Y-74108328D01*
X153646285Y-74108328D02*
X153789142Y-74179757D01*
X153789142Y-74179757D02*
X153860571Y-74251185D01*
X153860571Y-74251185D02*
X153931999Y-74394042D01*
X153931999Y-74394042D02*
X153931999Y-74608328D01*
X153931999Y-74608328D02*
X153860571Y-74751185D01*
X153860571Y-74751185D02*
X153789142Y-74822614D01*
X153789142Y-74822614D02*
X153646285Y-74894042D01*
X153646285Y-74894042D02*
X153074856Y-74894042D01*
X154431999Y-74108328D02*
X154789142Y-75608328D01*
X154789142Y-75608328D02*
X155074856Y-74536900D01*
X155074856Y-74536900D02*
X155360571Y-75608328D01*
X155360571Y-75608328D02*
X155717714Y-74108328D01*
X157146285Y-75608328D02*
X156646285Y-74894042D01*
X156289142Y-75608328D02*
X156289142Y-74108328D01*
X156289142Y-74108328D02*
X156860571Y-74108328D01*
X156860571Y-74108328D02*
X157003428Y-74179757D01*
X157003428Y-74179757D02*
X157074857Y-74251185D01*
X157074857Y-74251185D02*
X157146285Y-74394042D01*
X157146285Y-74394042D02*
X157146285Y-74608328D01*
X157146285Y-74608328D02*
X157074857Y-74751185D01*
X157074857Y-74751185D02*
X157003428Y-74822614D01*
X157003428Y-74822614D02*
X156860571Y-74894042D01*
X156860571Y-74894042D02*
X156289142Y-74894042D01*
X159217714Y-74108328D02*
X159503428Y-74108328D01*
X159503428Y-74108328D02*
X159646285Y-74179757D01*
X159646285Y-74179757D02*
X159789142Y-74322614D01*
X159789142Y-74322614D02*
X159860571Y-74608328D01*
X159860571Y-74608328D02*
X159860571Y-75108328D01*
X159860571Y-75108328D02*
X159789142Y-75394042D01*
X159789142Y-75394042D02*
X159646285Y-75536900D01*
X159646285Y-75536900D02*
X159503428Y-75608328D01*
X159503428Y-75608328D02*
X159217714Y-75608328D01*
X159217714Y-75608328D02*
X159074857Y-75536900D01*
X159074857Y-75536900D02*
X158931999Y-75394042D01*
X158931999Y-75394042D02*
X158860571Y-75108328D01*
X158860571Y-75108328D02*
X158860571Y-74608328D01*
X158860571Y-74608328D02*
X158931999Y-74322614D01*
X158931999Y-74322614D02*
X159074857Y-74179757D01*
X159074857Y-74179757D02*
X159217714Y-74108328D01*
X160503428Y-74108328D02*
X160503428Y-75322614D01*
X160503428Y-75322614D02*
X160574857Y-75465471D01*
X160574857Y-75465471D02*
X160646286Y-75536900D01*
X160646286Y-75536900D02*
X160789143Y-75608328D01*
X160789143Y-75608328D02*
X161074857Y-75608328D01*
X161074857Y-75608328D02*
X161217714Y-75536900D01*
X161217714Y-75536900D02*
X161289143Y-75465471D01*
X161289143Y-75465471D02*
X161360571Y-75322614D01*
X161360571Y-75322614D02*
X161360571Y-74108328D01*
X161860572Y-74108328D02*
X162717715Y-74108328D01*
X162289143Y-75608328D02*
X162289143Y-74108328D01*
D10*
X111593333Y-123803580D02*
X111545714Y-123851200D01*
X111545714Y-123851200D02*
X111402857Y-123898819D01*
X111402857Y-123898819D02*
X111307619Y-123898819D01*
X111307619Y-123898819D02*
X111164762Y-123851200D01*
X111164762Y-123851200D02*
X111069524Y-123755961D01*
X111069524Y-123755961D02*
X111021905Y-123660723D01*
X111021905Y-123660723D02*
X110974286Y-123470247D01*
X110974286Y-123470247D02*
X110974286Y-123327390D01*
X110974286Y-123327390D02*
X111021905Y-123136914D01*
X111021905Y-123136914D02*
X111069524Y-123041676D01*
X111069524Y-123041676D02*
X111164762Y-122946438D01*
X111164762Y-122946438D02*
X111307619Y-122898819D01*
X111307619Y-122898819D02*
X111402857Y-122898819D01*
X111402857Y-122898819D02*
X111545714Y-122946438D01*
X111545714Y-122946438D02*
X111593333Y-122994057D01*
X111926667Y-122898819D02*
X112545714Y-122898819D01*
X112545714Y-122898819D02*
X112212381Y-123279771D01*
X112212381Y-123279771D02*
X112355238Y-123279771D01*
X112355238Y-123279771D02*
X112450476Y-123327390D01*
X112450476Y-123327390D02*
X112498095Y-123375009D01*
X112498095Y-123375009D02*
X112545714Y-123470247D01*
X112545714Y-123470247D02*
X112545714Y-123708342D01*
X112545714Y-123708342D02*
X112498095Y-123803580D01*
X112498095Y-123803580D02*
X112450476Y-123851200D01*
X112450476Y-123851200D02*
X112355238Y-123898819D01*
X112355238Y-123898819D02*
X112069524Y-123898819D01*
X112069524Y-123898819D02*
X111974286Y-123851200D01*
X111974286Y-123851200D02*
X111926667Y-123803580D01*
X157170295Y-114560819D02*
X157170295Y-115370342D01*
X157170295Y-115370342D02*
X157217914Y-115465580D01*
X157217914Y-115465580D02*
X157265533Y-115513200D01*
X157265533Y-115513200D02*
X157360771Y-115560819D01*
X157360771Y-115560819D02*
X157551247Y-115560819D01*
X157551247Y-115560819D02*
X157646485Y-115513200D01*
X157646485Y-115513200D02*
X157694104Y-115465580D01*
X157694104Y-115465580D02*
X157741723Y-115370342D01*
X157741723Y-115370342D02*
X157741723Y-114560819D01*
X158741723Y-115560819D02*
X158170295Y-115560819D01*
X158456009Y-115560819D02*
X158456009Y-114560819D01*
X158456009Y-114560819D02*
X158360771Y-114703676D01*
X158360771Y-114703676D02*
X158265533Y-114798914D01*
X158265533Y-114798914D02*
X158170295Y-114846533D01*
X139923333Y-133296819D02*
X139590000Y-132820628D01*
X139351905Y-133296819D02*
X139351905Y-132296819D01*
X139351905Y-132296819D02*
X139732857Y-132296819D01*
X139732857Y-132296819D02*
X139828095Y-132344438D01*
X139828095Y-132344438D02*
X139875714Y-132392057D01*
X139875714Y-132392057D02*
X139923333Y-132487295D01*
X139923333Y-132487295D02*
X139923333Y-132630152D01*
X139923333Y-132630152D02*
X139875714Y-132725390D01*
X139875714Y-132725390D02*
X139828095Y-132773009D01*
X139828095Y-132773009D02*
X139732857Y-132820628D01*
X139732857Y-132820628D02*
X139351905Y-132820628D01*
X140399524Y-133296819D02*
X140590000Y-133296819D01*
X140590000Y-133296819D02*
X140685238Y-133249200D01*
X140685238Y-133249200D02*
X140732857Y-133201580D01*
X140732857Y-133201580D02*
X140828095Y-133058723D01*
X140828095Y-133058723D02*
X140875714Y-132868247D01*
X140875714Y-132868247D02*
X140875714Y-132487295D01*
X140875714Y-132487295D02*
X140828095Y-132392057D01*
X140828095Y-132392057D02*
X140780476Y-132344438D01*
X140780476Y-132344438D02*
X140685238Y-132296819D01*
X140685238Y-132296819D02*
X140494762Y-132296819D01*
X140494762Y-132296819D02*
X140399524Y-132344438D01*
X140399524Y-132344438D02*
X140351905Y-132392057D01*
X140351905Y-132392057D02*
X140304286Y-132487295D01*
X140304286Y-132487295D02*
X140304286Y-132725390D01*
X140304286Y-132725390D02*
X140351905Y-132820628D01*
X140351905Y-132820628D02*
X140399524Y-132868247D01*
X140399524Y-132868247D02*
X140494762Y-132915866D01*
X140494762Y-132915866D02*
X140685238Y-132915866D01*
X140685238Y-132915866D02*
X140780476Y-132868247D01*
X140780476Y-132868247D02*
X140828095Y-132820628D01*
X140828095Y-132820628D02*
X140875714Y-132725390D01*
X129863419Y-111246904D02*
X130672942Y-111246904D01*
X130672942Y-111246904D02*
X130768180Y-111199285D01*
X130768180Y-111199285D02*
X130815800Y-111151666D01*
X130815800Y-111151666D02*
X130863419Y-111056428D01*
X130863419Y-111056428D02*
X130863419Y-110865952D01*
X130863419Y-110865952D02*
X130815800Y-110770714D01*
X130815800Y-110770714D02*
X130768180Y-110723095D01*
X130768180Y-110723095D02*
X130672942Y-110675476D01*
X130672942Y-110675476D02*
X129863419Y-110675476D01*
X129863419Y-109723095D02*
X129863419Y-110199285D01*
X129863419Y-110199285D02*
X130339609Y-110246904D01*
X130339609Y-110246904D02*
X130291990Y-110199285D01*
X130291990Y-110199285D02*
X130244371Y-110104047D01*
X130244371Y-110104047D02*
X130244371Y-109865952D01*
X130244371Y-109865952D02*
X130291990Y-109770714D01*
X130291990Y-109770714D02*
X130339609Y-109723095D01*
X130339609Y-109723095D02*
X130434847Y-109675476D01*
X130434847Y-109675476D02*
X130672942Y-109675476D01*
X130672942Y-109675476D02*
X130768180Y-109723095D01*
X130768180Y-109723095D02*
X130815800Y-109770714D01*
X130815800Y-109770714D02*
X130863419Y-109865952D01*
X130863419Y-109865952D02*
X130863419Y-110104047D01*
X130863419Y-110104047D02*
X130815800Y-110199285D01*
X130815800Y-110199285D02*
X130768180Y-110246904D01*
X169087677Y-106880819D02*
X168754344Y-106404628D01*
X168516249Y-106880819D02*
X168516249Y-105880819D01*
X168516249Y-105880819D02*
X168897201Y-105880819D01*
X168897201Y-105880819D02*
X168992439Y-105928438D01*
X168992439Y-105928438D02*
X169040058Y-105976057D01*
X169040058Y-105976057D02*
X169087677Y-106071295D01*
X169087677Y-106071295D02*
X169087677Y-106214152D01*
X169087677Y-106214152D02*
X169040058Y-106309390D01*
X169040058Y-106309390D02*
X168992439Y-106357009D01*
X168992439Y-106357009D02*
X168897201Y-106404628D01*
X168897201Y-106404628D02*
X168516249Y-106404628D01*
X170040058Y-106880819D02*
X169468630Y-106880819D01*
X169754344Y-106880819D02*
X169754344Y-105880819D01*
X169754344Y-105880819D02*
X169659106Y-106023676D01*
X169659106Y-106023676D02*
X169563868Y-106118914D01*
X169563868Y-106118914D02*
X169468630Y-106166533D01*
X170373392Y-105880819D02*
X170992439Y-105880819D01*
X170992439Y-105880819D02*
X170659106Y-106261771D01*
X170659106Y-106261771D02*
X170801963Y-106261771D01*
X170801963Y-106261771D02*
X170897201Y-106309390D01*
X170897201Y-106309390D02*
X170944820Y-106357009D01*
X170944820Y-106357009D02*
X170992439Y-106452247D01*
X170992439Y-106452247D02*
X170992439Y-106690342D01*
X170992439Y-106690342D02*
X170944820Y-106785580D01*
X170944820Y-106785580D02*
X170897201Y-106833200D01*
X170897201Y-106833200D02*
X170801963Y-106880819D01*
X170801963Y-106880819D02*
X170516249Y-106880819D01*
X170516249Y-106880819D02*
X170421011Y-106833200D01*
X170421011Y-106833200D02*
X170373392Y-106785580D01*
X151796761Y-97578057D02*
X151701523Y-97530438D01*
X151701523Y-97530438D02*
X151606285Y-97435200D01*
X151606285Y-97435200D02*
X151463428Y-97292342D01*
X151463428Y-97292342D02*
X151368190Y-97244723D01*
X151368190Y-97244723D02*
X151272952Y-97244723D01*
X151320571Y-97482819D02*
X151225333Y-97435200D01*
X151225333Y-97435200D02*
X151130095Y-97339961D01*
X151130095Y-97339961D02*
X151082476Y-97149485D01*
X151082476Y-97149485D02*
X151082476Y-96816152D01*
X151082476Y-96816152D02*
X151130095Y-96625676D01*
X151130095Y-96625676D02*
X151225333Y-96530438D01*
X151225333Y-96530438D02*
X151320571Y-96482819D01*
X151320571Y-96482819D02*
X151511047Y-96482819D01*
X151511047Y-96482819D02*
X151606285Y-96530438D01*
X151606285Y-96530438D02*
X151701523Y-96625676D01*
X151701523Y-96625676D02*
X151749142Y-96816152D01*
X151749142Y-96816152D02*
X151749142Y-97149485D01*
X151749142Y-97149485D02*
X151701523Y-97339961D01*
X151701523Y-97339961D02*
X151606285Y-97435200D01*
X151606285Y-97435200D02*
X151511047Y-97482819D01*
X151511047Y-97482819D02*
X151320571Y-97482819D01*
X152082476Y-96482819D02*
X152701523Y-96482819D01*
X152701523Y-96482819D02*
X152368190Y-96863771D01*
X152368190Y-96863771D02*
X152511047Y-96863771D01*
X152511047Y-96863771D02*
X152606285Y-96911390D01*
X152606285Y-96911390D02*
X152653904Y-96959009D01*
X152653904Y-96959009D02*
X152701523Y-97054247D01*
X152701523Y-97054247D02*
X152701523Y-97292342D01*
X152701523Y-97292342D02*
X152653904Y-97387580D01*
X152653904Y-97387580D02*
X152606285Y-97435200D01*
X152606285Y-97435200D02*
X152511047Y-97482819D01*
X152511047Y-97482819D02*
X152225333Y-97482819D01*
X152225333Y-97482819D02*
X152130095Y-97435200D01*
X152130095Y-97435200D02*
X152082476Y-97387580D01*
X169141807Y-111960819D02*
X168808474Y-111484628D01*
X168570379Y-111960819D02*
X168570379Y-110960819D01*
X168570379Y-110960819D02*
X168951331Y-110960819D01*
X168951331Y-110960819D02*
X169046569Y-111008438D01*
X169046569Y-111008438D02*
X169094188Y-111056057D01*
X169094188Y-111056057D02*
X169141807Y-111151295D01*
X169141807Y-111151295D02*
X169141807Y-111294152D01*
X169141807Y-111294152D02*
X169094188Y-111389390D01*
X169094188Y-111389390D02*
X169046569Y-111437009D01*
X169046569Y-111437009D02*
X168951331Y-111484628D01*
X168951331Y-111484628D02*
X168570379Y-111484628D01*
X169522760Y-111056057D02*
X169570379Y-111008438D01*
X169570379Y-111008438D02*
X169665617Y-110960819D01*
X169665617Y-110960819D02*
X169903712Y-110960819D01*
X169903712Y-110960819D02*
X169998950Y-111008438D01*
X169998950Y-111008438D02*
X170046569Y-111056057D01*
X170046569Y-111056057D02*
X170094188Y-111151295D01*
X170094188Y-111151295D02*
X170094188Y-111246533D01*
X170094188Y-111246533D02*
X170046569Y-111389390D01*
X170046569Y-111389390D02*
X169475141Y-111960819D01*
X169475141Y-111960819D02*
X170094188Y-111960819D01*
X130490933Y-124209980D02*
X130443314Y-124257600D01*
X130443314Y-124257600D02*
X130300457Y-124305219D01*
X130300457Y-124305219D02*
X130205219Y-124305219D01*
X130205219Y-124305219D02*
X130062362Y-124257600D01*
X130062362Y-124257600D02*
X129967124Y-124162361D01*
X129967124Y-124162361D02*
X129919505Y-124067123D01*
X129919505Y-124067123D02*
X129871886Y-123876647D01*
X129871886Y-123876647D02*
X129871886Y-123733790D01*
X129871886Y-123733790D02*
X129919505Y-123543314D01*
X129919505Y-123543314D02*
X129967124Y-123448076D01*
X129967124Y-123448076D02*
X130062362Y-123352838D01*
X130062362Y-123352838D02*
X130205219Y-123305219D01*
X130205219Y-123305219D02*
X130300457Y-123305219D01*
X130300457Y-123305219D02*
X130443314Y-123352838D01*
X130443314Y-123352838D02*
X130490933Y-123400457D01*
X131443314Y-124305219D02*
X130871886Y-124305219D01*
X131157600Y-124305219D02*
X131157600Y-123305219D01*
X131157600Y-123305219D02*
X131062362Y-123448076D01*
X131062362Y-123448076D02*
X130967124Y-123543314D01*
X130967124Y-123543314D02*
X130871886Y-123590933D01*
X134453333Y-75294819D02*
X134120000Y-74818628D01*
X133881905Y-75294819D02*
X133881905Y-74294819D01*
X133881905Y-74294819D02*
X134262857Y-74294819D01*
X134262857Y-74294819D02*
X134358095Y-74342438D01*
X134358095Y-74342438D02*
X134405714Y-74390057D01*
X134405714Y-74390057D02*
X134453333Y-74485295D01*
X134453333Y-74485295D02*
X134453333Y-74628152D01*
X134453333Y-74628152D02*
X134405714Y-74723390D01*
X134405714Y-74723390D02*
X134358095Y-74771009D01*
X134358095Y-74771009D02*
X134262857Y-74818628D01*
X134262857Y-74818628D02*
X133881905Y-74818628D01*
X135024762Y-74723390D02*
X134929524Y-74675771D01*
X134929524Y-74675771D02*
X134881905Y-74628152D01*
X134881905Y-74628152D02*
X134834286Y-74532914D01*
X134834286Y-74532914D02*
X134834286Y-74485295D01*
X134834286Y-74485295D02*
X134881905Y-74390057D01*
X134881905Y-74390057D02*
X134929524Y-74342438D01*
X134929524Y-74342438D02*
X135024762Y-74294819D01*
X135024762Y-74294819D02*
X135215238Y-74294819D01*
X135215238Y-74294819D02*
X135310476Y-74342438D01*
X135310476Y-74342438D02*
X135358095Y-74390057D01*
X135358095Y-74390057D02*
X135405714Y-74485295D01*
X135405714Y-74485295D02*
X135405714Y-74532914D01*
X135405714Y-74532914D02*
X135358095Y-74628152D01*
X135358095Y-74628152D02*
X135310476Y-74675771D01*
X135310476Y-74675771D02*
X135215238Y-74723390D01*
X135215238Y-74723390D02*
X135024762Y-74723390D01*
X135024762Y-74723390D02*
X134929524Y-74771009D01*
X134929524Y-74771009D02*
X134881905Y-74818628D01*
X134881905Y-74818628D02*
X134834286Y-74913866D01*
X134834286Y-74913866D02*
X134834286Y-75104342D01*
X134834286Y-75104342D02*
X134881905Y-75199580D01*
X134881905Y-75199580D02*
X134929524Y-75247200D01*
X134929524Y-75247200D02*
X135024762Y-75294819D01*
X135024762Y-75294819D02*
X135215238Y-75294819D01*
X135215238Y-75294819D02*
X135310476Y-75247200D01*
X135310476Y-75247200D02*
X135358095Y-75199580D01*
X135358095Y-75199580D02*
X135405714Y-75104342D01*
X135405714Y-75104342D02*
X135405714Y-74913866D01*
X135405714Y-74913866D02*
X135358095Y-74818628D01*
X135358095Y-74818628D02*
X135310476Y-74771009D01*
X135310476Y-74771009D02*
X135215238Y-74723390D01*
X169087677Y-101546819D02*
X168754344Y-101070628D01*
X168516249Y-101546819D02*
X168516249Y-100546819D01*
X168516249Y-100546819D02*
X168897201Y-100546819D01*
X168897201Y-100546819D02*
X168992439Y-100594438D01*
X168992439Y-100594438D02*
X169040058Y-100642057D01*
X169040058Y-100642057D02*
X169087677Y-100737295D01*
X169087677Y-100737295D02*
X169087677Y-100880152D01*
X169087677Y-100880152D02*
X169040058Y-100975390D01*
X169040058Y-100975390D02*
X168992439Y-101023009D01*
X168992439Y-101023009D02*
X168897201Y-101070628D01*
X168897201Y-101070628D02*
X168516249Y-101070628D01*
X170040058Y-101546819D02*
X169468630Y-101546819D01*
X169754344Y-101546819D02*
X169754344Y-100546819D01*
X169754344Y-100546819D02*
X169659106Y-100689676D01*
X169659106Y-100689676D02*
X169563868Y-100784914D01*
X169563868Y-100784914D02*
X169468630Y-100832533D01*
X170659106Y-100546819D02*
X170754344Y-100546819D01*
X170754344Y-100546819D02*
X170849582Y-100594438D01*
X170849582Y-100594438D02*
X170897201Y-100642057D01*
X170897201Y-100642057D02*
X170944820Y-100737295D01*
X170944820Y-100737295D02*
X170992439Y-100927771D01*
X170992439Y-100927771D02*
X170992439Y-101165866D01*
X170992439Y-101165866D02*
X170944820Y-101356342D01*
X170944820Y-101356342D02*
X170897201Y-101451580D01*
X170897201Y-101451580D02*
X170849582Y-101499200D01*
X170849582Y-101499200D02*
X170754344Y-101546819D01*
X170754344Y-101546819D02*
X170659106Y-101546819D01*
X170659106Y-101546819D02*
X170563868Y-101499200D01*
X170563868Y-101499200D02*
X170516249Y-101451580D01*
X170516249Y-101451580D02*
X170468630Y-101356342D01*
X170468630Y-101356342D02*
X170421011Y-101165866D01*
X170421011Y-101165866D02*
X170421011Y-100927771D01*
X170421011Y-100927771D02*
X170468630Y-100737295D01*
X170468630Y-100737295D02*
X170516249Y-100642057D01*
X170516249Y-100642057D02*
X170563868Y-100594438D01*
X170563868Y-100594438D02*
X170659106Y-100546819D01*
X154773333Y-121568380D02*
X154725714Y-121616000D01*
X154725714Y-121616000D02*
X154582857Y-121663619D01*
X154582857Y-121663619D02*
X154487619Y-121663619D01*
X154487619Y-121663619D02*
X154344762Y-121616000D01*
X154344762Y-121616000D02*
X154249524Y-121520761D01*
X154249524Y-121520761D02*
X154201905Y-121425523D01*
X154201905Y-121425523D02*
X154154286Y-121235047D01*
X154154286Y-121235047D02*
X154154286Y-121092190D01*
X154154286Y-121092190D02*
X154201905Y-120901714D01*
X154201905Y-120901714D02*
X154249524Y-120806476D01*
X154249524Y-120806476D02*
X154344762Y-120711238D01*
X154344762Y-120711238D02*
X154487619Y-120663619D01*
X154487619Y-120663619D02*
X154582857Y-120663619D01*
X154582857Y-120663619D02*
X154725714Y-120711238D01*
X154725714Y-120711238D02*
X154773333Y-120758857D01*
X155106667Y-120663619D02*
X155773333Y-120663619D01*
X155773333Y-120663619D02*
X155344762Y-121663619D01*
D14*
X125713333Y-60403595D02*
X125713333Y-60975023D01*
X125713333Y-60975023D02*
X125675238Y-61089309D01*
X125675238Y-61089309D02*
X125599047Y-61165500D01*
X125599047Y-61165500D02*
X125484762Y-61203595D01*
X125484762Y-61203595D02*
X125408571Y-61203595D01*
X126513333Y-61203595D02*
X126056190Y-61203595D01*
X126284762Y-61203595D02*
X126284762Y-60403595D01*
X126284762Y-60403595D02*
X126208571Y-60517880D01*
X126208571Y-60517880D02*
X126132381Y-60594071D01*
X126132381Y-60594071D02*
X126056190Y-60632166D01*
D13*
X129691047Y-57840409D02*
X129833904Y-57888028D01*
X129833904Y-57888028D02*
X129881523Y-57935647D01*
X129881523Y-57935647D02*
X129929142Y-58030885D01*
X129929142Y-58030885D02*
X129929142Y-58173742D01*
X129929142Y-58173742D02*
X129881523Y-58268980D01*
X129881523Y-58268980D02*
X129833904Y-58316600D01*
X129833904Y-58316600D02*
X129738666Y-58364219D01*
X129738666Y-58364219D02*
X129357714Y-58364219D01*
X129357714Y-58364219D02*
X129357714Y-57364219D01*
X129357714Y-57364219D02*
X129691047Y-57364219D01*
X129691047Y-57364219D02*
X129786285Y-57411838D01*
X129786285Y-57411838D02*
X129833904Y-57459457D01*
X129833904Y-57459457D02*
X129881523Y-57554695D01*
X129881523Y-57554695D02*
X129881523Y-57649933D01*
X129881523Y-57649933D02*
X129833904Y-57745171D01*
X129833904Y-57745171D02*
X129786285Y-57792790D01*
X129786285Y-57792790D02*
X129691047Y-57840409D01*
X129691047Y-57840409D02*
X129357714Y-57840409D01*
X130310095Y-58078504D02*
X130786285Y-58078504D01*
X130214857Y-58364219D02*
X130548190Y-57364219D01*
X130548190Y-57364219D02*
X130881523Y-58364219D01*
X131072000Y-57364219D02*
X131643428Y-57364219D01*
X131357714Y-58364219D02*
X131357714Y-57364219D01*
X132738667Y-58364219D02*
X132738667Y-57364219D01*
X133214857Y-58364219D02*
X133214857Y-57364219D01*
X133214857Y-57364219D02*
X133786285Y-58364219D01*
X133786285Y-58364219D02*
X133786285Y-57364219D01*
D10*
X116967095Y-85179819D02*
X116967095Y-85989342D01*
X116967095Y-85989342D02*
X117014714Y-86084580D01*
X117014714Y-86084580D02*
X117062333Y-86132200D01*
X117062333Y-86132200D02*
X117157571Y-86179819D01*
X117157571Y-86179819D02*
X117348047Y-86179819D01*
X117348047Y-86179819D02*
X117443285Y-86132200D01*
X117443285Y-86132200D02*
X117490904Y-86084580D01*
X117490904Y-86084580D02*
X117538523Y-85989342D01*
X117538523Y-85989342D02*
X117538523Y-85179819D01*
X117967095Y-85275057D02*
X118014714Y-85227438D01*
X118014714Y-85227438D02*
X118109952Y-85179819D01*
X118109952Y-85179819D02*
X118348047Y-85179819D01*
X118348047Y-85179819D02*
X118443285Y-85227438D01*
X118443285Y-85227438D02*
X118490904Y-85275057D01*
X118490904Y-85275057D02*
X118538523Y-85370295D01*
X118538523Y-85370295D02*
X118538523Y-85465533D01*
X118538523Y-85465533D02*
X118490904Y-85608390D01*
X118490904Y-85608390D02*
X117919476Y-86179819D01*
X117919476Y-86179819D02*
X118538523Y-86179819D01*
X164479819Y-128436666D02*
X164479819Y-128912856D01*
X164479819Y-128912856D02*
X163479819Y-128912856D01*
X163575057Y-128150951D02*
X163527438Y-128103332D01*
X163527438Y-128103332D02*
X163479819Y-128008094D01*
X163479819Y-128008094D02*
X163479819Y-127769999D01*
X163479819Y-127769999D02*
X163527438Y-127674761D01*
X163527438Y-127674761D02*
X163575057Y-127627142D01*
X163575057Y-127627142D02*
X163670295Y-127579523D01*
X163670295Y-127579523D02*
X163765533Y-127579523D01*
X163765533Y-127579523D02*
X163908390Y-127627142D01*
X163908390Y-127627142D02*
X164479819Y-128198570D01*
X164479819Y-128198570D02*
X164479819Y-127579523D01*
X102703333Y-124057580D02*
X102655714Y-124105200D01*
X102655714Y-124105200D02*
X102512857Y-124152819D01*
X102512857Y-124152819D02*
X102417619Y-124152819D01*
X102417619Y-124152819D02*
X102274762Y-124105200D01*
X102274762Y-124105200D02*
X102179524Y-124009961D01*
X102179524Y-124009961D02*
X102131905Y-123914723D01*
X102131905Y-123914723D02*
X102084286Y-123724247D01*
X102084286Y-123724247D02*
X102084286Y-123581390D01*
X102084286Y-123581390D02*
X102131905Y-123390914D01*
X102131905Y-123390914D02*
X102179524Y-123295676D01*
X102179524Y-123295676D02*
X102274762Y-123200438D01*
X102274762Y-123200438D02*
X102417619Y-123152819D01*
X102417619Y-123152819D02*
X102512857Y-123152819D01*
X102512857Y-123152819D02*
X102655714Y-123200438D01*
X102655714Y-123200438D02*
X102703333Y-123248057D01*
X103560476Y-123486152D02*
X103560476Y-124152819D01*
X103322381Y-123105200D02*
X103084286Y-123819485D01*
X103084286Y-123819485D02*
X103703333Y-123819485D01*
X135247142Y-133201580D02*
X135199523Y-133249200D01*
X135199523Y-133249200D02*
X135056666Y-133296819D01*
X135056666Y-133296819D02*
X134961428Y-133296819D01*
X134961428Y-133296819D02*
X134818571Y-133249200D01*
X134818571Y-133249200D02*
X134723333Y-133153961D01*
X134723333Y-133153961D02*
X134675714Y-133058723D01*
X134675714Y-133058723D02*
X134628095Y-132868247D01*
X134628095Y-132868247D02*
X134628095Y-132725390D01*
X134628095Y-132725390D02*
X134675714Y-132534914D01*
X134675714Y-132534914D02*
X134723333Y-132439676D01*
X134723333Y-132439676D02*
X134818571Y-132344438D01*
X134818571Y-132344438D02*
X134961428Y-132296819D01*
X134961428Y-132296819D02*
X135056666Y-132296819D01*
X135056666Y-132296819D02*
X135199523Y-132344438D01*
X135199523Y-132344438D02*
X135247142Y-132392057D01*
X136199523Y-133296819D02*
X135628095Y-133296819D01*
X135913809Y-133296819D02*
X135913809Y-132296819D01*
X135913809Y-132296819D02*
X135818571Y-132439676D01*
X135818571Y-132439676D02*
X135723333Y-132534914D01*
X135723333Y-132534914D02*
X135628095Y-132582533D01*
X136818571Y-132296819D02*
X136913809Y-132296819D01*
X136913809Y-132296819D02*
X137009047Y-132344438D01*
X137009047Y-132344438D02*
X137056666Y-132392057D01*
X137056666Y-132392057D02*
X137104285Y-132487295D01*
X137104285Y-132487295D02*
X137151904Y-132677771D01*
X137151904Y-132677771D02*
X137151904Y-132915866D01*
X137151904Y-132915866D02*
X137104285Y-133106342D01*
X137104285Y-133106342D02*
X137056666Y-133201580D01*
X137056666Y-133201580D02*
X137009047Y-133249200D01*
X137009047Y-133249200D02*
X136913809Y-133296819D01*
X136913809Y-133296819D02*
X136818571Y-133296819D01*
X136818571Y-133296819D02*
X136723333Y-133249200D01*
X136723333Y-133249200D02*
X136675714Y-133201580D01*
X136675714Y-133201580D02*
X136628095Y-133106342D01*
X136628095Y-133106342D02*
X136580476Y-132915866D01*
X136580476Y-132915866D02*
X136580476Y-132677771D01*
X136580476Y-132677771D02*
X136628095Y-132487295D01*
X136628095Y-132487295D02*
X136675714Y-132392057D01*
X136675714Y-132392057D02*
X136723333Y-132344438D01*
X136723333Y-132344438D02*
X136818571Y-132296819D01*
X139104761Y-87934819D02*
X138771428Y-87458628D01*
X138533333Y-87934819D02*
X138533333Y-86934819D01*
X138533333Y-86934819D02*
X138914285Y-86934819D01*
X138914285Y-86934819D02*
X139009523Y-86982438D01*
X139009523Y-86982438D02*
X139057142Y-87030057D01*
X139057142Y-87030057D02*
X139104761Y-87125295D01*
X139104761Y-87125295D02*
X139104761Y-87268152D01*
X139104761Y-87268152D02*
X139057142Y-87363390D01*
X139057142Y-87363390D02*
X139009523Y-87411009D01*
X139009523Y-87411009D02*
X138914285Y-87458628D01*
X138914285Y-87458628D02*
X138533333Y-87458628D01*
X139390476Y-86934819D02*
X139723809Y-87934819D01*
X139723809Y-87934819D02*
X140057142Y-86934819D01*
X140342857Y-87030057D02*
X140390476Y-86982438D01*
X140390476Y-86982438D02*
X140485714Y-86934819D01*
X140485714Y-86934819D02*
X140723809Y-86934819D01*
X140723809Y-86934819D02*
X140819047Y-86982438D01*
X140819047Y-86982438D02*
X140866666Y-87030057D01*
X140866666Y-87030057D02*
X140914285Y-87125295D01*
X140914285Y-87125295D02*
X140914285Y-87220533D01*
X140914285Y-87220533D02*
X140866666Y-87363390D01*
X140866666Y-87363390D02*
X140295238Y-87934819D01*
X140295238Y-87934819D02*
X140914285Y-87934819D01*
X114387333Y-93418819D02*
X114054000Y-92942628D01*
X113815905Y-93418819D02*
X113815905Y-92418819D01*
X113815905Y-92418819D02*
X114196857Y-92418819D01*
X114196857Y-92418819D02*
X114292095Y-92466438D01*
X114292095Y-92466438D02*
X114339714Y-92514057D01*
X114339714Y-92514057D02*
X114387333Y-92609295D01*
X114387333Y-92609295D02*
X114387333Y-92752152D01*
X114387333Y-92752152D02*
X114339714Y-92847390D01*
X114339714Y-92847390D02*
X114292095Y-92895009D01*
X114292095Y-92895009D02*
X114196857Y-92942628D01*
X114196857Y-92942628D02*
X113815905Y-92942628D01*
X114720667Y-92418819D02*
X115387333Y-92418819D01*
X115387333Y-92418819D02*
X114958762Y-93418819D01*
X143978333Y-114094419D02*
X143645000Y-113618228D01*
X143406905Y-114094419D02*
X143406905Y-113094419D01*
X143406905Y-113094419D02*
X143787857Y-113094419D01*
X143787857Y-113094419D02*
X143883095Y-113142038D01*
X143883095Y-113142038D02*
X143930714Y-113189657D01*
X143930714Y-113189657D02*
X143978333Y-113284895D01*
X143978333Y-113284895D02*
X143978333Y-113427752D01*
X143978333Y-113427752D02*
X143930714Y-113522990D01*
X143930714Y-113522990D02*
X143883095Y-113570609D01*
X143883095Y-113570609D02*
X143787857Y-113618228D01*
X143787857Y-113618228D02*
X143406905Y-113618228D01*
X144930714Y-114094419D02*
X144359286Y-114094419D01*
X144645000Y-114094419D02*
X144645000Y-113094419D01*
X144645000Y-113094419D02*
X144549762Y-113237276D01*
X144549762Y-113237276D02*
X144454524Y-113332514D01*
X144454524Y-113332514D02*
X144359286Y-113380133D01*
X145311667Y-113189657D02*
X145359286Y-113142038D01*
X145359286Y-113142038D02*
X145454524Y-113094419D01*
X145454524Y-113094419D02*
X145692619Y-113094419D01*
X145692619Y-113094419D02*
X145787857Y-113142038D01*
X145787857Y-113142038D02*
X145835476Y-113189657D01*
X145835476Y-113189657D02*
X145883095Y-113284895D01*
X145883095Y-113284895D02*
X145883095Y-113380133D01*
X145883095Y-113380133D02*
X145835476Y-113522990D01*
X145835476Y-113522990D02*
X145264048Y-114094419D01*
X145264048Y-114094419D02*
X145883095Y-114094419D01*
X143978333Y-100689580D02*
X143930714Y-100737200D01*
X143930714Y-100737200D02*
X143787857Y-100784819D01*
X143787857Y-100784819D02*
X143692619Y-100784819D01*
X143692619Y-100784819D02*
X143549762Y-100737200D01*
X143549762Y-100737200D02*
X143454524Y-100641961D01*
X143454524Y-100641961D02*
X143406905Y-100546723D01*
X143406905Y-100546723D02*
X143359286Y-100356247D01*
X143359286Y-100356247D02*
X143359286Y-100213390D01*
X143359286Y-100213390D02*
X143406905Y-100022914D01*
X143406905Y-100022914D02*
X143454524Y-99927676D01*
X143454524Y-99927676D02*
X143549762Y-99832438D01*
X143549762Y-99832438D02*
X143692619Y-99784819D01*
X143692619Y-99784819D02*
X143787857Y-99784819D01*
X143787857Y-99784819D02*
X143930714Y-99832438D01*
X143930714Y-99832438D02*
X143978333Y-99880057D01*
X144549762Y-100213390D02*
X144454524Y-100165771D01*
X144454524Y-100165771D02*
X144406905Y-100118152D01*
X144406905Y-100118152D02*
X144359286Y-100022914D01*
X144359286Y-100022914D02*
X144359286Y-99975295D01*
X144359286Y-99975295D02*
X144406905Y-99880057D01*
X144406905Y-99880057D02*
X144454524Y-99832438D01*
X144454524Y-99832438D02*
X144549762Y-99784819D01*
X144549762Y-99784819D02*
X144740238Y-99784819D01*
X144740238Y-99784819D02*
X144835476Y-99832438D01*
X144835476Y-99832438D02*
X144883095Y-99880057D01*
X144883095Y-99880057D02*
X144930714Y-99975295D01*
X144930714Y-99975295D02*
X144930714Y-100022914D01*
X144930714Y-100022914D02*
X144883095Y-100118152D01*
X144883095Y-100118152D02*
X144835476Y-100165771D01*
X144835476Y-100165771D02*
X144740238Y-100213390D01*
X144740238Y-100213390D02*
X144549762Y-100213390D01*
X144549762Y-100213390D02*
X144454524Y-100261009D01*
X144454524Y-100261009D02*
X144406905Y-100308628D01*
X144406905Y-100308628D02*
X144359286Y-100403866D01*
X144359286Y-100403866D02*
X144359286Y-100594342D01*
X144359286Y-100594342D02*
X144406905Y-100689580D01*
X144406905Y-100689580D02*
X144454524Y-100737200D01*
X144454524Y-100737200D02*
X144549762Y-100784819D01*
X144549762Y-100784819D02*
X144740238Y-100784819D01*
X144740238Y-100784819D02*
X144835476Y-100737200D01*
X144835476Y-100737200D02*
X144883095Y-100689580D01*
X144883095Y-100689580D02*
X144930714Y-100594342D01*
X144930714Y-100594342D02*
X144930714Y-100403866D01*
X144930714Y-100403866D02*
X144883095Y-100308628D01*
X144883095Y-100308628D02*
X144835476Y-100261009D01*
X144835476Y-100261009D02*
X144740238Y-100213390D01*
X152995333Y-112068780D02*
X152947714Y-112116400D01*
X152947714Y-112116400D02*
X152804857Y-112164019D01*
X152804857Y-112164019D02*
X152709619Y-112164019D01*
X152709619Y-112164019D02*
X152566762Y-112116400D01*
X152566762Y-112116400D02*
X152471524Y-112021161D01*
X152471524Y-112021161D02*
X152423905Y-111925923D01*
X152423905Y-111925923D02*
X152376286Y-111735447D01*
X152376286Y-111735447D02*
X152376286Y-111592590D01*
X152376286Y-111592590D02*
X152423905Y-111402114D01*
X152423905Y-111402114D02*
X152471524Y-111306876D01*
X152471524Y-111306876D02*
X152566762Y-111211638D01*
X152566762Y-111211638D02*
X152709619Y-111164019D01*
X152709619Y-111164019D02*
X152804857Y-111164019D01*
X152804857Y-111164019D02*
X152947714Y-111211638D01*
X152947714Y-111211638D02*
X152995333Y-111259257D01*
X153900095Y-111164019D02*
X153423905Y-111164019D01*
X153423905Y-111164019D02*
X153376286Y-111640209D01*
X153376286Y-111640209D02*
X153423905Y-111592590D01*
X153423905Y-111592590D02*
X153519143Y-111544971D01*
X153519143Y-111544971D02*
X153757238Y-111544971D01*
X153757238Y-111544971D02*
X153852476Y-111592590D01*
X153852476Y-111592590D02*
X153900095Y-111640209D01*
X153900095Y-111640209D02*
X153947714Y-111735447D01*
X153947714Y-111735447D02*
X153947714Y-111973542D01*
X153947714Y-111973542D02*
X153900095Y-112068780D01*
X153900095Y-112068780D02*
X153852476Y-112116400D01*
X153852476Y-112116400D02*
X153757238Y-112164019D01*
X153757238Y-112164019D02*
X153519143Y-112164019D01*
X153519143Y-112164019D02*
X153423905Y-112116400D01*
X153423905Y-112116400D02*
X153376286Y-112068780D01*
X135621733Y-121415980D02*
X135574114Y-121463600D01*
X135574114Y-121463600D02*
X135431257Y-121511219D01*
X135431257Y-121511219D02*
X135336019Y-121511219D01*
X135336019Y-121511219D02*
X135193162Y-121463600D01*
X135193162Y-121463600D02*
X135097924Y-121368361D01*
X135097924Y-121368361D02*
X135050305Y-121273123D01*
X135050305Y-121273123D02*
X135002686Y-121082647D01*
X135002686Y-121082647D02*
X135002686Y-120939790D01*
X135002686Y-120939790D02*
X135050305Y-120749314D01*
X135050305Y-120749314D02*
X135097924Y-120654076D01*
X135097924Y-120654076D02*
X135193162Y-120558838D01*
X135193162Y-120558838D02*
X135336019Y-120511219D01*
X135336019Y-120511219D02*
X135431257Y-120511219D01*
X135431257Y-120511219D02*
X135574114Y-120558838D01*
X135574114Y-120558838D02*
X135621733Y-120606457D01*
X136097924Y-121511219D02*
X136288400Y-121511219D01*
X136288400Y-121511219D02*
X136383638Y-121463600D01*
X136383638Y-121463600D02*
X136431257Y-121415980D01*
X136431257Y-121415980D02*
X136526495Y-121273123D01*
X136526495Y-121273123D02*
X136574114Y-121082647D01*
X136574114Y-121082647D02*
X136574114Y-120701695D01*
X136574114Y-120701695D02*
X136526495Y-120606457D01*
X136526495Y-120606457D02*
X136478876Y-120558838D01*
X136478876Y-120558838D02*
X136383638Y-120511219D01*
X136383638Y-120511219D02*
X136193162Y-120511219D01*
X136193162Y-120511219D02*
X136097924Y-120558838D01*
X136097924Y-120558838D02*
X136050305Y-120606457D01*
X136050305Y-120606457D02*
X136002686Y-120701695D01*
X136002686Y-120701695D02*
X136002686Y-120939790D01*
X136002686Y-120939790D02*
X136050305Y-121035028D01*
X136050305Y-121035028D02*
X136097924Y-121082647D01*
X136097924Y-121082647D02*
X136193162Y-121130266D01*
X136193162Y-121130266D02*
X136383638Y-121130266D01*
X136383638Y-121130266D02*
X136478876Y-121082647D01*
X136478876Y-121082647D02*
X136526495Y-121035028D01*
X136526495Y-121035028D02*
X136574114Y-120939790D01*
X149756905Y-87684819D02*
X149756905Y-86684819D01*
X149756905Y-86684819D02*
X149995000Y-86684819D01*
X149995000Y-86684819D02*
X150137857Y-86732438D01*
X150137857Y-86732438D02*
X150233095Y-86827676D01*
X150233095Y-86827676D02*
X150280714Y-86922914D01*
X150280714Y-86922914D02*
X150328333Y-87113390D01*
X150328333Y-87113390D02*
X150328333Y-87256247D01*
X150328333Y-87256247D02*
X150280714Y-87446723D01*
X150280714Y-87446723D02*
X150233095Y-87541961D01*
X150233095Y-87541961D02*
X150137857Y-87637200D01*
X150137857Y-87637200D02*
X149995000Y-87684819D01*
X149995000Y-87684819D02*
X149756905Y-87684819D01*
X150709286Y-86780057D02*
X150756905Y-86732438D01*
X150756905Y-86732438D02*
X150852143Y-86684819D01*
X150852143Y-86684819D02*
X151090238Y-86684819D01*
X151090238Y-86684819D02*
X151185476Y-86732438D01*
X151185476Y-86732438D02*
X151233095Y-86780057D01*
X151233095Y-86780057D02*
X151280714Y-86875295D01*
X151280714Y-86875295D02*
X151280714Y-86970533D01*
X151280714Y-86970533D02*
X151233095Y-87113390D01*
X151233095Y-87113390D02*
X150661667Y-87684819D01*
X150661667Y-87684819D02*
X151280714Y-87684819D01*
X159019999Y-121104819D02*
X158686666Y-120628628D01*
X158448571Y-121104819D02*
X158448571Y-120104819D01*
X158448571Y-120104819D02*
X158829523Y-120104819D01*
X158829523Y-120104819D02*
X158924761Y-120152438D01*
X158924761Y-120152438D02*
X158972380Y-120200057D01*
X158972380Y-120200057D02*
X159019999Y-120295295D01*
X159019999Y-120295295D02*
X159019999Y-120438152D01*
X159019999Y-120438152D02*
X158972380Y-120533390D01*
X158972380Y-120533390D02*
X158924761Y-120581009D01*
X158924761Y-120581009D02*
X158829523Y-120628628D01*
X158829523Y-120628628D02*
X158448571Y-120628628D01*
X159877142Y-121057200D02*
X159781904Y-121104819D01*
X159781904Y-121104819D02*
X159591428Y-121104819D01*
X159591428Y-121104819D02*
X159496190Y-121057200D01*
X159496190Y-121057200D02*
X159448571Y-121009580D01*
X159448571Y-121009580D02*
X159400952Y-120914342D01*
X159400952Y-120914342D02*
X159400952Y-120628628D01*
X159400952Y-120628628D02*
X159448571Y-120533390D01*
X159448571Y-120533390D02*
X159496190Y-120485771D01*
X159496190Y-120485771D02*
X159591428Y-120438152D01*
X159591428Y-120438152D02*
X159781904Y-120438152D01*
X159781904Y-120438152D02*
X159877142Y-120485771D01*
X160258095Y-121057200D02*
X160353333Y-121104819D01*
X160353333Y-121104819D02*
X160543809Y-121104819D01*
X160543809Y-121104819D02*
X160639047Y-121057200D01*
X160639047Y-121057200D02*
X160686666Y-120961961D01*
X160686666Y-120961961D02*
X160686666Y-120914342D01*
X160686666Y-120914342D02*
X160639047Y-120819104D01*
X160639047Y-120819104D02*
X160543809Y-120771485D01*
X160543809Y-120771485D02*
X160400952Y-120771485D01*
X160400952Y-120771485D02*
X160305714Y-120723866D01*
X160305714Y-120723866D02*
X160258095Y-120628628D01*
X160258095Y-120628628D02*
X160258095Y-120581009D01*
X160258095Y-120581009D02*
X160305714Y-120485771D01*
X160305714Y-120485771D02*
X160400952Y-120438152D01*
X160400952Y-120438152D02*
X160543809Y-120438152D01*
X160543809Y-120438152D02*
X160639047Y-120485771D01*
X161067619Y-120200057D02*
X161115238Y-120152438D01*
X161115238Y-120152438D02*
X161210476Y-120104819D01*
X161210476Y-120104819D02*
X161448571Y-120104819D01*
X161448571Y-120104819D02*
X161543809Y-120152438D01*
X161543809Y-120152438D02*
X161591428Y-120200057D01*
X161591428Y-120200057D02*
X161639047Y-120295295D01*
X161639047Y-120295295D02*
X161639047Y-120390533D01*
X161639047Y-120390533D02*
X161591428Y-120533390D01*
X161591428Y-120533390D02*
X161020000Y-121104819D01*
X161020000Y-121104819D02*
X161639047Y-121104819D01*
X118618095Y-123224819D02*
X118618095Y-124034342D01*
X118618095Y-124034342D02*
X118665714Y-124129580D01*
X118665714Y-124129580D02*
X118713333Y-124177200D01*
X118713333Y-124177200D02*
X118808571Y-124224819D01*
X118808571Y-124224819D02*
X118999047Y-124224819D01*
X118999047Y-124224819D02*
X119094285Y-124177200D01*
X119094285Y-124177200D02*
X119141904Y-124129580D01*
X119141904Y-124129580D02*
X119189523Y-124034342D01*
X119189523Y-124034342D02*
X119189523Y-123224819D01*
X119808571Y-123653390D02*
X119713333Y-123605771D01*
X119713333Y-123605771D02*
X119665714Y-123558152D01*
X119665714Y-123558152D02*
X119618095Y-123462914D01*
X119618095Y-123462914D02*
X119618095Y-123415295D01*
X119618095Y-123415295D02*
X119665714Y-123320057D01*
X119665714Y-123320057D02*
X119713333Y-123272438D01*
X119713333Y-123272438D02*
X119808571Y-123224819D01*
X119808571Y-123224819D02*
X119999047Y-123224819D01*
X119999047Y-123224819D02*
X120094285Y-123272438D01*
X120094285Y-123272438D02*
X120141904Y-123320057D01*
X120141904Y-123320057D02*
X120189523Y-123415295D01*
X120189523Y-123415295D02*
X120189523Y-123462914D01*
X120189523Y-123462914D02*
X120141904Y-123558152D01*
X120141904Y-123558152D02*
X120094285Y-123605771D01*
X120094285Y-123605771D02*
X119999047Y-123653390D01*
X119999047Y-123653390D02*
X119808571Y-123653390D01*
X119808571Y-123653390D02*
X119713333Y-123701009D01*
X119713333Y-123701009D02*
X119665714Y-123748628D01*
X119665714Y-123748628D02*
X119618095Y-123843866D01*
X119618095Y-123843866D02*
X119618095Y-124034342D01*
X119618095Y-124034342D02*
X119665714Y-124129580D01*
X119665714Y-124129580D02*
X119713333Y-124177200D01*
X119713333Y-124177200D02*
X119808571Y-124224819D01*
X119808571Y-124224819D02*
X119999047Y-124224819D01*
X119999047Y-124224819D02*
X120094285Y-124177200D01*
X120094285Y-124177200D02*
X120141904Y-124129580D01*
X120141904Y-124129580D02*
X120189523Y-124034342D01*
X120189523Y-124034342D02*
X120189523Y-123843866D01*
X120189523Y-123843866D02*
X120141904Y-123748628D01*
X120141904Y-123748628D02*
X120094285Y-123701009D01*
X120094285Y-123701009D02*
X119999047Y-123653390D01*
X145678095Y-126454819D02*
X145678095Y-127264342D01*
X145678095Y-127264342D02*
X145725714Y-127359580D01*
X145725714Y-127359580D02*
X145773333Y-127407200D01*
X145773333Y-127407200D02*
X145868571Y-127454819D01*
X145868571Y-127454819D02*
X146059047Y-127454819D01*
X146059047Y-127454819D02*
X146154285Y-127407200D01*
X146154285Y-127407200D02*
X146201904Y-127359580D01*
X146201904Y-127359580D02*
X146249523Y-127264342D01*
X146249523Y-127264342D02*
X146249523Y-126454819D01*
X147154285Y-126454819D02*
X146963809Y-126454819D01*
X146963809Y-126454819D02*
X146868571Y-126502438D01*
X146868571Y-126502438D02*
X146820952Y-126550057D01*
X146820952Y-126550057D02*
X146725714Y-126692914D01*
X146725714Y-126692914D02*
X146678095Y-126883390D01*
X146678095Y-126883390D02*
X146678095Y-127264342D01*
X146678095Y-127264342D02*
X146725714Y-127359580D01*
X146725714Y-127359580D02*
X146773333Y-127407200D01*
X146773333Y-127407200D02*
X146868571Y-127454819D01*
X146868571Y-127454819D02*
X147059047Y-127454819D01*
X147059047Y-127454819D02*
X147154285Y-127407200D01*
X147154285Y-127407200D02*
X147201904Y-127359580D01*
X147201904Y-127359580D02*
X147249523Y-127264342D01*
X147249523Y-127264342D02*
X147249523Y-127026247D01*
X147249523Y-127026247D02*
X147201904Y-126931009D01*
X147201904Y-126931009D02*
X147154285Y-126883390D01*
X147154285Y-126883390D02*
X147059047Y-126835771D01*
X147059047Y-126835771D02*
X146868571Y-126835771D01*
X146868571Y-126835771D02*
X146773333Y-126883390D01*
X146773333Y-126883390D02*
X146725714Y-126931009D01*
X146725714Y-126931009D02*
X146678095Y-127026247D01*
X122455180Y-109718095D02*
X121645657Y-109718095D01*
X121645657Y-109718095D02*
X121550419Y-109765714D01*
X121550419Y-109765714D02*
X121502800Y-109813333D01*
X121502800Y-109813333D02*
X121455180Y-109908571D01*
X121455180Y-109908571D02*
X121455180Y-110099047D01*
X121455180Y-110099047D02*
X121502800Y-110194285D01*
X121502800Y-110194285D02*
X121550419Y-110241904D01*
X121550419Y-110241904D02*
X121645657Y-110289523D01*
X121645657Y-110289523D02*
X122455180Y-110289523D01*
X122455180Y-110670476D02*
X122455180Y-111337142D01*
X122455180Y-111337142D02*
X121455180Y-110908571D01*
X181963219Y-90349294D02*
X180963219Y-90349294D01*
X180963219Y-90349294D02*
X180963219Y-90111199D01*
X180963219Y-90111199D02*
X181010838Y-89968342D01*
X181010838Y-89968342D02*
X181106076Y-89873104D01*
X181106076Y-89873104D02*
X181201314Y-89825485D01*
X181201314Y-89825485D02*
X181391790Y-89777866D01*
X181391790Y-89777866D02*
X181534647Y-89777866D01*
X181534647Y-89777866D02*
X181725123Y-89825485D01*
X181725123Y-89825485D02*
X181820361Y-89873104D01*
X181820361Y-89873104D02*
X181915600Y-89968342D01*
X181915600Y-89968342D02*
X181963219Y-90111199D01*
X181963219Y-90111199D02*
X181963219Y-90349294D01*
X180963219Y-89444532D02*
X180963219Y-88777866D01*
X180963219Y-88777866D02*
X181963219Y-89206437D01*
X124333095Y-85179819D02*
X124333095Y-85989342D01*
X124333095Y-85989342D02*
X124380714Y-86084580D01*
X124380714Y-86084580D02*
X124428333Y-86132200D01*
X124428333Y-86132200D02*
X124523571Y-86179819D01*
X124523571Y-86179819D02*
X124714047Y-86179819D01*
X124714047Y-86179819D02*
X124809285Y-86132200D01*
X124809285Y-86132200D02*
X124856904Y-86084580D01*
X124856904Y-86084580D02*
X124904523Y-85989342D01*
X124904523Y-85989342D02*
X124904523Y-85179819D01*
X125285476Y-85179819D02*
X125904523Y-85179819D01*
X125904523Y-85179819D02*
X125571190Y-85560771D01*
X125571190Y-85560771D02*
X125714047Y-85560771D01*
X125714047Y-85560771D02*
X125809285Y-85608390D01*
X125809285Y-85608390D02*
X125856904Y-85656009D01*
X125856904Y-85656009D02*
X125904523Y-85751247D01*
X125904523Y-85751247D02*
X125904523Y-85989342D01*
X125904523Y-85989342D02*
X125856904Y-86084580D01*
X125856904Y-86084580D02*
X125809285Y-86132200D01*
X125809285Y-86132200D02*
X125714047Y-86179819D01*
X125714047Y-86179819D02*
X125428333Y-86179819D01*
X125428333Y-86179819D02*
X125333095Y-86132200D01*
X125333095Y-86132200D02*
X125285476Y-86084580D01*
D15*
X141021524Y-104836700D02*
X140512076Y-104836700D01*
X141021524Y-105881700D02*
X140512076Y-105881700D01*
X112122936Y-74490000D02*
X116477064Y-74490000D01*
X112122936Y-77910000D02*
X116477064Y-77910000D01*
X150395000Y-123417064D02*
X150395000Y-122962936D01*
X151865000Y-123417064D02*
X151865000Y-122962936D01*
X91882800Y-75968800D02*
X91882800Y-94088800D01*
X91882800Y-94088800D02*
X96602800Y-94088800D01*
X92492800Y-76578800D02*
X92492800Y-93478800D01*
X92492800Y-78928800D02*
X92992800Y-78928800D01*
X92492800Y-79028800D02*
X92992800Y-79028800D01*
X92492800Y-80928800D02*
X92992800Y-80928800D01*
X92492800Y-81028800D02*
X92992800Y-81028800D01*
X92492800Y-82928800D02*
X92992800Y-82928800D01*
X92492800Y-83028800D02*
X92992800Y-83028800D01*
X92492800Y-84928800D02*
X92992800Y-84928800D01*
X92492800Y-85028800D02*
X92992800Y-85028800D01*
X92492800Y-86928800D02*
X92992800Y-86928800D01*
X92492800Y-87028800D02*
X92992800Y-87028800D01*
X92492800Y-88928800D02*
X92992800Y-88928800D01*
X92492800Y-89028800D02*
X92992800Y-89028800D01*
X92492800Y-90928800D02*
X92992800Y-90928800D01*
X92492800Y-91028800D02*
X92992800Y-91028800D01*
X92492800Y-93478800D02*
X95992800Y-93478800D01*
X92992800Y-78928800D02*
X92992800Y-79128800D01*
X92992800Y-79128800D02*
X92492800Y-79128800D01*
X92992800Y-80928800D02*
X92992800Y-81128800D01*
X92992800Y-81128800D02*
X92492800Y-81128800D01*
X92992800Y-82928800D02*
X92992800Y-83128800D01*
X92992800Y-83128800D02*
X92492800Y-83128800D01*
X92992800Y-84928800D02*
X92992800Y-85128800D01*
X92992800Y-85128800D02*
X92492800Y-85128800D01*
X92992800Y-86928800D02*
X92992800Y-87128800D01*
X92992800Y-87128800D02*
X92492800Y-87128800D01*
X92992800Y-88928800D02*
X92992800Y-89128800D01*
X92992800Y-89128800D02*
X92492800Y-89128800D01*
X92992800Y-90928800D02*
X92992800Y-91128800D01*
X92992800Y-91128800D02*
X92492800Y-91128800D01*
X93992800Y-75968800D02*
X93992800Y-76578800D01*
X93992800Y-94088800D02*
X93992800Y-93478800D01*
X95292800Y-75968800D02*
X95292800Y-76578800D01*
X95292800Y-94088800D02*
X95292800Y-93478800D01*
X95992800Y-76578800D02*
X92492800Y-76578800D01*
X95992800Y-78528800D02*
X95992800Y-76578800D01*
X95992800Y-91528800D02*
X96602800Y-91528800D01*
X95992800Y-93478800D02*
X95992800Y-91528800D01*
X96602800Y-75968800D02*
X91882800Y-75968800D01*
X96602800Y-77728800D02*
X96802800Y-77728800D01*
X96602800Y-78528800D02*
X95992800Y-78528800D01*
X96602800Y-94088800D02*
X96602800Y-75968800D01*
X96702800Y-77728800D02*
X96702800Y-77428800D01*
X96802800Y-77428800D02*
X96602800Y-77428800D01*
X96802800Y-77728800D02*
X96802800Y-77428800D01*
X96902800Y-75668800D02*
X95652800Y-75668800D01*
X96902800Y-76918800D02*
X96902800Y-75668800D01*
X157180000Y-130430000D02*
X151670000Y-130430000D01*
X157180000Y-133730000D02*
X151670000Y-133730000D01*
X157180000Y-133730000D02*
X157180000Y-130430000D01*
X165920664Y-103151000D02*
X165466536Y-103151000D01*
X165920664Y-104621000D02*
X165466536Y-104621000D01*
X126483600Y-101540000D02*
X126483600Y-106740000D01*
X126483600Y-106740000D02*
X128133600Y-106740000D01*
X130133600Y-106740000D02*
X131783600Y-106740000D01*
X131783600Y-101540000D02*
X126483600Y-101540000D01*
X131783600Y-106740000D02*
X131783600Y-101540000D01*
X128133600Y-106740000D02*
G75*
G02*
X130133600Y-106740000I1000000J0D01*
G01*
X154125000Y-98165000D02*
X154125000Y-78365000D01*
X155875000Y-83315000D02*
X155875000Y-85815000D01*
X157725000Y-93915000D02*
X160175000Y-93915000D01*
X158275000Y-89215000D02*
X158275000Y-82415000D01*
X160075000Y-83815000D02*
X163675000Y-83815000D01*
X160075000Y-85815000D02*
X155875000Y-85815000D01*
X160075000Y-87815000D02*
X160075000Y-83815000D01*
X160075000Y-87815000D02*
X163675000Y-83815000D01*
X160725000Y-78365000D02*
X154125000Y-78365000D01*
X161875000Y-82415000D02*
X158275000Y-82415000D01*
X161875000Y-82415000D02*
X161875000Y-81615000D01*
X161875000Y-89215000D02*
X158275000Y-89215000D01*
X161875000Y-89215000D02*
X161875000Y-90715000D01*
X161875000Y-90715000D02*
X159675000Y-94965000D01*
X163675000Y-83815000D02*
X163675000Y-87815000D01*
X163675000Y-87815000D02*
X160075000Y-87815000D01*
X166125000Y-93915000D02*
X163625000Y-93915000D01*
X167875000Y-85815000D02*
X163675000Y-85815000D01*
X167875000Y-85815000D02*
X167875000Y-83315000D01*
X169725000Y-78365000D02*
X163125000Y-78365000D01*
X169725000Y-78365000D02*
X169725000Y-98165000D01*
X169725000Y-98165000D02*
X154125000Y-98165000D01*
X103329000Y-79512000D02*
X113079000Y-79512000D01*
X103329000Y-84562000D02*
X103329000Y-79512000D01*
X113079000Y-79512000D02*
X113079000Y-84562000D01*
X113079000Y-84562000D02*
X103329000Y-84562000D01*
X138965000Y-124198747D02*
X138965000Y-124721253D01*
X140435000Y-124198747D02*
X140435000Y-124721253D01*
X165466536Y-108231000D02*
X165920664Y-108231000D01*
X165466536Y-109701000D02*
X165920664Y-109701000D01*
X143930000Y-118952500D02*
X144930000Y-118952500D01*
X143930000Y-120472500D02*
X143930000Y-118952500D01*
X143980000Y-120472500D02*
X143930000Y-120472500D01*
X145880000Y-120472500D02*
X145100000Y-120472500D01*
X146050000Y-118952500D02*
X147050000Y-118952500D01*
X147050000Y-118952500D02*
X147050000Y-120472500D01*
X147050000Y-120472500D02*
X147000000Y-120472500D01*
X145440000Y-121252500D02*
X145110000Y-121012500D01*
X145440000Y-120772500D01*
X145440000Y-121252500D01*
G36*
X145440000Y-121252500D02*
G01*
X145110000Y-121012500D01*
X145440000Y-120772500D01*
X145440000Y-121252500D01*
G37*
X105170000Y-125607500D02*
X105170000Y-130002500D01*
X105170000Y-130002500D02*
X108190000Y-130002500D01*
X108190000Y-130002500D02*
X108190000Y-125607500D01*
X139077500Y-109755000D02*
X139077500Y-111225000D01*
X139077500Y-111225000D02*
X141537500Y-111225000D01*
X141537500Y-109755000D02*
X139077500Y-109755000D01*
X169778400Y-119000000D02*
X164268400Y-119000000D01*
X169778400Y-122300000D02*
X164268400Y-122300000D01*
X169778400Y-122300000D02*
X169778400Y-119000000D01*
D14*
X104140000Y-60040000D02*
X104140000Y-72040000D01*
X104140000Y-72040000D02*
X111760000Y-72040000D01*
D15*
X105773624Y-61873098D02*
X109160000Y-67090000D01*
X106832377Y-61124691D02*
X110287624Y-66355310D01*
D14*
X111760000Y-60040000D02*
X104140000Y-60040000D01*
X111760000Y-60040000D02*
X119380000Y-60040000D01*
X111760000Y-71040000D02*
X111760000Y-61040000D01*
D15*
X113466812Y-61881549D02*
X116853188Y-67098451D01*
X114525565Y-61133142D02*
X117980812Y-66363761D01*
D14*
X119380000Y-60040000D02*
X119380000Y-72040000D01*
X119380000Y-72040000D02*
X111760000Y-72040000D01*
D15*
X111161562Y-64140000D02*
G75*
G02*
X104758438Y-64140000I-3201562J0D01*
G01*
X104758438Y-64140000D02*
G75*
G02*
X111161562Y-64140000I3201562J0D01*
G01*
X118860000Y-64140000D02*
G75*
G02*
X112456876Y-64140000I-3201562J0D01*
G01*
X112456876Y-64140000D02*
G75*
G02*
X118860000Y-64140000I3201562J0D01*
G01*
X111025000Y-96477064D02*
X111025000Y-96022936D01*
X112495000Y-96477064D02*
X112495000Y-96022936D01*
D14*
X152400000Y-60040000D02*
X152400000Y-72040000D01*
X152400000Y-72040000D02*
X160020000Y-72040000D01*
D15*
X154033624Y-61873098D02*
X157419999Y-67090000D01*
X155092377Y-61124691D02*
X158547624Y-66355310D01*
D14*
X160020000Y-60040000D02*
X152400000Y-60040000D01*
X160020000Y-60040000D02*
X167640000Y-60040000D01*
X160020000Y-71040000D02*
X160020000Y-61040000D01*
D15*
X161726812Y-61881549D02*
X165113188Y-67098451D01*
X162785565Y-61133142D02*
X166240812Y-66363761D01*
D14*
X167640000Y-60040000D02*
X167640000Y-72040000D01*
X167640000Y-72040000D02*
X160020000Y-72040000D01*
D15*
X159421562Y-64140000D02*
G75*
G02*
X153018438Y-64140000I-3201562J0D01*
G01*
X153018438Y-64140000D02*
G75*
G02*
X159421562Y-64140000I3201562J0D01*
G01*
X167120000Y-64140000D02*
G75*
G02*
X160716876Y-64140000I-3201562J0D01*
G01*
X160716876Y-64140000D02*
G75*
G02*
X167120000Y-64140000I3201562J0D01*
G01*
X110249999Y-125607500D02*
X110249999Y-130002500D01*
X110249999Y-130002500D02*
X113269999Y-130002500D01*
X113269999Y-130002500D02*
X113269999Y-125607500D01*
X155282200Y-103826000D02*
X155282200Y-114106000D01*
X155282200Y-114106000D02*
X156932200Y-114106000D01*
X158932200Y-114106000D02*
X160582200Y-114106000D01*
X160582200Y-103826000D02*
X155282200Y-103826000D01*
X160582200Y-114106000D02*
X160582200Y-103826000D01*
X156932200Y-114106000D02*
G75*
G02*
X158932200Y-114106000I1000000J0D01*
G01*
X138965000Y-129767064D02*
X138965000Y-129312936D01*
X140435000Y-129767064D02*
X140435000Y-129312936D01*
X126483600Y-109160000D02*
X126483600Y-114360000D01*
X126483600Y-114360000D02*
X128133600Y-114360000D01*
X130133600Y-114360000D02*
X131783600Y-114360000D01*
X131783600Y-109160000D02*
X126483600Y-109160000D01*
X131783600Y-114360000D02*
X131783600Y-109160000D01*
X128133600Y-114360000D02*
G75*
G02*
X130133600Y-114360000I1000000J0D01*
G01*
X165466536Y-105691000D02*
X165920664Y-105691000D01*
X165466536Y-107161000D02*
X165920664Y-107161000D01*
X150205000Y-99570000D02*
X151205000Y-99570000D01*
X150205000Y-101090000D02*
X150205000Y-99570000D01*
X150255000Y-101090000D02*
X150205000Y-101090000D01*
X152155000Y-101090000D02*
X151375000Y-101090000D01*
X152325000Y-99570000D02*
X153325000Y-99570000D01*
X153325000Y-99570000D02*
X153325000Y-101090000D01*
X153325000Y-101090000D02*
X153275000Y-101090000D01*
X151715000Y-101870000D02*
X151385000Y-101630000D01*
X151715000Y-101390000D01*
X151715000Y-101870000D01*
G36*
X151715000Y-101870000D02*
G01*
X151385000Y-101630000D01*
X151715000Y-101390000D01*
X151715000Y-101870000D01*
G37*
X165466536Y-110771000D02*
X165920664Y-110771000D01*
X165466536Y-112241000D02*
X165920664Y-112241000D01*
X181274800Y-108966000D02*
G75*
G02*
X177474800Y-108966000I-1900000J0D01*
G01*
X177474800Y-108966000D02*
G75*
G02*
X181274800Y-108966000I1900000J0D01*
G01*
X129844748Y-125132000D02*
X131267252Y-125132000D01*
X129844748Y-127852000D02*
X131267252Y-127852000D01*
X132442936Y-75760000D02*
X136797064Y-75760000D01*
X132442936Y-79180000D02*
X136797064Y-79180000D01*
X165904664Y-100357000D02*
X165450536Y-100357000D01*
X165904664Y-101827000D02*
X165450536Y-101827000D01*
X153630800Y-123951948D02*
X153630800Y-125374452D01*
X156350800Y-123951948D02*
X156350800Y-125374452D01*
D14*
X124460000Y-60040000D02*
X124460000Y-72040000D01*
X124460000Y-72040000D02*
X132080000Y-72040000D01*
D15*
X126093624Y-61873098D02*
X129480000Y-67090000D01*
X127152377Y-61124691D02*
X130607624Y-66355310D01*
D14*
X132080000Y-60040000D02*
X124460000Y-60040000D01*
X132080000Y-60040000D02*
X139700000Y-60040000D01*
X132080000Y-71040000D02*
X132080000Y-61040000D01*
D15*
X133786812Y-61881549D02*
X137173188Y-67098451D01*
X134845565Y-61133142D02*
X138300812Y-66363761D01*
D14*
X139700000Y-60040000D02*
X139700000Y-72040000D01*
X139700000Y-72040000D02*
X132080000Y-72040000D01*
D15*
X131481562Y-64140000D02*
G75*
G02*
X125078438Y-64140000I-3201562J0D01*
G01*
X125078438Y-64140000D02*
G75*
G02*
X131481562Y-64140000I3201562J0D01*
G01*
X139180000Y-64140000D02*
G75*
G02*
X132776876Y-64140000I-3201562J0D01*
G01*
X132776876Y-64140000D02*
G75*
G02*
X139180000Y-64140000I3201562J0D01*
G01*
X115423001Y-83665000D02*
X115518000Y-83665000D01*
X115423001Y-87785000D02*
X115423001Y-83665000D01*
X115518000Y-87785000D02*
X115423001Y-87785000D01*
X120448000Y-83665000D02*
X120542999Y-83665000D01*
X120542999Y-83665000D02*
X120542999Y-87785000D01*
X120542999Y-87785000D02*
X120448000Y-87785000D01*
X115513000Y-88325000D02*
X115183000Y-88565000D01*
X115183000Y-88085000D01*
X115513000Y-88325000D01*
G36*
X115513000Y-88325000D02*
G01*
X115183000Y-88565000D01*
X115183000Y-88085000D01*
X115513000Y-88325000D01*
G37*
X164865000Y-124610000D02*
X166265000Y-124610000D01*
X164865000Y-131930000D02*
X164865000Y-124610000D01*
X166265000Y-131930000D02*
X164865000Y-131930000D01*
X170285000Y-124610000D02*
X171685000Y-124610000D01*
X171685000Y-124610000D02*
X171685000Y-131930000D01*
X171685000Y-131930000D02*
X170285000Y-131930000D01*
X102135000Y-127618753D02*
X102135000Y-127096247D01*
X103605000Y-127618753D02*
X103605000Y-127096247D01*
X135155000Y-129801253D02*
X135155000Y-129278747D01*
X136625000Y-129801253D02*
X136625000Y-129278747D01*
X134825000Y-81290000D02*
X144575000Y-81290000D01*
X134825000Y-86340000D02*
X134825000Y-81290000D01*
X144575000Y-81290000D02*
X144575000Y-86340000D01*
X144575000Y-86340000D02*
X134825000Y-86340000D01*
X113565000Y-96477064D02*
X113565000Y-96022936D01*
X115035000Y-96477064D02*
X115035000Y-96022936D01*
X140943064Y-112803000D02*
X140488936Y-112803000D01*
X140943064Y-114273000D02*
X140488936Y-114273000D01*
X173001000Y-99736800D02*
X173001000Y-102196800D01*
X174471000Y-99736800D02*
X173001000Y-99736800D01*
X174471000Y-102196800D02*
X174471000Y-99736800D01*
X140998753Y-99595000D02*
X140476247Y-99595000D01*
X140998753Y-101065000D02*
X140476247Y-101065000D01*
X150395000Y-111970453D02*
X150395000Y-111447947D01*
X151865000Y-111970453D02*
X151865000Y-111447947D01*
X139077500Y-102135000D02*
X139077500Y-103605000D01*
X139077500Y-103605000D02*
X141537500Y-103605000D01*
X141537500Y-102135000D02*
X139077500Y-102135000D01*
X134530000Y-123748748D02*
X134530000Y-125171252D01*
X137250000Y-123748748D02*
X137250000Y-125171252D01*
X149495000Y-81610000D02*
X149495000Y-85470000D01*
X151495000Y-81610000D02*
X149495000Y-81610000D01*
X151495000Y-81610000D02*
X151495000Y-85470000D01*
X158310000Y-127907064D02*
X158310000Y-123552936D01*
X161730000Y-127907064D02*
X161730000Y-123552936D01*
X181274800Y-122682000D02*
G75*
G02*
X177474800Y-122682000I-1900000J0D01*
G01*
X177474800Y-122682000D02*
G75*
G02*
X181274800Y-122682000I1900000J0D01*
G01*
X117530000Y-124860000D02*
X121290000Y-124860000D01*
X117530000Y-131680000D02*
X121290000Y-131680000D01*
X121290000Y-124860000D02*
X121290000Y-126120000D01*
X121290000Y-131680000D02*
X121290000Y-130420000D01*
X116250000Y-124960000D02*
X116010000Y-124630000D01*
X116490000Y-124630000D01*
X116250000Y-124960000D01*
G36*
X116250000Y-124960000D02*
G01*
X116010000Y-124630000D01*
X116490000Y-124630000D01*
X116250000Y-124960000D01*
G37*
D10*
X143480001Y-129070000D02*
X143480001Y-124930000D01*
X148619999Y-129070000D02*
X148619999Y-124930000D01*
D15*
X143523081Y-129400000D02*
X143193081Y-129640000D01*
X143193081Y-129160000D01*
X143523081Y-129400000D01*
G36*
X143523081Y-129400000D02*
G01*
X143193081Y-129640000D01*
X143193081Y-129160000D01*
X143523081Y-129400000D01*
G37*
X90150000Y-101363000D02*
X96650000Y-101363000D01*
X90150000Y-119397000D02*
X90150000Y-101363000D01*
X90176000Y-119397000D02*
X95986000Y-119397000D01*
X94770000Y-119380000D02*
X96720000Y-119380001D01*
X94779999Y-101380000D02*
X94770000Y-119380000D01*
X96570000Y-101379999D02*
X94779999Y-101380000D01*
X118100000Y-101490000D02*
X116830000Y-101490000D01*
X118100000Y-101490000D02*
X118100000Y-119270000D01*
X118100000Y-106570000D02*
X119370000Y-106570000D01*
X118100000Y-119270000D02*
X116830000Y-119270000D01*
X119370000Y-106570000D02*
X119370000Y-114190000D01*
X119370000Y-114190000D02*
X118100000Y-114190000D01*
X117330000Y-101228000D02*
X116830000Y-101228000D01*
X116830000Y-100728000D01*
X117330000Y-101228000D01*
G36*
X117330000Y-101228000D02*
G01*
X116830000Y-101228000D01*
X116830000Y-100728000D01*
X117330000Y-101228000D01*
G37*
X181274800Y-115824000D02*
G75*
G02*
X177474800Y-115824000I-1900000J0D01*
G01*
X177474800Y-115824000D02*
G75*
G02*
X181274800Y-115824000I1900000J0D01*
G01*
X175401100Y-89162000D02*
X175201100Y-89362000D01*
X175401100Y-90162000D02*
X175201100Y-89962000D01*
X177501100Y-89162000D02*
X175401100Y-89162000D01*
X177501100Y-90162000D02*
X175401100Y-90162000D01*
X177546600Y-84542000D02*
X177546600Y-90170000D01*
X177546600Y-94782000D02*
X177546600Y-90170000D01*
X180677600Y-84542000D02*
X180677600Y-94782000D01*
X182187600Y-84542000D02*
X177546600Y-84542000D01*
X182187600Y-84542000D02*
X182187600Y-94782000D01*
X182187600Y-87812000D02*
X180677600Y-87812000D01*
X182187600Y-91513000D02*
X180677600Y-91513000D01*
X182187600Y-94782000D02*
X177546600Y-94782000D01*
X122535001Y-83665000D02*
X122630000Y-83665000D01*
X122535001Y-87785000D02*
X122535001Y-83665000D01*
X122630000Y-87785000D02*
X122535001Y-87785000D01*
X127560000Y-83665000D02*
X127654999Y-83665000D01*
X127654999Y-83665000D02*
X127654999Y-87785000D01*
X127654999Y-87785000D02*
X127560000Y-87785000D01*
X122625000Y-88325000D02*
X122295000Y-88565000D01*
X122295000Y-88085000D01*
X122625000Y-88325000D01*
G36*
X122625000Y-88325000D02*
G01*
X122295000Y-88565000D01*
X122295000Y-88085000D01*
X122625000Y-88325000D01*
G37*
M02*
