%TF.GenerationSoftware,KiCad,Pcbnew,9.0.6*%
%TF.CreationDate,2026-01-17T02:02:38+03:00*%
%TF.ProjectId,Backup power switch 12v Module,4261636b-7570-4207-906f-776572207377,rev?*%
%TF.SameCoordinates,Original*%
%TF.FileFunction,Legend,Top*%
%TF.FilePolarity,Positive*%
%FSLAX46Y46*%
G04 Gerber Fmt 4.6, Leading zero omitted, Abs format (unit mm)*
G04 Created by KiCad (PCBNEW 9.0.6) date 2026-01-17 02:02:38*
%MOMM*%
%LPD*%
G01*
G04 APERTURE LIST*
%ADD10C,0.200000*%
%ADD11C,0.150000*%
%ADD12C,0.100000*%
%ADD13C,0.300000*%
%ADD14C,0.125000*%
%ADD15C,0.120000*%
G04 APERTURE END LIST*
D10*
X136135863Y-25312742D02*
X136821578Y-25312742D01*
X136478720Y-26512742D02*
X136478720Y-25312742D01*
X137393006Y-26512742D02*
X137278721Y-26455600D01*
X137278721Y-26455600D02*
X137221578Y-26398457D01*
X137221578Y-26398457D02*
X137164435Y-26284171D01*
X137164435Y-26284171D02*
X137164435Y-25941314D01*
X137164435Y-25941314D02*
X137221578Y-25827028D01*
X137221578Y-25827028D02*
X137278721Y-25769885D01*
X137278721Y-25769885D02*
X137393006Y-25712742D01*
X137393006Y-25712742D02*
X137564435Y-25712742D01*
X137564435Y-25712742D02*
X137678721Y-25769885D01*
X137678721Y-25769885D02*
X137735864Y-25827028D01*
X137735864Y-25827028D02*
X137793006Y-25941314D01*
X137793006Y-25941314D02*
X137793006Y-26284171D01*
X137793006Y-26284171D02*
X137735864Y-26398457D01*
X137735864Y-26398457D02*
X137678721Y-26455600D01*
X137678721Y-26455600D02*
X137564435Y-26512742D01*
X137564435Y-26512742D02*
X137393006Y-26512742D01*
X139621578Y-25884171D02*
X139793006Y-25941314D01*
X139793006Y-25941314D02*
X139850149Y-25998457D01*
X139850149Y-25998457D02*
X139907292Y-26112742D01*
X139907292Y-26112742D02*
X139907292Y-26284171D01*
X139907292Y-26284171D02*
X139850149Y-26398457D01*
X139850149Y-26398457D02*
X139793006Y-26455600D01*
X139793006Y-26455600D02*
X139678721Y-26512742D01*
X139678721Y-26512742D02*
X139221578Y-26512742D01*
X139221578Y-26512742D02*
X139221578Y-25312742D01*
X139221578Y-25312742D02*
X139621578Y-25312742D01*
X139621578Y-25312742D02*
X139735864Y-25369885D01*
X139735864Y-25369885D02*
X139793006Y-25427028D01*
X139793006Y-25427028D02*
X139850149Y-25541314D01*
X139850149Y-25541314D02*
X139850149Y-25655600D01*
X139850149Y-25655600D02*
X139793006Y-25769885D01*
X139793006Y-25769885D02*
X139735864Y-25827028D01*
X139735864Y-25827028D02*
X139621578Y-25884171D01*
X139621578Y-25884171D02*
X139221578Y-25884171D01*
X140935864Y-26512742D02*
X140935864Y-25884171D01*
X140935864Y-25884171D02*
X140878721Y-25769885D01*
X140878721Y-25769885D02*
X140764435Y-25712742D01*
X140764435Y-25712742D02*
X140535864Y-25712742D01*
X140535864Y-25712742D02*
X140421578Y-25769885D01*
X140935864Y-26455600D02*
X140821578Y-26512742D01*
X140821578Y-26512742D02*
X140535864Y-26512742D01*
X140535864Y-26512742D02*
X140421578Y-26455600D01*
X140421578Y-26455600D02*
X140364435Y-26341314D01*
X140364435Y-26341314D02*
X140364435Y-26227028D01*
X140364435Y-26227028D02*
X140421578Y-26112742D01*
X140421578Y-26112742D02*
X140535864Y-26055600D01*
X140535864Y-26055600D02*
X140821578Y-26055600D01*
X140821578Y-26055600D02*
X140935864Y-25998457D01*
X141335863Y-25712742D02*
X141793006Y-25712742D01*
X141507292Y-25312742D02*
X141507292Y-26341314D01*
X141507292Y-26341314D02*
X141564435Y-26455600D01*
X141564435Y-26455600D02*
X141678720Y-26512742D01*
X141678720Y-26512742D02*
X141793006Y-26512742D01*
X142021577Y-25712742D02*
X142478720Y-25712742D01*
X142193006Y-25312742D02*
X142193006Y-26341314D01*
X142193006Y-26341314D02*
X142250149Y-26455600D01*
X142250149Y-26455600D02*
X142364434Y-26512742D01*
X142364434Y-26512742D02*
X142478720Y-26512742D01*
X143393006Y-26512742D02*
X143393006Y-25884171D01*
X143393006Y-25884171D02*
X143335863Y-25769885D01*
X143335863Y-25769885D02*
X143221577Y-25712742D01*
X143221577Y-25712742D02*
X142993006Y-25712742D01*
X142993006Y-25712742D02*
X142878720Y-25769885D01*
X143393006Y-26455600D02*
X143278720Y-26512742D01*
X143278720Y-26512742D02*
X142993006Y-26512742D01*
X142993006Y-26512742D02*
X142878720Y-26455600D01*
X142878720Y-26455600D02*
X142821577Y-26341314D01*
X142821577Y-26341314D02*
X142821577Y-26227028D01*
X142821577Y-26227028D02*
X142878720Y-26112742D01*
X142878720Y-26112742D02*
X142993006Y-26055600D01*
X142993006Y-26055600D02*
X143278720Y-26055600D01*
X143278720Y-26055600D02*
X143393006Y-25998457D01*
X143964434Y-26512742D02*
X143964434Y-25712742D01*
X143964434Y-25941314D02*
X144021577Y-25827028D01*
X144021577Y-25827028D02*
X144078720Y-25769885D01*
X144078720Y-25769885D02*
X144193005Y-25712742D01*
X144193005Y-25712742D02*
X144307291Y-25712742D01*
X144593005Y-25712742D02*
X144878719Y-26512742D01*
X145164434Y-25712742D02*
X144878719Y-26512742D01*
X144878719Y-26512742D02*
X144764434Y-26798457D01*
X144764434Y-26798457D02*
X144707291Y-26855600D01*
X144707291Y-26855600D02*
X144593005Y-26912742D01*
D11*
X99047541Y-79641819D02*
X99666588Y-79641819D01*
X99666588Y-79641819D02*
X99333255Y-80022771D01*
X99333255Y-80022771D02*
X99476112Y-80022771D01*
X99476112Y-80022771D02*
X99571350Y-80070390D01*
X99571350Y-80070390D02*
X99618969Y-80118009D01*
X99618969Y-80118009D02*
X99666588Y-80213247D01*
X99666588Y-80213247D02*
X99666588Y-80451342D01*
X99666588Y-80451342D02*
X99618969Y-80546580D01*
X99618969Y-80546580D02*
X99571350Y-80594200D01*
X99571350Y-80594200D02*
X99476112Y-80641819D01*
X99476112Y-80641819D02*
X99190398Y-80641819D01*
X99190398Y-80641819D02*
X99095160Y-80594200D01*
X99095160Y-80594200D02*
X99047541Y-80546580D01*
X99999922Y-79975152D02*
X100238017Y-80641819D01*
X100238017Y-80641819D02*
X100476112Y-79975152D01*
X100761827Y-79641819D02*
X101380874Y-79641819D01*
X101380874Y-79641819D02*
X101047541Y-80022771D01*
X101047541Y-80022771D02*
X101190398Y-80022771D01*
X101190398Y-80022771D02*
X101285636Y-80070390D01*
X101285636Y-80070390D02*
X101333255Y-80118009D01*
X101333255Y-80118009D02*
X101380874Y-80213247D01*
X101380874Y-80213247D02*
X101380874Y-80451342D01*
X101380874Y-80451342D02*
X101333255Y-80546580D01*
X101333255Y-80546580D02*
X101285636Y-80594200D01*
X101285636Y-80594200D02*
X101190398Y-80641819D01*
X101190398Y-80641819D02*
X100904684Y-80641819D01*
X100904684Y-80641819D02*
X100809446Y-80594200D01*
X100809446Y-80594200D02*
X100761827Y-80546580D01*
X99142779Y-88617419D02*
X99142779Y-87617419D01*
X99142779Y-87617419D02*
X99380874Y-87617419D01*
X99380874Y-87617419D02*
X99523731Y-87665038D01*
X99523731Y-87665038D02*
X99618969Y-87760276D01*
X99618969Y-87760276D02*
X99666588Y-87855514D01*
X99666588Y-87855514D02*
X99714207Y-88045990D01*
X99714207Y-88045990D02*
X99714207Y-88188847D01*
X99714207Y-88188847D02*
X99666588Y-88379323D01*
X99666588Y-88379323D02*
X99618969Y-88474561D01*
X99618969Y-88474561D02*
X99523731Y-88569800D01*
X99523731Y-88569800D02*
X99380874Y-88617419D01*
X99380874Y-88617419D02*
X99142779Y-88617419D01*
X100285636Y-88617419D02*
X100190398Y-88569800D01*
X100190398Y-88569800D02*
X100142779Y-88522180D01*
X100142779Y-88522180D02*
X100095160Y-88426942D01*
X100095160Y-88426942D02*
X100095160Y-88141228D01*
X100095160Y-88141228D02*
X100142779Y-88045990D01*
X100142779Y-88045990D02*
X100190398Y-87998371D01*
X100190398Y-87998371D02*
X100285636Y-87950752D01*
X100285636Y-87950752D02*
X100428493Y-87950752D01*
X100428493Y-87950752D02*
X100523731Y-87998371D01*
X100523731Y-87998371D02*
X100571350Y-88045990D01*
X100571350Y-88045990D02*
X100618969Y-88141228D01*
X100618969Y-88141228D02*
X100618969Y-88426942D01*
X100618969Y-88426942D02*
X100571350Y-88522180D01*
X100571350Y-88522180D02*
X100523731Y-88569800D01*
X100523731Y-88569800D02*
X100428493Y-88617419D01*
X100428493Y-88617419D02*
X100285636Y-88617419D01*
X101047541Y-87950752D02*
X101047541Y-88617419D01*
X101047541Y-88045990D02*
X101095160Y-87998371D01*
X101095160Y-87998371D02*
X101190398Y-87950752D01*
X101190398Y-87950752D02*
X101333255Y-87950752D01*
X101333255Y-87950752D02*
X101428493Y-87998371D01*
X101428493Y-87998371D02*
X101476112Y-88093609D01*
X101476112Y-88093609D02*
X101476112Y-88617419D01*
X102333255Y-88569800D02*
X102238017Y-88617419D01*
X102238017Y-88617419D02*
X102047541Y-88617419D01*
X102047541Y-88617419D02*
X101952303Y-88569800D01*
X101952303Y-88569800D02*
X101904684Y-88474561D01*
X101904684Y-88474561D02*
X101904684Y-88093609D01*
X101904684Y-88093609D02*
X101952303Y-87998371D01*
X101952303Y-87998371D02*
X102047541Y-87950752D01*
X102047541Y-87950752D02*
X102238017Y-87950752D01*
X102238017Y-87950752D02*
X102333255Y-87998371D01*
X102333255Y-87998371D02*
X102380874Y-88093609D01*
X102380874Y-88093609D02*
X102380874Y-88188847D01*
X102380874Y-88188847D02*
X101904684Y-88284085D01*
D12*
X182247217Y-81898609D02*
X182390074Y-81946228D01*
X182390074Y-81946228D02*
X182437693Y-81993847D01*
X182437693Y-81993847D02*
X182485312Y-82089085D01*
X182485312Y-82089085D02*
X182485312Y-82231942D01*
X182485312Y-82231942D02*
X182437693Y-82327180D01*
X182437693Y-82327180D02*
X182390074Y-82374800D01*
X182390074Y-82374800D02*
X182294836Y-82422419D01*
X182294836Y-82422419D02*
X181913884Y-82422419D01*
X181913884Y-82422419D02*
X181913884Y-81422419D01*
X181913884Y-81422419D02*
X182247217Y-81422419D01*
X182247217Y-81422419D02*
X182342455Y-81470038D01*
X182342455Y-81470038D02*
X182390074Y-81517657D01*
X182390074Y-81517657D02*
X182437693Y-81612895D01*
X182437693Y-81612895D02*
X182437693Y-81708133D01*
X182437693Y-81708133D02*
X182390074Y-81803371D01*
X182390074Y-81803371D02*
X182342455Y-81850990D01*
X182342455Y-81850990D02*
X182247217Y-81898609D01*
X182247217Y-81898609D02*
X181913884Y-81898609D01*
D11*
X99095160Y-84505800D02*
X99238017Y-84553419D01*
X99238017Y-84553419D02*
X99476112Y-84553419D01*
X99476112Y-84553419D02*
X99571350Y-84505800D01*
X99571350Y-84505800D02*
X99618969Y-84458180D01*
X99618969Y-84458180D02*
X99666588Y-84362942D01*
X99666588Y-84362942D02*
X99666588Y-84267704D01*
X99666588Y-84267704D02*
X99618969Y-84172466D01*
X99618969Y-84172466D02*
X99571350Y-84124847D01*
X99571350Y-84124847D02*
X99476112Y-84077228D01*
X99476112Y-84077228D02*
X99285636Y-84029609D01*
X99285636Y-84029609D02*
X99190398Y-83981990D01*
X99190398Y-83981990D02*
X99142779Y-83934371D01*
X99142779Y-83934371D02*
X99095160Y-83839133D01*
X99095160Y-83839133D02*
X99095160Y-83743895D01*
X99095160Y-83743895D02*
X99142779Y-83648657D01*
X99142779Y-83648657D02*
X99190398Y-83601038D01*
X99190398Y-83601038D02*
X99285636Y-83553419D01*
X99285636Y-83553419D02*
X99523731Y-83553419D01*
X99523731Y-83553419D02*
X99666588Y-83601038D01*
X100523731Y-84553419D02*
X100523731Y-83553419D01*
X100523731Y-84505800D02*
X100428493Y-84553419D01*
X100428493Y-84553419D02*
X100238017Y-84553419D01*
X100238017Y-84553419D02*
X100142779Y-84505800D01*
X100142779Y-84505800D02*
X100095160Y-84458180D01*
X100095160Y-84458180D02*
X100047541Y-84362942D01*
X100047541Y-84362942D02*
X100047541Y-84077228D01*
X100047541Y-84077228D02*
X100095160Y-83981990D01*
X100095160Y-83981990D02*
X100142779Y-83934371D01*
X100142779Y-83934371D02*
X100238017Y-83886752D01*
X100238017Y-83886752D02*
X100428493Y-83886752D01*
X100428493Y-83886752D02*
X100523731Y-83934371D01*
X101428493Y-84553419D02*
X101428493Y-84029609D01*
X101428493Y-84029609D02*
X101380874Y-83934371D01*
X101380874Y-83934371D02*
X101285636Y-83886752D01*
X101285636Y-83886752D02*
X101095160Y-83886752D01*
X101095160Y-83886752D02*
X100999922Y-83934371D01*
X101428493Y-84505800D02*
X101333255Y-84553419D01*
X101333255Y-84553419D02*
X101095160Y-84553419D01*
X101095160Y-84553419D02*
X100999922Y-84505800D01*
X100999922Y-84505800D02*
X100952303Y-84410561D01*
X100952303Y-84410561D02*
X100952303Y-84315323D01*
X100952303Y-84315323D02*
X100999922Y-84220085D01*
X100999922Y-84220085D02*
X101095160Y-84172466D01*
X101095160Y-84172466D02*
X101333255Y-84172466D01*
X101333255Y-84172466D02*
X101428493Y-84124847D01*
D12*
X181913884Y-93090419D02*
X181913884Y-92090419D01*
X181913884Y-92090419D02*
X182294836Y-92090419D01*
X182294836Y-92090419D02*
X182390074Y-92138038D01*
X182390074Y-92138038D02*
X182437693Y-92185657D01*
X182437693Y-92185657D02*
X182485312Y-92280895D01*
X182485312Y-92280895D02*
X182485312Y-92423752D01*
X182485312Y-92423752D02*
X182437693Y-92518990D01*
X182437693Y-92518990D02*
X182390074Y-92566609D01*
X182390074Y-92566609D02*
X182294836Y-92614228D01*
X182294836Y-92614228D02*
X181913884Y-92614228D01*
D13*
X154639489Y-58174600D02*
X153496632Y-58174600D01*
X125484600Y-57433367D02*
X125484600Y-58576225D01*
X124913171Y-58004796D02*
X126056028Y-58004796D01*
D10*
X170937945Y-110779275D02*
X170937945Y-109779275D01*
X170937945Y-109779275D02*
X171318897Y-109779275D01*
X171318897Y-109779275D02*
X171414135Y-109826894D01*
X171414135Y-109826894D02*
X171461754Y-109874513D01*
X171461754Y-109874513D02*
X171509373Y-109969751D01*
X171509373Y-109969751D02*
X171509373Y-110112608D01*
X171509373Y-110112608D02*
X171461754Y-110207846D01*
X171461754Y-110207846D02*
X171414135Y-110255465D01*
X171414135Y-110255465D02*
X171318897Y-110303084D01*
X171318897Y-110303084D02*
X170937945Y-110303084D01*
X172080802Y-110779275D02*
X171985564Y-110731656D01*
X171985564Y-110731656D02*
X171937945Y-110684036D01*
X171937945Y-110684036D02*
X171890326Y-110588798D01*
X171890326Y-110588798D02*
X171890326Y-110303084D01*
X171890326Y-110303084D02*
X171937945Y-110207846D01*
X171937945Y-110207846D02*
X171985564Y-110160227D01*
X171985564Y-110160227D02*
X172080802Y-110112608D01*
X172080802Y-110112608D02*
X172223659Y-110112608D01*
X172223659Y-110112608D02*
X172318897Y-110160227D01*
X172318897Y-110160227D02*
X172366516Y-110207846D01*
X172366516Y-110207846D02*
X172414135Y-110303084D01*
X172414135Y-110303084D02*
X172414135Y-110588798D01*
X172414135Y-110588798D02*
X172366516Y-110684036D01*
X172366516Y-110684036D02*
X172318897Y-110731656D01*
X172318897Y-110731656D02*
X172223659Y-110779275D01*
X172223659Y-110779275D02*
X172080802Y-110779275D01*
X172747469Y-110112608D02*
X172937945Y-110779275D01*
X172937945Y-110779275D02*
X173128421Y-110303084D01*
X173128421Y-110303084D02*
X173318897Y-110779275D01*
X173318897Y-110779275D02*
X173509373Y-110112608D01*
X174271278Y-110731656D02*
X174176040Y-110779275D01*
X174176040Y-110779275D02*
X173985564Y-110779275D01*
X173985564Y-110779275D02*
X173890326Y-110731656D01*
X173890326Y-110731656D02*
X173842707Y-110636417D01*
X173842707Y-110636417D02*
X173842707Y-110255465D01*
X173842707Y-110255465D02*
X173890326Y-110160227D01*
X173890326Y-110160227D02*
X173985564Y-110112608D01*
X173985564Y-110112608D02*
X174176040Y-110112608D01*
X174176040Y-110112608D02*
X174271278Y-110160227D01*
X174271278Y-110160227D02*
X174318897Y-110255465D01*
X174318897Y-110255465D02*
X174318897Y-110350703D01*
X174318897Y-110350703D02*
X173842707Y-110445941D01*
X174747469Y-110779275D02*
X174747469Y-110112608D01*
X174747469Y-110303084D02*
X174795088Y-110207846D01*
X174795088Y-110207846D02*
X174842707Y-110160227D01*
X174842707Y-110160227D02*
X174937945Y-110112608D01*
X174937945Y-110112608D02*
X175033183Y-110112608D01*
X169699849Y-111389219D02*
X170033182Y-112389219D01*
X170033182Y-112389219D02*
X170366515Y-111389219D01*
X170842706Y-112389219D02*
X170747468Y-112341600D01*
X170747468Y-112341600D02*
X170699849Y-112293980D01*
X170699849Y-112293980D02*
X170652230Y-112198742D01*
X170652230Y-112198742D02*
X170652230Y-111913028D01*
X170652230Y-111913028D02*
X170699849Y-111817790D01*
X170699849Y-111817790D02*
X170747468Y-111770171D01*
X170747468Y-111770171D02*
X170842706Y-111722552D01*
X170842706Y-111722552D02*
X170985563Y-111722552D01*
X170985563Y-111722552D02*
X171080801Y-111770171D01*
X171080801Y-111770171D02*
X171128420Y-111817790D01*
X171128420Y-111817790D02*
X171176039Y-111913028D01*
X171176039Y-111913028D02*
X171176039Y-112198742D01*
X171176039Y-112198742D02*
X171128420Y-112293980D01*
X171128420Y-112293980D02*
X171080801Y-112341600D01*
X171080801Y-112341600D02*
X170985563Y-112389219D01*
X170985563Y-112389219D02*
X170842706Y-112389219D01*
X171747468Y-112389219D02*
X171652230Y-112341600D01*
X171652230Y-112341600D02*
X171604611Y-112246361D01*
X171604611Y-112246361D02*
X171604611Y-111389219D01*
X171985564Y-111722552D02*
X172366516Y-111722552D01*
X172128421Y-111389219D02*
X172128421Y-112246361D01*
X172128421Y-112246361D02*
X172176040Y-112341600D01*
X172176040Y-112341600D02*
X172271278Y-112389219D01*
X172271278Y-112389219D02*
X172366516Y-112389219D01*
X173128421Y-112389219D02*
X173128421Y-111865409D01*
X173128421Y-111865409D02*
X173080802Y-111770171D01*
X173080802Y-111770171D02*
X172985564Y-111722552D01*
X172985564Y-111722552D02*
X172795088Y-111722552D01*
X172795088Y-111722552D02*
X172699850Y-111770171D01*
X173128421Y-112341600D02*
X173033183Y-112389219D01*
X173033183Y-112389219D02*
X172795088Y-112389219D01*
X172795088Y-112389219D02*
X172699850Y-112341600D01*
X172699850Y-112341600D02*
X172652231Y-112246361D01*
X172652231Y-112246361D02*
X172652231Y-112151123D01*
X172652231Y-112151123D02*
X172699850Y-112055885D01*
X172699850Y-112055885D02*
X172795088Y-112008266D01*
X172795088Y-112008266D02*
X173033183Y-112008266D01*
X173033183Y-112008266D02*
X173128421Y-111960647D01*
X174033183Y-111722552D02*
X174033183Y-112532076D01*
X174033183Y-112532076D02*
X173985564Y-112627314D01*
X173985564Y-112627314D02*
X173937945Y-112674933D01*
X173937945Y-112674933D02*
X173842707Y-112722552D01*
X173842707Y-112722552D02*
X173699850Y-112722552D01*
X173699850Y-112722552D02*
X173604612Y-112674933D01*
X174033183Y-112341600D02*
X173937945Y-112389219D01*
X173937945Y-112389219D02*
X173747469Y-112389219D01*
X173747469Y-112389219D02*
X173652231Y-112341600D01*
X173652231Y-112341600D02*
X173604612Y-112293980D01*
X173604612Y-112293980D02*
X173556993Y-112198742D01*
X173556993Y-112198742D02*
X173556993Y-111913028D01*
X173556993Y-111913028D02*
X173604612Y-111817790D01*
X173604612Y-111817790D02*
X173652231Y-111770171D01*
X173652231Y-111770171D02*
X173747469Y-111722552D01*
X173747469Y-111722552D02*
X173937945Y-111722552D01*
X173937945Y-111722552D02*
X174033183Y-111770171D01*
X174890326Y-112341600D02*
X174795088Y-112389219D01*
X174795088Y-112389219D02*
X174604612Y-112389219D01*
X174604612Y-112389219D02*
X174509374Y-112341600D01*
X174509374Y-112341600D02*
X174461755Y-112246361D01*
X174461755Y-112246361D02*
X174461755Y-111865409D01*
X174461755Y-111865409D02*
X174509374Y-111770171D01*
X174509374Y-111770171D02*
X174604612Y-111722552D01*
X174604612Y-111722552D02*
X174795088Y-111722552D01*
X174795088Y-111722552D02*
X174890326Y-111770171D01*
X174890326Y-111770171D02*
X174937945Y-111865409D01*
X174937945Y-111865409D02*
X174937945Y-111960647D01*
X174937945Y-111960647D02*
X174461755Y-112055885D01*
D11*
X99095160Y-82626200D02*
X99238017Y-82673819D01*
X99238017Y-82673819D02*
X99476112Y-82673819D01*
X99476112Y-82673819D02*
X99571350Y-82626200D01*
X99571350Y-82626200D02*
X99618969Y-82578580D01*
X99618969Y-82578580D02*
X99666588Y-82483342D01*
X99666588Y-82483342D02*
X99666588Y-82388104D01*
X99666588Y-82388104D02*
X99618969Y-82292866D01*
X99618969Y-82292866D02*
X99571350Y-82245247D01*
X99571350Y-82245247D02*
X99476112Y-82197628D01*
X99476112Y-82197628D02*
X99285636Y-82150009D01*
X99285636Y-82150009D02*
X99190398Y-82102390D01*
X99190398Y-82102390D02*
X99142779Y-82054771D01*
X99142779Y-82054771D02*
X99095160Y-81959533D01*
X99095160Y-81959533D02*
X99095160Y-81864295D01*
X99095160Y-81864295D02*
X99142779Y-81769057D01*
X99142779Y-81769057D02*
X99190398Y-81721438D01*
X99190398Y-81721438D02*
X99285636Y-81673819D01*
X99285636Y-81673819D02*
X99523731Y-81673819D01*
X99523731Y-81673819D02*
X99666588Y-81721438D01*
X100523731Y-82626200D02*
X100428493Y-82673819D01*
X100428493Y-82673819D02*
X100238017Y-82673819D01*
X100238017Y-82673819D02*
X100142779Y-82626200D01*
X100142779Y-82626200D02*
X100095160Y-82578580D01*
X100095160Y-82578580D02*
X100047541Y-82483342D01*
X100047541Y-82483342D02*
X100047541Y-82197628D01*
X100047541Y-82197628D02*
X100095160Y-82102390D01*
X100095160Y-82102390D02*
X100142779Y-82054771D01*
X100142779Y-82054771D02*
X100238017Y-82007152D01*
X100238017Y-82007152D02*
X100428493Y-82007152D01*
X100428493Y-82007152D02*
X100523731Y-82054771D01*
X101095160Y-82673819D02*
X100999922Y-82626200D01*
X100999922Y-82626200D02*
X100952303Y-82530961D01*
X100952303Y-82530961D02*
X100952303Y-81673819D01*
X99666588Y-77708238D02*
X99571350Y-77660619D01*
X99571350Y-77660619D02*
X99428493Y-77660619D01*
X99428493Y-77660619D02*
X99285636Y-77708238D01*
X99285636Y-77708238D02*
X99190398Y-77803476D01*
X99190398Y-77803476D02*
X99142779Y-77898714D01*
X99142779Y-77898714D02*
X99095160Y-78089190D01*
X99095160Y-78089190D02*
X99095160Y-78232047D01*
X99095160Y-78232047D02*
X99142779Y-78422523D01*
X99142779Y-78422523D02*
X99190398Y-78517761D01*
X99190398Y-78517761D02*
X99285636Y-78613000D01*
X99285636Y-78613000D02*
X99428493Y-78660619D01*
X99428493Y-78660619D02*
X99523731Y-78660619D01*
X99523731Y-78660619D02*
X99666588Y-78613000D01*
X99666588Y-78613000D02*
X99714207Y-78565380D01*
X99714207Y-78565380D02*
X99714207Y-78232047D01*
X99714207Y-78232047D02*
X99523731Y-78232047D01*
X100142779Y-78660619D02*
X100142779Y-77660619D01*
X100142779Y-77660619D02*
X100714207Y-78660619D01*
X100714207Y-78660619D02*
X100714207Y-77660619D01*
X101190398Y-78660619D02*
X101190398Y-77660619D01*
X101190398Y-77660619D02*
X101428493Y-77660619D01*
X101428493Y-77660619D02*
X101571350Y-77708238D01*
X101571350Y-77708238D02*
X101666588Y-77803476D01*
X101666588Y-77803476D02*
X101714207Y-77898714D01*
X101714207Y-77898714D02*
X101761826Y-78089190D01*
X101761826Y-78089190D02*
X101761826Y-78232047D01*
X101761826Y-78232047D02*
X101714207Y-78422523D01*
X101714207Y-78422523D02*
X101666588Y-78517761D01*
X101666588Y-78517761D02*
X101571350Y-78613000D01*
X101571350Y-78613000D02*
X101428493Y-78660619D01*
X101428493Y-78660619D02*
X101190398Y-78660619D01*
D13*
X105418600Y-57433367D02*
X105418600Y-58576225D01*
X104847171Y-58004796D02*
X105990028Y-58004796D01*
D10*
X170906230Y-104070838D02*
X170810992Y-104023219D01*
X170810992Y-104023219D02*
X170668135Y-104023219D01*
X170668135Y-104023219D02*
X170525278Y-104070838D01*
X170525278Y-104070838D02*
X170430040Y-104166076D01*
X170430040Y-104166076D02*
X170382421Y-104261314D01*
X170382421Y-104261314D02*
X170334802Y-104451790D01*
X170334802Y-104451790D02*
X170334802Y-104594647D01*
X170334802Y-104594647D02*
X170382421Y-104785123D01*
X170382421Y-104785123D02*
X170430040Y-104880361D01*
X170430040Y-104880361D02*
X170525278Y-104975600D01*
X170525278Y-104975600D02*
X170668135Y-105023219D01*
X170668135Y-105023219D02*
X170763373Y-105023219D01*
X170763373Y-105023219D02*
X170906230Y-104975600D01*
X170906230Y-104975600D02*
X170953849Y-104927980D01*
X170953849Y-104927980D02*
X170953849Y-104594647D01*
X170953849Y-104594647D02*
X170763373Y-104594647D01*
X171382421Y-105023219D02*
X171382421Y-104356552D01*
X171382421Y-104547028D02*
X171430040Y-104451790D01*
X171430040Y-104451790D02*
X171477659Y-104404171D01*
X171477659Y-104404171D02*
X171572897Y-104356552D01*
X171572897Y-104356552D02*
X171668135Y-104356552D01*
X172144326Y-105023219D02*
X172049088Y-104975600D01*
X172049088Y-104975600D02*
X172001469Y-104927980D01*
X172001469Y-104927980D02*
X171953850Y-104832742D01*
X171953850Y-104832742D02*
X171953850Y-104547028D01*
X171953850Y-104547028D02*
X172001469Y-104451790D01*
X172001469Y-104451790D02*
X172049088Y-104404171D01*
X172049088Y-104404171D02*
X172144326Y-104356552D01*
X172144326Y-104356552D02*
X172287183Y-104356552D01*
X172287183Y-104356552D02*
X172382421Y-104404171D01*
X172382421Y-104404171D02*
X172430040Y-104451790D01*
X172430040Y-104451790D02*
X172477659Y-104547028D01*
X172477659Y-104547028D02*
X172477659Y-104832742D01*
X172477659Y-104832742D02*
X172430040Y-104927980D01*
X172430040Y-104927980D02*
X172382421Y-104975600D01*
X172382421Y-104975600D02*
X172287183Y-105023219D01*
X172287183Y-105023219D02*
X172144326Y-105023219D01*
X173334802Y-104356552D02*
X173334802Y-105023219D01*
X172906231Y-104356552D02*
X172906231Y-104880361D01*
X172906231Y-104880361D02*
X172953850Y-104975600D01*
X172953850Y-104975600D02*
X173049088Y-105023219D01*
X173049088Y-105023219D02*
X173191945Y-105023219D01*
X173191945Y-105023219D02*
X173287183Y-104975600D01*
X173287183Y-104975600D02*
X173334802Y-104927980D01*
X173810993Y-104356552D02*
X173810993Y-105023219D01*
X173810993Y-104451790D02*
X173858612Y-104404171D01*
X173858612Y-104404171D02*
X173953850Y-104356552D01*
X173953850Y-104356552D02*
X174096707Y-104356552D01*
X174096707Y-104356552D02*
X174191945Y-104404171D01*
X174191945Y-104404171D02*
X174239564Y-104499409D01*
X174239564Y-104499409D02*
X174239564Y-105023219D01*
X175144326Y-105023219D02*
X175144326Y-104023219D01*
X175144326Y-104975600D02*
X175049088Y-105023219D01*
X175049088Y-105023219D02*
X174858612Y-105023219D01*
X174858612Y-105023219D02*
X174763374Y-104975600D01*
X174763374Y-104975600D02*
X174715755Y-104927980D01*
X174715755Y-104927980D02*
X174668136Y-104832742D01*
X174668136Y-104832742D02*
X174668136Y-104547028D01*
X174668136Y-104547028D02*
X174715755Y-104451790D01*
X174715755Y-104451790D02*
X174763374Y-104404171D01*
X174763374Y-104404171D02*
X174858612Y-104356552D01*
X174858612Y-104356552D02*
X175049088Y-104356552D01*
X175049088Y-104356552D02*
X175144326Y-104404171D01*
D13*
X117648510Y-58157400D02*
X118791368Y-58157400D01*
D10*
X170883006Y-97768409D02*
X171025863Y-97816028D01*
X171025863Y-97816028D02*
X171073482Y-97863647D01*
X171073482Y-97863647D02*
X171121101Y-97958885D01*
X171121101Y-97958885D02*
X171121101Y-98101742D01*
X171121101Y-98101742D02*
X171073482Y-98196980D01*
X171073482Y-98196980D02*
X171025863Y-98244600D01*
X171025863Y-98244600D02*
X170930625Y-98292219D01*
X170930625Y-98292219D02*
X170549673Y-98292219D01*
X170549673Y-98292219D02*
X170549673Y-97292219D01*
X170549673Y-97292219D02*
X170883006Y-97292219D01*
X170883006Y-97292219D02*
X170978244Y-97339838D01*
X170978244Y-97339838D02*
X171025863Y-97387457D01*
X171025863Y-97387457D02*
X171073482Y-97482695D01*
X171073482Y-97482695D02*
X171073482Y-97577933D01*
X171073482Y-97577933D02*
X171025863Y-97673171D01*
X171025863Y-97673171D02*
X170978244Y-97720790D01*
X170978244Y-97720790D02*
X170883006Y-97768409D01*
X170883006Y-97768409D02*
X170549673Y-97768409D01*
X171978244Y-98292219D02*
X171978244Y-97768409D01*
X171978244Y-97768409D02*
X171930625Y-97673171D01*
X171930625Y-97673171D02*
X171835387Y-97625552D01*
X171835387Y-97625552D02*
X171644911Y-97625552D01*
X171644911Y-97625552D02*
X171549673Y-97673171D01*
X171978244Y-98244600D02*
X171883006Y-98292219D01*
X171883006Y-98292219D02*
X171644911Y-98292219D01*
X171644911Y-98292219D02*
X171549673Y-98244600D01*
X171549673Y-98244600D02*
X171502054Y-98149361D01*
X171502054Y-98149361D02*
X171502054Y-98054123D01*
X171502054Y-98054123D02*
X171549673Y-97958885D01*
X171549673Y-97958885D02*
X171644911Y-97911266D01*
X171644911Y-97911266D02*
X171883006Y-97911266D01*
X171883006Y-97911266D02*
X171978244Y-97863647D01*
X172883006Y-98244600D02*
X172787768Y-98292219D01*
X172787768Y-98292219D02*
X172597292Y-98292219D01*
X172597292Y-98292219D02*
X172502054Y-98244600D01*
X172502054Y-98244600D02*
X172454435Y-98196980D01*
X172454435Y-98196980D02*
X172406816Y-98101742D01*
X172406816Y-98101742D02*
X172406816Y-97816028D01*
X172406816Y-97816028D02*
X172454435Y-97720790D01*
X172454435Y-97720790D02*
X172502054Y-97673171D01*
X172502054Y-97673171D02*
X172597292Y-97625552D01*
X172597292Y-97625552D02*
X172787768Y-97625552D01*
X172787768Y-97625552D02*
X172883006Y-97673171D01*
X173311578Y-98292219D02*
X173311578Y-97292219D01*
X173406816Y-97911266D02*
X173692530Y-98292219D01*
X173692530Y-97625552D02*
X173311578Y-98006504D01*
X174549673Y-97625552D02*
X174549673Y-98292219D01*
X174121102Y-97625552D02*
X174121102Y-98149361D01*
X174121102Y-98149361D02*
X174168721Y-98244600D01*
X174168721Y-98244600D02*
X174263959Y-98292219D01*
X174263959Y-98292219D02*
X174406816Y-98292219D01*
X174406816Y-98292219D02*
X174502054Y-98244600D01*
X174502054Y-98244600D02*
X174549673Y-98196980D01*
X175025864Y-97625552D02*
X175025864Y-98625552D01*
X175025864Y-97673171D02*
X175121102Y-97625552D01*
X175121102Y-97625552D02*
X175311578Y-97625552D01*
X175311578Y-97625552D02*
X175406816Y-97673171D01*
X175406816Y-97673171D02*
X175454435Y-97720790D01*
X175454435Y-97720790D02*
X175502054Y-97816028D01*
X175502054Y-97816028D02*
X175502054Y-98101742D01*
X175502054Y-98101742D02*
X175454435Y-98196980D01*
X175454435Y-98196980D02*
X175406816Y-98244600D01*
X175406816Y-98244600D02*
X175311578Y-98292219D01*
X175311578Y-98292219D02*
X175121102Y-98292219D01*
X175121102Y-98292219D02*
X175025864Y-98244600D01*
X176883007Y-97292219D02*
X177073483Y-97292219D01*
X177073483Y-97292219D02*
X177168721Y-97339838D01*
X177168721Y-97339838D02*
X177263959Y-97435076D01*
X177263959Y-97435076D02*
X177311578Y-97625552D01*
X177311578Y-97625552D02*
X177311578Y-97958885D01*
X177311578Y-97958885D02*
X177263959Y-98149361D01*
X177263959Y-98149361D02*
X177168721Y-98244600D01*
X177168721Y-98244600D02*
X177073483Y-98292219D01*
X177073483Y-98292219D02*
X176883007Y-98292219D01*
X176883007Y-98292219D02*
X176787769Y-98244600D01*
X176787769Y-98244600D02*
X176692531Y-98149361D01*
X176692531Y-98149361D02*
X176644912Y-97958885D01*
X176644912Y-97958885D02*
X176644912Y-97625552D01*
X176644912Y-97625552D02*
X176692531Y-97435076D01*
X176692531Y-97435076D02*
X176787769Y-97339838D01*
X176787769Y-97339838D02*
X176883007Y-97292219D01*
X177740150Y-98292219D02*
X177740150Y-97292219D01*
X177740150Y-97292219D02*
X178311578Y-98292219D01*
X178311578Y-98292219D02*
X178311578Y-97292219D01*
X114545863Y-25312742D02*
X115231578Y-25312742D01*
X114888720Y-26512742D02*
X114888720Y-25312742D01*
X115803006Y-26512742D02*
X115688721Y-26455600D01*
X115688721Y-26455600D02*
X115631578Y-26398457D01*
X115631578Y-26398457D02*
X115574435Y-26284171D01*
X115574435Y-26284171D02*
X115574435Y-25941314D01*
X115574435Y-25941314D02*
X115631578Y-25827028D01*
X115631578Y-25827028D02*
X115688721Y-25769885D01*
X115688721Y-25769885D02*
X115803006Y-25712742D01*
X115803006Y-25712742D02*
X115974435Y-25712742D01*
X115974435Y-25712742D02*
X116088721Y-25769885D01*
X116088721Y-25769885D02*
X116145864Y-25827028D01*
X116145864Y-25827028D02*
X116203006Y-25941314D01*
X116203006Y-25941314D02*
X116203006Y-26284171D01*
X116203006Y-26284171D02*
X116145864Y-26398457D01*
X116145864Y-26398457D02*
X116088721Y-26455600D01*
X116088721Y-26455600D02*
X115974435Y-26512742D01*
X115974435Y-26512742D02*
X115803006Y-26512742D01*
X117631578Y-26512742D02*
X117631578Y-25312742D01*
X117631578Y-25312742D02*
X118088721Y-25312742D01*
X118088721Y-25312742D02*
X118203006Y-25369885D01*
X118203006Y-25369885D02*
X118260149Y-25427028D01*
X118260149Y-25427028D02*
X118317292Y-25541314D01*
X118317292Y-25541314D02*
X118317292Y-25712742D01*
X118317292Y-25712742D02*
X118260149Y-25827028D01*
X118260149Y-25827028D02*
X118203006Y-25884171D01*
X118203006Y-25884171D02*
X118088721Y-25941314D01*
X118088721Y-25941314D02*
X117631578Y-25941314D01*
X118717292Y-25312742D02*
X119003006Y-26512742D01*
X119003006Y-26512742D02*
X119231578Y-25655600D01*
X119231578Y-25655600D02*
X119460149Y-26512742D01*
X119460149Y-26512742D02*
X119745864Y-25312742D01*
X120888721Y-26512742D02*
X120488721Y-25941314D01*
X120203007Y-26512742D02*
X120203007Y-25312742D01*
X120203007Y-25312742D02*
X120660150Y-25312742D01*
X120660150Y-25312742D02*
X120774435Y-25369885D01*
X120774435Y-25369885D02*
X120831578Y-25427028D01*
X120831578Y-25427028D02*
X120888721Y-25541314D01*
X120888721Y-25541314D02*
X120888721Y-25712742D01*
X120888721Y-25712742D02*
X120831578Y-25827028D01*
X120831578Y-25827028D02*
X120774435Y-25884171D01*
X120774435Y-25884171D02*
X120660150Y-25941314D01*
X120660150Y-25941314D02*
X120203007Y-25941314D01*
X122488721Y-26512742D02*
X122374436Y-26455600D01*
X122374436Y-26455600D02*
X122317293Y-26341314D01*
X122317293Y-26341314D02*
X122317293Y-25312742D01*
X123117292Y-26512742D02*
X123003007Y-26455600D01*
X123003007Y-26455600D02*
X122945864Y-26398457D01*
X122945864Y-26398457D02*
X122888721Y-26284171D01*
X122888721Y-26284171D02*
X122888721Y-25941314D01*
X122888721Y-25941314D02*
X122945864Y-25827028D01*
X122945864Y-25827028D02*
X123003007Y-25769885D01*
X123003007Y-25769885D02*
X123117292Y-25712742D01*
X123117292Y-25712742D02*
X123288721Y-25712742D01*
X123288721Y-25712742D02*
X123403007Y-25769885D01*
X123403007Y-25769885D02*
X123460150Y-25827028D01*
X123460150Y-25827028D02*
X123517292Y-25941314D01*
X123517292Y-25941314D02*
X123517292Y-26284171D01*
X123517292Y-26284171D02*
X123460150Y-26398457D01*
X123460150Y-26398457D02*
X123403007Y-26455600D01*
X123403007Y-26455600D02*
X123288721Y-26512742D01*
X123288721Y-26512742D02*
X123117292Y-26512742D01*
X124545864Y-26512742D02*
X124545864Y-25884171D01*
X124545864Y-25884171D02*
X124488721Y-25769885D01*
X124488721Y-25769885D02*
X124374435Y-25712742D01*
X124374435Y-25712742D02*
X124145864Y-25712742D01*
X124145864Y-25712742D02*
X124031578Y-25769885D01*
X124545864Y-26455600D02*
X124431578Y-26512742D01*
X124431578Y-26512742D02*
X124145864Y-26512742D01*
X124145864Y-26512742D02*
X124031578Y-26455600D01*
X124031578Y-26455600D02*
X123974435Y-26341314D01*
X123974435Y-26341314D02*
X123974435Y-26227028D01*
X123974435Y-26227028D02*
X124031578Y-26112742D01*
X124031578Y-26112742D02*
X124145864Y-26055600D01*
X124145864Y-26055600D02*
X124431578Y-26055600D01*
X124431578Y-26055600D02*
X124545864Y-25998457D01*
X125631578Y-26512742D02*
X125631578Y-25312742D01*
X125631578Y-26455600D02*
X125517292Y-26512742D01*
X125517292Y-26512742D02*
X125288720Y-26512742D01*
X125288720Y-26512742D02*
X125174435Y-26455600D01*
X125174435Y-26455600D02*
X125117292Y-26398457D01*
X125117292Y-26398457D02*
X125060149Y-26284171D01*
X125060149Y-26284171D02*
X125060149Y-25941314D01*
X125060149Y-25941314D02*
X125117292Y-25827028D01*
X125117292Y-25827028D02*
X125174435Y-25769885D01*
X125174435Y-25769885D02*
X125288720Y-25712742D01*
X125288720Y-25712742D02*
X125517292Y-25712742D01*
X125517292Y-25712742D02*
X125631578Y-25769885D01*
D13*
X101670225Y-135852019D02*
X101955939Y-135947257D01*
X101955939Y-135947257D02*
X102051177Y-136042495D01*
X102051177Y-136042495D02*
X102146415Y-136232971D01*
X102146415Y-136232971D02*
X102146415Y-136518685D01*
X102146415Y-136518685D02*
X102051177Y-136709161D01*
X102051177Y-136709161D02*
X101955939Y-136804400D01*
X101955939Y-136804400D02*
X101765463Y-136899638D01*
X101765463Y-136899638D02*
X101003558Y-136899638D01*
X101003558Y-136899638D02*
X101003558Y-134899638D01*
X101003558Y-134899638D02*
X101670225Y-134899638D01*
X101670225Y-134899638D02*
X101860701Y-134994876D01*
X101860701Y-134994876D02*
X101955939Y-135090114D01*
X101955939Y-135090114D02*
X102051177Y-135280590D01*
X102051177Y-135280590D02*
X102051177Y-135471066D01*
X102051177Y-135471066D02*
X101955939Y-135661542D01*
X101955939Y-135661542D02*
X101860701Y-135756780D01*
X101860701Y-135756780D02*
X101670225Y-135852019D01*
X101670225Y-135852019D02*
X101003558Y-135852019D01*
X103860701Y-136899638D02*
X103860701Y-135852019D01*
X103860701Y-135852019D02*
X103765463Y-135661542D01*
X103765463Y-135661542D02*
X103574987Y-135566304D01*
X103574987Y-135566304D02*
X103194034Y-135566304D01*
X103194034Y-135566304D02*
X103003558Y-135661542D01*
X103860701Y-136804400D02*
X103670225Y-136899638D01*
X103670225Y-136899638D02*
X103194034Y-136899638D01*
X103194034Y-136899638D02*
X103003558Y-136804400D01*
X103003558Y-136804400D02*
X102908320Y-136613923D01*
X102908320Y-136613923D02*
X102908320Y-136423447D01*
X102908320Y-136423447D02*
X103003558Y-136232971D01*
X103003558Y-136232971D02*
X103194034Y-136137733D01*
X103194034Y-136137733D02*
X103670225Y-136137733D01*
X103670225Y-136137733D02*
X103860701Y-136042495D01*
X105670225Y-136804400D02*
X105479749Y-136899638D01*
X105479749Y-136899638D02*
X105098796Y-136899638D01*
X105098796Y-136899638D02*
X104908320Y-136804400D01*
X104908320Y-136804400D02*
X104813082Y-136709161D01*
X104813082Y-136709161D02*
X104717844Y-136518685D01*
X104717844Y-136518685D02*
X104717844Y-135947257D01*
X104717844Y-135947257D02*
X104813082Y-135756780D01*
X104813082Y-135756780D02*
X104908320Y-135661542D01*
X104908320Y-135661542D02*
X105098796Y-135566304D01*
X105098796Y-135566304D02*
X105479749Y-135566304D01*
X105479749Y-135566304D02*
X105670225Y-135661542D01*
X106527368Y-136899638D02*
X106527368Y-134899638D01*
X106717844Y-136137733D02*
X107289273Y-136899638D01*
X107289273Y-135566304D02*
X106527368Y-136328209D01*
X109003559Y-135566304D02*
X109003559Y-136899638D01*
X108146416Y-135566304D02*
X108146416Y-136613923D01*
X108146416Y-136613923D02*
X108241654Y-136804400D01*
X108241654Y-136804400D02*
X108432130Y-136899638D01*
X108432130Y-136899638D02*
X108717845Y-136899638D01*
X108717845Y-136899638D02*
X108908321Y-136804400D01*
X108908321Y-136804400D02*
X109003559Y-136709161D01*
X109955940Y-135566304D02*
X109955940Y-137566304D01*
X109955940Y-135661542D02*
X110146416Y-135566304D01*
X110146416Y-135566304D02*
X110527369Y-135566304D01*
X110527369Y-135566304D02*
X110717845Y-135661542D01*
X110717845Y-135661542D02*
X110813083Y-135756780D01*
X110813083Y-135756780D02*
X110908321Y-135947257D01*
X110908321Y-135947257D02*
X110908321Y-136518685D01*
X110908321Y-136518685D02*
X110813083Y-136709161D01*
X110813083Y-136709161D02*
X110717845Y-136804400D01*
X110717845Y-136804400D02*
X110527369Y-136899638D01*
X110527369Y-136899638D02*
X110146416Y-136899638D01*
X110146416Y-136899638D02*
X109955940Y-136804400D01*
X113289274Y-135566304D02*
X113289274Y-137566304D01*
X113289274Y-135661542D02*
X113479750Y-135566304D01*
X113479750Y-135566304D02*
X113860703Y-135566304D01*
X113860703Y-135566304D02*
X114051179Y-135661542D01*
X114051179Y-135661542D02*
X114146417Y-135756780D01*
X114146417Y-135756780D02*
X114241655Y-135947257D01*
X114241655Y-135947257D02*
X114241655Y-136518685D01*
X114241655Y-136518685D02*
X114146417Y-136709161D01*
X114146417Y-136709161D02*
X114051179Y-136804400D01*
X114051179Y-136804400D02*
X113860703Y-136899638D01*
X113860703Y-136899638D02*
X113479750Y-136899638D01*
X113479750Y-136899638D02*
X113289274Y-136804400D01*
X115384512Y-136899638D02*
X115194036Y-136804400D01*
X115194036Y-136804400D02*
X115098798Y-136709161D01*
X115098798Y-136709161D02*
X115003560Y-136518685D01*
X115003560Y-136518685D02*
X115003560Y-135947257D01*
X115003560Y-135947257D02*
X115098798Y-135756780D01*
X115098798Y-135756780D02*
X115194036Y-135661542D01*
X115194036Y-135661542D02*
X115384512Y-135566304D01*
X115384512Y-135566304D02*
X115670227Y-135566304D01*
X115670227Y-135566304D02*
X115860703Y-135661542D01*
X115860703Y-135661542D02*
X115955941Y-135756780D01*
X115955941Y-135756780D02*
X116051179Y-135947257D01*
X116051179Y-135947257D02*
X116051179Y-136518685D01*
X116051179Y-136518685D02*
X115955941Y-136709161D01*
X115955941Y-136709161D02*
X115860703Y-136804400D01*
X115860703Y-136804400D02*
X115670227Y-136899638D01*
X115670227Y-136899638D02*
X115384512Y-136899638D01*
X116717846Y-135566304D02*
X117098798Y-136899638D01*
X117098798Y-136899638D02*
X117479751Y-135947257D01*
X117479751Y-135947257D02*
X117860703Y-136899638D01*
X117860703Y-136899638D02*
X118241655Y-135566304D01*
X119765465Y-136804400D02*
X119574989Y-136899638D01*
X119574989Y-136899638D02*
X119194036Y-136899638D01*
X119194036Y-136899638D02*
X119003560Y-136804400D01*
X119003560Y-136804400D02*
X118908322Y-136613923D01*
X118908322Y-136613923D02*
X118908322Y-135852019D01*
X118908322Y-135852019D02*
X119003560Y-135661542D01*
X119003560Y-135661542D02*
X119194036Y-135566304D01*
X119194036Y-135566304D02*
X119574989Y-135566304D01*
X119574989Y-135566304D02*
X119765465Y-135661542D01*
X119765465Y-135661542D02*
X119860703Y-135852019D01*
X119860703Y-135852019D02*
X119860703Y-136042495D01*
X119860703Y-136042495D02*
X118908322Y-136232971D01*
X120717846Y-136899638D02*
X120717846Y-135566304D01*
X120717846Y-135947257D02*
X120813084Y-135756780D01*
X120813084Y-135756780D02*
X120908322Y-135661542D01*
X120908322Y-135661542D02*
X121098798Y-135566304D01*
X121098798Y-135566304D02*
X121289275Y-135566304D01*
X123384513Y-136804400D02*
X123574989Y-136899638D01*
X123574989Y-136899638D02*
X123955941Y-136899638D01*
X123955941Y-136899638D02*
X124146418Y-136804400D01*
X124146418Y-136804400D02*
X124241656Y-136613923D01*
X124241656Y-136613923D02*
X124241656Y-136518685D01*
X124241656Y-136518685D02*
X124146418Y-136328209D01*
X124146418Y-136328209D02*
X123955941Y-136232971D01*
X123955941Y-136232971D02*
X123670227Y-136232971D01*
X123670227Y-136232971D02*
X123479751Y-136137733D01*
X123479751Y-136137733D02*
X123384513Y-135947257D01*
X123384513Y-135947257D02*
X123384513Y-135852019D01*
X123384513Y-135852019D02*
X123479751Y-135661542D01*
X123479751Y-135661542D02*
X123670227Y-135566304D01*
X123670227Y-135566304D02*
X123955941Y-135566304D01*
X123955941Y-135566304D02*
X124146418Y-135661542D01*
X124908323Y-135566304D02*
X125289275Y-136899638D01*
X125289275Y-136899638D02*
X125670228Y-135947257D01*
X125670228Y-135947257D02*
X126051180Y-136899638D01*
X126051180Y-136899638D02*
X126432132Y-135566304D01*
X127194037Y-136899638D02*
X127194037Y-135566304D01*
X127194037Y-134899638D02*
X127098799Y-134994876D01*
X127098799Y-134994876D02*
X127194037Y-135090114D01*
X127194037Y-135090114D02*
X127289275Y-134994876D01*
X127289275Y-134994876D02*
X127194037Y-134899638D01*
X127194037Y-134899638D02*
X127194037Y-135090114D01*
X127860704Y-135566304D02*
X128622608Y-135566304D01*
X128146418Y-134899638D02*
X128146418Y-136613923D01*
X128146418Y-136613923D02*
X128241656Y-136804400D01*
X128241656Y-136804400D02*
X128432132Y-136899638D01*
X128432132Y-136899638D02*
X128622608Y-136899638D01*
X130146418Y-136804400D02*
X129955942Y-136899638D01*
X129955942Y-136899638D02*
X129574989Y-136899638D01*
X129574989Y-136899638D02*
X129384513Y-136804400D01*
X129384513Y-136804400D02*
X129289275Y-136709161D01*
X129289275Y-136709161D02*
X129194037Y-136518685D01*
X129194037Y-136518685D02*
X129194037Y-135947257D01*
X129194037Y-135947257D02*
X129289275Y-135756780D01*
X129289275Y-135756780D02*
X129384513Y-135661542D01*
X129384513Y-135661542D02*
X129574989Y-135566304D01*
X129574989Y-135566304D02*
X129955942Y-135566304D01*
X129955942Y-135566304D02*
X130146418Y-135661542D01*
X131003561Y-136899638D02*
X131003561Y-134899638D01*
X131860704Y-136899638D02*
X131860704Y-135852019D01*
X131860704Y-135852019D02*
X131765466Y-135661542D01*
X131765466Y-135661542D02*
X131574990Y-135566304D01*
X131574990Y-135566304D02*
X131289275Y-135566304D01*
X131289275Y-135566304D02*
X131098799Y-135661542D01*
X131098799Y-135661542D02*
X131003561Y-135756780D01*
X134336895Y-136899638D02*
X134336895Y-134899638D01*
X134336895Y-135661542D02*
X134527371Y-135566304D01*
X134527371Y-135566304D02*
X134908324Y-135566304D01*
X134908324Y-135566304D02*
X135098800Y-135661542D01*
X135098800Y-135661542D02*
X135194038Y-135756780D01*
X135194038Y-135756780D02*
X135289276Y-135947257D01*
X135289276Y-135947257D02*
X135289276Y-136518685D01*
X135289276Y-136518685D02*
X135194038Y-136709161D01*
X135194038Y-136709161D02*
X135098800Y-136804400D01*
X135098800Y-136804400D02*
X134908324Y-136899638D01*
X134908324Y-136899638D02*
X134527371Y-136899638D01*
X134527371Y-136899638D02*
X134336895Y-136804400D01*
X136432133Y-136899638D02*
X136241657Y-136804400D01*
X136241657Y-136804400D02*
X136146419Y-136709161D01*
X136146419Y-136709161D02*
X136051181Y-136518685D01*
X136051181Y-136518685D02*
X136051181Y-135947257D01*
X136051181Y-135947257D02*
X136146419Y-135756780D01*
X136146419Y-135756780D02*
X136241657Y-135661542D01*
X136241657Y-135661542D02*
X136432133Y-135566304D01*
X136432133Y-135566304D02*
X136717848Y-135566304D01*
X136717848Y-135566304D02*
X136908324Y-135661542D01*
X136908324Y-135661542D02*
X137003562Y-135756780D01*
X137003562Y-135756780D02*
X137098800Y-135947257D01*
X137098800Y-135947257D02*
X137098800Y-136518685D01*
X137098800Y-136518685D02*
X137003562Y-136709161D01*
X137003562Y-136709161D02*
X136908324Y-136804400D01*
X136908324Y-136804400D02*
X136717848Y-136899638D01*
X136717848Y-136899638D02*
X136432133Y-136899638D01*
X138813086Y-136899638D02*
X138813086Y-135852019D01*
X138813086Y-135852019D02*
X138717848Y-135661542D01*
X138717848Y-135661542D02*
X138527372Y-135566304D01*
X138527372Y-135566304D02*
X138146419Y-135566304D01*
X138146419Y-135566304D02*
X137955943Y-135661542D01*
X138813086Y-136804400D02*
X138622610Y-136899638D01*
X138622610Y-136899638D02*
X138146419Y-136899638D01*
X138146419Y-136899638D02*
X137955943Y-136804400D01*
X137955943Y-136804400D02*
X137860705Y-136613923D01*
X137860705Y-136613923D02*
X137860705Y-136423447D01*
X137860705Y-136423447D02*
X137955943Y-136232971D01*
X137955943Y-136232971D02*
X138146419Y-136137733D01*
X138146419Y-136137733D02*
X138622610Y-136137733D01*
X138622610Y-136137733D02*
X138813086Y-136042495D01*
X139765467Y-136899638D02*
X139765467Y-135566304D01*
X139765467Y-135947257D02*
X139860705Y-135756780D01*
X139860705Y-135756780D02*
X139955943Y-135661542D01*
X139955943Y-135661542D02*
X140146419Y-135566304D01*
X140146419Y-135566304D02*
X140336896Y-135566304D01*
X141860705Y-136899638D02*
X141860705Y-134899638D01*
X141860705Y-136804400D02*
X141670229Y-136899638D01*
X141670229Y-136899638D02*
X141289276Y-136899638D01*
X141289276Y-136899638D02*
X141098800Y-136804400D01*
X141098800Y-136804400D02*
X141003562Y-136709161D01*
X141003562Y-136709161D02*
X140908324Y-136518685D01*
X140908324Y-136518685D02*
X140908324Y-135947257D01*
X140908324Y-135947257D02*
X141003562Y-135756780D01*
X141003562Y-135756780D02*
X141098800Y-135661542D01*
X141098800Y-135661542D02*
X141289276Y-135566304D01*
X141289276Y-135566304D02*
X141670229Y-135566304D01*
X141670229Y-135566304D02*
X141860705Y-135661542D01*
D10*
X90492054Y-68161504D02*
X90968244Y-68161504D01*
X90396816Y-68447219D02*
X90730149Y-67447219D01*
X90730149Y-67447219D02*
X91063482Y-68447219D01*
X91396816Y-68447219D02*
X91396816Y-67447219D01*
X91396816Y-67828171D02*
X91492054Y-67780552D01*
X91492054Y-67780552D02*
X91682530Y-67780552D01*
X91682530Y-67780552D02*
X91777768Y-67828171D01*
X91777768Y-67828171D02*
X91825387Y-67875790D01*
X91825387Y-67875790D02*
X91873006Y-67971028D01*
X91873006Y-67971028D02*
X91873006Y-68256742D01*
X91873006Y-68256742D02*
X91825387Y-68351980D01*
X91825387Y-68351980D02*
X91777768Y-68399600D01*
X91777768Y-68399600D02*
X91682530Y-68447219D01*
X91682530Y-68447219D02*
X91492054Y-68447219D01*
X91492054Y-68447219D02*
X91396816Y-68399600D01*
X92682530Y-68399600D02*
X92587292Y-68447219D01*
X92587292Y-68447219D02*
X92396816Y-68447219D01*
X92396816Y-68447219D02*
X92301578Y-68399600D01*
X92301578Y-68399600D02*
X92253959Y-68304361D01*
X92253959Y-68304361D02*
X92253959Y-67923409D01*
X92253959Y-67923409D02*
X92301578Y-67828171D01*
X92301578Y-67828171D02*
X92396816Y-67780552D01*
X92396816Y-67780552D02*
X92587292Y-67780552D01*
X92587292Y-67780552D02*
X92682530Y-67828171D01*
X92682530Y-67828171D02*
X92730149Y-67923409D01*
X92730149Y-67923409D02*
X92730149Y-68018647D01*
X92730149Y-68018647D02*
X92253959Y-68113885D01*
X93301578Y-68447219D02*
X93206340Y-68399600D01*
X93206340Y-68399600D02*
X93158721Y-68304361D01*
X93158721Y-68304361D02*
X93158721Y-67447219D01*
X94634912Y-67447219D02*
X94730150Y-67447219D01*
X94730150Y-67447219D02*
X94825388Y-67494838D01*
X94825388Y-67494838D02*
X94873007Y-67542457D01*
X94873007Y-67542457D02*
X94920626Y-67637695D01*
X94920626Y-67637695D02*
X94968245Y-67828171D01*
X94968245Y-67828171D02*
X94968245Y-68066266D01*
X94968245Y-68066266D02*
X94920626Y-68256742D01*
X94920626Y-68256742D02*
X94873007Y-68351980D01*
X94873007Y-68351980D02*
X94825388Y-68399600D01*
X94825388Y-68399600D02*
X94730150Y-68447219D01*
X94730150Y-68447219D02*
X94634912Y-68447219D01*
X94634912Y-68447219D02*
X94539674Y-68399600D01*
X94539674Y-68399600D02*
X94492055Y-68351980D01*
X94492055Y-68351980D02*
X94444436Y-68256742D01*
X94444436Y-68256742D02*
X94396817Y-68066266D01*
X94396817Y-68066266D02*
X94396817Y-67828171D01*
X94396817Y-67828171D02*
X94444436Y-67637695D01*
X94444436Y-67637695D02*
X94492055Y-67542457D01*
X94492055Y-67542457D02*
X94539674Y-67494838D01*
X94539674Y-67494838D02*
X94634912Y-67447219D01*
X95920626Y-68447219D02*
X95349198Y-68447219D01*
X95634912Y-68447219D02*
X95634912Y-67447219D01*
X95634912Y-67447219D02*
X95539674Y-67590076D01*
X95539674Y-67590076D02*
X95444436Y-67685314D01*
X95444436Y-67685314D02*
X95349198Y-67732933D01*
X97063483Y-67399600D02*
X96206341Y-68685314D01*
X97349198Y-67542457D02*
X97396817Y-67494838D01*
X97396817Y-67494838D02*
X97492055Y-67447219D01*
X97492055Y-67447219D02*
X97730150Y-67447219D01*
X97730150Y-67447219D02*
X97825388Y-67494838D01*
X97825388Y-67494838D02*
X97873007Y-67542457D01*
X97873007Y-67542457D02*
X97920626Y-67637695D01*
X97920626Y-67637695D02*
X97920626Y-67732933D01*
X97920626Y-67732933D02*
X97873007Y-67875790D01*
X97873007Y-67875790D02*
X97301579Y-68447219D01*
X97301579Y-68447219D02*
X97920626Y-68447219D01*
X98539674Y-67447219D02*
X98634912Y-67447219D01*
X98634912Y-67447219D02*
X98730150Y-67494838D01*
X98730150Y-67494838D02*
X98777769Y-67542457D01*
X98777769Y-67542457D02*
X98825388Y-67637695D01*
X98825388Y-67637695D02*
X98873007Y-67828171D01*
X98873007Y-67828171D02*
X98873007Y-68066266D01*
X98873007Y-68066266D02*
X98825388Y-68256742D01*
X98825388Y-68256742D02*
X98777769Y-68351980D01*
X98777769Y-68351980D02*
X98730150Y-68399600D01*
X98730150Y-68399600D02*
X98634912Y-68447219D01*
X98634912Y-68447219D02*
X98539674Y-68447219D01*
X98539674Y-68447219D02*
X98444436Y-68399600D01*
X98444436Y-68399600D02*
X98396817Y-68351980D01*
X98396817Y-68351980D02*
X98349198Y-68256742D01*
X98349198Y-68256742D02*
X98301579Y-68066266D01*
X98301579Y-68066266D02*
X98301579Y-67828171D01*
X98301579Y-67828171D02*
X98349198Y-67637695D01*
X98349198Y-67637695D02*
X98396817Y-67542457D01*
X98396817Y-67542457D02*
X98444436Y-67494838D01*
X98444436Y-67494838D02*
X98539674Y-67447219D01*
X99253960Y-67542457D02*
X99301579Y-67494838D01*
X99301579Y-67494838D02*
X99396817Y-67447219D01*
X99396817Y-67447219D02*
X99634912Y-67447219D01*
X99634912Y-67447219D02*
X99730150Y-67494838D01*
X99730150Y-67494838D02*
X99777769Y-67542457D01*
X99777769Y-67542457D02*
X99825388Y-67637695D01*
X99825388Y-67637695D02*
X99825388Y-67732933D01*
X99825388Y-67732933D02*
X99777769Y-67875790D01*
X99777769Y-67875790D02*
X99206341Y-68447219D01*
X99206341Y-68447219D02*
X99825388Y-68447219D01*
X100682531Y-67447219D02*
X100492055Y-67447219D01*
X100492055Y-67447219D02*
X100396817Y-67494838D01*
X100396817Y-67494838D02*
X100349198Y-67542457D01*
X100349198Y-67542457D02*
X100253960Y-67685314D01*
X100253960Y-67685314D02*
X100206341Y-67875790D01*
X100206341Y-67875790D02*
X100206341Y-68256742D01*
X100206341Y-68256742D02*
X100253960Y-68351980D01*
X100253960Y-68351980D02*
X100301579Y-68399600D01*
X100301579Y-68399600D02*
X100396817Y-68447219D01*
X100396817Y-68447219D02*
X100587293Y-68447219D01*
X100587293Y-68447219D02*
X100682531Y-68399600D01*
X100682531Y-68399600D02*
X100730150Y-68351980D01*
X100730150Y-68351980D02*
X100777769Y-68256742D01*
X100777769Y-68256742D02*
X100777769Y-68018647D01*
X100777769Y-68018647D02*
X100730150Y-67923409D01*
X100730150Y-67923409D02*
X100682531Y-67875790D01*
X100682531Y-67875790D02*
X100587293Y-67828171D01*
X100587293Y-67828171D02*
X100396817Y-67828171D01*
X100396817Y-67828171D02*
X100301579Y-67875790D01*
X100301579Y-67875790D02*
X100253960Y-67923409D01*
X100253960Y-67923409D02*
X100206341Y-68018647D01*
D11*
X99714207Y-86591780D02*
X99666588Y-86639400D01*
X99666588Y-86639400D02*
X99523731Y-86687019D01*
X99523731Y-86687019D02*
X99428493Y-86687019D01*
X99428493Y-86687019D02*
X99285636Y-86639400D01*
X99285636Y-86639400D02*
X99190398Y-86544161D01*
X99190398Y-86544161D02*
X99142779Y-86448923D01*
X99142779Y-86448923D02*
X99095160Y-86258447D01*
X99095160Y-86258447D02*
X99095160Y-86115590D01*
X99095160Y-86115590D02*
X99142779Y-85925114D01*
X99142779Y-85925114D02*
X99190398Y-85829876D01*
X99190398Y-85829876D02*
X99285636Y-85734638D01*
X99285636Y-85734638D02*
X99428493Y-85687019D01*
X99428493Y-85687019D02*
X99523731Y-85687019D01*
X99523731Y-85687019D02*
X99666588Y-85734638D01*
X99666588Y-85734638D02*
X99714207Y-85782257D01*
X100142779Y-86687019D02*
X100142779Y-85687019D01*
X100142779Y-86163209D02*
X100714207Y-86163209D01*
X100714207Y-86687019D02*
X100714207Y-85687019D01*
X101761826Y-86687019D02*
X101428493Y-86210828D01*
X101190398Y-86687019D02*
X101190398Y-85687019D01*
X101190398Y-85687019D02*
X101571350Y-85687019D01*
X101571350Y-85687019D02*
X101666588Y-85734638D01*
X101666588Y-85734638D02*
X101714207Y-85782257D01*
X101714207Y-85782257D02*
X101761826Y-85877495D01*
X101761826Y-85877495D02*
X101761826Y-86020352D01*
X101761826Y-86020352D02*
X101714207Y-86115590D01*
X101714207Y-86115590D02*
X101666588Y-86163209D01*
X101666588Y-86163209D02*
X101571350Y-86210828D01*
X101571350Y-86210828D02*
X101190398Y-86210828D01*
X102714207Y-85734638D02*
X102618969Y-85687019D01*
X102618969Y-85687019D02*
X102476112Y-85687019D01*
X102476112Y-85687019D02*
X102333255Y-85734638D01*
X102333255Y-85734638D02*
X102238017Y-85829876D01*
X102238017Y-85829876D02*
X102190398Y-85925114D01*
X102190398Y-85925114D02*
X102142779Y-86115590D01*
X102142779Y-86115590D02*
X102142779Y-86258447D01*
X102142779Y-86258447D02*
X102190398Y-86448923D01*
X102190398Y-86448923D02*
X102238017Y-86544161D01*
X102238017Y-86544161D02*
X102333255Y-86639400D01*
X102333255Y-86639400D02*
X102476112Y-86687019D01*
X102476112Y-86687019D02*
X102571350Y-86687019D01*
X102571350Y-86687019D02*
X102714207Y-86639400D01*
X102714207Y-86639400D02*
X102761826Y-86591780D01*
X102761826Y-86591780D02*
X102761826Y-86258447D01*
X102761826Y-86258447D02*
X102571350Y-86258447D01*
D13*
X166107400Y-58627489D02*
X166107400Y-57484632D01*
X166678828Y-58056060D02*
X165535971Y-58056060D01*
D10*
X143117673Y-111119219D02*
X143117673Y-110119219D01*
X143117673Y-110119219D02*
X143355768Y-110119219D01*
X143355768Y-110119219D02*
X143498625Y-110166838D01*
X143498625Y-110166838D02*
X143593863Y-110262076D01*
X143593863Y-110262076D02*
X143641482Y-110357314D01*
X143641482Y-110357314D02*
X143689101Y-110547790D01*
X143689101Y-110547790D02*
X143689101Y-110690647D01*
X143689101Y-110690647D02*
X143641482Y-110881123D01*
X143641482Y-110881123D02*
X143593863Y-110976361D01*
X143593863Y-110976361D02*
X143498625Y-111071600D01*
X143498625Y-111071600D02*
X143355768Y-111119219D01*
X143355768Y-111119219D02*
X143117673Y-111119219D01*
X144308149Y-110119219D02*
X144498625Y-110119219D01*
X144498625Y-110119219D02*
X144593863Y-110166838D01*
X144593863Y-110166838D02*
X144689101Y-110262076D01*
X144689101Y-110262076D02*
X144736720Y-110452552D01*
X144736720Y-110452552D02*
X144736720Y-110785885D01*
X144736720Y-110785885D02*
X144689101Y-110976361D01*
X144689101Y-110976361D02*
X144593863Y-111071600D01*
X144593863Y-111071600D02*
X144498625Y-111119219D01*
X144498625Y-111119219D02*
X144308149Y-111119219D01*
X144308149Y-111119219D02*
X144212911Y-111071600D01*
X144212911Y-111071600D02*
X144117673Y-110976361D01*
X144117673Y-110976361D02*
X144070054Y-110785885D01*
X144070054Y-110785885D02*
X144070054Y-110452552D01*
X144070054Y-110452552D02*
X144117673Y-110262076D01*
X144117673Y-110262076D02*
X144212911Y-110166838D01*
X144212911Y-110166838D02*
X144308149Y-110119219D01*
X145165292Y-111119219D02*
X145165292Y-110119219D01*
X145165292Y-110119219D02*
X145736720Y-111119219D01*
X145736720Y-111119219D02*
X145736720Y-110119219D01*
X146212911Y-110595409D02*
X146546244Y-110595409D01*
X146689101Y-111119219D02*
X146212911Y-111119219D01*
X146212911Y-111119219D02*
X146212911Y-110119219D01*
X146212911Y-110119219D02*
X146689101Y-110119219D01*
X143689101Y-103149980D02*
X143641482Y-103197600D01*
X143641482Y-103197600D02*
X143498625Y-103245219D01*
X143498625Y-103245219D02*
X143403387Y-103245219D01*
X143403387Y-103245219D02*
X143260530Y-103197600D01*
X143260530Y-103197600D02*
X143165292Y-103102361D01*
X143165292Y-103102361D02*
X143117673Y-103007123D01*
X143117673Y-103007123D02*
X143070054Y-102816647D01*
X143070054Y-102816647D02*
X143070054Y-102673790D01*
X143070054Y-102673790D02*
X143117673Y-102483314D01*
X143117673Y-102483314D02*
X143165292Y-102388076D01*
X143165292Y-102388076D02*
X143260530Y-102292838D01*
X143260530Y-102292838D02*
X143403387Y-102245219D01*
X143403387Y-102245219D02*
X143498625Y-102245219D01*
X143498625Y-102245219D02*
X143641482Y-102292838D01*
X143641482Y-102292838D02*
X143689101Y-102340457D01*
X144117673Y-103245219D02*
X144117673Y-102245219D01*
X144117673Y-102721409D02*
X144689101Y-102721409D01*
X144689101Y-103245219D02*
X144689101Y-102245219D01*
X145736720Y-103245219D02*
X145403387Y-102769028D01*
X145165292Y-103245219D02*
X145165292Y-102245219D01*
X145165292Y-102245219D02*
X145546244Y-102245219D01*
X145546244Y-102245219D02*
X145641482Y-102292838D01*
X145641482Y-102292838D02*
X145689101Y-102340457D01*
X145689101Y-102340457D02*
X145736720Y-102435695D01*
X145736720Y-102435695D02*
X145736720Y-102578552D01*
X145736720Y-102578552D02*
X145689101Y-102673790D01*
X145689101Y-102673790D02*
X145641482Y-102721409D01*
X145641482Y-102721409D02*
X145546244Y-102769028D01*
X145546244Y-102769028D02*
X145165292Y-102769028D01*
X146689101Y-102292838D02*
X146593863Y-102245219D01*
X146593863Y-102245219D02*
X146451006Y-102245219D01*
X146451006Y-102245219D02*
X146308149Y-102292838D01*
X146308149Y-102292838D02*
X146212911Y-102388076D01*
X146212911Y-102388076D02*
X146165292Y-102483314D01*
X146165292Y-102483314D02*
X146117673Y-102673790D01*
X146117673Y-102673790D02*
X146117673Y-102816647D01*
X146117673Y-102816647D02*
X146165292Y-103007123D01*
X146165292Y-103007123D02*
X146212911Y-103102361D01*
X146212911Y-103102361D02*
X146308149Y-103197600D01*
X146308149Y-103197600D02*
X146451006Y-103245219D01*
X146451006Y-103245219D02*
X146546244Y-103245219D01*
X146546244Y-103245219D02*
X146689101Y-103197600D01*
X146689101Y-103197600D02*
X146736720Y-103149980D01*
X146736720Y-103149980D02*
X146736720Y-102816647D01*
X146736720Y-102816647D02*
X146546244Y-102816647D01*
D12*
X182485312Y-87661180D02*
X182437693Y-87708800D01*
X182437693Y-87708800D02*
X182294836Y-87756419D01*
X182294836Y-87756419D02*
X182199598Y-87756419D01*
X182199598Y-87756419D02*
X182056741Y-87708800D01*
X182056741Y-87708800D02*
X181961503Y-87613561D01*
X181961503Y-87613561D02*
X181913884Y-87518323D01*
X181913884Y-87518323D02*
X181866265Y-87327847D01*
X181866265Y-87327847D02*
X181866265Y-87184990D01*
X181866265Y-87184990D02*
X181913884Y-86994514D01*
X181913884Y-86994514D02*
X181961503Y-86899276D01*
X181961503Y-86899276D02*
X182056741Y-86804038D01*
X182056741Y-86804038D02*
X182199598Y-86756419D01*
X182199598Y-86756419D02*
X182294836Y-86756419D01*
X182294836Y-86756419D02*
X182437693Y-86804038D01*
X182437693Y-86804038D02*
X182485312Y-86851657D01*
D13*
X137714510Y-58157400D02*
X138857368Y-58157400D01*
D10*
X170414134Y-117367465D02*
X170556991Y-117415084D01*
X170556991Y-117415084D02*
X170604610Y-117462703D01*
X170604610Y-117462703D02*
X170652229Y-117557941D01*
X170652229Y-117557941D02*
X170652229Y-117700798D01*
X170652229Y-117700798D02*
X170604610Y-117796036D01*
X170604610Y-117796036D02*
X170556991Y-117843656D01*
X170556991Y-117843656D02*
X170461753Y-117891275D01*
X170461753Y-117891275D02*
X170080801Y-117891275D01*
X170080801Y-117891275D02*
X170080801Y-116891275D01*
X170080801Y-116891275D02*
X170414134Y-116891275D01*
X170414134Y-116891275D02*
X170509372Y-116938894D01*
X170509372Y-116938894D02*
X170556991Y-116986513D01*
X170556991Y-116986513D02*
X170604610Y-117081751D01*
X170604610Y-117081751D02*
X170604610Y-117176989D01*
X170604610Y-117176989D02*
X170556991Y-117272227D01*
X170556991Y-117272227D02*
X170509372Y-117319846D01*
X170509372Y-117319846D02*
X170414134Y-117367465D01*
X170414134Y-117367465D02*
X170080801Y-117367465D01*
X171509372Y-117891275D02*
X171509372Y-117367465D01*
X171509372Y-117367465D02*
X171461753Y-117272227D01*
X171461753Y-117272227D02*
X171366515Y-117224608D01*
X171366515Y-117224608D02*
X171176039Y-117224608D01*
X171176039Y-117224608D02*
X171080801Y-117272227D01*
X171509372Y-117843656D02*
X171414134Y-117891275D01*
X171414134Y-117891275D02*
X171176039Y-117891275D01*
X171176039Y-117891275D02*
X171080801Y-117843656D01*
X171080801Y-117843656D02*
X171033182Y-117748417D01*
X171033182Y-117748417D02*
X171033182Y-117653179D01*
X171033182Y-117653179D02*
X171080801Y-117557941D01*
X171080801Y-117557941D02*
X171176039Y-117510322D01*
X171176039Y-117510322D02*
X171414134Y-117510322D01*
X171414134Y-117510322D02*
X171509372Y-117462703D01*
X171842706Y-117224608D02*
X172223658Y-117224608D01*
X171985563Y-116891275D02*
X171985563Y-117748417D01*
X171985563Y-117748417D02*
X172033182Y-117843656D01*
X172033182Y-117843656D02*
X172128420Y-117891275D01*
X172128420Y-117891275D02*
X172223658Y-117891275D01*
X172414135Y-117224608D02*
X172795087Y-117224608D01*
X172556992Y-116891275D02*
X172556992Y-117748417D01*
X172556992Y-117748417D02*
X172604611Y-117843656D01*
X172604611Y-117843656D02*
X172699849Y-117891275D01*
X172699849Y-117891275D02*
X172795087Y-117891275D01*
X173509373Y-117843656D02*
X173414135Y-117891275D01*
X173414135Y-117891275D02*
X173223659Y-117891275D01*
X173223659Y-117891275D02*
X173128421Y-117843656D01*
X173128421Y-117843656D02*
X173080802Y-117748417D01*
X173080802Y-117748417D02*
X173080802Y-117367465D01*
X173080802Y-117367465D02*
X173128421Y-117272227D01*
X173128421Y-117272227D02*
X173223659Y-117224608D01*
X173223659Y-117224608D02*
X173414135Y-117224608D01*
X173414135Y-117224608D02*
X173509373Y-117272227D01*
X173509373Y-117272227D02*
X173556992Y-117367465D01*
X173556992Y-117367465D02*
X173556992Y-117462703D01*
X173556992Y-117462703D02*
X173080802Y-117557941D01*
X173985564Y-117891275D02*
X173985564Y-117224608D01*
X173985564Y-117415084D02*
X174033183Y-117319846D01*
X174033183Y-117319846D02*
X174080802Y-117272227D01*
X174080802Y-117272227D02*
X174176040Y-117224608D01*
X174176040Y-117224608D02*
X174271278Y-117224608D01*
X174509374Y-117224608D02*
X174747469Y-117891275D01*
X174985564Y-117224608D02*
X174747469Y-117891275D01*
X174747469Y-117891275D02*
X174652231Y-118129370D01*
X174652231Y-118129370D02*
X174604612Y-118176989D01*
X174604612Y-118176989D02*
X174509374Y-118224608D01*
X169699849Y-118501219D02*
X170033182Y-119501219D01*
X170033182Y-119501219D02*
X170366515Y-118501219D01*
X170842706Y-119501219D02*
X170747468Y-119453600D01*
X170747468Y-119453600D02*
X170699849Y-119405980D01*
X170699849Y-119405980D02*
X170652230Y-119310742D01*
X170652230Y-119310742D02*
X170652230Y-119025028D01*
X170652230Y-119025028D02*
X170699849Y-118929790D01*
X170699849Y-118929790D02*
X170747468Y-118882171D01*
X170747468Y-118882171D02*
X170842706Y-118834552D01*
X170842706Y-118834552D02*
X170985563Y-118834552D01*
X170985563Y-118834552D02*
X171080801Y-118882171D01*
X171080801Y-118882171D02*
X171128420Y-118929790D01*
X171128420Y-118929790D02*
X171176039Y-119025028D01*
X171176039Y-119025028D02*
X171176039Y-119310742D01*
X171176039Y-119310742D02*
X171128420Y-119405980D01*
X171128420Y-119405980D02*
X171080801Y-119453600D01*
X171080801Y-119453600D02*
X170985563Y-119501219D01*
X170985563Y-119501219D02*
X170842706Y-119501219D01*
X171747468Y-119501219D02*
X171652230Y-119453600D01*
X171652230Y-119453600D02*
X171604611Y-119358361D01*
X171604611Y-119358361D02*
X171604611Y-118501219D01*
X171985564Y-118834552D02*
X172366516Y-118834552D01*
X172128421Y-118501219D02*
X172128421Y-119358361D01*
X172128421Y-119358361D02*
X172176040Y-119453600D01*
X172176040Y-119453600D02*
X172271278Y-119501219D01*
X172271278Y-119501219D02*
X172366516Y-119501219D01*
X173128421Y-119501219D02*
X173128421Y-118977409D01*
X173128421Y-118977409D02*
X173080802Y-118882171D01*
X173080802Y-118882171D02*
X172985564Y-118834552D01*
X172985564Y-118834552D02*
X172795088Y-118834552D01*
X172795088Y-118834552D02*
X172699850Y-118882171D01*
X173128421Y-119453600D02*
X173033183Y-119501219D01*
X173033183Y-119501219D02*
X172795088Y-119501219D01*
X172795088Y-119501219D02*
X172699850Y-119453600D01*
X172699850Y-119453600D02*
X172652231Y-119358361D01*
X172652231Y-119358361D02*
X172652231Y-119263123D01*
X172652231Y-119263123D02*
X172699850Y-119167885D01*
X172699850Y-119167885D02*
X172795088Y-119120266D01*
X172795088Y-119120266D02*
X173033183Y-119120266D01*
X173033183Y-119120266D02*
X173128421Y-119072647D01*
X174033183Y-118834552D02*
X174033183Y-119644076D01*
X174033183Y-119644076D02*
X173985564Y-119739314D01*
X173985564Y-119739314D02*
X173937945Y-119786933D01*
X173937945Y-119786933D02*
X173842707Y-119834552D01*
X173842707Y-119834552D02*
X173699850Y-119834552D01*
X173699850Y-119834552D02*
X173604612Y-119786933D01*
X174033183Y-119453600D02*
X173937945Y-119501219D01*
X173937945Y-119501219D02*
X173747469Y-119501219D01*
X173747469Y-119501219D02*
X173652231Y-119453600D01*
X173652231Y-119453600D02*
X173604612Y-119405980D01*
X173604612Y-119405980D02*
X173556993Y-119310742D01*
X173556993Y-119310742D02*
X173556993Y-119025028D01*
X173556993Y-119025028D02*
X173604612Y-118929790D01*
X173604612Y-118929790D02*
X173652231Y-118882171D01*
X173652231Y-118882171D02*
X173747469Y-118834552D01*
X173747469Y-118834552D02*
X173937945Y-118834552D01*
X173937945Y-118834552D02*
X174033183Y-118882171D01*
X174890326Y-119453600D02*
X174795088Y-119501219D01*
X174795088Y-119501219D02*
X174604612Y-119501219D01*
X174604612Y-119501219D02*
X174509374Y-119453600D01*
X174509374Y-119453600D02*
X174461755Y-119358361D01*
X174461755Y-119358361D02*
X174461755Y-118977409D01*
X174461755Y-118977409D02*
X174509374Y-118882171D01*
X174509374Y-118882171D02*
X174604612Y-118834552D01*
X174604612Y-118834552D02*
X174795088Y-118834552D01*
X174795088Y-118834552D02*
X174890326Y-118882171D01*
X174890326Y-118882171D02*
X174937945Y-118977409D01*
X174937945Y-118977409D02*
X174937945Y-119072647D01*
X174937945Y-119072647D02*
X174461755Y-119167885D01*
X149648663Y-25363542D02*
X150334378Y-25363542D01*
X149991520Y-26563542D02*
X149991520Y-25363542D01*
X150905806Y-26563542D02*
X150791521Y-26506400D01*
X150791521Y-26506400D02*
X150734378Y-26449257D01*
X150734378Y-26449257D02*
X150677235Y-26334971D01*
X150677235Y-26334971D02*
X150677235Y-25992114D01*
X150677235Y-25992114D02*
X150734378Y-25877828D01*
X150734378Y-25877828D02*
X150791521Y-25820685D01*
X150791521Y-25820685D02*
X150905806Y-25763542D01*
X150905806Y-25763542D02*
X151077235Y-25763542D01*
X151077235Y-25763542D02*
X151191521Y-25820685D01*
X151191521Y-25820685D02*
X151248664Y-25877828D01*
X151248664Y-25877828D02*
X151305806Y-25992114D01*
X151305806Y-25992114D02*
X151305806Y-26334971D01*
X151305806Y-26334971D02*
X151248664Y-26449257D01*
X151248664Y-26449257D02*
X151191521Y-26506400D01*
X151191521Y-26506400D02*
X151077235Y-26563542D01*
X151077235Y-26563542D02*
X150905806Y-26563542D01*
X153134378Y-25934971D02*
X153305806Y-25992114D01*
X153305806Y-25992114D02*
X153362949Y-26049257D01*
X153362949Y-26049257D02*
X153420092Y-26163542D01*
X153420092Y-26163542D02*
X153420092Y-26334971D01*
X153420092Y-26334971D02*
X153362949Y-26449257D01*
X153362949Y-26449257D02*
X153305806Y-26506400D01*
X153305806Y-26506400D02*
X153191521Y-26563542D01*
X153191521Y-26563542D02*
X152734378Y-26563542D01*
X152734378Y-26563542D02*
X152734378Y-25363542D01*
X152734378Y-25363542D02*
X153134378Y-25363542D01*
X153134378Y-25363542D02*
X153248664Y-25420685D01*
X153248664Y-25420685D02*
X153305806Y-25477828D01*
X153305806Y-25477828D02*
X153362949Y-25592114D01*
X153362949Y-25592114D02*
X153362949Y-25706400D01*
X153362949Y-25706400D02*
X153305806Y-25820685D01*
X153305806Y-25820685D02*
X153248664Y-25877828D01*
X153248664Y-25877828D02*
X153134378Y-25934971D01*
X153134378Y-25934971D02*
X152734378Y-25934971D01*
X153877235Y-26220685D02*
X154448664Y-26220685D01*
X153762949Y-26563542D02*
X154162949Y-25363542D01*
X154162949Y-25363542D02*
X154562949Y-26563542D01*
X154791520Y-25363542D02*
X155477235Y-25363542D01*
X155134377Y-26563542D02*
X155134377Y-25363542D01*
X157362949Y-26563542D02*
X156791521Y-26563542D01*
X156791521Y-26563542D02*
X156791521Y-25363542D01*
X157934378Y-26563542D02*
X157820093Y-26506400D01*
X157820093Y-26506400D02*
X157762950Y-26449257D01*
X157762950Y-26449257D02*
X157705807Y-26334971D01*
X157705807Y-26334971D02*
X157705807Y-25992114D01*
X157705807Y-25992114D02*
X157762950Y-25877828D01*
X157762950Y-25877828D02*
X157820093Y-25820685D01*
X157820093Y-25820685D02*
X157934378Y-25763542D01*
X157934378Y-25763542D02*
X158105807Y-25763542D01*
X158105807Y-25763542D02*
X158220093Y-25820685D01*
X158220093Y-25820685D02*
X158277236Y-25877828D01*
X158277236Y-25877828D02*
X158334378Y-25992114D01*
X158334378Y-25992114D02*
X158334378Y-26334971D01*
X158334378Y-26334971D02*
X158277236Y-26449257D01*
X158277236Y-26449257D02*
X158220093Y-26506400D01*
X158220093Y-26506400D02*
X158105807Y-26563542D01*
X158105807Y-26563542D02*
X157934378Y-26563542D01*
X159362950Y-26563542D02*
X159362950Y-25934971D01*
X159362950Y-25934971D02*
X159305807Y-25820685D01*
X159305807Y-25820685D02*
X159191521Y-25763542D01*
X159191521Y-25763542D02*
X158962950Y-25763542D01*
X158962950Y-25763542D02*
X158848664Y-25820685D01*
X159362950Y-26506400D02*
X159248664Y-26563542D01*
X159248664Y-26563542D02*
X158962950Y-26563542D01*
X158962950Y-26563542D02*
X158848664Y-26506400D01*
X158848664Y-26506400D02*
X158791521Y-26392114D01*
X158791521Y-26392114D02*
X158791521Y-26277828D01*
X158791521Y-26277828D02*
X158848664Y-26163542D01*
X158848664Y-26163542D02*
X158962950Y-26106400D01*
X158962950Y-26106400D02*
X159248664Y-26106400D01*
X159248664Y-26106400D02*
X159362950Y-26049257D01*
X160448664Y-26563542D02*
X160448664Y-25363542D01*
X160448664Y-26506400D02*
X160334378Y-26563542D01*
X160334378Y-26563542D02*
X160105806Y-26563542D01*
X160105806Y-26563542D02*
X159991521Y-26506400D01*
X159991521Y-26506400D02*
X159934378Y-26449257D01*
X159934378Y-26449257D02*
X159877235Y-26334971D01*
X159877235Y-26334971D02*
X159877235Y-25992114D01*
X159877235Y-25992114D02*
X159934378Y-25877828D01*
X159934378Y-25877828D02*
X159991521Y-25820685D01*
X159991521Y-25820685D02*
X160105806Y-25763542D01*
X160105806Y-25763542D02*
X160334378Y-25763542D01*
X160334378Y-25763542D02*
X160448664Y-25820685D01*
D11*
X143343333Y-107134819D02*
X143010000Y-106658628D01*
X142771905Y-107134819D02*
X142771905Y-106134819D01*
X142771905Y-106134819D02*
X143152857Y-106134819D01*
X143152857Y-106134819D02*
X143248095Y-106182438D01*
X143248095Y-106182438D02*
X143295714Y-106230057D01*
X143295714Y-106230057D02*
X143343333Y-106325295D01*
X143343333Y-106325295D02*
X143343333Y-106468152D01*
X143343333Y-106468152D02*
X143295714Y-106563390D01*
X143295714Y-106563390D02*
X143248095Y-106611009D01*
X143248095Y-106611009D02*
X143152857Y-106658628D01*
X143152857Y-106658628D02*
X142771905Y-106658628D01*
X144295714Y-107134819D02*
X143724286Y-107134819D01*
X144010000Y-107134819D02*
X144010000Y-106134819D01*
X144010000Y-106134819D02*
X143914762Y-106277676D01*
X143914762Y-106277676D02*
X143819524Y-106372914D01*
X143819524Y-106372914D02*
X143724286Y-106420533D01*
X115987533Y-79423419D02*
X115654200Y-78947228D01*
X115416105Y-79423419D02*
X115416105Y-78423419D01*
X115416105Y-78423419D02*
X115797057Y-78423419D01*
X115797057Y-78423419D02*
X115892295Y-78471038D01*
X115892295Y-78471038D02*
X115939914Y-78518657D01*
X115939914Y-78518657D02*
X115987533Y-78613895D01*
X115987533Y-78613895D02*
X115987533Y-78756752D01*
X115987533Y-78756752D02*
X115939914Y-78851990D01*
X115939914Y-78851990D02*
X115892295Y-78899609D01*
X115892295Y-78899609D02*
X115797057Y-78947228D01*
X115797057Y-78947228D02*
X115416105Y-78947228D01*
X116844676Y-78756752D02*
X116844676Y-79423419D01*
X116606581Y-78375800D02*
X116368486Y-79090085D01*
X116368486Y-79090085D02*
X116987533Y-79090085D01*
X150963333Y-121104819D02*
X150630000Y-120628628D01*
X150391905Y-121104819D02*
X150391905Y-120104819D01*
X150391905Y-120104819D02*
X150772857Y-120104819D01*
X150772857Y-120104819D02*
X150868095Y-120152438D01*
X150868095Y-120152438D02*
X150915714Y-120200057D01*
X150915714Y-120200057D02*
X150963333Y-120295295D01*
X150963333Y-120295295D02*
X150963333Y-120438152D01*
X150963333Y-120438152D02*
X150915714Y-120533390D01*
X150915714Y-120533390D02*
X150868095Y-120581009D01*
X150868095Y-120581009D02*
X150772857Y-120628628D01*
X150772857Y-120628628D02*
X150391905Y-120628628D01*
X151868095Y-120104819D02*
X151391905Y-120104819D01*
X151391905Y-120104819D02*
X151344286Y-120581009D01*
X151344286Y-120581009D02*
X151391905Y-120533390D01*
X151391905Y-120533390D02*
X151487143Y-120485771D01*
X151487143Y-120485771D02*
X151725238Y-120485771D01*
X151725238Y-120485771D02*
X151820476Y-120533390D01*
X151820476Y-120533390D02*
X151868095Y-120581009D01*
X151868095Y-120581009D02*
X151915714Y-120676247D01*
X151915714Y-120676247D02*
X151915714Y-120914342D01*
X151915714Y-120914342D02*
X151868095Y-121009580D01*
X151868095Y-121009580D02*
X151820476Y-121057200D01*
X151820476Y-121057200D02*
X151725238Y-121104819D01*
X151725238Y-121104819D02*
X151487143Y-121104819D01*
X151487143Y-121104819D02*
X151391905Y-121057200D01*
X151391905Y-121057200D02*
X151344286Y-121009580D01*
X91275819Y-80630333D02*
X91990104Y-80630333D01*
X91990104Y-80630333D02*
X92132961Y-80677952D01*
X92132961Y-80677952D02*
X92228200Y-80773190D01*
X92228200Y-80773190D02*
X92275819Y-80916047D01*
X92275819Y-80916047D02*
X92275819Y-81011285D01*
X91275819Y-79677952D02*
X91275819Y-80154142D01*
X91275819Y-80154142D02*
X91752009Y-80201761D01*
X91752009Y-80201761D02*
X91704390Y-80154142D01*
X91704390Y-80154142D02*
X91656771Y-80058904D01*
X91656771Y-80058904D02*
X91656771Y-79820809D01*
X91656771Y-79820809D02*
X91704390Y-79725571D01*
X91704390Y-79725571D02*
X91752009Y-79677952D01*
X91752009Y-79677952D02*
X91847247Y-79630333D01*
X91847247Y-79630333D02*
X92085342Y-79630333D01*
X92085342Y-79630333D02*
X92180580Y-79677952D01*
X92180580Y-79677952D02*
X92228200Y-79725571D01*
X92228200Y-79725571D02*
X92275819Y-79820809D01*
X92275819Y-79820809D02*
X92275819Y-80058904D01*
X92275819Y-80058904D02*
X92228200Y-80154142D01*
X92228200Y-80154142D02*
X92180580Y-80201761D01*
X158265905Y-132788819D02*
X158265905Y-131788819D01*
X158265905Y-131788819D02*
X158504000Y-131788819D01*
X158504000Y-131788819D02*
X158646857Y-131836438D01*
X158646857Y-131836438D02*
X158742095Y-131931676D01*
X158742095Y-131931676D02*
X158789714Y-132026914D01*
X158789714Y-132026914D02*
X158837333Y-132217390D01*
X158837333Y-132217390D02*
X158837333Y-132360247D01*
X158837333Y-132360247D02*
X158789714Y-132550723D01*
X158789714Y-132550723D02*
X158742095Y-132645961D01*
X158742095Y-132645961D02*
X158646857Y-132741200D01*
X158646857Y-132741200D02*
X158504000Y-132788819D01*
X158504000Y-132788819D02*
X158265905Y-132788819D01*
X159694476Y-132122152D02*
X159694476Y-132788819D01*
X159456381Y-131741200D02*
X159218286Y-132455485D01*
X159218286Y-132455485D02*
X159837333Y-132455485D01*
X166770207Y-104340819D02*
X166436874Y-103864628D01*
X166198779Y-104340819D02*
X166198779Y-103340819D01*
X166198779Y-103340819D02*
X166579731Y-103340819D01*
X166579731Y-103340819D02*
X166674969Y-103388438D01*
X166674969Y-103388438D02*
X166722588Y-103436057D01*
X166722588Y-103436057D02*
X166770207Y-103531295D01*
X166770207Y-103531295D02*
X166770207Y-103674152D01*
X166770207Y-103674152D02*
X166722588Y-103769390D01*
X166722588Y-103769390D02*
X166674969Y-103817009D01*
X166674969Y-103817009D02*
X166579731Y-103864628D01*
X166579731Y-103864628D02*
X166198779Y-103864628D01*
X167722588Y-104340819D02*
X167151160Y-104340819D01*
X167436874Y-104340819D02*
X167436874Y-103340819D01*
X167436874Y-103340819D02*
X167341636Y-103483676D01*
X167341636Y-103483676D02*
X167246398Y-103578914D01*
X167246398Y-103578914D02*
X167151160Y-103626533D01*
X168674969Y-104340819D02*
X168103541Y-104340819D01*
X168389255Y-104340819D02*
X168389255Y-103340819D01*
X168389255Y-103340819D02*
X168294017Y-103483676D01*
X168294017Y-103483676D02*
X168198779Y-103578914D01*
X168198779Y-103578914D02*
X168103541Y-103626533D01*
X132809819Y-104896904D02*
X133619342Y-104896904D01*
X133619342Y-104896904D02*
X133714580Y-104849285D01*
X133714580Y-104849285D02*
X133762200Y-104801666D01*
X133762200Y-104801666D02*
X133809819Y-104706428D01*
X133809819Y-104706428D02*
X133809819Y-104515952D01*
X133809819Y-104515952D02*
X133762200Y-104420714D01*
X133762200Y-104420714D02*
X133714580Y-104373095D01*
X133714580Y-104373095D02*
X133619342Y-104325476D01*
X133619342Y-104325476D02*
X132809819Y-104325476D01*
X133143152Y-103420714D02*
X133809819Y-103420714D01*
X132762200Y-103658809D02*
X133476485Y-103896904D01*
X133476485Y-103896904D02*
X133476485Y-103277857D01*
X166647905Y-80464819D02*
X166647905Y-79464819D01*
X167219333Y-80464819D02*
X166790762Y-79893390D01*
X167219333Y-79464819D02*
X166647905Y-80036247D01*
X168171714Y-80464819D02*
X167600286Y-80464819D01*
X167886000Y-80464819D02*
X167886000Y-79464819D01*
X167886000Y-79464819D02*
X167790762Y-79607676D01*
X167790762Y-79607676D02*
X167695524Y-79702914D01*
X167695524Y-79702914D02*
X167600286Y-79750533D01*
X107608761Y-86156819D02*
X107275428Y-85680628D01*
X107037333Y-86156819D02*
X107037333Y-85156819D01*
X107037333Y-85156819D02*
X107418285Y-85156819D01*
X107418285Y-85156819D02*
X107513523Y-85204438D01*
X107513523Y-85204438D02*
X107561142Y-85252057D01*
X107561142Y-85252057D02*
X107608761Y-85347295D01*
X107608761Y-85347295D02*
X107608761Y-85490152D01*
X107608761Y-85490152D02*
X107561142Y-85585390D01*
X107561142Y-85585390D02*
X107513523Y-85633009D01*
X107513523Y-85633009D02*
X107418285Y-85680628D01*
X107418285Y-85680628D02*
X107037333Y-85680628D01*
X107894476Y-85156819D02*
X108227809Y-86156819D01*
X108227809Y-86156819D02*
X108561142Y-85156819D01*
X109418285Y-86156819D02*
X108846857Y-86156819D01*
X109132571Y-86156819D02*
X109132571Y-85156819D01*
X109132571Y-85156819D02*
X109037333Y-85299676D01*
X109037333Y-85299676D02*
X108942095Y-85394914D01*
X108942095Y-85394914D02*
X108846857Y-85442533D01*
X139533333Y-121009580D02*
X139485714Y-121057200D01*
X139485714Y-121057200D02*
X139342857Y-121104819D01*
X139342857Y-121104819D02*
X139247619Y-121104819D01*
X139247619Y-121104819D02*
X139104762Y-121057200D01*
X139104762Y-121057200D02*
X139009524Y-120961961D01*
X139009524Y-120961961D02*
X138961905Y-120866723D01*
X138961905Y-120866723D02*
X138914286Y-120676247D01*
X138914286Y-120676247D02*
X138914286Y-120533390D01*
X138914286Y-120533390D02*
X138961905Y-120342914D01*
X138961905Y-120342914D02*
X139009524Y-120247676D01*
X139009524Y-120247676D02*
X139104762Y-120152438D01*
X139104762Y-120152438D02*
X139247619Y-120104819D01*
X139247619Y-120104819D02*
X139342857Y-120104819D01*
X139342857Y-120104819D02*
X139485714Y-120152438D01*
X139485714Y-120152438D02*
X139533333Y-120200057D01*
X140390476Y-120104819D02*
X140200000Y-120104819D01*
X140200000Y-120104819D02*
X140104762Y-120152438D01*
X140104762Y-120152438D02*
X140057143Y-120200057D01*
X140057143Y-120200057D02*
X139961905Y-120342914D01*
X139961905Y-120342914D02*
X139914286Y-120533390D01*
X139914286Y-120533390D02*
X139914286Y-120914342D01*
X139914286Y-120914342D02*
X139961905Y-121009580D01*
X139961905Y-121009580D02*
X140009524Y-121057200D01*
X140009524Y-121057200D02*
X140104762Y-121104819D01*
X140104762Y-121104819D02*
X140295238Y-121104819D01*
X140295238Y-121104819D02*
X140390476Y-121057200D01*
X140390476Y-121057200D02*
X140438095Y-121009580D01*
X140438095Y-121009580D02*
X140485714Y-120914342D01*
X140485714Y-120914342D02*
X140485714Y-120676247D01*
X140485714Y-120676247D02*
X140438095Y-120581009D01*
X140438095Y-120581009D02*
X140390476Y-120533390D01*
X140390476Y-120533390D02*
X140295238Y-120485771D01*
X140295238Y-120485771D02*
X140104762Y-120485771D01*
X140104762Y-120485771D02*
X140009524Y-120533390D01*
X140009524Y-120533390D02*
X139961905Y-120581009D01*
X139961905Y-120581009D02*
X139914286Y-120676247D01*
X166770207Y-109420819D02*
X166436874Y-108944628D01*
X166198779Y-109420819D02*
X166198779Y-108420819D01*
X166198779Y-108420819D02*
X166579731Y-108420819D01*
X166579731Y-108420819D02*
X166674969Y-108468438D01*
X166674969Y-108468438D02*
X166722588Y-108516057D01*
X166722588Y-108516057D02*
X166770207Y-108611295D01*
X166770207Y-108611295D02*
X166770207Y-108754152D01*
X166770207Y-108754152D02*
X166722588Y-108849390D01*
X166722588Y-108849390D02*
X166674969Y-108897009D01*
X166674969Y-108897009D02*
X166579731Y-108944628D01*
X166579731Y-108944628D02*
X166198779Y-108944628D01*
X167103541Y-108420819D02*
X167722588Y-108420819D01*
X167722588Y-108420819D02*
X167389255Y-108801771D01*
X167389255Y-108801771D02*
X167532112Y-108801771D01*
X167532112Y-108801771D02*
X167627350Y-108849390D01*
X167627350Y-108849390D02*
X167674969Y-108897009D01*
X167674969Y-108897009D02*
X167722588Y-108992247D01*
X167722588Y-108992247D02*
X167722588Y-109230342D01*
X167722588Y-109230342D02*
X167674969Y-109325580D01*
X167674969Y-109325580D02*
X167627350Y-109373200D01*
X167627350Y-109373200D02*
X167532112Y-109420819D01*
X167532112Y-109420819D02*
X167246398Y-109420819D01*
X167246398Y-109420819D02*
X167151160Y-109373200D01*
X167151160Y-109373200D02*
X167103541Y-109325580D01*
X145192761Y-117390057D02*
X145097523Y-117342438D01*
X145097523Y-117342438D02*
X145002285Y-117247200D01*
X145002285Y-117247200D02*
X144859428Y-117104342D01*
X144859428Y-117104342D02*
X144764190Y-117056723D01*
X144764190Y-117056723D02*
X144668952Y-117056723D01*
X144716571Y-117294819D02*
X144621333Y-117247200D01*
X144621333Y-117247200D02*
X144526095Y-117151961D01*
X144526095Y-117151961D02*
X144478476Y-116961485D01*
X144478476Y-116961485D02*
X144478476Y-116628152D01*
X144478476Y-116628152D02*
X144526095Y-116437676D01*
X144526095Y-116437676D02*
X144621333Y-116342438D01*
X144621333Y-116342438D02*
X144716571Y-116294819D01*
X144716571Y-116294819D02*
X144907047Y-116294819D01*
X144907047Y-116294819D02*
X145002285Y-116342438D01*
X145002285Y-116342438D02*
X145097523Y-116437676D01*
X145097523Y-116437676D02*
X145145142Y-116628152D01*
X145145142Y-116628152D02*
X145145142Y-116961485D01*
X145145142Y-116961485D02*
X145097523Y-117151961D01*
X145097523Y-117151961D02*
X145002285Y-117247200D01*
X145002285Y-117247200D02*
X144907047Y-117294819D01*
X144907047Y-117294819D02*
X144716571Y-117294819D01*
X145526095Y-116390057D02*
X145573714Y-116342438D01*
X145573714Y-116342438D02*
X145668952Y-116294819D01*
X145668952Y-116294819D02*
X145907047Y-116294819D01*
X145907047Y-116294819D02*
X146002285Y-116342438D01*
X146002285Y-116342438D02*
X146049904Y-116390057D01*
X146049904Y-116390057D02*
X146097523Y-116485295D01*
X146097523Y-116485295D02*
X146097523Y-116580533D01*
X146097523Y-116580533D02*
X146049904Y-116723390D01*
X146049904Y-116723390D02*
X145478476Y-117294819D01*
X145478476Y-117294819D02*
X146097523Y-117294819D01*
X106259333Y-124057580D02*
X106211714Y-124105200D01*
X106211714Y-124105200D02*
X106068857Y-124152819D01*
X106068857Y-124152819D02*
X105973619Y-124152819D01*
X105973619Y-124152819D02*
X105830762Y-124105200D01*
X105830762Y-124105200D02*
X105735524Y-124009961D01*
X105735524Y-124009961D02*
X105687905Y-123914723D01*
X105687905Y-123914723D02*
X105640286Y-123724247D01*
X105640286Y-123724247D02*
X105640286Y-123581390D01*
X105640286Y-123581390D02*
X105687905Y-123390914D01*
X105687905Y-123390914D02*
X105735524Y-123295676D01*
X105735524Y-123295676D02*
X105830762Y-123200438D01*
X105830762Y-123200438D02*
X105973619Y-123152819D01*
X105973619Y-123152819D02*
X106068857Y-123152819D01*
X106068857Y-123152819D02*
X106211714Y-123200438D01*
X106211714Y-123200438D02*
X106259333Y-123248057D01*
X106640286Y-123248057D02*
X106687905Y-123200438D01*
X106687905Y-123200438D02*
X106783143Y-123152819D01*
X106783143Y-123152819D02*
X107021238Y-123152819D01*
X107021238Y-123152819D02*
X107116476Y-123200438D01*
X107116476Y-123200438D02*
X107164095Y-123248057D01*
X107164095Y-123248057D02*
X107211714Y-123343295D01*
X107211714Y-123343295D02*
X107211714Y-123438533D01*
X107211714Y-123438533D02*
X107164095Y-123581390D01*
X107164095Y-123581390D02*
X106592667Y-124152819D01*
X106592667Y-124152819D02*
X107211714Y-124152819D01*
X164361905Y-119580819D02*
X164361905Y-118580819D01*
X164361905Y-118580819D02*
X164600000Y-118580819D01*
X164600000Y-118580819D02*
X164742857Y-118628438D01*
X164742857Y-118628438D02*
X164838095Y-118723676D01*
X164838095Y-118723676D02*
X164885714Y-118818914D01*
X164885714Y-118818914D02*
X164933333Y-119009390D01*
X164933333Y-119009390D02*
X164933333Y-119152247D01*
X164933333Y-119152247D02*
X164885714Y-119342723D01*
X164885714Y-119342723D02*
X164838095Y-119437961D01*
X164838095Y-119437961D02*
X164742857Y-119533200D01*
X164742857Y-119533200D02*
X164600000Y-119580819D01*
X164600000Y-119580819D02*
X164361905Y-119580819D01*
X165266667Y-118580819D02*
X165885714Y-118580819D01*
X165885714Y-118580819D02*
X165552381Y-118961771D01*
X165552381Y-118961771D02*
X165695238Y-118961771D01*
X165695238Y-118961771D02*
X165790476Y-119009390D01*
X165790476Y-119009390D02*
X165838095Y-119057009D01*
X165838095Y-119057009D02*
X165885714Y-119152247D01*
X165885714Y-119152247D02*
X165885714Y-119390342D01*
X165885714Y-119390342D02*
X165838095Y-119485580D01*
X165838095Y-119485580D02*
X165790476Y-119533200D01*
X165790476Y-119533200D02*
X165695238Y-119580819D01*
X165695238Y-119580819D02*
X165409524Y-119580819D01*
X165409524Y-119580819D02*
X165314286Y-119533200D01*
X165314286Y-119533200D02*
X165266667Y-119485580D01*
D14*
X105459999Y-60511071D02*
X105459999Y-60939642D01*
X105459999Y-60939642D02*
X105431428Y-61025357D01*
X105431428Y-61025357D02*
X105374285Y-61082500D01*
X105374285Y-61082500D02*
X105288571Y-61111071D01*
X105288571Y-61111071D02*
X105231428Y-61111071D01*
X105717142Y-60568214D02*
X105745714Y-60539642D01*
X105745714Y-60539642D02*
X105802857Y-60511071D01*
X105802857Y-60511071D02*
X105945714Y-60511071D01*
X105945714Y-60511071D02*
X106002857Y-60539642D01*
X106002857Y-60539642D02*
X106031428Y-60568214D01*
X106031428Y-60568214D02*
X106059999Y-60625357D01*
X106059999Y-60625357D02*
X106059999Y-60682500D01*
X106059999Y-60682500D02*
X106031428Y-60768214D01*
X106031428Y-60768214D02*
X105688571Y-61111071D01*
X105688571Y-61111071D02*
X106059999Y-61111071D01*
D10*
X109083810Y-58364219D02*
X109083810Y-57364219D01*
X109083810Y-57364219D02*
X109464762Y-57364219D01*
X109464762Y-57364219D02*
X109560000Y-57411838D01*
X109560000Y-57411838D02*
X109607619Y-57459457D01*
X109607619Y-57459457D02*
X109655238Y-57554695D01*
X109655238Y-57554695D02*
X109655238Y-57697552D01*
X109655238Y-57697552D02*
X109607619Y-57792790D01*
X109607619Y-57792790D02*
X109560000Y-57840409D01*
X109560000Y-57840409D02*
X109464762Y-57888028D01*
X109464762Y-57888028D02*
X109083810Y-57888028D01*
X109988572Y-57364219D02*
X110226667Y-58364219D01*
X110226667Y-58364219D02*
X110417143Y-57649933D01*
X110417143Y-57649933D02*
X110607619Y-58364219D01*
X110607619Y-58364219D02*
X110845715Y-57364219D01*
X111798095Y-58364219D02*
X111464762Y-57888028D01*
X111226667Y-58364219D02*
X111226667Y-57364219D01*
X111226667Y-57364219D02*
X111607619Y-57364219D01*
X111607619Y-57364219D02*
X111702857Y-57411838D01*
X111702857Y-57411838D02*
X111750476Y-57459457D01*
X111750476Y-57459457D02*
X111798095Y-57554695D01*
X111798095Y-57554695D02*
X111798095Y-57697552D01*
X111798095Y-57697552D02*
X111750476Y-57792790D01*
X111750476Y-57792790D02*
X111702857Y-57840409D01*
X111702857Y-57840409D02*
X111607619Y-57888028D01*
X111607619Y-57888028D02*
X111226667Y-57888028D01*
X112988572Y-58364219D02*
X112988572Y-57364219D01*
X113464762Y-58364219D02*
X113464762Y-57364219D01*
X113464762Y-57364219D02*
X114036190Y-58364219D01*
X114036190Y-58364219D02*
X114036190Y-57364219D01*
D11*
X111593333Y-93418819D02*
X111260000Y-92942628D01*
X111021905Y-93418819D02*
X111021905Y-92418819D01*
X111021905Y-92418819D02*
X111402857Y-92418819D01*
X111402857Y-92418819D02*
X111498095Y-92466438D01*
X111498095Y-92466438D02*
X111545714Y-92514057D01*
X111545714Y-92514057D02*
X111593333Y-92609295D01*
X111593333Y-92609295D02*
X111593333Y-92752152D01*
X111593333Y-92752152D02*
X111545714Y-92847390D01*
X111545714Y-92847390D02*
X111498095Y-92895009D01*
X111498095Y-92895009D02*
X111402857Y-92942628D01*
X111402857Y-92942628D02*
X111021905Y-92942628D01*
X112450476Y-92418819D02*
X112260000Y-92418819D01*
X112260000Y-92418819D02*
X112164762Y-92466438D01*
X112164762Y-92466438D02*
X112117143Y-92514057D01*
X112117143Y-92514057D02*
X112021905Y-92656914D01*
X112021905Y-92656914D02*
X111974286Y-92847390D01*
X111974286Y-92847390D02*
X111974286Y-93228342D01*
X111974286Y-93228342D02*
X112021905Y-93323580D01*
X112021905Y-93323580D02*
X112069524Y-93371200D01*
X112069524Y-93371200D02*
X112164762Y-93418819D01*
X112164762Y-93418819D02*
X112355238Y-93418819D01*
X112355238Y-93418819D02*
X112450476Y-93371200D01*
X112450476Y-93371200D02*
X112498095Y-93323580D01*
X112498095Y-93323580D02*
X112545714Y-93228342D01*
X112545714Y-93228342D02*
X112545714Y-92990247D01*
X112545714Y-92990247D02*
X112498095Y-92895009D01*
X112498095Y-92895009D02*
X112450476Y-92847390D01*
X112450476Y-92847390D02*
X112355238Y-92799771D01*
X112355238Y-92799771D02*
X112164762Y-92799771D01*
X112164762Y-92799771D02*
X112069524Y-92847390D01*
X112069524Y-92847390D02*
X112021905Y-92895009D01*
X112021905Y-92895009D02*
X111974286Y-92990247D01*
D14*
X153719999Y-60511071D02*
X153719999Y-60939642D01*
X153719999Y-60939642D02*
X153691428Y-61025357D01*
X153691428Y-61025357D02*
X153634285Y-61082500D01*
X153634285Y-61082500D02*
X153548571Y-61111071D01*
X153548571Y-61111071D02*
X153491428Y-61111071D01*
X153948571Y-60511071D02*
X154319999Y-60511071D01*
X154319999Y-60511071D02*
X154119999Y-60739642D01*
X154119999Y-60739642D02*
X154205714Y-60739642D01*
X154205714Y-60739642D02*
X154262857Y-60768214D01*
X154262857Y-60768214D02*
X154291428Y-60796785D01*
X154291428Y-60796785D02*
X154319999Y-60853928D01*
X154319999Y-60853928D02*
X154319999Y-60996785D01*
X154319999Y-60996785D02*
X154291428Y-61053928D01*
X154291428Y-61053928D02*
X154262857Y-61082500D01*
X154262857Y-61082500D02*
X154205714Y-61111071D01*
X154205714Y-61111071D02*
X154034285Y-61111071D01*
X154034285Y-61111071D02*
X153977142Y-61082500D01*
X153977142Y-61082500D02*
X153948571Y-61053928D01*
D13*
X152662856Y-75608328D02*
X151948570Y-75608328D01*
X151948570Y-75608328D02*
X151948570Y-74108328D01*
X153448571Y-74108328D02*
X153734285Y-74108328D01*
X153734285Y-74108328D02*
X153877142Y-74179757D01*
X153877142Y-74179757D02*
X154019999Y-74322614D01*
X154019999Y-74322614D02*
X154091428Y-74608328D01*
X154091428Y-74608328D02*
X154091428Y-75108328D01*
X154091428Y-75108328D02*
X154019999Y-75394042D01*
X154019999Y-75394042D02*
X153877142Y-75536900D01*
X153877142Y-75536900D02*
X153734285Y-75608328D01*
X153734285Y-75608328D02*
X153448571Y-75608328D01*
X153448571Y-75608328D02*
X153305714Y-75536900D01*
X153305714Y-75536900D02*
X153162856Y-75394042D01*
X153162856Y-75394042D02*
X153091428Y-75108328D01*
X153091428Y-75108328D02*
X153091428Y-74608328D01*
X153091428Y-74608328D02*
X153162856Y-74322614D01*
X153162856Y-74322614D02*
X153305714Y-74179757D01*
X153305714Y-74179757D02*
X153448571Y-74108328D01*
X154662857Y-75179757D02*
X155377143Y-75179757D01*
X154520000Y-75608328D02*
X155020000Y-74108328D01*
X155020000Y-74108328D02*
X155520000Y-75608328D01*
X156019999Y-75608328D02*
X156019999Y-74108328D01*
X156019999Y-74108328D02*
X156377142Y-74108328D01*
X156377142Y-74108328D02*
X156591428Y-74179757D01*
X156591428Y-74179757D02*
X156734285Y-74322614D01*
X156734285Y-74322614D02*
X156805714Y-74465471D01*
X156805714Y-74465471D02*
X156877142Y-74751185D01*
X156877142Y-74751185D02*
X156877142Y-74965471D01*
X156877142Y-74965471D02*
X156805714Y-75251185D01*
X156805714Y-75251185D02*
X156734285Y-75394042D01*
X156734285Y-75394042D02*
X156591428Y-75536900D01*
X156591428Y-75536900D02*
X156377142Y-75608328D01*
X156377142Y-75608328D02*
X156019999Y-75608328D01*
X158662856Y-75608328D02*
X158662856Y-74108328D01*
X158662856Y-74108328D02*
X159234285Y-74108328D01*
X159234285Y-74108328D02*
X159377142Y-74179757D01*
X159377142Y-74179757D02*
X159448571Y-74251185D01*
X159448571Y-74251185D02*
X159519999Y-74394042D01*
X159519999Y-74394042D02*
X159519999Y-74608328D01*
X159519999Y-74608328D02*
X159448571Y-74751185D01*
X159448571Y-74751185D02*
X159377142Y-74822614D01*
X159377142Y-74822614D02*
X159234285Y-74894042D01*
X159234285Y-74894042D02*
X158662856Y-74894042D01*
X160019999Y-74108328D02*
X160377142Y-75608328D01*
X160377142Y-75608328D02*
X160662856Y-74536900D01*
X160662856Y-74536900D02*
X160948571Y-75608328D01*
X160948571Y-75608328D02*
X161305714Y-74108328D01*
X162734285Y-75608328D02*
X162234285Y-74894042D01*
X161877142Y-75608328D02*
X161877142Y-74108328D01*
X161877142Y-74108328D02*
X162448571Y-74108328D01*
X162448571Y-74108328D02*
X162591428Y-74179757D01*
X162591428Y-74179757D02*
X162662857Y-74251185D01*
X162662857Y-74251185D02*
X162734285Y-74394042D01*
X162734285Y-74394042D02*
X162734285Y-74608328D01*
X162734285Y-74608328D02*
X162662857Y-74751185D01*
X162662857Y-74751185D02*
X162591428Y-74822614D01*
X162591428Y-74822614D02*
X162448571Y-74894042D01*
X162448571Y-74894042D02*
X161877142Y-74894042D01*
X164805714Y-74108328D02*
X165091428Y-74108328D01*
X165091428Y-74108328D02*
X165234285Y-74179757D01*
X165234285Y-74179757D02*
X165377142Y-74322614D01*
X165377142Y-74322614D02*
X165448571Y-74608328D01*
X165448571Y-74608328D02*
X165448571Y-75108328D01*
X165448571Y-75108328D02*
X165377142Y-75394042D01*
X165377142Y-75394042D02*
X165234285Y-75536900D01*
X165234285Y-75536900D02*
X165091428Y-75608328D01*
X165091428Y-75608328D02*
X164805714Y-75608328D01*
X164805714Y-75608328D02*
X164662857Y-75536900D01*
X164662857Y-75536900D02*
X164519999Y-75394042D01*
X164519999Y-75394042D02*
X164448571Y-75108328D01*
X164448571Y-75108328D02*
X164448571Y-74608328D01*
X164448571Y-74608328D02*
X164519999Y-74322614D01*
X164519999Y-74322614D02*
X164662857Y-74179757D01*
X164662857Y-74179757D02*
X164805714Y-74108328D01*
X166091428Y-74108328D02*
X166091428Y-75322614D01*
X166091428Y-75322614D02*
X166162857Y-75465471D01*
X166162857Y-75465471D02*
X166234286Y-75536900D01*
X166234286Y-75536900D02*
X166377143Y-75608328D01*
X166377143Y-75608328D02*
X166662857Y-75608328D01*
X166662857Y-75608328D02*
X166805714Y-75536900D01*
X166805714Y-75536900D02*
X166877143Y-75465471D01*
X166877143Y-75465471D02*
X166948571Y-75322614D01*
X166948571Y-75322614D02*
X166948571Y-74108328D01*
X167448572Y-74108328D02*
X168305715Y-74108328D01*
X167877143Y-75608328D02*
X167877143Y-74108328D01*
D11*
X111593333Y-123803580D02*
X111545714Y-123851200D01*
X111545714Y-123851200D02*
X111402857Y-123898819D01*
X111402857Y-123898819D02*
X111307619Y-123898819D01*
X111307619Y-123898819D02*
X111164762Y-123851200D01*
X111164762Y-123851200D02*
X111069524Y-123755961D01*
X111069524Y-123755961D02*
X111021905Y-123660723D01*
X111021905Y-123660723D02*
X110974286Y-123470247D01*
X110974286Y-123470247D02*
X110974286Y-123327390D01*
X110974286Y-123327390D02*
X111021905Y-123136914D01*
X111021905Y-123136914D02*
X111069524Y-123041676D01*
X111069524Y-123041676D02*
X111164762Y-122946438D01*
X111164762Y-122946438D02*
X111307619Y-122898819D01*
X111307619Y-122898819D02*
X111402857Y-122898819D01*
X111402857Y-122898819D02*
X111545714Y-122946438D01*
X111545714Y-122946438D02*
X111593333Y-122994057D01*
X111926667Y-122898819D02*
X112545714Y-122898819D01*
X112545714Y-122898819D02*
X112212381Y-123279771D01*
X112212381Y-123279771D02*
X112355238Y-123279771D01*
X112355238Y-123279771D02*
X112450476Y-123327390D01*
X112450476Y-123327390D02*
X112498095Y-123375009D01*
X112498095Y-123375009D02*
X112545714Y-123470247D01*
X112545714Y-123470247D02*
X112545714Y-123708342D01*
X112545714Y-123708342D02*
X112498095Y-123803580D01*
X112498095Y-123803580D02*
X112450476Y-123851200D01*
X112450476Y-123851200D02*
X112355238Y-123898819D01*
X112355238Y-123898819D02*
X112069524Y-123898819D01*
X112069524Y-123898819D02*
X111974286Y-123851200D01*
X111974286Y-123851200D02*
X111926667Y-123803580D01*
X152908095Y-112104819D02*
X152908095Y-112914342D01*
X152908095Y-112914342D02*
X152955714Y-113009580D01*
X152955714Y-113009580D02*
X153003333Y-113057200D01*
X153003333Y-113057200D02*
X153098571Y-113104819D01*
X153098571Y-113104819D02*
X153289047Y-113104819D01*
X153289047Y-113104819D02*
X153384285Y-113057200D01*
X153384285Y-113057200D02*
X153431904Y-113009580D01*
X153431904Y-113009580D02*
X153479523Y-112914342D01*
X153479523Y-112914342D02*
X153479523Y-112104819D01*
X154479523Y-113104819D02*
X153908095Y-113104819D01*
X154193809Y-113104819D02*
X154193809Y-112104819D01*
X154193809Y-112104819D02*
X154098571Y-112247676D01*
X154098571Y-112247676D02*
X154003333Y-112342914D01*
X154003333Y-112342914D02*
X153908095Y-112390533D01*
X139923333Y-133296819D02*
X139590000Y-132820628D01*
X139351905Y-133296819D02*
X139351905Y-132296819D01*
X139351905Y-132296819D02*
X139732857Y-132296819D01*
X139732857Y-132296819D02*
X139828095Y-132344438D01*
X139828095Y-132344438D02*
X139875714Y-132392057D01*
X139875714Y-132392057D02*
X139923333Y-132487295D01*
X139923333Y-132487295D02*
X139923333Y-132630152D01*
X139923333Y-132630152D02*
X139875714Y-132725390D01*
X139875714Y-132725390D02*
X139828095Y-132773009D01*
X139828095Y-132773009D02*
X139732857Y-132820628D01*
X139732857Y-132820628D02*
X139351905Y-132820628D01*
X140399524Y-133296819D02*
X140590000Y-133296819D01*
X140590000Y-133296819D02*
X140685238Y-133249200D01*
X140685238Y-133249200D02*
X140732857Y-133201580D01*
X140732857Y-133201580D02*
X140828095Y-133058723D01*
X140828095Y-133058723D02*
X140875714Y-132868247D01*
X140875714Y-132868247D02*
X140875714Y-132487295D01*
X140875714Y-132487295D02*
X140828095Y-132392057D01*
X140828095Y-132392057D02*
X140780476Y-132344438D01*
X140780476Y-132344438D02*
X140685238Y-132296819D01*
X140685238Y-132296819D02*
X140494762Y-132296819D01*
X140494762Y-132296819D02*
X140399524Y-132344438D01*
X140399524Y-132344438D02*
X140351905Y-132392057D01*
X140351905Y-132392057D02*
X140304286Y-132487295D01*
X140304286Y-132487295D02*
X140304286Y-132725390D01*
X140304286Y-132725390D02*
X140351905Y-132820628D01*
X140351905Y-132820628D02*
X140399524Y-132868247D01*
X140399524Y-132868247D02*
X140494762Y-132915866D01*
X140494762Y-132915866D02*
X140685238Y-132915866D01*
X140685238Y-132915866D02*
X140780476Y-132868247D01*
X140780476Y-132868247D02*
X140828095Y-132820628D01*
X140828095Y-132820628D02*
X140875714Y-132725390D01*
X132804819Y-112521904D02*
X133614342Y-112521904D01*
X133614342Y-112521904D02*
X133709580Y-112474285D01*
X133709580Y-112474285D02*
X133757200Y-112426666D01*
X133757200Y-112426666D02*
X133804819Y-112331428D01*
X133804819Y-112331428D02*
X133804819Y-112140952D01*
X133804819Y-112140952D02*
X133757200Y-112045714D01*
X133757200Y-112045714D02*
X133709580Y-111998095D01*
X133709580Y-111998095D02*
X133614342Y-111950476D01*
X133614342Y-111950476D02*
X132804819Y-111950476D01*
X132804819Y-110998095D02*
X132804819Y-111474285D01*
X132804819Y-111474285D02*
X133281009Y-111521904D01*
X133281009Y-111521904D02*
X133233390Y-111474285D01*
X133233390Y-111474285D02*
X133185771Y-111379047D01*
X133185771Y-111379047D02*
X133185771Y-111140952D01*
X133185771Y-111140952D02*
X133233390Y-111045714D01*
X133233390Y-111045714D02*
X133281009Y-110998095D01*
X133281009Y-110998095D02*
X133376247Y-110950476D01*
X133376247Y-110950476D02*
X133614342Y-110950476D01*
X133614342Y-110950476D02*
X133709580Y-110998095D01*
X133709580Y-110998095D02*
X133757200Y-111045714D01*
X133757200Y-111045714D02*
X133804819Y-111140952D01*
X133804819Y-111140952D02*
X133804819Y-111379047D01*
X133804819Y-111379047D02*
X133757200Y-111474285D01*
X133757200Y-111474285D02*
X133709580Y-111521904D01*
X166716077Y-106880819D02*
X166382744Y-106404628D01*
X166144649Y-106880819D02*
X166144649Y-105880819D01*
X166144649Y-105880819D02*
X166525601Y-105880819D01*
X166525601Y-105880819D02*
X166620839Y-105928438D01*
X166620839Y-105928438D02*
X166668458Y-105976057D01*
X166668458Y-105976057D02*
X166716077Y-106071295D01*
X166716077Y-106071295D02*
X166716077Y-106214152D01*
X166716077Y-106214152D02*
X166668458Y-106309390D01*
X166668458Y-106309390D02*
X166620839Y-106357009D01*
X166620839Y-106357009D02*
X166525601Y-106404628D01*
X166525601Y-106404628D02*
X166144649Y-106404628D01*
X167668458Y-106880819D02*
X167097030Y-106880819D01*
X167382744Y-106880819D02*
X167382744Y-105880819D01*
X167382744Y-105880819D02*
X167287506Y-106023676D01*
X167287506Y-106023676D02*
X167192268Y-106118914D01*
X167192268Y-106118914D02*
X167097030Y-106166533D01*
X168001792Y-105880819D02*
X168620839Y-105880819D01*
X168620839Y-105880819D02*
X168287506Y-106261771D01*
X168287506Y-106261771D02*
X168430363Y-106261771D01*
X168430363Y-106261771D02*
X168525601Y-106309390D01*
X168525601Y-106309390D02*
X168573220Y-106357009D01*
X168573220Y-106357009D02*
X168620839Y-106452247D01*
X168620839Y-106452247D02*
X168620839Y-106690342D01*
X168620839Y-106690342D02*
X168573220Y-106785580D01*
X168573220Y-106785580D02*
X168525601Y-106833200D01*
X168525601Y-106833200D02*
X168430363Y-106880819D01*
X168430363Y-106880819D02*
X168144649Y-106880819D01*
X168144649Y-106880819D02*
X168049411Y-106833200D01*
X168049411Y-106833200D02*
X168001792Y-106785580D01*
X151796761Y-98848057D02*
X151701523Y-98800438D01*
X151701523Y-98800438D02*
X151606285Y-98705200D01*
X151606285Y-98705200D02*
X151463428Y-98562342D01*
X151463428Y-98562342D02*
X151368190Y-98514723D01*
X151368190Y-98514723D02*
X151272952Y-98514723D01*
X151320571Y-98752819D02*
X151225333Y-98705200D01*
X151225333Y-98705200D02*
X151130095Y-98609961D01*
X151130095Y-98609961D02*
X151082476Y-98419485D01*
X151082476Y-98419485D02*
X151082476Y-98086152D01*
X151082476Y-98086152D02*
X151130095Y-97895676D01*
X151130095Y-97895676D02*
X151225333Y-97800438D01*
X151225333Y-97800438D02*
X151320571Y-97752819D01*
X151320571Y-97752819D02*
X151511047Y-97752819D01*
X151511047Y-97752819D02*
X151606285Y-97800438D01*
X151606285Y-97800438D02*
X151701523Y-97895676D01*
X151701523Y-97895676D02*
X151749142Y-98086152D01*
X151749142Y-98086152D02*
X151749142Y-98419485D01*
X151749142Y-98419485D02*
X151701523Y-98609961D01*
X151701523Y-98609961D02*
X151606285Y-98705200D01*
X151606285Y-98705200D02*
X151511047Y-98752819D01*
X151511047Y-98752819D02*
X151320571Y-98752819D01*
X152082476Y-97752819D02*
X152701523Y-97752819D01*
X152701523Y-97752819D02*
X152368190Y-98133771D01*
X152368190Y-98133771D02*
X152511047Y-98133771D01*
X152511047Y-98133771D02*
X152606285Y-98181390D01*
X152606285Y-98181390D02*
X152653904Y-98229009D01*
X152653904Y-98229009D02*
X152701523Y-98324247D01*
X152701523Y-98324247D02*
X152701523Y-98562342D01*
X152701523Y-98562342D02*
X152653904Y-98657580D01*
X152653904Y-98657580D02*
X152606285Y-98705200D01*
X152606285Y-98705200D02*
X152511047Y-98752819D01*
X152511047Y-98752819D02*
X152225333Y-98752819D01*
X152225333Y-98752819D02*
X152130095Y-98705200D01*
X152130095Y-98705200D02*
X152082476Y-98657580D01*
X166770207Y-111960819D02*
X166436874Y-111484628D01*
X166198779Y-111960819D02*
X166198779Y-110960819D01*
X166198779Y-110960819D02*
X166579731Y-110960819D01*
X166579731Y-110960819D02*
X166674969Y-111008438D01*
X166674969Y-111008438D02*
X166722588Y-111056057D01*
X166722588Y-111056057D02*
X166770207Y-111151295D01*
X166770207Y-111151295D02*
X166770207Y-111294152D01*
X166770207Y-111294152D02*
X166722588Y-111389390D01*
X166722588Y-111389390D02*
X166674969Y-111437009D01*
X166674969Y-111437009D02*
X166579731Y-111484628D01*
X166579731Y-111484628D02*
X166198779Y-111484628D01*
X167151160Y-111056057D02*
X167198779Y-111008438D01*
X167198779Y-111008438D02*
X167294017Y-110960819D01*
X167294017Y-110960819D02*
X167532112Y-110960819D01*
X167532112Y-110960819D02*
X167627350Y-111008438D01*
X167627350Y-111008438D02*
X167674969Y-111056057D01*
X167674969Y-111056057D02*
X167722588Y-111151295D01*
X167722588Y-111151295D02*
X167722588Y-111246533D01*
X167722588Y-111246533D02*
X167674969Y-111389390D01*
X167674969Y-111389390D02*
X167103541Y-111960819D01*
X167103541Y-111960819D02*
X167722588Y-111960819D01*
X130643333Y-125073580D02*
X130595714Y-125121200D01*
X130595714Y-125121200D02*
X130452857Y-125168819D01*
X130452857Y-125168819D02*
X130357619Y-125168819D01*
X130357619Y-125168819D02*
X130214762Y-125121200D01*
X130214762Y-125121200D02*
X130119524Y-125025961D01*
X130119524Y-125025961D02*
X130071905Y-124930723D01*
X130071905Y-124930723D02*
X130024286Y-124740247D01*
X130024286Y-124740247D02*
X130024286Y-124597390D01*
X130024286Y-124597390D02*
X130071905Y-124406914D01*
X130071905Y-124406914D02*
X130119524Y-124311676D01*
X130119524Y-124311676D02*
X130214762Y-124216438D01*
X130214762Y-124216438D02*
X130357619Y-124168819D01*
X130357619Y-124168819D02*
X130452857Y-124168819D01*
X130452857Y-124168819D02*
X130595714Y-124216438D01*
X130595714Y-124216438D02*
X130643333Y-124264057D01*
X131595714Y-125168819D02*
X131024286Y-125168819D01*
X131310000Y-125168819D02*
X131310000Y-124168819D01*
X131310000Y-124168819D02*
X131214762Y-124311676D01*
X131214762Y-124311676D02*
X131119524Y-124406914D01*
X131119524Y-124406914D02*
X131024286Y-124454533D01*
X134453333Y-75294819D02*
X134120000Y-74818628D01*
X133881905Y-75294819D02*
X133881905Y-74294819D01*
X133881905Y-74294819D02*
X134262857Y-74294819D01*
X134262857Y-74294819D02*
X134358095Y-74342438D01*
X134358095Y-74342438D02*
X134405714Y-74390057D01*
X134405714Y-74390057D02*
X134453333Y-74485295D01*
X134453333Y-74485295D02*
X134453333Y-74628152D01*
X134453333Y-74628152D02*
X134405714Y-74723390D01*
X134405714Y-74723390D02*
X134358095Y-74771009D01*
X134358095Y-74771009D02*
X134262857Y-74818628D01*
X134262857Y-74818628D02*
X133881905Y-74818628D01*
X135024762Y-74723390D02*
X134929524Y-74675771D01*
X134929524Y-74675771D02*
X134881905Y-74628152D01*
X134881905Y-74628152D02*
X134834286Y-74532914D01*
X134834286Y-74532914D02*
X134834286Y-74485295D01*
X134834286Y-74485295D02*
X134881905Y-74390057D01*
X134881905Y-74390057D02*
X134929524Y-74342438D01*
X134929524Y-74342438D02*
X135024762Y-74294819D01*
X135024762Y-74294819D02*
X135215238Y-74294819D01*
X135215238Y-74294819D02*
X135310476Y-74342438D01*
X135310476Y-74342438D02*
X135358095Y-74390057D01*
X135358095Y-74390057D02*
X135405714Y-74485295D01*
X135405714Y-74485295D02*
X135405714Y-74532914D01*
X135405714Y-74532914D02*
X135358095Y-74628152D01*
X135358095Y-74628152D02*
X135310476Y-74675771D01*
X135310476Y-74675771D02*
X135215238Y-74723390D01*
X135215238Y-74723390D02*
X135024762Y-74723390D01*
X135024762Y-74723390D02*
X134929524Y-74771009D01*
X134929524Y-74771009D02*
X134881905Y-74818628D01*
X134881905Y-74818628D02*
X134834286Y-74913866D01*
X134834286Y-74913866D02*
X134834286Y-75104342D01*
X134834286Y-75104342D02*
X134881905Y-75199580D01*
X134881905Y-75199580D02*
X134929524Y-75247200D01*
X134929524Y-75247200D02*
X135024762Y-75294819D01*
X135024762Y-75294819D02*
X135215238Y-75294819D01*
X135215238Y-75294819D02*
X135310476Y-75247200D01*
X135310476Y-75247200D02*
X135358095Y-75199580D01*
X135358095Y-75199580D02*
X135405714Y-75104342D01*
X135405714Y-75104342D02*
X135405714Y-74913866D01*
X135405714Y-74913866D02*
X135358095Y-74818628D01*
X135358095Y-74818628D02*
X135310476Y-74771009D01*
X135310476Y-74771009D02*
X135215238Y-74723390D01*
X166716077Y-101419819D02*
X166382744Y-100943628D01*
X166144649Y-101419819D02*
X166144649Y-100419819D01*
X166144649Y-100419819D02*
X166525601Y-100419819D01*
X166525601Y-100419819D02*
X166620839Y-100467438D01*
X166620839Y-100467438D02*
X166668458Y-100515057D01*
X166668458Y-100515057D02*
X166716077Y-100610295D01*
X166716077Y-100610295D02*
X166716077Y-100753152D01*
X166716077Y-100753152D02*
X166668458Y-100848390D01*
X166668458Y-100848390D02*
X166620839Y-100896009D01*
X166620839Y-100896009D02*
X166525601Y-100943628D01*
X166525601Y-100943628D02*
X166144649Y-100943628D01*
X167668458Y-101419819D02*
X167097030Y-101419819D01*
X167382744Y-101419819D02*
X167382744Y-100419819D01*
X167382744Y-100419819D02*
X167287506Y-100562676D01*
X167287506Y-100562676D02*
X167192268Y-100657914D01*
X167192268Y-100657914D02*
X167097030Y-100705533D01*
X168287506Y-100419819D02*
X168382744Y-100419819D01*
X168382744Y-100419819D02*
X168477982Y-100467438D01*
X168477982Y-100467438D02*
X168525601Y-100515057D01*
X168525601Y-100515057D02*
X168573220Y-100610295D01*
X168573220Y-100610295D02*
X168620839Y-100800771D01*
X168620839Y-100800771D02*
X168620839Y-101038866D01*
X168620839Y-101038866D02*
X168573220Y-101229342D01*
X168573220Y-101229342D02*
X168525601Y-101324580D01*
X168525601Y-101324580D02*
X168477982Y-101372200D01*
X168477982Y-101372200D02*
X168382744Y-101419819D01*
X168382744Y-101419819D02*
X168287506Y-101419819D01*
X168287506Y-101419819D02*
X168192268Y-101372200D01*
X168192268Y-101372200D02*
X168144649Y-101324580D01*
X168144649Y-101324580D02*
X168097030Y-101229342D01*
X168097030Y-101229342D02*
X168049411Y-101038866D01*
X168049411Y-101038866D02*
X168049411Y-100800771D01*
X168049411Y-100800771D02*
X168097030Y-100610295D01*
X168097030Y-100610295D02*
X168144649Y-100515057D01*
X168144649Y-100515057D02*
X168192268Y-100467438D01*
X168192268Y-100467438D02*
X168287506Y-100419819D01*
X155027333Y-121009580D02*
X154979714Y-121057200D01*
X154979714Y-121057200D02*
X154836857Y-121104819D01*
X154836857Y-121104819D02*
X154741619Y-121104819D01*
X154741619Y-121104819D02*
X154598762Y-121057200D01*
X154598762Y-121057200D02*
X154503524Y-120961961D01*
X154503524Y-120961961D02*
X154455905Y-120866723D01*
X154455905Y-120866723D02*
X154408286Y-120676247D01*
X154408286Y-120676247D02*
X154408286Y-120533390D01*
X154408286Y-120533390D02*
X154455905Y-120342914D01*
X154455905Y-120342914D02*
X154503524Y-120247676D01*
X154503524Y-120247676D02*
X154598762Y-120152438D01*
X154598762Y-120152438D02*
X154741619Y-120104819D01*
X154741619Y-120104819D02*
X154836857Y-120104819D01*
X154836857Y-120104819D02*
X154979714Y-120152438D01*
X154979714Y-120152438D02*
X155027333Y-120200057D01*
X155360667Y-120104819D02*
X156027333Y-120104819D01*
X156027333Y-120104819D02*
X155598762Y-121104819D01*
D14*
X125779999Y-60511071D02*
X125779999Y-60939642D01*
X125779999Y-60939642D02*
X125751428Y-61025357D01*
X125751428Y-61025357D02*
X125694285Y-61082500D01*
X125694285Y-61082500D02*
X125608571Y-61111071D01*
X125608571Y-61111071D02*
X125551428Y-61111071D01*
X126379999Y-61111071D02*
X126037142Y-61111071D01*
X126208571Y-61111071D02*
X126208571Y-60511071D01*
X126208571Y-60511071D02*
X126151428Y-60596785D01*
X126151428Y-60596785D02*
X126094285Y-60653928D01*
X126094285Y-60653928D02*
X126037142Y-60682500D01*
D10*
X129691047Y-57840409D02*
X129833904Y-57888028D01*
X129833904Y-57888028D02*
X129881523Y-57935647D01*
X129881523Y-57935647D02*
X129929142Y-58030885D01*
X129929142Y-58030885D02*
X129929142Y-58173742D01*
X129929142Y-58173742D02*
X129881523Y-58268980D01*
X129881523Y-58268980D02*
X129833904Y-58316600D01*
X129833904Y-58316600D02*
X129738666Y-58364219D01*
X129738666Y-58364219D02*
X129357714Y-58364219D01*
X129357714Y-58364219D02*
X129357714Y-57364219D01*
X129357714Y-57364219D02*
X129691047Y-57364219D01*
X129691047Y-57364219D02*
X129786285Y-57411838D01*
X129786285Y-57411838D02*
X129833904Y-57459457D01*
X129833904Y-57459457D02*
X129881523Y-57554695D01*
X129881523Y-57554695D02*
X129881523Y-57649933D01*
X129881523Y-57649933D02*
X129833904Y-57745171D01*
X129833904Y-57745171D02*
X129786285Y-57792790D01*
X129786285Y-57792790D02*
X129691047Y-57840409D01*
X129691047Y-57840409D02*
X129357714Y-57840409D01*
X130310095Y-58078504D02*
X130786285Y-58078504D01*
X130214857Y-58364219D02*
X130548190Y-57364219D01*
X130548190Y-57364219D02*
X130881523Y-58364219D01*
X131072000Y-57364219D02*
X131643428Y-57364219D01*
X131357714Y-58364219D02*
X131357714Y-57364219D01*
X132738667Y-58364219D02*
X132738667Y-57364219D01*
X133214857Y-58364219D02*
X133214857Y-57364219D01*
X133214857Y-57364219D02*
X133786285Y-58364219D01*
X133786285Y-58364219D02*
X133786285Y-57364219D01*
D11*
X116967095Y-85179819D02*
X116967095Y-85989342D01*
X116967095Y-85989342D02*
X117014714Y-86084580D01*
X117014714Y-86084580D02*
X117062333Y-86132200D01*
X117062333Y-86132200D02*
X117157571Y-86179819D01*
X117157571Y-86179819D02*
X117348047Y-86179819D01*
X117348047Y-86179819D02*
X117443285Y-86132200D01*
X117443285Y-86132200D02*
X117490904Y-86084580D01*
X117490904Y-86084580D02*
X117538523Y-85989342D01*
X117538523Y-85989342D02*
X117538523Y-85179819D01*
X117967095Y-85275057D02*
X118014714Y-85227438D01*
X118014714Y-85227438D02*
X118109952Y-85179819D01*
X118109952Y-85179819D02*
X118348047Y-85179819D01*
X118348047Y-85179819D02*
X118443285Y-85227438D01*
X118443285Y-85227438D02*
X118490904Y-85275057D01*
X118490904Y-85275057D02*
X118538523Y-85370295D01*
X118538523Y-85370295D02*
X118538523Y-85465533D01*
X118538523Y-85465533D02*
X118490904Y-85608390D01*
X118490904Y-85608390D02*
X117919476Y-86179819D01*
X117919476Y-86179819D02*
X118538523Y-86179819D01*
X167981333Y-128978819D02*
X167505143Y-128978819D01*
X167505143Y-128978819D02*
X167505143Y-127978819D01*
X168267048Y-128074057D02*
X168314667Y-128026438D01*
X168314667Y-128026438D02*
X168409905Y-127978819D01*
X168409905Y-127978819D02*
X168648000Y-127978819D01*
X168648000Y-127978819D02*
X168743238Y-128026438D01*
X168743238Y-128026438D02*
X168790857Y-128074057D01*
X168790857Y-128074057D02*
X168838476Y-128169295D01*
X168838476Y-128169295D02*
X168838476Y-128264533D01*
X168838476Y-128264533D02*
X168790857Y-128407390D01*
X168790857Y-128407390D02*
X168219429Y-128978819D01*
X168219429Y-128978819D02*
X168838476Y-128978819D01*
X102703333Y-124057580D02*
X102655714Y-124105200D01*
X102655714Y-124105200D02*
X102512857Y-124152819D01*
X102512857Y-124152819D02*
X102417619Y-124152819D01*
X102417619Y-124152819D02*
X102274762Y-124105200D01*
X102274762Y-124105200D02*
X102179524Y-124009961D01*
X102179524Y-124009961D02*
X102131905Y-123914723D01*
X102131905Y-123914723D02*
X102084286Y-123724247D01*
X102084286Y-123724247D02*
X102084286Y-123581390D01*
X102084286Y-123581390D02*
X102131905Y-123390914D01*
X102131905Y-123390914D02*
X102179524Y-123295676D01*
X102179524Y-123295676D02*
X102274762Y-123200438D01*
X102274762Y-123200438D02*
X102417619Y-123152819D01*
X102417619Y-123152819D02*
X102512857Y-123152819D01*
X102512857Y-123152819D02*
X102655714Y-123200438D01*
X102655714Y-123200438D02*
X102703333Y-123248057D01*
X103560476Y-123486152D02*
X103560476Y-124152819D01*
X103322381Y-123105200D02*
X103084286Y-123819485D01*
X103084286Y-123819485D02*
X103703333Y-123819485D01*
X135247142Y-133201580D02*
X135199523Y-133249200D01*
X135199523Y-133249200D02*
X135056666Y-133296819D01*
X135056666Y-133296819D02*
X134961428Y-133296819D01*
X134961428Y-133296819D02*
X134818571Y-133249200D01*
X134818571Y-133249200D02*
X134723333Y-133153961D01*
X134723333Y-133153961D02*
X134675714Y-133058723D01*
X134675714Y-133058723D02*
X134628095Y-132868247D01*
X134628095Y-132868247D02*
X134628095Y-132725390D01*
X134628095Y-132725390D02*
X134675714Y-132534914D01*
X134675714Y-132534914D02*
X134723333Y-132439676D01*
X134723333Y-132439676D02*
X134818571Y-132344438D01*
X134818571Y-132344438D02*
X134961428Y-132296819D01*
X134961428Y-132296819D02*
X135056666Y-132296819D01*
X135056666Y-132296819D02*
X135199523Y-132344438D01*
X135199523Y-132344438D02*
X135247142Y-132392057D01*
X136199523Y-133296819D02*
X135628095Y-133296819D01*
X135913809Y-133296819D02*
X135913809Y-132296819D01*
X135913809Y-132296819D02*
X135818571Y-132439676D01*
X135818571Y-132439676D02*
X135723333Y-132534914D01*
X135723333Y-132534914D02*
X135628095Y-132582533D01*
X136818571Y-132296819D02*
X136913809Y-132296819D01*
X136913809Y-132296819D02*
X137009047Y-132344438D01*
X137009047Y-132344438D02*
X137056666Y-132392057D01*
X137056666Y-132392057D02*
X137104285Y-132487295D01*
X137104285Y-132487295D02*
X137151904Y-132677771D01*
X137151904Y-132677771D02*
X137151904Y-132915866D01*
X137151904Y-132915866D02*
X137104285Y-133106342D01*
X137104285Y-133106342D02*
X137056666Y-133201580D01*
X137056666Y-133201580D02*
X137009047Y-133249200D01*
X137009047Y-133249200D02*
X136913809Y-133296819D01*
X136913809Y-133296819D02*
X136818571Y-133296819D01*
X136818571Y-133296819D02*
X136723333Y-133249200D01*
X136723333Y-133249200D02*
X136675714Y-133201580D01*
X136675714Y-133201580D02*
X136628095Y-133106342D01*
X136628095Y-133106342D02*
X136580476Y-132915866D01*
X136580476Y-132915866D02*
X136580476Y-132677771D01*
X136580476Y-132677771D02*
X136628095Y-132487295D01*
X136628095Y-132487295D02*
X136675714Y-132392057D01*
X136675714Y-132392057D02*
X136723333Y-132344438D01*
X136723333Y-132344438D02*
X136818571Y-132296819D01*
X139104761Y-87934819D02*
X138771428Y-87458628D01*
X138533333Y-87934819D02*
X138533333Y-86934819D01*
X138533333Y-86934819D02*
X138914285Y-86934819D01*
X138914285Y-86934819D02*
X139009523Y-86982438D01*
X139009523Y-86982438D02*
X139057142Y-87030057D01*
X139057142Y-87030057D02*
X139104761Y-87125295D01*
X139104761Y-87125295D02*
X139104761Y-87268152D01*
X139104761Y-87268152D02*
X139057142Y-87363390D01*
X139057142Y-87363390D02*
X139009523Y-87411009D01*
X139009523Y-87411009D02*
X138914285Y-87458628D01*
X138914285Y-87458628D02*
X138533333Y-87458628D01*
X139390476Y-86934819D02*
X139723809Y-87934819D01*
X139723809Y-87934819D02*
X140057142Y-86934819D01*
X140342857Y-87030057D02*
X140390476Y-86982438D01*
X140390476Y-86982438D02*
X140485714Y-86934819D01*
X140485714Y-86934819D02*
X140723809Y-86934819D01*
X140723809Y-86934819D02*
X140819047Y-86982438D01*
X140819047Y-86982438D02*
X140866666Y-87030057D01*
X140866666Y-87030057D02*
X140914285Y-87125295D01*
X140914285Y-87125295D02*
X140914285Y-87220533D01*
X140914285Y-87220533D02*
X140866666Y-87363390D01*
X140866666Y-87363390D02*
X140295238Y-87934819D01*
X140295238Y-87934819D02*
X140914285Y-87934819D01*
X114387333Y-93418819D02*
X114054000Y-92942628D01*
X113815905Y-93418819D02*
X113815905Y-92418819D01*
X113815905Y-92418819D02*
X114196857Y-92418819D01*
X114196857Y-92418819D02*
X114292095Y-92466438D01*
X114292095Y-92466438D02*
X114339714Y-92514057D01*
X114339714Y-92514057D02*
X114387333Y-92609295D01*
X114387333Y-92609295D02*
X114387333Y-92752152D01*
X114387333Y-92752152D02*
X114339714Y-92847390D01*
X114339714Y-92847390D02*
X114292095Y-92895009D01*
X114292095Y-92895009D02*
X114196857Y-92942628D01*
X114196857Y-92942628D02*
X113815905Y-92942628D01*
X114720667Y-92418819D02*
X115387333Y-92418819D01*
X115387333Y-92418819D02*
X114958762Y-93418819D01*
X143502142Y-114119819D02*
X143168809Y-113643628D01*
X142930714Y-114119819D02*
X142930714Y-113119819D01*
X142930714Y-113119819D02*
X143311666Y-113119819D01*
X143311666Y-113119819D02*
X143406904Y-113167438D01*
X143406904Y-113167438D02*
X143454523Y-113215057D01*
X143454523Y-113215057D02*
X143502142Y-113310295D01*
X143502142Y-113310295D02*
X143502142Y-113453152D01*
X143502142Y-113453152D02*
X143454523Y-113548390D01*
X143454523Y-113548390D02*
X143406904Y-113596009D01*
X143406904Y-113596009D02*
X143311666Y-113643628D01*
X143311666Y-113643628D02*
X142930714Y-113643628D01*
X144454523Y-114119819D02*
X143883095Y-114119819D01*
X144168809Y-114119819D02*
X144168809Y-113119819D01*
X144168809Y-113119819D02*
X144073571Y-113262676D01*
X144073571Y-113262676D02*
X143978333Y-113357914D01*
X143978333Y-113357914D02*
X143883095Y-113405533D01*
X144835476Y-113215057D02*
X144883095Y-113167438D01*
X144883095Y-113167438D02*
X144978333Y-113119819D01*
X144978333Y-113119819D02*
X145216428Y-113119819D01*
X145216428Y-113119819D02*
X145311666Y-113167438D01*
X145311666Y-113167438D02*
X145359285Y-113215057D01*
X145359285Y-113215057D02*
X145406904Y-113310295D01*
X145406904Y-113310295D02*
X145406904Y-113405533D01*
X145406904Y-113405533D02*
X145359285Y-113548390D01*
X145359285Y-113548390D02*
X144787857Y-114119819D01*
X144787857Y-114119819D02*
X145406904Y-114119819D01*
X143978333Y-100689580D02*
X143930714Y-100737200D01*
X143930714Y-100737200D02*
X143787857Y-100784819D01*
X143787857Y-100784819D02*
X143692619Y-100784819D01*
X143692619Y-100784819D02*
X143549762Y-100737200D01*
X143549762Y-100737200D02*
X143454524Y-100641961D01*
X143454524Y-100641961D02*
X143406905Y-100546723D01*
X143406905Y-100546723D02*
X143359286Y-100356247D01*
X143359286Y-100356247D02*
X143359286Y-100213390D01*
X143359286Y-100213390D02*
X143406905Y-100022914D01*
X143406905Y-100022914D02*
X143454524Y-99927676D01*
X143454524Y-99927676D02*
X143549762Y-99832438D01*
X143549762Y-99832438D02*
X143692619Y-99784819D01*
X143692619Y-99784819D02*
X143787857Y-99784819D01*
X143787857Y-99784819D02*
X143930714Y-99832438D01*
X143930714Y-99832438D02*
X143978333Y-99880057D01*
X144549762Y-100213390D02*
X144454524Y-100165771D01*
X144454524Y-100165771D02*
X144406905Y-100118152D01*
X144406905Y-100118152D02*
X144359286Y-100022914D01*
X144359286Y-100022914D02*
X144359286Y-99975295D01*
X144359286Y-99975295D02*
X144406905Y-99880057D01*
X144406905Y-99880057D02*
X144454524Y-99832438D01*
X144454524Y-99832438D02*
X144549762Y-99784819D01*
X144549762Y-99784819D02*
X144740238Y-99784819D01*
X144740238Y-99784819D02*
X144835476Y-99832438D01*
X144835476Y-99832438D02*
X144883095Y-99880057D01*
X144883095Y-99880057D02*
X144930714Y-99975295D01*
X144930714Y-99975295D02*
X144930714Y-100022914D01*
X144930714Y-100022914D02*
X144883095Y-100118152D01*
X144883095Y-100118152D02*
X144835476Y-100165771D01*
X144835476Y-100165771D02*
X144740238Y-100213390D01*
X144740238Y-100213390D02*
X144549762Y-100213390D01*
X144549762Y-100213390D02*
X144454524Y-100261009D01*
X144454524Y-100261009D02*
X144406905Y-100308628D01*
X144406905Y-100308628D02*
X144359286Y-100403866D01*
X144359286Y-100403866D02*
X144359286Y-100594342D01*
X144359286Y-100594342D02*
X144406905Y-100689580D01*
X144406905Y-100689580D02*
X144454524Y-100737200D01*
X144454524Y-100737200D02*
X144549762Y-100784819D01*
X144549762Y-100784819D02*
X144740238Y-100784819D01*
X144740238Y-100784819D02*
X144835476Y-100737200D01*
X144835476Y-100737200D02*
X144883095Y-100689580D01*
X144883095Y-100689580D02*
X144930714Y-100594342D01*
X144930714Y-100594342D02*
X144930714Y-100403866D01*
X144930714Y-100403866D02*
X144883095Y-100308628D01*
X144883095Y-100308628D02*
X144835476Y-100261009D01*
X144835476Y-100261009D02*
X144740238Y-100213390D01*
X126833333Y-124311580D02*
X126785714Y-124359200D01*
X126785714Y-124359200D02*
X126642857Y-124406819D01*
X126642857Y-124406819D02*
X126547619Y-124406819D01*
X126547619Y-124406819D02*
X126404762Y-124359200D01*
X126404762Y-124359200D02*
X126309524Y-124263961D01*
X126309524Y-124263961D02*
X126261905Y-124168723D01*
X126261905Y-124168723D02*
X126214286Y-123978247D01*
X126214286Y-123978247D02*
X126214286Y-123835390D01*
X126214286Y-123835390D02*
X126261905Y-123644914D01*
X126261905Y-123644914D02*
X126309524Y-123549676D01*
X126309524Y-123549676D02*
X126404762Y-123454438D01*
X126404762Y-123454438D02*
X126547619Y-123406819D01*
X126547619Y-123406819D02*
X126642857Y-123406819D01*
X126642857Y-123406819D02*
X126785714Y-123454438D01*
X126785714Y-123454438D02*
X126833333Y-123502057D01*
X127738095Y-123406819D02*
X127261905Y-123406819D01*
X127261905Y-123406819D02*
X127214286Y-123883009D01*
X127214286Y-123883009D02*
X127261905Y-123835390D01*
X127261905Y-123835390D02*
X127357143Y-123787771D01*
X127357143Y-123787771D02*
X127595238Y-123787771D01*
X127595238Y-123787771D02*
X127690476Y-123835390D01*
X127690476Y-123835390D02*
X127738095Y-123883009D01*
X127738095Y-123883009D02*
X127785714Y-123978247D01*
X127785714Y-123978247D02*
X127785714Y-124216342D01*
X127785714Y-124216342D02*
X127738095Y-124311580D01*
X127738095Y-124311580D02*
X127690476Y-124359200D01*
X127690476Y-124359200D02*
X127595238Y-124406819D01*
X127595238Y-124406819D02*
X127357143Y-124406819D01*
X127357143Y-124406819D02*
X127261905Y-124359200D01*
X127261905Y-124359200D02*
X127214286Y-124311580D01*
X135723333Y-121009580D02*
X135675714Y-121057200D01*
X135675714Y-121057200D02*
X135532857Y-121104819D01*
X135532857Y-121104819D02*
X135437619Y-121104819D01*
X135437619Y-121104819D02*
X135294762Y-121057200D01*
X135294762Y-121057200D02*
X135199524Y-120961961D01*
X135199524Y-120961961D02*
X135151905Y-120866723D01*
X135151905Y-120866723D02*
X135104286Y-120676247D01*
X135104286Y-120676247D02*
X135104286Y-120533390D01*
X135104286Y-120533390D02*
X135151905Y-120342914D01*
X135151905Y-120342914D02*
X135199524Y-120247676D01*
X135199524Y-120247676D02*
X135294762Y-120152438D01*
X135294762Y-120152438D02*
X135437619Y-120104819D01*
X135437619Y-120104819D02*
X135532857Y-120104819D01*
X135532857Y-120104819D02*
X135675714Y-120152438D01*
X135675714Y-120152438D02*
X135723333Y-120200057D01*
X136199524Y-121104819D02*
X136390000Y-121104819D01*
X136390000Y-121104819D02*
X136485238Y-121057200D01*
X136485238Y-121057200D02*
X136532857Y-121009580D01*
X136532857Y-121009580D02*
X136628095Y-120866723D01*
X136628095Y-120866723D02*
X136675714Y-120676247D01*
X136675714Y-120676247D02*
X136675714Y-120295295D01*
X136675714Y-120295295D02*
X136628095Y-120200057D01*
X136628095Y-120200057D02*
X136580476Y-120152438D01*
X136580476Y-120152438D02*
X136485238Y-120104819D01*
X136485238Y-120104819D02*
X136294762Y-120104819D01*
X136294762Y-120104819D02*
X136199524Y-120152438D01*
X136199524Y-120152438D02*
X136151905Y-120200057D01*
X136151905Y-120200057D02*
X136104286Y-120295295D01*
X136104286Y-120295295D02*
X136104286Y-120533390D01*
X136104286Y-120533390D02*
X136151905Y-120628628D01*
X136151905Y-120628628D02*
X136199524Y-120676247D01*
X136199524Y-120676247D02*
X136294762Y-120723866D01*
X136294762Y-120723866D02*
X136485238Y-120723866D01*
X136485238Y-120723866D02*
X136580476Y-120676247D01*
X136580476Y-120676247D02*
X136628095Y-120628628D01*
X136628095Y-120628628D02*
X136675714Y-120533390D01*
X149756905Y-87684819D02*
X149756905Y-86684819D01*
X149756905Y-86684819D02*
X149995000Y-86684819D01*
X149995000Y-86684819D02*
X150137857Y-86732438D01*
X150137857Y-86732438D02*
X150233095Y-86827676D01*
X150233095Y-86827676D02*
X150280714Y-86922914D01*
X150280714Y-86922914D02*
X150328333Y-87113390D01*
X150328333Y-87113390D02*
X150328333Y-87256247D01*
X150328333Y-87256247D02*
X150280714Y-87446723D01*
X150280714Y-87446723D02*
X150233095Y-87541961D01*
X150233095Y-87541961D02*
X150137857Y-87637200D01*
X150137857Y-87637200D02*
X149995000Y-87684819D01*
X149995000Y-87684819D02*
X149756905Y-87684819D01*
X150709286Y-86780057D02*
X150756905Y-86732438D01*
X150756905Y-86732438D02*
X150852143Y-86684819D01*
X150852143Y-86684819D02*
X151090238Y-86684819D01*
X151090238Y-86684819D02*
X151185476Y-86732438D01*
X151185476Y-86732438D02*
X151233095Y-86780057D01*
X151233095Y-86780057D02*
X151280714Y-86875295D01*
X151280714Y-86875295D02*
X151280714Y-86970533D01*
X151280714Y-86970533D02*
X151233095Y-87113390D01*
X151233095Y-87113390D02*
X150661667Y-87684819D01*
X150661667Y-87684819D02*
X151280714Y-87684819D01*
X159019999Y-121104819D02*
X158686666Y-120628628D01*
X158448571Y-121104819D02*
X158448571Y-120104819D01*
X158448571Y-120104819D02*
X158829523Y-120104819D01*
X158829523Y-120104819D02*
X158924761Y-120152438D01*
X158924761Y-120152438D02*
X158972380Y-120200057D01*
X158972380Y-120200057D02*
X159019999Y-120295295D01*
X159019999Y-120295295D02*
X159019999Y-120438152D01*
X159019999Y-120438152D02*
X158972380Y-120533390D01*
X158972380Y-120533390D02*
X158924761Y-120581009D01*
X158924761Y-120581009D02*
X158829523Y-120628628D01*
X158829523Y-120628628D02*
X158448571Y-120628628D01*
X159877142Y-121057200D02*
X159781904Y-121104819D01*
X159781904Y-121104819D02*
X159591428Y-121104819D01*
X159591428Y-121104819D02*
X159496190Y-121057200D01*
X159496190Y-121057200D02*
X159448571Y-121009580D01*
X159448571Y-121009580D02*
X159400952Y-120914342D01*
X159400952Y-120914342D02*
X159400952Y-120628628D01*
X159400952Y-120628628D02*
X159448571Y-120533390D01*
X159448571Y-120533390D02*
X159496190Y-120485771D01*
X159496190Y-120485771D02*
X159591428Y-120438152D01*
X159591428Y-120438152D02*
X159781904Y-120438152D01*
X159781904Y-120438152D02*
X159877142Y-120485771D01*
X160258095Y-121057200D02*
X160353333Y-121104819D01*
X160353333Y-121104819D02*
X160543809Y-121104819D01*
X160543809Y-121104819D02*
X160639047Y-121057200D01*
X160639047Y-121057200D02*
X160686666Y-120961961D01*
X160686666Y-120961961D02*
X160686666Y-120914342D01*
X160686666Y-120914342D02*
X160639047Y-120819104D01*
X160639047Y-120819104D02*
X160543809Y-120771485D01*
X160543809Y-120771485D02*
X160400952Y-120771485D01*
X160400952Y-120771485D02*
X160305714Y-120723866D01*
X160305714Y-120723866D02*
X160258095Y-120628628D01*
X160258095Y-120628628D02*
X160258095Y-120581009D01*
X160258095Y-120581009D02*
X160305714Y-120485771D01*
X160305714Y-120485771D02*
X160400952Y-120438152D01*
X160400952Y-120438152D02*
X160543809Y-120438152D01*
X160543809Y-120438152D02*
X160639047Y-120485771D01*
X161067619Y-120200057D02*
X161115238Y-120152438D01*
X161115238Y-120152438D02*
X161210476Y-120104819D01*
X161210476Y-120104819D02*
X161448571Y-120104819D01*
X161448571Y-120104819D02*
X161543809Y-120152438D01*
X161543809Y-120152438D02*
X161591428Y-120200057D01*
X161591428Y-120200057D02*
X161639047Y-120295295D01*
X161639047Y-120295295D02*
X161639047Y-120390533D01*
X161639047Y-120390533D02*
X161591428Y-120533390D01*
X161591428Y-120533390D02*
X161020000Y-121104819D01*
X161020000Y-121104819D02*
X161639047Y-121104819D01*
X118618095Y-123224819D02*
X118618095Y-124034342D01*
X118618095Y-124034342D02*
X118665714Y-124129580D01*
X118665714Y-124129580D02*
X118713333Y-124177200D01*
X118713333Y-124177200D02*
X118808571Y-124224819D01*
X118808571Y-124224819D02*
X118999047Y-124224819D01*
X118999047Y-124224819D02*
X119094285Y-124177200D01*
X119094285Y-124177200D02*
X119141904Y-124129580D01*
X119141904Y-124129580D02*
X119189523Y-124034342D01*
X119189523Y-124034342D02*
X119189523Y-123224819D01*
X119808571Y-123653390D02*
X119713333Y-123605771D01*
X119713333Y-123605771D02*
X119665714Y-123558152D01*
X119665714Y-123558152D02*
X119618095Y-123462914D01*
X119618095Y-123462914D02*
X119618095Y-123415295D01*
X119618095Y-123415295D02*
X119665714Y-123320057D01*
X119665714Y-123320057D02*
X119713333Y-123272438D01*
X119713333Y-123272438D02*
X119808571Y-123224819D01*
X119808571Y-123224819D02*
X119999047Y-123224819D01*
X119999047Y-123224819D02*
X120094285Y-123272438D01*
X120094285Y-123272438D02*
X120141904Y-123320057D01*
X120141904Y-123320057D02*
X120189523Y-123415295D01*
X120189523Y-123415295D02*
X120189523Y-123462914D01*
X120189523Y-123462914D02*
X120141904Y-123558152D01*
X120141904Y-123558152D02*
X120094285Y-123605771D01*
X120094285Y-123605771D02*
X119999047Y-123653390D01*
X119999047Y-123653390D02*
X119808571Y-123653390D01*
X119808571Y-123653390D02*
X119713333Y-123701009D01*
X119713333Y-123701009D02*
X119665714Y-123748628D01*
X119665714Y-123748628D02*
X119618095Y-123843866D01*
X119618095Y-123843866D02*
X119618095Y-124034342D01*
X119618095Y-124034342D02*
X119665714Y-124129580D01*
X119665714Y-124129580D02*
X119713333Y-124177200D01*
X119713333Y-124177200D02*
X119808571Y-124224819D01*
X119808571Y-124224819D02*
X119999047Y-124224819D01*
X119999047Y-124224819D02*
X120094285Y-124177200D01*
X120094285Y-124177200D02*
X120141904Y-124129580D01*
X120141904Y-124129580D02*
X120189523Y-124034342D01*
X120189523Y-124034342D02*
X120189523Y-123843866D01*
X120189523Y-123843866D02*
X120141904Y-123748628D01*
X120141904Y-123748628D02*
X120094285Y-123701009D01*
X120094285Y-123701009D02*
X119999047Y-123653390D01*
X145678095Y-126454819D02*
X145678095Y-127264342D01*
X145678095Y-127264342D02*
X145725714Y-127359580D01*
X145725714Y-127359580D02*
X145773333Y-127407200D01*
X145773333Y-127407200D02*
X145868571Y-127454819D01*
X145868571Y-127454819D02*
X146059047Y-127454819D01*
X146059047Y-127454819D02*
X146154285Y-127407200D01*
X146154285Y-127407200D02*
X146201904Y-127359580D01*
X146201904Y-127359580D02*
X146249523Y-127264342D01*
X146249523Y-127264342D02*
X146249523Y-126454819D01*
X147154285Y-126454819D02*
X146963809Y-126454819D01*
X146963809Y-126454819D02*
X146868571Y-126502438D01*
X146868571Y-126502438D02*
X146820952Y-126550057D01*
X146820952Y-126550057D02*
X146725714Y-126692914D01*
X146725714Y-126692914D02*
X146678095Y-126883390D01*
X146678095Y-126883390D02*
X146678095Y-127264342D01*
X146678095Y-127264342D02*
X146725714Y-127359580D01*
X146725714Y-127359580D02*
X146773333Y-127407200D01*
X146773333Y-127407200D02*
X146868571Y-127454819D01*
X146868571Y-127454819D02*
X147059047Y-127454819D01*
X147059047Y-127454819D02*
X147154285Y-127407200D01*
X147154285Y-127407200D02*
X147201904Y-127359580D01*
X147201904Y-127359580D02*
X147249523Y-127264342D01*
X147249523Y-127264342D02*
X147249523Y-127026247D01*
X147249523Y-127026247D02*
X147201904Y-126931009D01*
X147201904Y-126931009D02*
X147154285Y-126883390D01*
X147154285Y-126883390D02*
X147059047Y-126835771D01*
X147059047Y-126835771D02*
X146868571Y-126835771D01*
X146868571Y-126835771D02*
X146773333Y-126883390D01*
X146773333Y-126883390D02*
X146725714Y-126931009D01*
X146725714Y-126931009D02*
X146678095Y-127026247D01*
X122455180Y-109718095D02*
X121645657Y-109718095D01*
X121645657Y-109718095D02*
X121550419Y-109765714D01*
X121550419Y-109765714D02*
X121502800Y-109813333D01*
X121502800Y-109813333D02*
X121455180Y-109908571D01*
X121455180Y-109908571D02*
X121455180Y-110099047D01*
X121455180Y-110099047D02*
X121502800Y-110194285D01*
X121502800Y-110194285D02*
X121550419Y-110241904D01*
X121550419Y-110241904D02*
X121645657Y-110289523D01*
X121645657Y-110289523D02*
X122455180Y-110289523D01*
X122455180Y-110670476D02*
X122455180Y-111337142D01*
X122455180Y-111337142D02*
X121455180Y-110908571D01*
X177061905Y-77416819D02*
X177061905Y-76416819D01*
X177061905Y-76416819D02*
X177300000Y-76416819D01*
X177300000Y-76416819D02*
X177442857Y-76464438D01*
X177442857Y-76464438D02*
X177538095Y-76559676D01*
X177538095Y-76559676D02*
X177585714Y-76654914D01*
X177585714Y-76654914D02*
X177633333Y-76845390D01*
X177633333Y-76845390D02*
X177633333Y-76988247D01*
X177633333Y-76988247D02*
X177585714Y-77178723D01*
X177585714Y-77178723D02*
X177538095Y-77273961D01*
X177538095Y-77273961D02*
X177442857Y-77369200D01*
X177442857Y-77369200D02*
X177300000Y-77416819D01*
X177300000Y-77416819D02*
X177061905Y-77416819D01*
X177966667Y-76416819D02*
X178633333Y-76416819D01*
X178633333Y-76416819D02*
X178204762Y-77416819D01*
X124333095Y-85179819D02*
X124333095Y-85989342D01*
X124333095Y-85989342D02*
X124380714Y-86084580D01*
X124380714Y-86084580D02*
X124428333Y-86132200D01*
X124428333Y-86132200D02*
X124523571Y-86179819D01*
X124523571Y-86179819D02*
X124714047Y-86179819D01*
X124714047Y-86179819D02*
X124809285Y-86132200D01*
X124809285Y-86132200D02*
X124856904Y-86084580D01*
X124856904Y-86084580D02*
X124904523Y-85989342D01*
X124904523Y-85989342D02*
X124904523Y-85179819D01*
X125285476Y-85179819D02*
X125904523Y-85179819D01*
X125904523Y-85179819D02*
X125571190Y-85560771D01*
X125571190Y-85560771D02*
X125714047Y-85560771D01*
X125714047Y-85560771D02*
X125809285Y-85608390D01*
X125809285Y-85608390D02*
X125856904Y-85656009D01*
X125856904Y-85656009D02*
X125904523Y-85751247D01*
X125904523Y-85751247D02*
X125904523Y-85989342D01*
X125904523Y-85989342D02*
X125856904Y-86084580D01*
X125856904Y-86084580D02*
X125809285Y-86132200D01*
X125809285Y-86132200D02*
X125714047Y-86179819D01*
X125714047Y-86179819D02*
X125428333Y-86179819D01*
X125428333Y-86179819D02*
X125333095Y-86132200D01*
X125333095Y-86132200D02*
X125285476Y-86084580D01*
D15*
X140992224Y-106157500D02*
X140482776Y-106157500D01*
X140992224Y-107202500D02*
X140482776Y-107202500D01*
X112122936Y-74490000D02*
X116477064Y-74490000D01*
X112122936Y-77910000D02*
X116477064Y-77910000D01*
X150395000Y-123417064D02*
X150395000Y-122962936D01*
X151865000Y-123417064D02*
X151865000Y-122962936D01*
X89906000Y-76078000D02*
X89906000Y-90198000D01*
X89906000Y-78638000D02*
X94266000Y-78638000D01*
X89906000Y-90198000D02*
X97726000Y-90198000D01*
X92166000Y-76838000D02*
X92166000Y-77838000D01*
X92166000Y-77338000D02*
X89906000Y-77338000D01*
X92166000Y-77838000D02*
X89906000Y-77838000D01*
X92166000Y-77838000D02*
X93766000Y-77838000D01*
X92166000Y-88438000D02*
X93766000Y-88438000D01*
X92166000Y-89438000D02*
X92166000Y-88438000D01*
X93766000Y-76838000D02*
X92166000Y-76838000D01*
X93766000Y-77838000D02*
X93766000Y-76838000D01*
X93766000Y-88438000D02*
X93766000Y-89438000D01*
X93766000Y-89438000D02*
X92166000Y-89438000D01*
X94266000Y-78638000D02*
X94266000Y-87638000D01*
X94266000Y-87638000D02*
X89906000Y-87638000D01*
X96126000Y-76078000D02*
X96126000Y-76998000D01*
X96126000Y-76998000D02*
X97726000Y-76998000D01*
X96126000Y-77278000D02*
X96126000Y-76998000D01*
X96126000Y-77278000D02*
X97341000Y-77278000D01*
X96126000Y-89278000D02*
X96126000Y-88998000D01*
X96126000Y-90198000D02*
X96126000Y-89278000D01*
X97726000Y-76078000D02*
X89906000Y-76078000D01*
X97726000Y-76998000D02*
X97726000Y-76078000D01*
X97726000Y-89278000D02*
X96126000Y-89278000D01*
X97726000Y-90198000D02*
X97726000Y-89278000D01*
X157180000Y-130430000D02*
X151670000Y-130430000D01*
X157180000Y-133730000D02*
X151670000Y-133730000D01*
X157180000Y-133730000D02*
X157180000Y-130430000D01*
X163549064Y-103151000D02*
X163094936Y-103151000D01*
X163549064Y-104621000D02*
X163094936Y-104621000D01*
X129425000Y-102815000D02*
X129425000Y-108015000D01*
X129425000Y-108015000D02*
X131074999Y-108015000D01*
X133075000Y-108015000D02*
X134725000Y-108015000D01*
X134725000Y-102815000D02*
X129425000Y-102815000D01*
X134725000Y-108015000D02*
X134725000Y-102815000D01*
X131074999Y-108015000D02*
G75*
G02*
X133074999Y-108015000I1000000J-1D01*
G01*
X154125000Y-98165000D02*
X154125000Y-78365000D01*
X155875000Y-83315000D02*
X155875000Y-85815000D01*
X157725000Y-93915000D02*
X160175000Y-93915000D01*
X158275000Y-89215000D02*
X158275000Y-82415000D01*
X160075000Y-83815000D02*
X163675000Y-83815000D01*
X160075000Y-85815000D02*
X155875000Y-85815000D01*
X160075000Y-87815000D02*
X160075000Y-83815000D01*
X160075000Y-87815000D02*
X163675000Y-83815000D01*
X160725000Y-78365000D02*
X154125000Y-78365000D01*
X161875000Y-82415000D02*
X158275000Y-82415000D01*
X161875000Y-82415000D02*
X161875000Y-81615000D01*
X161875000Y-89215000D02*
X158275000Y-89215000D01*
X161875000Y-89215000D02*
X161875000Y-90715000D01*
X161875000Y-90715000D02*
X159675000Y-94965000D01*
X163675000Y-83815000D02*
X163675000Y-87815000D01*
X163675000Y-87815000D02*
X160075000Y-87815000D01*
X166125000Y-93915000D02*
X163625000Y-93915000D01*
X167875000Y-85815000D02*
X163675000Y-85815000D01*
X167875000Y-85815000D02*
X167875000Y-83315000D01*
X169725000Y-78365000D02*
X163125000Y-78365000D01*
X169725000Y-78365000D02*
X169725000Y-98165000D01*
X169725000Y-98165000D02*
X154125000Y-98165000D01*
X103329000Y-79512000D02*
X113079000Y-79512000D01*
X103329000Y-84562000D02*
X103329000Y-79512000D01*
X113079000Y-79512000D02*
X113079000Y-84562000D01*
X113079000Y-84562000D02*
X103329000Y-84562000D01*
X138965000Y-124198747D02*
X138965000Y-124721253D01*
X140435000Y-124198747D02*
X140435000Y-124721253D01*
X163094936Y-108231000D02*
X163549064Y-108231000D01*
X163094936Y-109701000D02*
X163549064Y-109701000D01*
X143930000Y-118952500D02*
X144930000Y-118952500D01*
X143930000Y-120472500D02*
X143930000Y-118952500D01*
X143980000Y-120472500D02*
X143930000Y-120472500D01*
X145880000Y-120472500D02*
X145100000Y-120472500D01*
X146050000Y-118952500D02*
X147050000Y-118952500D01*
X147050000Y-118952500D02*
X147050000Y-120472500D01*
X147050000Y-120472500D02*
X147000000Y-120472500D01*
X145440000Y-121252500D02*
X145110000Y-121012500D01*
X145440000Y-120772500D01*
X145440000Y-121252500D01*
G36*
X145440000Y-121252500D02*
G01*
X145110000Y-121012500D01*
X145440000Y-120772500D01*
X145440000Y-121252500D01*
G37*
X105170000Y-125607500D02*
X105170000Y-130002500D01*
X105170000Y-130002500D02*
X108190000Y-130002500D01*
X108190000Y-130002500D02*
X108190000Y-125607500D01*
X138802000Y-109755000D02*
X138802000Y-111225000D01*
X138802000Y-111225000D02*
X141262000Y-111225000D01*
X141262000Y-109755000D02*
X138802000Y-109755000D01*
X171785000Y-120270000D02*
X166275000Y-120270000D01*
X171785000Y-123570000D02*
X166275000Y-123570000D01*
X171785000Y-123570000D02*
X171785000Y-120270000D01*
D14*
X104140000Y-60040000D02*
X104140000Y-72040000D01*
X104140000Y-72040000D02*
X111760000Y-72040000D01*
D15*
X105773624Y-61873098D02*
X109160000Y-67090000D01*
X106832377Y-61124691D02*
X110287624Y-66355310D01*
D14*
X111760000Y-60040000D02*
X104140000Y-60040000D01*
X111760000Y-60040000D02*
X119380000Y-60040000D01*
X111760000Y-71040000D02*
X111760000Y-61040000D01*
D15*
X113466812Y-61881549D02*
X116853188Y-67098451D01*
X114525565Y-61133142D02*
X117980812Y-66363761D01*
D14*
X119380000Y-60040000D02*
X119380000Y-72040000D01*
X119380000Y-72040000D02*
X111760000Y-72040000D01*
D15*
X111161562Y-64140000D02*
G75*
G02*
X104758438Y-64140000I-3201562J0D01*
G01*
X104758438Y-64140000D02*
G75*
G02*
X111161562Y-64140000I3201562J0D01*
G01*
X118860000Y-64140000D02*
G75*
G02*
X112456876Y-64140000I-3201562J0D01*
G01*
X112456876Y-64140000D02*
G75*
G02*
X118860000Y-64140000I3201562J0D01*
G01*
X111025000Y-96477064D02*
X111025000Y-96022936D01*
X112495000Y-96477064D02*
X112495000Y-96022936D01*
D14*
X152400000Y-60040000D02*
X152400000Y-72040000D01*
X152400000Y-72040000D02*
X160020000Y-72040000D01*
D15*
X154033624Y-61873098D02*
X157419999Y-67090000D01*
X155092377Y-61124691D02*
X158547624Y-66355310D01*
D14*
X160020000Y-60040000D02*
X152400000Y-60040000D01*
X160020000Y-60040000D02*
X167640000Y-60040000D01*
X160020000Y-71040000D02*
X160020000Y-61040000D01*
D15*
X161726812Y-61881549D02*
X165113188Y-67098451D01*
X162785565Y-61133142D02*
X166240812Y-66363761D01*
D14*
X167640000Y-60040000D02*
X167640000Y-72040000D01*
X167640000Y-72040000D02*
X160020000Y-72040000D01*
D15*
X159421562Y-64140000D02*
G75*
G02*
X153018438Y-64140000I-3201562J0D01*
G01*
X153018438Y-64140000D02*
G75*
G02*
X159421562Y-64140000I3201562J0D01*
G01*
X167120000Y-64140000D02*
G75*
G02*
X160716876Y-64140000I-3201562J0D01*
G01*
X160716876Y-64140000D02*
G75*
G02*
X167120000Y-64140000I3201562J0D01*
G01*
X110249999Y-125607500D02*
X110249999Y-130002500D01*
X110249999Y-130002500D02*
X113269999Y-130002500D01*
X113269999Y-130002500D02*
X113269999Y-125607500D01*
X151680000Y-106630000D02*
X155660000Y-106630000D01*
X151680000Y-106730000D02*
X151680000Y-106630000D01*
X151680000Y-111810000D02*
X151680000Y-111710000D01*
X155660000Y-106630000D02*
X155660000Y-106730000D01*
X155660000Y-111710000D02*
X155660000Y-111810000D01*
X155660000Y-111810000D02*
X151680000Y-111810000D01*
X156450000Y-112050000D02*
X155970000Y-112050000D01*
X156210000Y-111720000D01*
X156450000Y-112050000D01*
G36*
X156450000Y-112050000D02*
G01*
X155970000Y-112050000D01*
X156210000Y-111720000D01*
X156450000Y-112050000D01*
G37*
X138965000Y-129767064D02*
X138965000Y-129312936D01*
X140435000Y-129767064D02*
X140435000Y-129312936D01*
X129425000Y-110435000D02*
X129425000Y-115635000D01*
X129425000Y-115635000D02*
X131074999Y-115635000D01*
X133075000Y-115635000D02*
X134725000Y-115635000D01*
X134725000Y-110435000D02*
X129425000Y-110435000D01*
X134725000Y-115635000D02*
X134725000Y-110435000D01*
X131074999Y-115635000D02*
G75*
G02*
X133074999Y-115635000I1000000J-1D01*
G01*
X163094936Y-105691000D02*
X163549064Y-105691000D01*
X163094936Y-107161000D02*
X163549064Y-107161000D01*
X150205000Y-99570000D02*
X151205000Y-99570000D01*
X150205000Y-101090000D02*
X150205000Y-99570000D01*
X150255000Y-101090000D02*
X150205000Y-101090000D01*
X152155000Y-101090000D02*
X151375000Y-101090000D01*
X152325000Y-99570000D02*
X153325000Y-99570000D01*
X153325000Y-99570000D02*
X153325000Y-101090000D01*
X153325000Y-101090000D02*
X153275000Y-101090000D01*
X151715000Y-101870000D02*
X151385000Y-101630000D01*
X151715000Y-101390000D01*
X151715000Y-101870000D01*
G36*
X151715000Y-101870000D02*
G01*
X151385000Y-101630000D01*
X151715000Y-101390000D01*
X151715000Y-101870000D01*
G37*
X163094936Y-110771000D02*
X163549064Y-110771000D01*
X163094936Y-112241000D02*
X163549064Y-112241000D01*
X179954000Y-104648000D02*
G75*
G02*
X176154000Y-104648000I-1900000J0D01*
G01*
X176154000Y-104648000D02*
G75*
G02*
X179954000Y-104648000I1900000J0D01*
G01*
X129450000Y-128981252D02*
X129450000Y-127558748D01*
X132170000Y-128981252D02*
X132170000Y-127558748D01*
X132442936Y-75760000D02*
X136797064Y-75760000D01*
X132442936Y-79180000D02*
X136797064Y-79180000D01*
X163533064Y-100357000D02*
X163078936Y-100357000D01*
X163533064Y-101827000D02*
X163078936Y-101827000D01*
X153580000Y-125018748D02*
X153580000Y-126441252D01*
X156300000Y-125018748D02*
X156300000Y-126441252D01*
D14*
X124460000Y-60040000D02*
X124460000Y-72040000D01*
X124460000Y-72040000D02*
X132080000Y-72040000D01*
D15*
X126093624Y-61873098D02*
X129480000Y-67090000D01*
X127152377Y-61124691D02*
X130607624Y-66355310D01*
D14*
X132080000Y-60040000D02*
X124460000Y-60040000D01*
X132080000Y-60040000D02*
X139700000Y-60040000D01*
X132080000Y-71040000D02*
X132080000Y-61040000D01*
D15*
X133786812Y-61881549D02*
X137173188Y-67098451D01*
X134845565Y-61133142D02*
X138300812Y-66363761D01*
D14*
X139700000Y-60040000D02*
X139700000Y-72040000D01*
X139700000Y-72040000D02*
X132080000Y-72040000D01*
D15*
X131481562Y-64140000D02*
G75*
G02*
X125078438Y-64140000I-3201562J0D01*
G01*
X125078438Y-64140000D02*
G75*
G02*
X131481562Y-64140000I3201562J0D01*
G01*
X139180000Y-64140000D02*
G75*
G02*
X132776876Y-64140000I-3201562J0D01*
G01*
X132776876Y-64140000D02*
G75*
G02*
X139180000Y-64140000I3201562J0D01*
G01*
X115423001Y-83665000D02*
X115518000Y-83665000D01*
X115423001Y-87785000D02*
X115423001Y-83665000D01*
X115518000Y-87785000D02*
X115423001Y-87785000D01*
X120448000Y-83665000D02*
X120542999Y-83665000D01*
X120542999Y-83665000D02*
X120542999Y-87785000D01*
X120542999Y-87785000D02*
X120448000Y-87785000D01*
X115513000Y-88325000D02*
X115183000Y-88565000D01*
X115183000Y-88085000D01*
X115513000Y-88325000D01*
G36*
X115513000Y-88325000D02*
G01*
X115183000Y-88565000D01*
X115183000Y-88085000D01*
X115513000Y-88325000D01*
G37*
X165175000Y-125170000D02*
X165575000Y-125170000D01*
X165175000Y-131370000D02*
X165175000Y-125170000D01*
X165175000Y-131370000D02*
X165575000Y-131370000D01*
X171375000Y-125170000D02*
X170975000Y-125170000D01*
X171375000Y-131370000D02*
X170975000Y-131370000D01*
X171375000Y-131370000D02*
X171375000Y-125170000D01*
X102135000Y-127618753D02*
X102135000Y-127096247D01*
X103605000Y-127618753D02*
X103605000Y-127096247D01*
X135155000Y-129801253D02*
X135155000Y-129278747D01*
X136625000Y-129801253D02*
X136625000Y-129278747D01*
X134825000Y-81290000D02*
X144575000Y-81290000D01*
X134825000Y-86340000D02*
X134825000Y-81290000D01*
X144575000Y-81290000D02*
X144575000Y-86340000D01*
X144575000Y-86340000D02*
X134825000Y-86340000D01*
X113565000Y-96477064D02*
X113565000Y-96022936D01*
X115035000Y-96477064D02*
X115035000Y-96022936D01*
X140943064Y-112803000D02*
X140488936Y-112803000D01*
X140943064Y-114273000D02*
X140488936Y-114273000D01*
X171934999Y-99595000D02*
X171934999Y-101065000D01*
X171934999Y-101065000D02*
X174394999Y-101065000D01*
X174394999Y-99595000D02*
X171934999Y-99595000D01*
X140998753Y-99595000D02*
X140476247Y-99595000D01*
X140998753Y-101065000D02*
X140476247Y-101065000D01*
X126265000Y-127261253D02*
X126265000Y-126738747D01*
X127735000Y-127261253D02*
X127735000Y-126738747D01*
X139077500Y-102135000D02*
X139077500Y-103605000D01*
X139077500Y-103605000D02*
X141537500Y-103605000D01*
X141537500Y-102135000D02*
X139077500Y-102135000D01*
X134530000Y-123748748D02*
X134530000Y-125171252D01*
X137250000Y-123748748D02*
X137250000Y-125171252D01*
X149495000Y-81610000D02*
X149495000Y-85470000D01*
X151495000Y-81610000D02*
X149495000Y-81610000D01*
X151495000Y-81610000D02*
X151495000Y-85470000D01*
X158310000Y-127907064D02*
X158310000Y-123552936D01*
X161730000Y-127907064D02*
X161730000Y-123552936D01*
X179954000Y-118364000D02*
G75*
G02*
X176154000Y-118364000I-1900000J0D01*
G01*
X176154000Y-118364000D02*
G75*
G02*
X179954000Y-118364000I1900000J0D01*
G01*
X117530000Y-124860000D02*
X121290000Y-124860000D01*
X117530000Y-131680000D02*
X121290000Y-131680000D01*
X121290000Y-124860000D02*
X121290000Y-126120000D01*
X121290000Y-131680000D02*
X121290000Y-130420000D01*
X116250000Y-124960000D02*
X116010000Y-124630000D01*
X116490000Y-124630000D01*
X116250000Y-124960000D01*
G36*
X116250000Y-124960000D02*
G01*
X116010000Y-124630000D01*
X116490000Y-124630000D01*
X116250000Y-124960000D01*
G37*
D11*
X143480001Y-129070000D02*
X143480001Y-124930000D01*
X148619999Y-129070000D02*
X148619999Y-124930000D01*
D15*
X143523081Y-129400000D02*
X143193081Y-129640000D01*
X143193081Y-129160000D01*
X143523081Y-129400000D01*
G36*
X143523081Y-129400000D02*
G01*
X143193081Y-129640000D01*
X143193081Y-129160000D01*
X143523081Y-129400000D01*
G37*
X90150000Y-101363000D02*
X96650000Y-101363000D01*
X90150000Y-119397000D02*
X90150000Y-101363000D01*
X90176000Y-119397000D02*
X95986000Y-119397000D01*
X94770000Y-119380000D02*
X96720000Y-119380001D01*
X94779999Y-101380000D02*
X94770000Y-119380000D01*
X96570000Y-101379999D02*
X94779999Y-101380000D01*
X118100000Y-101490000D02*
X116830000Y-101490000D01*
X118100000Y-101490000D02*
X118100000Y-119270000D01*
X118100000Y-106570000D02*
X119370000Y-106570000D01*
X118100000Y-119270000D02*
X116830000Y-119270000D01*
X119370000Y-106570000D02*
X119370000Y-114190000D01*
X119370000Y-114190000D02*
X118100000Y-114190000D01*
X117330000Y-101228000D02*
X116830000Y-101228000D01*
X116830000Y-100728000D01*
X117330000Y-101228000D01*
G36*
X117330000Y-101228000D02*
G01*
X116830000Y-101228000D01*
X116830000Y-100728000D01*
X117330000Y-101228000D01*
G37*
X179954000Y-111506000D02*
G75*
G02*
X176154000Y-111506000I-1900000J0D01*
G01*
X176154000Y-111506000D02*
G75*
G02*
X179954000Y-111506000I1900000J0D01*
G01*
X175310000Y-79305000D02*
X180560000Y-79305000D01*
X175310000Y-95425000D02*
X175310000Y-79305000D01*
X180560000Y-79305000D02*
X180560000Y-80405000D01*
X180560000Y-83425000D02*
X180560000Y-85855000D01*
X180560000Y-85560000D02*
X180340000Y-85560000D01*
X180560000Y-88875000D02*
X180560000Y-91305000D01*
X180560000Y-89170000D02*
X180340000Y-89170000D01*
X180560000Y-94325000D02*
X180560000Y-95425000D01*
X180560000Y-95425000D02*
X175310000Y-95425000D01*
X122535001Y-83665000D02*
X122630000Y-83665000D01*
X122535001Y-87785000D02*
X122535001Y-83665000D01*
X122630000Y-87785000D02*
X122535001Y-87785000D01*
X127560000Y-83665000D02*
X127654999Y-83665000D01*
X127654999Y-83665000D02*
X127654999Y-87785000D01*
X127654999Y-87785000D02*
X127560000Y-87785000D01*
X122625000Y-88325000D02*
X122295000Y-88565000D01*
X122295000Y-88085000D01*
X122625000Y-88325000D01*
G36*
X122625000Y-88325000D02*
G01*
X122295000Y-88565000D01*
X122295000Y-88085000D01*
X122625000Y-88325000D01*
G37*
M02*
