%TF.GenerationSoftware,KiCad,Pcbnew,9.0.6*%
%TF.CreationDate,2026-01-21T01:22:50+03:00*%
%TF.ProjectId,Backup power switch 12v Module,4261636b-7570-4207-906f-776572207377,rev?*%
%TF.SameCoordinates,Original*%
%TF.FileFunction,Paste,Top*%
%TF.FilePolarity,Positive*%
%FSLAX46Y46*%
G04 Gerber Fmt 4.6, Leading zero omitted, Abs format (unit mm)*
G04 Created by KiCad (PCBNEW 9.0.6) date 2026-01-21 01:22:50*
%MOMM*%
%LPD*%
G01*
G04 APERTURE LIST*
G04 Aperture macros list*
%AMRoundRect*
0 Rectangle with rounded corners*
0 $1 Rounding radius*
0 $2 $3 $4 $5 $6 $7 $8 $9 X,Y pos of 4 corners*
0 Add a 4 corners polygon primitive as box body*
4,1,4,$2,$3,$4,$5,$6,$7,$8,$9,$2,$3,0*
0 Add four circle primitives for the rounded corners*
1,1,$1+$1,$2,$3*
1,1,$1+$1,$4,$5*
1,1,$1+$1,$6,$7*
1,1,$1+$1,$8,$9*
0 Add four rect primitives between the rounded corners*
20,1,$1+$1,$2,$3,$4,$5,0*
20,1,$1+$1,$4,$5,$6,$7,0*
20,1,$1+$1,$6,$7,$8,$9,0*
20,1,$1+$1,$8,$9,$2,$3,0*%
G04 Aperture macros list end*
%ADD10RoundRect,0.237500X0.250000X0.237500X-0.250000X0.237500X-0.250000X-0.237500X0.250000X-0.237500X0*%
%ADD11RoundRect,0.249999X-0.450001X-1.425001X0.450001X-1.425001X0.450001X1.425001X-0.450001X1.425001X0*%
%ADD12RoundRect,0.250000X0.450000X-0.350000X0.450000X0.350000X-0.450000X0.350000X-0.450000X-0.350000X0*%
%ADD13RoundRect,0.250000X1.000000X0.650000X-1.000000X0.650000X-1.000000X-0.650000X1.000000X-0.650000X0*%
%ADD14RoundRect,0.250000X0.350000X0.450000X-0.350000X0.450000X-0.350000X-0.450000X0.350000X-0.450000X0*%
%ADD15RoundRect,0.250000X-0.475000X0.337500X-0.475000X-0.337500X0.475000X-0.337500X0.475000X0.337500X0*%
%ADD16RoundRect,0.250000X-0.350000X-0.450000X0.350000X-0.450000X0.350000X0.450000X-0.350000X0.450000X0*%
%ADD17RoundRect,0.150000X0.150000X-0.587500X0.150000X0.587500X-0.150000X0.587500X-0.150000X-0.587500X0*%
%ADD18RoundRect,0.250001X0.944999X-0.507499X0.944999X0.507499X-0.944999X0.507499X-0.944999X-0.507499X0*%
%ADD19RoundRect,0.237500X-0.287500X-0.237500X0.287500X-0.237500X0.287500X0.237500X-0.287500X0.237500X0*%
%ADD20RoundRect,0.200000X0.200000X-0.250000X0.200000X0.250000X-0.200000X0.250000X-0.200000X-0.250000X0*%
%ADD21RoundRect,0.250000X1.100000X-0.412500X1.100000X0.412500X-1.100000X0.412500X-1.100000X-0.412500X0*%
%ADD22RoundRect,0.250000X-1.100000X0.412500X-1.100000X-0.412500X1.100000X-0.412500X1.100000X0.412500X0*%
%ADD23RoundRect,0.150000X0.150000X-0.825000X0.150000X0.825000X-0.150000X0.825000X-0.150000X-0.825000X0*%
%ADD24RoundRect,0.250001X1.499999X-0.949999X1.499999X0.949999X-1.499999X0.949999X-1.499999X-0.949999X0*%
%ADD25RoundRect,0.250000X0.475000X-0.337500X0.475000X0.337500X-0.475000X0.337500X-0.475000X-0.337500X0*%
%ADD26RoundRect,0.237500X0.287500X0.237500X-0.287500X0.237500X-0.287500X-0.237500X0.287500X-0.237500X0*%
%ADD27RoundRect,0.250000X0.337500X0.475000X-0.337500X0.475000X-0.337500X-0.475000X0.337500X-0.475000X0*%
%ADD28RoundRect,0.250000X-0.300000X0.300000X-0.300000X-0.300000X0.300000X-0.300000X0.300000X0.300000X0*%
%ADD29RoundRect,0.249999X1.425001X-0.450001X1.425001X0.450001X-1.425001X0.450001X-1.425001X-0.450001X0*%
%ADD30RoundRect,0.375000X-0.625000X-0.375000X0.625000X-0.375000X0.625000X0.375000X-0.625000X0.375000X0*%
%ADD31RoundRect,0.500000X-0.500000X-1.400000X0.500000X-1.400000X0.500000X1.400000X-0.500000X1.400000X0*%
%ADD32R,0.510000X1.100000*%
%ADD33RoundRect,0.381000X-0.381000X0.762000X-0.381000X-0.762000X0.381000X-0.762000X0.381000X0.762000X0*%
%ADD34RoundRect,0.381000X-0.381000X0.869000X-0.381000X-0.869000X0.381000X-0.869000X0.381000X0.869000X0*%
G04 APERTURE END LIST*
D10*
X137080000Y-105410000D03*
X135255000Y-105410000D03*
D11*
X111250000Y-78105000D03*
X117350000Y-78105000D03*
D12*
X151130000Y-124190000D03*
X151130000Y-122190000D03*
D13*
X155670001Y-132080000D03*
X151669999Y-132080000D03*
D14*
X163925000Y-100965000D03*
X161925000Y-100965000D03*
D15*
X139700000Y-123422500D03*
X139700000Y-125497500D03*
D16*
X161830000Y-108585000D03*
X163830000Y-108585000D03*
D17*
X140655000Y-120952500D03*
X142555000Y-120952500D03*
X141605000Y-119077499D03*
D18*
X106680001Y-123905000D03*
X106680001Y-120650000D03*
D19*
X135255000Y-110490000D03*
X137005000Y-110490000D03*
D13*
X168268401Y-120650000D03*
X164268399Y-120650000D03*
D12*
X107950000Y-93710000D03*
X107950000Y-91710000D03*
D18*
X111760000Y-123905000D03*
X111760000Y-120650000D03*
D12*
X139700000Y-130540000D03*
X139700000Y-128540000D03*
D16*
X161830000Y-106045000D03*
X163830000Y-106045000D03*
D20*
X148275000Y-100060000D03*
X150175000Y-100060000D03*
X149225000Y-98060000D03*
D16*
X161830000Y-111125000D03*
X163830000Y-111125000D03*
D21*
X125730000Y-119672500D03*
X125730000Y-116547500D03*
D11*
X131570000Y-77470000D03*
X137670000Y-77470000D03*
D14*
X163925000Y-103505000D03*
X161925000Y-103505000D03*
D22*
X154990800Y-123100700D03*
X154990800Y-126225700D03*
D23*
X116078000Y-88200000D03*
X117348000Y-88200000D03*
X118618000Y-88200000D03*
X119888000Y-88200000D03*
X119888000Y-83250000D03*
X118618000Y-83250000D03*
X117348000Y-83250000D03*
X116078000Y-83250000D03*
D24*
X168275000Y-131270000D03*
X168275000Y-125270000D03*
D25*
X102870001Y-123315000D03*
X102870001Y-121240000D03*
X135890000Y-130577500D03*
X135890000Y-128502500D03*
D12*
X110490000Y-93710000D03*
X110490000Y-91710000D03*
D14*
X137108500Y-113538000D03*
X135108500Y-113538000D03*
D26*
X174579382Y-100097066D03*
X172829384Y-100097066D03*
D27*
X136927500Y-100330000D03*
X134852500Y-100330000D03*
D25*
X147320000Y-112797500D03*
X147320000Y-110722500D03*
D19*
X135263200Y-102870000D03*
X137013200Y-102870000D03*
D22*
X135890000Y-122897500D03*
X135890000Y-126022500D03*
D28*
X150495000Y-82420001D03*
X150495000Y-85219999D03*
D29*
X160020000Y-128780000D03*
X160020000Y-122680000D03*
D30*
X116230001Y-120890000D03*
X116230001Y-123190000D03*
X116230001Y-125490000D03*
D31*
X122530001Y-123190000D03*
D32*
X144050000Y-129550000D03*
X145050000Y-129550000D03*
X146050000Y-129550000D03*
X147050000Y-129550000D03*
X148050000Y-129550000D03*
X148050000Y-124450000D03*
X147050000Y-124450000D03*
X146050000Y-124450000D03*
X145050000Y-124450000D03*
X144050000Y-124450000D03*
D33*
X97790000Y-115045000D03*
X100330000Y-115045000D03*
X102870000Y-115045000D03*
X105409999Y-115045000D03*
X107950000Y-115045000D03*
D34*
X115570000Y-97045000D03*
X113030000Y-97045000D03*
X110490000Y-97045000D03*
X107950000Y-97045000D03*
X105409999Y-97045000D03*
X102870000Y-97045000D03*
X100330000Y-97045000D03*
X97790000Y-97045000D03*
D33*
X110490000Y-115045000D03*
X115570000Y-115045000D03*
X113030000Y-115045000D03*
D23*
X123190000Y-88200000D03*
X124460000Y-88200000D03*
X125730000Y-88200000D03*
X127000000Y-88200000D03*
X127000000Y-83250000D03*
X125730000Y-83250000D03*
X124460000Y-83250000D03*
X123190000Y-83250000D03*
M02*
