%TF.GenerationSoftware,KiCad,Pcbnew,9.0.6*%
%TF.CreationDate,2026-01-18T01:02:47+03:00*%
%TF.ProjectId,Backup power switch 12v Module,4261636b-7570-4207-906f-776572207377,rev?*%
%TF.SameCoordinates,Original*%
%TF.FileFunction,Copper,L2,Bot*%
%TF.FilePolarity,Positive*%
%FSLAX46Y46*%
G04 Gerber Fmt 4.6, Leading zero omitted, Abs format (unit mm)*
G04 Created by KiCad (PCBNEW 9.0.6) date 2026-01-18 01:02:47*
%MOMM*%
%LPD*%
G01*
G04 APERTURE LIST*
G04 Aperture macros list*
%AMRoundRect*
0 Rectangle with rounded corners*
0 $1 Rounding radius*
0 $2 $3 $4 $5 $6 $7 $8 $9 X,Y pos of 4 corners*
0 Add a 4 corners polygon primitive as box body*
4,1,4,$2,$3,$4,$5,$6,$7,$8,$9,$2,$3,0*
0 Add four circle primitives for the rounded corners*
1,1,$1+$1,$2,$3*
1,1,$1+$1,$4,$5*
1,1,$1+$1,$6,$7*
1,1,$1+$1,$8,$9*
0 Add four rect primitives between the rounded corners*
20,1,$1+$1,$2,$3,$4,$5,0*
20,1,$1+$1,$4,$5,$6,$7,0*
20,1,$1+$1,$6,$7,$8,$9,0*
20,1,$1+$1,$8,$9,$2,$3,0*%
G04 Aperture macros list end*
%TA.AperFunction,ComponentPad*%
%ADD10RoundRect,0.250000X-0.625000X0.350000X-0.625000X-0.350000X0.625000X-0.350000X0.625000X0.350000X0*%
%TD*%
%TA.AperFunction,ComponentPad*%
%ADD11O,1.750000X1.200000*%
%TD*%
%TA.AperFunction,ComponentPad*%
%ADD12RoundRect,0.250000X0.550000X0.550000X-0.550000X0.550000X-0.550000X-0.550000X0.550000X-0.550000X0*%
%TD*%
%TA.AperFunction,ComponentPad*%
%ADD13C,1.600000*%
%TD*%
%TA.AperFunction,ComponentPad*%
%ADD14C,3.000000*%
%TD*%
%TA.AperFunction,ComponentPad*%
%ADD15C,2.500000*%
%TD*%
%TA.AperFunction,ComponentPad*%
%ADD16C,1.440000*%
%TD*%
%TA.AperFunction,ComponentPad*%
%ADD17C,3.500000*%
%TD*%
%TA.AperFunction,ComponentPad*%
%ADD18C,3.900000*%
%TD*%
%TA.AperFunction,ConnectorPad*%
%ADD19C,7.000000*%
%TD*%
%TA.AperFunction,ComponentPad*%
%ADD20C,3.400000*%
%TD*%
%TA.AperFunction,ComponentPad*%
%ADD21C,1.500000*%
%TD*%
%TA.AperFunction,ComponentPad*%
%ADD22R,2.000000X1.905000*%
%TD*%
%TA.AperFunction,ComponentPad*%
%ADD23O,2.000000X1.905000*%
%TD*%
%TA.AperFunction,ViaPad*%
%ADD24C,0.600000*%
%TD*%
%TA.AperFunction,ViaPad*%
%ADD25C,1.000000*%
%TD*%
%TA.AperFunction,ViaPad*%
%ADD26C,2.000000*%
%TD*%
%TA.AperFunction,Conductor*%
%ADD27C,0.300000*%
%TD*%
%TA.AperFunction,Conductor*%
%ADD28C,0.700000*%
%TD*%
%TA.AperFunction,Conductor*%
%ADD29C,0.400000*%
%TD*%
%TA.AperFunction,Conductor*%
%ADD30C,2.000000*%
%TD*%
%TA.AperFunction,Conductor*%
%ADD31C,0.500000*%
%TD*%
%TA.AperFunction,Conductor*%
%ADD32C,4.000000*%
%TD*%
%TA.AperFunction,Conductor*%
%ADD33C,1.000000*%
%TD*%
%TA.AperFunction,Conductor*%
%ADD34C,1.500000*%
%TD*%
%TA.AperFunction,Conductor*%
%ADD35C,3.500000*%
%TD*%
G04 APERTURE END LIST*
D10*
X94792800Y-78028800D03*
D11*
X94792800Y-80028800D03*
X94792800Y-82028800D03*
X94792800Y-84028800D03*
X94792800Y-86028800D03*
X94792800Y-88028800D03*
X94792800Y-90028800D03*
X94792800Y-92028800D03*
D12*
X132943600Y-105410000D03*
D13*
X132943600Y-102870000D03*
X125323600Y-102870000D03*
X125323600Y-105410000D03*
D14*
X161925000Y-79765000D03*
D15*
X155875000Y-81715000D03*
D14*
X155875000Y-93915000D03*
X167925000Y-93965000D03*
D15*
X167875000Y-81715000D03*
D16*
X105664000Y-82042000D03*
X108204000Y-82042000D03*
X110744000Y-82042000D03*
D17*
X107950000Y-70040000D03*
X115570000Y-70040000D03*
X156210000Y-70040000D03*
X163830000Y-70040000D03*
D18*
X177410000Y-62230000D03*
D19*
X177410000Y-62230000D03*
D12*
X161742200Y-112776000D03*
D13*
X161742200Y-110236000D03*
X161742200Y-107696000D03*
X161742200Y-105156000D03*
X154122200Y-105156000D03*
X154122200Y-107696000D03*
X154122200Y-110236000D03*
X154122200Y-112776000D03*
D12*
X132943600Y-113030000D03*
D13*
X132943600Y-110490000D03*
X125323600Y-110490000D03*
X125323600Y-113030000D03*
D18*
X177800000Y-133350000D03*
D19*
X177800000Y-133350000D03*
D20*
X179374800Y-108966000D03*
D17*
X128270000Y-70040000D03*
X135890000Y-70040000D03*
D18*
X94860000Y-62230000D03*
D19*
X94860000Y-62230000D03*
D16*
X137160000Y-83820000D03*
X139700000Y-83820000D03*
X142240000Y-83820000D03*
D18*
X94860000Y-133350000D03*
D19*
X94860000Y-133350000D03*
D20*
X179374800Y-122682000D03*
D21*
X97780000Y-118000000D03*
X100320000Y-118000000D03*
X102860000Y-118000000D03*
X105400000Y-118000000D03*
X107940000Y-118000000D03*
X115560000Y-102760000D03*
X113020000Y-102746000D03*
X110480000Y-102746000D03*
X107940000Y-102746000D03*
X105400000Y-102746000D03*
X102860000Y-102746000D03*
X100320000Y-102746000D03*
X97780000Y-102746000D03*
X110480000Y-118000000D03*
X115560000Y-118000000D03*
X113020000Y-118000000D03*
D20*
X179374800Y-115824000D03*
D22*
X178917600Y-87122000D03*
D23*
X173891600Y-89662000D03*
X178917600Y-92202000D03*
D24*
X118821200Y-97250000D03*
X125882400Y-90805000D03*
X120142000Y-90805000D03*
X115570000Y-90805000D03*
X136296400Y-101904800D03*
D25*
X129286000Y-98806000D03*
X154457400Y-120269000D03*
D24*
X153924000Y-100177600D03*
X117475000Y-85725000D03*
X149860000Y-98425000D03*
X123825000Y-85725000D03*
X150012400Y-101600000D03*
X158292800Y-101600000D03*
X146050000Y-130810000D03*
X147320000Y-130810000D03*
X142494000Y-118745000D03*
X130302000Y-129032000D03*
D25*
X137414000Y-120650000D03*
X144780000Y-93915000D03*
D24*
X147955000Y-120650000D03*
D26*
X121285000Y-77470000D03*
X144526000Y-77216000D03*
D24*
X128270000Y-79375000D03*
X139700000Y-97028000D03*
D27*
X107940000Y-102746000D02*
X107940000Y-97068800D01*
X94902000Y-84138000D02*
X94792800Y-84028800D01*
X95009200Y-84138000D02*
X94902000Y-84138000D01*
X107940000Y-97068800D02*
X95009200Y-84138000D01*
D28*
X99823000Y-80138000D02*
X94902000Y-80138000D01*
X94902000Y-80138000D02*
X94792800Y-80028800D01*
X118821200Y-97250000D02*
X116935000Y-97250000D01*
X116935000Y-97250000D02*
X99823000Y-80138000D01*
D27*
X104259000Y-106685000D02*
X124048600Y-106685000D01*
X124048600Y-106685000D02*
X125323600Y-105410000D01*
X100320000Y-102746000D02*
X104259000Y-106685000D01*
D29*
X115570000Y-90805000D02*
X120142000Y-90805000D01*
X120142000Y-90805000D02*
X125882400Y-90805000D01*
D30*
X136296400Y-102108000D02*
X136296400Y-101904800D01*
D31*
X136296400Y-101904800D02*
X136448800Y-101752400D01*
D30*
X133197600Y-98806000D02*
X129286000Y-98806000D01*
X136296400Y-101904800D02*
X133197600Y-98806000D01*
X154457400Y-120269000D02*
X136296400Y-102108000D01*
D27*
X124048600Y-114305000D02*
X125323600Y-113030000D01*
X109339000Y-114305000D02*
X124048600Y-114305000D01*
X97780000Y-102746000D02*
X109339000Y-114305000D01*
D32*
X115570000Y-70040000D02*
X115570000Y-67310000D01*
D33*
X161742200Y-105156000D02*
X162707400Y-106121200D01*
X176479200Y-106121200D02*
X179324000Y-108966000D01*
D34*
X142239999Y-83819999D02*
X142239999Y-83820000D01*
D33*
X110743999Y-82042000D02*
X111251999Y-82550000D01*
D32*
X156210000Y-70040000D02*
X135890000Y-70040000D01*
D29*
X94902000Y-78138000D02*
X106839999Y-78138000D01*
D34*
X114300000Y-71310000D02*
X115570000Y-70040000D01*
D33*
X179324000Y-108966000D02*
X179374800Y-108966000D01*
D34*
X123825000Y-85725000D02*
X117475000Y-85725000D01*
D32*
X129350000Y-63500000D02*
X135890000Y-70040000D01*
D33*
X162707400Y-106121200D02*
X176479200Y-106121200D01*
X153924000Y-100177600D02*
X152882600Y-100177600D01*
D29*
X94792800Y-78028800D02*
X94902000Y-78138000D01*
X106839999Y-78138000D02*
X110743999Y-82042000D01*
D33*
X111251999Y-82550000D02*
X114300000Y-82550000D01*
D34*
X114300000Y-82550000D02*
X114300000Y-71310000D01*
X117475000Y-85725000D02*
X114300000Y-82550000D01*
D33*
X152882600Y-100177600D02*
X151130000Y-98425000D01*
D34*
X135890000Y-77470000D02*
X142239999Y-83819999D01*
D33*
X151130000Y-98425000D02*
X149860000Y-98425000D01*
D32*
X119380000Y-63500000D02*
X129350000Y-63500000D01*
X115570000Y-67310000D02*
X119380000Y-63500000D01*
D34*
X135890000Y-70040000D02*
X135890000Y-77470000D01*
D27*
X150012400Y-101600000D02*
X158292800Y-101600000D01*
X150495000Y-119811800D02*
X133553200Y-102870000D01*
X133553200Y-102870000D02*
X132943600Y-102870000D01*
X150495000Y-126365000D02*
X150495000Y-119811800D01*
X146050000Y-130810000D02*
X150495000Y-126365000D01*
X145288000Y-130302000D02*
X149860000Y-125730000D01*
X132994400Y-110540800D02*
X132943600Y-110490000D01*
X149860000Y-125730000D02*
X149860000Y-120446800D01*
X139954000Y-110540800D02*
X132994400Y-110540800D01*
X149860000Y-120446800D02*
X139954000Y-110540800D01*
X145752028Y-131572000D02*
X145288000Y-131107972D01*
X147320000Y-130810000D02*
X146558000Y-131572000D01*
X145288000Y-131107972D02*
X145288000Y-130302000D01*
X146558000Y-131572000D02*
X145752028Y-131572000D01*
D32*
X165916000Y-79756000D02*
X162052000Y-79756000D01*
D33*
X131445000Y-127889000D02*
X130302000Y-129032000D01*
D32*
X163830000Y-77670000D02*
X167875000Y-81715000D01*
X167875000Y-81715000D02*
X165916000Y-79756000D01*
X163830000Y-70040000D02*
X163830000Y-77670000D01*
D33*
X142494000Y-118745000D02*
X134620000Y-118745000D01*
X131445000Y-121920000D02*
X131445000Y-127889000D01*
X134620000Y-118745000D02*
X131445000Y-121920000D01*
D32*
X178917600Y-92202000D02*
X178733000Y-92202000D01*
X155875000Y-93915000D02*
X156145000Y-93915000D01*
X163195000Y-100965000D02*
X156145000Y-93915000D01*
X144780000Y-93915000D02*
X137730000Y-93915000D01*
X144780000Y-93915000D02*
X155875000Y-93915000D01*
X178917600Y-92227400D02*
X170180000Y-100965000D01*
X137730000Y-93915000D02*
X121285000Y-77470000D01*
D33*
X147955000Y-120650000D02*
X137414000Y-120650000D01*
D32*
X170180000Y-100965000D02*
X163195000Y-100965000D01*
X178917600Y-92202000D02*
X178917600Y-92227400D01*
D31*
X139065000Y-90170000D02*
X146685000Y-90170000D01*
D32*
X167925000Y-91471000D02*
X167925000Y-93965000D01*
X150495000Y-86360000D02*
X144526000Y-80391000D01*
D35*
X176225200Y-84429600D02*
X178917600Y-87122000D01*
D32*
X167894000Y-93934000D02*
X167925000Y-93965000D01*
X167894000Y-91440000D02*
X167925000Y-91471000D01*
D31*
X128270000Y-79375000D02*
X139065000Y-90170000D01*
D32*
X167925000Y-93965000D02*
X167925000Y-89377000D01*
D31*
X146685000Y-90170000D02*
X150495000Y-86360000D01*
D35*
X172872400Y-84429600D02*
X176225200Y-84429600D01*
X167925000Y-89377000D02*
X172872400Y-84429600D01*
D32*
X162814000Y-86360000D02*
X167894000Y-91440000D01*
X167894000Y-91440000D02*
X167894000Y-93934000D01*
X162814000Y-86360000D02*
X150495000Y-86360000D01*
X144526000Y-80391000D02*
X144526000Y-77216000D01*
D27*
X179374800Y-122682000D02*
X173736000Y-117043200D01*
X126390400Y-89408000D02*
X115570000Y-89408000D01*
X115570000Y-89408000D02*
X108204000Y-82042000D01*
X154025600Y-117043200D02*
X126390400Y-89408000D01*
X173736000Y-117043200D02*
X154025600Y-117043200D01*
X154279600Y-115824000D02*
X139700000Y-101244400D01*
X179374800Y-115824000D02*
X154279600Y-115824000D01*
X139700000Y-101244400D02*
X139700000Y-97028000D01*
%TA.AperFunction,Conductor*%
G36*
X182948539Y-57162185D02*
G01*
X182994294Y-57214989D01*
X183005500Y-57266500D01*
X183005500Y-65916000D01*
X182985815Y-65983039D01*
X182933011Y-66028794D01*
X182881500Y-66040000D01*
X179263510Y-66040000D01*
X179196471Y-66020315D01*
X179150716Y-65967511D01*
X179140772Y-65898353D01*
X179169797Y-65834797D01*
X179205057Y-65806642D01*
X179276980Y-65768198D01*
X179469149Y-65665482D01*
X179795969Y-65447107D01*
X180099812Y-65197750D01*
X180377750Y-64919812D01*
X180627107Y-64615969D01*
X180845482Y-64289149D01*
X181030771Y-63942497D01*
X181181190Y-63579353D01*
X181295290Y-63203215D01*
X181295292Y-63203205D01*
X181295295Y-63203194D01*
X181371973Y-62817702D01*
X181410500Y-62426528D01*
X181410500Y-62033471D01*
X181371973Y-61642297D01*
X181295295Y-61256805D01*
X181295292Y-61256794D01*
X181295291Y-61256791D01*
X181295290Y-61256785D01*
X181181190Y-60880647D01*
X181030771Y-60517503D01*
X180845482Y-60170851D01*
X180627107Y-59844031D01*
X180377750Y-59540188D01*
X180377749Y-59540187D01*
X180377745Y-59540182D01*
X180099817Y-59262254D01*
X179795974Y-59012897D01*
X179795973Y-59012896D01*
X179795969Y-59012893D01*
X179469149Y-58794518D01*
X179469144Y-58794515D01*
X179469137Y-58794511D01*
X179122504Y-58609232D01*
X179122499Y-58609230D01*
X178759354Y-58458810D01*
X178383205Y-58344707D01*
X178383194Y-58344704D01*
X177997702Y-58268026D01*
X177703089Y-58239010D01*
X177606532Y-58229500D01*
X177213468Y-58229500D01*
X177124251Y-58238287D01*
X176822297Y-58268026D01*
X176436805Y-58344704D01*
X176436794Y-58344707D01*
X176060645Y-58458810D01*
X175697500Y-58609230D01*
X175697495Y-58609232D01*
X175350862Y-58794511D01*
X175350844Y-58794522D01*
X175024039Y-59012887D01*
X175024025Y-59012897D01*
X174720182Y-59262254D01*
X174442254Y-59540182D01*
X174192897Y-59844025D01*
X174192887Y-59844039D01*
X173974522Y-60170844D01*
X173974511Y-60170862D01*
X173789232Y-60517495D01*
X173789230Y-60517500D01*
X173638810Y-60880645D01*
X173524707Y-61256794D01*
X173524704Y-61256805D01*
X173448026Y-61642297D01*
X173409500Y-62033471D01*
X173409500Y-62426528D01*
X173448026Y-62817702D01*
X173524704Y-63203194D01*
X173524707Y-63203205D01*
X173638810Y-63579354D01*
X173789230Y-63942499D01*
X173789232Y-63942504D01*
X173974511Y-64289137D01*
X173974522Y-64289155D01*
X174192887Y-64615960D01*
X174192897Y-64615974D01*
X174442254Y-64919817D01*
X174720182Y-65197745D01*
X174720187Y-65197749D01*
X174720188Y-65197750D01*
X175024031Y-65447107D01*
X175350851Y-65665482D01*
X175350860Y-65665487D01*
X175350862Y-65665488D01*
X175614943Y-65806642D01*
X175664787Y-65855604D01*
X175680248Y-65923742D01*
X175656416Y-65989421D01*
X175600859Y-66031790D01*
X175556490Y-66040000D01*
X158750000Y-66040000D01*
X158750000Y-72901000D01*
X158730315Y-72968039D01*
X158677511Y-73013794D01*
X158626000Y-73025000D01*
X133474000Y-73025000D01*
X133406961Y-73005315D01*
X133361206Y-72952511D01*
X133350000Y-72901000D01*
X133350000Y-69892533D01*
X133640000Y-69892533D01*
X133640000Y-70187466D01*
X133640001Y-70187483D01*
X133678496Y-70479884D01*
X133678499Y-70479897D01*
X133754835Y-70764790D01*
X133754838Y-70764800D01*
X133867704Y-71037281D01*
X133867709Y-71037292D01*
X134015174Y-71292707D01*
X134015180Y-71292715D01*
X134131777Y-71444667D01*
X135174152Y-70402292D01*
X135181049Y-70418942D01*
X135268599Y-70549970D01*
X135380030Y-70661401D01*
X135511058Y-70748951D01*
X135527706Y-70755847D01*
X134485331Y-71798221D01*
X134637284Y-71914819D01*
X134637292Y-71914825D01*
X134892707Y-72062290D01*
X134892718Y-72062295D01*
X135165199Y-72175161D01*
X135165209Y-72175164D01*
X135450102Y-72251500D01*
X135450115Y-72251503D01*
X135742516Y-72289998D01*
X135742534Y-72290000D01*
X136037466Y-72290000D01*
X136037483Y-72289998D01*
X136329884Y-72251503D01*
X136329897Y-72251500D01*
X136614790Y-72175164D01*
X136614800Y-72175161D01*
X136887281Y-72062295D01*
X136887292Y-72062290D01*
X137142707Y-71914825D01*
X137142725Y-71914813D01*
X137294667Y-71798222D01*
X137294667Y-71798220D01*
X136252293Y-70755847D01*
X136268942Y-70748951D01*
X136399970Y-70661401D01*
X136511401Y-70549970D01*
X136598951Y-70418942D01*
X136605847Y-70402293D01*
X137648220Y-71444667D01*
X137648222Y-71444667D01*
X137764813Y-71292725D01*
X137764825Y-71292707D01*
X137912290Y-71037292D01*
X137912295Y-71037281D01*
X138025161Y-70764800D01*
X138025164Y-70764790D01*
X138101500Y-70479897D01*
X138101503Y-70479884D01*
X138139998Y-70187483D01*
X138140000Y-70187466D01*
X138140000Y-69892533D01*
X153960000Y-69892533D01*
X153960000Y-70187466D01*
X153960001Y-70187483D01*
X153998496Y-70479884D01*
X153998499Y-70479897D01*
X154074835Y-70764790D01*
X154074838Y-70764800D01*
X154187704Y-71037281D01*
X154187709Y-71037292D01*
X154335174Y-71292707D01*
X154335180Y-71292715D01*
X154451777Y-71444667D01*
X155494152Y-70402291D01*
X155501049Y-70418942D01*
X155588599Y-70549970D01*
X155700030Y-70661401D01*
X155831058Y-70748951D01*
X155847706Y-70755847D01*
X154805331Y-71798221D01*
X154957284Y-71914819D01*
X154957292Y-71914825D01*
X155212707Y-72062290D01*
X155212718Y-72062295D01*
X155485199Y-72175161D01*
X155485209Y-72175164D01*
X155770102Y-72251500D01*
X155770115Y-72251503D01*
X156062516Y-72289998D01*
X156062534Y-72290000D01*
X156357466Y-72290000D01*
X156357483Y-72289998D01*
X156649884Y-72251503D01*
X156649897Y-72251500D01*
X156934790Y-72175164D01*
X156934800Y-72175161D01*
X157207281Y-72062295D01*
X157207292Y-72062290D01*
X157462707Y-71914825D01*
X157462725Y-71914813D01*
X157614667Y-71798222D01*
X157614667Y-71798220D01*
X156572293Y-70755847D01*
X156588942Y-70748951D01*
X156719970Y-70661401D01*
X156831401Y-70549970D01*
X156918951Y-70418942D01*
X156925846Y-70402293D01*
X157968220Y-71444667D01*
X157968222Y-71444667D01*
X158084813Y-71292725D01*
X158084825Y-71292707D01*
X158232290Y-71037292D01*
X158232295Y-71037281D01*
X158345161Y-70764800D01*
X158345164Y-70764790D01*
X158421500Y-70479897D01*
X158421503Y-70479884D01*
X158459998Y-70187483D01*
X158460000Y-70187466D01*
X158460000Y-69892533D01*
X158459998Y-69892516D01*
X158421503Y-69600115D01*
X158421500Y-69600102D01*
X158345164Y-69315209D01*
X158345161Y-69315199D01*
X158232295Y-69042718D01*
X158232290Y-69042707D01*
X158084825Y-68787292D01*
X158084819Y-68787284D01*
X157968221Y-68635331D01*
X156925846Y-69677705D01*
X156918951Y-69661058D01*
X156831401Y-69530030D01*
X156719970Y-69418599D01*
X156588942Y-69331049D01*
X156572293Y-69324152D01*
X157614667Y-68281777D01*
X157462715Y-68165180D01*
X157462707Y-68165174D01*
X157207292Y-68017709D01*
X157207281Y-68017704D01*
X156934800Y-67904838D01*
X156934790Y-67904835D01*
X156649897Y-67828499D01*
X156649884Y-67828496D01*
X156357483Y-67790001D01*
X156357466Y-67790000D01*
X156062534Y-67790000D01*
X156062516Y-67790001D01*
X155770115Y-67828496D01*
X155770102Y-67828499D01*
X155485209Y-67904835D01*
X155485199Y-67904838D01*
X155212718Y-68017704D01*
X155212707Y-68017709D01*
X154957292Y-68165174D01*
X154957276Y-68165185D01*
X154805331Y-68281775D01*
X154805331Y-68281777D01*
X155847706Y-69324152D01*
X155831058Y-69331049D01*
X155700030Y-69418599D01*
X155588599Y-69530030D01*
X155501049Y-69661058D01*
X155494152Y-69677706D01*
X154451777Y-68635331D01*
X154451775Y-68635331D01*
X154335185Y-68787276D01*
X154335174Y-68787292D01*
X154187709Y-69042707D01*
X154187704Y-69042718D01*
X154074838Y-69315199D01*
X154074835Y-69315209D01*
X153998499Y-69600102D01*
X153998496Y-69600115D01*
X153960001Y-69892516D01*
X153960000Y-69892533D01*
X138140000Y-69892533D01*
X138139998Y-69892516D01*
X138101503Y-69600115D01*
X138101500Y-69600102D01*
X138025164Y-69315209D01*
X138025161Y-69315199D01*
X137912295Y-69042718D01*
X137912290Y-69042707D01*
X137764825Y-68787292D01*
X137764819Y-68787284D01*
X137648221Y-68635331D01*
X136605846Y-69677705D01*
X136598951Y-69661058D01*
X136511401Y-69530030D01*
X136399970Y-69418599D01*
X136268942Y-69331049D01*
X136252293Y-69324152D01*
X137294667Y-68281777D01*
X137142715Y-68165180D01*
X137142707Y-68165174D01*
X136887292Y-68017709D01*
X136887281Y-68017704D01*
X136614800Y-67904838D01*
X136614790Y-67904835D01*
X136329897Y-67828499D01*
X136329884Y-67828496D01*
X136037483Y-67790001D01*
X136037466Y-67790000D01*
X135742534Y-67790000D01*
X135742516Y-67790001D01*
X135450115Y-67828496D01*
X135450102Y-67828499D01*
X135165209Y-67904835D01*
X135165199Y-67904838D01*
X134892718Y-68017704D01*
X134892707Y-68017709D01*
X134637292Y-68165174D01*
X134637276Y-68165185D01*
X134485331Y-68281775D01*
X134485331Y-68281777D01*
X135527706Y-69324152D01*
X135511058Y-69331049D01*
X135380030Y-69418599D01*
X135268599Y-69530030D01*
X135181049Y-69661058D01*
X135174152Y-69677706D01*
X134131777Y-68635331D01*
X134131775Y-68635331D01*
X134015185Y-68787276D01*
X134015174Y-68787292D01*
X133867709Y-69042707D01*
X133867704Y-69042718D01*
X133754838Y-69315199D01*
X133754835Y-69315209D01*
X133678499Y-69600102D01*
X133678496Y-69600115D01*
X133640001Y-69892516D01*
X133640000Y-69892533D01*
X133350000Y-69892533D01*
X133350000Y-66040000D01*
X104140000Y-66040000D01*
X103719725Y-82535772D01*
X103698339Y-82602289D01*
X103644387Y-82646684D01*
X103574998Y-82654863D01*
X103512202Y-82624228D01*
X103508084Y-82620295D01*
X100365165Y-79477375D01*
X100365161Y-79477372D01*
X100225866Y-79384297D01*
X100225863Y-79384296D01*
X100110450Y-79336491D01*
X100071082Y-79320184D01*
X100071074Y-79320182D01*
X99906771Y-79287500D01*
X99906767Y-79287500D01*
X95934204Y-79287500D01*
X95904763Y-79278855D01*
X95874777Y-79272332D01*
X95869761Y-79268577D01*
X95867165Y-79267815D01*
X95846523Y-79251181D01*
X95799308Y-79203966D01*
X95765823Y-79142643D01*
X95770807Y-79072951D01*
X95812679Y-79017018D01*
X95821894Y-79010745D01*
X95886145Y-78971115D01*
X96010115Y-78847145D01*
X96102156Y-78697924D01*
X96102158Y-78697919D01*
X96157305Y-78531497D01*
X96157306Y-78531490D01*
X96167799Y-78428786D01*
X96167800Y-78428773D01*
X96167800Y-78278800D01*
X95073130Y-78278800D01*
X95092875Y-78259055D01*
X95142244Y-78173545D01*
X95167800Y-78078170D01*
X95167800Y-77979430D01*
X95142244Y-77884055D01*
X95092875Y-77798545D01*
X95073130Y-77778800D01*
X96167799Y-77778800D01*
X96167799Y-77628828D01*
X96167798Y-77628813D01*
X96157305Y-77526102D01*
X96102158Y-77359680D01*
X96102156Y-77359675D01*
X96010115Y-77210454D01*
X95886145Y-77086484D01*
X95736924Y-76994443D01*
X95736919Y-76994441D01*
X95570497Y-76939294D01*
X95570490Y-76939293D01*
X95467786Y-76928800D01*
X95042800Y-76928800D01*
X95042800Y-77748470D01*
X95023055Y-77728725D01*
X94937545Y-77679356D01*
X94842170Y-77653800D01*
X94743430Y-77653800D01*
X94648055Y-77679356D01*
X94562545Y-77728725D01*
X94542800Y-77748470D01*
X94542800Y-76928800D01*
X94117828Y-76928800D01*
X94117812Y-76928801D01*
X94015102Y-76939294D01*
X93848680Y-76994441D01*
X93848675Y-76994443D01*
X93699454Y-77086484D01*
X93575484Y-77210454D01*
X93483443Y-77359675D01*
X93483441Y-77359680D01*
X93428294Y-77526102D01*
X93428293Y-77526109D01*
X93417800Y-77628813D01*
X93417800Y-77778800D01*
X94512470Y-77778800D01*
X94492725Y-77798545D01*
X94443356Y-77884055D01*
X94417800Y-77979430D01*
X94417800Y-78078170D01*
X94443356Y-78173545D01*
X94492725Y-78259055D01*
X94512470Y-78278800D01*
X93417801Y-78278800D01*
X93417801Y-78428786D01*
X93428294Y-78531497D01*
X93483441Y-78697919D01*
X93483443Y-78697924D01*
X93575484Y-78847145D01*
X93699456Y-78971117D01*
X93763706Y-79010746D01*
X93810431Y-79062693D01*
X93821654Y-79131656D01*
X93793811Y-79195738D01*
X93786292Y-79203966D01*
X93678385Y-79311873D01*
X93576568Y-79452011D01*
X93497928Y-79606352D01*
X93444397Y-79771102D01*
X93417300Y-79942189D01*
X93417300Y-80115410D01*
X93441111Y-80265752D01*
X93444398Y-80286501D01*
X93497927Y-80451245D01*
X93576568Y-80605588D01*
X93678386Y-80745728D01*
X93800872Y-80868214D01*
X93800878Y-80868218D01*
X93883823Y-80928483D01*
X93926489Y-80983813D01*
X93932467Y-81053426D01*
X93899861Y-81115221D01*
X93883823Y-81129117D01*
X93800878Y-81189381D01*
X93800869Y-81189388D01*
X93678388Y-81311869D01*
X93678388Y-81311870D01*
X93678386Y-81311872D01*
X93634659Y-81372056D01*
X93576568Y-81452011D01*
X93497928Y-81606352D01*
X93444397Y-81771102D01*
X93440054Y-81798523D01*
X93417300Y-81942189D01*
X93417300Y-82115411D01*
X93444398Y-82286501D01*
X93497927Y-82451245D01*
X93576568Y-82605588D01*
X93678386Y-82745728D01*
X93800872Y-82868214D01*
X93818057Y-82880699D01*
X93883823Y-82928483D01*
X93926489Y-82983813D01*
X93932467Y-83053426D01*
X93899861Y-83115221D01*
X93883823Y-83129117D01*
X93800878Y-83189381D01*
X93800869Y-83189388D01*
X93678388Y-83311869D01*
X93678388Y-83311870D01*
X93678386Y-83311872D01*
X93649601Y-83351491D01*
X93576568Y-83452011D01*
X93497928Y-83606352D01*
X93444397Y-83771102D01*
X93417300Y-83942189D01*
X93417300Y-84115410D01*
X93433152Y-84215500D01*
X93444398Y-84286501D01*
X93497927Y-84451245D01*
X93576568Y-84605588D01*
X93678386Y-84745728D01*
X93800872Y-84868214D01*
X93800878Y-84868218D01*
X93883823Y-84928483D01*
X93926489Y-84983813D01*
X93932467Y-85053426D01*
X93899861Y-85115221D01*
X93883823Y-85129117D01*
X93800878Y-85189381D01*
X93800869Y-85189388D01*
X93678388Y-85311869D01*
X93678388Y-85311870D01*
X93678386Y-85311872D01*
X93651367Y-85349060D01*
X93576568Y-85452011D01*
X93497928Y-85606352D01*
X93444397Y-85771102D01*
X93417300Y-85942189D01*
X93417300Y-85979000D01*
X89721700Y-85979000D01*
X89721700Y-62033471D01*
X90859500Y-62033471D01*
X90859500Y-62426528D01*
X90898026Y-62817702D01*
X90974704Y-63203194D01*
X90974707Y-63203205D01*
X91088810Y-63579354D01*
X91239230Y-63942499D01*
X91239232Y-63942504D01*
X91424511Y-64289137D01*
X91424522Y-64289155D01*
X91642887Y-64615960D01*
X91642897Y-64615974D01*
X91892254Y-64919817D01*
X92170182Y-65197745D01*
X92170187Y-65197749D01*
X92170188Y-65197750D01*
X92474031Y-65447107D01*
X92800851Y-65665482D01*
X92800860Y-65665487D01*
X92800862Y-65665488D01*
X93147495Y-65850767D01*
X93147497Y-65850767D01*
X93147503Y-65850771D01*
X93510647Y-66001190D01*
X93886785Y-66115290D01*
X93886791Y-66115291D01*
X93886794Y-66115292D01*
X93886805Y-66115295D01*
X94272297Y-66191973D01*
X94663468Y-66230500D01*
X94663471Y-66230500D01*
X95056529Y-66230500D01*
X95056532Y-66230500D01*
X95447703Y-66191973D01*
X95522748Y-66177045D01*
X95833194Y-66115295D01*
X95833205Y-66115292D01*
X95833205Y-66115291D01*
X95833215Y-66115290D01*
X96209353Y-66001190D01*
X96572497Y-65850771D01*
X96919149Y-65665482D01*
X97245969Y-65447107D01*
X97549812Y-65197750D01*
X97827750Y-64919812D01*
X98077107Y-64615969D01*
X98295482Y-64289149D01*
X98480771Y-63942497D01*
X98631190Y-63579353D01*
X98745290Y-63203215D01*
X98745292Y-63203205D01*
X98745295Y-63203194D01*
X98821973Y-62817702D01*
X98860500Y-62426528D01*
X98860500Y-62033471D01*
X98821973Y-61642297D01*
X98745295Y-61256805D01*
X98745292Y-61256794D01*
X98745291Y-61256791D01*
X98745290Y-61256785D01*
X98631190Y-60880647D01*
X98480771Y-60517503D01*
X98295482Y-60170851D01*
X98077107Y-59844031D01*
X97827750Y-59540188D01*
X97827749Y-59540187D01*
X97827745Y-59540182D01*
X97549817Y-59262254D01*
X97245974Y-59012897D01*
X97245973Y-59012896D01*
X97245969Y-59012893D01*
X96919149Y-58794518D01*
X96919144Y-58794515D01*
X96919137Y-58794511D01*
X96572504Y-58609232D01*
X96572499Y-58609230D01*
X96209354Y-58458810D01*
X95833205Y-58344707D01*
X95833194Y-58344704D01*
X95447702Y-58268026D01*
X95153089Y-58239010D01*
X95056532Y-58229500D01*
X94663468Y-58229500D01*
X94574251Y-58238287D01*
X94272297Y-58268026D01*
X93886805Y-58344704D01*
X93886794Y-58344707D01*
X93510645Y-58458810D01*
X93147500Y-58609230D01*
X93147495Y-58609232D01*
X92800862Y-58794511D01*
X92800844Y-58794522D01*
X92474039Y-59012887D01*
X92474025Y-59012897D01*
X92170182Y-59262254D01*
X91892254Y-59540182D01*
X91642897Y-59844025D01*
X91642887Y-59844039D01*
X91424522Y-60170844D01*
X91424511Y-60170862D01*
X91239232Y-60517495D01*
X91239230Y-60517500D01*
X91088810Y-60880645D01*
X90974707Y-61256794D01*
X90974704Y-61256805D01*
X90898026Y-61642297D01*
X90859500Y-62033471D01*
X89721700Y-62033471D01*
X89721700Y-57266500D01*
X89741385Y-57199461D01*
X89794189Y-57153706D01*
X89845700Y-57142500D01*
X182881500Y-57142500D01*
X182948539Y-57162185D01*
G37*
%TD.AperFunction*%
%TA.AperFunction,Conductor*%
G36*
X99486388Y-81008185D02*
G01*
X99507030Y-81024819D01*
X103614966Y-85132755D01*
X103648451Y-85194077D01*
X103651245Y-85223592D01*
X103648049Y-85349061D01*
X103648049Y-85349060D01*
X103632000Y-85979000D01*
X97770146Y-85979000D01*
X96177188Y-84386042D01*
X96143703Y-84324719D01*
X96142396Y-84278963D01*
X96168300Y-84115410D01*
X96168300Y-83942189D01*
X96141202Y-83771102D01*
X96141202Y-83771099D01*
X96087673Y-83606355D01*
X96009032Y-83452012D01*
X95907214Y-83311872D01*
X95784728Y-83189386D01*
X95701775Y-83129117D01*
X95659111Y-83073788D01*
X95653132Y-83004174D01*
X95685738Y-82942379D01*
X95701776Y-82928482D01*
X95704580Y-82926445D01*
X95784728Y-82868214D01*
X95907214Y-82745728D01*
X96009032Y-82605588D01*
X96087673Y-82451245D01*
X96141202Y-82286501D01*
X96168300Y-82115411D01*
X96168300Y-81942189D01*
X96141202Y-81771099D01*
X96087673Y-81606355D01*
X96009032Y-81452012D01*
X95907214Y-81311872D01*
X95795523Y-81200181D01*
X95762038Y-81138858D01*
X95767022Y-81069166D01*
X95808894Y-81013233D01*
X95874358Y-80988816D01*
X95883204Y-80988500D01*
X99419349Y-80988500D01*
X99486388Y-81008185D01*
G37*
%TD.AperFunction*%
%TA.AperFunction,Conductor*%
G36*
X110461009Y-85223794D02*
G01*
X110483885Y-85241831D01*
X115155325Y-89913272D01*
X115160035Y-89917137D01*
X115159274Y-89918063D01*
X115200009Y-89966794D01*
X115208725Y-90036118D01*
X115178577Y-90099149D01*
X115155211Y-90119399D01*
X115059707Y-90183213D01*
X114948213Y-90294707D01*
X114948210Y-90294711D01*
X114860609Y-90425814D01*
X114860602Y-90425827D01*
X114800264Y-90571498D01*
X114800261Y-90571510D01*
X114769500Y-90726153D01*
X114769500Y-90883846D01*
X114800261Y-91038489D01*
X114800264Y-91038501D01*
X114860602Y-91184172D01*
X114860609Y-91184185D01*
X114948210Y-91315288D01*
X114948213Y-91315292D01*
X115059707Y-91426786D01*
X115059711Y-91426789D01*
X115190814Y-91514390D01*
X115190827Y-91514397D01*
X115336498Y-91574735D01*
X115336503Y-91574737D01*
X115469536Y-91601199D01*
X115491153Y-91605499D01*
X115491156Y-91605500D01*
X115491158Y-91605500D01*
X115648844Y-91605500D01*
X115648845Y-91605499D01*
X115803497Y-91574737D01*
X115878963Y-91543478D01*
X115947864Y-91514939D01*
X115995316Y-91505500D01*
X119716684Y-91505500D01*
X119764136Y-91514939D01*
X119908498Y-91574735D01*
X119908503Y-91574737D01*
X120041536Y-91601199D01*
X120063153Y-91605499D01*
X120063156Y-91605500D01*
X120063158Y-91605500D01*
X120220844Y-91605500D01*
X120220845Y-91605499D01*
X120375497Y-91574737D01*
X120450963Y-91543478D01*
X120519864Y-91514939D01*
X120567316Y-91505500D01*
X123243348Y-91505500D01*
X123310387Y-91525185D01*
X123324167Y-91535456D01*
X129784676Y-97087456D01*
X129822690Y-97146079D01*
X129822976Y-97215948D01*
X129785442Y-97274880D01*
X129722005Y-97304165D01*
X129703857Y-97305500D01*
X129167903Y-97305500D01*
X128934631Y-97342446D01*
X128710003Y-97415433D01*
X128499566Y-97522657D01*
X128390550Y-97601862D01*
X128308490Y-97661483D01*
X128308488Y-97661485D01*
X128308487Y-97661485D01*
X128141485Y-97828487D01*
X128141485Y-97828488D01*
X128141483Y-97828490D01*
X128081862Y-97910550D01*
X128002657Y-98019566D01*
X127895433Y-98230003D01*
X127822446Y-98454631D01*
X127785500Y-98687902D01*
X127785500Y-98924097D01*
X127822446Y-99157368D01*
X127895433Y-99381996D01*
X128002657Y-99592433D01*
X128141483Y-99783510D01*
X128308490Y-99950517D01*
X128499567Y-100089343D01*
X128598991Y-100140002D01*
X128710003Y-100196566D01*
X128710005Y-100196566D01*
X128710008Y-100196568D01*
X128830412Y-100235689D01*
X128934631Y-100269553D01*
X129167903Y-100306500D01*
X129167908Y-100306500D01*
X132524711Y-100306500D01*
X132591750Y-100326185D01*
X132612392Y-100342819D01*
X134861806Y-102592233D01*
X134892055Y-102641594D01*
X134905831Y-102683992D01*
X134994708Y-102858422D01*
X135013057Y-102894434D01*
X135128136Y-103052826D01*
X135151884Y-103085511D01*
X135151885Y-103085512D01*
X153479891Y-121413519D01*
X153479896Y-121413523D01*
X153646555Y-121534606D01*
X153670967Y-121552343D01*
X153788145Y-121612048D01*
X153881403Y-121659566D01*
X153881405Y-121659566D01*
X153881408Y-121659568D01*
X154001812Y-121698689D01*
X154106031Y-121732553D01*
X154339304Y-121769500D01*
X154339309Y-121769500D01*
X154575497Y-121769500D01*
X154808769Y-121732553D01*
X154832461Y-121724855D01*
X155033393Y-121659568D01*
X155243834Y-121552343D01*
X155434910Y-121413518D01*
X155601918Y-121246510D01*
X155740743Y-121055434D01*
X155847968Y-120844993D01*
X155920953Y-120620369D01*
X155936984Y-120519152D01*
X155957900Y-120387097D01*
X155957900Y-120150903D01*
X155920953Y-119917631D01*
X155887089Y-119813412D01*
X155847968Y-119693008D01*
X155847966Y-119693005D01*
X155847966Y-119693003D01*
X155809066Y-119616659D01*
X155740743Y-119482567D01*
X155708232Y-119437819D01*
X155601923Y-119291496D01*
X155601919Y-119291491D01*
X154215809Y-117905381D01*
X154182324Y-117844058D01*
X154187308Y-117774366D01*
X154229180Y-117718433D01*
X154294644Y-117694016D01*
X154303490Y-117693700D01*
X173415192Y-117693700D01*
X173482231Y-117713385D01*
X173502873Y-117730019D01*
X177362576Y-121589722D01*
X177396061Y-121651045D01*
X177391077Y-121720737D01*
X177389456Y-121724855D01*
X177286614Y-121973139D01*
X177286609Y-121973155D01*
X177211952Y-122251780D01*
X177211949Y-122251793D01*
X177174301Y-122537761D01*
X177174300Y-122537778D01*
X177174300Y-122826221D01*
X177174301Y-122826238D01*
X177211949Y-123112206D01*
X177211950Y-123112211D01*
X177211951Y-123112217D01*
X177211952Y-123112219D01*
X177286609Y-123390844D01*
X177286614Y-123390860D01*
X177396991Y-123657336D01*
X177396999Y-123657352D01*
X177541220Y-123907148D01*
X177541231Y-123907164D01*
X177716824Y-124136002D01*
X177716830Y-124136009D01*
X177920790Y-124339969D01*
X177920796Y-124339974D01*
X178149644Y-124515575D01*
X178149651Y-124515579D01*
X178399447Y-124659800D01*
X178399463Y-124659808D01*
X178665939Y-124770185D01*
X178665945Y-124770186D01*
X178665955Y-124770191D01*
X178944583Y-124844849D01*
X179230572Y-124882500D01*
X179230579Y-124882500D01*
X179519021Y-124882500D01*
X179519028Y-124882500D01*
X179805017Y-124844849D01*
X180083645Y-124770191D01*
X180083657Y-124770185D01*
X180083660Y-124770185D01*
X180350136Y-124659808D01*
X180350139Y-124659806D01*
X180350145Y-124659804D01*
X180599956Y-124515575D01*
X180828804Y-124339974D01*
X181032774Y-124136004D01*
X181208375Y-123907156D01*
X181352604Y-123657345D01*
X181462991Y-123390845D01*
X181537649Y-123112217D01*
X181575300Y-122826228D01*
X181575300Y-122537772D01*
X181537649Y-122251783D01*
X181462991Y-121973155D01*
X181462986Y-121973145D01*
X181462985Y-121973139D01*
X181352608Y-121706663D01*
X181352600Y-121706647D01*
X181208379Y-121456851D01*
X181208375Y-121456844D01*
X181032774Y-121227996D01*
X181032769Y-121227990D01*
X180828809Y-121024030D01*
X180828802Y-121024024D01*
X180599964Y-120848431D01*
X180599962Y-120848429D01*
X180599956Y-120848425D01*
X180599951Y-120848422D01*
X180599948Y-120848420D01*
X180350152Y-120704199D01*
X180350136Y-120704191D01*
X180083660Y-120593814D01*
X180083648Y-120593810D01*
X180083645Y-120593809D01*
X179805017Y-120519151D01*
X179805011Y-120519150D01*
X179805006Y-120519149D01*
X179519038Y-120481501D01*
X179519033Y-120481500D01*
X179519028Y-120481500D01*
X179230572Y-120481500D01*
X179230566Y-120481500D01*
X179230561Y-120481501D01*
X178944593Y-120519149D01*
X178944586Y-120519150D01*
X178944583Y-120519151D01*
X178824019Y-120551456D01*
X178665955Y-120593809D01*
X178665939Y-120593814D01*
X178417655Y-120696656D01*
X178348186Y-120704125D01*
X178285707Y-120672849D01*
X178282522Y-120669776D01*
X174298928Y-116686181D01*
X174265443Y-116624858D01*
X174270427Y-116555166D01*
X174312299Y-116499233D01*
X174377763Y-116474816D01*
X174386609Y-116474500D01*
X177179587Y-116474500D01*
X177246626Y-116494185D01*
X177292381Y-116546989D01*
X177294148Y-116551048D01*
X177396991Y-116799335D01*
X177396999Y-116799352D01*
X177541220Y-117049148D01*
X177541231Y-117049164D01*
X177716824Y-117278002D01*
X177716830Y-117278009D01*
X177920790Y-117481969D01*
X177920796Y-117481974D01*
X178149644Y-117657575D01*
X178149651Y-117657579D01*
X178399447Y-117801800D01*
X178399463Y-117801808D01*
X178665939Y-117912185D01*
X178665945Y-117912186D01*
X178665955Y-117912191D01*
X178944583Y-117986849D01*
X179230572Y-118024500D01*
X179230579Y-118024500D01*
X179519021Y-118024500D01*
X179519028Y-118024500D01*
X179805017Y-117986849D01*
X180083645Y-117912191D01*
X180083657Y-117912185D01*
X180083660Y-117912185D01*
X180350136Y-117801808D01*
X180350139Y-117801806D01*
X180350145Y-117801804D01*
X180599956Y-117657575D01*
X180828804Y-117481974D01*
X181032774Y-117278004D01*
X181208375Y-117049156D01*
X181352604Y-116799345D01*
X181360497Y-116780291D01*
X181462985Y-116532860D01*
X181462985Y-116532857D01*
X181462991Y-116532845D01*
X181537649Y-116254217D01*
X181575300Y-115968228D01*
X181575300Y-115679772D01*
X181537649Y-115393783D01*
X181462991Y-115115155D01*
X181462986Y-115115145D01*
X181462985Y-115115139D01*
X181352608Y-114848663D01*
X181352600Y-114848647D01*
X181208379Y-114598851D01*
X181208375Y-114598844D01*
X181032774Y-114369996D01*
X181032769Y-114369990D01*
X180828809Y-114166030D01*
X180828802Y-114166024D01*
X180599964Y-113990431D01*
X180599962Y-113990429D01*
X180599956Y-113990425D01*
X180599951Y-113990422D01*
X180599948Y-113990420D01*
X180350152Y-113846199D01*
X180350136Y-113846191D01*
X180083660Y-113735814D01*
X180083648Y-113735810D01*
X180083645Y-113735809D01*
X179805017Y-113661151D01*
X179805011Y-113661150D01*
X179805006Y-113661149D01*
X179519038Y-113623501D01*
X179519033Y-113623500D01*
X179519028Y-113623500D01*
X179230572Y-113623500D01*
X179230566Y-113623500D01*
X179230561Y-113623501D01*
X178944593Y-113661149D01*
X178944586Y-113661150D01*
X178944583Y-113661151D01*
X178665955Y-113735809D01*
X178665939Y-113735814D01*
X178399463Y-113846191D01*
X178399447Y-113846199D01*
X178149651Y-113990420D01*
X178149635Y-113990431D01*
X177920797Y-114166024D01*
X177920790Y-114166030D01*
X177716830Y-114369990D01*
X177716824Y-114369997D01*
X177541231Y-114598835D01*
X177541220Y-114598851D01*
X177396999Y-114848647D01*
X177396991Y-114848664D01*
X177294148Y-115096952D01*
X177250307Y-115151356D01*
X177184013Y-115173421D01*
X177179587Y-115173500D01*
X154600408Y-115173500D01*
X154533369Y-115153815D01*
X154512727Y-115137181D01*
X153593853Y-114218307D01*
X153560368Y-114156984D01*
X153565352Y-114087292D01*
X153607224Y-114031359D01*
X153672688Y-114006942D01*
X153719849Y-114012694D01*
X153777293Y-114031359D01*
X153817665Y-114044477D01*
X153918757Y-114060488D01*
X154019848Y-114076500D01*
X154019849Y-114076500D01*
X154224551Y-114076500D01*
X154224552Y-114076500D01*
X154426734Y-114044477D01*
X154621419Y-113981220D01*
X154803810Y-113888287D01*
X154932682Y-113794657D01*
X154969413Y-113767971D01*
X154969415Y-113767968D01*
X154969419Y-113767966D01*
X155114166Y-113623219D01*
X155114168Y-113623215D01*
X155114171Y-113623213D01*
X155166932Y-113550590D01*
X155234487Y-113457610D01*
X155327420Y-113275219D01*
X155390677Y-113080534D01*
X155422700Y-112878352D01*
X155422700Y-112673648D01*
X155390677Y-112471466D01*
X155377198Y-112429983D01*
X155327418Y-112276776D01*
X155279527Y-112182786D01*
X155234487Y-112094390D01*
X155219092Y-112073200D01*
X155114171Y-111928786D01*
X154969413Y-111784028D01*
X154803814Y-111663715D01*
X154775393Y-111649234D01*
X154711117Y-111616483D01*
X154660323Y-111568511D01*
X154643528Y-111500690D01*
X154666065Y-111434555D01*
X154711117Y-111395516D01*
X154803810Y-111348287D01*
X154875750Y-111296020D01*
X154969413Y-111227971D01*
X154969415Y-111227968D01*
X154969419Y-111227966D01*
X155114166Y-111083219D01*
X155114168Y-111083215D01*
X155114171Y-111083213D01*
X155166932Y-111010590D01*
X155234487Y-110917610D01*
X155327420Y-110735219D01*
X155390677Y-110540534D01*
X155422700Y-110338352D01*
X155422700Y-110133648D01*
X155392207Y-109941126D01*
X155390677Y-109931465D01*
X155350686Y-109808386D01*
X155327420Y-109736781D01*
X155327418Y-109736778D01*
X155327418Y-109736776D01*
X155279527Y-109642786D01*
X155234487Y-109554390D01*
X155226756Y-109543749D01*
X155114171Y-109388786D01*
X154969413Y-109244028D01*
X154803814Y-109123715D01*
X154777295Y-109110203D01*
X154711117Y-109076483D01*
X154660323Y-109028511D01*
X154643528Y-108960690D01*
X154666065Y-108894555D01*
X154711117Y-108855516D01*
X154803810Y-108808287D01*
X154824970Y-108792913D01*
X154969413Y-108687971D01*
X154969415Y-108687968D01*
X154969419Y-108687966D01*
X155114166Y-108543219D01*
X155114168Y-108543215D01*
X155114171Y-108543213D01*
X155166932Y-108470590D01*
X155234487Y-108377610D01*
X155327420Y-108195219D01*
X155390677Y-108000534D01*
X155422700Y-107798352D01*
X155422700Y-107593648D01*
X155390677Y-107391466D01*
X155327420Y-107196781D01*
X155327418Y-107196778D01*
X155327418Y-107196776D01*
X155277939Y-107099669D01*
X155234487Y-107014390D01*
X155226756Y-107003749D01*
X155114171Y-106848786D01*
X154969413Y-106704028D01*
X154803814Y-106583715D01*
X154742963Y-106552710D01*
X154711117Y-106536483D01*
X154660323Y-106488511D01*
X154643528Y-106420690D01*
X154666065Y-106354555D01*
X154711117Y-106315516D01*
X154803810Y-106268287D01*
X154848974Y-106235474D01*
X154969413Y-106147971D01*
X154969415Y-106147968D01*
X154969419Y-106147966D01*
X155114166Y-106003219D01*
X155114168Y-106003215D01*
X155114171Y-106003213D01*
X155166932Y-105930590D01*
X155234487Y-105837610D01*
X155327420Y-105655219D01*
X155390677Y-105460534D01*
X155422700Y-105258352D01*
X155422700Y-105053648D01*
X155400071Y-104910776D01*
X155390677Y-104851465D01*
X155343803Y-104707203D01*
X155327420Y-104656781D01*
X155327418Y-104656778D01*
X155327418Y-104656776D01*
X155279527Y-104562786D01*
X155234487Y-104474390D01*
X155226756Y-104463749D01*
X155114171Y-104308786D01*
X154969413Y-104164028D01*
X154803813Y-104043715D01*
X154803812Y-104043714D01*
X154803810Y-104043713D01*
X154711770Y-103996816D01*
X154621423Y-103950781D01*
X154426734Y-103887522D01*
X154252195Y-103859878D01*
X154224552Y-103855500D01*
X154019848Y-103855500D01*
X153995529Y-103859351D01*
X153817665Y-103887522D01*
X153622976Y-103950781D01*
X153440586Y-104043715D01*
X153274986Y-104164028D01*
X153130228Y-104308786D01*
X153009915Y-104474386D01*
X152916981Y-104656776D01*
X152853722Y-104851465D01*
X152821700Y-105053648D01*
X152821700Y-105258351D01*
X152853722Y-105460534D01*
X152916981Y-105655223D01*
X152980891Y-105780653D01*
X153009785Y-105837359D01*
X153009915Y-105837613D01*
X153130228Y-106003213D01*
X153274986Y-106147971D01*
X153395426Y-106235474D01*
X153440590Y-106268287D01*
X153532040Y-106314883D01*
X153533280Y-106315515D01*
X153584076Y-106363490D01*
X153600871Y-106431311D01*
X153578334Y-106497446D01*
X153533280Y-106536485D01*
X153440586Y-106583715D01*
X153274986Y-106704028D01*
X153130228Y-106848786D01*
X153009915Y-107014386D01*
X152916981Y-107196776D01*
X152853722Y-107391465D01*
X152821700Y-107593648D01*
X152821700Y-107798351D01*
X152853722Y-108000534D01*
X152916981Y-108195223D01*
X152980891Y-108320653D01*
X153009269Y-108376347D01*
X153009915Y-108377613D01*
X153130228Y-108543213D01*
X153274986Y-108687971D01*
X153429949Y-108800556D01*
X153440590Y-108808287D01*
X153532040Y-108854883D01*
X153533280Y-108855515D01*
X153584076Y-108903490D01*
X153600871Y-108971311D01*
X153578334Y-109037446D01*
X153533280Y-109076485D01*
X153440586Y-109123715D01*
X153274986Y-109244028D01*
X153130228Y-109388786D01*
X153009915Y-109554386D01*
X152916981Y-109736776D01*
X152853722Y-109931465D01*
X152821700Y-110133648D01*
X152821700Y-110338351D01*
X152853722Y-110540534D01*
X152916981Y-110735223D01*
X153009915Y-110917613D01*
X153130228Y-111083213D01*
X153274986Y-111227971D01*
X153425348Y-111337213D01*
X153440590Y-111348287D01*
X153532040Y-111394883D01*
X153533280Y-111395515D01*
X153584076Y-111443490D01*
X153600871Y-111511311D01*
X153578334Y-111577446D01*
X153533280Y-111616485D01*
X153440586Y-111663715D01*
X153274986Y-111784028D01*
X153130228Y-111928786D01*
X153009915Y-112094386D01*
X152916981Y-112276776D01*
X152853722Y-112471465D01*
X152821700Y-112673648D01*
X152821700Y-112878351D01*
X152853723Y-113080535D01*
X152853723Y-113080538D01*
X152885504Y-113178347D01*
X152887499Y-113248188D01*
X152851419Y-113308021D01*
X152788718Y-113338849D01*
X152719304Y-113330884D01*
X152679892Y-113304346D01*
X140386819Y-101011273D01*
X140353334Y-100949950D01*
X140350500Y-100923592D01*
X140350500Y-99184000D01*
X140370185Y-99116961D01*
X140422989Y-99071206D01*
X140474500Y-99060000D01*
X154257417Y-99060000D01*
X154324456Y-99079685D01*
X154340369Y-99091832D01*
X156164257Y-100733332D01*
X156200918Y-100792810D01*
X156199604Y-100862667D01*
X156160730Y-100920724D01*
X156096639Y-100948548D01*
X156081305Y-100949500D01*
X150517335Y-100949500D01*
X150450296Y-100929815D01*
X150448490Y-100928633D01*
X150391579Y-100890606D01*
X150391572Y-100890602D01*
X150245901Y-100830264D01*
X150245889Y-100830261D01*
X150091245Y-100799500D01*
X150091242Y-100799500D01*
X149933558Y-100799500D01*
X149933555Y-100799500D01*
X149778910Y-100830261D01*
X149778898Y-100830264D01*
X149633227Y-100890602D01*
X149633214Y-100890609D01*
X149502111Y-100978210D01*
X149502107Y-100978213D01*
X149390613Y-101089707D01*
X149390610Y-101089711D01*
X149303009Y-101220814D01*
X149303002Y-101220827D01*
X149242664Y-101366498D01*
X149242661Y-101366510D01*
X149211900Y-101521153D01*
X149211900Y-101678846D01*
X149242661Y-101833489D01*
X149242664Y-101833501D01*
X149303002Y-101979172D01*
X149303009Y-101979185D01*
X149390610Y-102110288D01*
X149390613Y-102110292D01*
X149502107Y-102221786D01*
X149502111Y-102221789D01*
X149633214Y-102309390D01*
X149633227Y-102309397D01*
X149778898Y-102369735D01*
X149778903Y-102369737D01*
X149933553Y-102400499D01*
X149933556Y-102400500D01*
X149933558Y-102400500D01*
X150091244Y-102400500D01*
X150091245Y-102400499D01*
X150245897Y-102369737D01*
X150391579Y-102309394D01*
X150448444Y-102271397D01*
X150515121Y-102250520D01*
X150517335Y-102250500D01*
X157787865Y-102250500D01*
X157806010Y-102255828D01*
X157824919Y-102256166D01*
X157853134Y-102269665D01*
X157854904Y-102270185D01*
X157856756Y-102271398D01*
X157913249Y-102309146D01*
X157927310Y-102320080D01*
X160474499Y-104612549D01*
X160511160Y-104672027D01*
X160509846Y-104741884D01*
X160509478Y-104743034D01*
X160474210Y-104851579D01*
X160442200Y-105053682D01*
X160442200Y-105258317D01*
X160474209Y-105460417D01*
X160537444Y-105655031D01*
X160630341Y-105837350D01*
X160630347Y-105837359D01*
X160662723Y-105881921D01*
X160662724Y-105881922D01*
X161342200Y-105202446D01*
X161342200Y-105208661D01*
X161369459Y-105310394D01*
X161422120Y-105401606D01*
X161496594Y-105476080D01*
X161587806Y-105528741D01*
X161689539Y-105556000D01*
X161695753Y-105556000D01*
X161016276Y-106235474D01*
X161060852Y-106267861D01*
X161153828Y-106315234D01*
X161204625Y-106363208D01*
X161221420Y-106431029D01*
X161198883Y-106497164D01*
X161153830Y-106536203D01*
X161060588Y-106583713D01*
X160894986Y-106704028D01*
X160750228Y-106848786D01*
X160629915Y-107014386D01*
X160536981Y-107196776D01*
X160473722Y-107391465D01*
X160441700Y-107593648D01*
X160441700Y-107798351D01*
X160473722Y-108000534D01*
X160536981Y-108195223D01*
X160600891Y-108320653D01*
X160629269Y-108376347D01*
X160629915Y-108377613D01*
X160750228Y-108543213D01*
X160894986Y-108687971D01*
X161049949Y-108800556D01*
X161060590Y-108808287D01*
X161152040Y-108854883D01*
X161153280Y-108855515D01*
X161204076Y-108903490D01*
X161220871Y-108971311D01*
X161198334Y-109037446D01*
X161153280Y-109076485D01*
X161060586Y-109123715D01*
X160894986Y-109244028D01*
X160750228Y-109388786D01*
X160629915Y-109554386D01*
X160536981Y-109736776D01*
X160473722Y-109931465D01*
X160441700Y-110133648D01*
X160441700Y-110338351D01*
X160473722Y-110540534D01*
X160536981Y-110735223D01*
X160629915Y-110917613D01*
X160750228Y-111083213D01*
X160750234Y-111083219D01*
X160894981Y-111227966D01*
X160988652Y-111296021D01*
X161031317Y-111351350D01*
X161037296Y-111420963D01*
X161004691Y-111482759D01*
X160954771Y-111514045D01*
X160872866Y-111541186D01*
X160872863Y-111541187D01*
X160723542Y-111633289D01*
X160599489Y-111757342D01*
X160507387Y-111906663D01*
X160507386Y-111906666D01*
X160452201Y-112073203D01*
X160452201Y-112073204D01*
X160452200Y-112073204D01*
X160441700Y-112175983D01*
X160441700Y-113376001D01*
X160441701Y-113376018D01*
X160452200Y-113478796D01*
X160452201Y-113478799D01*
X160507385Y-113645331D01*
X160507387Y-113645336D01*
X160542269Y-113701888D01*
X160599488Y-113794656D01*
X160723544Y-113918712D01*
X160872866Y-114010814D01*
X161039403Y-114065999D01*
X161142191Y-114076500D01*
X162342208Y-114076499D01*
X162444997Y-114065999D01*
X162611534Y-114010814D01*
X162760856Y-113918712D01*
X162884912Y-113794656D01*
X162977014Y-113645334D01*
X163032199Y-113478797D01*
X163042700Y-113376009D01*
X163042699Y-112175992D01*
X163041133Y-112160666D01*
X163032199Y-112073203D01*
X163032198Y-112073200D01*
X163011700Y-112011342D01*
X162977014Y-111906666D01*
X162884912Y-111757344D01*
X162760856Y-111633288D01*
X162655835Y-111568511D01*
X162611536Y-111541187D01*
X162611535Y-111541186D01*
X162611534Y-111541186D01*
X162529627Y-111514044D01*
X162472184Y-111474272D01*
X162445361Y-111409756D01*
X162457676Y-111340980D01*
X162495747Y-111296021D01*
X162589419Y-111227966D01*
X162734166Y-111083219D01*
X162734168Y-111083215D01*
X162734171Y-111083213D01*
X162786932Y-111010590D01*
X162854487Y-110917610D01*
X162947420Y-110735219D01*
X163010677Y-110540534D01*
X163042700Y-110338352D01*
X163042700Y-110133648D01*
X163012207Y-109941126D01*
X163010677Y-109931465D01*
X162970686Y-109808386D01*
X162947420Y-109736781D01*
X162947418Y-109736778D01*
X162947418Y-109736776D01*
X162899527Y-109642786D01*
X162854487Y-109554390D01*
X162846756Y-109543749D01*
X162734171Y-109388786D01*
X162589413Y-109244028D01*
X162423814Y-109123715D01*
X162397295Y-109110203D01*
X162331117Y-109076483D01*
X162280323Y-109028511D01*
X162263528Y-108960690D01*
X162286065Y-108894555D01*
X162331117Y-108855516D01*
X162397297Y-108821796D01*
X177174800Y-108821796D01*
X177174800Y-109110203D01*
X177212443Y-109396118D01*
X177287083Y-109674682D01*
X177397444Y-109941116D01*
X177397448Y-109941126D01*
X177541638Y-110190872D01*
X177652238Y-110335007D01*
X178566297Y-109420947D01*
X178656305Y-109555653D01*
X178785147Y-109684495D01*
X178919850Y-109774501D01*
X178005791Y-110688560D01*
X178149928Y-110799161D01*
X178399673Y-110943351D01*
X178399683Y-110943355D01*
X178666117Y-111053716D01*
X178944681Y-111128356D01*
X179230596Y-111165999D01*
X179230611Y-111166000D01*
X179518989Y-111166000D01*
X179519003Y-111165999D01*
X179804918Y-111128356D01*
X180083482Y-111053716D01*
X180349916Y-110943355D01*
X180349926Y-110943351D01*
X180599670Y-110799161D01*
X180599687Y-110799150D01*
X180743807Y-110688561D01*
X180743807Y-110688559D01*
X179829748Y-109774501D01*
X179964453Y-109684495D01*
X180093295Y-109555653D01*
X180183301Y-109420948D01*
X181097359Y-110335007D01*
X181097361Y-110335007D01*
X181207950Y-110190887D01*
X181207961Y-110190870D01*
X181352151Y-109941126D01*
X181352155Y-109941116D01*
X181462516Y-109674682D01*
X181537156Y-109396118D01*
X181574799Y-109110203D01*
X181574800Y-109110189D01*
X181574800Y-108821810D01*
X181574799Y-108821796D01*
X181537156Y-108535881D01*
X181462516Y-108257317D01*
X181352155Y-107990883D01*
X181352151Y-107990873D01*
X181207961Y-107741128D01*
X181097360Y-107596991D01*
X180183301Y-108511050D01*
X180093295Y-108376347D01*
X179964453Y-108247505D01*
X179829747Y-108157497D01*
X180743807Y-107243438D01*
X180599672Y-107132838D01*
X180349926Y-106988648D01*
X180349916Y-106988644D01*
X180083482Y-106878283D01*
X179804918Y-106803643D01*
X179519003Y-106766000D01*
X179230596Y-106766000D01*
X178944681Y-106803643D01*
X178666117Y-106878283D01*
X178399683Y-106988644D01*
X178399673Y-106988648D01*
X178149923Y-107132841D01*
X178005791Y-107243436D01*
X178005791Y-107243438D01*
X178919851Y-108157498D01*
X178785147Y-108247505D01*
X178656305Y-108376347D01*
X178566298Y-108511051D01*
X177652238Y-107596991D01*
X177652236Y-107596991D01*
X177541641Y-107741123D01*
X177397448Y-107990873D01*
X177397444Y-107990883D01*
X177287083Y-108257317D01*
X177212443Y-108535881D01*
X177174800Y-108821796D01*
X162397297Y-108821796D01*
X162423810Y-108808287D01*
X162439232Y-108797081D01*
X162548870Y-108717427D01*
X162548871Y-108717426D01*
X162589415Y-108687969D01*
X162589415Y-108687968D01*
X162589419Y-108687966D01*
X162734166Y-108543219D01*
X162734168Y-108543215D01*
X162734171Y-108543213D01*
X162786932Y-108470590D01*
X162854487Y-108377610D01*
X162947420Y-108195219D01*
X163010677Y-108000534D01*
X163042700Y-107798352D01*
X163042700Y-107593648D01*
X163010677Y-107391466D01*
X162947420Y-107196781D01*
X162854487Y-107014390D01*
X162846756Y-107003749D01*
X162734171Y-106848786D01*
X162589413Y-106704028D01*
X162423811Y-106583713D01*
X162330569Y-106536203D01*
X162279774Y-106488229D01*
X162262979Y-106420407D01*
X162285517Y-106354273D01*
X162330571Y-106315234D01*
X162423546Y-106267861D01*
X162423547Y-106267861D01*
X162468121Y-106235474D01*
X161788647Y-105556000D01*
X161794861Y-105556000D01*
X161896594Y-105528741D01*
X161987806Y-105476080D01*
X162062280Y-105401606D01*
X162114941Y-105310394D01*
X162142200Y-105208661D01*
X162142200Y-105202447D01*
X162821674Y-105881921D01*
X162854059Y-105837349D01*
X162946955Y-105655031D01*
X163010190Y-105460417D01*
X163042200Y-105258317D01*
X163042200Y-105053682D01*
X163020773Y-104918398D01*
X163029728Y-104849104D01*
X163074724Y-104795652D01*
X163141475Y-104775013D01*
X163143246Y-104775000D01*
X182881500Y-104775000D01*
X182948539Y-104794685D01*
X182994294Y-104847489D01*
X183005500Y-104899000D01*
X183005500Y-138435800D01*
X182985815Y-138502839D01*
X182933011Y-138548594D01*
X182881500Y-138559800D01*
X89845700Y-138559800D01*
X89778661Y-138540115D01*
X89732906Y-138487311D01*
X89721700Y-138435800D01*
X89721700Y-133153471D01*
X90859500Y-133153471D01*
X90859500Y-133546528D01*
X90898026Y-133937702D01*
X90974704Y-134323194D01*
X90974707Y-134323205D01*
X91088810Y-134699354D01*
X91239230Y-135062499D01*
X91239232Y-135062504D01*
X91424511Y-135409137D01*
X91424522Y-135409155D01*
X91642887Y-135735960D01*
X91642897Y-135735974D01*
X91892254Y-136039817D01*
X92170182Y-136317745D01*
X92170187Y-136317749D01*
X92170188Y-136317750D01*
X92474031Y-136567107D01*
X92800851Y-136785482D01*
X92800860Y-136785487D01*
X92800862Y-136785488D01*
X93147495Y-136970767D01*
X93147497Y-136970767D01*
X93147503Y-136970771D01*
X93510647Y-137121190D01*
X93886785Y-137235290D01*
X93886791Y-137235291D01*
X93886794Y-137235292D01*
X93886805Y-137235295D01*
X94272297Y-137311973D01*
X94663468Y-137350500D01*
X94663471Y-137350500D01*
X95056529Y-137350500D01*
X95056532Y-137350500D01*
X95447703Y-137311973D01*
X95522748Y-137297045D01*
X95833194Y-137235295D01*
X95833205Y-137235292D01*
X95833205Y-137235291D01*
X95833215Y-137235290D01*
X96209353Y-137121190D01*
X96572497Y-136970771D01*
X96919149Y-136785482D01*
X97245969Y-136567107D01*
X97549812Y-136317750D01*
X97827750Y-136039812D01*
X98077107Y-135735969D01*
X98295482Y-135409149D01*
X98480771Y-135062497D01*
X98631190Y-134699353D01*
X98745290Y-134323215D01*
X98745292Y-134323205D01*
X98745295Y-134323194D01*
X98821973Y-133937702D01*
X98860500Y-133546528D01*
X98860500Y-133153471D01*
X173799500Y-133153471D01*
X173799500Y-133546528D01*
X173838026Y-133937702D01*
X173914704Y-134323194D01*
X173914707Y-134323205D01*
X174028810Y-134699354D01*
X174179230Y-135062499D01*
X174179232Y-135062504D01*
X174364511Y-135409137D01*
X174364522Y-135409155D01*
X174582887Y-135735960D01*
X174582897Y-135735974D01*
X174832254Y-136039817D01*
X175110182Y-136317745D01*
X175110187Y-136317749D01*
X175110188Y-136317750D01*
X175414031Y-136567107D01*
X175740851Y-136785482D01*
X175740860Y-136785487D01*
X175740862Y-136785488D01*
X176087495Y-136970767D01*
X176087497Y-136970767D01*
X176087503Y-136970771D01*
X176450647Y-137121190D01*
X176826785Y-137235290D01*
X176826791Y-137235291D01*
X176826794Y-137235292D01*
X176826805Y-137235295D01*
X177212297Y-137311973D01*
X177603468Y-137350500D01*
X177603471Y-137350500D01*
X177996529Y-137350500D01*
X177996532Y-137350500D01*
X178387703Y-137311973D01*
X178462748Y-137297045D01*
X178773194Y-137235295D01*
X178773205Y-137235292D01*
X178773205Y-137235291D01*
X178773215Y-137235290D01*
X179149353Y-137121190D01*
X179512497Y-136970771D01*
X179859149Y-136785482D01*
X180185969Y-136567107D01*
X180489812Y-136317750D01*
X180767750Y-136039812D01*
X181017107Y-135735969D01*
X181235482Y-135409149D01*
X181420771Y-135062497D01*
X181571190Y-134699353D01*
X181685290Y-134323215D01*
X181685292Y-134323205D01*
X181685295Y-134323194D01*
X181761973Y-133937702D01*
X181800500Y-133546528D01*
X181800500Y-133153471D01*
X181761973Y-132762297D01*
X181685295Y-132376805D01*
X181685292Y-132376794D01*
X181685291Y-132376791D01*
X181685290Y-132376785D01*
X181571190Y-132000647D01*
X181420771Y-131637503D01*
X181397025Y-131593078D01*
X181235488Y-131290862D01*
X181235487Y-131290860D01*
X181235482Y-131290851D01*
X181017107Y-130964031D01*
X180767750Y-130660188D01*
X180767749Y-130660187D01*
X180767745Y-130660182D01*
X180489817Y-130382254D01*
X180185974Y-130132897D01*
X180185973Y-130132896D01*
X180185969Y-130132893D01*
X179859149Y-129914518D01*
X179859144Y-129914515D01*
X179859137Y-129914511D01*
X179512504Y-129729232D01*
X179512499Y-129729230D01*
X179149354Y-129578810D01*
X178773205Y-129464707D01*
X178773194Y-129464704D01*
X178387702Y-129388026D01*
X178093089Y-129359010D01*
X177996532Y-129349500D01*
X177603468Y-129349500D01*
X177514251Y-129358287D01*
X177212297Y-129388026D01*
X176826805Y-129464704D01*
X176826794Y-129464707D01*
X176450645Y-129578810D01*
X176087500Y-129729230D01*
X176087495Y-129729232D01*
X175740862Y-129914511D01*
X175740844Y-129914522D01*
X175414039Y-130132887D01*
X175414025Y-130132897D01*
X175110182Y-130382254D01*
X174832254Y-130660182D01*
X174582897Y-130964025D01*
X174582887Y-130964039D01*
X174364522Y-131290844D01*
X174364511Y-131290862D01*
X174179232Y-131637495D01*
X174179230Y-131637500D01*
X174028810Y-132000645D01*
X173914707Y-132376794D01*
X173914704Y-132376805D01*
X173838026Y-132762297D01*
X173799500Y-133153471D01*
X98860500Y-133153471D01*
X98821973Y-132762297D01*
X98745295Y-132376805D01*
X98745292Y-132376794D01*
X98745291Y-132376791D01*
X98745290Y-132376785D01*
X98631190Y-132000647D01*
X98480771Y-131637503D01*
X98457025Y-131593078D01*
X98295488Y-131290862D01*
X98295487Y-131290860D01*
X98295482Y-131290851D01*
X98077107Y-130964031D01*
X97827750Y-130660188D01*
X97827749Y-130660187D01*
X97827745Y-130660182D01*
X97549817Y-130382254D01*
X97245974Y-130132897D01*
X97245973Y-130132896D01*
X97245969Y-130132893D01*
X96919149Y-129914518D01*
X96919144Y-129914515D01*
X96919137Y-129914511D01*
X96572504Y-129729232D01*
X96572499Y-129729230D01*
X96209354Y-129578810D01*
X95833205Y-129464707D01*
X95833194Y-129464704D01*
X95447702Y-129388026D01*
X95153089Y-129359010D01*
X95056532Y-129349500D01*
X94663468Y-129349500D01*
X94574251Y-129358287D01*
X94272297Y-129388026D01*
X93886805Y-129464704D01*
X93886794Y-129464707D01*
X93510645Y-129578810D01*
X93147500Y-129729230D01*
X93147495Y-129729232D01*
X92800862Y-129914511D01*
X92800844Y-129914522D01*
X92474039Y-130132887D01*
X92474025Y-130132897D01*
X92170182Y-130382254D01*
X91892254Y-130660182D01*
X91642897Y-130964025D01*
X91642887Y-130964039D01*
X91424522Y-131290844D01*
X91424511Y-131290862D01*
X91239232Y-131637495D01*
X91239230Y-131637500D01*
X91088810Y-132000645D01*
X90974707Y-132376794D01*
X90974704Y-132376805D01*
X90898026Y-132762297D01*
X90859500Y-133153471D01*
X89721700Y-133153471D01*
X89721700Y-128933455D01*
X129301500Y-128933455D01*
X129301500Y-129130544D01*
X129339947Y-129323828D01*
X129339949Y-129323836D01*
X129415367Y-129505910D01*
X129415372Y-129505920D01*
X129524860Y-129669780D01*
X129524863Y-129669784D01*
X129664215Y-129809136D01*
X129664219Y-129809139D01*
X129828079Y-129918627D01*
X129828083Y-129918629D01*
X129828086Y-129918631D01*
X130010164Y-129994051D01*
X130203455Y-130032499D01*
X130203458Y-130032500D01*
X130203460Y-130032500D01*
X130400542Y-130032500D01*
X130400543Y-130032499D01*
X130593836Y-129994051D01*
X130775914Y-129918631D01*
X130939781Y-129809139D01*
X132082778Y-128666141D01*
X132082782Y-128666139D01*
X132222139Y-128526782D01*
X132331632Y-128362914D01*
X132407051Y-128180835D01*
X132445500Y-127987541D01*
X132445500Y-122385782D01*
X132465185Y-122318743D01*
X132481819Y-122298101D01*
X134998101Y-119781819D01*
X135059424Y-119748334D01*
X135085782Y-119745500D01*
X136604216Y-119745500D01*
X136671255Y-119765185D01*
X136717010Y-119817989D01*
X136726954Y-119887147D01*
X136697929Y-119950703D01*
X136691897Y-119957181D01*
X136636863Y-120012214D01*
X136636860Y-120012218D01*
X136527371Y-120176079D01*
X136527364Y-120176092D01*
X136451950Y-120358160D01*
X136451947Y-120358170D01*
X136413500Y-120551456D01*
X136413500Y-120551459D01*
X136413500Y-120748541D01*
X136413500Y-120748543D01*
X136413499Y-120748543D01*
X136451947Y-120941829D01*
X136451950Y-120941839D01*
X136527364Y-121123907D01*
X136527371Y-121123920D01*
X136636860Y-121287781D01*
X136636863Y-121287785D01*
X136776214Y-121427136D01*
X136776218Y-121427139D01*
X136940079Y-121536628D01*
X136940092Y-121536635D01*
X137122158Y-121612048D01*
X137122165Y-121612051D01*
X137122169Y-121612051D01*
X137122170Y-121612052D01*
X137315456Y-121650500D01*
X137315459Y-121650500D01*
X148053543Y-121650500D01*
X148183582Y-121624632D01*
X148246835Y-121612051D01*
X148428914Y-121536632D01*
X148592782Y-121427139D01*
X148732139Y-121287782D01*
X148841632Y-121123914D01*
X148917051Y-120941835D01*
X148928351Y-120885022D01*
X148956689Y-120742566D01*
X148957906Y-120742808D01*
X148961535Y-120733815D01*
X148962692Y-120717648D01*
X148974343Y-120702084D01*
X148981620Y-120684055D01*
X148994851Y-120674689D01*
X149004564Y-120661715D01*
X149022779Y-120654920D01*
X149038649Y-120643688D01*
X149054841Y-120642962D01*
X149070028Y-120637298D01*
X149089024Y-120641430D01*
X149108448Y-120640560D01*
X149123179Y-120648860D01*
X149138301Y-120652150D01*
X149166555Y-120673301D01*
X149173181Y-120679927D01*
X149206666Y-120741250D01*
X149209500Y-120767608D01*
X149209500Y-125409191D01*
X149189815Y-125476230D01*
X149173181Y-125496872D01*
X144782727Y-129887325D01*
X144782726Y-129887326D01*
X144711534Y-129993874D01*
X144662499Y-130112255D01*
X144662497Y-130112261D01*
X144637500Y-130237928D01*
X144637500Y-131172042D01*
X144647969Y-131224669D01*
X144647969Y-131224671D01*
X144661135Y-131290862D01*
X144662499Y-131297716D01*
X144711535Y-131416099D01*
X144782723Y-131522641D01*
X144782726Y-131522645D01*
X145337354Y-132077273D01*
X145337357Y-132077275D01*
X145337359Y-132077277D01*
X145443901Y-132148465D01*
X145562284Y-132197501D01*
X145562288Y-132197501D01*
X145562289Y-132197502D01*
X145687956Y-132222500D01*
X145687959Y-132222500D01*
X146622071Y-132222500D01*
X146706615Y-132205682D01*
X146747744Y-132197501D01*
X146866127Y-132148465D01*
X146972669Y-132077277D01*
X147422932Y-131627012D01*
X147484252Y-131593530D01*
X147486317Y-131593099D01*
X147553497Y-131579737D01*
X147699179Y-131519394D01*
X147830289Y-131431789D01*
X147941789Y-131320289D01*
X148029394Y-131189179D01*
X148089737Y-131043497D01*
X148120500Y-130888842D01*
X148120500Y-130731158D01*
X148120500Y-130731155D01*
X148120499Y-130731153D01*
X148089738Y-130576510D01*
X148089737Y-130576503D01*
X148089735Y-130576498D01*
X148029397Y-130430827D01*
X148029390Y-130430814D01*
X147941789Y-130299711D01*
X147941786Y-130299707D01*
X147830291Y-130188212D01*
X147812916Y-130176603D01*
X147768111Y-130122991D01*
X147759403Y-130053666D01*
X147789557Y-129990638D01*
X147794106Y-129985838D01*
X151000276Y-126779670D01*
X151071465Y-126673127D01*
X151120501Y-126554744D01*
X151145500Y-126429069D01*
X151145500Y-119747731D01*
X151145500Y-119747728D01*
X151120502Y-119622061D01*
X151120501Y-119622060D01*
X151120501Y-119622056D01*
X151071465Y-119503673D01*
X151068518Y-119499263D01*
X151068516Y-119499260D01*
X151068515Y-119499257D01*
X151000277Y-119397131D01*
X151000271Y-119397124D01*
X134248746Y-102645600D01*
X134215261Y-102584277D01*
X134213954Y-102577317D01*
X134212095Y-102565582D01*
X134212077Y-102565466D01*
X134148820Y-102370781D01*
X134055887Y-102188390D01*
X134023692Y-102144077D01*
X133935571Y-102022786D01*
X133790813Y-101878028D01*
X133625213Y-101757715D01*
X133625212Y-101757714D01*
X133625210Y-101757713D01*
X133568253Y-101728691D01*
X133442823Y-101664781D01*
X133248134Y-101601522D01*
X133073595Y-101573878D01*
X133045952Y-101569500D01*
X132841248Y-101569500D01*
X132816929Y-101573351D01*
X132639065Y-101601522D01*
X132444376Y-101664781D01*
X132261986Y-101757715D01*
X132096386Y-101878028D01*
X131951628Y-102022786D01*
X131831315Y-102188386D01*
X131738381Y-102370776D01*
X131675122Y-102565465D01*
X131643100Y-102767648D01*
X131643100Y-102972351D01*
X131675122Y-103174534D01*
X131738381Y-103369223D01*
X131802291Y-103494653D01*
X131831185Y-103551359D01*
X131831315Y-103551613D01*
X131951628Y-103717213D01*
X131951634Y-103717219D01*
X132096381Y-103861966D01*
X132190052Y-103930021D01*
X132232717Y-103985350D01*
X132238696Y-104054963D01*
X132206091Y-104116759D01*
X132156171Y-104148045D01*
X132074266Y-104175186D01*
X132074263Y-104175187D01*
X131924942Y-104267289D01*
X131800889Y-104391342D01*
X131708787Y-104540663D01*
X131708786Y-104540666D01*
X131653601Y-104707203D01*
X131653601Y-104707204D01*
X131653600Y-104707204D01*
X131643100Y-104809983D01*
X131643100Y-106010001D01*
X131643101Y-106010018D01*
X131653600Y-106112796D01*
X131653601Y-106112799D01*
X131694252Y-106235474D01*
X131708786Y-106279334D01*
X131800888Y-106428656D01*
X131924944Y-106552712D01*
X132074266Y-106644814D01*
X132240803Y-106699999D01*
X132343591Y-106710500D01*
X133543608Y-106710499D01*
X133646397Y-106699999D01*
X133812934Y-106644814D01*
X133962256Y-106552712D01*
X134086312Y-106428656D01*
X134178414Y-106279334D01*
X134233599Y-106112797D01*
X134244100Y-106010009D01*
X134244099Y-104809992D01*
X134242071Y-104790139D01*
X134254841Y-104721446D01*
X134302721Y-104670562D01*
X134370511Y-104653641D01*
X134436687Y-104676057D01*
X134453110Y-104689856D01*
X139441873Y-109678619D01*
X139475358Y-109739942D01*
X139470374Y-109809634D01*
X139428502Y-109865567D01*
X139363038Y-109889984D01*
X139354192Y-109890300D01*
X134173609Y-109890300D01*
X134106570Y-109870615D01*
X134063124Y-109822594D01*
X134055887Y-109808390D01*
X134023692Y-109764077D01*
X133935571Y-109642786D01*
X133790813Y-109498028D01*
X133625213Y-109377715D01*
X133625212Y-109377714D01*
X133625210Y-109377713D01*
X133568253Y-109348691D01*
X133442823Y-109284781D01*
X133248134Y-109221522D01*
X133073595Y-109193878D01*
X133045952Y-109189500D01*
X132841248Y-109189500D01*
X132816929Y-109193351D01*
X132639065Y-109221522D01*
X132444376Y-109284781D01*
X132261986Y-109377715D01*
X132096386Y-109498028D01*
X131951628Y-109642786D01*
X131831315Y-109808386D01*
X131738381Y-109990776D01*
X131675122Y-110185465D01*
X131643100Y-110387648D01*
X131643100Y-110592351D01*
X131675122Y-110794534D01*
X131738381Y-110989223D01*
X131786272Y-111083213D01*
X131831185Y-111171359D01*
X131831315Y-111171613D01*
X131951628Y-111337213D01*
X131951634Y-111337219D01*
X132096381Y-111481966D01*
X132190052Y-111550021D01*
X132232717Y-111605350D01*
X132238696Y-111674963D01*
X132206091Y-111736759D01*
X132156171Y-111768045D01*
X132074266Y-111795186D01*
X132074263Y-111795187D01*
X131924942Y-111887289D01*
X131800889Y-112011342D01*
X131708787Y-112160663D01*
X131708786Y-112160666D01*
X131653601Y-112327203D01*
X131653601Y-112327204D01*
X131653600Y-112327204D01*
X131643100Y-112429983D01*
X131643100Y-113630001D01*
X131643101Y-113630018D01*
X131653600Y-113732796D01*
X131653601Y-113732799D01*
X131674099Y-113794656D01*
X131708786Y-113899334D01*
X131800888Y-114048656D01*
X131924944Y-114172712D01*
X132074266Y-114264814D01*
X132240803Y-114319999D01*
X132343591Y-114330500D01*
X133543608Y-114330499D01*
X133646397Y-114319999D01*
X133812934Y-114264814D01*
X133962256Y-114172712D01*
X134086312Y-114048656D01*
X134178414Y-113899334D01*
X134233599Y-113732797D01*
X134244100Y-113630009D01*
X134244099Y-112429992D01*
X134233599Y-112327203D01*
X134178414Y-112160666D01*
X134086312Y-112011344D01*
X133962256Y-111887288D01*
X133812934Y-111795186D01*
X133731027Y-111768044D01*
X133673584Y-111728272D01*
X133646761Y-111663756D01*
X133659076Y-111594980D01*
X133697147Y-111550021D01*
X133790819Y-111481966D01*
X133935566Y-111337219D01*
X133935570Y-111337213D01*
X134004445Y-111242415D01*
X134059775Y-111199749D01*
X134104763Y-111191300D01*
X139633192Y-111191300D01*
X139700231Y-111210985D01*
X139720873Y-111227619D01*
X147931073Y-119437819D01*
X147964558Y-119499142D01*
X147959574Y-119568834D01*
X147917702Y-119624767D01*
X147852238Y-119649184D01*
X147843392Y-119649500D01*
X143303784Y-119649500D01*
X143236745Y-119629815D01*
X143190990Y-119577011D01*
X143181046Y-119507853D01*
X143210071Y-119444297D01*
X143216103Y-119437819D01*
X143271136Y-119382785D01*
X143271139Y-119382782D01*
X143380632Y-119218914D01*
X143456051Y-119036835D01*
X143472563Y-118953825D01*
X143494500Y-118843543D01*
X143494500Y-118646456D01*
X143456052Y-118453170D01*
X143456051Y-118453169D01*
X143456051Y-118453165D01*
X143448002Y-118433732D01*
X143380635Y-118271092D01*
X143380628Y-118271079D01*
X143271139Y-118107218D01*
X143271136Y-118107214D01*
X143131785Y-117967863D01*
X143131781Y-117967860D01*
X142967920Y-117858371D01*
X142967907Y-117858364D01*
X142785839Y-117782950D01*
X142785829Y-117782947D01*
X142592543Y-117744500D01*
X142592541Y-117744500D01*
X134521459Y-117744500D01*
X134521455Y-117744500D01*
X134424812Y-117763724D01*
X134328167Y-117782947D01*
X134328161Y-117782949D01*
X134274834Y-117805037D01*
X134274834Y-117805038D01*
X134229315Y-117823892D01*
X134146089Y-117858366D01*
X134146079Y-117858371D01*
X133982219Y-117967859D01*
X133925581Y-118024498D01*
X133842861Y-118107218D01*
X133842858Y-118107221D01*
X130807221Y-121142858D01*
X130807218Y-121142861D01*
X130737538Y-121212540D01*
X130667859Y-121282219D01*
X130558371Y-121446080D01*
X130558364Y-121446093D01*
X130520863Y-121536632D01*
X130489625Y-121612048D01*
X130489624Y-121612052D01*
X130482948Y-121628167D01*
X130482947Y-121628171D01*
X130444500Y-121821454D01*
X130444500Y-127423217D01*
X130424815Y-127490256D01*
X130408181Y-127510898D01*
X129524863Y-128394215D01*
X129524860Y-128394219D01*
X129415372Y-128558079D01*
X129415367Y-128558089D01*
X129339949Y-128740163D01*
X129339947Y-128740171D01*
X129301500Y-128933455D01*
X89721700Y-128933455D01*
X89721700Y-117901577D01*
X96529500Y-117901577D01*
X96529500Y-118098422D01*
X96560290Y-118292826D01*
X96621117Y-118480029D01*
X96705916Y-118646456D01*
X96710476Y-118655405D01*
X96826172Y-118814646D01*
X96965354Y-118953828D01*
X97124595Y-119069524D01*
X97207455Y-119111743D01*
X97299970Y-119158882D01*
X97299972Y-119158882D01*
X97299975Y-119158884D01*
X97400317Y-119191487D01*
X97487173Y-119219709D01*
X97681578Y-119250500D01*
X97681583Y-119250500D01*
X97878422Y-119250500D01*
X98072826Y-119219709D01*
X98075294Y-119218907D01*
X98260025Y-119158884D01*
X98435405Y-119069524D01*
X98594646Y-118953828D01*
X98733828Y-118814646D01*
X98849524Y-118655405D01*
X98938884Y-118480025D01*
X98939515Y-118478787D01*
X98987489Y-118427990D01*
X99055310Y-118411195D01*
X99121445Y-118433732D01*
X99160485Y-118478787D01*
X99250474Y-118655403D01*
X99275702Y-118690125D01*
X99366172Y-118814646D01*
X99505354Y-118953828D01*
X99664595Y-119069524D01*
X99747455Y-119111743D01*
X99839970Y-119158882D01*
X99839972Y-119158882D01*
X99839975Y-119158884D01*
X99940317Y-119191487D01*
X100027173Y-119219709D01*
X100221578Y-119250500D01*
X100221583Y-119250500D01*
X100418422Y-119250500D01*
X100612826Y-119219709D01*
X100615294Y-119218907D01*
X100800025Y-119158884D01*
X100975405Y-119069524D01*
X101134646Y-118953828D01*
X101273828Y-118814646D01*
X101389524Y-118655405D01*
X101478884Y-118480025D01*
X101479515Y-118478787D01*
X101527489Y-118427990D01*
X101595310Y-118411195D01*
X101661445Y-118433732D01*
X101700485Y-118478787D01*
X101790474Y-118655403D01*
X101815702Y-118690125D01*
X101906172Y-118814646D01*
X102045354Y-118953828D01*
X102204595Y-119069524D01*
X102287455Y-119111743D01*
X102379970Y-119158882D01*
X102379972Y-119158882D01*
X102379975Y-119158884D01*
X102480317Y-119191487D01*
X102567173Y-119219709D01*
X102761578Y-119250500D01*
X102761583Y-119250500D01*
X102958422Y-119250500D01*
X103152826Y-119219709D01*
X103155294Y-119218907D01*
X103340025Y-119158884D01*
X103515405Y-119069524D01*
X103674646Y-118953828D01*
X103813828Y-118814646D01*
X103929524Y-118655405D01*
X104018884Y-118480025D01*
X104019515Y-118478787D01*
X104067489Y-118427990D01*
X104135310Y-118411195D01*
X104201445Y-118433732D01*
X104240485Y-118478787D01*
X104330474Y-118655403D01*
X104355702Y-118690125D01*
X104446172Y-118814646D01*
X104585354Y-118953828D01*
X104744595Y-119069524D01*
X104827455Y-119111743D01*
X104919970Y-119158882D01*
X104919972Y-119158882D01*
X104919975Y-119158884D01*
X105020317Y-119191487D01*
X105107173Y-119219709D01*
X105301578Y-119250500D01*
X105301583Y-119250500D01*
X105498422Y-119250500D01*
X105692826Y-119219709D01*
X105695294Y-119218907D01*
X105880025Y-119158884D01*
X106055405Y-119069524D01*
X106214646Y-118953828D01*
X106353828Y-118814646D01*
X106469524Y-118655405D01*
X106558884Y-118480025D01*
X106559515Y-118478787D01*
X106607489Y-118427990D01*
X106675310Y-118411195D01*
X106741445Y-118433732D01*
X106780485Y-118478787D01*
X106870474Y-118655403D01*
X106895702Y-118690125D01*
X106986172Y-118814646D01*
X107125354Y-118953828D01*
X107284595Y-119069524D01*
X107367455Y-119111743D01*
X107459970Y-119158882D01*
X107459972Y-119158882D01*
X107459975Y-119158884D01*
X107560317Y-119191487D01*
X107647173Y-119219709D01*
X107841578Y-119250500D01*
X107841583Y-119250500D01*
X108038422Y-119250500D01*
X108232826Y-119219709D01*
X108235294Y-119218907D01*
X108420025Y-119158884D01*
X108595405Y-119069524D01*
X108754646Y-118953828D01*
X108893828Y-118814646D01*
X109009524Y-118655405D01*
X109098884Y-118480025D01*
X109099515Y-118478787D01*
X109147489Y-118427990D01*
X109215310Y-118411195D01*
X109281445Y-118433732D01*
X109320485Y-118478787D01*
X109410474Y-118655403D01*
X109435702Y-118690125D01*
X109526172Y-118814646D01*
X109665354Y-118953828D01*
X109824595Y-119069524D01*
X109907455Y-119111743D01*
X109999970Y-119158882D01*
X109999972Y-119158882D01*
X109999975Y-119158884D01*
X110100317Y-119191487D01*
X110187173Y-119219709D01*
X110381578Y-119250500D01*
X110381583Y-119250500D01*
X110578422Y-119250500D01*
X110772826Y-119219709D01*
X110775294Y-119218907D01*
X110960025Y-119158884D01*
X111135405Y-119069524D01*
X111294646Y-118953828D01*
X111433828Y-118814646D01*
X111549524Y-118655405D01*
X111638884Y-118480025D01*
X111638884Y-118480022D01*
X111639795Y-118478236D01*
X111687769Y-118427440D01*
X111755590Y-118410644D01*
X111821725Y-118433181D01*
X111860765Y-118478235D01*
X111950905Y-118655145D01*
X111976319Y-118690125D01*
X111976320Y-118690125D01*
X112598274Y-118068171D01*
X112623963Y-118164044D01*
X112679916Y-118260956D01*
X112759044Y-118340084D01*
X112855956Y-118396037D01*
X112951827Y-118421725D01*
X112329873Y-119043677D01*
X112329873Y-119043678D01*
X112364858Y-119069096D01*
X112540164Y-119158418D01*
X112727294Y-119219221D01*
X112921618Y-119250000D01*
X113118382Y-119250000D01*
X113312705Y-119219221D01*
X113499835Y-119158418D01*
X113675143Y-119069095D01*
X113710125Y-119043678D01*
X113710126Y-119043678D01*
X113088173Y-118421725D01*
X113184044Y-118396037D01*
X113280956Y-118340084D01*
X113360084Y-118260956D01*
X113416037Y-118164044D01*
X113441725Y-118068173D01*
X114063678Y-118690126D01*
X114063678Y-118690125D01*
X114089097Y-118655141D01*
X114179234Y-118478236D01*
X114227208Y-118427439D01*
X114295029Y-118410644D01*
X114361164Y-118433181D01*
X114400204Y-118478235D01*
X114401115Y-118480024D01*
X114401116Y-118480025D01*
X114490476Y-118655405D01*
X114606172Y-118814646D01*
X114745354Y-118953828D01*
X114904595Y-119069524D01*
X114987455Y-119111743D01*
X115079970Y-119158882D01*
X115079972Y-119158882D01*
X115079975Y-119158884D01*
X115180317Y-119191487D01*
X115267173Y-119219709D01*
X115461578Y-119250500D01*
X115461583Y-119250500D01*
X115658422Y-119250500D01*
X115852826Y-119219709D01*
X115855294Y-119218907D01*
X116040025Y-119158884D01*
X116215405Y-119069524D01*
X116374646Y-118953828D01*
X116513828Y-118814646D01*
X116629524Y-118655405D01*
X116718884Y-118480025D01*
X116779709Y-118292826D01*
X116809106Y-118107221D01*
X116810500Y-118098422D01*
X116810500Y-117901577D01*
X116779709Y-117707173D01*
X116751487Y-117620317D01*
X116718884Y-117519975D01*
X116718882Y-117519972D01*
X116718882Y-117519970D01*
X116671743Y-117427455D01*
X116629524Y-117344595D01*
X116513828Y-117185354D01*
X116374646Y-117046172D01*
X116215405Y-116930476D01*
X116040029Y-116841117D01*
X115852826Y-116780290D01*
X115658422Y-116749500D01*
X115658417Y-116749500D01*
X115461583Y-116749500D01*
X115461578Y-116749500D01*
X115267173Y-116780290D01*
X115079970Y-116841117D01*
X114904594Y-116930476D01*
X114813741Y-116996485D01*
X114745354Y-117046172D01*
X114745352Y-117046174D01*
X114745351Y-117046174D01*
X114606174Y-117185351D01*
X114606174Y-117185352D01*
X114606172Y-117185354D01*
X114556485Y-117253741D01*
X114490476Y-117344594D01*
X114400204Y-117521764D01*
X114352229Y-117572560D01*
X114284408Y-117589355D01*
X114218274Y-117566818D01*
X114179234Y-117521764D01*
X114089096Y-117344858D01*
X114063678Y-117309873D01*
X114063677Y-117309873D01*
X113441725Y-117931826D01*
X113416037Y-117835956D01*
X113360084Y-117739044D01*
X113280956Y-117659916D01*
X113184044Y-117603963D01*
X113088172Y-117578274D01*
X113710125Y-116956320D01*
X113710125Y-116956319D01*
X113675145Y-116930905D01*
X113499835Y-116841581D01*
X113312705Y-116780778D01*
X113118382Y-116750000D01*
X112921618Y-116750000D01*
X112727294Y-116780778D01*
X112540161Y-116841582D01*
X112364863Y-116930899D01*
X112364859Y-116930902D01*
X112329873Y-116956320D01*
X112329872Y-116956320D01*
X112951828Y-117578274D01*
X112855956Y-117603963D01*
X112759044Y-117659916D01*
X112679916Y-117739044D01*
X112623963Y-117835956D01*
X112598274Y-117931827D01*
X111976320Y-117309872D01*
X111976320Y-117309873D01*
X111950902Y-117344859D01*
X111860765Y-117521764D01*
X111812790Y-117572560D01*
X111744969Y-117589355D01*
X111678835Y-117566818D01*
X111639795Y-117521763D01*
X111549525Y-117344596D01*
X111501146Y-117278009D01*
X111433828Y-117185354D01*
X111294646Y-117046172D01*
X111135405Y-116930476D01*
X110960029Y-116841117D01*
X110772826Y-116780290D01*
X110578422Y-116749500D01*
X110578417Y-116749500D01*
X110381583Y-116749500D01*
X110381578Y-116749500D01*
X110187173Y-116780290D01*
X109999970Y-116841117D01*
X109824594Y-116930476D01*
X109733741Y-116996485D01*
X109665354Y-117046172D01*
X109665352Y-117046174D01*
X109665351Y-117046174D01*
X109526174Y-117185351D01*
X109526174Y-117185352D01*
X109526172Y-117185354D01*
X109476485Y-117253741D01*
X109410476Y-117344594D01*
X109320485Y-117521213D01*
X109272511Y-117572009D01*
X109204690Y-117588804D01*
X109138555Y-117566267D01*
X109099515Y-117521213D01*
X109072397Y-117467992D01*
X109009524Y-117344595D01*
X108893828Y-117185354D01*
X108754646Y-117046172D01*
X108595405Y-116930476D01*
X108420029Y-116841117D01*
X108232826Y-116780290D01*
X108038422Y-116749500D01*
X108038417Y-116749500D01*
X107841583Y-116749500D01*
X107841578Y-116749500D01*
X107647173Y-116780290D01*
X107459970Y-116841117D01*
X107284594Y-116930476D01*
X107193741Y-116996485D01*
X107125354Y-117046172D01*
X107125352Y-117046174D01*
X107125351Y-117046174D01*
X106986174Y-117185351D01*
X106986174Y-117185352D01*
X106986172Y-117185354D01*
X106936485Y-117253741D01*
X106870476Y-117344594D01*
X106780485Y-117521213D01*
X106732511Y-117572009D01*
X106664690Y-117588804D01*
X106598555Y-117566267D01*
X106559515Y-117521213D01*
X106532397Y-117467992D01*
X106469524Y-117344595D01*
X106353828Y-117185354D01*
X106214646Y-117046172D01*
X106055405Y-116930476D01*
X105880029Y-116841117D01*
X105692826Y-116780290D01*
X105498422Y-116749500D01*
X105498417Y-116749500D01*
X105301583Y-116749500D01*
X105301578Y-116749500D01*
X105107173Y-116780290D01*
X104919970Y-116841117D01*
X104744594Y-116930476D01*
X104653741Y-116996485D01*
X104585354Y-117046172D01*
X104585352Y-117046174D01*
X104585351Y-117046174D01*
X104446174Y-117185351D01*
X104446174Y-117185352D01*
X104446172Y-117185354D01*
X104396485Y-117253741D01*
X104330476Y-117344594D01*
X104240485Y-117521213D01*
X104192511Y-117572009D01*
X104124690Y-117588804D01*
X104058555Y-117566267D01*
X104019515Y-117521213D01*
X103992397Y-117467992D01*
X103929524Y-117344595D01*
X103813828Y-117185354D01*
X103674646Y-117046172D01*
X103515405Y-116930476D01*
X103340029Y-116841117D01*
X103152826Y-116780290D01*
X102958422Y-116749500D01*
X102958417Y-116749500D01*
X102761583Y-116749500D01*
X102761578Y-116749500D01*
X102567173Y-116780290D01*
X102379970Y-116841117D01*
X102204594Y-116930476D01*
X102113741Y-116996485D01*
X102045354Y-117046172D01*
X102045352Y-117046174D01*
X102045351Y-117046174D01*
X101906174Y-117185351D01*
X101906174Y-117185352D01*
X101906172Y-117185354D01*
X101856485Y-117253741D01*
X101790476Y-117344594D01*
X101700485Y-117521213D01*
X101652511Y-117572009D01*
X101584690Y-117588804D01*
X101518555Y-117566267D01*
X101479515Y-117521213D01*
X101452397Y-117467992D01*
X101389524Y-117344595D01*
X101273828Y-117185354D01*
X101134646Y-117046172D01*
X100975405Y-116930476D01*
X100800029Y-116841117D01*
X100612826Y-116780290D01*
X100418422Y-116749500D01*
X100418417Y-116749500D01*
X100221583Y-116749500D01*
X100221578Y-116749500D01*
X100027173Y-116780290D01*
X99839970Y-116841117D01*
X99664594Y-116930476D01*
X99573741Y-116996485D01*
X99505354Y-117046172D01*
X99505352Y-117046174D01*
X99505351Y-117046174D01*
X99366174Y-117185351D01*
X99366174Y-117185352D01*
X99366172Y-117185354D01*
X99316485Y-117253741D01*
X99250476Y-117344594D01*
X99160485Y-117521213D01*
X99112511Y-117572009D01*
X99044690Y-117588804D01*
X98978555Y-117566267D01*
X98939515Y-117521213D01*
X98912397Y-117467992D01*
X98849524Y-117344595D01*
X98733828Y-117185354D01*
X98594646Y-117046172D01*
X98435405Y-116930476D01*
X98260029Y-116841117D01*
X98072826Y-116780290D01*
X97878422Y-116749500D01*
X97878417Y-116749500D01*
X97681583Y-116749500D01*
X97681578Y-116749500D01*
X97487173Y-116780290D01*
X97299970Y-116841117D01*
X97124594Y-116930476D01*
X97033741Y-116996485D01*
X96965354Y-117046172D01*
X96965352Y-117046174D01*
X96965351Y-117046174D01*
X96826174Y-117185351D01*
X96826174Y-117185352D01*
X96826172Y-117185354D01*
X96776485Y-117253741D01*
X96710476Y-117344594D01*
X96621117Y-117519970D01*
X96560290Y-117707173D01*
X96529500Y-117901577D01*
X89721700Y-117901577D01*
X89721700Y-85979000D01*
X93417300Y-85979000D01*
X93417300Y-86115411D01*
X93444398Y-86286501D01*
X93497927Y-86451245D01*
X93576568Y-86605588D01*
X93678386Y-86745728D01*
X93800872Y-86868214D01*
X93800878Y-86868218D01*
X93883823Y-86928483D01*
X93926489Y-86983813D01*
X93932467Y-87053426D01*
X93899861Y-87115221D01*
X93883823Y-87129117D01*
X93800878Y-87189381D01*
X93800869Y-87189388D01*
X93678388Y-87311869D01*
X93678388Y-87311870D01*
X93678386Y-87311872D01*
X93634659Y-87372056D01*
X93576568Y-87452011D01*
X93497928Y-87606352D01*
X93444397Y-87771102D01*
X93417300Y-87942189D01*
X93417300Y-88115410D01*
X93437789Y-88244778D01*
X93444398Y-88286501D01*
X93497927Y-88451245D01*
X93576568Y-88605588D01*
X93678386Y-88745728D01*
X93800872Y-88868214D01*
X93800878Y-88868218D01*
X93883823Y-88928483D01*
X93926489Y-88983813D01*
X93932467Y-89053426D01*
X93899861Y-89115221D01*
X93883823Y-89129117D01*
X93800878Y-89189381D01*
X93800869Y-89189388D01*
X93678388Y-89311869D01*
X93678388Y-89311870D01*
X93678386Y-89311872D01*
X93634659Y-89372056D01*
X93576568Y-89452011D01*
X93497928Y-89606352D01*
X93444397Y-89771102D01*
X93425851Y-89888199D01*
X93417300Y-89942189D01*
X93417300Y-90115411D01*
X93444398Y-90286501D01*
X93497927Y-90451245D01*
X93576568Y-90605588D01*
X93678386Y-90745728D01*
X93800872Y-90868214D01*
X93800878Y-90868218D01*
X93883823Y-90928483D01*
X93926489Y-90983813D01*
X93932467Y-91053426D01*
X93899861Y-91115221D01*
X93883823Y-91129117D01*
X93800878Y-91189381D01*
X93800869Y-91189388D01*
X93678388Y-91311869D01*
X93678388Y-91311870D01*
X93678386Y-91311872D01*
X93634659Y-91372056D01*
X93576568Y-91452011D01*
X93497928Y-91606352D01*
X93444397Y-91771102D01*
X93428341Y-91872477D01*
X93417300Y-91942189D01*
X93417300Y-92115411D01*
X93444398Y-92286501D01*
X93497927Y-92451245D01*
X93576568Y-92605588D01*
X93678386Y-92745728D01*
X93800872Y-92868214D01*
X93941012Y-92970032D01*
X94095355Y-93048673D01*
X94260099Y-93102202D01*
X94431189Y-93129300D01*
X94431190Y-93129300D01*
X95154410Y-93129300D01*
X95154411Y-93129300D01*
X95325501Y-93102202D01*
X95490245Y-93048673D01*
X95644588Y-92970032D01*
X95784728Y-92868214D01*
X95907214Y-92745728D01*
X96009032Y-92605588D01*
X96087673Y-92451245D01*
X96141202Y-92286501D01*
X96168300Y-92115411D01*
X96168300Y-91942189D01*
X96141202Y-91771099D01*
X96087673Y-91606355D01*
X96009032Y-91452012D01*
X95907214Y-91311872D01*
X95784728Y-91189386D01*
X95701775Y-91129117D01*
X95659111Y-91073788D01*
X95653132Y-91004174D01*
X95685738Y-90942379D01*
X95701776Y-90928482D01*
X95784728Y-90868214D01*
X95907214Y-90745728D01*
X96009032Y-90605588D01*
X96087673Y-90451245D01*
X96141202Y-90286501D01*
X96168300Y-90115411D01*
X96168300Y-89942189D01*
X96141202Y-89771099D01*
X96087673Y-89606355D01*
X96009032Y-89452012D01*
X95907214Y-89311872D01*
X95784728Y-89189386D01*
X95701775Y-89129117D01*
X95659111Y-89073788D01*
X95653132Y-89004174D01*
X95685738Y-88942379D01*
X95701776Y-88928482D01*
X95784728Y-88868214D01*
X95907214Y-88745728D01*
X96009032Y-88605588D01*
X96087673Y-88451245D01*
X96141202Y-88286501D01*
X96168300Y-88115411D01*
X96168300Y-87942189D01*
X96141202Y-87771099D01*
X96087673Y-87606355D01*
X96009032Y-87452012D01*
X95907214Y-87311872D01*
X95784728Y-87189386D01*
X95701775Y-87129117D01*
X95659111Y-87073788D01*
X95653132Y-87004174D01*
X95685738Y-86942379D01*
X95701776Y-86928482D01*
X95784728Y-86868214D01*
X95907214Y-86745728D01*
X96009032Y-86605588D01*
X96087673Y-86451245D01*
X96102351Y-86406070D01*
X96141786Y-86348396D01*
X96206145Y-86321197D01*
X96274991Y-86333111D01*
X96307962Y-86356708D01*
X107253181Y-97301927D01*
X107286666Y-97363250D01*
X107289500Y-97389608D01*
X107289500Y-101609731D01*
X107269815Y-101676770D01*
X107238386Y-101710049D01*
X107125352Y-101792173D01*
X106986174Y-101931351D01*
X106986174Y-101931352D01*
X106986172Y-101931354D01*
X106951430Y-101979172D01*
X106870476Y-102090594D01*
X106780485Y-102267213D01*
X106732511Y-102318009D01*
X106664690Y-102334804D01*
X106598555Y-102312267D01*
X106559515Y-102267213D01*
X106496774Y-102144077D01*
X106469524Y-102090595D01*
X106353828Y-101931354D01*
X106214646Y-101792172D01*
X106055405Y-101676476D01*
X106032450Y-101664780D01*
X105880029Y-101587117D01*
X105692826Y-101526290D01*
X105498422Y-101495500D01*
X105498417Y-101495500D01*
X105301583Y-101495500D01*
X105301578Y-101495500D01*
X105107173Y-101526290D01*
X104919970Y-101587117D01*
X104744594Y-101676476D01*
X104653741Y-101742485D01*
X104585354Y-101792172D01*
X104585352Y-101792174D01*
X104585351Y-101792174D01*
X104446174Y-101931351D01*
X104446174Y-101931352D01*
X104446172Y-101931354D01*
X104411430Y-101979172D01*
X104330476Y-102090594D01*
X104240485Y-102267213D01*
X104192511Y-102318009D01*
X104124690Y-102334804D01*
X104058555Y-102312267D01*
X104019515Y-102267213D01*
X103956774Y-102144077D01*
X103929524Y-102090595D01*
X103813828Y-101931354D01*
X103674646Y-101792172D01*
X103515405Y-101676476D01*
X103492450Y-101664780D01*
X103340029Y-101587117D01*
X103152826Y-101526290D01*
X102958422Y-101495500D01*
X102958417Y-101495500D01*
X102761583Y-101495500D01*
X102761578Y-101495500D01*
X102567173Y-101526290D01*
X102379970Y-101587117D01*
X102204594Y-101676476D01*
X102113741Y-101742485D01*
X102045354Y-101792172D01*
X102045352Y-101792174D01*
X102045351Y-101792174D01*
X101906174Y-101931351D01*
X101906174Y-101931352D01*
X101906172Y-101931354D01*
X101871430Y-101979172D01*
X101790476Y-102090594D01*
X101700485Y-102267213D01*
X101652511Y-102318009D01*
X101584690Y-102334804D01*
X101518555Y-102312267D01*
X101479515Y-102267213D01*
X101416774Y-102144077D01*
X101389524Y-102090595D01*
X101273828Y-101931354D01*
X101134646Y-101792172D01*
X100975405Y-101676476D01*
X100952450Y-101664780D01*
X100800029Y-101587117D01*
X100612826Y-101526290D01*
X100418422Y-101495500D01*
X100418417Y-101495500D01*
X100221583Y-101495500D01*
X100221578Y-101495500D01*
X100027173Y-101526290D01*
X99839970Y-101587117D01*
X99664594Y-101676476D01*
X99573741Y-101742485D01*
X99505354Y-101792172D01*
X99505352Y-101792174D01*
X99505351Y-101792174D01*
X99366174Y-101931351D01*
X99366174Y-101931352D01*
X99366172Y-101931354D01*
X99331430Y-101979172D01*
X99250476Y-102090594D01*
X99160485Y-102267213D01*
X99112511Y-102318009D01*
X99044690Y-102334804D01*
X98978555Y-102312267D01*
X98939515Y-102267213D01*
X98876774Y-102144077D01*
X98849524Y-102090595D01*
X98733828Y-101931354D01*
X98594646Y-101792172D01*
X98435405Y-101676476D01*
X98412450Y-101664780D01*
X98260029Y-101587117D01*
X98072826Y-101526290D01*
X97878422Y-101495500D01*
X97878417Y-101495500D01*
X97681583Y-101495500D01*
X97681578Y-101495500D01*
X97487173Y-101526290D01*
X97299970Y-101587117D01*
X97124594Y-101676476D01*
X97033741Y-101742485D01*
X96965354Y-101792172D01*
X96965352Y-101792174D01*
X96965351Y-101792174D01*
X96826174Y-101931351D01*
X96826174Y-101931352D01*
X96826172Y-101931354D01*
X96791430Y-101979172D01*
X96710476Y-102090594D01*
X96621117Y-102265970D01*
X96560290Y-102453173D01*
X96529500Y-102647577D01*
X96529500Y-102844422D01*
X96560290Y-103038826D01*
X96621117Y-103226029D01*
X96695269Y-103371560D01*
X96710476Y-103401405D01*
X96826172Y-103560646D01*
X96965354Y-103699828D01*
X97124595Y-103815524D01*
X97152070Y-103829523D01*
X97299970Y-103904882D01*
X97299972Y-103904882D01*
X97299975Y-103904884D01*
X97377335Y-103930020D01*
X97487173Y-103965709D01*
X97681578Y-103996500D01*
X97681583Y-103996500D01*
X97878421Y-103996500D01*
X97984432Y-103979709D01*
X98016411Y-103974644D01*
X98085704Y-103983598D01*
X98123490Y-104009436D01*
X108924325Y-114810272D01*
X108924331Y-114810277D01*
X109030874Y-114881466D01*
X109100221Y-114910189D01*
X109149256Y-114930501D01*
X109149259Y-114930501D01*
X109149260Y-114930502D01*
X109274928Y-114955500D01*
X109274931Y-114955500D01*
X124112671Y-114955500D01*
X124197215Y-114938682D01*
X124238344Y-114930501D01*
X124356727Y-114881465D01*
X124405831Y-114848655D01*
X124463269Y-114810277D01*
X124936408Y-114337136D01*
X124997731Y-114303652D01*
X125043487Y-114302345D01*
X125221248Y-114330500D01*
X125221249Y-114330500D01*
X125425951Y-114330500D01*
X125425952Y-114330500D01*
X125628134Y-114298477D01*
X125822819Y-114235220D01*
X126005210Y-114142287D01*
X126134082Y-114048657D01*
X126170813Y-114021971D01*
X126170815Y-114021968D01*
X126170819Y-114021966D01*
X126315566Y-113877219D01*
X126315568Y-113877215D01*
X126315571Y-113877213D01*
X126375551Y-113794656D01*
X126435887Y-113711610D01*
X126528820Y-113529219D01*
X126592077Y-113334534D01*
X126624100Y-113132352D01*
X126624100Y-112927648D01*
X126592077Y-112725466D01*
X126528820Y-112530781D01*
X126528818Y-112530778D01*
X126528818Y-112530776D01*
X126477465Y-112429991D01*
X126435887Y-112348390D01*
X126420492Y-112327200D01*
X126315571Y-112182786D01*
X126170813Y-112038028D01*
X126005211Y-111917713D01*
X125911969Y-111870203D01*
X125861174Y-111822229D01*
X125844379Y-111754407D01*
X125866917Y-111688273D01*
X125911971Y-111649234D01*
X126004946Y-111601861D01*
X126004947Y-111601861D01*
X126049521Y-111569474D01*
X125370047Y-110890000D01*
X125376261Y-110890000D01*
X125477994Y-110862741D01*
X125569206Y-110810080D01*
X125643680Y-110735606D01*
X125696341Y-110644394D01*
X125723600Y-110542661D01*
X125723600Y-110536448D01*
X126403074Y-111215922D01*
X126403074Y-111215921D01*
X126435459Y-111171349D01*
X126528355Y-110989031D01*
X126591590Y-110794417D01*
X126623600Y-110592317D01*
X126623600Y-110387682D01*
X126591590Y-110185582D01*
X126528355Y-109990968D01*
X126435459Y-109808650D01*
X126403074Y-109764077D01*
X126403074Y-109764076D01*
X125723600Y-110443551D01*
X125723600Y-110437339D01*
X125696341Y-110335606D01*
X125643680Y-110244394D01*
X125569206Y-110169920D01*
X125477994Y-110117259D01*
X125376261Y-110090000D01*
X125370046Y-110090000D01*
X126049522Y-109410524D01*
X126049521Y-109410523D01*
X126004959Y-109378147D01*
X126004950Y-109378141D01*
X125822631Y-109285244D01*
X125628017Y-109222009D01*
X125425917Y-109190000D01*
X125221283Y-109190000D01*
X125019182Y-109222009D01*
X124824568Y-109285244D01*
X124642244Y-109378143D01*
X124597677Y-109410523D01*
X124597677Y-109410524D01*
X125277154Y-110090000D01*
X125270939Y-110090000D01*
X125169206Y-110117259D01*
X125077994Y-110169920D01*
X125003520Y-110244394D01*
X124950859Y-110335606D01*
X124923600Y-110437339D01*
X124923600Y-110443553D01*
X124244124Y-109764077D01*
X124244123Y-109764077D01*
X124211743Y-109808644D01*
X124118844Y-109990968D01*
X124055609Y-110185582D01*
X124023600Y-110387682D01*
X124023600Y-110592317D01*
X124055609Y-110794417D01*
X124118844Y-110989031D01*
X124211741Y-111171350D01*
X124211747Y-111171359D01*
X124244123Y-111215921D01*
X124244124Y-111215922D01*
X124923600Y-110536446D01*
X124923600Y-110542661D01*
X124950859Y-110644394D01*
X125003520Y-110735606D01*
X125077994Y-110810080D01*
X125169206Y-110862741D01*
X125270939Y-110890000D01*
X125277153Y-110890000D01*
X124597676Y-111569474D01*
X124642252Y-111601861D01*
X124735228Y-111649234D01*
X124786025Y-111697208D01*
X124802820Y-111765029D01*
X124780283Y-111831164D01*
X124735230Y-111870203D01*
X124641988Y-111917713D01*
X124476386Y-112038028D01*
X124331628Y-112182786D01*
X124211315Y-112348386D01*
X124118381Y-112530776D01*
X124055122Y-112725465D01*
X124023100Y-112927648D01*
X124023100Y-113132351D01*
X124051254Y-113310111D01*
X124042299Y-113379405D01*
X124016462Y-113417190D01*
X123815471Y-113618182D01*
X123754151Y-113651666D01*
X123727792Y-113654500D01*
X109659808Y-113654500D01*
X109592769Y-113634815D01*
X109572127Y-113618181D01*
X100162127Y-104208181D01*
X100128642Y-104146858D01*
X100133626Y-104077166D01*
X100175498Y-104021233D01*
X100240962Y-103996816D01*
X100249808Y-103996500D01*
X100418421Y-103996500D01*
X100524432Y-103979709D01*
X100556411Y-103974644D01*
X100625704Y-103983598D01*
X100663490Y-104009436D01*
X103753724Y-107099669D01*
X103844327Y-107190272D01*
X103844332Y-107190277D01*
X103950866Y-107261461D01*
X103950872Y-107261464D01*
X103950873Y-107261465D01*
X104069256Y-107310501D01*
X104069260Y-107310501D01*
X104069261Y-107310502D01*
X104194928Y-107335500D01*
X104194931Y-107335500D01*
X124112671Y-107335500D01*
X124197215Y-107318682D01*
X124238344Y-107310501D01*
X124356727Y-107261465D01*
X124463269Y-107190277D01*
X124936408Y-106717136D01*
X124997731Y-106683652D01*
X125043487Y-106682345D01*
X125221248Y-106710500D01*
X125221249Y-106710500D01*
X125425951Y-106710500D01*
X125425952Y-106710500D01*
X125628134Y-106678477D01*
X125822819Y-106615220D01*
X126005210Y-106522287D01*
X126134082Y-106428657D01*
X126170813Y-106401971D01*
X126170815Y-106401968D01*
X126170819Y-106401966D01*
X126315566Y-106257219D01*
X126315568Y-106257215D01*
X126315571Y-106257213D01*
X126368332Y-106184590D01*
X126435887Y-106091610D01*
X126528820Y-105909219D01*
X126592077Y-105714534D01*
X126624100Y-105512352D01*
X126624100Y-105307648D01*
X126592077Y-105105466D01*
X126579547Y-105066904D01*
X126528818Y-104910776D01*
X126477465Y-104809991D01*
X126435887Y-104728390D01*
X126407891Y-104689856D01*
X126315571Y-104562786D01*
X126170813Y-104418028D01*
X126005211Y-104297713D01*
X125911969Y-104250203D01*
X125861174Y-104202229D01*
X125844379Y-104134407D01*
X125866917Y-104068273D01*
X125911971Y-104029234D01*
X126004946Y-103981861D01*
X126004947Y-103981861D01*
X126049521Y-103949474D01*
X125370047Y-103270000D01*
X125376261Y-103270000D01*
X125477994Y-103242741D01*
X125569206Y-103190080D01*
X125643680Y-103115606D01*
X125696341Y-103024394D01*
X125723600Y-102922661D01*
X125723600Y-102916448D01*
X126403074Y-103595922D01*
X126403074Y-103595921D01*
X126435459Y-103551349D01*
X126528355Y-103369031D01*
X126591590Y-103174417D01*
X126623600Y-102972317D01*
X126623600Y-102767682D01*
X126591590Y-102565582D01*
X126528355Y-102370968D01*
X126435459Y-102188650D01*
X126403074Y-102144077D01*
X126403074Y-102144076D01*
X125723600Y-102823551D01*
X125723600Y-102817339D01*
X125696341Y-102715606D01*
X125643680Y-102624394D01*
X125569206Y-102549920D01*
X125477994Y-102497259D01*
X125376261Y-102470000D01*
X125370046Y-102470000D01*
X126049522Y-101790524D01*
X126049521Y-101790523D01*
X126004959Y-101758147D01*
X126004950Y-101758141D01*
X125822631Y-101665244D01*
X125628017Y-101602009D01*
X125425917Y-101570000D01*
X125221283Y-101570000D01*
X125019182Y-101602009D01*
X124824568Y-101665244D01*
X124642244Y-101758143D01*
X124597677Y-101790523D01*
X124597677Y-101790524D01*
X125277154Y-102470000D01*
X125270939Y-102470000D01*
X125169206Y-102497259D01*
X125077994Y-102549920D01*
X125003520Y-102624394D01*
X124950859Y-102715606D01*
X124923600Y-102817339D01*
X124923600Y-102823553D01*
X124244124Y-102144077D01*
X124244123Y-102144077D01*
X124211743Y-102188644D01*
X124118844Y-102370968D01*
X124055609Y-102565582D01*
X124023600Y-102767682D01*
X124023600Y-102972317D01*
X124055609Y-103174417D01*
X124118844Y-103369031D01*
X124211741Y-103551350D01*
X124211747Y-103551359D01*
X124244123Y-103595921D01*
X124244124Y-103595922D01*
X124923600Y-102916446D01*
X124923600Y-102922661D01*
X124950859Y-103024394D01*
X125003520Y-103115606D01*
X125077994Y-103190080D01*
X125169206Y-103242741D01*
X125270939Y-103270000D01*
X125277153Y-103270000D01*
X124597676Y-103949474D01*
X124642252Y-103981861D01*
X124735228Y-104029234D01*
X124786025Y-104077208D01*
X124802820Y-104145029D01*
X124780283Y-104211164D01*
X124735230Y-104250203D01*
X124641988Y-104297713D01*
X124476386Y-104418028D01*
X124331628Y-104562786D01*
X124211315Y-104728386D01*
X124118381Y-104910776D01*
X124055122Y-105105465D01*
X124023100Y-105307648D01*
X124023100Y-105512351D01*
X124051254Y-105690111D01*
X124042299Y-105759405D01*
X124016462Y-105797190D01*
X123815471Y-105998182D01*
X123754151Y-106031666D01*
X123727792Y-106034500D01*
X104579807Y-106034500D01*
X104512768Y-106014815D01*
X104492126Y-105998181D01*
X102702127Y-104208181D01*
X102668642Y-104146858D01*
X102673626Y-104077166D01*
X102715498Y-104021233D01*
X102780962Y-103996816D01*
X102789808Y-103996500D01*
X102958422Y-103996500D01*
X103152826Y-103965709D01*
X103198772Y-103950780D01*
X103340025Y-103904884D01*
X103515405Y-103815524D01*
X103674646Y-103699828D01*
X103813828Y-103560646D01*
X103929524Y-103401405D01*
X103945921Y-103369223D01*
X104019515Y-103224787D01*
X104067489Y-103173990D01*
X104135310Y-103157195D01*
X104201445Y-103179732D01*
X104240485Y-103224787D01*
X104330474Y-103401403D01*
X104354198Y-103434055D01*
X104446172Y-103560646D01*
X104585354Y-103699828D01*
X104744595Y-103815524D01*
X104772070Y-103829523D01*
X104919970Y-103904882D01*
X104919972Y-103904882D01*
X104919975Y-103904884D01*
X104997335Y-103930020D01*
X105107173Y-103965709D01*
X105301578Y-103996500D01*
X105301583Y-103996500D01*
X105498422Y-103996500D01*
X105692826Y-103965709D01*
X105738772Y-103950780D01*
X105880025Y-103904884D01*
X106055405Y-103815524D01*
X106214646Y-103699828D01*
X106353828Y-103560646D01*
X106469524Y-103401405D01*
X106485921Y-103369223D01*
X106559515Y-103224787D01*
X106607489Y-103173990D01*
X106675310Y-103157195D01*
X106741445Y-103179732D01*
X106780485Y-103224787D01*
X106870474Y-103401403D01*
X106894198Y-103434055D01*
X106986172Y-103560646D01*
X107125354Y-103699828D01*
X107284595Y-103815524D01*
X107312070Y-103829523D01*
X107459970Y-103904882D01*
X107459972Y-103904882D01*
X107459975Y-103904884D01*
X107537335Y-103930020D01*
X107647173Y-103965709D01*
X107841578Y-103996500D01*
X107841583Y-103996500D01*
X108038422Y-103996500D01*
X108232826Y-103965709D01*
X108278772Y-103950780D01*
X108420025Y-103904884D01*
X108595405Y-103815524D01*
X108754646Y-103699828D01*
X108893828Y-103560646D01*
X109009524Y-103401405D01*
X109025921Y-103369223D01*
X109099515Y-103224787D01*
X109147489Y-103173990D01*
X109215310Y-103157195D01*
X109281445Y-103179732D01*
X109320485Y-103224787D01*
X109410474Y-103401403D01*
X109434198Y-103434055D01*
X109526172Y-103560646D01*
X109665354Y-103699828D01*
X109824595Y-103815524D01*
X109852070Y-103829523D01*
X109999970Y-103904882D01*
X109999972Y-103904882D01*
X109999975Y-103904884D01*
X110077335Y-103930020D01*
X110187173Y-103965709D01*
X110381578Y-103996500D01*
X110381583Y-103996500D01*
X110578422Y-103996500D01*
X110772826Y-103965709D01*
X110818772Y-103950780D01*
X110960025Y-103904884D01*
X111135405Y-103815524D01*
X111294646Y-103699828D01*
X111433828Y-103560646D01*
X111549524Y-103401405D01*
X111565921Y-103369223D01*
X111639515Y-103224787D01*
X111687489Y-103173990D01*
X111755310Y-103157195D01*
X111821445Y-103179732D01*
X111860485Y-103224787D01*
X111950474Y-103401403D01*
X111974198Y-103434055D01*
X112066172Y-103560646D01*
X112205354Y-103699828D01*
X112364595Y-103815524D01*
X112392070Y-103829523D01*
X112539970Y-103904882D01*
X112539972Y-103904882D01*
X112539975Y-103904884D01*
X112617335Y-103930020D01*
X112727173Y-103965709D01*
X112921578Y-103996500D01*
X112921583Y-103996500D01*
X113118422Y-103996500D01*
X113312826Y-103965709D01*
X113358772Y-103950780D01*
X113500025Y-103904884D01*
X113675405Y-103815524D01*
X113834646Y-103699828D01*
X113973828Y-103560646D01*
X114089524Y-103401405D01*
X114176153Y-103231385D01*
X114224127Y-103180588D01*
X114291948Y-103163793D01*
X114358083Y-103186330D01*
X114397952Y-103236168D01*
X114398904Y-103235684D01*
X114401116Y-103240025D01*
X114490476Y-103415405D01*
X114606172Y-103574646D01*
X114745354Y-103713828D01*
X114904595Y-103829524D01*
X114987455Y-103871743D01*
X115079970Y-103918882D01*
X115079972Y-103918882D01*
X115079975Y-103918884D01*
X115119268Y-103931651D01*
X115267173Y-103979709D01*
X115461578Y-104010500D01*
X115461583Y-104010500D01*
X115658422Y-104010500D01*
X115852826Y-103979709D01*
X115895913Y-103965709D01*
X116040025Y-103918884D01*
X116215405Y-103829524D01*
X116374646Y-103713828D01*
X116513828Y-103574646D01*
X116629524Y-103415405D01*
X116718884Y-103240025D01*
X116779709Y-103052826D01*
X116792455Y-102972351D01*
X116810500Y-102858422D01*
X116810500Y-102661577D01*
X116779709Y-102467173D01*
X116728443Y-102309394D01*
X116718884Y-102279975D01*
X116718882Y-102279972D01*
X116718882Y-102279970D01*
X116649640Y-102144076D01*
X116629524Y-102104595D01*
X116513828Y-101945354D01*
X116374646Y-101806172D01*
X116215405Y-101690476D01*
X116192572Y-101678842D01*
X116040029Y-101601117D01*
X115852826Y-101540290D01*
X115658422Y-101509500D01*
X115658417Y-101509500D01*
X115461583Y-101509500D01*
X115461578Y-101509500D01*
X115267173Y-101540290D01*
X115079970Y-101601117D01*
X114904594Y-101690476D01*
X114877655Y-101710049D01*
X114745354Y-101806172D01*
X114745352Y-101806174D01*
X114745351Y-101806174D01*
X114606174Y-101945351D01*
X114606174Y-101945352D01*
X114606172Y-101945354D01*
X114581602Y-101979172D01*
X114490476Y-102104594D01*
X114403846Y-102274615D01*
X114355871Y-102325411D01*
X114288050Y-102342206D01*
X114221915Y-102319668D01*
X114182050Y-102269829D01*
X114181096Y-102270316D01*
X114116774Y-102144077D01*
X114089524Y-102090595D01*
X113973828Y-101931354D01*
X113834646Y-101792172D01*
X113675405Y-101676476D01*
X113652450Y-101664780D01*
X113500029Y-101587117D01*
X113312826Y-101526290D01*
X113118422Y-101495500D01*
X113118417Y-101495500D01*
X112921583Y-101495500D01*
X112921578Y-101495500D01*
X112727173Y-101526290D01*
X112539970Y-101587117D01*
X112364594Y-101676476D01*
X112273741Y-101742485D01*
X112205354Y-101792172D01*
X112205352Y-101792174D01*
X112205351Y-101792174D01*
X112066174Y-101931351D01*
X112066174Y-101931352D01*
X112066172Y-101931354D01*
X112031430Y-101979172D01*
X111950476Y-102090594D01*
X111860485Y-102267213D01*
X111812511Y-102318009D01*
X111744690Y-102334804D01*
X111678555Y-102312267D01*
X111639515Y-102267213D01*
X111576774Y-102144077D01*
X111549524Y-102090595D01*
X111433828Y-101931354D01*
X111294646Y-101792172D01*
X111135405Y-101676476D01*
X111112450Y-101664780D01*
X110960029Y-101587117D01*
X110772826Y-101526290D01*
X110578422Y-101495500D01*
X110578417Y-101495500D01*
X110381583Y-101495500D01*
X110381578Y-101495500D01*
X110187173Y-101526290D01*
X109999970Y-101587117D01*
X109824594Y-101676476D01*
X109733741Y-101742485D01*
X109665354Y-101792172D01*
X109665352Y-101792174D01*
X109665351Y-101792174D01*
X109526174Y-101931351D01*
X109526174Y-101931352D01*
X109526172Y-101931354D01*
X109491430Y-101979172D01*
X109410476Y-102090594D01*
X109320485Y-102267213D01*
X109272511Y-102318009D01*
X109204690Y-102334804D01*
X109138555Y-102312267D01*
X109099515Y-102267213D01*
X109036774Y-102144077D01*
X109009524Y-102090595D01*
X108893828Y-101931354D01*
X108754646Y-101792172D01*
X108641613Y-101710048D01*
X108598949Y-101654718D01*
X108590500Y-101609731D01*
X108590500Y-97004728D01*
X108565502Y-96879061D01*
X108565501Y-96879060D01*
X108565501Y-96879056D01*
X108516465Y-96760673D01*
X108502459Y-96739711D01*
X108481162Y-96707838D01*
X108445275Y-96654128D01*
X108445272Y-96654125D01*
X97770146Y-85979000D01*
X103632000Y-85979000D01*
X103648049Y-85349062D01*
X103774559Y-85346371D01*
X103841995Y-85364623D01*
X103864868Y-85382657D01*
X116274374Y-97792162D01*
X116392838Y-97910626D01*
X116532137Y-98003703D01*
X116686918Y-98067816D01*
X116851228Y-98100499D01*
X116851232Y-98100500D01*
X116851233Y-98100500D01*
X118904968Y-98100500D01*
X118904969Y-98100499D01*
X119069282Y-98067816D01*
X119224063Y-98003703D01*
X119363362Y-97910626D01*
X119481826Y-97792162D01*
X119574903Y-97652863D01*
X119639016Y-97498082D01*
X119671700Y-97333767D01*
X119671700Y-97166233D01*
X119639016Y-97001918D01*
X119574903Y-96847137D01*
X119539734Y-96794503D01*
X119481826Y-96707837D01*
X119363362Y-96589373D01*
X119224060Y-96496295D01*
X119069282Y-96432184D01*
X119069274Y-96432182D01*
X118904971Y-96399500D01*
X118904967Y-96399500D01*
X117338650Y-96399500D01*
X117271611Y-96379815D01*
X117250969Y-96363181D01*
X106388388Y-85500599D01*
X106354903Y-85439276D01*
X106359887Y-85369584D01*
X106401759Y-85313651D01*
X106467223Y-85289234D01*
X106473340Y-85288950D01*
X110393569Y-85205541D01*
X110461009Y-85223794D01*
G37*
%TD.AperFunction*%
%TA.AperFunction,Conductor*%
G36*
X115843986Y-85109263D02*
G01*
X115859996Y-85120934D01*
X117750668Y-86745730D01*
X119837912Y-88539456D01*
X119875926Y-88598079D01*
X119876212Y-88667948D01*
X119838678Y-88726880D01*
X119775241Y-88756165D01*
X119757093Y-88757500D01*
X115890808Y-88757500D01*
X115823769Y-88737815D01*
X115803127Y-88721181D01*
X112453501Y-85371555D01*
X112420016Y-85310232D01*
X112425000Y-85240540D01*
X112466872Y-85184607D01*
X112532336Y-85160190D01*
X112538491Y-85159904D01*
X115776545Y-85091009D01*
X115843986Y-85109263D01*
G37*
%TD.AperFunction*%
M02*
