%TF.GenerationSoftware,KiCad,Pcbnew,9.0.7*%
%TF.CreationDate,2026-02-09T01:10:45+03:00*%
%TF.ProjectId,Backup power switch 12v Module,4261636b-7570-4207-906f-776572207377,rev?*%
%TF.SameCoordinates,Original*%
%TF.FileFunction,Soldermask,Top*%
%TF.FilePolarity,Negative*%
%FSLAX46Y46*%
G04 Gerber Fmt 4.6, Leading zero omitted, Abs format (unit mm)*
G04 Created by KiCad (PCBNEW 9.0.7) date 2026-02-09 01:10:45*
%MOMM*%
%LPD*%
G01*
G04 APERTURE LIST*
G04 Aperture macros list*
%AMRoundRect*
0 Rectangle with rounded corners*
0 $1 Rounding radius*
0 $2 $3 $4 $5 $6 $7 $8 $9 X,Y pos of 4 corners*
0 Add a 4 corners polygon primitive as box body*
4,1,4,$2,$3,$4,$5,$6,$7,$8,$9,$2,$3,0*
0 Add four circle primitives for the rounded corners*
1,1,$1+$1,$2,$3*
1,1,$1+$1,$4,$5*
1,1,$1+$1,$6,$7*
1,1,$1+$1,$8,$9*
0 Add four rect primitives between the rounded corners*
20,1,$1+$1,$2,$3,$4,$5,0*
20,1,$1+$1,$4,$5,$6,$7,0*
20,1,$1+$1,$6,$7,$8,$9,0*
20,1,$1+$1,$8,$9,$2,$3,0*%
G04 Aperture macros list end*
%ADD10RoundRect,0.250000X-0.350000X-0.450000X0.350000X-0.450000X0.350000X0.450000X-0.350000X0.450000X0*%
%ADD11RoundRect,0.250000X0.412500X1.100000X-0.412500X1.100000X-0.412500X-1.100000X0.412500X-1.100000X0*%
%ADD12RoundRect,0.250000X0.350000X0.450000X-0.350000X0.450000X-0.350000X-0.450000X0.350000X-0.450000X0*%
%ADD13RoundRect,0.249999X-0.450001X-1.425001X0.450001X-1.425001X0.450001X1.425001X-0.450001X1.425001X0*%
%ADD14RoundRect,0.250000X0.450000X-0.350000X0.450000X0.350000X-0.450000X0.350000X-0.450000X-0.350000X0*%
%ADD15RoundRect,0.250000X-0.625000X0.350000X-0.625000X-0.350000X0.625000X-0.350000X0.625000X0.350000X0*%
%ADD16O,1.750000X1.200000*%
%ADD17RoundRect,0.250000X1.000000X0.650000X-1.000000X0.650000X-1.000000X-0.650000X1.000000X-0.650000X0*%
%ADD18RoundRect,0.150000X-0.150000X0.512500X-0.150000X-0.512500X0.150000X-0.512500X0.150000X0.512500X0*%
%ADD19RoundRect,0.250000X0.550000X0.550000X-0.550000X0.550000X-0.550000X-0.550000X0.550000X-0.550000X0*%
%ADD20C,1.600000*%
%ADD21C,3.000000*%
%ADD22C,2.500000*%
%ADD23C,1.440000*%
%ADD24RoundRect,0.250000X-0.475000X0.337500X-0.475000X-0.337500X0.475000X-0.337500X0.475000X0.337500X0*%
%ADD25RoundRect,0.150000X0.150000X-0.587500X0.150000X0.587500X-0.150000X0.587500X-0.150000X-0.587500X0*%
%ADD26RoundRect,0.250001X0.944999X-0.507499X0.944999X0.507499X-0.944999X0.507499X-0.944999X-0.507499X0*%
%ADD27RoundRect,0.225000X0.375000X-0.225000X0.375000X0.225000X-0.375000X0.225000X-0.375000X-0.225000X0*%
%ADD28RoundRect,0.237500X-0.287500X-0.237500X0.287500X-0.237500X0.287500X0.237500X-0.287500X0.237500X0*%
%ADD29C,3.500000*%
%ADD30RoundRect,0.249999X-0.850001X-0.850001X0.850001X-0.850001X0.850001X0.850001X-0.850001X0.850001X0*%
%ADD31C,2.200000*%
%ADD32C,3.900000*%
%ADD33C,7.000000*%
%ADD34RoundRect,0.250000X0.350000X0.625000X-0.350000X0.625000X-0.350000X-0.625000X0.350000X-0.625000X0*%
%ADD35O,1.200000X1.750000*%
%ADD36C,3.400000*%
%ADD37RoundRect,0.200000X0.200000X-0.250000X0.200000X0.250000X-0.200000X0.250000X-0.200000X-0.250000X0*%
%ADD38RoundRect,0.250000X1.100000X-0.412500X1.100000X0.412500X-1.100000X0.412500X-1.100000X-0.412500X0*%
%ADD39RoundRect,0.250000X-1.100000X0.412500X-1.100000X-0.412500X1.100000X-0.412500X1.100000X0.412500X0*%
%ADD40RoundRect,0.150000X0.150000X-0.825000X0.150000X0.825000X-0.150000X0.825000X-0.150000X-0.825000X0*%
%ADD41RoundRect,0.250001X1.499999X-0.949999X1.499999X0.949999X-1.499999X0.949999X-1.499999X-0.949999X0*%
%ADD42RoundRect,0.250000X0.475000X-0.337500X0.475000X0.337500X-0.475000X0.337500X-0.475000X-0.337500X0*%
%ADD43RoundRect,0.250001X-1.499999X0.949999X-1.499999X-0.949999X1.499999X-0.949999X1.499999X0.949999X0*%
%ADD44RoundRect,0.237500X0.287500X0.237500X-0.287500X0.237500X-0.287500X-0.237500X0.287500X-0.237500X0*%
%ADD45RoundRect,0.250000X0.337500X0.475000X-0.337500X0.475000X-0.337500X-0.475000X0.337500X-0.475000X0*%
%ADD46RoundRect,0.250000X-0.300000X0.300000X-0.300000X-0.300000X0.300000X-0.300000X0.300000X0.300000X0*%
%ADD47RoundRect,0.249999X1.425001X-0.450001X1.425001X0.450001X-1.425001X0.450001X-1.425001X-0.450001X0*%
%ADD48RoundRect,0.375000X-0.625000X-0.375000X0.625000X-0.375000X0.625000X0.375000X-0.625000X0.375000X0*%
%ADD49RoundRect,0.500000X-0.500000X-1.400000X0.500000X-1.400000X0.500000X1.400000X-0.500000X1.400000X0*%
%ADD50R,0.510000X1.100000*%
%ADD51C,1.500000*%
%ADD52RoundRect,0.381000X-0.381000X0.762000X-0.381000X-0.762000X0.381000X-0.762000X0.381000X0.762000X0*%
%ADD53RoundRect,0.381000X-0.381000X0.869000X-0.381000X-0.869000X0.381000X-0.869000X0.381000X0.869000X0*%
%ADD54RoundRect,0.250000X-0.337500X-0.475000X0.337500X-0.475000X0.337500X0.475000X-0.337500X0.475000X0*%
%ADD55R,2.000000X1.905000*%
%ADD56O,2.000000X1.905000*%
%ADD57C,2.000000*%
G04 APERTURE END LIST*
D10*
X164608000Y-99314000D03*
X166608000Y-99314000D03*
X172228000Y-96520000D03*
X174228000Y-96520000D03*
D11*
X149136500Y-105156000D03*
X146011500Y-105156000D03*
D12*
X134604000Y-102870000D03*
X132604000Y-102870000D03*
D13*
X111250000Y-78105000D03*
X117350000Y-78105000D03*
D14*
X150368000Y-124444000D03*
X150368000Y-122444000D03*
D15*
X94792800Y-78028800D03*
D16*
X94792800Y-80028800D03*
X94792800Y-82028800D03*
X94792800Y-84028800D03*
X94792800Y-86028800D03*
X94792800Y-88028800D03*
X94792800Y-90028800D03*
X94792800Y-92028800D03*
D17*
X155670001Y-130810000D03*
X151669999Y-130810000D03*
D18*
X137855999Y-89032500D03*
X136906000Y-89032500D03*
X135956001Y-89032500D03*
X135956001Y-91307500D03*
X136906000Y-91307500D03*
X137855999Y-91307500D03*
D10*
X164608000Y-101600000D03*
X166608000Y-101600000D03*
D19*
X129286000Y-100584000D03*
D20*
X129286000Y-98044000D03*
X121666000Y-98044000D03*
X121666000Y-100584000D03*
D21*
X161798000Y-78740000D03*
D22*
X155748000Y-80690000D03*
D21*
X155748000Y-92890000D03*
X167798000Y-92940000D03*
D22*
X167748000Y-80690000D03*
D23*
X106680000Y-83820000D03*
X109220000Y-83820000D03*
X111760000Y-83820000D03*
D24*
X139700000Y-123422500D03*
X139700000Y-125497500D03*
D10*
X164592000Y-108966000D03*
X166592000Y-108966000D03*
D25*
X140655000Y-120952500D03*
X142555000Y-120952500D03*
X141605000Y-119077499D03*
D26*
X122174000Y-116943500D03*
X122174000Y-113688500D03*
D27*
X141224000Y-91312000D03*
X141224000Y-88012000D03*
D28*
X132729000Y-105664000D03*
X134479000Y-105664000D03*
D17*
X169386001Y-120650000D03*
X165385999Y-120650000D03*
D14*
X104648000Y-91424000D03*
X104648000Y-89424000D03*
D29*
X156210000Y-71005200D03*
X163830000Y-71005200D03*
D26*
X126492000Y-116943500D03*
X126492000Y-113688500D03*
D30*
X164846000Y-114554000D03*
D31*
X172466000Y-114554000D03*
D32*
X177698400Y-66395600D03*
D33*
X177698400Y-66395600D03*
D19*
X161031000Y-114046000D03*
D20*
X161031000Y-111506000D03*
X161031000Y-108966000D03*
X161031000Y-106426000D03*
X153411000Y-106426000D03*
X153411000Y-108966000D03*
X153411000Y-111506000D03*
X153411000Y-114046000D03*
D14*
X139700000Y-130540000D03*
X139700000Y-128540000D03*
D34*
X114046000Y-99314000D03*
D35*
X112045999Y-99314000D03*
X110046000Y-99314000D03*
X108046000Y-99314000D03*
X106046000Y-99314000D03*
X104046000Y-99314000D03*
X102046001Y-99314000D03*
X100046000Y-99314000D03*
D19*
X129286000Y-108458000D03*
D20*
X129286000Y-105918000D03*
X121666000Y-105918000D03*
X121666000Y-108458000D03*
D36*
X178130200Y-76708000D03*
D32*
X177800000Y-129540000D03*
D33*
X177800000Y-129540000D03*
D10*
X164608000Y-106426000D03*
X166608000Y-106426000D03*
D37*
X150688000Y-88884000D03*
X152588000Y-88884000D03*
X151638000Y-86884000D03*
D10*
X164592000Y-111506000D03*
X166592000Y-111506000D03*
D36*
X177800000Y-103378000D03*
D38*
X131572000Y-116878500D03*
X131572000Y-113753500D03*
D13*
X131570000Y-77470000D03*
X137670000Y-77470000D03*
D12*
X166608000Y-103886000D03*
X164608000Y-103886000D03*
D39*
X156972000Y-124167500D03*
X156972000Y-127292500D03*
D29*
X112369600Y-71069200D03*
X119989600Y-71069200D03*
X127609600Y-71069200D03*
X135229600Y-71069200D03*
D40*
X116078000Y-88200000D03*
X117348000Y-88200000D03*
X118618000Y-88200000D03*
X119888000Y-88200000D03*
X119888000Y-83250000D03*
X118618000Y-83250000D03*
X117348000Y-83250000D03*
X116078000Y-83250000D03*
D41*
X167132000Y-131270000D03*
X167132000Y-125270000D03*
D42*
X121158000Y-122703500D03*
X121158000Y-120628500D03*
D32*
X94843600Y-66040000D03*
D33*
X94843600Y-66040000D03*
D42*
X135890000Y-130577500D03*
X135890000Y-128502500D03*
D32*
X94860000Y-129540000D03*
D33*
X94860000Y-129540000D03*
D14*
X108204000Y-91424000D03*
X108204000Y-89424000D03*
D43*
X145288000Y-95298000D03*
X145288000Y-101298000D03*
D12*
X134858000Y-108204000D03*
X132858000Y-108204000D03*
D23*
X142240000Y-83820000D03*
X139700000Y-83820000D03*
X137160000Y-83820000D03*
D42*
X133096000Y-92731500D03*
X133096000Y-90656500D03*
D44*
X174102999Y-99060000D03*
X172353001Y-99060000D03*
D24*
X153416000Y-124946500D03*
X153416000Y-127021500D03*
D45*
X155723500Y-102616000D03*
X153648500Y-102616000D03*
D28*
X132729000Y-100838000D03*
X134479000Y-100838000D03*
D39*
X135890000Y-122389500D03*
X135890000Y-125514500D03*
D46*
X151130000Y-78356001D03*
X151130000Y-81155999D03*
D47*
X161036000Y-128780000D03*
X161036000Y-122680000D03*
D36*
X177800000Y-118618000D03*
D48*
X124358000Y-120890000D03*
X124358000Y-123190000D03*
X124358000Y-125490000D03*
D49*
X130658000Y-123190000D03*
D50*
X144050000Y-129550000D03*
X145050000Y-129550000D03*
X146050000Y-129550000D03*
X147050000Y-129550000D03*
X148050000Y-129550000D03*
X148050000Y-124450000D03*
X147050000Y-124450000D03*
X146050000Y-124450000D03*
X145050000Y-124450000D03*
X144050000Y-124450000D03*
D51*
X96520000Y-121426000D03*
D52*
X96530000Y-122806000D03*
D51*
X99060000Y-121426000D03*
D52*
X99070000Y-122806000D03*
D51*
X101600000Y-121426000D03*
D52*
X101610000Y-122806000D03*
D51*
X104140000Y-121426000D03*
D52*
X104149999Y-122806000D03*
D51*
X106680000Y-121426000D03*
D52*
X106690000Y-122806000D03*
D53*
X114310000Y-104806000D03*
D51*
X114300000Y-106186000D03*
D53*
X111770000Y-104806000D03*
D51*
X111760000Y-106172000D03*
D53*
X109230000Y-104806000D03*
D51*
X109220000Y-106172000D03*
D53*
X106690000Y-104806000D03*
D51*
X106680000Y-106172000D03*
D53*
X104149999Y-104806000D03*
D51*
X104140000Y-106172000D03*
D53*
X101610000Y-104806000D03*
D51*
X101600000Y-106172000D03*
D53*
X99070000Y-104806000D03*
D51*
X99060000Y-106172000D03*
D53*
X96530000Y-104806000D03*
D51*
X96520000Y-106172000D03*
X109220000Y-121426000D03*
D52*
X109230000Y-122806000D03*
D51*
X114300000Y-121426000D03*
D52*
X114310000Y-122806000D03*
D51*
X111760000Y-121426000D03*
D52*
X111770000Y-122806000D03*
D36*
X177800000Y-110998000D03*
D54*
X145034000Y-88900000D03*
X147109000Y-88900000D03*
D55*
X178917600Y-87122000D03*
D56*
X173891600Y-89662000D03*
X178917600Y-92202000D03*
D40*
X123190000Y-88200000D03*
X124460000Y-88200000D03*
X125730000Y-88200000D03*
X127000000Y-88200000D03*
X127000000Y-83250000D03*
X125730000Y-83250000D03*
X124460000Y-83250000D03*
X123190000Y-83250000D03*
D57*
X144272000Y-77470000D02*
X137670000Y-77470000D01*
M02*
