M48
; DRILL file {KiCad 9.0.7} date 2026-02-09T01:10:38+0300
; FORMAT={-:-/ absolute / metric / decimal}
; #@! TF.CreationDate,2026-02-09T01:10:38+03:00
; #@! TF.GenerationSoftware,Kicad,Pcbnew,9.0.7
; #@! TF.FileFunction,Plated,1,2,PTH
FMAT,2
METRIC
; #@! TA.AperFunction,Plated,PTH,ViaDrill
T1C0.300
; #@! TA.AperFunction,Plated,PTH,ViaDrill
T2C0.600
; #@! TA.AperFunction,Plated,PTH,ComponentDrill
T3C0.750
; #@! TA.AperFunction,Plated,PTH,ComponentDrill
T4C0.800
; #@! TA.AperFunction,Plated,PTH,ComponentDrill
T5C0.850
; #@! TA.AperFunction,Plated,PTH,ComponentDrill
T6C1.000
; #@! TA.AperFunction,Plated,PTH,ComponentDrill
T7C1.100
; #@! TA.AperFunction,Plated,PTH,ComponentDrill
T8C1.200
; #@! TA.AperFunction,Plated,PTH,ComponentDrill
T9C1.300
; #@! TA.AperFunction,Plated,PTH,ViaDrill
T10C1.500
; #@! TA.AperFunction,Plated,PTH,ComponentDrill
T11C1.600
; #@! TA.AperFunction,Plated,PTH,ComponentDrill
T12C1.850
; #@! TA.AperFunction,Plated,PTH,ComponentDrill
T13C3.500
%
G90
G05
T1
X91.948Y-105.156
X93.726Y-105.156
X96.226Y-93.218
X96.52Y-112.268
X101.6Y-108.458
X106.426Y-90.424
X114.935Y-90.17
X117.475Y-85.725
X119.126Y-94.234
X119.126Y-111.76
X119.888Y-90.17
X123.825Y-85.725
X124.841Y-91.313
X128.016Y-80.264
X130.683Y-92.583
X130.937Y-118.745
X131.318Y-97.536
X137.34Y-93.525
X137.414Y-120.65
X139.065Y-118.745
X143.51Y-120.65
X146.05Y-85.852
X146.05Y-130.81
X146.939Y-112.141
X147.32Y-130.81
X150.114Y-119.888
X150.876Y-96.52
X152.654Y-98.044
X159.004Y-100.838
T2
X127.508Y-93.726
T3
X94.793Y-78.029
X94.793Y-80.029
X94.793Y-82.029
X94.793Y-84.029
X94.793Y-86.029
X94.793Y-88.029
X94.793Y-90.029
X94.793Y-92.029
X100.046Y-99.314
X102.046Y-99.314
X104.046Y-99.314
X106.046Y-99.314
X108.046Y-99.314
X110.046Y-99.314
X112.046Y-99.314
X114.046Y-99.314
T4
X106.68Y-83.82
X109.22Y-83.82
X111.76Y-83.82
X121.666Y-98.044
X121.666Y-100.584
X121.666Y-105.918
X121.666Y-108.458
X129.286Y-98.044
X129.286Y-100.584
X129.286Y-105.918
X129.286Y-108.458
X137.16Y-83.82
X139.7Y-83.82
X142.24Y-83.82
X153.411Y-106.426
X153.411Y-108.966
X153.411Y-111.506
X153.411Y-114.046
X161.031Y-106.426
X161.031Y-108.966
X161.031Y-111.506
X161.031Y-114.046
T5
X96.52Y-106.172
X96.52Y-121.426
X99.06Y-106.172
X99.06Y-121.426
X101.6Y-106.172
X101.6Y-121.426
X104.14Y-106.172
X104.14Y-121.426
X106.68Y-106.172
X106.68Y-121.426
X109.22Y-106.172
X109.22Y-121.426
X111.76Y-106.172
X111.76Y-121.426
X114.3Y-106.186
X114.3Y-121.426
T6
X155.748Y-80.69
X167.748Y-80.69
T7
X164.846Y-114.554
X172.466Y-114.554
X178.918Y-87.122
X178.918Y-92.202
T8
X173.892Y-89.662
T9
X155.748Y-92.89
X161.798Y-78.74
X167.798Y-92.94
T10
X121.285Y-77.47
X144.272Y-77.47
T11
X112.37Y-71.069
X119.99Y-71.069
X127.61Y-71.069
X135.23Y-71.069
X156.21Y-71.005
X163.83Y-71.005
T12
X177.8Y-103.378
X177.8Y-110.998
X177.8Y-118.618
X178.13Y-76.708
T13
X94.844Y-66.04
X94.86Y-129.54
X177.698Y-66.396
X177.8Y-129.54
M30
