%TF.GenerationSoftware,KiCad,Pcbnew,9.0.6*%
%TF.CreationDate,2026-01-17T02:02:38+03:00*%
%TF.ProjectId,Backup power switch 12v Module,4261636b-7570-4207-906f-776572207377,rev?*%
%TF.SameCoordinates,Original*%
%TF.FileFunction,Copper,L2,Bot*%
%TF.FilePolarity,Positive*%
%FSLAX46Y46*%
G04 Gerber Fmt 4.6, Leading zero omitted, Abs format (unit mm)*
G04 Created by KiCad (PCBNEW 9.0.6) date 2026-01-17 02:02:38*
%MOMM*%
%LPD*%
G01*
G04 APERTURE LIST*
G04 Aperture macros list*
%AMRoundRect*
0 Rectangle with rounded corners*
0 $1 Rounding radius*
0 $2 $3 $4 $5 $6 $7 $8 $9 X,Y pos of 4 corners*
0 Add a 4 corners polygon primitive as box body*
4,1,4,$2,$3,$4,$5,$6,$7,$8,$9,$2,$3,0*
0 Add four circle primitives for the rounded corners*
1,1,$1+$1,$2,$3*
1,1,$1+$1,$4,$5*
1,1,$1+$1,$6,$7*
1,1,$1+$1,$8,$9*
0 Add four rect primitives between the rounded corners*
20,1,$1+$1,$2,$3,$4,$5,0*
20,1,$1+$1,$4,$5,$6,$7,0*
20,1,$1+$1,$6,$7,$8,$9,0*
20,1,$1+$1,$8,$9,$2,$3,0*%
G04 Aperture macros list end*
%TA.AperFunction,ComponentPad*%
%ADD10RoundRect,0.250000X-0.625000X0.350000X-0.625000X-0.350000X0.625000X-0.350000X0.625000X0.350000X0*%
%TD*%
%TA.AperFunction,ComponentPad*%
%ADD11O,1.750000X1.200000*%
%TD*%
%TA.AperFunction,ComponentPad*%
%ADD12RoundRect,0.250000X0.550000X0.550000X-0.550000X0.550000X-0.550000X-0.550000X0.550000X-0.550000X0*%
%TD*%
%TA.AperFunction,ComponentPad*%
%ADD13C,1.600000*%
%TD*%
%TA.AperFunction,ComponentPad*%
%ADD14C,3.000000*%
%TD*%
%TA.AperFunction,ComponentPad*%
%ADD15C,2.500000*%
%TD*%
%TA.AperFunction,ComponentPad*%
%ADD16C,1.440000*%
%TD*%
%TA.AperFunction,ComponentPad*%
%ADD17C,3.500000*%
%TD*%
%TA.AperFunction,ComponentPad*%
%ADD18C,3.900000*%
%TD*%
%TA.AperFunction,ConnectorPad*%
%ADD19C,7.000000*%
%TD*%
%TA.AperFunction,ComponentPad*%
%ADD20C,3.400000*%
%TD*%
%TA.AperFunction,ComponentPad*%
%ADD21C,1.500000*%
%TD*%
%TA.AperFunction,ComponentPad*%
%ADD22R,4.500000X2.500000*%
%TD*%
%TA.AperFunction,ComponentPad*%
%ADD23O,4.500000X2.500000*%
%TD*%
%TA.AperFunction,ViaPad*%
%ADD24C,0.600000*%
%TD*%
%TA.AperFunction,ViaPad*%
%ADD25C,1.000000*%
%TD*%
%TA.AperFunction,ViaPad*%
%ADD26C,2.000000*%
%TD*%
%TA.AperFunction,Conductor*%
%ADD27C,0.300000*%
%TD*%
%TA.AperFunction,Conductor*%
%ADD28C,0.700000*%
%TD*%
%TA.AperFunction,Conductor*%
%ADD29C,0.400000*%
%TD*%
%TA.AperFunction,Conductor*%
%ADD30C,2.000000*%
%TD*%
%TA.AperFunction,Conductor*%
%ADD31C,0.500000*%
%TD*%
%TA.AperFunction,Conductor*%
%ADD32C,4.000000*%
%TD*%
%TA.AperFunction,Conductor*%
%ADD33C,1.000000*%
%TD*%
%TA.AperFunction,Conductor*%
%ADD34C,1.500000*%
%TD*%
%TA.AperFunction,Conductor*%
%ADD35C,0.200000*%
%TD*%
G04 APERTURE END LIST*
D10*
X96266000Y-78138000D03*
D11*
X96266000Y-80138000D03*
X96266000Y-82138000D03*
X96266000Y-84138000D03*
X96266000Y-86138000D03*
X96266000Y-88138000D03*
D12*
X135885000Y-106685000D03*
D13*
X135885000Y-104145000D03*
X128265000Y-104145000D03*
X128265000Y-106685000D03*
D14*
X161925000Y-79765000D03*
D15*
X155875000Y-81715000D03*
D14*
X155875000Y-93915000D03*
X167925000Y-93965000D03*
D15*
X167875000Y-81715000D03*
D16*
X105664000Y-82042000D03*
X108204000Y-82042000D03*
X110743999Y-82042000D03*
D17*
X107950000Y-70040000D03*
X115570000Y-70040000D03*
X156210000Y-70040000D03*
X163830000Y-70040000D03*
D18*
X177410000Y-62230000D03*
D19*
X177410000Y-62230000D03*
D12*
X135885000Y-114305000D03*
D13*
X135885000Y-111765000D03*
X128265000Y-111765000D03*
X128265000Y-114305000D03*
D18*
X177800000Y-133350000D03*
D19*
X177800000Y-133350000D03*
D20*
X178054000Y-104648000D03*
D17*
X128270000Y-70040000D03*
X135890000Y-70040000D03*
D18*
X94860000Y-62230000D03*
D19*
X94860000Y-62230000D03*
D16*
X137160000Y-83820000D03*
X139700000Y-83820000D03*
X142239999Y-83820000D03*
D18*
X94860000Y-133350000D03*
D19*
X94860000Y-133350000D03*
D20*
X178054000Y-118364000D03*
D21*
X97780000Y-118000000D03*
X100320000Y-118000000D03*
X102860000Y-118000000D03*
X105400000Y-118000000D03*
X107940000Y-118000000D03*
X115560000Y-102760000D03*
X113020000Y-102746000D03*
X110480000Y-102746000D03*
X107940000Y-102746000D03*
X105400000Y-102746000D03*
X102860000Y-102746000D03*
X100320000Y-102746000D03*
X97780000Y-102746000D03*
X110480000Y-118000000D03*
X115560000Y-118000000D03*
X113020000Y-118000000D03*
D20*
X178054000Y-111506000D03*
D22*
X178120000Y-81915000D03*
D23*
X178120000Y-87365000D03*
X178120000Y-92815000D03*
D24*
X122909892Y-97250000D03*
X127000000Y-90805000D03*
X120142000Y-90805000D03*
X115570000Y-90805000D03*
X136652000Y-101854000D03*
D25*
X129286000Y-98806000D03*
X155956000Y-119380000D03*
D24*
X153670000Y-100965000D03*
X117475000Y-85725000D03*
X157988000Y-105410000D03*
X149860000Y-98425000D03*
X123825000Y-85725000D03*
X148082000Y-97282000D03*
X159512000Y-102108000D03*
X146050000Y-130810000D03*
X147320000Y-130810000D03*
X146050000Y-115570000D03*
X131445000Y-132080000D03*
D25*
X135890000Y-120650000D03*
X144780000Y-93915000D03*
D24*
X147955000Y-120650000D03*
D26*
X121285000Y-77470000D03*
X141605000Y-77470000D03*
D24*
X128270000Y-79375000D03*
X139700000Y-97028000D03*
D27*
X107940000Y-95208500D02*
X96869500Y-84138000D01*
X107940000Y-102746000D02*
X107940000Y-95208500D01*
X96869500Y-84138000D02*
X96266000Y-84138000D01*
D28*
X99823000Y-80138000D02*
X116935000Y-97250000D01*
X116935000Y-97250000D02*
X122909892Y-97250000D01*
X96266000Y-80138000D02*
X99823000Y-80138000D01*
D27*
X104259000Y-106685000D02*
X128265000Y-106685000D01*
X100320000Y-102746000D02*
X104259000Y-106685000D01*
D29*
X120142000Y-90805000D02*
X127000000Y-90805000D01*
X115570000Y-90805000D02*
X120142000Y-90805000D01*
D30*
X129286000Y-98806000D02*
X135382000Y-98806000D01*
X135382000Y-98806000D02*
X137160000Y-100584000D01*
X155956000Y-119380000D02*
X137160000Y-100584000D01*
D27*
X136652000Y-101092000D02*
X137160000Y-100584000D01*
D31*
X136652000Y-101854000D02*
X136652000Y-101092000D01*
D27*
X97780000Y-102746000D02*
X109339000Y-114305000D01*
X109339000Y-114305000D02*
X128265000Y-114305000D01*
D32*
X115570000Y-70040000D02*
X115570000Y-67310000D01*
D29*
X96266000Y-78138000D02*
X106839999Y-78138000D01*
D33*
X175768000Y-105410000D02*
X176530000Y-104648000D01*
D34*
X142239999Y-83819999D02*
X142239999Y-83820000D01*
D33*
X110743999Y-82042000D02*
X111251999Y-82550000D01*
D32*
X156210000Y-70040000D02*
X135890000Y-70040000D01*
D34*
X114300000Y-71310000D02*
X115570000Y-70040000D01*
D33*
X157988000Y-105283000D02*
X153670000Y-100965000D01*
D34*
X123825000Y-85725000D02*
X117475000Y-85725000D01*
D29*
X106839999Y-78138000D02*
X110743999Y-82042000D01*
D32*
X129350000Y-63500000D02*
X135890000Y-70040000D01*
D33*
X153670000Y-100965000D02*
X151130000Y-98425000D01*
X157988000Y-105410000D02*
X157988000Y-105283000D01*
X151130000Y-98425000D02*
X149860000Y-98425000D01*
X111251999Y-82550000D02*
X114300000Y-82550000D01*
D34*
X114300000Y-82550000D02*
X114300000Y-71310000D01*
X117475000Y-85725000D02*
X114300000Y-82550000D01*
X135890000Y-77470000D02*
X142239999Y-83819999D01*
D32*
X119380000Y-63500000D02*
X129350000Y-63500000D01*
D33*
X176530000Y-104648000D02*
X178054000Y-104648000D01*
D32*
X115570000Y-67310000D02*
X119380000Y-63500000D01*
D33*
X157988000Y-105410000D02*
X175768000Y-105410000D01*
D34*
X135890000Y-70040000D02*
X135890000Y-77470000D01*
D27*
X154686000Y-97282000D02*
X148082000Y-97282000D01*
X159512000Y-102108000D02*
X154686000Y-97282000D01*
D35*
X137016370Y-104145000D02*
X135885000Y-104145000D01*
X137668000Y-104140000D02*
X137021370Y-104140000D01*
X146050000Y-130810000D02*
X150495000Y-126365000D01*
X150495000Y-116967000D02*
X137668000Y-104140000D01*
X150495000Y-126365000D02*
X150495000Y-116967000D01*
X137021370Y-104140000D02*
X137016370Y-104145000D01*
X145752028Y-131572000D02*
X145288000Y-131107972D01*
X149860000Y-117348000D02*
X144277000Y-111765000D01*
X147320000Y-130810000D02*
X146558000Y-131572000D01*
X145288000Y-131107972D02*
X145288000Y-130302000D01*
X145288000Y-130302000D02*
X149860000Y-125730000D01*
X146558000Y-131572000D02*
X145752028Y-131572000D01*
X149860000Y-125730000D02*
X149860000Y-117348000D01*
X144277000Y-111765000D02*
X135885000Y-111765000D01*
D33*
X146050000Y-115570000D02*
X142875000Y-118745000D01*
X131445000Y-121920000D02*
X131445000Y-132080000D01*
X142875000Y-118745000D02*
X134620000Y-118745000D01*
X134620000Y-118745000D02*
X131445000Y-121920000D01*
D32*
X163195000Y-100965000D02*
X170180000Y-100965000D01*
X156145000Y-93915000D02*
X163195000Y-100965000D01*
X178120000Y-93025000D02*
X178120000Y-92815000D01*
X155875000Y-93915000D02*
X156145000Y-93915000D01*
X170180000Y-100965000D02*
X178120000Y-93025000D01*
X144780000Y-93915000D02*
X137730000Y-93915000D01*
X144780000Y-93915000D02*
X155875000Y-93915000D01*
X137730000Y-93915000D02*
X121285000Y-77470000D01*
D33*
X147955000Y-120650000D02*
X135890000Y-120650000D01*
D32*
X176530000Y-81915000D02*
X174625000Y-81915000D01*
D31*
X139065000Y-90170000D02*
X146685000Y-90170000D01*
D32*
X167894000Y-93934000D02*
X167925000Y-93965000D01*
D31*
X128270000Y-79375000D02*
X139065000Y-90170000D01*
D32*
X150495000Y-86360000D02*
X141605000Y-77470000D01*
D31*
X146685000Y-90170000D02*
X150495000Y-86360000D01*
D32*
X167925000Y-90520000D02*
X167575000Y-90170000D01*
X174625000Y-81915000D02*
X170180000Y-86360000D01*
X170180000Y-86360000D02*
X150495000Y-86360000D01*
X161798000Y-86360000D02*
X162814000Y-86360000D01*
X178120000Y-81915000D02*
X176530000Y-81915000D01*
X162814000Y-86360000D02*
X167894000Y-91440000D01*
X167894000Y-91440000D02*
X167894000Y-93934000D01*
X167575000Y-90170000D02*
X166370000Y-90170000D01*
X167925000Y-93965000D02*
X167925000Y-90520000D01*
X166370000Y-90170000D02*
X170180000Y-86360000D01*
D31*
X178054000Y-118364000D02*
X158022446Y-118364000D01*
X115570000Y-89408000D02*
X108204000Y-82042000D01*
X129066446Y-89408000D02*
X115570000Y-89408000D01*
X158022446Y-118364000D02*
X129066446Y-89408000D01*
X153670000Y-111506000D02*
X178054000Y-111506000D01*
X139700000Y-97536000D02*
X153670000Y-111506000D01*
X139700000Y-97028000D02*
X139700000Y-97536000D01*
%TA.AperFunction,Conductor*%
G36*
X182948539Y-57162185D02*
G01*
X182994294Y-57214989D01*
X183005500Y-57266500D01*
X183005500Y-65916000D01*
X182985815Y-65983039D01*
X182933011Y-66028794D01*
X182881500Y-66040000D01*
X179263510Y-66040000D01*
X179196471Y-66020315D01*
X179150716Y-65967511D01*
X179140772Y-65898353D01*
X179169797Y-65834797D01*
X179205057Y-65806642D01*
X179276980Y-65768198D01*
X179469149Y-65665482D01*
X179795969Y-65447107D01*
X180099812Y-65197750D01*
X180377750Y-64919812D01*
X180627107Y-64615969D01*
X180845482Y-64289149D01*
X181030771Y-63942497D01*
X181181190Y-63579353D01*
X181295290Y-63203215D01*
X181295292Y-63203205D01*
X181295295Y-63203194D01*
X181371973Y-62817702D01*
X181410500Y-62426528D01*
X181410500Y-62033471D01*
X181371973Y-61642297D01*
X181295295Y-61256805D01*
X181295292Y-61256794D01*
X181295291Y-61256791D01*
X181295290Y-61256785D01*
X181181190Y-60880647D01*
X181030771Y-60517503D01*
X180845482Y-60170851D01*
X180627107Y-59844031D01*
X180377750Y-59540188D01*
X180377749Y-59540187D01*
X180377745Y-59540182D01*
X180099817Y-59262254D01*
X179795974Y-59012897D01*
X179795973Y-59012896D01*
X179795969Y-59012893D01*
X179469149Y-58794518D01*
X179469144Y-58794515D01*
X179469137Y-58794511D01*
X179122504Y-58609232D01*
X179122499Y-58609230D01*
X178759354Y-58458810D01*
X178383205Y-58344707D01*
X178383194Y-58344704D01*
X177997702Y-58268026D01*
X177703089Y-58239010D01*
X177606532Y-58229500D01*
X177213468Y-58229500D01*
X177124251Y-58238287D01*
X176822297Y-58268026D01*
X176436805Y-58344704D01*
X176436794Y-58344707D01*
X176060645Y-58458810D01*
X175697500Y-58609230D01*
X175697495Y-58609232D01*
X175350862Y-58794511D01*
X175350844Y-58794522D01*
X175024039Y-59012887D01*
X175024025Y-59012897D01*
X174720182Y-59262254D01*
X174442254Y-59540182D01*
X174192897Y-59844025D01*
X174192887Y-59844039D01*
X173974522Y-60170844D01*
X173974511Y-60170862D01*
X173789232Y-60517495D01*
X173789230Y-60517500D01*
X173638810Y-60880645D01*
X173524707Y-61256794D01*
X173524704Y-61256805D01*
X173448026Y-61642297D01*
X173409500Y-62033471D01*
X173409500Y-62426528D01*
X173448026Y-62817702D01*
X173524704Y-63203194D01*
X173524707Y-63203205D01*
X173638810Y-63579354D01*
X173789230Y-63942499D01*
X173789232Y-63942504D01*
X173974511Y-64289137D01*
X173974522Y-64289155D01*
X174192887Y-64615960D01*
X174192897Y-64615974D01*
X174442254Y-64919817D01*
X174720182Y-65197745D01*
X174720187Y-65197749D01*
X174720188Y-65197750D01*
X175024031Y-65447107D01*
X175350851Y-65665482D01*
X175350860Y-65665487D01*
X175350862Y-65665488D01*
X175614943Y-65806642D01*
X175664787Y-65855604D01*
X175680248Y-65923742D01*
X175656416Y-65989421D01*
X175600859Y-66031790D01*
X175556490Y-66040000D01*
X158750000Y-66040000D01*
X158750000Y-72901000D01*
X158730315Y-72968039D01*
X158677511Y-73013794D01*
X158626000Y-73025000D01*
X133474000Y-73025000D01*
X133406961Y-73005315D01*
X133361206Y-72952511D01*
X133350000Y-72901000D01*
X133350000Y-69892533D01*
X133640000Y-69892533D01*
X133640000Y-70187466D01*
X133640001Y-70187483D01*
X133678496Y-70479884D01*
X133678499Y-70479897D01*
X133754835Y-70764790D01*
X133754838Y-70764800D01*
X133867704Y-71037281D01*
X133867709Y-71037292D01*
X134015174Y-71292707D01*
X134015180Y-71292715D01*
X134131777Y-71444667D01*
X135174152Y-70402292D01*
X135181049Y-70418942D01*
X135268599Y-70549970D01*
X135380030Y-70661401D01*
X135511058Y-70748951D01*
X135527706Y-70755847D01*
X134485331Y-71798221D01*
X134637284Y-71914819D01*
X134637292Y-71914825D01*
X134892707Y-72062290D01*
X134892718Y-72062295D01*
X135165199Y-72175161D01*
X135165209Y-72175164D01*
X135450102Y-72251500D01*
X135450115Y-72251503D01*
X135742516Y-72289998D01*
X135742534Y-72290000D01*
X136037466Y-72290000D01*
X136037483Y-72289998D01*
X136329884Y-72251503D01*
X136329897Y-72251500D01*
X136614790Y-72175164D01*
X136614800Y-72175161D01*
X136887281Y-72062295D01*
X136887292Y-72062290D01*
X137142707Y-71914825D01*
X137142725Y-71914813D01*
X137294667Y-71798222D01*
X137294667Y-71798220D01*
X136252293Y-70755847D01*
X136268942Y-70748951D01*
X136399970Y-70661401D01*
X136511401Y-70549970D01*
X136598951Y-70418942D01*
X136605847Y-70402293D01*
X137648220Y-71444667D01*
X137648222Y-71444667D01*
X137764813Y-71292725D01*
X137764825Y-71292707D01*
X137912290Y-71037292D01*
X137912295Y-71037281D01*
X138025161Y-70764800D01*
X138025164Y-70764790D01*
X138101500Y-70479897D01*
X138101503Y-70479884D01*
X138139998Y-70187483D01*
X138140000Y-70187466D01*
X138140000Y-69892533D01*
X153960000Y-69892533D01*
X153960000Y-70187466D01*
X153960001Y-70187483D01*
X153998496Y-70479884D01*
X153998499Y-70479897D01*
X154074835Y-70764790D01*
X154074838Y-70764800D01*
X154187704Y-71037281D01*
X154187709Y-71037292D01*
X154335174Y-71292707D01*
X154335180Y-71292715D01*
X154451777Y-71444667D01*
X155494152Y-70402291D01*
X155501049Y-70418942D01*
X155588599Y-70549970D01*
X155700030Y-70661401D01*
X155831058Y-70748951D01*
X155847706Y-70755847D01*
X154805331Y-71798221D01*
X154957284Y-71914819D01*
X154957292Y-71914825D01*
X155212707Y-72062290D01*
X155212718Y-72062295D01*
X155485199Y-72175161D01*
X155485209Y-72175164D01*
X155770102Y-72251500D01*
X155770115Y-72251503D01*
X156062516Y-72289998D01*
X156062534Y-72290000D01*
X156357466Y-72290000D01*
X156357483Y-72289998D01*
X156649884Y-72251503D01*
X156649897Y-72251500D01*
X156934790Y-72175164D01*
X156934800Y-72175161D01*
X157207281Y-72062295D01*
X157207292Y-72062290D01*
X157462707Y-71914825D01*
X157462725Y-71914813D01*
X157614667Y-71798222D01*
X157614667Y-71798220D01*
X156572293Y-70755847D01*
X156588942Y-70748951D01*
X156719970Y-70661401D01*
X156831401Y-70549970D01*
X156918951Y-70418942D01*
X156925846Y-70402293D01*
X157968220Y-71444667D01*
X157968222Y-71444667D01*
X158084813Y-71292725D01*
X158084825Y-71292707D01*
X158232290Y-71037292D01*
X158232295Y-71037281D01*
X158345161Y-70764800D01*
X158345164Y-70764790D01*
X158421500Y-70479897D01*
X158421503Y-70479884D01*
X158459998Y-70187483D01*
X158460000Y-70187466D01*
X158460000Y-69892533D01*
X158459998Y-69892516D01*
X158421503Y-69600115D01*
X158421500Y-69600102D01*
X158345164Y-69315209D01*
X158345161Y-69315199D01*
X158232295Y-69042718D01*
X158232290Y-69042707D01*
X158084825Y-68787292D01*
X158084819Y-68787284D01*
X157968221Y-68635331D01*
X156925846Y-69677705D01*
X156918951Y-69661058D01*
X156831401Y-69530030D01*
X156719970Y-69418599D01*
X156588942Y-69331049D01*
X156572293Y-69324152D01*
X157614667Y-68281777D01*
X157462715Y-68165180D01*
X157462707Y-68165174D01*
X157207292Y-68017709D01*
X157207281Y-68017704D01*
X156934800Y-67904838D01*
X156934790Y-67904835D01*
X156649897Y-67828499D01*
X156649884Y-67828496D01*
X156357483Y-67790001D01*
X156357466Y-67790000D01*
X156062534Y-67790000D01*
X156062516Y-67790001D01*
X155770115Y-67828496D01*
X155770102Y-67828499D01*
X155485209Y-67904835D01*
X155485199Y-67904838D01*
X155212718Y-68017704D01*
X155212707Y-68017709D01*
X154957292Y-68165174D01*
X154957276Y-68165185D01*
X154805331Y-68281775D01*
X154805331Y-68281777D01*
X155847706Y-69324152D01*
X155831058Y-69331049D01*
X155700030Y-69418599D01*
X155588599Y-69530030D01*
X155501049Y-69661058D01*
X155494152Y-69677706D01*
X154451777Y-68635331D01*
X154451775Y-68635331D01*
X154335185Y-68787276D01*
X154335174Y-68787292D01*
X154187709Y-69042707D01*
X154187704Y-69042718D01*
X154074838Y-69315199D01*
X154074835Y-69315209D01*
X153998499Y-69600102D01*
X153998496Y-69600115D01*
X153960001Y-69892516D01*
X153960000Y-69892533D01*
X138140000Y-69892533D01*
X138139998Y-69892516D01*
X138101503Y-69600115D01*
X138101500Y-69600102D01*
X138025164Y-69315209D01*
X138025161Y-69315199D01*
X137912295Y-69042718D01*
X137912290Y-69042707D01*
X137764825Y-68787292D01*
X137764819Y-68787284D01*
X137648221Y-68635331D01*
X136605846Y-69677705D01*
X136598951Y-69661058D01*
X136511401Y-69530030D01*
X136399970Y-69418599D01*
X136268942Y-69331049D01*
X136252293Y-69324152D01*
X137294667Y-68281777D01*
X137142715Y-68165180D01*
X137142707Y-68165174D01*
X136887292Y-68017709D01*
X136887281Y-68017704D01*
X136614800Y-67904838D01*
X136614790Y-67904835D01*
X136329897Y-67828499D01*
X136329884Y-67828496D01*
X136037483Y-67790001D01*
X136037466Y-67790000D01*
X135742534Y-67790000D01*
X135742516Y-67790001D01*
X135450115Y-67828496D01*
X135450102Y-67828499D01*
X135165209Y-67904835D01*
X135165199Y-67904838D01*
X134892718Y-68017704D01*
X134892707Y-68017709D01*
X134637292Y-68165174D01*
X134637276Y-68165185D01*
X134485331Y-68281775D01*
X134485331Y-68281777D01*
X135527706Y-69324152D01*
X135511058Y-69331049D01*
X135380030Y-69418599D01*
X135268599Y-69530030D01*
X135181049Y-69661058D01*
X135174152Y-69677706D01*
X134131777Y-68635331D01*
X134131775Y-68635331D01*
X134015185Y-68787276D01*
X134015174Y-68787292D01*
X133867709Y-69042707D01*
X133867704Y-69042718D01*
X133754838Y-69315199D01*
X133754835Y-69315209D01*
X133678499Y-69600102D01*
X133678496Y-69600115D01*
X133640001Y-69892516D01*
X133640000Y-69892533D01*
X133350000Y-69892533D01*
X133350000Y-66040000D01*
X104140000Y-66040000D01*
X104140000Y-80645000D01*
X101532789Y-80645000D01*
X100365165Y-79477375D01*
X100365161Y-79477372D01*
X100225866Y-79384297D01*
X100225863Y-79384296D01*
X100116416Y-79338962D01*
X100116414Y-79338961D01*
X100071086Y-79320185D01*
X100071074Y-79320182D01*
X99906771Y-79287500D01*
X99906767Y-79287500D01*
X97451523Y-79287500D01*
X97384484Y-79267815D01*
X97338729Y-79215011D01*
X97328785Y-79145853D01*
X97357810Y-79082297D01*
X97363842Y-79075819D01*
X97483315Y-78956345D01*
X97575356Y-78807124D01*
X97575358Y-78807119D01*
X97630505Y-78640697D01*
X97630506Y-78640690D01*
X97640999Y-78537986D01*
X97641000Y-78537973D01*
X97641000Y-78388000D01*
X96546330Y-78388000D01*
X96566075Y-78368255D01*
X96615444Y-78282745D01*
X96641000Y-78187370D01*
X96641000Y-78088630D01*
X96615444Y-77993255D01*
X96566075Y-77907745D01*
X96546330Y-77888000D01*
X97640999Y-77888000D01*
X97640999Y-77738028D01*
X97640998Y-77738013D01*
X97630505Y-77635302D01*
X97575358Y-77468880D01*
X97575356Y-77468875D01*
X97483315Y-77319654D01*
X97359345Y-77195684D01*
X97210124Y-77103643D01*
X97210119Y-77103641D01*
X97043697Y-77048494D01*
X97043690Y-77048493D01*
X96940986Y-77038000D01*
X96516000Y-77038000D01*
X96516000Y-77857670D01*
X96496255Y-77837925D01*
X96410745Y-77788556D01*
X96315370Y-77763000D01*
X96216630Y-77763000D01*
X96121255Y-77788556D01*
X96035745Y-77837925D01*
X96016000Y-77857670D01*
X96016000Y-77038000D01*
X95591028Y-77038000D01*
X95591012Y-77038001D01*
X95488302Y-77048494D01*
X95321880Y-77103641D01*
X95321875Y-77103643D01*
X95172654Y-77195684D01*
X95048684Y-77319654D01*
X94956643Y-77468875D01*
X94956641Y-77468880D01*
X94901494Y-77635302D01*
X94901493Y-77635309D01*
X94891000Y-77738013D01*
X94891000Y-77888000D01*
X95985670Y-77888000D01*
X95965925Y-77907745D01*
X95916556Y-77993255D01*
X95891000Y-78088630D01*
X95891000Y-78187370D01*
X95916556Y-78282745D01*
X95965925Y-78368255D01*
X95985670Y-78388000D01*
X94891001Y-78388000D01*
X94891001Y-78537986D01*
X94901494Y-78640697D01*
X94956641Y-78807119D01*
X94956643Y-78807124D01*
X95048684Y-78956345D01*
X95172656Y-79080317D01*
X95236906Y-79119946D01*
X95283631Y-79171893D01*
X95294854Y-79240856D01*
X95267011Y-79304938D01*
X95259492Y-79313166D01*
X95151585Y-79421073D01*
X95049768Y-79561211D01*
X94971128Y-79715552D01*
X94917597Y-79880302D01*
X94915092Y-79896120D01*
X94890500Y-80051389D01*
X94890500Y-80224611D01*
X94917598Y-80395701D01*
X94922055Y-80409419D01*
X94971128Y-80560447D01*
X95014210Y-80645000D01*
X89721700Y-80645000D01*
X89721700Y-62033471D01*
X90859500Y-62033471D01*
X90859500Y-62426528D01*
X90898026Y-62817702D01*
X90974704Y-63203194D01*
X90974707Y-63203205D01*
X91088810Y-63579354D01*
X91239230Y-63942499D01*
X91239232Y-63942504D01*
X91424511Y-64289137D01*
X91424522Y-64289155D01*
X91642887Y-64615960D01*
X91642897Y-64615974D01*
X91892254Y-64919817D01*
X92170182Y-65197745D01*
X92170187Y-65197749D01*
X92170188Y-65197750D01*
X92474031Y-65447107D01*
X92800851Y-65665482D01*
X92800860Y-65665487D01*
X92800862Y-65665488D01*
X93147495Y-65850767D01*
X93147497Y-65850767D01*
X93147503Y-65850771D01*
X93510647Y-66001190D01*
X93886785Y-66115290D01*
X93886791Y-66115291D01*
X93886794Y-66115292D01*
X93886805Y-66115295D01*
X94272297Y-66191973D01*
X94663468Y-66230500D01*
X94663471Y-66230500D01*
X95056529Y-66230500D01*
X95056532Y-66230500D01*
X95447703Y-66191973D01*
X95522748Y-66177045D01*
X95833194Y-66115295D01*
X95833205Y-66115292D01*
X95833205Y-66115291D01*
X95833215Y-66115290D01*
X96209353Y-66001190D01*
X96572497Y-65850771D01*
X96919149Y-65665482D01*
X97245969Y-65447107D01*
X97549812Y-65197750D01*
X97827750Y-64919812D01*
X98077107Y-64615969D01*
X98295482Y-64289149D01*
X98480771Y-63942497D01*
X98631190Y-63579353D01*
X98745290Y-63203215D01*
X98745292Y-63203205D01*
X98745295Y-63203194D01*
X98821973Y-62817702D01*
X98860500Y-62426528D01*
X98860500Y-62033471D01*
X98821973Y-61642297D01*
X98745295Y-61256805D01*
X98745292Y-61256794D01*
X98745291Y-61256791D01*
X98745290Y-61256785D01*
X98631190Y-60880647D01*
X98480771Y-60517503D01*
X98295482Y-60170851D01*
X98077107Y-59844031D01*
X97827750Y-59540188D01*
X97827749Y-59540187D01*
X97827745Y-59540182D01*
X97549817Y-59262254D01*
X97245974Y-59012897D01*
X97245973Y-59012896D01*
X97245969Y-59012893D01*
X96919149Y-58794518D01*
X96919144Y-58794515D01*
X96919137Y-58794511D01*
X96572504Y-58609232D01*
X96572499Y-58609230D01*
X96209354Y-58458810D01*
X95833205Y-58344707D01*
X95833194Y-58344704D01*
X95447702Y-58268026D01*
X95153089Y-58239010D01*
X95056532Y-58229500D01*
X94663468Y-58229500D01*
X94574251Y-58238287D01*
X94272297Y-58268026D01*
X93886805Y-58344704D01*
X93886794Y-58344707D01*
X93510645Y-58458810D01*
X93147500Y-58609230D01*
X93147495Y-58609232D01*
X92800862Y-58794511D01*
X92800844Y-58794522D01*
X92474039Y-59012887D01*
X92474025Y-59012897D01*
X92170182Y-59262254D01*
X91892254Y-59540182D01*
X91642897Y-59844025D01*
X91642887Y-59844039D01*
X91424522Y-60170844D01*
X91424511Y-60170862D01*
X91239232Y-60517495D01*
X91239230Y-60517500D01*
X91088810Y-60880645D01*
X90974707Y-61256794D01*
X90974704Y-61256805D01*
X90898026Y-61642297D01*
X90859500Y-62033471D01*
X89721700Y-62033471D01*
X89721700Y-57266500D01*
X89741385Y-57199461D01*
X89794189Y-57153706D01*
X89845700Y-57142500D01*
X182881500Y-57142500D01*
X182948539Y-57162185D01*
G37*
%TD.AperFunction*%
%TA.AperFunction,Conductor*%
G36*
X115579232Y-80029492D02*
G01*
X115608132Y-80053999D01*
X122886650Y-88452289D01*
X122915681Y-88515842D01*
X122905744Y-88585001D01*
X122859994Y-88637809D01*
X122792956Y-88657500D01*
X115932229Y-88657500D01*
X115865190Y-88637815D01*
X115844548Y-88621181D01*
X110697049Y-83473681D01*
X110663564Y-83412358D01*
X110668548Y-83342666D01*
X110710420Y-83286733D01*
X110775884Y-83262316D01*
X110784730Y-83262000D01*
X110840014Y-83262000D01*
X111029683Y-83231959D01*
X111212320Y-83172616D01*
X111383418Y-83085436D01*
X111412645Y-83064201D01*
X111412645Y-83064200D01*
X110790445Y-82442000D01*
X110796660Y-82442000D01*
X110898393Y-82414741D01*
X110989605Y-82362080D01*
X111064079Y-82287606D01*
X111116740Y-82196394D01*
X111143999Y-82094661D01*
X111143999Y-82088446D01*
X111766199Y-82710646D01*
X111766200Y-82710646D01*
X111787435Y-82681419D01*
X111874615Y-82510321D01*
X111933958Y-82327684D01*
X111963999Y-82138015D01*
X111963999Y-81945984D01*
X111933958Y-81756315D01*
X111874615Y-81573678D01*
X111787433Y-81402577D01*
X111766200Y-81373352D01*
X111766199Y-81373351D01*
X111143999Y-81995552D01*
X111143999Y-81989339D01*
X111116740Y-81887606D01*
X111064079Y-81796394D01*
X110989605Y-81721920D01*
X110898393Y-81669259D01*
X110796660Y-81642000D01*
X110790446Y-81642000D01*
X111412645Y-81019798D01*
X111383414Y-80998561D01*
X111212320Y-80911383D01*
X111029683Y-80852040D01*
X110840014Y-80822000D01*
X110647984Y-80822000D01*
X110458314Y-80852040D01*
X110275677Y-80911383D01*
X110104577Y-80998564D01*
X110075351Y-81019798D01*
X110075350Y-81019798D01*
X110697553Y-81642000D01*
X110691338Y-81642000D01*
X110589605Y-81669259D01*
X110498393Y-81721920D01*
X110423919Y-81796394D01*
X110371258Y-81887606D01*
X110343999Y-81989339D01*
X110343999Y-81995553D01*
X109721797Y-81373351D01*
X109721797Y-81373352D01*
X109700563Y-81402578D01*
X109613380Y-81573682D01*
X109592192Y-81638892D01*
X109552754Y-81696567D01*
X109488395Y-81723764D01*
X109419549Y-81711848D01*
X109368074Y-81664604D01*
X109356332Y-81638892D01*
X109335082Y-81573491D01*
X109247865Y-81402319D01*
X109134945Y-81246898D01*
X108999102Y-81111055D01*
X108843681Y-80998135D01*
X108727843Y-80939112D01*
X108672506Y-80910916D01*
X108489802Y-80851553D01*
X108394928Y-80836526D01*
X108300055Y-80821500D01*
X108107945Y-80821500D01*
X108044696Y-80831517D01*
X107918197Y-80851553D01*
X107735493Y-80910916D01*
X107564318Y-80998135D01*
X107485988Y-81055046D01*
X107408898Y-81111055D01*
X107408896Y-81111057D01*
X107408895Y-81111057D01*
X107273057Y-81246895D01*
X107273057Y-81246896D01*
X107273055Y-81246898D01*
X107235500Y-81298588D01*
X107160135Y-81402318D01*
X107072916Y-81573493D01*
X107051931Y-81638081D01*
X107012494Y-81695756D01*
X106948135Y-81722955D01*
X106879289Y-81711041D01*
X106827813Y-81663797D01*
X106816069Y-81638081D01*
X106795083Y-81573493D01*
X106789758Y-81563043D01*
X106707865Y-81402319D01*
X106594945Y-81246898D01*
X106459102Y-81111055D01*
X106303681Y-80998135D01*
X106187843Y-80939112D01*
X106132506Y-80910916D01*
X105949802Y-80851553D01*
X105854928Y-80836526D01*
X105760055Y-80821500D01*
X105567945Y-80821500D01*
X105504696Y-80831517D01*
X105378197Y-80851553D01*
X105195493Y-80910916D01*
X105024318Y-80998135D01*
X104945988Y-81055046D01*
X104868898Y-81111055D01*
X104868896Y-81111057D01*
X104868895Y-81111057D01*
X104733057Y-81246895D01*
X104733057Y-81246896D01*
X104733055Y-81246898D01*
X104695500Y-81298588D01*
X104620135Y-81402318D01*
X104532916Y-81573493D01*
X104473553Y-81756197D01*
X104443500Y-81945945D01*
X104443500Y-82138054D01*
X104473553Y-82327802D01*
X104532916Y-82510506D01*
X104578261Y-82599500D01*
X104620135Y-82681681D01*
X104733055Y-82837102D01*
X104868898Y-82972945D01*
X105024319Y-83085865D01*
X105174970Y-83162626D01*
X105195493Y-83173083D01*
X105286845Y-83202764D01*
X105378199Y-83232447D01*
X105567945Y-83262500D01*
X105567946Y-83262500D01*
X105760054Y-83262500D01*
X105760055Y-83262500D01*
X105949801Y-83232447D01*
X106132509Y-83173082D01*
X106303681Y-83085865D01*
X106459102Y-82972945D01*
X106594945Y-82837102D01*
X106707865Y-82681681D01*
X106795082Y-82510509D01*
X106795143Y-82510321D01*
X106816069Y-82445919D01*
X106855506Y-82388243D01*
X106919864Y-82361044D01*
X106988711Y-82372958D01*
X107040187Y-82420202D01*
X107051931Y-82445919D01*
X107072915Y-82510504D01*
X107098363Y-82560447D01*
X107160135Y-82681681D01*
X107273055Y-82837102D01*
X107408898Y-82972945D01*
X107564319Y-83085865D01*
X107714970Y-83162626D01*
X107735493Y-83173083D01*
X107826845Y-83202764D01*
X107918199Y-83232447D01*
X108107945Y-83262500D01*
X108107946Y-83262500D01*
X108300042Y-83262500D01*
X108300055Y-83262500D01*
X108300067Y-83262497D01*
X108301526Y-83262383D01*
X108302083Y-83262500D01*
X108304927Y-83262500D01*
X108304927Y-83263097D01*
X108369905Y-83276739D01*
X108398951Y-83298319D01*
X111815421Y-86714788D01*
X114987049Y-89886416D01*
X115087229Y-89986596D01*
X115120713Y-90047920D01*
X115115729Y-90117611D01*
X115073857Y-90173544D01*
X115068440Y-90177378D01*
X115059709Y-90183211D01*
X114948213Y-90294707D01*
X114948210Y-90294711D01*
X114860609Y-90425814D01*
X114860602Y-90425827D01*
X114800264Y-90571498D01*
X114800261Y-90571510D01*
X114769500Y-90726153D01*
X114769500Y-90883846D01*
X114800261Y-91038489D01*
X114800264Y-91038501D01*
X114860602Y-91184172D01*
X114860609Y-91184185D01*
X114948210Y-91315288D01*
X114948213Y-91315292D01*
X115059707Y-91426786D01*
X115059711Y-91426789D01*
X115190814Y-91514390D01*
X115190827Y-91514397D01*
X115336498Y-91574735D01*
X115336503Y-91574737D01*
X115469536Y-91601199D01*
X115491153Y-91605499D01*
X115491156Y-91605500D01*
X115491158Y-91605500D01*
X115648844Y-91605500D01*
X115648845Y-91605499D01*
X115803497Y-91574737D01*
X115878963Y-91543478D01*
X115947864Y-91514939D01*
X115995316Y-91505500D01*
X119716684Y-91505500D01*
X119764136Y-91514939D01*
X119908498Y-91574735D01*
X119908503Y-91574737D01*
X120041536Y-91601199D01*
X120063153Y-91605499D01*
X120063156Y-91605500D01*
X120063158Y-91605500D01*
X120220844Y-91605500D01*
X120220845Y-91605499D01*
X120375497Y-91574737D01*
X120450963Y-91543478D01*
X120519864Y-91514939D01*
X120567316Y-91505500D01*
X125476146Y-91505500D01*
X125543185Y-91525185D01*
X125569848Y-91548287D01*
X127494543Y-93769089D01*
X130381583Y-97100289D01*
X130410614Y-97163842D01*
X130400677Y-97233001D01*
X130354927Y-97285809D01*
X130287889Y-97305500D01*
X129167903Y-97305500D01*
X128934631Y-97342446D01*
X128710003Y-97415433D01*
X128499566Y-97522657D01*
X128390550Y-97601862D01*
X128308490Y-97661483D01*
X128308488Y-97661485D01*
X128308487Y-97661485D01*
X128141485Y-97828487D01*
X128141485Y-97828488D01*
X128141483Y-97828490D01*
X128095707Y-97891495D01*
X128002657Y-98019566D01*
X127895433Y-98230003D01*
X127822446Y-98454631D01*
X127785500Y-98687902D01*
X127785500Y-98924097D01*
X127822446Y-99157368D01*
X127895433Y-99381996D01*
X128002657Y-99592433D01*
X128141483Y-99783510D01*
X128308490Y-99950517D01*
X128499567Y-100089343D01*
X128598991Y-100140002D01*
X128710003Y-100196566D01*
X128710005Y-100196566D01*
X128710008Y-100196568D01*
X128830412Y-100235689D01*
X128934631Y-100269553D01*
X129167903Y-100306500D01*
X129167908Y-100306500D01*
X134709111Y-100306500D01*
X134776150Y-100326185D01*
X134796792Y-100342819D01*
X135865181Y-101411208D01*
X135879884Y-101438135D01*
X135896477Y-101463954D01*
X135897368Y-101470154D01*
X135898666Y-101472531D01*
X135901500Y-101498889D01*
X135901500Y-101549396D01*
X135892062Y-101596844D01*
X135890293Y-101601117D01*
X135882262Y-101620506D01*
X135882260Y-101620511D01*
X135851500Y-101775153D01*
X135851500Y-101932846D01*
X135882261Y-102087489D01*
X135882264Y-102087501D01*
X135942602Y-102233172D01*
X135942609Y-102233185D01*
X136030210Y-102364288D01*
X136030213Y-102364292D01*
X136141707Y-102475786D01*
X136141711Y-102475789D01*
X136272814Y-102563390D01*
X136272827Y-102563397D01*
X136405350Y-102618289D01*
X136418503Y-102623737D01*
X136573153Y-102654499D01*
X136573156Y-102654500D01*
X136573158Y-102654500D01*
X136730844Y-102654500D01*
X136730845Y-102654499D01*
X136885497Y-102623737D01*
X136944865Y-102599145D01*
X137014332Y-102591676D01*
X137076811Y-102622950D01*
X137079998Y-102626025D01*
X137781791Y-103327818D01*
X137792402Y-103347251D01*
X137806904Y-103363987D01*
X137808821Y-103377319D01*
X137815276Y-103389141D01*
X137813696Y-103411227D01*
X137816848Y-103433145D01*
X137811252Y-103445397D01*
X137810292Y-103458833D01*
X137797022Y-103476558D01*
X137787824Y-103496701D01*
X137776491Y-103503984D01*
X137768420Y-103514766D01*
X137747675Y-103522503D01*
X137729046Y-103534476D01*
X137707126Y-103537627D01*
X137702956Y-103539183D01*
X137694111Y-103539499D01*
X137588943Y-103539499D01*
X137588939Y-103539499D01*
X137581332Y-103539500D01*
X137581331Y-103539499D01*
X137581331Y-103539500D01*
X137112054Y-103539500D01*
X137045015Y-103519815D01*
X137001568Y-103471792D01*
X136997286Y-103463387D01*
X136876971Y-103297786D01*
X136732213Y-103153028D01*
X136566613Y-103032715D01*
X136566612Y-103032714D01*
X136566610Y-103032713D01*
X136509653Y-103003691D01*
X136384223Y-102939781D01*
X136189534Y-102876522D01*
X136014995Y-102848878D01*
X135987352Y-102844500D01*
X135782648Y-102844500D01*
X135758329Y-102848351D01*
X135580465Y-102876522D01*
X135385776Y-102939781D01*
X135203386Y-103032715D01*
X135037786Y-103153028D01*
X134893028Y-103297786D01*
X134772715Y-103463386D01*
X134679781Y-103645776D01*
X134616522Y-103840465D01*
X134584500Y-104042648D01*
X134584500Y-104247351D01*
X134616522Y-104449534D01*
X134679781Y-104644223D01*
X134730433Y-104743631D01*
X134772585Y-104826359D01*
X134772715Y-104826613D01*
X134893028Y-104992213D01*
X134893034Y-104992219D01*
X135037781Y-105136966D01*
X135131452Y-105205021D01*
X135174117Y-105260350D01*
X135180096Y-105329963D01*
X135147491Y-105391759D01*
X135097571Y-105423045D01*
X135015666Y-105450186D01*
X135015663Y-105450187D01*
X134866342Y-105542289D01*
X134742289Y-105666342D01*
X134650187Y-105815663D01*
X134650186Y-105815666D01*
X134595001Y-105982203D01*
X134595001Y-105982204D01*
X134595000Y-105982204D01*
X134584500Y-106084983D01*
X134584500Y-107285001D01*
X134584501Y-107285018D01*
X134595000Y-107387796D01*
X134595001Y-107387799D01*
X134642856Y-107532213D01*
X134650186Y-107554334D01*
X134742288Y-107703656D01*
X134866344Y-107827712D01*
X135015666Y-107919814D01*
X135182203Y-107974999D01*
X135284991Y-107985500D01*
X136485008Y-107985499D01*
X136587797Y-107974999D01*
X136754334Y-107919814D01*
X136903656Y-107827712D01*
X137027712Y-107703656D01*
X137119814Y-107554334D01*
X137174999Y-107387797D01*
X137185500Y-107285009D01*
X137185499Y-106084992D01*
X137174999Y-105982203D01*
X137119814Y-105815666D01*
X137027712Y-105666344D01*
X136903656Y-105542288D01*
X136798178Y-105477229D01*
X136754336Y-105450187D01*
X136754335Y-105450186D01*
X136754334Y-105450186D01*
X136672427Y-105423044D01*
X136614984Y-105383272D01*
X136588161Y-105318756D01*
X136600476Y-105249980D01*
X136638547Y-105205021D01*
X136732219Y-105136966D01*
X136876966Y-104992219D01*
X136876968Y-104992215D01*
X136876971Y-104992213D01*
X136997284Y-104826614D01*
X136997285Y-104826613D01*
X136997287Y-104826610D01*
X137004911Y-104811646D01*
X137005687Y-104810824D01*
X137005916Y-104809716D01*
X137029601Y-104785503D01*
X137052884Y-104760851D01*
X137054243Y-104760312D01*
X137054775Y-104759770D01*
X137060020Y-104758027D01*
X137087706Y-104747072D01*
X137094563Y-104745501D01*
X137095427Y-104745501D01*
X137100518Y-104744136D01*
X137102726Y-104743631D01*
X137105400Y-104743792D01*
X137130416Y-104740500D01*
X137367903Y-104740500D01*
X137434942Y-104760185D01*
X137455584Y-104776819D01*
X143631584Y-110952819D01*
X143665069Y-111014142D01*
X143660085Y-111083834D01*
X143618213Y-111139767D01*
X143552749Y-111164184D01*
X143543903Y-111164500D01*
X137114602Y-111164500D01*
X137047563Y-111144815D01*
X137004117Y-111096795D01*
X136997284Y-111083385D01*
X136876971Y-110917786D01*
X136732213Y-110773028D01*
X136566613Y-110652715D01*
X136566612Y-110652714D01*
X136566610Y-110652713D01*
X136509653Y-110623691D01*
X136384223Y-110559781D01*
X136189534Y-110496522D01*
X136014995Y-110468878D01*
X135987352Y-110464500D01*
X135782648Y-110464500D01*
X135758329Y-110468351D01*
X135580465Y-110496522D01*
X135385776Y-110559781D01*
X135203386Y-110652715D01*
X135037786Y-110773028D01*
X134893028Y-110917786D01*
X134772715Y-111083386D01*
X134679781Y-111265776D01*
X134616522Y-111460465D01*
X134584500Y-111662648D01*
X134584500Y-111867351D01*
X134616522Y-112069534D01*
X134679781Y-112264223D01*
X134712782Y-112328989D01*
X134772585Y-112446359D01*
X134772715Y-112446613D01*
X134893028Y-112612213D01*
X134893034Y-112612219D01*
X135037781Y-112756966D01*
X135131452Y-112825021D01*
X135174117Y-112880350D01*
X135180096Y-112949963D01*
X135147491Y-113011759D01*
X135097571Y-113043045D01*
X135015666Y-113070186D01*
X135015663Y-113070187D01*
X134866342Y-113162289D01*
X134742289Y-113286342D01*
X134650187Y-113435663D01*
X134650185Y-113435668D01*
X134634233Y-113483808D01*
X134595001Y-113602203D01*
X134595001Y-113602204D01*
X134595000Y-113602204D01*
X134584500Y-113704983D01*
X134584500Y-114905001D01*
X134584501Y-114905007D01*
X134595000Y-115007796D01*
X134595001Y-115007799D01*
X134642856Y-115152213D01*
X134650186Y-115174334D01*
X134742288Y-115323656D01*
X134866344Y-115447712D01*
X135015666Y-115539814D01*
X135182203Y-115594999D01*
X135284991Y-115605500D01*
X136485008Y-115605499D01*
X136587797Y-115594999D01*
X136754334Y-115539814D01*
X136903656Y-115447712D01*
X137027712Y-115323656D01*
X137119814Y-115174334D01*
X137174999Y-115007797D01*
X137185500Y-114905009D01*
X137185499Y-113704992D01*
X137174999Y-113602203D01*
X137119814Y-113435666D01*
X137027712Y-113286344D01*
X136903656Y-113162288D01*
X136754334Y-113070186D01*
X136672427Y-113043044D01*
X136614984Y-113003272D01*
X136588161Y-112938756D01*
X136600476Y-112869980D01*
X136638547Y-112825021D01*
X136732219Y-112756966D01*
X136876966Y-112612219D01*
X136876968Y-112612215D01*
X136876971Y-112612213D01*
X136997284Y-112446614D01*
X136997285Y-112446613D01*
X136997287Y-112446610D01*
X137004117Y-112433204D01*
X137052091Y-112382409D01*
X137114602Y-112365500D01*
X143976903Y-112365500D01*
X144043942Y-112385185D01*
X144064584Y-112401819D01*
X146021701Y-114358936D01*
X146055186Y-114420259D01*
X146050202Y-114489951D01*
X146008330Y-114545884D01*
X145956945Y-114565855D01*
X145957434Y-114568311D01*
X145758171Y-114607947D01*
X145758163Y-114607949D01*
X145576089Y-114683367D01*
X145576079Y-114683372D01*
X145412219Y-114792860D01*
X145412215Y-114792863D01*
X142496899Y-117708181D01*
X142435576Y-117741666D01*
X142409218Y-117744500D01*
X134521455Y-117744500D01*
X134424812Y-117763724D01*
X134328167Y-117782947D01*
X134328161Y-117782949D01*
X134274834Y-117805037D01*
X134274834Y-117805038D01*
X134229315Y-117823892D01*
X134146089Y-117858366D01*
X134146079Y-117858371D01*
X133982219Y-117967859D01*
X133912540Y-118037538D01*
X133842861Y-118107218D01*
X133842858Y-118107221D01*
X130807221Y-121142858D01*
X130807218Y-121142861D01*
X130737538Y-121212540D01*
X130667859Y-121282219D01*
X130558371Y-121446080D01*
X130558364Y-121446093D01*
X130520863Y-121536632D01*
X130489625Y-121612048D01*
X130489624Y-121612052D01*
X130482948Y-121628167D01*
X130482947Y-121628171D01*
X130444500Y-121821454D01*
X130444500Y-121821459D01*
X130444500Y-132178541D01*
X130444500Y-132178543D01*
X130444499Y-132178543D01*
X130482947Y-132371829D01*
X130482950Y-132371839D01*
X130558364Y-132553907D01*
X130558371Y-132553920D01*
X130667860Y-132717781D01*
X130667863Y-132717785D01*
X130807214Y-132857136D01*
X130807218Y-132857139D01*
X130971079Y-132966628D01*
X130971092Y-132966635D01*
X131153160Y-133042049D01*
X131153165Y-133042051D01*
X131153169Y-133042051D01*
X131153170Y-133042052D01*
X131346456Y-133080500D01*
X131346459Y-133080500D01*
X131543543Y-133080500D01*
X131673582Y-133054632D01*
X131736835Y-133042051D01*
X131744782Y-133038759D01*
X131751775Y-133035863D01*
X131918907Y-132966635D01*
X131918907Y-132966634D01*
X131918914Y-132966632D01*
X132082782Y-132857139D01*
X132222139Y-132717782D01*
X132331632Y-132553914D01*
X132407051Y-132371835D01*
X132445500Y-132178541D01*
X132445500Y-122385782D01*
X132465185Y-122318743D01*
X132481819Y-122298101D01*
X133656013Y-121123907D01*
X134917656Y-119862263D01*
X134978977Y-119828780D01*
X135048669Y-119833764D01*
X135104602Y-119875636D01*
X135129019Y-119941100D01*
X135114167Y-120009373D01*
X135108437Y-120018836D01*
X135003374Y-120176074D01*
X135003364Y-120176092D01*
X134927950Y-120358160D01*
X134927947Y-120358170D01*
X134889500Y-120551456D01*
X134889500Y-120551459D01*
X134889500Y-120748541D01*
X134889500Y-120748543D01*
X134889499Y-120748543D01*
X134927947Y-120941829D01*
X134927950Y-120941839D01*
X135003364Y-121123907D01*
X135003371Y-121123920D01*
X135112860Y-121287781D01*
X135112863Y-121287785D01*
X135252214Y-121427136D01*
X135252218Y-121427139D01*
X135416079Y-121536628D01*
X135416092Y-121536635D01*
X135598158Y-121612048D01*
X135598165Y-121612051D01*
X135598169Y-121612051D01*
X135598170Y-121612052D01*
X135791456Y-121650500D01*
X135791459Y-121650500D01*
X148053543Y-121650500D01*
X148183582Y-121624632D01*
X148246835Y-121612051D01*
X148428914Y-121536632D01*
X148592782Y-121427139D01*
X148732139Y-121287782D01*
X148841632Y-121123914D01*
X148917051Y-120941835D01*
X148955500Y-120748541D01*
X148955500Y-120551459D01*
X148955500Y-120551456D01*
X148917052Y-120358170D01*
X148917051Y-120358169D01*
X148917051Y-120358165D01*
X148910274Y-120341804D01*
X148841635Y-120176092D01*
X148841628Y-120176079D01*
X148732139Y-120012218D01*
X148732136Y-120012214D01*
X148592785Y-119872863D01*
X148592781Y-119872860D01*
X148428920Y-119763371D01*
X148428907Y-119763364D01*
X148246839Y-119687950D01*
X148246829Y-119687947D01*
X148053543Y-119649500D01*
X148053541Y-119649500D01*
X143684783Y-119649500D01*
X143663539Y-119643262D01*
X143641452Y-119641683D01*
X143630666Y-119633609D01*
X143617744Y-119629815D01*
X143603246Y-119613083D01*
X143585518Y-119599813D01*
X143580809Y-119587190D01*
X143571989Y-119577011D01*
X143568837Y-119555095D01*
X143561099Y-119534349D01*
X143563962Y-119521185D01*
X143562045Y-119507853D01*
X143571242Y-119487712D01*
X143575949Y-119466076D01*
X143589219Y-119448348D01*
X143591070Y-119444297D01*
X143597100Y-119437821D01*
X143652139Y-119382782D01*
X143652141Y-119382778D01*
X146827139Y-116207781D01*
X146936631Y-116043914D01*
X147012051Y-115861836D01*
X147030252Y-115770331D01*
X147051689Y-115662566D01*
X147054332Y-115663091D01*
X147076079Y-115609115D01*
X147133081Y-115568711D01*
X147202878Y-115565538D01*
X147261063Y-115598298D01*
X149223181Y-117560416D01*
X149256666Y-117621739D01*
X149259500Y-117648097D01*
X149259500Y-125429902D01*
X149239815Y-125496941D01*
X149223181Y-125517583D01*
X144807481Y-129933282D01*
X144807480Y-129933284D01*
X144763477Y-130009500D01*
X144728423Y-130070215D01*
X144687499Y-130222943D01*
X144687499Y-130222945D01*
X144687499Y-130391046D01*
X144687500Y-130391059D01*
X144687500Y-131021302D01*
X144687499Y-131021320D01*
X144687499Y-131187026D01*
X144687498Y-131187026D01*
X144715316Y-131290844D01*
X144728423Y-131339757D01*
X144745640Y-131369577D01*
X144807480Y-131476688D01*
X144919284Y-131588492D01*
X144919285Y-131588493D01*
X145383312Y-132052520D01*
X145383314Y-132052521D01*
X145383318Y-132052524D01*
X145520237Y-132131573D01*
X145520244Y-132131577D01*
X145672971Y-132172501D01*
X145672973Y-132172501D01*
X145838682Y-132172501D01*
X145838698Y-132172500D01*
X146471331Y-132172500D01*
X146471347Y-132172501D01*
X146478943Y-132172501D01*
X146637054Y-132172501D01*
X146637057Y-132172501D01*
X146789785Y-132131577D01*
X146849663Y-132097006D01*
X146926716Y-132052520D01*
X147038520Y-131940716D01*
X147038520Y-131940714D01*
X147048725Y-131930510D01*
X147048727Y-131930506D01*
X147334664Y-131644571D01*
X147395986Y-131611088D01*
X147398153Y-131610637D01*
X147398842Y-131610500D01*
X147553497Y-131579737D01*
X147699179Y-131519394D01*
X147830289Y-131431789D01*
X147941789Y-131320289D01*
X148029394Y-131189179D01*
X148089737Y-131043497D01*
X148120500Y-130888842D01*
X148120500Y-130731158D01*
X148120500Y-130731155D01*
X148120499Y-130731153D01*
X148089738Y-130576510D01*
X148089737Y-130576503D01*
X148089735Y-130576498D01*
X148029397Y-130430827D01*
X148029390Y-130430814D01*
X147941789Y-130299711D01*
X147941786Y-130299707D01*
X147830292Y-130188213D01*
X147830288Y-130188210D01*
X147770527Y-130148279D01*
X147725722Y-130094667D01*
X147717015Y-130025342D01*
X147747169Y-129962315D01*
X147751718Y-129957515D01*
X150863713Y-126845521D01*
X150863716Y-126845520D01*
X150975520Y-126733716D01*
X151025639Y-126646904D01*
X151054577Y-126596785D01*
X151095500Y-126444058D01*
X151095500Y-126285943D01*
X151095500Y-116940889D01*
X151115185Y-116873850D01*
X151167989Y-116828095D01*
X151237147Y-116818151D01*
X151300703Y-116847176D01*
X151307181Y-116853208D01*
X154978490Y-120524517D01*
X155169566Y-120663343D01*
X155380008Y-120770568D01*
X155604631Y-120843553D01*
X155692109Y-120857408D01*
X155837903Y-120880500D01*
X155837908Y-120880500D01*
X156074097Y-120880500D01*
X156307368Y-120843553D01*
X156531992Y-120770568D01*
X156742433Y-120663343D01*
X156933510Y-120524517D01*
X157100517Y-120357510D01*
X157239343Y-120166433D01*
X157346568Y-119955992D01*
X157419553Y-119731368D01*
X157433758Y-119641683D01*
X157456500Y-119498097D01*
X157456500Y-119261902D01*
X157434700Y-119124263D01*
X157443655Y-119054969D01*
X157488651Y-119001517D01*
X157555402Y-118980878D01*
X157622716Y-118999603D01*
X157626036Y-119001745D01*
X157666951Y-119029084D01*
X157666953Y-119029085D01*
X157666955Y-119029086D01*
X157772636Y-119072860D01*
X157803533Y-119085658D01*
X157803537Y-119085658D01*
X157803538Y-119085659D01*
X157948525Y-119114500D01*
X157948528Y-119114500D01*
X157948529Y-119114500D01*
X158096363Y-119114500D01*
X175900209Y-119114500D01*
X175967248Y-119134185D01*
X176013003Y-119186989D01*
X176014770Y-119191048D01*
X176076191Y-119339336D01*
X176076199Y-119339352D01*
X176220420Y-119589148D01*
X176220431Y-119589164D01*
X176396024Y-119818002D01*
X176396030Y-119818009D01*
X176599990Y-120021969D01*
X176599996Y-120021974D01*
X176828844Y-120197575D01*
X176828851Y-120197579D01*
X177078647Y-120341800D01*
X177078663Y-120341808D01*
X177345139Y-120452185D01*
X177345145Y-120452186D01*
X177345155Y-120452191D01*
X177623783Y-120526849D01*
X177909772Y-120564500D01*
X177909779Y-120564500D01*
X178198221Y-120564500D01*
X178198228Y-120564500D01*
X178484217Y-120526849D01*
X178762845Y-120452191D01*
X178762857Y-120452185D01*
X178762860Y-120452185D01*
X179029336Y-120341808D01*
X179029339Y-120341806D01*
X179029345Y-120341804D01*
X179279156Y-120197575D01*
X179508004Y-120021974D01*
X179711974Y-119818004D01*
X179887575Y-119589156D01*
X180031804Y-119339345D01*
X180068605Y-119250500D01*
X180142185Y-119072860D01*
X180142185Y-119072857D01*
X180142191Y-119072845D01*
X180216849Y-118794217D01*
X180254500Y-118508228D01*
X180254500Y-118219772D01*
X180216849Y-117933783D01*
X180142191Y-117655155D01*
X180142186Y-117655145D01*
X180142185Y-117655139D01*
X180031808Y-117388663D01*
X180031800Y-117388647D01*
X179887579Y-117138851D01*
X179887575Y-117138844D01*
X179728016Y-116930902D01*
X179711975Y-116909997D01*
X179711969Y-116909990D01*
X179508009Y-116706030D01*
X179508002Y-116706024D01*
X179279164Y-116530431D01*
X179279162Y-116530429D01*
X179279156Y-116530425D01*
X179279151Y-116530422D01*
X179279148Y-116530420D01*
X179029352Y-116386199D01*
X179029336Y-116386191D01*
X178762860Y-116275814D01*
X178762848Y-116275810D01*
X178762845Y-116275809D01*
X178484217Y-116201151D01*
X178484211Y-116201150D01*
X178484206Y-116201149D01*
X178198238Y-116163501D01*
X178198233Y-116163500D01*
X178198228Y-116163500D01*
X177909772Y-116163500D01*
X177909766Y-116163500D01*
X177909761Y-116163501D01*
X177623793Y-116201149D01*
X177623786Y-116201150D01*
X177623783Y-116201151D01*
X177345155Y-116275809D01*
X177345139Y-116275814D01*
X177078663Y-116386191D01*
X177078647Y-116386199D01*
X176828851Y-116530420D01*
X176828835Y-116530431D01*
X176599997Y-116706024D01*
X176599990Y-116706030D01*
X176396030Y-116909990D01*
X176396024Y-116909997D01*
X176220431Y-117138835D01*
X176220420Y-117138851D01*
X176076199Y-117388647D01*
X176076191Y-117388663D01*
X176014770Y-117536952D01*
X175970930Y-117591356D01*
X175904636Y-117613421D01*
X175900209Y-117613500D01*
X158384676Y-117613500D01*
X158317637Y-117593815D01*
X158296995Y-117577181D01*
X139991495Y-99271681D01*
X139980882Y-99252244D01*
X139966382Y-99235511D01*
X139964465Y-99222179D01*
X139958010Y-99210358D01*
X139959589Y-99188271D01*
X139956438Y-99166353D01*
X139962033Y-99154101D01*
X139962994Y-99140666D01*
X139976264Y-99122939D01*
X139985463Y-99102797D01*
X139996794Y-99095514D01*
X140004866Y-99084733D01*
X140025611Y-99076995D01*
X140044241Y-99065023D01*
X140066159Y-99061871D01*
X140070330Y-99060316D01*
X140079176Y-99060000D01*
X140111270Y-99060000D01*
X140178309Y-99079685D01*
X140198951Y-99096319D01*
X146644921Y-105542288D01*
X153087048Y-111984415D01*
X153087049Y-111984416D01*
X153172050Y-112069417D01*
X153191585Y-112088952D01*
X153314498Y-112171080D01*
X153314511Y-112171087D01*
X153451082Y-112227656D01*
X153451087Y-112227658D01*
X153451091Y-112227658D01*
X153451092Y-112227659D01*
X153596079Y-112256500D01*
X153596082Y-112256500D01*
X175900209Y-112256500D01*
X175967248Y-112276185D01*
X176013003Y-112328989D01*
X176014770Y-112333048D01*
X176076191Y-112481336D01*
X176076199Y-112481352D01*
X176220420Y-112731148D01*
X176220431Y-112731164D01*
X176396024Y-112960002D01*
X176396030Y-112960009D01*
X176599990Y-113163969D01*
X176599996Y-113163974D01*
X176828844Y-113339575D01*
X176828851Y-113339579D01*
X177078647Y-113483800D01*
X177078663Y-113483808D01*
X177345139Y-113594185D01*
X177345145Y-113594186D01*
X177345155Y-113594191D01*
X177623783Y-113668849D01*
X177909772Y-113706500D01*
X177909779Y-113706500D01*
X178198221Y-113706500D01*
X178198228Y-113706500D01*
X178484217Y-113668849D01*
X178762845Y-113594191D01*
X178762857Y-113594185D01*
X178762860Y-113594185D01*
X179029336Y-113483808D01*
X179029339Y-113483806D01*
X179029345Y-113483804D01*
X179279156Y-113339575D01*
X179508004Y-113163974D01*
X179711974Y-112960004D01*
X179887575Y-112731156D01*
X180031804Y-112481345D01*
X180046191Y-112446613D01*
X180142185Y-112214860D01*
X180142185Y-112214857D01*
X180142191Y-112214845D01*
X180216849Y-111936217D01*
X180254500Y-111650228D01*
X180254500Y-111361772D01*
X180216849Y-111075783D01*
X180142191Y-110797155D01*
X180142186Y-110797145D01*
X180142185Y-110797139D01*
X180031808Y-110530663D01*
X180031800Y-110530647D01*
X179887579Y-110280851D01*
X179887575Y-110280844D01*
X179711974Y-110051996D01*
X179711969Y-110051990D01*
X179508009Y-109848030D01*
X179508002Y-109848024D01*
X179279164Y-109672431D01*
X179279162Y-109672429D01*
X179279156Y-109672425D01*
X179279151Y-109672422D01*
X179279148Y-109672420D01*
X179029352Y-109528199D01*
X179029336Y-109528191D01*
X178762860Y-109417814D01*
X178762848Y-109417810D01*
X178762845Y-109417809D01*
X178484217Y-109343151D01*
X178484211Y-109343150D01*
X178484206Y-109343149D01*
X178198238Y-109305501D01*
X178198233Y-109305500D01*
X178198228Y-109305500D01*
X177909772Y-109305500D01*
X177909766Y-109305500D01*
X177909761Y-109305501D01*
X177623793Y-109343149D01*
X177623786Y-109343150D01*
X177623783Y-109343151D01*
X177345155Y-109417809D01*
X177345139Y-109417814D01*
X177078663Y-109528191D01*
X177078647Y-109528199D01*
X176828851Y-109672420D01*
X176828835Y-109672431D01*
X176599997Y-109848024D01*
X176599990Y-109848030D01*
X176396030Y-110051990D01*
X176396024Y-110051997D01*
X176220431Y-110280835D01*
X176220420Y-110280851D01*
X176076199Y-110530647D01*
X176076191Y-110530663D01*
X176014770Y-110678952D01*
X175970930Y-110733356D01*
X175904636Y-110755421D01*
X175900209Y-110755500D01*
X154032229Y-110755500D01*
X153965190Y-110735815D01*
X153944548Y-110719181D01*
X149635655Y-106410288D01*
X147222183Y-103996816D01*
X142497049Y-99271681D01*
X142463564Y-99210358D01*
X142468548Y-99140666D01*
X142510420Y-99084733D01*
X142575884Y-99060316D01*
X142584730Y-99060000D01*
X154257417Y-99060000D01*
X154324456Y-99079685D01*
X154340368Y-99091831D01*
X154540201Y-99271681D01*
X160654999Y-104775000D01*
X160655000Y-104775000D01*
X175742991Y-104775000D01*
X175810030Y-104794685D01*
X175855785Y-104847489D01*
X175865930Y-104882814D01*
X175891643Y-105078118D01*
X175966283Y-105356682D01*
X176076644Y-105623116D01*
X176076648Y-105623126D01*
X176220838Y-105872872D01*
X176331438Y-106017007D01*
X177245497Y-105102947D01*
X177335505Y-105237653D01*
X177464347Y-105366495D01*
X177599050Y-105456501D01*
X176684991Y-106370560D01*
X176829128Y-106481161D01*
X177078873Y-106625351D01*
X177078883Y-106625355D01*
X177345317Y-106735716D01*
X177623881Y-106810356D01*
X177909796Y-106847999D01*
X177909811Y-106848000D01*
X178198189Y-106848000D01*
X178198203Y-106847999D01*
X178484118Y-106810356D01*
X178762682Y-106735716D01*
X179029116Y-106625355D01*
X179029126Y-106625351D01*
X179278870Y-106481161D01*
X179278887Y-106481150D01*
X179423007Y-106370561D01*
X179423007Y-106370559D01*
X178508948Y-105456501D01*
X178643653Y-105366495D01*
X178772495Y-105237653D01*
X178862501Y-105102948D01*
X179776559Y-106017007D01*
X179776561Y-106017007D01*
X179887150Y-105872887D01*
X179887161Y-105872870D01*
X180031351Y-105623126D01*
X180031355Y-105623116D01*
X180141716Y-105356682D01*
X180216356Y-105078118D01*
X180242070Y-104882814D01*
X180270337Y-104818918D01*
X180328661Y-104780447D01*
X180365009Y-104775000D01*
X182881500Y-104775000D01*
X182948539Y-104794685D01*
X182994294Y-104847489D01*
X183005500Y-104899000D01*
X183005500Y-138435800D01*
X182985815Y-138502839D01*
X182933011Y-138548594D01*
X182881500Y-138559800D01*
X89845700Y-138559800D01*
X89778661Y-138540115D01*
X89732906Y-138487311D01*
X89721700Y-138435800D01*
X89721700Y-133153471D01*
X90859500Y-133153471D01*
X90859500Y-133546528D01*
X90898026Y-133937702D01*
X90974704Y-134323194D01*
X90974707Y-134323205D01*
X91088810Y-134699354D01*
X91239230Y-135062499D01*
X91239232Y-135062504D01*
X91424511Y-135409137D01*
X91424522Y-135409155D01*
X91642887Y-135735960D01*
X91642897Y-135735974D01*
X91892254Y-136039817D01*
X92170182Y-136317745D01*
X92170187Y-136317749D01*
X92170188Y-136317750D01*
X92474031Y-136567107D01*
X92800851Y-136785482D01*
X92800860Y-136785487D01*
X92800862Y-136785488D01*
X93147495Y-136970767D01*
X93147497Y-136970767D01*
X93147503Y-136970771D01*
X93510647Y-137121190D01*
X93886785Y-137235290D01*
X93886791Y-137235291D01*
X93886794Y-137235292D01*
X93886805Y-137235295D01*
X94272297Y-137311973D01*
X94663468Y-137350500D01*
X94663471Y-137350500D01*
X95056529Y-137350500D01*
X95056532Y-137350500D01*
X95447703Y-137311973D01*
X95522748Y-137297045D01*
X95833194Y-137235295D01*
X95833205Y-137235292D01*
X95833205Y-137235291D01*
X95833215Y-137235290D01*
X96209353Y-137121190D01*
X96572497Y-136970771D01*
X96919149Y-136785482D01*
X97245969Y-136567107D01*
X97549812Y-136317750D01*
X97827750Y-136039812D01*
X98077107Y-135735969D01*
X98295482Y-135409149D01*
X98480771Y-135062497D01*
X98631190Y-134699353D01*
X98745290Y-134323215D01*
X98745292Y-134323205D01*
X98745295Y-134323194D01*
X98821973Y-133937702D01*
X98860500Y-133546528D01*
X98860500Y-133153471D01*
X173799500Y-133153471D01*
X173799500Y-133546528D01*
X173838026Y-133937702D01*
X173914704Y-134323194D01*
X173914707Y-134323205D01*
X174028810Y-134699354D01*
X174179230Y-135062499D01*
X174179232Y-135062504D01*
X174364511Y-135409137D01*
X174364522Y-135409155D01*
X174582887Y-135735960D01*
X174582897Y-135735974D01*
X174832254Y-136039817D01*
X175110182Y-136317745D01*
X175110187Y-136317749D01*
X175110188Y-136317750D01*
X175414031Y-136567107D01*
X175740851Y-136785482D01*
X175740860Y-136785487D01*
X175740862Y-136785488D01*
X176087495Y-136970767D01*
X176087497Y-136970767D01*
X176087503Y-136970771D01*
X176450647Y-137121190D01*
X176826785Y-137235290D01*
X176826791Y-137235291D01*
X176826794Y-137235292D01*
X176826805Y-137235295D01*
X177212297Y-137311973D01*
X177603468Y-137350500D01*
X177603471Y-137350500D01*
X177996529Y-137350500D01*
X177996532Y-137350500D01*
X178387703Y-137311973D01*
X178462748Y-137297045D01*
X178773194Y-137235295D01*
X178773205Y-137235292D01*
X178773205Y-137235291D01*
X178773215Y-137235290D01*
X179149353Y-137121190D01*
X179512497Y-136970771D01*
X179859149Y-136785482D01*
X180185969Y-136567107D01*
X180489812Y-136317750D01*
X180767750Y-136039812D01*
X181017107Y-135735969D01*
X181235482Y-135409149D01*
X181420771Y-135062497D01*
X181571190Y-134699353D01*
X181685290Y-134323215D01*
X181685292Y-134323205D01*
X181685295Y-134323194D01*
X181761973Y-133937702D01*
X181800500Y-133546528D01*
X181800500Y-133153471D01*
X181782098Y-132966635D01*
X181761973Y-132762297D01*
X181753119Y-132717785D01*
X181685295Y-132376805D01*
X181685292Y-132376794D01*
X181685291Y-132376791D01*
X181685290Y-132376785D01*
X181571190Y-132000647D01*
X181420771Y-131637503D01*
X181389894Y-131579737D01*
X181235488Y-131290862D01*
X181235487Y-131290860D01*
X181235482Y-131290851D01*
X181017107Y-130964031D01*
X180767750Y-130660188D01*
X180767749Y-130660187D01*
X180767745Y-130660182D01*
X180489817Y-130382254D01*
X180185974Y-130132897D01*
X180185973Y-130132896D01*
X180185969Y-130132893D01*
X179859149Y-129914518D01*
X179859144Y-129914515D01*
X179859137Y-129914511D01*
X179512504Y-129729232D01*
X179512499Y-129729230D01*
X179149354Y-129578810D01*
X178773205Y-129464707D01*
X178773194Y-129464704D01*
X178387702Y-129388026D01*
X178093089Y-129359010D01*
X177996532Y-129349500D01*
X177603468Y-129349500D01*
X177514251Y-129358287D01*
X177212297Y-129388026D01*
X176826805Y-129464704D01*
X176826794Y-129464707D01*
X176450645Y-129578810D01*
X176087500Y-129729230D01*
X176087495Y-129729232D01*
X175740862Y-129914511D01*
X175740844Y-129914522D01*
X175414039Y-130132887D01*
X175414025Y-130132897D01*
X175110182Y-130382254D01*
X174832254Y-130660182D01*
X174582897Y-130964025D01*
X174582887Y-130964039D01*
X174364522Y-131290844D01*
X174364511Y-131290862D01*
X174179232Y-131637495D01*
X174179230Y-131637500D01*
X174028810Y-132000645D01*
X173914707Y-132376794D01*
X173914704Y-132376805D01*
X173838026Y-132762297D01*
X173799500Y-133153471D01*
X98860500Y-133153471D01*
X98842098Y-132966635D01*
X98821973Y-132762297D01*
X98813119Y-132717785D01*
X98745295Y-132376805D01*
X98745292Y-132376794D01*
X98745291Y-132376791D01*
X98745290Y-132376785D01*
X98631190Y-132000647D01*
X98480771Y-131637503D01*
X98449894Y-131579737D01*
X98295488Y-131290862D01*
X98295487Y-131290860D01*
X98295482Y-131290851D01*
X98077107Y-130964031D01*
X97827750Y-130660188D01*
X97827749Y-130660187D01*
X97827745Y-130660182D01*
X97549817Y-130382254D01*
X97245974Y-130132897D01*
X97245973Y-130132896D01*
X97245969Y-130132893D01*
X96919149Y-129914518D01*
X96919144Y-129914515D01*
X96919137Y-129914511D01*
X96572504Y-129729232D01*
X96572499Y-129729230D01*
X96209354Y-129578810D01*
X95833205Y-129464707D01*
X95833194Y-129464704D01*
X95447702Y-129388026D01*
X95153089Y-129359010D01*
X95056532Y-129349500D01*
X94663468Y-129349500D01*
X94574251Y-129358287D01*
X94272297Y-129388026D01*
X93886805Y-129464704D01*
X93886794Y-129464707D01*
X93510645Y-129578810D01*
X93147500Y-129729230D01*
X93147495Y-129729232D01*
X92800862Y-129914511D01*
X92800844Y-129914522D01*
X92474039Y-130132887D01*
X92474025Y-130132897D01*
X92170182Y-130382254D01*
X91892254Y-130660182D01*
X91642897Y-130964025D01*
X91642887Y-130964039D01*
X91424522Y-131290844D01*
X91424511Y-131290862D01*
X91239232Y-131637495D01*
X91239230Y-131637500D01*
X91088810Y-132000645D01*
X90974707Y-132376794D01*
X90974704Y-132376805D01*
X90898026Y-132762297D01*
X90859500Y-133153471D01*
X89721700Y-133153471D01*
X89721700Y-117901577D01*
X96529500Y-117901577D01*
X96529500Y-118098422D01*
X96560290Y-118292826D01*
X96621117Y-118480029D01*
X96710341Y-118655141D01*
X96710476Y-118655405D01*
X96826172Y-118814646D01*
X96965354Y-118953828D01*
X97124595Y-119069524D01*
X97207455Y-119111743D01*
X97299970Y-119158882D01*
X97299972Y-119158882D01*
X97299975Y-119158884D01*
X97386473Y-119186989D01*
X97487173Y-119219709D01*
X97681578Y-119250500D01*
X97681583Y-119250500D01*
X97878422Y-119250500D01*
X98072826Y-119219709D01*
X98074328Y-119219221D01*
X98260025Y-119158884D01*
X98435405Y-119069524D01*
X98594646Y-118953828D01*
X98733828Y-118814646D01*
X98849524Y-118655405D01*
X98938884Y-118480025D01*
X98939515Y-118478787D01*
X98987489Y-118427990D01*
X99055310Y-118411195D01*
X99121445Y-118433732D01*
X99160485Y-118478787D01*
X99250474Y-118655403D01*
X99275702Y-118690125D01*
X99366172Y-118814646D01*
X99505354Y-118953828D01*
X99664595Y-119069524D01*
X99747455Y-119111743D01*
X99839970Y-119158882D01*
X99839972Y-119158882D01*
X99839975Y-119158884D01*
X99926473Y-119186989D01*
X100027173Y-119219709D01*
X100221578Y-119250500D01*
X100221583Y-119250500D01*
X100418422Y-119250500D01*
X100612826Y-119219709D01*
X100614328Y-119219221D01*
X100800025Y-119158884D01*
X100975405Y-119069524D01*
X101134646Y-118953828D01*
X101273828Y-118814646D01*
X101389524Y-118655405D01*
X101478884Y-118480025D01*
X101479515Y-118478787D01*
X101527489Y-118427990D01*
X101595310Y-118411195D01*
X101661445Y-118433732D01*
X101700485Y-118478787D01*
X101790474Y-118655403D01*
X101815702Y-118690125D01*
X101906172Y-118814646D01*
X102045354Y-118953828D01*
X102204595Y-119069524D01*
X102287455Y-119111743D01*
X102379970Y-119158882D01*
X102379972Y-119158882D01*
X102379975Y-119158884D01*
X102466473Y-119186989D01*
X102567173Y-119219709D01*
X102761578Y-119250500D01*
X102761583Y-119250500D01*
X102958422Y-119250500D01*
X103152826Y-119219709D01*
X103154328Y-119219221D01*
X103340025Y-119158884D01*
X103515405Y-119069524D01*
X103674646Y-118953828D01*
X103813828Y-118814646D01*
X103929524Y-118655405D01*
X104018884Y-118480025D01*
X104019515Y-118478787D01*
X104067489Y-118427990D01*
X104135310Y-118411195D01*
X104201445Y-118433732D01*
X104240485Y-118478787D01*
X104330474Y-118655403D01*
X104355702Y-118690125D01*
X104446172Y-118814646D01*
X104585354Y-118953828D01*
X104744595Y-119069524D01*
X104827455Y-119111743D01*
X104919970Y-119158882D01*
X104919972Y-119158882D01*
X104919975Y-119158884D01*
X105006473Y-119186989D01*
X105107173Y-119219709D01*
X105301578Y-119250500D01*
X105301583Y-119250500D01*
X105498422Y-119250500D01*
X105692826Y-119219709D01*
X105694328Y-119219221D01*
X105880025Y-119158884D01*
X106055405Y-119069524D01*
X106214646Y-118953828D01*
X106353828Y-118814646D01*
X106469524Y-118655405D01*
X106558884Y-118480025D01*
X106559515Y-118478787D01*
X106607489Y-118427990D01*
X106675310Y-118411195D01*
X106741445Y-118433732D01*
X106780485Y-118478787D01*
X106870474Y-118655403D01*
X106895702Y-118690125D01*
X106986172Y-118814646D01*
X107125354Y-118953828D01*
X107284595Y-119069524D01*
X107367455Y-119111743D01*
X107459970Y-119158882D01*
X107459972Y-119158882D01*
X107459975Y-119158884D01*
X107546473Y-119186989D01*
X107647173Y-119219709D01*
X107841578Y-119250500D01*
X107841583Y-119250500D01*
X108038422Y-119250500D01*
X108232826Y-119219709D01*
X108234328Y-119219221D01*
X108420025Y-119158884D01*
X108595405Y-119069524D01*
X108754646Y-118953828D01*
X108893828Y-118814646D01*
X109009524Y-118655405D01*
X109098884Y-118480025D01*
X109099515Y-118478787D01*
X109147489Y-118427990D01*
X109215310Y-118411195D01*
X109281445Y-118433732D01*
X109320485Y-118478787D01*
X109410474Y-118655403D01*
X109435702Y-118690125D01*
X109526172Y-118814646D01*
X109665354Y-118953828D01*
X109824595Y-119069524D01*
X109907455Y-119111743D01*
X109999970Y-119158882D01*
X109999972Y-119158882D01*
X109999975Y-119158884D01*
X110086473Y-119186989D01*
X110187173Y-119219709D01*
X110381578Y-119250500D01*
X110381583Y-119250500D01*
X110578422Y-119250500D01*
X110772826Y-119219709D01*
X110774328Y-119219221D01*
X110960025Y-119158884D01*
X111135405Y-119069524D01*
X111294646Y-118953828D01*
X111433828Y-118814646D01*
X111549524Y-118655405D01*
X111638884Y-118480025D01*
X111638884Y-118480022D01*
X111639795Y-118478236D01*
X111687769Y-118427440D01*
X111755590Y-118410644D01*
X111821725Y-118433181D01*
X111860765Y-118478235D01*
X111950905Y-118655145D01*
X111976319Y-118690125D01*
X111976320Y-118690125D01*
X112598274Y-118068171D01*
X112623963Y-118164044D01*
X112679916Y-118260956D01*
X112759044Y-118340084D01*
X112855956Y-118396037D01*
X112951827Y-118421725D01*
X112329873Y-119043677D01*
X112329873Y-119043678D01*
X112364858Y-119069096D01*
X112540164Y-119158418D01*
X112727294Y-119219221D01*
X112921618Y-119250000D01*
X113118382Y-119250000D01*
X113312705Y-119219221D01*
X113499835Y-119158418D01*
X113675143Y-119069095D01*
X113710125Y-119043678D01*
X113710126Y-119043678D01*
X113088173Y-118421725D01*
X113184044Y-118396037D01*
X113280956Y-118340084D01*
X113360084Y-118260956D01*
X113416037Y-118164044D01*
X113441725Y-118068173D01*
X114063678Y-118690126D01*
X114063678Y-118690125D01*
X114089097Y-118655141D01*
X114179234Y-118478236D01*
X114227208Y-118427439D01*
X114295029Y-118410644D01*
X114361164Y-118433181D01*
X114400204Y-118478235D01*
X114401115Y-118480024D01*
X114401116Y-118480025D01*
X114490476Y-118655405D01*
X114606172Y-118814646D01*
X114745354Y-118953828D01*
X114904595Y-119069524D01*
X114987455Y-119111743D01*
X115079970Y-119158882D01*
X115079972Y-119158882D01*
X115079975Y-119158884D01*
X115166473Y-119186989D01*
X115267173Y-119219709D01*
X115461578Y-119250500D01*
X115461583Y-119250500D01*
X115658422Y-119250500D01*
X115852826Y-119219709D01*
X115854328Y-119219221D01*
X116040025Y-119158884D01*
X116215405Y-119069524D01*
X116374646Y-118953828D01*
X116513828Y-118814646D01*
X116629524Y-118655405D01*
X116718884Y-118480025D01*
X116779709Y-118292826D01*
X116791279Y-118219778D01*
X116810500Y-118098422D01*
X116810500Y-117901577D01*
X116779709Y-117707173D01*
X116749247Y-117613421D01*
X116718884Y-117519975D01*
X116718882Y-117519972D01*
X116718882Y-117519970D01*
X116671743Y-117427455D01*
X116629524Y-117344595D01*
X116513828Y-117185354D01*
X116374646Y-117046172D01*
X116215405Y-116930476D01*
X116040029Y-116841117D01*
X115852826Y-116780290D01*
X115658422Y-116749500D01*
X115658417Y-116749500D01*
X115461583Y-116749500D01*
X115461578Y-116749500D01*
X115267173Y-116780290D01*
X115079970Y-116841117D01*
X114904594Y-116930476D01*
X114813741Y-116996485D01*
X114745354Y-117046172D01*
X114745352Y-117046174D01*
X114745351Y-117046174D01*
X114606174Y-117185351D01*
X114606174Y-117185352D01*
X114606172Y-117185354D01*
X114556485Y-117253741D01*
X114490476Y-117344594D01*
X114400204Y-117521764D01*
X114352229Y-117572560D01*
X114284408Y-117589355D01*
X114218274Y-117566818D01*
X114179234Y-117521764D01*
X114089096Y-117344858D01*
X114063678Y-117309873D01*
X114063677Y-117309873D01*
X113441725Y-117931826D01*
X113416037Y-117835956D01*
X113360084Y-117739044D01*
X113280956Y-117659916D01*
X113184044Y-117603963D01*
X113088172Y-117578274D01*
X113710125Y-116956320D01*
X113710125Y-116956319D01*
X113675145Y-116930905D01*
X113499835Y-116841581D01*
X113312705Y-116780778D01*
X113118382Y-116750000D01*
X112921618Y-116750000D01*
X112727294Y-116780778D01*
X112540161Y-116841582D01*
X112364863Y-116930899D01*
X112364859Y-116930902D01*
X112329873Y-116956320D01*
X112329872Y-116956320D01*
X112951828Y-117578274D01*
X112855956Y-117603963D01*
X112759044Y-117659916D01*
X112679916Y-117739044D01*
X112623963Y-117835956D01*
X112598274Y-117931827D01*
X111976320Y-117309872D01*
X111976320Y-117309873D01*
X111950902Y-117344859D01*
X111860765Y-117521764D01*
X111812790Y-117572560D01*
X111744969Y-117589355D01*
X111678835Y-117566818D01*
X111639795Y-117521763D01*
X111549525Y-117344596D01*
X111524296Y-117309872D01*
X111433828Y-117185354D01*
X111294646Y-117046172D01*
X111135405Y-116930476D01*
X110960029Y-116841117D01*
X110772826Y-116780290D01*
X110578422Y-116749500D01*
X110578417Y-116749500D01*
X110381583Y-116749500D01*
X110381578Y-116749500D01*
X110187173Y-116780290D01*
X109999970Y-116841117D01*
X109824594Y-116930476D01*
X109733741Y-116996485D01*
X109665354Y-117046172D01*
X109665352Y-117046174D01*
X109665351Y-117046174D01*
X109526174Y-117185351D01*
X109526174Y-117185352D01*
X109526172Y-117185354D01*
X109476485Y-117253741D01*
X109410476Y-117344594D01*
X109320485Y-117521213D01*
X109272511Y-117572009D01*
X109204690Y-117588804D01*
X109138555Y-117566267D01*
X109099515Y-117521213D01*
X109072397Y-117467992D01*
X109009524Y-117344595D01*
X108893828Y-117185354D01*
X108754646Y-117046172D01*
X108595405Y-116930476D01*
X108420029Y-116841117D01*
X108232826Y-116780290D01*
X108038422Y-116749500D01*
X108038417Y-116749500D01*
X107841583Y-116749500D01*
X107841578Y-116749500D01*
X107647173Y-116780290D01*
X107459970Y-116841117D01*
X107284594Y-116930476D01*
X107193741Y-116996485D01*
X107125354Y-117046172D01*
X107125352Y-117046174D01*
X107125351Y-117046174D01*
X106986174Y-117185351D01*
X106986174Y-117185352D01*
X106986172Y-117185354D01*
X106936485Y-117253741D01*
X106870476Y-117344594D01*
X106780485Y-117521213D01*
X106732511Y-117572009D01*
X106664690Y-117588804D01*
X106598555Y-117566267D01*
X106559515Y-117521213D01*
X106532397Y-117467992D01*
X106469524Y-117344595D01*
X106353828Y-117185354D01*
X106214646Y-117046172D01*
X106055405Y-116930476D01*
X105880029Y-116841117D01*
X105692826Y-116780290D01*
X105498422Y-116749500D01*
X105498417Y-116749500D01*
X105301583Y-116749500D01*
X105301578Y-116749500D01*
X105107173Y-116780290D01*
X104919970Y-116841117D01*
X104744594Y-116930476D01*
X104653741Y-116996485D01*
X104585354Y-117046172D01*
X104585352Y-117046174D01*
X104585351Y-117046174D01*
X104446174Y-117185351D01*
X104446174Y-117185352D01*
X104446172Y-117185354D01*
X104396485Y-117253741D01*
X104330476Y-117344594D01*
X104240485Y-117521213D01*
X104192511Y-117572009D01*
X104124690Y-117588804D01*
X104058555Y-117566267D01*
X104019515Y-117521213D01*
X103992397Y-117467992D01*
X103929524Y-117344595D01*
X103813828Y-117185354D01*
X103674646Y-117046172D01*
X103515405Y-116930476D01*
X103340029Y-116841117D01*
X103152826Y-116780290D01*
X102958422Y-116749500D01*
X102958417Y-116749500D01*
X102761583Y-116749500D01*
X102761578Y-116749500D01*
X102567173Y-116780290D01*
X102379970Y-116841117D01*
X102204594Y-116930476D01*
X102113741Y-116996485D01*
X102045354Y-117046172D01*
X102045352Y-117046174D01*
X102045351Y-117046174D01*
X101906174Y-117185351D01*
X101906174Y-117185352D01*
X101906172Y-117185354D01*
X101856485Y-117253741D01*
X101790476Y-117344594D01*
X101700485Y-117521213D01*
X101652511Y-117572009D01*
X101584690Y-117588804D01*
X101518555Y-117566267D01*
X101479515Y-117521213D01*
X101452397Y-117467992D01*
X101389524Y-117344595D01*
X101273828Y-117185354D01*
X101134646Y-117046172D01*
X100975405Y-116930476D01*
X100800029Y-116841117D01*
X100612826Y-116780290D01*
X100418422Y-116749500D01*
X100418417Y-116749500D01*
X100221583Y-116749500D01*
X100221578Y-116749500D01*
X100027173Y-116780290D01*
X99839970Y-116841117D01*
X99664594Y-116930476D01*
X99573741Y-116996485D01*
X99505354Y-117046172D01*
X99505352Y-117046174D01*
X99505351Y-117046174D01*
X99366174Y-117185351D01*
X99366174Y-117185352D01*
X99366172Y-117185354D01*
X99316485Y-117253741D01*
X99250476Y-117344594D01*
X99160485Y-117521213D01*
X99112511Y-117572009D01*
X99044690Y-117588804D01*
X98978555Y-117566267D01*
X98939515Y-117521213D01*
X98912397Y-117467992D01*
X98849524Y-117344595D01*
X98733828Y-117185354D01*
X98594646Y-117046172D01*
X98435405Y-116930476D01*
X98260029Y-116841117D01*
X98072826Y-116780290D01*
X97878422Y-116749500D01*
X97878417Y-116749500D01*
X97681583Y-116749500D01*
X97681578Y-116749500D01*
X97487173Y-116780290D01*
X97299970Y-116841117D01*
X97124594Y-116930476D01*
X97033741Y-116996485D01*
X96965354Y-117046172D01*
X96965352Y-117046174D01*
X96965351Y-117046174D01*
X96826174Y-117185351D01*
X96826174Y-117185352D01*
X96826172Y-117185354D01*
X96776485Y-117253741D01*
X96710476Y-117344594D01*
X96621117Y-117519970D01*
X96560290Y-117707173D01*
X96529500Y-117901577D01*
X89721700Y-117901577D01*
X89721700Y-80645000D01*
X95014210Y-80645000D01*
X95049768Y-80714788D01*
X95151586Y-80854928D01*
X95274072Y-80977414D01*
X95274078Y-80977418D01*
X95357023Y-81037683D01*
X95399689Y-81093013D01*
X95405667Y-81162626D01*
X95373061Y-81224421D01*
X95357023Y-81238317D01*
X95274078Y-81298581D01*
X95274069Y-81298588D01*
X95151588Y-81421069D01*
X95151588Y-81421070D01*
X95151586Y-81421072D01*
X95143702Y-81431924D01*
X95049768Y-81561211D01*
X94971128Y-81715552D01*
X94917597Y-81880302D01*
X94890500Y-82051389D01*
X94890500Y-82224610D01*
X94916416Y-82388243D01*
X94917598Y-82395701D01*
X94971127Y-82560445D01*
X95049768Y-82714788D01*
X95151586Y-82854928D01*
X95274072Y-82977414D01*
X95274078Y-82977418D01*
X95357023Y-83037683D01*
X95399689Y-83093013D01*
X95405667Y-83162626D01*
X95373061Y-83224421D01*
X95357023Y-83238317D01*
X95274078Y-83298581D01*
X95274069Y-83298588D01*
X95151588Y-83421069D01*
X95151588Y-83421070D01*
X95151586Y-83421072D01*
X95141069Y-83435548D01*
X95049768Y-83561211D01*
X94971128Y-83715552D01*
X94917597Y-83880302D01*
X94890500Y-84051389D01*
X94890500Y-84224611D01*
X94917598Y-84395701D01*
X94971127Y-84560445D01*
X95049768Y-84714788D01*
X95151586Y-84854928D01*
X95274072Y-84977414D01*
X95274078Y-84977418D01*
X95357023Y-85037683D01*
X95399689Y-85093013D01*
X95405667Y-85162626D01*
X95373061Y-85224421D01*
X95357023Y-85238317D01*
X95274078Y-85298581D01*
X95274069Y-85298588D01*
X95151588Y-85421069D01*
X95151588Y-85421070D01*
X95151586Y-85421072D01*
X95107859Y-85481256D01*
X95049768Y-85561211D01*
X94971128Y-85715552D01*
X94917597Y-85880302D01*
X94890500Y-86051389D01*
X94890500Y-86224610D01*
X94916756Y-86390388D01*
X94917598Y-86395701D01*
X94971127Y-86560445D01*
X95049768Y-86714788D01*
X95151586Y-86854928D01*
X95274072Y-86977414D01*
X95274078Y-86977418D01*
X95357023Y-87037683D01*
X95399689Y-87093013D01*
X95405667Y-87162626D01*
X95373061Y-87224421D01*
X95357023Y-87238317D01*
X95274078Y-87298581D01*
X95274069Y-87298588D01*
X95151588Y-87421069D01*
X95151588Y-87421070D01*
X95151586Y-87421072D01*
X95108965Y-87479734D01*
X95049768Y-87561211D01*
X94971128Y-87715552D01*
X94917597Y-87880302D01*
X94909902Y-87928887D01*
X94890500Y-88051389D01*
X94890500Y-88224611D01*
X94917598Y-88395701D01*
X94971127Y-88560445D01*
X95049768Y-88714788D01*
X95151586Y-88854928D01*
X95274072Y-88977414D01*
X95414212Y-89079232D01*
X95568555Y-89157873D01*
X95733299Y-89211402D01*
X95904389Y-89238500D01*
X95904390Y-89238500D01*
X96627610Y-89238500D01*
X96627611Y-89238500D01*
X96798701Y-89211402D01*
X96963445Y-89157873D01*
X97117788Y-89079232D01*
X97257928Y-88977414D01*
X97380414Y-88854928D01*
X97482232Y-88714788D01*
X97560873Y-88560445D01*
X97614402Y-88395701D01*
X97641500Y-88224611D01*
X97641500Y-88051389D01*
X97614402Y-87880299D01*
X97560873Y-87715555D01*
X97482232Y-87561212D01*
X97380414Y-87421072D01*
X97257928Y-87298586D01*
X97174975Y-87238317D01*
X97132311Y-87182988D01*
X97126332Y-87113374D01*
X97158938Y-87051579D01*
X97174976Y-87037682D01*
X97257928Y-86977414D01*
X97380414Y-86854928D01*
X97482232Y-86714788D01*
X97560873Y-86560445D01*
X97614402Y-86395701D01*
X97641500Y-86224611D01*
X97641500Y-86129308D01*
X97661185Y-86062269D01*
X97713989Y-86016514D01*
X97783147Y-86006570D01*
X97846703Y-86035595D01*
X97853181Y-86041627D01*
X107253181Y-95441627D01*
X107286666Y-95502950D01*
X107289500Y-95529308D01*
X107289500Y-101609731D01*
X107269815Y-101676770D01*
X107238386Y-101710049D01*
X107125352Y-101792173D01*
X106986174Y-101931351D01*
X106986174Y-101931352D01*
X106986172Y-101931354D01*
X106936485Y-101999741D01*
X106870476Y-102090594D01*
X106780485Y-102267213D01*
X106732511Y-102318009D01*
X106664690Y-102334804D01*
X106598555Y-102312267D01*
X106559515Y-102267213D01*
X106476657Y-102104595D01*
X106469524Y-102090595D01*
X106353828Y-101931354D01*
X106214646Y-101792172D01*
X106055405Y-101676476D01*
X106050498Y-101673976D01*
X105880029Y-101587117D01*
X105692826Y-101526290D01*
X105498422Y-101495500D01*
X105498417Y-101495500D01*
X105301583Y-101495500D01*
X105301578Y-101495500D01*
X105107173Y-101526290D01*
X104919970Y-101587117D01*
X104744594Y-101676476D01*
X104653741Y-101742485D01*
X104585354Y-101792172D01*
X104585352Y-101792174D01*
X104585351Y-101792174D01*
X104446174Y-101931351D01*
X104446174Y-101931352D01*
X104446172Y-101931354D01*
X104396485Y-101999741D01*
X104330476Y-102090594D01*
X104240485Y-102267213D01*
X104192511Y-102318009D01*
X104124690Y-102334804D01*
X104058555Y-102312267D01*
X104019515Y-102267213D01*
X103936657Y-102104595D01*
X103929524Y-102090595D01*
X103813828Y-101931354D01*
X103674646Y-101792172D01*
X103515405Y-101676476D01*
X103510498Y-101673976D01*
X103340029Y-101587117D01*
X103152826Y-101526290D01*
X102958422Y-101495500D01*
X102958417Y-101495500D01*
X102761583Y-101495500D01*
X102761578Y-101495500D01*
X102567173Y-101526290D01*
X102379970Y-101587117D01*
X102204594Y-101676476D01*
X102113741Y-101742485D01*
X102045354Y-101792172D01*
X102045352Y-101792174D01*
X102045351Y-101792174D01*
X101906174Y-101931351D01*
X101906174Y-101931352D01*
X101906172Y-101931354D01*
X101856485Y-101999741D01*
X101790476Y-102090594D01*
X101700485Y-102267213D01*
X101652511Y-102318009D01*
X101584690Y-102334804D01*
X101518555Y-102312267D01*
X101479515Y-102267213D01*
X101396657Y-102104595D01*
X101389524Y-102090595D01*
X101273828Y-101931354D01*
X101134646Y-101792172D01*
X100975405Y-101676476D01*
X100970498Y-101673976D01*
X100800029Y-101587117D01*
X100612826Y-101526290D01*
X100418422Y-101495500D01*
X100418417Y-101495500D01*
X100221583Y-101495500D01*
X100221578Y-101495500D01*
X100027173Y-101526290D01*
X99839970Y-101587117D01*
X99664594Y-101676476D01*
X99573741Y-101742485D01*
X99505354Y-101792172D01*
X99505352Y-101792174D01*
X99505351Y-101792174D01*
X99366174Y-101931351D01*
X99366174Y-101931352D01*
X99366172Y-101931354D01*
X99316485Y-101999741D01*
X99250476Y-102090594D01*
X99160485Y-102267213D01*
X99112511Y-102318009D01*
X99044690Y-102334804D01*
X98978555Y-102312267D01*
X98939515Y-102267213D01*
X98856657Y-102104595D01*
X98849524Y-102090595D01*
X98733828Y-101931354D01*
X98594646Y-101792172D01*
X98435405Y-101676476D01*
X98430498Y-101673976D01*
X98260029Y-101587117D01*
X98072826Y-101526290D01*
X97878422Y-101495500D01*
X97878417Y-101495500D01*
X97681583Y-101495500D01*
X97681578Y-101495500D01*
X97487173Y-101526290D01*
X97299970Y-101587117D01*
X97124594Y-101676476D01*
X97033741Y-101742485D01*
X96965354Y-101792172D01*
X96965352Y-101792174D01*
X96965351Y-101792174D01*
X96826174Y-101931351D01*
X96826174Y-101931352D01*
X96826172Y-101931354D01*
X96776485Y-101999741D01*
X96710476Y-102090594D01*
X96621117Y-102265970D01*
X96560290Y-102453173D01*
X96529500Y-102647577D01*
X96529500Y-102844422D01*
X96560290Y-103038826D01*
X96621117Y-103226029D01*
X96695269Y-103371560D01*
X96710476Y-103401405D01*
X96826172Y-103560646D01*
X96965354Y-103699828D01*
X97124595Y-103815524D01*
X97207455Y-103857743D01*
X97299970Y-103904882D01*
X97299972Y-103904882D01*
X97299975Y-103904884D01*
X97375750Y-103929505D01*
X97487173Y-103965709D01*
X97681578Y-103996500D01*
X97681583Y-103996500D01*
X97878421Y-103996500D01*
X97984432Y-103979709D01*
X98016411Y-103974644D01*
X98085704Y-103983598D01*
X98123490Y-104009436D01*
X108924325Y-114810272D01*
X108924332Y-114810278D01*
X109030863Y-114881459D01*
X109030867Y-114881461D01*
X109030874Y-114881466D01*
X109087713Y-114905009D01*
X109149256Y-114930501D01*
X109149260Y-114930501D01*
X109149261Y-114930502D01*
X109274928Y-114955500D01*
X109274931Y-114955500D01*
X127066929Y-114955500D01*
X127133968Y-114975185D01*
X127167245Y-115006613D01*
X127168108Y-115007799D01*
X127273034Y-115152219D01*
X127417786Y-115296971D01*
X127572749Y-115409556D01*
X127583390Y-115417287D01*
X127689710Y-115471460D01*
X127765776Y-115510218D01*
X127765778Y-115510218D01*
X127765781Y-115510220D01*
X127856856Y-115539812D01*
X127960465Y-115573477D01*
X128061557Y-115589488D01*
X128162648Y-115605500D01*
X128162649Y-115605500D01*
X128367351Y-115605500D01*
X128367352Y-115605500D01*
X128569534Y-115573477D01*
X128764219Y-115510220D01*
X128946610Y-115417287D01*
X129075482Y-115323657D01*
X129112213Y-115296971D01*
X129112215Y-115296968D01*
X129112219Y-115296966D01*
X129256966Y-115152219D01*
X129256968Y-115152215D01*
X129256971Y-115152213D01*
X129361892Y-115007799D01*
X129377287Y-114986610D01*
X129470220Y-114804219D01*
X129533477Y-114609534D01*
X129565500Y-114407352D01*
X129565500Y-114202648D01*
X129533477Y-114000466D01*
X129470220Y-113805781D01*
X129470218Y-113805778D01*
X129470218Y-113805776D01*
X129436503Y-113739607D01*
X129377287Y-113623390D01*
X129356072Y-113594190D01*
X129256971Y-113457786D01*
X129112213Y-113313028D01*
X128946611Y-113192713D01*
X128853369Y-113145203D01*
X128802574Y-113097229D01*
X128785779Y-113029407D01*
X128808317Y-112963273D01*
X128853371Y-112924234D01*
X128946346Y-112876861D01*
X128946347Y-112876861D01*
X128990921Y-112844474D01*
X128311447Y-112165000D01*
X128317661Y-112165000D01*
X128419394Y-112137741D01*
X128510606Y-112085080D01*
X128585080Y-112010606D01*
X128637741Y-111919394D01*
X128665000Y-111817661D01*
X128665000Y-111811447D01*
X129344474Y-112490921D01*
X129376859Y-112446349D01*
X129469755Y-112264031D01*
X129532990Y-112069417D01*
X129565000Y-111867317D01*
X129565000Y-111662682D01*
X129532990Y-111460582D01*
X129469755Y-111265968D01*
X129376859Y-111083650D01*
X129344474Y-111039077D01*
X129344474Y-111039076D01*
X128665000Y-111718551D01*
X128665000Y-111712339D01*
X128637741Y-111610606D01*
X128585080Y-111519394D01*
X128510606Y-111444920D01*
X128419394Y-111392259D01*
X128317661Y-111365000D01*
X128311446Y-111365000D01*
X128990922Y-110685524D01*
X128990921Y-110685523D01*
X128946359Y-110653147D01*
X128946350Y-110653141D01*
X128764031Y-110560244D01*
X128569417Y-110497009D01*
X128367317Y-110465000D01*
X128162683Y-110465000D01*
X127960582Y-110497009D01*
X127765968Y-110560244D01*
X127583644Y-110653143D01*
X127539077Y-110685523D01*
X127539077Y-110685524D01*
X128218554Y-111365000D01*
X128212339Y-111365000D01*
X128110606Y-111392259D01*
X128019394Y-111444920D01*
X127944920Y-111519394D01*
X127892259Y-111610606D01*
X127865000Y-111712339D01*
X127865000Y-111718553D01*
X127185524Y-111039077D01*
X127185523Y-111039077D01*
X127153143Y-111083644D01*
X127060244Y-111265968D01*
X126997009Y-111460582D01*
X126965000Y-111662682D01*
X126965000Y-111867317D01*
X126997009Y-112069417D01*
X127060244Y-112264031D01*
X127153141Y-112446350D01*
X127153147Y-112446359D01*
X127185523Y-112490921D01*
X127185524Y-112490922D01*
X127865000Y-111811446D01*
X127865000Y-111817661D01*
X127892259Y-111919394D01*
X127944920Y-112010606D01*
X128019394Y-112085080D01*
X128110606Y-112137741D01*
X128212339Y-112165000D01*
X128218553Y-112165000D01*
X127539076Y-112844474D01*
X127583652Y-112876861D01*
X127676628Y-112924234D01*
X127727425Y-112972208D01*
X127744220Y-113040029D01*
X127721683Y-113106164D01*
X127676630Y-113145203D01*
X127583388Y-113192713D01*
X127417786Y-113313028D01*
X127273034Y-113457780D01*
X127273030Y-113457786D01*
X127167246Y-113603386D01*
X127111918Y-113646051D01*
X127066929Y-113654500D01*
X109659808Y-113654500D01*
X109592769Y-113634815D01*
X109572127Y-113618181D01*
X100162127Y-104208181D01*
X100128642Y-104146858D01*
X100133626Y-104077166D01*
X100175498Y-104021233D01*
X100240962Y-103996816D01*
X100249808Y-103996500D01*
X100418421Y-103996500D01*
X100524432Y-103979709D01*
X100556411Y-103974644D01*
X100625704Y-103983598D01*
X100663490Y-104009436D01*
X102226768Y-105572713D01*
X103753724Y-107099669D01*
X103838274Y-107184219D01*
X103844332Y-107190277D01*
X103950866Y-107261461D01*
X103950872Y-107261464D01*
X103950873Y-107261465D01*
X104069256Y-107310501D01*
X104069260Y-107310501D01*
X104069261Y-107310502D01*
X104194928Y-107335500D01*
X104194931Y-107335500D01*
X127066929Y-107335500D01*
X127133968Y-107355185D01*
X127167245Y-107386613D01*
X127168108Y-107387799D01*
X127273034Y-107532219D01*
X127417786Y-107676971D01*
X127572749Y-107789556D01*
X127583390Y-107797287D01*
X127699607Y-107856503D01*
X127765776Y-107890218D01*
X127765778Y-107890218D01*
X127765781Y-107890220D01*
X127856856Y-107919812D01*
X127960465Y-107953477D01*
X128061557Y-107969488D01*
X128162648Y-107985500D01*
X128162649Y-107985500D01*
X128367351Y-107985500D01*
X128367352Y-107985500D01*
X128569534Y-107953477D01*
X128764219Y-107890220D01*
X128946610Y-107797287D01*
X129075482Y-107703657D01*
X129112213Y-107676971D01*
X129112215Y-107676968D01*
X129112219Y-107676966D01*
X129256966Y-107532219D01*
X129256968Y-107532215D01*
X129256971Y-107532213D01*
X129361892Y-107387799D01*
X129377287Y-107366610D01*
X129470220Y-107184219D01*
X129533477Y-106989534D01*
X129565500Y-106787352D01*
X129565500Y-106582648D01*
X129549424Y-106481150D01*
X129533477Y-106380465D01*
X129470218Y-106185776D01*
X129418865Y-106084991D01*
X129377287Y-106003390D01*
X129361892Y-105982200D01*
X129256971Y-105837786D01*
X129112213Y-105693028D01*
X128946611Y-105572713D01*
X128853369Y-105525203D01*
X128802574Y-105477229D01*
X128785779Y-105409407D01*
X128808317Y-105343273D01*
X128853371Y-105304234D01*
X128946346Y-105256861D01*
X128946347Y-105256861D01*
X128990921Y-105224474D01*
X128311447Y-104545000D01*
X128317661Y-104545000D01*
X128419394Y-104517741D01*
X128510606Y-104465080D01*
X128585080Y-104390606D01*
X128637741Y-104299394D01*
X128665000Y-104197661D01*
X128665000Y-104191447D01*
X129344474Y-104870921D01*
X129376859Y-104826349D01*
X129469755Y-104644031D01*
X129532990Y-104449417D01*
X129565000Y-104247317D01*
X129565000Y-104042682D01*
X129532990Y-103840582D01*
X129469755Y-103645968D01*
X129376859Y-103463650D01*
X129344474Y-103419077D01*
X129344474Y-103419076D01*
X128665000Y-104098551D01*
X128665000Y-104092339D01*
X128637741Y-103990606D01*
X128585080Y-103899394D01*
X128510606Y-103824920D01*
X128419394Y-103772259D01*
X128317661Y-103745000D01*
X128311446Y-103745000D01*
X128990922Y-103065524D01*
X128990921Y-103065523D01*
X128946359Y-103033147D01*
X128946350Y-103033141D01*
X128764031Y-102940244D01*
X128569417Y-102877009D01*
X128367317Y-102845000D01*
X128162683Y-102845000D01*
X127960582Y-102877009D01*
X127765968Y-102940244D01*
X127583644Y-103033143D01*
X127539077Y-103065523D01*
X127539077Y-103065524D01*
X128218554Y-103745000D01*
X128212339Y-103745000D01*
X128110606Y-103772259D01*
X128019394Y-103824920D01*
X127944920Y-103899394D01*
X127892259Y-103990606D01*
X127865000Y-104092339D01*
X127865000Y-104098553D01*
X127185524Y-103419077D01*
X127185523Y-103419077D01*
X127153143Y-103463644D01*
X127060244Y-103645968D01*
X126997009Y-103840582D01*
X126965000Y-104042682D01*
X126965000Y-104247317D01*
X126997009Y-104449417D01*
X127060244Y-104644031D01*
X127153141Y-104826350D01*
X127153147Y-104826359D01*
X127185523Y-104870921D01*
X127185524Y-104870922D01*
X127865000Y-104191446D01*
X127865000Y-104197661D01*
X127892259Y-104299394D01*
X127944920Y-104390606D01*
X128019394Y-104465080D01*
X128110606Y-104517741D01*
X128212339Y-104545000D01*
X128218553Y-104545000D01*
X127539076Y-105224474D01*
X127583652Y-105256861D01*
X127676628Y-105304234D01*
X127727425Y-105352208D01*
X127744220Y-105420029D01*
X127721683Y-105486164D01*
X127676630Y-105525203D01*
X127583388Y-105572713D01*
X127417786Y-105693028D01*
X127273034Y-105837780D01*
X127247539Y-105872872D01*
X127167246Y-105983386D01*
X127111918Y-106026051D01*
X127066929Y-106034500D01*
X104579807Y-106034500D01*
X104512768Y-106014815D01*
X104492126Y-105998181D01*
X102702127Y-104208181D01*
X102668642Y-104146858D01*
X102673626Y-104077166D01*
X102715498Y-104021233D01*
X102780962Y-103996816D01*
X102789808Y-103996500D01*
X102958422Y-103996500D01*
X103152826Y-103965709D01*
X103158064Y-103964007D01*
X103340025Y-103904884D01*
X103515405Y-103815524D01*
X103674646Y-103699828D01*
X103813828Y-103560646D01*
X103929524Y-103401405D01*
X103982323Y-103297781D01*
X104019515Y-103224787D01*
X104067489Y-103173990D01*
X104135310Y-103157195D01*
X104201445Y-103179732D01*
X104240485Y-103224787D01*
X104330474Y-103401403D01*
X104354198Y-103434055D01*
X104446172Y-103560646D01*
X104585354Y-103699828D01*
X104744595Y-103815524D01*
X104827455Y-103857743D01*
X104919970Y-103904882D01*
X104919972Y-103904882D01*
X104919975Y-103904884D01*
X104995750Y-103929505D01*
X105107173Y-103965709D01*
X105301578Y-103996500D01*
X105301583Y-103996500D01*
X105498422Y-103996500D01*
X105692826Y-103965709D01*
X105698064Y-103964007D01*
X105880025Y-103904884D01*
X106055405Y-103815524D01*
X106214646Y-103699828D01*
X106353828Y-103560646D01*
X106469524Y-103401405D01*
X106522323Y-103297781D01*
X106559515Y-103224787D01*
X106607489Y-103173990D01*
X106675310Y-103157195D01*
X106741445Y-103179732D01*
X106780485Y-103224787D01*
X106870474Y-103401403D01*
X106894198Y-103434055D01*
X106986172Y-103560646D01*
X107125354Y-103699828D01*
X107284595Y-103815524D01*
X107367455Y-103857743D01*
X107459970Y-103904882D01*
X107459972Y-103904882D01*
X107459975Y-103904884D01*
X107535750Y-103929505D01*
X107647173Y-103965709D01*
X107841578Y-103996500D01*
X107841583Y-103996500D01*
X108038422Y-103996500D01*
X108232826Y-103965709D01*
X108238064Y-103964007D01*
X108420025Y-103904884D01*
X108595405Y-103815524D01*
X108754646Y-103699828D01*
X108893828Y-103560646D01*
X109009524Y-103401405D01*
X109062323Y-103297781D01*
X109099515Y-103224787D01*
X109147489Y-103173990D01*
X109215310Y-103157195D01*
X109281445Y-103179732D01*
X109320485Y-103224787D01*
X109410474Y-103401403D01*
X109434198Y-103434055D01*
X109526172Y-103560646D01*
X109665354Y-103699828D01*
X109824595Y-103815524D01*
X109907455Y-103857743D01*
X109999970Y-103904882D01*
X109999972Y-103904882D01*
X109999975Y-103904884D01*
X110075750Y-103929505D01*
X110187173Y-103965709D01*
X110381578Y-103996500D01*
X110381583Y-103996500D01*
X110578422Y-103996500D01*
X110772826Y-103965709D01*
X110778064Y-103964007D01*
X110960025Y-103904884D01*
X111135405Y-103815524D01*
X111294646Y-103699828D01*
X111433828Y-103560646D01*
X111549524Y-103401405D01*
X111602323Y-103297781D01*
X111639515Y-103224787D01*
X111687489Y-103173990D01*
X111755310Y-103157195D01*
X111821445Y-103179732D01*
X111860485Y-103224787D01*
X111950474Y-103401403D01*
X111974198Y-103434055D01*
X112066172Y-103560646D01*
X112205354Y-103699828D01*
X112364595Y-103815524D01*
X112447455Y-103857743D01*
X112539970Y-103904882D01*
X112539972Y-103904882D01*
X112539975Y-103904884D01*
X112615750Y-103929505D01*
X112727173Y-103965709D01*
X112921578Y-103996500D01*
X112921583Y-103996500D01*
X113118422Y-103996500D01*
X113312826Y-103965709D01*
X113318064Y-103964007D01*
X113500025Y-103904884D01*
X113675405Y-103815524D01*
X113834646Y-103699828D01*
X113973828Y-103560646D01*
X114089524Y-103401405D01*
X114176153Y-103231385D01*
X114224127Y-103180588D01*
X114291948Y-103163793D01*
X114358083Y-103186330D01*
X114397952Y-103236168D01*
X114398904Y-103235684D01*
X114445848Y-103327818D01*
X114490476Y-103415405D01*
X114606172Y-103574646D01*
X114745354Y-103713828D01*
X114904595Y-103829524D01*
X114926298Y-103840582D01*
X115079970Y-103918882D01*
X115079972Y-103918882D01*
X115079975Y-103918884D01*
X115180317Y-103951487D01*
X115267173Y-103979709D01*
X115461578Y-104010500D01*
X115461583Y-104010500D01*
X115658422Y-104010500D01*
X115852826Y-103979709D01*
X115895913Y-103965709D01*
X116040025Y-103918884D01*
X116215405Y-103829524D01*
X116374646Y-103713828D01*
X116513828Y-103574646D01*
X116629524Y-103415405D01*
X116718884Y-103240025D01*
X116747151Y-103153028D01*
X116772679Y-103074464D01*
X116772680Y-103074462D01*
X116779707Y-103052834D01*
X116779707Y-103052830D01*
X116779709Y-103052826D01*
X116802568Y-102908500D01*
X116810500Y-102858422D01*
X116810500Y-102661577D01*
X116779709Y-102467173D01*
X116718882Y-102279970D01*
X116629523Y-102104594D01*
X116619352Y-102090595D01*
X116513828Y-101945354D01*
X116374646Y-101806172D01*
X116215405Y-101690476D01*
X116040029Y-101601117D01*
X115852826Y-101540290D01*
X115658422Y-101509500D01*
X115658417Y-101509500D01*
X115461583Y-101509500D01*
X115461578Y-101509500D01*
X115267173Y-101540290D01*
X115079970Y-101601117D01*
X114904594Y-101690476D01*
X114877655Y-101710049D01*
X114745354Y-101806172D01*
X114745352Y-101806174D01*
X114745351Y-101806174D01*
X114606174Y-101945351D01*
X114606174Y-101945352D01*
X114606172Y-101945354D01*
X114556485Y-102013741D01*
X114490476Y-102104594D01*
X114403846Y-102274615D01*
X114355871Y-102325411D01*
X114288050Y-102342206D01*
X114221915Y-102319668D01*
X114182050Y-102269829D01*
X114181096Y-102270316D01*
X114096657Y-102104595D01*
X114089524Y-102090595D01*
X113973828Y-101931354D01*
X113834646Y-101792172D01*
X113675405Y-101676476D01*
X113670498Y-101673976D01*
X113500029Y-101587117D01*
X113312826Y-101526290D01*
X113118422Y-101495500D01*
X113118417Y-101495500D01*
X112921583Y-101495500D01*
X112921578Y-101495500D01*
X112727173Y-101526290D01*
X112539970Y-101587117D01*
X112364594Y-101676476D01*
X112273741Y-101742485D01*
X112205354Y-101792172D01*
X112205352Y-101792174D01*
X112205351Y-101792174D01*
X112066174Y-101931351D01*
X112066174Y-101931352D01*
X112066172Y-101931354D01*
X112016485Y-101999741D01*
X111950476Y-102090594D01*
X111860485Y-102267213D01*
X111812511Y-102318009D01*
X111744690Y-102334804D01*
X111678555Y-102312267D01*
X111639515Y-102267213D01*
X111556657Y-102104595D01*
X111549524Y-102090595D01*
X111433828Y-101931354D01*
X111294646Y-101792172D01*
X111135405Y-101676476D01*
X111130498Y-101673976D01*
X110960029Y-101587117D01*
X110772826Y-101526290D01*
X110578422Y-101495500D01*
X110578417Y-101495500D01*
X110381583Y-101495500D01*
X110381578Y-101495500D01*
X110187173Y-101526290D01*
X109999970Y-101587117D01*
X109824594Y-101676476D01*
X109733741Y-101742485D01*
X109665354Y-101792172D01*
X109665352Y-101792174D01*
X109665351Y-101792174D01*
X109526174Y-101931351D01*
X109526174Y-101931352D01*
X109526172Y-101931354D01*
X109476485Y-101999741D01*
X109410476Y-102090594D01*
X109320485Y-102267213D01*
X109272511Y-102318009D01*
X109204690Y-102334804D01*
X109138555Y-102312267D01*
X109099515Y-102267213D01*
X109016657Y-102104595D01*
X109009524Y-102090595D01*
X108893828Y-101931354D01*
X108754646Y-101792172D01*
X108641613Y-101710048D01*
X108598949Y-101654718D01*
X108590500Y-101609731D01*
X108590500Y-95144428D01*
X108565502Y-95018761D01*
X108565501Y-95018760D01*
X108565501Y-95018756D01*
X108516465Y-94900373D01*
X108477831Y-94842553D01*
X108445276Y-94793830D01*
X108445274Y-94793828D01*
X108445272Y-94793825D01*
X108445271Y-94793824D01*
X97658446Y-84007000D01*
X97624961Y-83945677D01*
X97623660Y-83938756D01*
X97614402Y-83880299D01*
X97560873Y-83715555D01*
X97482232Y-83561212D01*
X97380414Y-83421072D01*
X97257928Y-83298586D01*
X97174975Y-83238317D01*
X97132311Y-83182988D01*
X97126332Y-83113374D01*
X97158938Y-83051579D01*
X97174976Y-83037682D01*
X97257928Y-82977414D01*
X97380414Y-82854928D01*
X97482232Y-82714788D01*
X97560873Y-82560445D01*
X97614402Y-82395701D01*
X97641500Y-82224611D01*
X97641500Y-82051389D01*
X97614402Y-81880299D01*
X97560873Y-81715555D01*
X97482232Y-81561212D01*
X97380414Y-81421072D01*
X97257928Y-81298586D01*
X97174975Y-81238317D01*
X97157795Y-81216037D01*
X97138192Y-81195866D01*
X97136748Y-81188743D01*
X97132311Y-81182988D01*
X97129903Y-81154960D01*
X97124317Y-81127388D01*
X97126953Y-81120615D01*
X97126332Y-81113374D01*
X97139459Y-81088495D01*
X97149666Y-81062279D01*
X97157108Y-81055046D01*
X97158938Y-81051579D01*
X97174977Y-81037682D01*
X97210075Y-81012182D01*
X97275881Y-80988702D01*
X97282960Y-80988500D01*
X99419349Y-80988500D01*
X99486388Y-81008185D01*
X99507030Y-81024819D01*
X116274374Y-97792162D01*
X116373707Y-97891495D01*
X116392839Y-97910627D01*
X116462015Y-97956849D01*
X116532137Y-98003703D01*
X116686918Y-98067816D01*
X116851228Y-98100499D01*
X116851232Y-98100500D01*
X116851233Y-98100500D01*
X122993660Y-98100500D01*
X122993661Y-98100499D01*
X123157974Y-98067816D01*
X123312755Y-98003703D01*
X123452054Y-97910626D01*
X123570518Y-97792162D01*
X123663595Y-97652863D01*
X123727708Y-97498082D01*
X123760392Y-97333767D01*
X123760392Y-97166233D01*
X123727708Y-97001918D01*
X123663595Y-96847137D01*
X123613197Y-96771711D01*
X123570518Y-96707837D01*
X123452054Y-96589373D01*
X123312752Y-96496295D01*
X123157974Y-96432184D01*
X123157966Y-96432182D01*
X122993663Y-96399500D01*
X122993659Y-96399500D01*
X117338650Y-96399500D01*
X117271611Y-96379815D01*
X117250969Y-96363181D01*
X108916613Y-88028825D01*
X101532789Y-80645000D01*
X104140000Y-80645000D01*
X104140000Y-80253189D01*
X115511790Y-80011238D01*
X115579232Y-80029492D01*
G37*
%TD.AperFunction*%
M02*
