M48
; DRILL file KiCad 10.0.1 date 2026-05-03T00:07:20
; FORMAT={-:-/ absolute / metric / decimal}
; #@! TF.CreationDate,2026-05-03T00:07:20+03:00
; #@! TF.GenerationSoftware,Kicad,Pcbnew,10.0.1
; #@! TF.FileFunction,Plated,1,2,PTH
FMAT,2
METRIC
; #@! TA.AperFunction,Plated,PTH,ViaDrill
T1C0.300
; #@! TA.AperFunction,Plated,PTH,ComponentDrill
T2C0.750
; #@! TA.AperFunction,Plated,PTH,ComponentDrill
T3C0.800
; #@! TA.AperFunction,Plated,PTH,ComponentDrill
T4C0.850
; #@! TA.AperFunction,Plated,PTH,ComponentDrill
T5C1.000
; #@! TA.AperFunction,Plated,PTH,ComponentDrill
T6C1.100
; #@! TA.AperFunction,Plated,PTH,ComponentDrill
T7C1.200
; #@! TA.AperFunction,Plated,PTH,ComponentDrill
T8C1.300
; #@! TA.AperFunction,Plated,PTH,ComponentDrill
T9C1.600
; #@! TA.AperFunction,Plated,PTH,ComponentDrill
T10C1.850
; #@! TA.AperFunction,Plated,PTH,ComponentDrill
T11C3.500
%
G90
G05
T1
X96.139Y-82.169
X96.139Y-83.566
X98.009Y-90.404
X98.298Y-87.376
X105.029Y-87.376
X106.299Y-85.725
X112.649Y-96.393
X112.649Y-112.395
X113.665Y-89.408
X118.618Y-90.817
X119.697Y-91.757
X119.888Y-123.698
X120.142Y-76.962
X120.142Y-77.978
X120.904Y-112.418
X121.031Y-76.2
X121.031Y-76.962
X121.031Y-77.978
X121.031Y-78.74
X121.92Y-76.2
X121.92Y-76.962
X121.92Y-77.978
X121.92Y-78.74
X122.174Y-85.852
X122.809Y-76.962
X122.809Y-77.978
X126.238Y-107.95
X132.461Y-89.662
X132.588Y-81.661
X132.588Y-120.396
X132.588Y-126.695
X132.715Y-83.693
X133.521Y-99.187
X133.604Y-125.984
X133.712Y-95.269
X133.731Y-109.728
X136.525Y-96.012
X139.192Y-118.77
X140.589Y-77.089
X140.589Y-77.851
X141.351Y-76.327
X141.351Y-77.089
X141.351Y-77.851
X141.351Y-78.613
X141.351Y-85.725
X142.113Y-76.327
X142.113Y-77.089
X142.113Y-77.851
X142.113Y-78.613
X142.875Y-77.089
X142.875Y-77.851
X144.399Y-120.65
X146.05Y-130.81
X147.066Y-130.81
X150.114Y-119.888
T2
X92.837Y-78.105
X92.837Y-80.105
X92.837Y-82.105
X92.837Y-84.105
X92.837Y-86.105
X92.837Y-88.105
X92.837Y-90.105
X92.837Y-92.105
X103.221Y-128.778
X105.221Y-128.778
X107.221Y-128.778
X109.221Y-128.778
X111.221Y-128.778
X113.221Y-128.778
X115.221Y-128.778
X117.221Y-128.778
T3
X122.428Y-91.821
X122.428Y-94.361
X122.555Y-98.679
X122.555Y-101.219
X130.048Y-91.821
X130.048Y-94.361
X130.175Y-98.679
X130.175Y-101.219
T4
X91.821Y-102.108
X91.821Y-117.348
X94.361Y-102.108
X94.361Y-117.362
X96.901Y-102.108
X96.901Y-117.362
X99.441Y-102.108
X99.441Y-117.362
X101.981Y-102.108
X101.981Y-117.362
X104.521Y-102.108
X104.521Y-117.362
X107.061Y-102.108
X107.061Y-117.362
X109.601Y-102.108
X109.601Y-117.362
T5
X137.414Y-100.711
X137.414Y-103.251
X139.954Y-100.711
X139.954Y-103.251
X153.335Y-80.69
X165.335Y-80.69
T6
X156.566Y-105.816
X161.646Y-105.816
T7
X159.106Y-100.79
T8
X153.335Y-92.89
X159.385Y-78.74
X165.385Y-92.94
T9
X112.37Y-71.069
X119.99Y-71.069
X127.61Y-71.069
X135.23Y-71.069
X156.21Y-71.005
X163.83Y-71.005
T10
X103.124Y-75.184
X103.175Y-64.059
X127.965Y-130.404
X147.701Y-75.438
X151.257Y-101.6
X151.257Y-112.08
X170.053Y-101.6
X170.053Y-112.08
T11
X93.98Y-63.5
X93.98Y-129.54
X178.562Y-129.54
X178.689Y-63.5
T5
G00X174.749Y-79.232
M15
G01X174.749Y-77.232
M16
G05
G00X174.749Y-92.779
M15
G01X174.749Y-90.779
M16
G05
G00X174.749Y-106.325
M15
G01X174.749Y-104.325
M16
G05
G00X174.749Y-119.872
M15
G01X174.749Y-117.872
M16
G05
G00X178.749Y-73.532
M15
G01X176.749Y-73.532
M16
G05
G00X178.749Y-87.079
M15
G01X176.749Y-87.079
M16
G05
G00X178.749Y-100.625
M15
G01X176.749Y-100.625
M16
G05
G00X178.749Y-114.172
M15
G01X176.749Y-114.172
M16
G05
G00X180.749Y-79.232
M15
G01X180.749Y-77.232
M16
G05
G00X180.749Y-92.779
M15
G01X180.749Y-90.779
M16
G05
G00X180.749Y-106.325
M15
G01X180.749Y-104.325
M16
G05
G00X180.749Y-120.598
M15
G01X180.749Y-118.598
M16
G05
M30
