%TF.GenerationSoftware,KiCad,Pcbnew,9.0.6*%
%TF.CreationDate,2026-01-21T01:22:50+03:00*%
%TF.ProjectId,Backup power switch 12v Module,4261636b-7570-4207-906f-776572207377,rev?*%
%TF.SameCoordinates,Original*%
%TF.FileFunction,Copper,L2,Bot*%
%TF.FilePolarity,Positive*%
%FSLAX46Y46*%
G04 Gerber Fmt 4.6, Leading zero omitted, Abs format (unit mm)*
G04 Created by KiCad (PCBNEW 9.0.6) date 2026-01-21 01:22:50*
%MOMM*%
%LPD*%
G01*
G04 APERTURE LIST*
G04 Aperture macros list*
%AMRoundRect*
0 Rectangle with rounded corners*
0 $1 Rounding radius*
0 $2 $3 $4 $5 $6 $7 $8 $9 X,Y pos of 4 corners*
0 Add a 4 corners polygon primitive as box body*
4,1,4,$2,$3,$4,$5,$6,$7,$8,$9,$2,$3,0*
0 Add four circle primitives for the rounded corners*
1,1,$1+$1,$2,$3*
1,1,$1+$1,$4,$5*
1,1,$1+$1,$6,$7*
1,1,$1+$1,$8,$9*
0 Add four rect primitives between the rounded corners*
20,1,$1+$1,$2,$3,$4,$5,0*
20,1,$1+$1,$4,$5,$6,$7,0*
20,1,$1+$1,$6,$7,$8,$9,0*
20,1,$1+$1,$8,$9,$2,$3,0*%
G04 Aperture macros list end*
%TA.AperFunction,ComponentPad*%
%ADD10C,2.400000*%
%TD*%
%TA.AperFunction,ComponentPad*%
%ADD11O,2.400000X2.400000*%
%TD*%
%TA.AperFunction,ComponentPad*%
%ADD12RoundRect,0.250000X-0.625000X0.350000X-0.625000X-0.350000X0.625000X-0.350000X0.625000X0.350000X0*%
%TD*%
%TA.AperFunction,ComponentPad*%
%ADD13O,1.750000X1.200000*%
%TD*%
%TA.AperFunction,ComponentPad*%
%ADD14RoundRect,0.250000X0.550000X0.550000X-0.550000X0.550000X-0.550000X-0.550000X0.550000X-0.550000X0*%
%TD*%
%TA.AperFunction,ComponentPad*%
%ADD15C,1.600000*%
%TD*%
%TA.AperFunction,ComponentPad*%
%ADD16C,3.000000*%
%TD*%
%TA.AperFunction,ComponentPad*%
%ADD17C,2.500000*%
%TD*%
%TA.AperFunction,ComponentPad*%
%ADD18C,1.440000*%
%TD*%
%TA.AperFunction,ComponentPad*%
%ADD19C,3.500000*%
%TD*%
%TA.AperFunction,ComponentPad*%
%ADD20RoundRect,0.249999X-0.850001X-0.850001X0.850001X-0.850001X0.850001X0.850001X-0.850001X0.850001X0*%
%TD*%
%TA.AperFunction,ComponentPad*%
%ADD21C,2.200000*%
%TD*%
%TA.AperFunction,ComponentPad*%
%ADD22C,3.900000*%
%TD*%
%TA.AperFunction,ConnectorPad*%
%ADD23C,7.000000*%
%TD*%
%TA.AperFunction,ComponentPad*%
%ADD24C,3.400000*%
%TD*%
%TA.AperFunction,ComponentPad*%
%ADD25C,1.500000*%
%TD*%
%TA.AperFunction,ComponentPad*%
%ADD26R,2.000000X1.905000*%
%TD*%
%TA.AperFunction,ComponentPad*%
%ADD27O,2.000000X1.905000*%
%TD*%
%TA.AperFunction,ViaPad*%
%ADD28C,0.600000*%
%TD*%
%TA.AperFunction,ViaPad*%
%ADD29C,1.000000*%
%TD*%
%TA.AperFunction,ViaPad*%
%ADD30C,2.000000*%
%TD*%
%TA.AperFunction,Conductor*%
%ADD31C,1.000000*%
%TD*%
%TA.AperFunction,Conductor*%
%ADD32C,4.000000*%
%TD*%
%TA.AperFunction,Conductor*%
%ADD33C,0.300000*%
%TD*%
%TA.AperFunction,Conductor*%
%ADD34C,0.700000*%
%TD*%
%TA.AperFunction,Conductor*%
%ADD35C,0.400000*%
%TD*%
%TA.AperFunction,Conductor*%
%ADD36C,2.000000*%
%TD*%
%TA.AperFunction,Conductor*%
%ADD37C,0.500000*%
%TD*%
%TA.AperFunction,Conductor*%
%ADD38C,1.500000*%
%TD*%
%TA.AperFunction,Conductor*%
%ADD39C,3.500000*%
%TD*%
G04 APERTURE END LIST*
D10*
X104140000Y-70595000D03*
D11*
X104140000Y-65515001D03*
D12*
X94792800Y-78028800D03*
D13*
X94792800Y-80028800D03*
X94792800Y-82028800D03*
X94792800Y-84028800D03*
X94792800Y-86028800D03*
X94792800Y-88028800D03*
X94792800Y-90028800D03*
X94792800Y-92028800D03*
D14*
X131445000Y-105410000D03*
D15*
X131445000Y-102870000D03*
X123825000Y-102870000D03*
X123825000Y-105410000D03*
D16*
X161925000Y-79765000D03*
D17*
X155875000Y-81715000D03*
D16*
X155875000Y-93915000D03*
X167925000Y-93965000D03*
D17*
X167875000Y-81715000D03*
D18*
X106680000Y-83820000D03*
X109220000Y-83820000D03*
X111760000Y-83820000D03*
D19*
X156210000Y-71005200D03*
X163830000Y-71005200D03*
D20*
X162192350Y-114935000D03*
D21*
X169812350Y-114935000D03*
D22*
X177698400Y-66395600D03*
D23*
X177698400Y-66395600D03*
D14*
X157475000Y-113030000D03*
D15*
X157475000Y-110490000D03*
X157475000Y-107950000D03*
X157475000Y-105410000D03*
X149855000Y-105410000D03*
X149855000Y-107950000D03*
X149855000Y-110490000D03*
X149855000Y-113030000D03*
D14*
X131445000Y-113030000D03*
D15*
X131445000Y-110490000D03*
X123825000Y-110490000D03*
X123825000Y-113030000D03*
D24*
X179705000Y-76200000D03*
D22*
X177800000Y-129540000D03*
D23*
X177800000Y-129540000D03*
D24*
X179374800Y-102870000D03*
D19*
X112369600Y-71069200D03*
X119989600Y-71069200D03*
X127609600Y-71069200D03*
X135229600Y-71069200D03*
D22*
X94843600Y-66040000D03*
D23*
X94843600Y-66040000D03*
D18*
X137160000Y-83820000D03*
X139700000Y-83820000D03*
X142240000Y-83820000D03*
D22*
X94860000Y-129540000D03*
D23*
X94860000Y-129540000D03*
D24*
X179374800Y-118110000D03*
D25*
X97780000Y-113665000D03*
X100320000Y-113665000D03*
X102860000Y-113665000D03*
X105400000Y-113665000D03*
X107940000Y-113665000D03*
X115560000Y-98425000D03*
X113020000Y-98411000D03*
X110480000Y-98411000D03*
X107940000Y-98411000D03*
X105400000Y-98411000D03*
X102860000Y-98411000D03*
X100320000Y-98411000D03*
X97780000Y-98411000D03*
X110480000Y-113665000D03*
X115560000Y-113665000D03*
X113020000Y-113665000D03*
D24*
X179374800Y-110490000D03*
D26*
X178917600Y-87122000D03*
D27*
X173891600Y-89662000D03*
X178917600Y-92202000D03*
D28*
X117475000Y-93345000D03*
X125882400Y-90805000D03*
X119888000Y-90170000D03*
X114935000Y-90170000D03*
X134620000Y-101555000D03*
D29*
X128905000Y-97790000D03*
X154457400Y-120269000D03*
D28*
X152082500Y-98742500D03*
X117475000Y-85725000D03*
X146685000Y-97155000D03*
X123825000Y-85725000D03*
X146050000Y-130810000D03*
X147320000Y-130810000D03*
X139065000Y-118745000D03*
X127635000Y-118110000D03*
D29*
X137414000Y-120650000D03*
X144780000Y-93915000D03*
D28*
X143510000Y-120650000D03*
D30*
X121285000Y-77470000D03*
X144272000Y-77470000D03*
D28*
X127977900Y-79082900D03*
X139700000Y-97028000D03*
X147002500Y-101282500D03*
X154439000Y-104641000D03*
D31*
X104140000Y-70595000D02*
X111895400Y-70595000D01*
X111895400Y-70595000D02*
X112369600Y-71069200D01*
X104140000Y-65515001D02*
X104250001Y-65405000D01*
X104250001Y-65405000D02*
X114325400Y-65405000D01*
X114325400Y-65405000D02*
X119989600Y-71069200D01*
D32*
X144780000Y-77470000D02*
X154305000Y-86995000D01*
X144272000Y-77470000D02*
X144780000Y-77470000D01*
X154305000Y-86995000D02*
X165543000Y-86995000D01*
X165543000Y-86995000D02*
X167925000Y-89377000D01*
D33*
X107940000Y-98411000D02*
X107940000Y-97068800D01*
X95009200Y-84138000D02*
X94902000Y-84138000D01*
X94902000Y-84138000D02*
X94792800Y-84028800D01*
X107940000Y-97068800D02*
X95009200Y-84138000D01*
D34*
X117475000Y-93345000D02*
X112395000Y-93345000D01*
X94902000Y-80138000D02*
X94792800Y-80028800D01*
X112395000Y-93345000D02*
X99188000Y-80138000D01*
X99188000Y-80138000D02*
X94902000Y-80138000D01*
D33*
X102984000Y-105410000D02*
X123825000Y-105410000D01*
X100320000Y-98411000D02*
X100320000Y-102746000D01*
X100320000Y-102746000D02*
X102984000Y-105410000D01*
D35*
X119888000Y-90170000D02*
X125247400Y-90170000D01*
X119888000Y-90170000D02*
X114935000Y-90170000D01*
X125247400Y-90170000D02*
X125882400Y-90805000D01*
D36*
X130810000Y-97790000D02*
X128905000Y-97790000D01*
X148844000Y-120269000D02*
X154457400Y-120269000D01*
X135255000Y-106680000D02*
X148844000Y-120269000D01*
X135255000Y-102190000D02*
X135255000Y-106680000D01*
X134620000Y-101555000D02*
X135255000Y-102190000D01*
X134575000Y-101555000D02*
X130810000Y-97790000D01*
X134620000Y-101555000D02*
X134575000Y-101555000D01*
D33*
X97780000Y-102746000D02*
X102349000Y-107315000D01*
X118110000Y-107315000D02*
X123825000Y-113030000D01*
X97780000Y-98411000D02*
X97780000Y-102746000D01*
X102349000Y-107315000D02*
X118110000Y-107315000D01*
D32*
X124092200Y-65405000D02*
X119989600Y-69507600D01*
D31*
X152087044Y-98737956D02*
X154617956Y-98737956D01*
D37*
X176834800Y-106375200D02*
X176834800Y-105410000D01*
D31*
X119989600Y-71069200D02*
X118147600Y-71069200D01*
D32*
X119989600Y-69507600D02*
X119989600Y-71069200D01*
D38*
X119393200Y-70472800D02*
X119393200Y-69227200D01*
D32*
X136042400Y-70040000D02*
X135229600Y-70852800D01*
D38*
X142239999Y-83819999D02*
X142239999Y-83820000D01*
X119989600Y-71069200D02*
X119393200Y-70472800D01*
D32*
X129692400Y-63818000D02*
X125679200Y-63818000D01*
X156210000Y-71005200D02*
X155244800Y-70040000D01*
D34*
X94902000Y-78138000D02*
X107030500Y-78138000D01*
D31*
X176834800Y-105410000D02*
X179374800Y-102870000D01*
D34*
X111760000Y-83820000D02*
X115570000Y-83820000D01*
D31*
X118147600Y-71069200D02*
X116941600Y-72275200D01*
D34*
X115570000Y-83820000D02*
X117475000Y-85725000D01*
X123825000Y-85725000D02*
X117475000Y-85725000D01*
D38*
X135890000Y-71729600D02*
X135890000Y-77470000D01*
X135890000Y-77470000D02*
X142239999Y-83819999D01*
D34*
X111379000Y-82486500D02*
X111379000Y-83439000D01*
D32*
X135229600Y-71069200D02*
X135229600Y-69355200D01*
X135229600Y-70852800D02*
X135229600Y-71069200D01*
D34*
X111379000Y-83439000D02*
X111760000Y-83820000D01*
D31*
X116941600Y-72275200D02*
X116941600Y-85191600D01*
D34*
X94792800Y-78028800D02*
X94902000Y-78138000D01*
D37*
X169812350Y-113397650D02*
X176834800Y-106375200D01*
D31*
X148272500Y-98742500D02*
X146685000Y-97155000D01*
X152082500Y-98742500D02*
X152087044Y-98737956D01*
X154617956Y-98737956D02*
X161290000Y-105410000D01*
X152082500Y-98742500D02*
X148272500Y-98742500D01*
X116941600Y-85191600D02*
X117475000Y-85725000D01*
D32*
X125679200Y-63818000D02*
X124092200Y-65405000D01*
D37*
X169812350Y-114935000D02*
X169812350Y-113397650D01*
D32*
X135229600Y-69355200D02*
X129692400Y-63818000D01*
D34*
X107030500Y-78138000D02*
X111379000Y-82486500D01*
D38*
X135229600Y-71069200D02*
X135890000Y-71729600D01*
D32*
X155244800Y-70040000D02*
X136042400Y-70040000D01*
D31*
X161290000Y-105410000D02*
X176834800Y-105410000D01*
D33*
X145415000Y-130175000D02*
X145415000Y-119380000D01*
X146050000Y-130810000D02*
X145415000Y-130175000D01*
X132080000Y-102870000D02*
X131445000Y-102870000D01*
X145415000Y-119380000D02*
X133350000Y-107315000D01*
X133350000Y-107315000D02*
X133350000Y-104140000D01*
X133350000Y-104140000D02*
X132080000Y-102870000D01*
X146558000Y-131572000D02*
X145752028Y-131572000D01*
X144780000Y-130810000D02*
X144780000Y-120015000D01*
X144780000Y-120015000D02*
X135305800Y-110540800D01*
X135305800Y-110540800D02*
X131495800Y-110540800D01*
X131495800Y-110540800D02*
X131445000Y-110490000D01*
X145542000Y-131572000D02*
X144780000Y-130810000D01*
X147320000Y-130810000D02*
X146558000Y-131572000D01*
X145752028Y-131572000D02*
X145542000Y-131572000D01*
D31*
X128270000Y-118745000D02*
X139065000Y-118745000D01*
D32*
X163830000Y-71005200D02*
X163830000Y-77670000D01*
X165916000Y-79756000D02*
X162052000Y-79756000D01*
X163830000Y-77670000D02*
X167875000Y-81715000D01*
D31*
X127635000Y-118110000D02*
X128270000Y-118745000D01*
D32*
X167875000Y-81715000D02*
X165916000Y-79756000D01*
X178917600Y-92202000D02*
X178733000Y-92202000D01*
X155875000Y-93915000D02*
X156145000Y-93915000D01*
X163195000Y-100965000D02*
X156145000Y-93915000D01*
X144780000Y-93915000D02*
X137730000Y-93915000D01*
X144780000Y-93915000D02*
X155875000Y-93915000D01*
X178917600Y-92227400D02*
X170180000Y-100965000D01*
X137730000Y-93915000D02*
X121285000Y-77470000D01*
D31*
X143510000Y-120650000D02*
X137414000Y-120650000D01*
D32*
X170180000Y-100965000D02*
X163195000Y-100965000D01*
X178917600Y-92202000D02*
X178917600Y-92227400D01*
X167925000Y-91471000D02*
X167925000Y-93965000D01*
X167894000Y-93934000D02*
X167925000Y-93965000D01*
X167894000Y-91440000D02*
X167925000Y-91471000D01*
X167925000Y-93965000D02*
X167925000Y-89377000D01*
D39*
X172212000Y-85090000D02*
X176885600Y-85090000D01*
D37*
X139065000Y-90170000D02*
X127977900Y-79082900D01*
X151130000Y-85725000D02*
X146685000Y-90170000D01*
D32*
X167894000Y-89408000D02*
X167894000Y-91440000D01*
D39*
X167925000Y-89377000D02*
X172212000Y-85090000D01*
X176885600Y-85090000D02*
X178917600Y-87122000D01*
D32*
X167894000Y-91440000D02*
X167894000Y-93934000D01*
X167925000Y-89377000D02*
X167894000Y-89408000D01*
D37*
X146685000Y-90170000D02*
X139065000Y-90170000D01*
D33*
X111633000Y-89408000D02*
X108204000Y-85979000D01*
X108204000Y-84836000D02*
X109220000Y-83820000D01*
X137160000Y-105410000D02*
X137160000Y-100965000D01*
X149860000Y-118110000D02*
X137160000Y-105410000D01*
X125603000Y-89408000D02*
X111633000Y-89408000D01*
X108204000Y-85979000D02*
X108204000Y-84836000D01*
X179374800Y-118110000D02*
X149860000Y-118110000D01*
X137160000Y-100965000D02*
X125603000Y-89408000D01*
X139700000Y-106680000D02*
X139700000Y-97028000D01*
X150495000Y-117475000D02*
X139700000Y-106680000D01*
X179374800Y-110490000D02*
X179374800Y-111760000D01*
X173659800Y-117475000D02*
X150495000Y-117475000D01*
X179374800Y-111760000D02*
X173659800Y-117475000D01*
X152033000Y-102235000D02*
X154439000Y-104641000D01*
X147002500Y-101282500D02*
X147955000Y-102235000D01*
X147955000Y-102235000D02*
X152033000Y-102235000D01*
%TA.AperFunction,Conductor*%
G36*
X182948539Y-59067185D02*
G01*
X182994294Y-59119989D01*
X183005500Y-59171500D01*
X183005500Y-65916000D01*
X182985815Y-65983039D01*
X182933011Y-66028794D01*
X182881500Y-66040000D01*
X181795620Y-66040000D01*
X181728581Y-66020315D01*
X181682826Y-65967511D01*
X181672217Y-65928154D01*
X181664260Y-65847368D01*
X181660373Y-65807897D01*
X181583695Y-65422405D01*
X181583692Y-65422394D01*
X181583691Y-65422391D01*
X181583690Y-65422385D01*
X181469590Y-65046247D01*
X181319171Y-64683103D01*
X181257919Y-64568509D01*
X181133888Y-64336462D01*
X181133887Y-64336460D01*
X181133882Y-64336451D01*
X180915507Y-64009631D01*
X180666150Y-63705788D01*
X180666149Y-63705787D01*
X180666145Y-63705782D01*
X180388217Y-63427854D01*
X180084374Y-63178497D01*
X180084373Y-63178496D01*
X180084369Y-63178493D01*
X179757549Y-62960118D01*
X179757544Y-62960115D01*
X179757537Y-62960111D01*
X179410904Y-62774832D01*
X179410899Y-62774830D01*
X179047754Y-62624410D01*
X178671605Y-62510307D01*
X178671594Y-62510304D01*
X178286102Y-62433626D01*
X177991489Y-62404610D01*
X177894932Y-62395100D01*
X177501868Y-62395100D01*
X177412651Y-62403887D01*
X177110697Y-62433626D01*
X176725205Y-62510304D01*
X176725194Y-62510307D01*
X176349045Y-62624410D01*
X175985900Y-62774830D01*
X175985895Y-62774832D01*
X175639262Y-62960111D01*
X175639244Y-62960122D01*
X175312439Y-63178487D01*
X175312425Y-63178497D01*
X175008582Y-63427854D01*
X174730654Y-63705782D01*
X174481297Y-64009625D01*
X174481287Y-64009639D01*
X174262922Y-64336444D01*
X174262911Y-64336462D01*
X174077632Y-64683095D01*
X174077630Y-64683100D01*
X173927210Y-65046245D01*
X173813107Y-65422394D01*
X173813104Y-65422405D01*
X173736426Y-65807897D01*
X173724583Y-65928154D01*
X173698422Y-65992941D01*
X173641388Y-66033300D01*
X173601180Y-66040000D01*
X158750000Y-66040000D01*
X158750000Y-72901000D01*
X158730315Y-72968039D01*
X158677511Y-73013794D01*
X158626000Y-73025000D01*
X157639066Y-73025000D01*
X157572027Y-73005315D01*
X157526272Y-72952511D01*
X157516328Y-72883353D01*
X157545353Y-72819797D01*
X157563579Y-72802625D01*
X157614667Y-72763422D01*
X157614667Y-72763420D01*
X156572293Y-71721047D01*
X156588942Y-71714151D01*
X156719970Y-71626601D01*
X156831401Y-71515170D01*
X156918951Y-71384142D01*
X156925846Y-71367493D01*
X157968220Y-72409867D01*
X157968222Y-72409867D01*
X158084813Y-72257925D01*
X158084825Y-72257907D01*
X158232290Y-72002492D01*
X158232295Y-72002481D01*
X158345161Y-71730000D01*
X158345164Y-71729990D01*
X158421500Y-71445097D01*
X158421503Y-71445084D01*
X158459998Y-71152683D01*
X158460000Y-71152666D01*
X158460000Y-70857733D01*
X158459998Y-70857716D01*
X158421503Y-70565315D01*
X158421500Y-70565302D01*
X158345164Y-70280409D01*
X158345161Y-70280399D01*
X158232295Y-70007918D01*
X158232290Y-70007907D01*
X158084825Y-69752492D01*
X158084819Y-69752484D01*
X157968221Y-69600531D01*
X156925846Y-70642905D01*
X156918951Y-70626258D01*
X156831401Y-70495230D01*
X156719970Y-70383799D01*
X156588942Y-70296249D01*
X156572293Y-70289352D01*
X157614667Y-69246977D01*
X157462715Y-69130380D01*
X157462707Y-69130374D01*
X157207292Y-68982909D01*
X157207281Y-68982904D01*
X156934800Y-68870038D01*
X156934790Y-68870035D01*
X156649897Y-68793699D01*
X156649884Y-68793696D01*
X156357483Y-68755201D01*
X156357466Y-68755200D01*
X156062534Y-68755200D01*
X156062516Y-68755201D01*
X155770115Y-68793696D01*
X155770102Y-68793699D01*
X155485209Y-68870035D01*
X155485199Y-68870038D01*
X155212718Y-68982904D01*
X155212707Y-68982909D01*
X154957292Y-69130374D01*
X154957276Y-69130385D01*
X154805331Y-69246975D01*
X154805331Y-69246977D01*
X155847706Y-70289352D01*
X155831058Y-70296249D01*
X155700030Y-70383799D01*
X155588599Y-70495230D01*
X155501049Y-70626258D01*
X155494152Y-70642906D01*
X154451777Y-69600531D01*
X154451775Y-69600531D01*
X154335185Y-69752476D01*
X154335174Y-69752492D01*
X154187709Y-70007907D01*
X154187704Y-70007918D01*
X154074838Y-70280399D01*
X154074835Y-70280409D01*
X153998499Y-70565302D01*
X153998496Y-70565315D01*
X153960001Y-70857716D01*
X153960000Y-70857733D01*
X153960000Y-71152666D01*
X153960001Y-71152683D01*
X153998496Y-71445084D01*
X153998499Y-71445097D01*
X154074835Y-71729990D01*
X154074838Y-71730000D01*
X154187704Y-72002481D01*
X154187709Y-72002492D01*
X154335174Y-72257907D01*
X154335180Y-72257915D01*
X154451777Y-72409867D01*
X155494152Y-71367491D01*
X155501049Y-71384142D01*
X155588599Y-71515170D01*
X155700030Y-71626601D01*
X155831058Y-71714151D01*
X155847706Y-71721047D01*
X154805331Y-72763421D01*
X154856421Y-72802624D01*
X154897623Y-72859052D01*
X154901778Y-72928798D01*
X154867566Y-72989719D01*
X154805848Y-73022471D01*
X154780934Y-73025000D01*
X136742071Y-73025000D01*
X136675032Y-73005315D01*
X136629277Y-72952511D01*
X136619333Y-72883353D01*
X136632489Y-72854543D01*
X136634267Y-72827420D01*
X135591893Y-71785047D01*
X135608542Y-71778151D01*
X135739570Y-71690601D01*
X135851001Y-71579170D01*
X135938551Y-71448142D01*
X135945447Y-71431493D01*
X136987820Y-72473867D01*
X136987822Y-72473867D01*
X137104413Y-72321925D01*
X137104425Y-72321907D01*
X137251890Y-72066492D01*
X137251895Y-72066481D01*
X137364761Y-71794000D01*
X137364764Y-71793990D01*
X137441100Y-71509097D01*
X137441103Y-71509084D01*
X137479598Y-71216683D01*
X137479600Y-71216666D01*
X137479600Y-70921733D01*
X137479598Y-70921716D01*
X137472771Y-70869853D01*
X137441103Y-70629315D01*
X137441100Y-70629302D01*
X137364764Y-70344409D01*
X137364761Y-70344399D01*
X137251895Y-70071918D01*
X137251890Y-70071907D01*
X137104425Y-69816492D01*
X137104419Y-69816484D01*
X136987821Y-69664531D01*
X135945446Y-70706905D01*
X135938551Y-70690258D01*
X135851001Y-70559230D01*
X135739570Y-70447799D01*
X135608542Y-70360249D01*
X135591893Y-70353352D01*
X136634267Y-69310977D01*
X136482315Y-69194380D01*
X136482307Y-69194374D01*
X136226892Y-69046909D01*
X136226881Y-69046904D01*
X135954400Y-68934038D01*
X135954390Y-68934035D01*
X135669497Y-68857699D01*
X135669484Y-68857696D01*
X135377083Y-68819201D01*
X135377066Y-68819200D01*
X135082134Y-68819200D01*
X135082116Y-68819201D01*
X134789715Y-68857696D01*
X134789702Y-68857699D01*
X134504809Y-68934035D01*
X134504799Y-68934038D01*
X134232318Y-69046904D01*
X134232307Y-69046909D01*
X133976892Y-69194374D01*
X133976876Y-69194385D01*
X133824931Y-69310975D01*
X133824931Y-69310977D01*
X134867306Y-70353352D01*
X134850658Y-70360249D01*
X134719630Y-70447799D01*
X134608199Y-70559230D01*
X134520649Y-70690258D01*
X134513752Y-70706906D01*
X133468002Y-69661156D01*
X133456353Y-69662831D01*
X133435886Y-69653484D01*
X133413926Y-69648570D01*
X133404715Y-69639248D01*
X133392797Y-69633806D01*
X133380631Y-69614876D01*
X133364816Y-69598871D01*
X133361247Y-69584713D01*
X133355023Y-69575028D01*
X133350000Y-69540093D01*
X133350000Y-66040000D01*
X105920897Y-66040000D01*
X105853858Y-66020315D01*
X105808103Y-65967511D01*
X105798159Y-65898353D01*
X105801122Y-65883906D01*
X105810912Y-65847368D01*
X105821756Y-65765001D01*
X104688482Y-65765001D01*
X104699111Y-65746592D01*
X104740000Y-65593992D01*
X104740000Y-65436010D01*
X104699111Y-65283410D01*
X104688482Y-65265001D01*
X105821755Y-65265001D01*
X105821755Y-65265000D01*
X105810912Y-65182633D01*
X105753235Y-64967380D01*
X105667954Y-64761498D01*
X105667945Y-64761480D01*
X105556535Y-64568509D01*
X105556533Y-64568505D01*
X105420869Y-64391707D01*
X105420862Y-64391699D01*
X105263302Y-64234139D01*
X105263293Y-64234131D01*
X105086495Y-64098467D01*
X105086491Y-64098465D01*
X104893520Y-63987055D01*
X104893502Y-63987046D01*
X104687618Y-63901764D01*
X104472363Y-63844088D01*
X104390000Y-63833243D01*
X104390000Y-64966518D01*
X104371591Y-64955890D01*
X104218991Y-64915001D01*
X104061009Y-64915001D01*
X103908409Y-64955890D01*
X103890000Y-64966518D01*
X103890000Y-63833243D01*
X103889999Y-63833243D01*
X103807636Y-63844088D01*
X103592381Y-63901764D01*
X103386497Y-63987046D01*
X103386479Y-63987055D01*
X103193508Y-64098465D01*
X103193504Y-64098467D01*
X103016706Y-64234131D01*
X102859130Y-64391707D01*
X102723466Y-64568505D01*
X102723464Y-64568509D01*
X102612054Y-64761480D01*
X102612045Y-64761498D01*
X102526764Y-64967380D01*
X102469087Y-65182633D01*
X102458244Y-65265000D01*
X102458245Y-65265001D01*
X103591518Y-65265001D01*
X103580889Y-65283410D01*
X103540000Y-65436010D01*
X103540000Y-65593992D01*
X103580889Y-65746592D01*
X103591518Y-65765001D01*
X102458244Y-65765001D01*
X102469087Y-65847368D01*
X102526764Y-66062621D01*
X102612045Y-66268503D01*
X102612054Y-66268521D01*
X102723464Y-66461492D01*
X102723466Y-66461496D01*
X102859130Y-66638294D01*
X102859138Y-66638303D01*
X103016698Y-66795863D01*
X103016706Y-66795870D01*
X103193504Y-66931534D01*
X103193508Y-66931536D01*
X103386479Y-67042946D01*
X103386497Y-67042955D01*
X103592381Y-67128237D01*
X103807632Y-67185912D01*
X103807645Y-67185915D01*
X103999174Y-67211130D01*
X104063071Y-67239396D01*
X104101542Y-67297721D01*
X104106949Y-67337227D01*
X104070103Y-68783436D01*
X104048717Y-68849953D01*
X103994765Y-68894348D01*
X103962329Y-68903217D01*
X103835552Y-68919907D01*
X103807537Y-68923596D01*
X103768567Y-68934038D01*
X103592219Y-68981290D01*
X103592209Y-68981293D01*
X103386277Y-69066593D01*
X103386273Y-69066595D01*
X103193226Y-69178052D01*
X103193217Y-69178058D01*
X103016377Y-69313751D01*
X103016370Y-69313757D01*
X102858757Y-69471370D01*
X102858751Y-69471377D01*
X102723058Y-69648217D01*
X102723052Y-69648226D01*
X102611595Y-69841273D01*
X102611593Y-69841277D01*
X102526293Y-70047209D01*
X102526290Y-70047219D01*
X102468597Y-70262534D01*
X102468594Y-70262547D01*
X102439501Y-70483533D01*
X102439500Y-70483549D01*
X102439500Y-70706450D01*
X102439501Y-70706466D01*
X102468594Y-70927452D01*
X102468595Y-70927457D01*
X102468596Y-70927463D01*
X102489426Y-71005201D01*
X102526290Y-71142780D01*
X102526293Y-71142790D01*
X102611593Y-71348722D01*
X102611595Y-71348726D01*
X102723052Y-71541774D01*
X102723057Y-71541780D01*
X102723058Y-71541782D01*
X102858751Y-71718622D01*
X102858757Y-71718629D01*
X103016370Y-71876242D01*
X103016376Y-71876247D01*
X103193226Y-72011948D01*
X103386274Y-72123405D01*
X103592219Y-72208710D01*
X103807537Y-72266404D01*
X103870168Y-72274649D01*
X103934063Y-72302915D01*
X103972535Y-72361239D01*
X103977942Y-72400746D01*
X103803811Y-79235355D01*
X103803812Y-79235354D01*
X103803812Y-79235355D01*
X103696590Y-83443801D01*
X99730165Y-79477375D01*
X99730161Y-79477372D01*
X99590866Y-79384297D01*
X99590863Y-79384296D01*
X99475450Y-79336491D01*
X99436082Y-79320184D01*
X99436074Y-79320182D01*
X99271771Y-79287500D01*
X99271767Y-79287500D01*
X95934204Y-79287500D01*
X95904763Y-79278855D01*
X95874777Y-79272332D01*
X95869761Y-79268577D01*
X95867165Y-79267815D01*
X95846523Y-79251181D01*
X95799308Y-79203966D01*
X95765823Y-79142643D01*
X95770807Y-79072951D01*
X95812679Y-79017018D01*
X95821894Y-79010745D01*
X95886145Y-78971115D01*
X96010115Y-78847145D01*
X96102156Y-78697924D01*
X96102158Y-78697919D01*
X96157305Y-78531497D01*
X96157306Y-78531490D01*
X96167799Y-78428786D01*
X96167800Y-78428773D01*
X96167800Y-78278800D01*
X95073130Y-78278800D01*
X95092875Y-78259055D01*
X95142244Y-78173545D01*
X95167800Y-78078170D01*
X95167800Y-77979430D01*
X95142244Y-77884055D01*
X95092875Y-77798545D01*
X95073130Y-77778800D01*
X96167799Y-77778800D01*
X96167799Y-77628828D01*
X96167798Y-77628813D01*
X96157305Y-77526102D01*
X96102158Y-77359680D01*
X96102156Y-77359675D01*
X96010115Y-77210454D01*
X95886145Y-77086484D01*
X95736924Y-76994443D01*
X95736919Y-76994441D01*
X95570497Y-76939294D01*
X95570490Y-76939293D01*
X95467786Y-76928800D01*
X95042800Y-76928800D01*
X95042800Y-77748470D01*
X95023055Y-77728725D01*
X94937545Y-77679356D01*
X94842170Y-77653800D01*
X94743430Y-77653800D01*
X94648055Y-77679356D01*
X94562545Y-77728725D01*
X94542800Y-77748470D01*
X94542800Y-76928800D01*
X94117828Y-76928800D01*
X94117812Y-76928801D01*
X94015102Y-76939294D01*
X93848680Y-76994441D01*
X93848675Y-76994443D01*
X93699454Y-77086484D01*
X93575484Y-77210454D01*
X93483443Y-77359675D01*
X93483441Y-77359680D01*
X93428294Y-77526102D01*
X93428293Y-77526109D01*
X93417800Y-77628813D01*
X93417800Y-77778800D01*
X94512470Y-77778800D01*
X94492725Y-77798545D01*
X94443356Y-77884055D01*
X94417800Y-77979430D01*
X94417800Y-78078170D01*
X94443356Y-78173545D01*
X94492725Y-78259055D01*
X94512470Y-78278800D01*
X93417801Y-78278800D01*
X93417801Y-78428786D01*
X93428294Y-78531497D01*
X93483441Y-78697919D01*
X93483443Y-78697924D01*
X93575484Y-78847145D01*
X93699456Y-78971117D01*
X93763706Y-79010746D01*
X93810431Y-79062693D01*
X93821654Y-79131656D01*
X93793811Y-79195738D01*
X93786292Y-79203966D01*
X93678385Y-79311873D01*
X93576568Y-79452011D01*
X93497928Y-79606352D01*
X93444397Y-79771102D01*
X93417300Y-79942189D01*
X93417300Y-80115410D01*
X93441111Y-80265752D01*
X93444398Y-80286501D01*
X93497927Y-80451245D01*
X93576568Y-80605588D01*
X93678386Y-80745728D01*
X93800872Y-80868214D01*
X93800878Y-80868218D01*
X93883823Y-80928483D01*
X93926489Y-80983813D01*
X93932467Y-81053426D01*
X93899861Y-81115221D01*
X93883823Y-81129117D01*
X93800878Y-81189381D01*
X93800869Y-81189388D01*
X93678388Y-81311869D01*
X93678388Y-81311870D01*
X93678386Y-81311872D01*
X93634659Y-81372056D01*
X93576568Y-81452011D01*
X93497928Y-81606352D01*
X93444397Y-81771102D01*
X93440054Y-81798523D01*
X93417300Y-81942189D01*
X93417300Y-82115411D01*
X93444398Y-82286501D01*
X93497927Y-82451245D01*
X93576568Y-82605588D01*
X93678386Y-82745728D01*
X93800872Y-82868214D01*
X93818057Y-82880699D01*
X93883823Y-82928483D01*
X93926489Y-82983813D01*
X93932467Y-83053426D01*
X93899861Y-83115221D01*
X93883823Y-83129117D01*
X93800878Y-83189381D01*
X93800869Y-83189388D01*
X93678388Y-83311869D01*
X93678388Y-83311870D01*
X93678386Y-83311872D01*
X93676315Y-83314723D01*
X93576568Y-83452011D01*
X93497928Y-83606352D01*
X93444397Y-83771102D01*
X93417300Y-83942189D01*
X93417300Y-84115410D01*
X93433152Y-84215500D01*
X93444398Y-84286501D01*
X93497927Y-84451245D01*
X93576568Y-84605588D01*
X93678386Y-84745728D01*
X93800872Y-84868214D01*
X93800878Y-84868218D01*
X93883823Y-84928483D01*
X93926489Y-84983813D01*
X93932467Y-85053426D01*
X93899861Y-85115221D01*
X93883823Y-85129117D01*
X93800878Y-85189381D01*
X93800869Y-85189388D01*
X93678388Y-85311869D01*
X93678388Y-85311870D01*
X93678386Y-85311872D01*
X93634659Y-85372056D01*
X93576568Y-85452011D01*
X93497928Y-85606352D01*
X93444397Y-85771102D01*
X93417300Y-85942189D01*
X93417300Y-85979000D01*
X89721700Y-85979000D01*
X89721700Y-65843471D01*
X90843100Y-65843471D01*
X90843100Y-66236528D01*
X90881626Y-66627702D01*
X90958304Y-67013194D01*
X90958307Y-67013205D01*
X91072410Y-67389354D01*
X91222830Y-67752499D01*
X91222832Y-67752504D01*
X91408111Y-68099137D01*
X91408122Y-68099155D01*
X91626487Y-68425960D01*
X91626497Y-68425974D01*
X91875854Y-68729817D01*
X92153782Y-69007745D01*
X92153787Y-69007749D01*
X92153788Y-69007750D01*
X92457631Y-69257107D01*
X92784451Y-69475482D01*
X92784460Y-69475487D01*
X92784462Y-69475488D01*
X93131095Y-69660767D01*
X93131097Y-69660767D01*
X93131103Y-69660771D01*
X93494247Y-69811190D01*
X93870385Y-69925290D01*
X93870391Y-69925291D01*
X93870394Y-69925292D01*
X93870405Y-69925295D01*
X94255897Y-70001973D01*
X94647068Y-70040500D01*
X94647071Y-70040500D01*
X95040129Y-70040500D01*
X95040132Y-70040500D01*
X95431303Y-70001973D01*
X95506348Y-69987045D01*
X95816794Y-69925295D01*
X95816805Y-69925292D01*
X95816805Y-69925291D01*
X95816815Y-69925290D01*
X96192953Y-69811190D01*
X96556097Y-69660771D01*
X96902749Y-69475482D01*
X97229569Y-69257107D01*
X97533412Y-69007750D01*
X97811350Y-68729812D01*
X98060707Y-68425969D01*
X98279082Y-68099149D01*
X98464371Y-67752497D01*
X98614790Y-67389353D01*
X98728890Y-67013215D01*
X98728892Y-67013205D01*
X98728895Y-67013194D01*
X98790645Y-66702748D01*
X98805573Y-66627703D01*
X98844100Y-66236532D01*
X98844100Y-65843468D01*
X98805573Y-65452297D01*
X98780990Y-65328709D01*
X98780990Y-65328706D01*
X98728895Y-65066806D01*
X98728892Y-65066794D01*
X98728891Y-65066791D01*
X98728890Y-65066785D01*
X98614790Y-64690647D01*
X98464371Y-64327503D01*
X98294469Y-64009639D01*
X98279088Y-63980862D01*
X98279087Y-63980860D01*
X98279082Y-63980851D01*
X98060707Y-63654031D01*
X97811350Y-63350188D01*
X97811349Y-63350187D01*
X97811345Y-63350182D01*
X97533417Y-63072254D01*
X97229574Y-62822897D01*
X97229573Y-62822896D01*
X97229569Y-62822893D01*
X96902749Y-62604518D01*
X96902744Y-62604515D01*
X96902737Y-62604511D01*
X96556104Y-62419232D01*
X96556099Y-62419230D01*
X96192954Y-62268810D01*
X95816805Y-62154707D01*
X95816794Y-62154704D01*
X95431302Y-62078026D01*
X95136689Y-62049010D01*
X95040132Y-62039500D01*
X94647068Y-62039500D01*
X94557851Y-62048287D01*
X94255897Y-62078026D01*
X93870405Y-62154704D01*
X93870394Y-62154707D01*
X93494245Y-62268810D01*
X93131100Y-62419230D01*
X93131095Y-62419232D01*
X92784462Y-62604511D01*
X92784444Y-62604522D01*
X92457639Y-62822887D01*
X92457625Y-62822897D01*
X92153782Y-63072254D01*
X91875854Y-63350182D01*
X91626497Y-63654025D01*
X91626487Y-63654039D01*
X91408122Y-63980844D01*
X91408111Y-63980862D01*
X91222832Y-64327495D01*
X91222830Y-64327500D01*
X91072410Y-64690645D01*
X90958307Y-65066794D01*
X90958304Y-65066805D01*
X90881626Y-65452297D01*
X90867671Y-65593992D01*
X90846604Y-65807897D01*
X90843100Y-65843471D01*
X89721700Y-65843471D01*
X89721700Y-59171500D01*
X89741385Y-59104461D01*
X89794189Y-59058706D01*
X89845700Y-59047500D01*
X182881500Y-59047500D01*
X182948539Y-59067185D01*
G37*
%TD.AperFunction*%
%TA.AperFunction,Conductor*%
G36*
X98851388Y-81008185D02*
G01*
X98872030Y-81024819D01*
X103636825Y-85789614D01*
X103632000Y-85979000D01*
X97770146Y-85979000D01*
X96177188Y-84386042D01*
X96143703Y-84324719D01*
X96142396Y-84278963D01*
X96168300Y-84115410D01*
X96168300Y-83942189D01*
X96141202Y-83771102D01*
X96141202Y-83771099D01*
X96087673Y-83606355D01*
X96009032Y-83452012D01*
X95907214Y-83311872D01*
X95784728Y-83189386D01*
X95701775Y-83129117D01*
X95659111Y-83073788D01*
X95653132Y-83004174D01*
X95685738Y-82942379D01*
X95701776Y-82928482D01*
X95704580Y-82926445D01*
X95784728Y-82868214D01*
X95907214Y-82745728D01*
X96009032Y-82605588D01*
X96087673Y-82451245D01*
X96141202Y-82286501D01*
X96168300Y-82115411D01*
X96168300Y-81942189D01*
X96141202Y-81771099D01*
X96087673Y-81606355D01*
X96009032Y-81452012D01*
X95907214Y-81311872D01*
X95795523Y-81200181D01*
X95762038Y-81138858D01*
X95767022Y-81069166D01*
X95808894Y-81013233D01*
X95874358Y-80988816D01*
X95883204Y-80988500D01*
X98784349Y-80988500D01*
X98851388Y-81008185D01*
G37*
%TD.AperFunction*%
%TA.AperFunction,Conductor*%
G36*
X134520649Y-71448142D02*
G01*
X134608199Y-71579170D01*
X134719630Y-71690601D01*
X134850658Y-71778151D01*
X134867306Y-71785047D01*
X133824931Y-72827421D01*
X133826332Y-72848801D01*
X133833817Y-72859051D01*
X133837972Y-72928797D01*
X133803760Y-72989718D01*
X133742043Y-73022471D01*
X133717128Y-73025000D01*
X133474000Y-73025000D01*
X133406961Y-73005315D01*
X133361206Y-72952511D01*
X133350000Y-72901000D01*
X133350000Y-72598305D01*
X133369685Y-72531266D01*
X133422489Y-72485511D01*
X133468103Y-72477141D01*
X134513752Y-71431491D01*
X134520649Y-71448142D01*
G37*
%TD.AperFunction*%
%TA.AperFunction,Conductor*%
G36*
X115426283Y-79166018D02*
G01*
X115455144Y-79191270D01*
X115694538Y-79477375D01*
X123289204Y-88553927D01*
X123317128Y-88617973D01*
X123305993Y-88686950D01*
X123259334Y-88738957D01*
X123194104Y-88757500D01*
X111953808Y-88757500D01*
X111886769Y-88737815D01*
X111866127Y-88721181D01*
X108890819Y-85745873D01*
X108857334Y-85684550D01*
X108854500Y-85658192D01*
X108854500Y-85156808D01*
X108863144Y-85127367D01*
X108869668Y-85097381D01*
X108873422Y-85092365D01*
X108874185Y-85089769D01*
X108890819Y-85069127D01*
X108902732Y-85057214D01*
X108964055Y-85023729D01*
X109009809Y-85022422D01*
X109123945Y-85040500D01*
X109123947Y-85040500D01*
X109316054Y-85040500D01*
X109316055Y-85040500D01*
X109505801Y-85010447D01*
X109688509Y-84951082D01*
X109859681Y-84863865D01*
X110015102Y-84750945D01*
X110150945Y-84615102D01*
X110263865Y-84459681D01*
X110351082Y-84288509D01*
X110351143Y-84288321D01*
X110372332Y-84223109D01*
X110411769Y-84165433D01*
X110476127Y-84138234D01*
X110544973Y-84150148D01*
X110596450Y-84197392D01*
X110608194Y-84223107D01*
X110629383Y-84288321D01*
X110716561Y-84459415D01*
X110737798Y-84488646D01*
X111360000Y-83866445D01*
X111360000Y-83872661D01*
X111387259Y-83974394D01*
X111439920Y-84065606D01*
X111514394Y-84140080D01*
X111605606Y-84192741D01*
X111707339Y-84220000D01*
X111713554Y-84220000D01*
X111091351Y-84842200D01*
X111091352Y-84842201D01*
X111120577Y-84863434D01*
X111291678Y-84950616D01*
X111474315Y-85009959D01*
X111663985Y-85040000D01*
X111856015Y-85040000D01*
X112045684Y-85009959D01*
X112228321Y-84950616D01*
X112399419Y-84863436D01*
X112428646Y-84842201D01*
X112428646Y-84842200D01*
X111806447Y-84220000D01*
X111812661Y-84220000D01*
X111914394Y-84192741D01*
X112005606Y-84140080D01*
X112080080Y-84065606D01*
X112132741Y-83974394D01*
X112160000Y-83872661D01*
X112160000Y-83866446D01*
X112782200Y-84488646D01*
X112782201Y-84488646D01*
X112803436Y-84459419D01*
X112890616Y-84288321D01*
X112949959Y-84105684D01*
X112980000Y-83916015D01*
X112980000Y-83723984D01*
X112949959Y-83534315D01*
X112890616Y-83351678D01*
X112803434Y-83180577D01*
X112782201Y-83151352D01*
X112782200Y-83151351D01*
X112160000Y-83773552D01*
X112160000Y-83767339D01*
X112132741Y-83665606D01*
X112080080Y-83574394D01*
X112005606Y-83499920D01*
X111914394Y-83447259D01*
X111812661Y-83420000D01*
X111806447Y-83420000D01*
X112428646Y-82797798D01*
X112399415Y-82776561D01*
X112228321Y-82689383D01*
X112045684Y-82630040D01*
X111856015Y-82600000D01*
X111663985Y-82600000D01*
X111474315Y-82630040D01*
X111291678Y-82689383D01*
X111120578Y-82776564D01*
X111091352Y-82797798D01*
X111091351Y-82797798D01*
X111713554Y-83420000D01*
X111707339Y-83420000D01*
X111605606Y-83447259D01*
X111514394Y-83499920D01*
X111439920Y-83574394D01*
X111387259Y-83665606D01*
X111360000Y-83767339D01*
X111360000Y-83773553D01*
X110737798Y-83151351D01*
X110737798Y-83151352D01*
X110716564Y-83180578D01*
X110629384Y-83351677D01*
X110608194Y-83416893D01*
X110568755Y-83474568D01*
X110504396Y-83501765D01*
X110435550Y-83489850D01*
X110384075Y-83442605D01*
X110372332Y-83416890D01*
X110351084Y-83351495D01*
X110318907Y-83288344D01*
X110263865Y-83180319D01*
X110150945Y-83024898D01*
X110015102Y-82889055D01*
X109859681Y-82776135D01*
X109800008Y-82745730D01*
X109688506Y-82688916D01*
X109505802Y-82629553D01*
X109410928Y-82614526D01*
X109316055Y-82599500D01*
X109123945Y-82599500D01*
X109060696Y-82609517D01*
X108934197Y-82629553D01*
X108751493Y-82688916D01*
X108580318Y-82776135D01*
X108550502Y-82797798D01*
X108424898Y-82889055D01*
X108424896Y-82889057D01*
X108424895Y-82889057D01*
X108289057Y-83024895D01*
X108289057Y-83024896D01*
X108289055Y-83024898D01*
X108253534Y-83073788D01*
X108176135Y-83180318D01*
X108088916Y-83351493D01*
X108067931Y-83416081D01*
X108028494Y-83473756D01*
X107964135Y-83500955D01*
X107895289Y-83489041D01*
X107843813Y-83441797D01*
X107832069Y-83416081D01*
X107811083Y-83351493D01*
X107778907Y-83288344D01*
X107723865Y-83180319D01*
X107610945Y-83024898D01*
X107475102Y-82889055D01*
X107319681Y-82776135D01*
X107260008Y-82745730D01*
X107148506Y-82688916D01*
X106965802Y-82629553D01*
X106870928Y-82614526D01*
X106776055Y-82599500D01*
X106583945Y-82599500D01*
X106520696Y-82609517D01*
X106394197Y-82629553D01*
X106211493Y-82688916D01*
X106040318Y-82776135D01*
X106010502Y-82797798D01*
X105884898Y-82889055D01*
X105884896Y-82889057D01*
X105884895Y-82889057D01*
X105749057Y-83024895D01*
X105749057Y-83024896D01*
X105749055Y-83024898D01*
X105713534Y-83073788D01*
X105636135Y-83180318D01*
X105548916Y-83351493D01*
X105489553Y-83534197D01*
X105459500Y-83723945D01*
X105459500Y-83916054D01*
X105489553Y-84105802D01*
X105548916Y-84288506D01*
X105548918Y-84288509D01*
X105636135Y-84459681D01*
X105749055Y-84615102D01*
X105884898Y-84750945D01*
X106040319Y-84863865D01*
X106184539Y-84937349D01*
X106211493Y-84951083D01*
X106302845Y-84980764D01*
X106394199Y-85010447D01*
X106583945Y-85040500D01*
X106583946Y-85040500D01*
X106776054Y-85040500D01*
X106776055Y-85040500D01*
X106965801Y-85010447D01*
X107148509Y-84951082D01*
X107319681Y-84863865D01*
X107349499Y-84842201D01*
X107356614Y-84837032D01*
X107422420Y-84813551D01*
X107490474Y-84829376D01*
X107539169Y-84879481D01*
X107553500Y-84937349D01*
X107553500Y-86043069D01*
X107569127Y-86121627D01*
X107578499Y-86168744D01*
X107627535Y-86287127D01*
X107658260Y-86333111D01*
X107698726Y-86393673D01*
X111218327Y-89913274D01*
X111218330Y-89913276D01*
X111296747Y-89965672D01*
X111324873Y-89984465D01*
X111443256Y-90033501D01*
X111443260Y-90033501D01*
X111443261Y-90033502D01*
X111568928Y-90058500D01*
X111568931Y-90058500D01*
X114010500Y-90058500D01*
X114077539Y-90078185D01*
X114123294Y-90130989D01*
X114134500Y-90182500D01*
X114134500Y-90248846D01*
X114165261Y-90403489D01*
X114165264Y-90403501D01*
X114225602Y-90549172D01*
X114225609Y-90549185D01*
X114313210Y-90680288D01*
X114313213Y-90680292D01*
X114424707Y-90791786D01*
X114424711Y-90791789D01*
X114555814Y-90879390D01*
X114555827Y-90879397D01*
X114674333Y-90928483D01*
X114701503Y-90939737D01*
X114853805Y-90970032D01*
X114856153Y-90970499D01*
X114856156Y-90970500D01*
X114856158Y-90970500D01*
X115013844Y-90970500D01*
X115013845Y-90970499D01*
X115168497Y-90939737D01*
X115247969Y-90906819D01*
X115312864Y-90879939D01*
X115360316Y-90870500D01*
X119462684Y-90870500D01*
X119510136Y-90879939D01*
X119575031Y-90906819D01*
X119654503Y-90939737D01*
X119806805Y-90970032D01*
X119809153Y-90970499D01*
X119809156Y-90970500D01*
X119809158Y-90970500D01*
X119966844Y-90970500D01*
X119966845Y-90970499D01*
X120121497Y-90939737D01*
X120200969Y-90906819D01*
X120265864Y-90879939D01*
X120313316Y-90870500D01*
X124905881Y-90870500D01*
X124935321Y-90879144D01*
X124965308Y-90885668D01*
X124970323Y-90889422D01*
X124972920Y-90890185D01*
X124993562Y-90906819D01*
X125086328Y-90999585D01*
X125113208Y-91039814D01*
X125173002Y-91184172D01*
X125173009Y-91184185D01*
X125260610Y-91315288D01*
X125260613Y-91315292D01*
X125372107Y-91426786D01*
X125372111Y-91426789D01*
X125503214Y-91514390D01*
X125503227Y-91514397D01*
X125648898Y-91574735D01*
X125648903Y-91574737D01*
X125803558Y-91605500D01*
X125803559Y-91605500D01*
X125807485Y-91606281D01*
X125869396Y-91638665D01*
X125878389Y-91648319D01*
X129591490Y-96085928D01*
X129619414Y-96149973D01*
X129608279Y-96218950D01*
X129561620Y-96270957D01*
X129496390Y-96289500D01*
X128786903Y-96289500D01*
X128553631Y-96326446D01*
X128329003Y-96399433D01*
X128118566Y-96506657D01*
X128009550Y-96585862D01*
X127927490Y-96645483D01*
X127927488Y-96645485D01*
X127927487Y-96645485D01*
X127760485Y-96812487D01*
X127760485Y-96812488D01*
X127760483Y-96812490D01*
X127712121Y-96879055D01*
X127621657Y-97003566D01*
X127514433Y-97214003D01*
X127441446Y-97438631D01*
X127404500Y-97671902D01*
X127404500Y-97908097D01*
X127441446Y-98141368D01*
X127514433Y-98365996D01*
X127621657Y-98576433D01*
X127760483Y-98767510D01*
X127927490Y-98934517D01*
X128118567Y-99073343D01*
X128154852Y-99091831D01*
X128329003Y-99180566D01*
X128329005Y-99180566D01*
X128329008Y-99180568D01*
X128420692Y-99210358D01*
X128553631Y-99253553D01*
X128786903Y-99290500D01*
X128786908Y-99290500D01*
X130137111Y-99290500D01*
X130204150Y-99310185D01*
X130224792Y-99326819D01*
X133597490Y-102699517D01*
X133691311Y-102767682D01*
X133703386Y-102776455D01*
X133746051Y-102831785D01*
X133754500Y-102876773D01*
X133754500Y-103325192D01*
X133734815Y-103392231D01*
X133682011Y-103437986D01*
X133612853Y-103447930D01*
X133549297Y-103418905D01*
X133542819Y-103412873D01*
X132743223Y-102613277D01*
X132712973Y-102563914D01*
X132691315Y-102497259D01*
X132650220Y-102370781D01*
X132557287Y-102188390D01*
X132525092Y-102144077D01*
X132436971Y-102022786D01*
X132292213Y-101878028D01*
X132126613Y-101757715D01*
X132126612Y-101757714D01*
X132126610Y-101757713D01*
X132069653Y-101728691D01*
X131944223Y-101664781D01*
X131749534Y-101601522D01*
X131574995Y-101573878D01*
X131547352Y-101569500D01*
X131342648Y-101569500D01*
X131318329Y-101573351D01*
X131140465Y-101601522D01*
X130945776Y-101664781D01*
X130763386Y-101757715D01*
X130597786Y-101878028D01*
X130453028Y-102022786D01*
X130332715Y-102188386D01*
X130239781Y-102370776D01*
X130176522Y-102565465D01*
X130144500Y-102767648D01*
X130144500Y-102972351D01*
X130176522Y-103174534D01*
X130239781Y-103369223D01*
X130303691Y-103494653D01*
X130332585Y-103551359D01*
X130332715Y-103551613D01*
X130453028Y-103717213D01*
X130453034Y-103717219D01*
X130597781Y-103861966D01*
X130691452Y-103930021D01*
X130734117Y-103985350D01*
X130740096Y-104054963D01*
X130707491Y-104116759D01*
X130657571Y-104148045D01*
X130575666Y-104175186D01*
X130575663Y-104175187D01*
X130426342Y-104267289D01*
X130302289Y-104391342D01*
X130210187Y-104540663D01*
X130210186Y-104540666D01*
X130155001Y-104707203D01*
X130155001Y-104707204D01*
X130155000Y-104707204D01*
X130144500Y-104809983D01*
X130144500Y-106010001D01*
X130144501Y-106010018D01*
X130155000Y-106112796D01*
X130155001Y-106112799D01*
X130166411Y-106147231D01*
X130210186Y-106279334D01*
X130302288Y-106428656D01*
X130426344Y-106552712D01*
X130575666Y-106644814D01*
X130742203Y-106699999D01*
X130844991Y-106710500D01*
X132045008Y-106710499D01*
X132147797Y-106699999D01*
X132314334Y-106644814D01*
X132463656Y-106552712D01*
X132487819Y-106528549D01*
X132549142Y-106495064D01*
X132618834Y-106500048D01*
X132674767Y-106541920D01*
X132699184Y-106607384D01*
X132699500Y-106616230D01*
X132699500Y-107379069D01*
X132699500Y-107379071D01*
X132699499Y-107379071D01*
X132724497Y-107504738D01*
X132724499Y-107504744D01*
X132773535Y-107623127D01*
X132844723Y-107729669D01*
X132844726Y-107729673D01*
X132844727Y-107729674D01*
X134793673Y-109678619D01*
X134827158Y-109739942D01*
X134822174Y-109809634D01*
X134780302Y-109865567D01*
X134714838Y-109889984D01*
X134705992Y-109890300D01*
X132675009Y-109890300D01*
X132607970Y-109870615D01*
X132564524Y-109822594D01*
X132557287Y-109808390D01*
X132525092Y-109764077D01*
X132436971Y-109642786D01*
X132292213Y-109498028D01*
X132126613Y-109377715D01*
X132126612Y-109377714D01*
X132126610Y-109377713D01*
X132069653Y-109348691D01*
X131944223Y-109284781D01*
X131749534Y-109221522D01*
X131574995Y-109193878D01*
X131547352Y-109189500D01*
X131342648Y-109189500D01*
X131318329Y-109193351D01*
X131140465Y-109221522D01*
X130945776Y-109284781D01*
X130763386Y-109377715D01*
X130597786Y-109498028D01*
X130453028Y-109642786D01*
X130332715Y-109808386D01*
X130239781Y-109990776D01*
X130176522Y-110185465D01*
X130144500Y-110387648D01*
X130144500Y-110592352D01*
X130146409Y-110604404D01*
X130176522Y-110794534D01*
X130239781Y-110989223D01*
X130332715Y-111171613D01*
X130453028Y-111337213D01*
X130453034Y-111337219D01*
X130597781Y-111481966D01*
X130691452Y-111550021D01*
X130734117Y-111605350D01*
X130740096Y-111674963D01*
X130707491Y-111736759D01*
X130657571Y-111768045D01*
X130575666Y-111795186D01*
X130575663Y-111795187D01*
X130426342Y-111887289D01*
X130302289Y-112011342D01*
X130210187Y-112160663D01*
X130210186Y-112160666D01*
X130155001Y-112327203D01*
X130155001Y-112327204D01*
X130155000Y-112327204D01*
X130144500Y-112429983D01*
X130144500Y-113630001D01*
X130144501Y-113630018D01*
X130155000Y-113732796D01*
X130155001Y-113732799D01*
X130210185Y-113899331D01*
X130210187Y-113899336D01*
X130226606Y-113925956D01*
X130302288Y-114048656D01*
X130426344Y-114172712D01*
X130575666Y-114264814D01*
X130742203Y-114319999D01*
X130844991Y-114330500D01*
X132045008Y-114330499D01*
X132147797Y-114319999D01*
X132314334Y-114264814D01*
X132463656Y-114172712D01*
X132587712Y-114048656D01*
X132679814Y-113899334D01*
X132734999Y-113732797D01*
X132745500Y-113630009D01*
X132745499Y-112429992D01*
X132743916Y-112414500D01*
X132734999Y-112327203D01*
X132734998Y-112327200D01*
X132728867Y-112308697D01*
X132679814Y-112160666D01*
X132587712Y-112011344D01*
X132463656Y-111887288D01*
X132314334Y-111795186D01*
X132232427Y-111768044D01*
X132174984Y-111728272D01*
X132148161Y-111663756D01*
X132160476Y-111594980D01*
X132198547Y-111550021D01*
X132292219Y-111481966D01*
X132436966Y-111337219D01*
X132436970Y-111337213D01*
X132505845Y-111242415D01*
X132561175Y-111199749D01*
X132606163Y-111191300D01*
X134984992Y-111191300D01*
X135052031Y-111210985D01*
X135072673Y-111227619D01*
X139220164Y-115375110D01*
X143282874Y-119437819D01*
X143316359Y-119499142D01*
X143311375Y-119568834D01*
X143269503Y-119624767D01*
X143204039Y-119649184D01*
X143195193Y-119649500D01*
X139874784Y-119649500D01*
X139807745Y-119629815D01*
X139761990Y-119577011D01*
X139752046Y-119507853D01*
X139781071Y-119444297D01*
X139787103Y-119437819D01*
X139842136Y-119382785D01*
X139842139Y-119382782D01*
X139951632Y-119218914D01*
X140027051Y-119036835D01*
X140065500Y-118843541D01*
X140065500Y-118646459D01*
X140065500Y-118646456D01*
X140027052Y-118453170D01*
X140027051Y-118453169D01*
X140027051Y-118453165D01*
X140005787Y-118401828D01*
X139951635Y-118271092D01*
X139951628Y-118271079D01*
X139842139Y-118107218D01*
X139842136Y-118107214D01*
X139702785Y-117967863D01*
X139702781Y-117967860D01*
X139538920Y-117858371D01*
X139538907Y-117858364D01*
X139356839Y-117782950D01*
X139356829Y-117782947D01*
X139163543Y-117744500D01*
X139163541Y-117744500D01*
X128735783Y-117744500D01*
X128668744Y-117724815D01*
X128648102Y-117708181D01*
X128272784Y-117332863D01*
X128272780Y-117332860D01*
X128108920Y-117223372D01*
X128108910Y-117223367D01*
X127926836Y-117147949D01*
X127926828Y-117147947D01*
X127733543Y-117109500D01*
X127733540Y-117109500D01*
X127536460Y-117109500D01*
X127536457Y-117109500D01*
X127343171Y-117147947D01*
X127343163Y-117147949D01*
X127161089Y-117223367D01*
X127161079Y-117223372D01*
X126997219Y-117332860D01*
X126997215Y-117332863D01*
X126857863Y-117472215D01*
X126857860Y-117472219D01*
X126748372Y-117636079D01*
X126748367Y-117636089D01*
X126672949Y-117818163D01*
X126672947Y-117818171D01*
X126634500Y-118011455D01*
X126634500Y-118208544D01*
X126672947Y-118401828D01*
X126672949Y-118401836D01*
X126748367Y-118583910D01*
X126748372Y-118583920D01*
X126857860Y-118747780D01*
X126857863Y-118747784D01*
X127632215Y-119522137D01*
X127632219Y-119522140D01*
X127796079Y-119631628D01*
X127796085Y-119631631D01*
X127796086Y-119631632D01*
X127978165Y-119707052D01*
X128171455Y-119745500D01*
X128171458Y-119745501D01*
X128171460Y-119745501D01*
X128374655Y-119745501D01*
X128374675Y-119745500D01*
X136604216Y-119745500D01*
X136671255Y-119765185D01*
X136717010Y-119817989D01*
X136726954Y-119887147D01*
X136697929Y-119950703D01*
X136691897Y-119957181D01*
X136636863Y-120012214D01*
X136636860Y-120012218D01*
X136527371Y-120176079D01*
X136527364Y-120176092D01*
X136451950Y-120358160D01*
X136451947Y-120358170D01*
X136413500Y-120551456D01*
X136413500Y-120551459D01*
X136413500Y-120748541D01*
X136413500Y-120748543D01*
X136413499Y-120748543D01*
X136451947Y-120941829D01*
X136451950Y-120941839D01*
X136527364Y-121123907D01*
X136527371Y-121123920D01*
X136636860Y-121287781D01*
X136636863Y-121287785D01*
X136776214Y-121427136D01*
X136776218Y-121427139D01*
X136940079Y-121536628D01*
X136940092Y-121536635D01*
X137023425Y-121571152D01*
X137122165Y-121612051D01*
X137122169Y-121612051D01*
X137122170Y-121612052D01*
X137315456Y-121650500D01*
X137315459Y-121650500D01*
X143608543Y-121650500D01*
X143738582Y-121624632D01*
X143801835Y-121612051D01*
X143958048Y-121547345D01*
X144027517Y-121539877D01*
X144089996Y-121571152D01*
X144125648Y-121631241D01*
X144129500Y-121661907D01*
X144129500Y-130874070D01*
X144138935Y-130921499D01*
X144138935Y-130921501D01*
X144154497Y-130999736D01*
X144154499Y-130999744D01*
X144203534Y-131118125D01*
X144274726Y-131224673D01*
X145127326Y-132077273D01*
X145127329Y-132077275D01*
X145127331Y-132077277D01*
X145233873Y-132148465D01*
X145352256Y-132197501D01*
X145352260Y-132197501D01*
X145352261Y-132197502D01*
X145477928Y-132222500D01*
X145477931Y-132222500D01*
X146622071Y-132222500D01*
X146706615Y-132205682D01*
X146747744Y-132197501D01*
X146866127Y-132148465D01*
X146972669Y-132077277D01*
X147422932Y-131627012D01*
X147484252Y-131593530D01*
X147486317Y-131593099D01*
X147553497Y-131579737D01*
X147699179Y-131519394D01*
X147830289Y-131431789D01*
X147941789Y-131320289D01*
X148029394Y-131189179D01*
X148089737Y-131043497D01*
X148120500Y-130888842D01*
X148120500Y-130731158D01*
X148120500Y-130731155D01*
X148120499Y-130731153D01*
X148089738Y-130576510D01*
X148089737Y-130576503D01*
X148089735Y-130576498D01*
X148029397Y-130430827D01*
X148029390Y-130430814D01*
X147941789Y-130299711D01*
X147941786Y-130299707D01*
X147830292Y-130188213D01*
X147830288Y-130188210D01*
X147699185Y-130100609D01*
X147699172Y-130100602D01*
X147553501Y-130040264D01*
X147553489Y-130040261D01*
X147398845Y-130009500D01*
X147398842Y-130009500D01*
X147241158Y-130009500D01*
X147241155Y-130009500D01*
X147086510Y-130040261D01*
X147086498Y-130040264D01*
X146940827Y-130100602D01*
X146940814Y-130100609D01*
X146809711Y-130188210D01*
X146809707Y-130188213D01*
X146772681Y-130225240D01*
X146711358Y-130258725D01*
X146641666Y-130253741D01*
X146597319Y-130225240D01*
X146560292Y-130188213D01*
X146560288Y-130188210D01*
X146429185Y-130100609D01*
X146429172Y-130100602D01*
X146283501Y-130040264D01*
X146283489Y-130040261D01*
X146216420Y-130026920D01*
X146199663Y-130018155D01*
X146181184Y-130014135D01*
X146156145Y-129995390D01*
X146154509Y-129994535D01*
X146152930Y-129992984D01*
X146101819Y-129941873D01*
X146068334Y-129880550D01*
X146065500Y-129854192D01*
X146065500Y-129343471D01*
X173799500Y-129343471D01*
X173799500Y-129736528D01*
X173838026Y-130127702D01*
X173914704Y-130513194D01*
X173914707Y-130513205D01*
X174028810Y-130889354D01*
X174179230Y-131252499D01*
X174179232Y-131252504D01*
X174364511Y-131599137D01*
X174364522Y-131599155D01*
X174582887Y-131925960D01*
X174582897Y-131925974D01*
X174832254Y-132229817D01*
X175110182Y-132507745D01*
X175110187Y-132507749D01*
X175110188Y-132507750D01*
X175414031Y-132757107D01*
X175740851Y-132975482D01*
X175740860Y-132975487D01*
X175740862Y-132975488D01*
X176087495Y-133160767D01*
X176087497Y-133160767D01*
X176087503Y-133160771D01*
X176450647Y-133311190D01*
X176826785Y-133425290D01*
X176826791Y-133425291D01*
X176826794Y-133425292D01*
X176826805Y-133425295D01*
X177212297Y-133501973D01*
X177603468Y-133540500D01*
X177603471Y-133540500D01*
X177996529Y-133540500D01*
X177996532Y-133540500D01*
X178387703Y-133501973D01*
X178462748Y-133487045D01*
X178773194Y-133425295D01*
X178773205Y-133425292D01*
X178773205Y-133425291D01*
X178773215Y-133425290D01*
X179149353Y-133311190D01*
X179512497Y-133160771D01*
X179859149Y-132975482D01*
X180185969Y-132757107D01*
X180489812Y-132507750D01*
X180767750Y-132229812D01*
X181017107Y-131925969D01*
X181235482Y-131599149D01*
X181420771Y-131252497D01*
X181571190Y-130889353D01*
X181685290Y-130513215D01*
X181685292Y-130513205D01*
X181685295Y-130513194D01*
X181761973Y-130127702D01*
X181800500Y-129736532D01*
X181800500Y-129343468D01*
X181761973Y-128952297D01*
X181685295Y-128566805D01*
X181685292Y-128566794D01*
X181685291Y-128566791D01*
X181685290Y-128566785D01*
X181571190Y-128190647D01*
X181420771Y-127827503D01*
X181235482Y-127480851D01*
X181017107Y-127154031D01*
X180767750Y-126850188D01*
X180767749Y-126850187D01*
X180767745Y-126850182D01*
X180489817Y-126572254D01*
X180185974Y-126322897D01*
X180185973Y-126322896D01*
X180185969Y-126322893D01*
X179859149Y-126104518D01*
X179859144Y-126104515D01*
X179859137Y-126104511D01*
X179512504Y-125919232D01*
X179512499Y-125919230D01*
X179149354Y-125768810D01*
X178773205Y-125654707D01*
X178773194Y-125654704D01*
X178387702Y-125578026D01*
X178093089Y-125549010D01*
X177996532Y-125539500D01*
X177603468Y-125539500D01*
X177514251Y-125548287D01*
X177212297Y-125578026D01*
X176826805Y-125654704D01*
X176826794Y-125654707D01*
X176450645Y-125768810D01*
X176087500Y-125919230D01*
X176087495Y-125919232D01*
X175740862Y-126104511D01*
X175740844Y-126104522D01*
X175414039Y-126322887D01*
X175414025Y-126322897D01*
X175110182Y-126572254D01*
X174832254Y-126850182D01*
X174582897Y-127154025D01*
X174582887Y-127154039D01*
X174364522Y-127480844D01*
X174364511Y-127480862D01*
X174179232Y-127827495D01*
X174179230Y-127827500D01*
X174028810Y-128190645D01*
X173914707Y-128566794D01*
X173914704Y-128566805D01*
X173838026Y-128952297D01*
X173799500Y-129343471D01*
X146065500Y-129343471D01*
X146065500Y-119911889D01*
X146085185Y-119844850D01*
X146137989Y-119799095D01*
X146207147Y-119789151D01*
X146270703Y-119818176D01*
X146277181Y-119824208D01*
X147866490Y-121413517D01*
X148057566Y-121552343D01*
X148268008Y-121659568D01*
X148492631Y-121732553D01*
X148580109Y-121746408D01*
X148725903Y-121769500D01*
X148725908Y-121769500D01*
X154575497Y-121769500D01*
X154808768Y-121732553D01*
X155033392Y-121659568D01*
X155243833Y-121552343D01*
X155434910Y-121413517D01*
X155601917Y-121246510D01*
X155740743Y-121055433D01*
X155847968Y-120844992D01*
X155920953Y-120620368D01*
X155931868Y-120551456D01*
X155957900Y-120387097D01*
X155957900Y-120150902D01*
X155920953Y-119917631D01*
X155865024Y-119745500D01*
X155847968Y-119693008D01*
X155847966Y-119693005D01*
X155847966Y-119693003D01*
X155760905Y-119522137D01*
X155740743Y-119482567D01*
X155601917Y-119291490D01*
X155434910Y-119124483D01*
X155243833Y-118985657D01*
X155243832Y-118985656D01*
X155242678Y-118984818D01*
X155200013Y-118929488D01*
X155194034Y-118859874D01*
X155226640Y-118798079D01*
X155287479Y-118763722D01*
X155315564Y-118760500D01*
X177179587Y-118760500D01*
X177246626Y-118780185D01*
X177292381Y-118832989D01*
X177294148Y-118837048D01*
X177396991Y-119085335D01*
X177396999Y-119085352D01*
X177541220Y-119335148D01*
X177541231Y-119335164D01*
X177716824Y-119564002D01*
X177716830Y-119564009D01*
X177920790Y-119767969D01*
X177920797Y-119767975D01*
X177994082Y-119824208D01*
X178149644Y-119943575D01*
X178149651Y-119943579D01*
X178399447Y-120087800D01*
X178399463Y-120087808D01*
X178665939Y-120198185D01*
X178665945Y-120198186D01*
X178665955Y-120198191D01*
X178944583Y-120272849D01*
X179230572Y-120310500D01*
X179230579Y-120310500D01*
X179519021Y-120310500D01*
X179519028Y-120310500D01*
X179805017Y-120272849D01*
X180083645Y-120198191D01*
X180083657Y-120198185D01*
X180083660Y-120198185D01*
X180350136Y-120087808D01*
X180350139Y-120087806D01*
X180350145Y-120087804D01*
X180599956Y-119943575D01*
X180828804Y-119767974D01*
X181032774Y-119564004D01*
X181208375Y-119335156D01*
X181352604Y-119085345D01*
X181372698Y-119036835D01*
X181462985Y-118818860D01*
X181462985Y-118818857D01*
X181462991Y-118818845D01*
X181537649Y-118540217D01*
X181575300Y-118254228D01*
X181575300Y-117965772D01*
X181537649Y-117679783D01*
X181462991Y-117401155D01*
X181462986Y-117401145D01*
X181462985Y-117401139D01*
X181352608Y-117134663D01*
X181352600Y-117134647D01*
X181208379Y-116884851D01*
X181208375Y-116884844D01*
X181032774Y-116655996D01*
X181032769Y-116655990D01*
X180828809Y-116452030D01*
X180828802Y-116452024D01*
X180599964Y-116276431D01*
X180599962Y-116276429D01*
X180599956Y-116276425D01*
X180599951Y-116276422D01*
X180599948Y-116276420D01*
X180350152Y-116132199D01*
X180350136Y-116132191D01*
X180083660Y-116021814D01*
X180083648Y-116021810D01*
X180083645Y-116021809D01*
X179805017Y-115947151D01*
X179805011Y-115947150D01*
X179805006Y-115947149D01*
X179519038Y-115909501D01*
X179519033Y-115909500D01*
X179519028Y-115909500D01*
X179230572Y-115909500D01*
X179230566Y-115909500D01*
X179230561Y-115909501D01*
X178944593Y-115947149D01*
X178944586Y-115947150D01*
X178944583Y-115947151D01*
X178665955Y-116021809D01*
X178665939Y-116021814D01*
X178399463Y-116132191D01*
X178399447Y-116132199D01*
X178149651Y-116276420D01*
X178149635Y-116276431D01*
X177920797Y-116452024D01*
X177920790Y-116452030D01*
X177716830Y-116655990D01*
X177716824Y-116655997D01*
X177541231Y-116884835D01*
X177541220Y-116884851D01*
X177396999Y-117134647D01*
X177396991Y-117134664D01*
X177294148Y-117382952D01*
X177250307Y-117437356D01*
X177184013Y-117459421D01*
X177179587Y-117459500D01*
X174894608Y-117459500D01*
X174827569Y-117439815D01*
X174781814Y-117387011D01*
X174771870Y-117317853D01*
X174800895Y-117254297D01*
X174806927Y-117247819D01*
X179327927Y-112726819D01*
X179389250Y-112693334D01*
X179415608Y-112690500D01*
X179519021Y-112690500D01*
X179519028Y-112690500D01*
X179805017Y-112652849D01*
X180083645Y-112578191D01*
X180083657Y-112578185D01*
X180083660Y-112578185D01*
X180350136Y-112467808D01*
X180350139Y-112467806D01*
X180350145Y-112467804D01*
X180599956Y-112323575D01*
X180828804Y-112147974D01*
X181032774Y-111944004D01*
X181208375Y-111715156D01*
X181352604Y-111465345D01*
X181457963Y-111210985D01*
X181462985Y-111198860D01*
X181462985Y-111198857D01*
X181462991Y-111198845D01*
X181537649Y-110920217D01*
X181575300Y-110634228D01*
X181575300Y-110345772D01*
X181537649Y-110059783D01*
X181462991Y-109781155D01*
X181462986Y-109781145D01*
X181462985Y-109781139D01*
X181352608Y-109514663D01*
X181352600Y-109514647D01*
X181208379Y-109264851D01*
X181208375Y-109264844D01*
X181150562Y-109189500D01*
X181032775Y-109035997D01*
X181032769Y-109035990D01*
X180828809Y-108832030D01*
X180828802Y-108832024D01*
X180599964Y-108656431D01*
X180599962Y-108656429D01*
X180599956Y-108656425D01*
X180599951Y-108656422D01*
X180599948Y-108656420D01*
X180350152Y-108512199D01*
X180350136Y-108512191D01*
X180083660Y-108401814D01*
X180083648Y-108401810D01*
X180083645Y-108401809D01*
X179805017Y-108327151D01*
X179805011Y-108327150D01*
X179805006Y-108327149D01*
X179519038Y-108289501D01*
X179519033Y-108289500D01*
X179519028Y-108289500D01*
X179230572Y-108289500D01*
X179230566Y-108289500D01*
X179230561Y-108289501D01*
X178944593Y-108327149D01*
X178944586Y-108327150D01*
X178944583Y-108327151D01*
X178665955Y-108401809D01*
X178665939Y-108401814D01*
X178399463Y-108512191D01*
X178399447Y-108512199D01*
X178149651Y-108656420D01*
X178149635Y-108656431D01*
X177920797Y-108832024D01*
X177920790Y-108832030D01*
X177716830Y-109035990D01*
X177716824Y-109035997D01*
X177541231Y-109264835D01*
X177541220Y-109264851D01*
X177396999Y-109514647D01*
X177396991Y-109514663D01*
X177286614Y-109781139D01*
X177286609Y-109781155D01*
X177275506Y-109822594D01*
X177211952Y-110059780D01*
X177211949Y-110059793D01*
X177174301Y-110345761D01*
X177174300Y-110345778D01*
X177174300Y-110634221D01*
X177174301Y-110634238D01*
X177211949Y-110920206D01*
X177211950Y-110920211D01*
X177211951Y-110920217D01*
X177286609Y-111198844D01*
X177286614Y-111198860D01*
X177396991Y-111465336D01*
X177396999Y-111465352D01*
X177541220Y-111715148D01*
X177541231Y-111715164D01*
X177716824Y-111944002D01*
X177716830Y-111944009D01*
X177906156Y-112133335D01*
X177939641Y-112194658D01*
X177934657Y-112264350D01*
X177906156Y-112308697D01*
X173426673Y-116788181D01*
X173365350Y-116821666D01*
X173338992Y-116824500D01*
X150815808Y-116824500D01*
X150748769Y-116804815D01*
X150728127Y-116788181D01*
X140386819Y-106446873D01*
X140353334Y-106385550D01*
X140350500Y-106359192D01*
X140350500Y-105307648D01*
X148554500Y-105307648D01*
X148554500Y-105512351D01*
X148586522Y-105714534D01*
X148649781Y-105909223D01*
X148701140Y-106010018D01*
X148742585Y-106091359D01*
X148742715Y-106091613D01*
X148863028Y-106257213D01*
X149007786Y-106401971D01*
X149128226Y-106489474D01*
X149173390Y-106522287D01*
X149264840Y-106568883D01*
X149266080Y-106569515D01*
X149316876Y-106617490D01*
X149333671Y-106685311D01*
X149311134Y-106751446D01*
X149266080Y-106790485D01*
X149173386Y-106837715D01*
X149007786Y-106958028D01*
X148863028Y-107102786D01*
X148742715Y-107268386D01*
X148649781Y-107450776D01*
X148586522Y-107645465D01*
X148554500Y-107847648D01*
X148554500Y-108052351D01*
X148586522Y-108254534D01*
X148649781Y-108449223D01*
X148742715Y-108631613D01*
X148863028Y-108797213D01*
X149007786Y-108941971D01*
X149162749Y-109054556D01*
X149173390Y-109062287D01*
X149264840Y-109108883D01*
X149266080Y-109109515D01*
X149316876Y-109157490D01*
X149333671Y-109225311D01*
X149311134Y-109291446D01*
X149266080Y-109330485D01*
X149173386Y-109377715D01*
X149007786Y-109498028D01*
X148863028Y-109642786D01*
X148742715Y-109808386D01*
X148649781Y-109990776D01*
X148586522Y-110185465D01*
X148554500Y-110387648D01*
X148554500Y-110592352D01*
X148556409Y-110604404D01*
X148586522Y-110794534D01*
X148649781Y-110989223D01*
X148742715Y-111171613D01*
X148863028Y-111337213D01*
X149007786Y-111481971D01*
X149128226Y-111569474D01*
X149173390Y-111602287D01*
X149264840Y-111648883D01*
X149266080Y-111649515D01*
X149316876Y-111697490D01*
X149333671Y-111765311D01*
X149311134Y-111831446D01*
X149266080Y-111870485D01*
X149173386Y-111917715D01*
X149007786Y-112038028D01*
X148863028Y-112182786D01*
X148742715Y-112348386D01*
X148649781Y-112530776D01*
X148586522Y-112725465D01*
X148554500Y-112927648D01*
X148554500Y-113132351D01*
X148586522Y-113334534D01*
X148649781Y-113529223D01*
X148701135Y-113630009D01*
X148718964Y-113665001D01*
X148742715Y-113711613D01*
X148863028Y-113877213D01*
X149007786Y-114021971D01*
X149113441Y-114098732D01*
X149173390Y-114142287D01*
X149289607Y-114201503D01*
X149355776Y-114235218D01*
X149355778Y-114235218D01*
X149355781Y-114235220D01*
X149446856Y-114264812D01*
X149550465Y-114298477D01*
X149651557Y-114314488D01*
X149752648Y-114330500D01*
X149752649Y-114330500D01*
X149957351Y-114330500D01*
X149957352Y-114330500D01*
X150159534Y-114298477D01*
X150354219Y-114235220D01*
X150536610Y-114142287D01*
X150665482Y-114048657D01*
X150702213Y-114021971D01*
X150702215Y-114021968D01*
X150702219Y-114021966D01*
X150846966Y-113877219D01*
X150846968Y-113877215D01*
X150846971Y-113877213D01*
X150899732Y-113804590D01*
X150967287Y-113711610D01*
X151060220Y-113529219D01*
X151123477Y-113334534D01*
X151155500Y-113132352D01*
X151155500Y-112927648D01*
X151123477Y-112725466D01*
X151118833Y-112711174D01*
X151060218Y-112530776D01*
X151016909Y-112445778D01*
X150967287Y-112348390D01*
X150938449Y-112308697D01*
X150846971Y-112182786D01*
X150702213Y-112038028D01*
X150536614Y-111917715D01*
X150530006Y-111914348D01*
X150443917Y-111870483D01*
X150393123Y-111822511D01*
X150376328Y-111754690D01*
X150398865Y-111688555D01*
X150443917Y-111649516D01*
X150536610Y-111602287D01*
X150608550Y-111550020D01*
X150702213Y-111481971D01*
X150702215Y-111481968D01*
X150702219Y-111481966D01*
X150846966Y-111337219D01*
X150846968Y-111337215D01*
X150846971Y-111337213D01*
X150899732Y-111264590D01*
X150967287Y-111171610D01*
X151060220Y-110989219D01*
X151123477Y-110794534D01*
X151155500Y-110592352D01*
X151155500Y-110387648D01*
X151147257Y-110335606D01*
X151123477Y-110185465D01*
X151082639Y-110059780D01*
X151060220Y-109990781D01*
X151060218Y-109990778D01*
X151060218Y-109990776D01*
X150996420Y-109865567D01*
X150967287Y-109808390D01*
X150935092Y-109764077D01*
X150846971Y-109642786D01*
X150702213Y-109498028D01*
X150536614Y-109377715D01*
X150530006Y-109374348D01*
X150443917Y-109330483D01*
X150393123Y-109282511D01*
X150376328Y-109214690D01*
X150398865Y-109148555D01*
X150443917Y-109109516D01*
X150536610Y-109062287D01*
X150572805Y-109035990D01*
X150702213Y-108941971D01*
X150702215Y-108941968D01*
X150702219Y-108941966D01*
X150846966Y-108797219D01*
X150846968Y-108797215D01*
X150846971Y-108797213D01*
X150899732Y-108724590D01*
X150967287Y-108631610D01*
X151060220Y-108449219D01*
X151123477Y-108254534D01*
X151155500Y-108052352D01*
X151155500Y-107847648D01*
X156174500Y-107847648D01*
X156174500Y-108052351D01*
X156206522Y-108254534D01*
X156269781Y-108449223D01*
X156362715Y-108631613D01*
X156483028Y-108797213D01*
X156627786Y-108941971D01*
X156782749Y-109054556D01*
X156793390Y-109062287D01*
X156884840Y-109108883D01*
X156886080Y-109109515D01*
X156936876Y-109157490D01*
X156953671Y-109225311D01*
X156931134Y-109291446D01*
X156886080Y-109330485D01*
X156793386Y-109377715D01*
X156627786Y-109498028D01*
X156483028Y-109642786D01*
X156362715Y-109808386D01*
X156269781Y-109990776D01*
X156206522Y-110185465D01*
X156174500Y-110387648D01*
X156174500Y-110592352D01*
X156176409Y-110604404D01*
X156206522Y-110794534D01*
X156269781Y-110989223D01*
X156362715Y-111171613D01*
X156483028Y-111337213D01*
X156483034Y-111337219D01*
X156627781Y-111481966D01*
X156721452Y-111550021D01*
X156764117Y-111605350D01*
X156770096Y-111674963D01*
X156737491Y-111736759D01*
X156687571Y-111768045D01*
X156605666Y-111795186D01*
X156605663Y-111795187D01*
X156456342Y-111887289D01*
X156332289Y-112011342D01*
X156240187Y-112160663D01*
X156240186Y-112160666D01*
X156185001Y-112327203D01*
X156185001Y-112327204D01*
X156185000Y-112327204D01*
X156174500Y-112429983D01*
X156174500Y-113630001D01*
X156174501Y-113630018D01*
X156185000Y-113732796D01*
X156185001Y-113732799D01*
X156240185Y-113899331D01*
X156240187Y-113899336D01*
X156256606Y-113925956D01*
X156332288Y-114048656D01*
X156456344Y-114172712D01*
X156605666Y-114264814D01*
X156772203Y-114319999D01*
X156874991Y-114330500D01*
X158075008Y-114330499D01*
X158177797Y-114319999D01*
X158344334Y-114264814D01*
X158493656Y-114172712D01*
X158617712Y-114048656D01*
X158626146Y-114034982D01*
X160591850Y-114034982D01*
X160591850Y-115835017D01*
X160602350Y-115937796D01*
X160630191Y-116021814D01*
X160657536Y-116104335D01*
X160749638Y-116253656D01*
X160873694Y-116377712D01*
X161023015Y-116469814D01*
X161189552Y-116524999D01*
X161292340Y-116535500D01*
X161292345Y-116535500D01*
X163092355Y-116535500D01*
X163092360Y-116535500D01*
X163195148Y-116524999D01*
X163361685Y-116469814D01*
X163511006Y-116377712D01*
X163635062Y-116253656D01*
X163727164Y-116104335D01*
X163782349Y-115937798D01*
X163792850Y-115835010D01*
X163792850Y-114809071D01*
X168212350Y-114809071D01*
X168212350Y-115060928D01*
X168251747Y-115309669D01*
X168329569Y-115549184D01*
X168443907Y-115773583D01*
X168518098Y-115875697D01*
X168518098Y-115875698D01*
X169288562Y-115105234D01*
X169299832Y-115147292D01*
X169372240Y-115272708D01*
X169474642Y-115375110D01*
X169600058Y-115447518D01*
X169642115Y-115458787D01*
X168871650Y-116229250D01*
X168973766Y-116303442D01*
X169198165Y-116417780D01*
X169437680Y-116495602D01*
X169686422Y-116535000D01*
X169938278Y-116535000D01*
X170187019Y-116495602D01*
X170426534Y-116417780D01*
X170650925Y-116303446D01*
X170650931Y-116303442D01*
X170753047Y-116229250D01*
X170753048Y-116229250D01*
X169982584Y-115458787D01*
X170024642Y-115447518D01*
X170150058Y-115375110D01*
X170252460Y-115272708D01*
X170324868Y-115147292D01*
X170336137Y-115105234D01*
X171106600Y-115875698D01*
X171106600Y-115875697D01*
X171180792Y-115773581D01*
X171180796Y-115773575D01*
X171295130Y-115549184D01*
X171372952Y-115309669D01*
X171412350Y-115060928D01*
X171412350Y-114809071D01*
X171372952Y-114560330D01*
X171295130Y-114320815D01*
X171180792Y-114096416D01*
X171106600Y-113994301D01*
X171106600Y-113994300D01*
X170336137Y-114764764D01*
X170324868Y-114722708D01*
X170252460Y-114597292D01*
X170150058Y-114494890D01*
X170024642Y-114422482D01*
X169982582Y-114411212D01*
X170753048Y-113640748D01*
X170650933Y-113566557D01*
X170426534Y-113452219D01*
X170187019Y-113374397D01*
X169938278Y-113335000D01*
X169686422Y-113335000D01*
X169437680Y-113374397D01*
X169198165Y-113452219D01*
X168973763Y-113566559D01*
X168871651Y-113640747D01*
X168871650Y-113640748D01*
X169642115Y-114411212D01*
X169600058Y-114422482D01*
X169474642Y-114494890D01*
X169372240Y-114597292D01*
X169299832Y-114722708D01*
X169288562Y-114764765D01*
X168518098Y-113994300D01*
X168518097Y-113994301D01*
X168443909Y-114096413D01*
X168329569Y-114320815D01*
X168251747Y-114560330D01*
X168212350Y-114809071D01*
X163792850Y-114809071D01*
X163792850Y-114034990D01*
X163782349Y-113932202D01*
X163727164Y-113765665D01*
X163635062Y-113616344D01*
X163511006Y-113492288D01*
X163361685Y-113400186D01*
X163195148Y-113345001D01*
X163195146Y-113345000D01*
X163092367Y-113334500D01*
X163092360Y-113334500D01*
X161292340Y-113334500D01*
X161292332Y-113334500D01*
X161189553Y-113345000D01*
X161189552Y-113345001D01*
X161107552Y-113372173D01*
X161023017Y-113400185D01*
X161023012Y-113400187D01*
X160873692Y-113492289D01*
X160749639Y-113616342D01*
X160657537Y-113765662D01*
X160657536Y-113765665D01*
X160602351Y-113932202D01*
X160602351Y-113932203D01*
X160602350Y-113932203D01*
X160591850Y-114034982D01*
X158626146Y-114034982D01*
X158709814Y-113899334D01*
X158764999Y-113732797D01*
X158775500Y-113630009D01*
X158775499Y-112429992D01*
X158773916Y-112414500D01*
X158764999Y-112327203D01*
X158764998Y-112327200D01*
X158758867Y-112308697D01*
X158709814Y-112160666D01*
X158617712Y-112011344D01*
X158493656Y-111887288D01*
X158344334Y-111795186D01*
X158262427Y-111768044D01*
X158204984Y-111728272D01*
X158178161Y-111663756D01*
X158190476Y-111594980D01*
X158228547Y-111550021D01*
X158322219Y-111481966D01*
X158466966Y-111337219D01*
X158466968Y-111337215D01*
X158466971Y-111337213D01*
X158519732Y-111264590D01*
X158587287Y-111171610D01*
X158680220Y-110989219D01*
X158743477Y-110794534D01*
X158775500Y-110592352D01*
X158775500Y-110387648D01*
X158767257Y-110335606D01*
X158743477Y-110185465D01*
X158702639Y-110059780D01*
X158680220Y-109990781D01*
X158680218Y-109990778D01*
X158680218Y-109990776D01*
X158616420Y-109865567D01*
X158587287Y-109808390D01*
X158555092Y-109764077D01*
X158466971Y-109642786D01*
X158322213Y-109498028D01*
X158156614Y-109377715D01*
X158150006Y-109374348D01*
X158063917Y-109330483D01*
X158013123Y-109282511D01*
X157996328Y-109214690D01*
X158018865Y-109148555D01*
X158063917Y-109109516D01*
X158156610Y-109062287D01*
X158192805Y-109035990D01*
X158322213Y-108941971D01*
X158322215Y-108941968D01*
X158322219Y-108941966D01*
X158466966Y-108797219D01*
X158466968Y-108797215D01*
X158466971Y-108797213D01*
X158519732Y-108724590D01*
X158587287Y-108631610D01*
X158680220Y-108449219D01*
X158743477Y-108254534D01*
X158775500Y-108052352D01*
X158775500Y-107847648D01*
X158771164Y-107820275D01*
X158743477Y-107645465D01*
X158714127Y-107555137D01*
X158680220Y-107450781D01*
X158680218Y-107450778D01*
X158680218Y-107450776D01*
X158643681Y-107379069D01*
X158587287Y-107268390D01*
X158579556Y-107257749D01*
X158466971Y-107102786D01*
X158322213Y-106958028D01*
X158156611Y-106837713D01*
X158063369Y-106790203D01*
X158012574Y-106742229D01*
X157995779Y-106674407D01*
X158018317Y-106608273D01*
X158063371Y-106569234D01*
X158156346Y-106521861D01*
X158156347Y-106521861D01*
X158200921Y-106489474D01*
X157521447Y-105810000D01*
X157527661Y-105810000D01*
X157629394Y-105782741D01*
X157720606Y-105730080D01*
X157795080Y-105655606D01*
X157847741Y-105564394D01*
X157875000Y-105462661D01*
X157875000Y-105456447D01*
X158554474Y-106135921D01*
X158586859Y-106091349D01*
X158679755Y-105909031D01*
X158742990Y-105714417D01*
X158775000Y-105512317D01*
X158775000Y-105307682D01*
X158742990Y-105105582D01*
X158679755Y-104910968D01*
X158586859Y-104728650D01*
X158554474Y-104684077D01*
X158554474Y-104684076D01*
X157875000Y-105363551D01*
X157875000Y-105357339D01*
X157847741Y-105255606D01*
X157795080Y-105164394D01*
X157720606Y-105089920D01*
X157629394Y-105037259D01*
X157527661Y-105010000D01*
X157521446Y-105010000D01*
X158200922Y-104330524D01*
X158200921Y-104330523D01*
X158156359Y-104298147D01*
X158156350Y-104298141D01*
X157974031Y-104205244D01*
X157779417Y-104142009D01*
X157577317Y-104110000D01*
X157372683Y-104110000D01*
X157170582Y-104142009D01*
X156975968Y-104205244D01*
X156793644Y-104298143D01*
X156749077Y-104330523D01*
X156749077Y-104330524D01*
X157428554Y-105010000D01*
X157422339Y-105010000D01*
X157320606Y-105037259D01*
X157229394Y-105089920D01*
X157154920Y-105164394D01*
X157102259Y-105255606D01*
X157075000Y-105357339D01*
X157075000Y-105363553D01*
X156395524Y-104684077D01*
X156395523Y-104684077D01*
X156363143Y-104728644D01*
X156270244Y-104910968D01*
X156207009Y-105105582D01*
X156175000Y-105307682D01*
X156175000Y-105512317D01*
X156207009Y-105714417D01*
X156270244Y-105909031D01*
X156363141Y-106091350D01*
X156363147Y-106091359D01*
X156395523Y-106135921D01*
X156395524Y-106135922D01*
X157075000Y-105456446D01*
X157075000Y-105462661D01*
X157102259Y-105564394D01*
X157154920Y-105655606D01*
X157229394Y-105730080D01*
X157320606Y-105782741D01*
X157422339Y-105810000D01*
X157428553Y-105810000D01*
X156749076Y-106489474D01*
X156793652Y-106521861D01*
X156886628Y-106569234D01*
X156937425Y-106617208D01*
X156954220Y-106685029D01*
X156931683Y-106751164D01*
X156886630Y-106790203D01*
X156793388Y-106837713D01*
X156627786Y-106958028D01*
X156483028Y-107102786D01*
X156362715Y-107268386D01*
X156269781Y-107450776D01*
X156206522Y-107645465D01*
X156174500Y-107847648D01*
X151155500Y-107847648D01*
X151151164Y-107820275D01*
X151123477Y-107645465D01*
X151094127Y-107555137D01*
X151060220Y-107450781D01*
X151060218Y-107450778D01*
X151060218Y-107450776D01*
X151023681Y-107379069D01*
X150967287Y-107268390D01*
X150959556Y-107257749D01*
X150846971Y-107102786D01*
X150702213Y-106958028D01*
X150536614Y-106837715D01*
X150530006Y-106834348D01*
X150443917Y-106790483D01*
X150393123Y-106742511D01*
X150376328Y-106674690D01*
X150398865Y-106608555D01*
X150443917Y-106569516D01*
X150536610Y-106522287D01*
X150581774Y-106489474D01*
X150702213Y-106401971D01*
X150702215Y-106401968D01*
X150702219Y-106401966D01*
X150846966Y-106257219D01*
X150846968Y-106257215D01*
X150846971Y-106257213D01*
X150926876Y-106147231D01*
X150967287Y-106091610D01*
X151060220Y-105909219D01*
X151123477Y-105714534D01*
X151155500Y-105512352D01*
X151155500Y-105307648D01*
X151134787Y-105176873D01*
X151123477Y-105105465D01*
X151092458Y-105010000D01*
X151060220Y-104910781D01*
X151060218Y-104910778D01*
X151060218Y-104910776D01*
X151008865Y-104809991D01*
X150967287Y-104728390D01*
X150935092Y-104684077D01*
X150846971Y-104562786D01*
X150702213Y-104418028D01*
X150536613Y-104297715D01*
X150536612Y-104297714D01*
X150536610Y-104297713D01*
X150466168Y-104261821D01*
X150354223Y-104204781D01*
X150159534Y-104141522D01*
X149984995Y-104113878D01*
X149957352Y-104109500D01*
X149752648Y-104109500D01*
X149728329Y-104113351D01*
X149550465Y-104141522D01*
X149355776Y-104204781D01*
X149173386Y-104297715D01*
X149007786Y-104418028D01*
X148863028Y-104562786D01*
X148742715Y-104728386D01*
X148649781Y-104910776D01*
X148586522Y-105105465D01*
X148554500Y-105307648D01*
X140350500Y-105307648D01*
X140350500Y-101203653D01*
X146202000Y-101203653D01*
X146202000Y-101361346D01*
X146232761Y-101515989D01*
X146232764Y-101516001D01*
X146293102Y-101661672D01*
X146293109Y-101661685D01*
X146380710Y-101792788D01*
X146380713Y-101792792D01*
X146492207Y-101904286D01*
X146492211Y-101904289D01*
X146623314Y-101991890D01*
X146623327Y-101991897D01*
X146697889Y-102022781D01*
X146769003Y-102052237D01*
X146836080Y-102065579D01*
X146897988Y-102097961D01*
X146899568Y-102099514D01*
X147540324Y-102740271D01*
X147540327Y-102740274D01*
X147581297Y-102767649D01*
X147646866Y-102811461D01*
X147646872Y-102811464D01*
X147646873Y-102811465D01*
X147765256Y-102860501D01*
X147765260Y-102860501D01*
X147765261Y-102860502D01*
X147890928Y-102885500D01*
X147890931Y-102885500D01*
X151712192Y-102885500D01*
X151779231Y-102905185D01*
X151799873Y-102921819D01*
X153621984Y-104743930D01*
X153655469Y-104805253D01*
X153655920Y-104807420D01*
X153669261Y-104874489D01*
X153669264Y-104874501D01*
X153729602Y-105020172D01*
X153729609Y-105020185D01*
X153817210Y-105151288D01*
X153817213Y-105151292D01*
X153928707Y-105262786D01*
X153928711Y-105262789D01*
X154059814Y-105350390D01*
X154059827Y-105350397D01*
X154203721Y-105409999D01*
X154205503Y-105410737D01*
X154360153Y-105441499D01*
X154360156Y-105441500D01*
X154360158Y-105441500D01*
X154517844Y-105441500D01*
X154517845Y-105441499D01*
X154672497Y-105410737D01*
X154818179Y-105350394D01*
X154949289Y-105262789D01*
X154956472Y-105255606D01*
X154996944Y-105215135D01*
X155060786Y-105151292D01*
X155060789Y-105151289D01*
X155148394Y-105020179D01*
X155208737Y-104874497D01*
X155239500Y-104719842D01*
X155239500Y-104562158D01*
X155239500Y-104562155D01*
X155239499Y-104562153D01*
X155208739Y-104407513D01*
X155208738Y-104407512D01*
X155208737Y-104407503D01*
X155202043Y-104391342D01*
X155148397Y-104261827D01*
X155148390Y-104261814D01*
X155060789Y-104130711D01*
X155060786Y-104130707D01*
X154949292Y-104019213D01*
X154949288Y-104019210D01*
X154818185Y-103931609D01*
X154818172Y-103931602D01*
X154672501Y-103871264D01*
X154672489Y-103871261D01*
X154605420Y-103857920D01*
X154543509Y-103825535D01*
X154541930Y-103823984D01*
X152447674Y-101729727D01*
X152447673Y-101729726D01*
X152447669Y-101729723D01*
X152341127Y-101658535D01*
X152222744Y-101609499D01*
X152222738Y-101609497D01*
X152097071Y-101584500D01*
X152097069Y-101584500D01*
X148275808Y-101584500D01*
X148208769Y-101564815D01*
X148188127Y-101548181D01*
X147819515Y-101179569D01*
X147786030Y-101118246D01*
X147785593Y-101116152D01*
X147772237Y-101049003D01*
X147748099Y-100990730D01*
X147711897Y-100903327D01*
X147711890Y-100903314D01*
X147624289Y-100772211D01*
X147624286Y-100772207D01*
X147512792Y-100660713D01*
X147512788Y-100660710D01*
X147381685Y-100573109D01*
X147381672Y-100573102D01*
X147236001Y-100512764D01*
X147235989Y-100512761D01*
X147081345Y-100482000D01*
X147081342Y-100482000D01*
X146923658Y-100482000D01*
X146923655Y-100482000D01*
X146769010Y-100512761D01*
X146768998Y-100512764D01*
X146623327Y-100573102D01*
X146623314Y-100573109D01*
X146492211Y-100660710D01*
X146492207Y-100660713D01*
X146380713Y-100772207D01*
X146380710Y-100772211D01*
X146293109Y-100903314D01*
X146293102Y-100903327D01*
X146232764Y-101048998D01*
X146232761Y-101049010D01*
X146202000Y-101203653D01*
X140350500Y-101203653D01*
X140350500Y-99184000D01*
X140370185Y-99116961D01*
X140422989Y-99071206D01*
X140474500Y-99060000D01*
X154257417Y-99060000D01*
X154324456Y-99079685D01*
X154340368Y-99091831D01*
X154643700Y-99364830D01*
X160654999Y-104775000D01*
X160655000Y-104775000D01*
X182881500Y-104775000D01*
X182948539Y-104794685D01*
X182994294Y-104847489D01*
X183005500Y-104899000D01*
X183005500Y-134625800D01*
X182985815Y-134692839D01*
X182933011Y-134738594D01*
X182881500Y-134749800D01*
X89845700Y-134749800D01*
X89778661Y-134730115D01*
X89732906Y-134677311D01*
X89721700Y-134625800D01*
X89721700Y-129343471D01*
X90859500Y-129343471D01*
X90859500Y-129736528D01*
X90898026Y-130127702D01*
X90974704Y-130513194D01*
X90974707Y-130513205D01*
X91088810Y-130889354D01*
X91239230Y-131252499D01*
X91239232Y-131252504D01*
X91424511Y-131599137D01*
X91424522Y-131599155D01*
X91642887Y-131925960D01*
X91642897Y-131925974D01*
X91892254Y-132229817D01*
X92170182Y-132507745D01*
X92170187Y-132507749D01*
X92170188Y-132507750D01*
X92474031Y-132757107D01*
X92800851Y-132975482D01*
X92800860Y-132975487D01*
X92800862Y-132975488D01*
X93147495Y-133160767D01*
X93147497Y-133160767D01*
X93147503Y-133160771D01*
X93510647Y-133311190D01*
X93886785Y-133425290D01*
X93886791Y-133425291D01*
X93886794Y-133425292D01*
X93886805Y-133425295D01*
X94272297Y-133501973D01*
X94663468Y-133540500D01*
X94663471Y-133540500D01*
X95056529Y-133540500D01*
X95056532Y-133540500D01*
X95447703Y-133501973D01*
X95522748Y-133487045D01*
X95833194Y-133425295D01*
X95833205Y-133425292D01*
X95833205Y-133425291D01*
X95833215Y-133425290D01*
X96209353Y-133311190D01*
X96572497Y-133160771D01*
X96919149Y-132975482D01*
X97245969Y-132757107D01*
X97549812Y-132507750D01*
X97827750Y-132229812D01*
X98077107Y-131925969D01*
X98295482Y-131599149D01*
X98480771Y-131252497D01*
X98631190Y-130889353D01*
X98745290Y-130513215D01*
X98745292Y-130513205D01*
X98745295Y-130513194D01*
X98821973Y-130127702D01*
X98860500Y-129736532D01*
X98860500Y-129343468D01*
X98821973Y-128952297D01*
X98745295Y-128566805D01*
X98745292Y-128566794D01*
X98745291Y-128566791D01*
X98745290Y-128566785D01*
X98631190Y-128190647D01*
X98480771Y-127827503D01*
X98295482Y-127480851D01*
X98077107Y-127154031D01*
X97827750Y-126850188D01*
X97827749Y-126850187D01*
X97827745Y-126850182D01*
X97549817Y-126572254D01*
X97245974Y-126322897D01*
X97245973Y-126322896D01*
X97245969Y-126322893D01*
X96919149Y-126104518D01*
X96919144Y-126104515D01*
X96919137Y-126104511D01*
X96572504Y-125919232D01*
X96572499Y-125919230D01*
X96209354Y-125768810D01*
X95833205Y-125654707D01*
X95833194Y-125654704D01*
X95447702Y-125578026D01*
X95153089Y-125549010D01*
X95056532Y-125539500D01*
X94663468Y-125539500D01*
X94574251Y-125548287D01*
X94272297Y-125578026D01*
X93886805Y-125654704D01*
X93886794Y-125654707D01*
X93510645Y-125768810D01*
X93147500Y-125919230D01*
X93147495Y-125919232D01*
X92800862Y-126104511D01*
X92800844Y-126104522D01*
X92474039Y-126322887D01*
X92474025Y-126322897D01*
X92170182Y-126572254D01*
X91892254Y-126850182D01*
X91642897Y-127154025D01*
X91642887Y-127154039D01*
X91424522Y-127480844D01*
X91424511Y-127480862D01*
X91239232Y-127827495D01*
X91239230Y-127827500D01*
X91088810Y-128190645D01*
X90974707Y-128566794D01*
X90974704Y-128566805D01*
X90898026Y-128952297D01*
X90859500Y-129343471D01*
X89721700Y-129343471D01*
X89721700Y-113566577D01*
X96529500Y-113566577D01*
X96529500Y-113763422D01*
X96560290Y-113957826D01*
X96621117Y-114145029D01*
X96667071Y-114235218D01*
X96710476Y-114320405D01*
X96826172Y-114479646D01*
X96965354Y-114618828D01*
X97124595Y-114734524D01*
X97207455Y-114776743D01*
X97299970Y-114823882D01*
X97299972Y-114823882D01*
X97299975Y-114823884D01*
X97400317Y-114856487D01*
X97487173Y-114884709D01*
X97681578Y-114915500D01*
X97681583Y-114915500D01*
X97878422Y-114915500D01*
X98072826Y-114884709D01*
X98074328Y-114884221D01*
X98260025Y-114823884D01*
X98435405Y-114734524D01*
X98594646Y-114618828D01*
X98733828Y-114479646D01*
X98849524Y-114320405D01*
X98938884Y-114145025D01*
X98939515Y-114143787D01*
X98987489Y-114092990D01*
X99055310Y-114076195D01*
X99121445Y-114098732D01*
X99160485Y-114143787D01*
X99250474Y-114320403D01*
X99257810Y-114330500D01*
X99366172Y-114479646D01*
X99505354Y-114618828D01*
X99664595Y-114734524D01*
X99747455Y-114776743D01*
X99839970Y-114823882D01*
X99839972Y-114823882D01*
X99839975Y-114823884D01*
X99940317Y-114856487D01*
X100027173Y-114884709D01*
X100221578Y-114915500D01*
X100221583Y-114915500D01*
X100418422Y-114915500D01*
X100612826Y-114884709D01*
X100614328Y-114884221D01*
X100800025Y-114823884D01*
X100975405Y-114734524D01*
X101134646Y-114618828D01*
X101273828Y-114479646D01*
X101389524Y-114320405D01*
X101478884Y-114145025D01*
X101479515Y-114143787D01*
X101527489Y-114092990D01*
X101595310Y-114076195D01*
X101661445Y-114098732D01*
X101700485Y-114143787D01*
X101790474Y-114320403D01*
X101797810Y-114330500D01*
X101906172Y-114479646D01*
X102045354Y-114618828D01*
X102204595Y-114734524D01*
X102287455Y-114776743D01*
X102379970Y-114823882D01*
X102379972Y-114823882D01*
X102379975Y-114823884D01*
X102480317Y-114856487D01*
X102567173Y-114884709D01*
X102761578Y-114915500D01*
X102761583Y-114915500D01*
X102958422Y-114915500D01*
X103152826Y-114884709D01*
X103154328Y-114884221D01*
X103340025Y-114823884D01*
X103515405Y-114734524D01*
X103674646Y-114618828D01*
X103813828Y-114479646D01*
X103929524Y-114320405D01*
X104018884Y-114145025D01*
X104019515Y-114143787D01*
X104067489Y-114092990D01*
X104135310Y-114076195D01*
X104201445Y-114098732D01*
X104240485Y-114143787D01*
X104330474Y-114320403D01*
X104337810Y-114330500D01*
X104446172Y-114479646D01*
X104585354Y-114618828D01*
X104744595Y-114734524D01*
X104827455Y-114776743D01*
X104919970Y-114823882D01*
X104919972Y-114823882D01*
X104919975Y-114823884D01*
X105020317Y-114856487D01*
X105107173Y-114884709D01*
X105301578Y-114915500D01*
X105301583Y-114915500D01*
X105498422Y-114915500D01*
X105692826Y-114884709D01*
X105694328Y-114884221D01*
X105880025Y-114823884D01*
X106055405Y-114734524D01*
X106214646Y-114618828D01*
X106353828Y-114479646D01*
X106469524Y-114320405D01*
X106558884Y-114145025D01*
X106559515Y-114143787D01*
X106607489Y-114092990D01*
X106675310Y-114076195D01*
X106741445Y-114098732D01*
X106780485Y-114143787D01*
X106870474Y-114320403D01*
X106877810Y-114330500D01*
X106986172Y-114479646D01*
X107125354Y-114618828D01*
X107284595Y-114734524D01*
X107367455Y-114776743D01*
X107459970Y-114823882D01*
X107459972Y-114823882D01*
X107459975Y-114823884D01*
X107560317Y-114856487D01*
X107647173Y-114884709D01*
X107841578Y-114915500D01*
X107841583Y-114915500D01*
X108038422Y-114915500D01*
X108232826Y-114884709D01*
X108234328Y-114884221D01*
X108420025Y-114823884D01*
X108595405Y-114734524D01*
X108754646Y-114618828D01*
X108893828Y-114479646D01*
X109009524Y-114320405D01*
X109098884Y-114145025D01*
X109099515Y-114143787D01*
X109147489Y-114092990D01*
X109215310Y-114076195D01*
X109281445Y-114098732D01*
X109320485Y-114143787D01*
X109410474Y-114320403D01*
X109417810Y-114330500D01*
X109526172Y-114479646D01*
X109665354Y-114618828D01*
X109824595Y-114734524D01*
X109907455Y-114776743D01*
X109999970Y-114823882D01*
X109999972Y-114823882D01*
X109999975Y-114823884D01*
X110100317Y-114856487D01*
X110187173Y-114884709D01*
X110381578Y-114915500D01*
X110381583Y-114915500D01*
X110578422Y-114915500D01*
X110772826Y-114884709D01*
X110774328Y-114884221D01*
X110960025Y-114823884D01*
X111135405Y-114734524D01*
X111294646Y-114618828D01*
X111433828Y-114479646D01*
X111549524Y-114320405D01*
X111638884Y-114145025D01*
X111638884Y-114145022D01*
X111639795Y-114143236D01*
X111687769Y-114092440D01*
X111755590Y-114075644D01*
X111821725Y-114098181D01*
X111860765Y-114143235D01*
X111950905Y-114320145D01*
X111976319Y-114355125D01*
X111976320Y-114355125D01*
X112598274Y-113733171D01*
X112623963Y-113829044D01*
X112679916Y-113925956D01*
X112759044Y-114005084D01*
X112855956Y-114061037D01*
X112951827Y-114086725D01*
X112329873Y-114708677D01*
X112329873Y-114708678D01*
X112364858Y-114734096D01*
X112540164Y-114823418D01*
X112727294Y-114884221D01*
X112921618Y-114915000D01*
X113118382Y-114915000D01*
X113312705Y-114884221D01*
X113499835Y-114823418D01*
X113675143Y-114734095D01*
X113710125Y-114708678D01*
X113710126Y-114708678D01*
X113088173Y-114086725D01*
X113184044Y-114061037D01*
X113280956Y-114005084D01*
X113360084Y-113925956D01*
X113416037Y-113829044D01*
X113441725Y-113733173D01*
X114063678Y-114355126D01*
X114063678Y-114355125D01*
X114089097Y-114320141D01*
X114179234Y-114143236D01*
X114227208Y-114092439D01*
X114295029Y-114075644D01*
X114361164Y-114098181D01*
X114400204Y-114143235D01*
X114401115Y-114145024D01*
X114401116Y-114145025D01*
X114490476Y-114320405D01*
X114606172Y-114479646D01*
X114745354Y-114618828D01*
X114904595Y-114734524D01*
X114987455Y-114776743D01*
X115079970Y-114823882D01*
X115079972Y-114823882D01*
X115079975Y-114823884D01*
X115180317Y-114856487D01*
X115267173Y-114884709D01*
X115461578Y-114915500D01*
X115461583Y-114915500D01*
X115658422Y-114915500D01*
X115852826Y-114884709D01*
X115854328Y-114884221D01*
X116040025Y-114823884D01*
X116215405Y-114734524D01*
X116374646Y-114618828D01*
X116513828Y-114479646D01*
X116629524Y-114320405D01*
X116718884Y-114145025D01*
X116779709Y-113957826D01*
X116810144Y-113765667D01*
X116810500Y-113763422D01*
X116810500Y-113566577D01*
X116779709Y-113372173D01*
X116751487Y-113285317D01*
X116718884Y-113184975D01*
X116718882Y-113184972D01*
X116718882Y-113184970D01*
X116671743Y-113092455D01*
X116629524Y-113009595D01*
X116513828Y-112850354D01*
X116374646Y-112711172D01*
X116215405Y-112595476D01*
X116181479Y-112578190D01*
X116040029Y-112506117D01*
X115852826Y-112445290D01*
X115658422Y-112414500D01*
X115658417Y-112414500D01*
X115461583Y-112414500D01*
X115461578Y-112414500D01*
X115267173Y-112445290D01*
X115079970Y-112506117D01*
X114904594Y-112595476D01*
X114839448Y-112642808D01*
X114745354Y-112711172D01*
X114745352Y-112711174D01*
X114745351Y-112711174D01*
X114606174Y-112850351D01*
X114606174Y-112850352D01*
X114606172Y-112850354D01*
X114556485Y-112918741D01*
X114490476Y-113009594D01*
X114400204Y-113186764D01*
X114352229Y-113237560D01*
X114284408Y-113254355D01*
X114218274Y-113231818D01*
X114179234Y-113186764D01*
X114089096Y-113009858D01*
X114063678Y-112974873D01*
X114063677Y-112974873D01*
X113441725Y-113596826D01*
X113416037Y-113500956D01*
X113360084Y-113404044D01*
X113280956Y-113324916D01*
X113184044Y-113268963D01*
X113088172Y-113243274D01*
X113710125Y-112621320D01*
X113710125Y-112621319D01*
X113675145Y-112595905D01*
X113499835Y-112506581D01*
X113312705Y-112445778D01*
X113118382Y-112415000D01*
X112921618Y-112415000D01*
X112727294Y-112445778D01*
X112540161Y-112506582D01*
X112364863Y-112595899D01*
X112364859Y-112595902D01*
X112329873Y-112621320D01*
X112329872Y-112621320D01*
X112951828Y-113243274D01*
X112855956Y-113268963D01*
X112759044Y-113324916D01*
X112679916Y-113404044D01*
X112623963Y-113500956D01*
X112598274Y-113596827D01*
X111976320Y-112974872D01*
X111976320Y-112974873D01*
X111950902Y-113009859D01*
X111860765Y-113186764D01*
X111812790Y-113237560D01*
X111744969Y-113254355D01*
X111678835Y-113231818D01*
X111639795Y-113186763D01*
X111549525Y-113009596D01*
X111524296Y-112974872D01*
X111433828Y-112850354D01*
X111294646Y-112711172D01*
X111135405Y-112595476D01*
X111101479Y-112578190D01*
X110960029Y-112506117D01*
X110772826Y-112445290D01*
X110578422Y-112414500D01*
X110578417Y-112414500D01*
X110381583Y-112414500D01*
X110381578Y-112414500D01*
X110187173Y-112445290D01*
X109999970Y-112506117D01*
X109824594Y-112595476D01*
X109759448Y-112642808D01*
X109665354Y-112711172D01*
X109665352Y-112711174D01*
X109665351Y-112711174D01*
X109526174Y-112850351D01*
X109526174Y-112850352D01*
X109526172Y-112850354D01*
X109476485Y-112918741D01*
X109410476Y-113009594D01*
X109320485Y-113186213D01*
X109272511Y-113237009D01*
X109204690Y-113253804D01*
X109138555Y-113231267D01*
X109099515Y-113186213D01*
X109072071Y-113132351D01*
X109009524Y-113009595D01*
X108893828Y-112850354D01*
X108754646Y-112711172D01*
X108595405Y-112595476D01*
X108561479Y-112578190D01*
X108420029Y-112506117D01*
X108232826Y-112445290D01*
X108038422Y-112414500D01*
X108038417Y-112414500D01*
X107841583Y-112414500D01*
X107841578Y-112414500D01*
X107647173Y-112445290D01*
X107459970Y-112506117D01*
X107284594Y-112595476D01*
X107219448Y-112642808D01*
X107125354Y-112711172D01*
X107125352Y-112711174D01*
X107125351Y-112711174D01*
X106986174Y-112850351D01*
X106986174Y-112850352D01*
X106986172Y-112850354D01*
X106936485Y-112918741D01*
X106870476Y-113009594D01*
X106780485Y-113186213D01*
X106732511Y-113237009D01*
X106664690Y-113253804D01*
X106598555Y-113231267D01*
X106559515Y-113186213D01*
X106532071Y-113132351D01*
X106469524Y-113009595D01*
X106353828Y-112850354D01*
X106214646Y-112711172D01*
X106055405Y-112595476D01*
X106021479Y-112578190D01*
X105880029Y-112506117D01*
X105692826Y-112445290D01*
X105498422Y-112414500D01*
X105498417Y-112414500D01*
X105301583Y-112414500D01*
X105301578Y-112414500D01*
X105107173Y-112445290D01*
X104919970Y-112506117D01*
X104744594Y-112595476D01*
X104679448Y-112642808D01*
X104585354Y-112711172D01*
X104585352Y-112711174D01*
X104585351Y-112711174D01*
X104446174Y-112850351D01*
X104446174Y-112850352D01*
X104446172Y-112850354D01*
X104396485Y-112918741D01*
X104330476Y-113009594D01*
X104240485Y-113186213D01*
X104192511Y-113237009D01*
X104124690Y-113253804D01*
X104058555Y-113231267D01*
X104019515Y-113186213D01*
X103992071Y-113132351D01*
X103929524Y-113009595D01*
X103813828Y-112850354D01*
X103674646Y-112711172D01*
X103515405Y-112595476D01*
X103481479Y-112578190D01*
X103340029Y-112506117D01*
X103152826Y-112445290D01*
X102958422Y-112414500D01*
X102958417Y-112414500D01*
X102761583Y-112414500D01*
X102761578Y-112414500D01*
X102567173Y-112445290D01*
X102379970Y-112506117D01*
X102204594Y-112595476D01*
X102139448Y-112642808D01*
X102045354Y-112711172D01*
X102045352Y-112711174D01*
X102045351Y-112711174D01*
X101906174Y-112850351D01*
X101906174Y-112850352D01*
X101906172Y-112850354D01*
X101856485Y-112918741D01*
X101790476Y-113009594D01*
X101700485Y-113186213D01*
X101652511Y-113237009D01*
X101584690Y-113253804D01*
X101518555Y-113231267D01*
X101479515Y-113186213D01*
X101452071Y-113132351D01*
X101389524Y-113009595D01*
X101273828Y-112850354D01*
X101134646Y-112711172D01*
X100975405Y-112595476D01*
X100941479Y-112578190D01*
X100800029Y-112506117D01*
X100612826Y-112445290D01*
X100418422Y-112414500D01*
X100418417Y-112414500D01*
X100221583Y-112414500D01*
X100221578Y-112414500D01*
X100027173Y-112445290D01*
X99839970Y-112506117D01*
X99664594Y-112595476D01*
X99599448Y-112642808D01*
X99505354Y-112711172D01*
X99505352Y-112711174D01*
X99505351Y-112711174D01*
X99366174Y-112850351D01*
X99366174Y-112850352D01*
X99366172Y-112850354D01*
X99316485Y-112918741D01*
X99250476Y-113009594D01*
X99160485Y-113186213D01*
X99112511Y-113237009D01*
X99044690Y-113253804D01*
X98978555Y-113231267D01*
X98939515Y-113186213D01*
X98912071Y-113132351D01*
X98849524Y-113009595D01*
X98733828Y-112850354D01*
X98594646Y-112711172D01*
X98435405Y-112595476D01*
X98401479Y-112578190D01*
X98260029Y-112506117D01*
X98072826Y-112445290D01*
X97878422Y-112414500D01*
X97878417Y-112414500D01*
X97681583Y-112414500D01*
X97681578Y-112414500D01*
X97487173Y-112445290D01*
X97299970Y-112506117D01*
X97124594Y-112595476D01*
X97059448Y-112642808D01*
X96965354Y-112711172D01*
X96965352Y-112711174D01*
X96965351Y-112711174D01*
X96826174Y-112850351D01*
X96826174Y-112850352D01*
X96826172Y-112850354D01*
X96776485Y-112918741D01*
X96710476Y-113009594D01*
X96621117Y-113184970D01*
X96560290Y-113372173D01*
X96529500Y-113566577D01*
X89721700Y-113566577D01*
X89721700Y-85979000D01*
X93417300Y-85979000D01*
X93417300Y-86115411D01*
X93444398Y-86286501D01*
X93497927Y-86451245D01*
X93576568Y-86605588D01*
X93678386Y-86745728D01*
X93800872Y-86868214D01*
X93800878Y-86868218D01*
X93883823Y-86928483D01*
X93926489Y-86983813D01*
X93932467Y-87053426D01*
X93899861Y-87115221D01*
X93883823Y-87129117D01*
X93800878Y-87189381D01*
X93800869Y-87189388D01*
X93678388Y-87311869D01*
X93678388Y-87311870D01*
X93678386Y-87311872D01*
X93634659Y-87372056D01*
X93576568Y-87452011D01*
X93497928Y-87606352D01*
X93444397Y-87771102D01*
X93417300Y-87942189D01*
X93417300Y-88115410D01*
X93437789Y-88244778D01*
X93444398Y-88286501D01*
X93497927Y-88451245D01*
X93576568Y-88605588D01*
X93678386Y-88745728D01*
X93800872Y-88868214D01*
X93800878Y-88868218D01*
X93883823Y-88928483D01*
X93926489Y-88983813D01*
X93932467Y-89053426D01*
X93899861Y-89115221D01*
X93883823Y-89129117D01*
X93800878Y-89189381D01*
X93800869Y-89189388D01*
X93678388Y-89311869D01*
X93678388Y-89311870D01*
X93678386Y-89311872D01*
X93634659Y-89372056D01*
X93576568Y-89452011D01*
X93497928Y-89606352D01*
X93444397Y-89771102D01*
X93425851Y-89888199D01*
X93417300Y-89942189D01*
X93417300Y-90115411D01*
X93444398Y-90286501D01*
X93497927Y-90451245D01*
X93576568Y-90605588D01*
X93678386Y-90745728D01*
X93800872Y-90868214D01*
X93815916Y-90879144D01*
X93883823Y-90928483D01*
X93926489Y-90983813D01*
X93932467Y-91053426D01*
X93899861Y-91115221D01*
X93883823Y-91129117D01*
X93800878Y-91189381D01*
X93800869Y-91189388D01*
X93678388Y-91311869D01*
X93678388Y-91311870D01*
X93678386Y-91311872D01*
X93634659Y-91372056D01*
X93576568Y-91452011D01*
X93497928Y-91606352D01*
X93444397Y-91771102D01*
X93428341Y-91872477D01*
X93417300Y-91942189D01*
X93417300Y-92115411D01*
X93444398Y-92286501D01*
X93497927Y-92451245D01*
X93576568Y-92605588D01*
X93678386Y-92745728D01*
X93800872Y-92868214D01*
X93941012Y-92970032D01*
X94095355Y-93048673D01*
X94260099Y-93102202D01*
X94431189Y-93129300D01*
X94431190Y-93129300D01*
X95154410Y-93129300D01*
X95154411Y-93129300D01*
X95325501Y-93102202D01*
X95490245Y-93048673D01*
X95644588Y-92970032D01*
X95784728Y-92868214D01*
X95907214Y-92745728D01*
X96009032Y-92605588D01*
X96087673Y-92451245D01*
X96141202Y-92286501D01*
X96168300Y-92115411D01*
X96168300Y-91942189D01*
X96141202Y-91771099D01*
X96087673Y-91606355D01*
X96009032Y-91452012D01*
X95907214Y-91311872D01*
X95784728Y-91189386D01*
X95701775Y-91129117D01*
X95659111Y-91073788D01*
X95653132Y-91004174D01*
X95685738Y-90942379D01*
X95701776Y-90928482D01*
X95784728Y-90868214D01*
X95907214Y-90745728D01*
X96009032Y-90605588D01*
X96087673Y-90451245D01*
X96141202Y-90286501D01*
X96168300Y-90115411D01*
X96168300Y-89942189D01*
X96141202Y-89771099D01*
X96087673Y-89606355D01*
X96009032Y-89452012D01*
X95907214Y-89311872D01*
X95784728Y-89189386D01*
X95701775Y-89129117D01*
X95659111Y-89073788D01*
X95653132Y-89004174D01*
X95685738Y-88942379D01*
X95701776Y-88928482D01*
X95784728Y-88868214D01*
X95907214Y-88745728D01*
X96009032Y-88605588D01*
X96087673Y-88451245D01*
X96141202Y-88286501D01*
X96168300Y-88115411D01*
X96168300Y-87942189D01*
X96141202Y-87771099D01*
X96087673Y-87606355D01*
X96009032Y-87452012D01*
X95907214Y-87311872D01*
X95784728Y-87189386D01*
X95701775Y-87129117D01*
X95659111Y-87073788D01*
X95653132Y-87004174D01*
X95685738Y-86942379D01*
X95701776Y-86928482D01*
X95784728Y-86868214D01*
X95907214Y-86745728D01*
X96009032Y-86605588D01*
X96087673Y-86451245D01*
X96102351Y-86406070D01*
X96141786Y-86348396D01*
X96206145Y-86321197D01*
X96274991Y-86333111D01*
X96307962Y-86356708D01*
X107186645Y-97235391D01*
X107220130Y-97296714D01*
X107215146Y-97366406D01*
X107173274Y-97422339D01*
X107171851Y-97423389D01*
X107125354Y-97457171D01*
X106986174Y-97596351D01*
X106986174Y-97596352D01*
X106986172Y-97596354D01*
X106936485Y-97664741D01*
X106870476Y-97755594D01*
X106780485Y-97932213D01*
X106732511Y-97983009D01*
X106664690Y-97999804D01*
X106598555Y-97977267D01*
X106559515Y-97932213D01*
X106476657Y-97769595D01*
X106469524Y-97755595D01*
X106353828Y-97596354D01*
X106214646Y-97457172D01*
X106055405Y-97341476D01*
X106049066Y-97338246D01*
X105880029Y-97252117D01*
X105692826Y-97191290D01*
X105498422Y-97160500D01*
X105498417Y-97160500D01*
X105301583Y-97160500D01*
X105301578Y-97160500D01*
X105107173Y-97191290D01*
X104919970Y-97252117D01*
X104744594Y-97341476D01*
X104654163Y-97407179D01*
X104585354Y-97457172D01*
X104585352Y-97457174D01*
X104585351Y-97457174D01*
X104446174Y-97596351D01*
X104446174Y-97596352D01*
X104446172Y-97596354D01*
X104396485Y-97664741D01*
X104330476Y-97755594D01*
X104240485Y-97932213D01*
X104192511Y-97983009D01*
X104124690Y-97999804D01*
X104058555Y-97977267D01*
X104019515Y-97932213D01*
X103936657Y-97769595D01*
X103929524Y-97755595D01*
X103813828Y-97596354D01*
X103674646Y-97457172D01*
X103515405Y-97341476D01*
X103509066Y-97338246D01*
X103340029Y-97252117D01*
X103152826Y-97191290D01*
X102958422Y-97160500D01*
X102958417Y-97160500D01*
X102761583Y-97160500D01*
X102761578Y-97160500D01*
X102567173Y-97191290D01*
X102379970Y-97252117D01*
X102204594Y-97341476D01*
X102114163Y-97407179D01*
X102045354Y-97457172D01*
X102045352Y-97457174D01*
X102045351Y-97457174D01*
X101906174Y-97596351D01*
X101906174Y-97596352D01*
X101906172Y-97596354D01*
X101856485Y-97664741D01*
X101790476Y-97755594D01*
X101700485Y-97932213D01*
X101652511Y-97983009D01*
X101584690Y-97999804D01*
X101518555Y-97977267D01*
X101479515Y-97932213D01*
X101396657Y-97769595D01*
X101389524Y-97755595D01*
X101273828Y-97596354D01*
X101134646Y-97457172D01*
X100975405Y-97341476D01*
X100969066Y-97338246D01*
X100800029Y-97252117D01*
X100612826Y-97191290D01*
X100418422Y-97160500D01*
X100418417Y-97160500D01*
X100221583Y-97160500D01*
X100221578Y-97160500D01*
X100027173Y-97191290D01*
X99839970Y-97252117D01*
X99664594Y-97341476D01*
X99574163Y-97407179D01*
X99505354Y-97457172D01*
X99505352Y-97457174D01*
X99505351Y-97457174D01*
X99366174Y-97596351D01*
X99366174Y-97596352D01*
X99366172Y-97596354D01*
X99316485Y-97664741D01*
X99250476Y-97755594D01*
X99160485Y-97932213D01*
X99112511Y-97983009D01*
X99044690Y-97999804D01*
X98978555Y-97977267D01*
X98939515Y-97932213D01*
X98856657Y-97769595D01*
X98849524Y-97755595D01*
X98733828Y-97596354D01*
X98594646Y-97457172D01*
X98435405Y-97341476D01*
X98429066Y-97338246D01*
X98260029Y-97252117D01*
X98072826Y-97191290D01*
X97878422Y-97160500D01*
X97878417Y-97160500D01*
X97681583Y-97160500D01*
X97681578Y-97160500D01*
X97487173Y-97191290D01*
X97299970Y-97252117D01*
X97124594Y-97341476D01*
X97034163Y-97407179D01*
X96965354Y-97457172D01*
X96965352Y-97457174D01*
X96965351Y-97457174D01*
X96826174Y-97596351D01*
X96826174Y-97596352D01*
X96826172Y-97596354D01*
X96776485Y-97664741D01*
X96710476Y-97755594D01*
X96621117Y-97930970D01*
X96560290Y-98118173D01*
X96529500Y-98312577D01*
X96529500Y-98509422D01*
X96560290Y-98703826D01*
X96621117Y-98891029D01*
X96710475Y-99066403D01*
X96710476Y-99066405D01*
X96826172Y-99225646D01*
X96965354Y-99364828D01*
X96984623Y-99378828D01*
X97078385Y-99446950D01*
X97121051Y-99502280D01*
X97129500Y-99547268D01*
X97129500Y-102810071D01*
X97144505Y-102885500D01*
X97144505Y-102885502D01*
X97151896Y-102922661D01*
X97154499Y-102935744D01*
X97203535Y-103054127D01*
X97272235Y-103156945D01*
X97274726Y-103160673D01*
X101934328Y-107820275D01*
X101934331Y-107820277D01*
X101995741Y-107861309D01*
X102040873Y-107891465D01*
X102159256Y-107940501D01*
X102159260Y-107940501D01*
X102159261Y-107940502D01*
X102284928Y-107965500D01*
X102284931Y-107965500D01*
X117789192Y-107965500D01*
X117856231Y-107985185D01*
X117876873Y-108001819D01*
X122517862Y-112642808D01*
X122551347Y-112704131D01*
X122552654Y-112749886D01*
X122524500Y-112927647D01*
X122524500Y-113132351D01*
X122556522Y-113334534D01*
X122619781Y-113529223D01*
X122671135Y-113630009D01*
X122688964Y-113665001D01*
X122712715Y-113711613D01*
X122833028Y-113877213D01*
X122977786Y-114021971D01*
X123083441Y-114098732D01*
X123143390Y-114142287D01*
X123259607Y-114201503D01*
X123325776Y-114235218D01*
X123325778Y-114235218D01*
X123325781Y-114235220D01*
X123416856Y-114264812D01*
X123520465Y-114298477D01*
X123621557Y-114314488D01*
X123722648Y-114330500D01*
X123722649Y-114330500D01*
X123927351Y-114330500D01*
X123927352Y-114330500D01*
X124129534Y-114298477D01*
X124324219Y-114235220D01*
X124506610Y-114142287D01*
X124635482Y-114048657D01*
X124672213Y-114021971D01*
X124672215Y-114021968D01*
X124672219Y-114021966D01*
X124816966Y-113877219D01*
X124816968Y-113877215D01*
X124816971Y-113877213D01*
X124869732Y-113804590D01*
X124937287Y-113711610D01*
X125030220Y-113529219D01*
X125093477Y-113334534D01*
X125125500Y-113132352D01*
X125125500Y-112927648D01*
X125093477Y-112725466D01*
X125088833Y-112711174D01*
X125030218Y-112530776D01*
X124986909Y-112445778D01*
X124937287Y-112348390D01*
X124908449Y-112308697D01*
X124816971Y-112182786D01*
X124672213Y-112038028D01*
X124506611Y-111917713D01*
X124413369Y-111870203D01*
X124362574Y-111822229D01*
X124345779Y-111754407D01*
X124368317Y-111688273D01*
X124413371Y-111649234D01*
X124506346Y-111601861D01*
X124506347Y-111601861D01*
X124550921Y-111569474D01*
X123871446Y-110890000D01*
X123877661Y-110890000D01*
X123979394Y-110862741D01*
X124070606Y-110810080D01*
X124145080Y-110735606D01*
X124197741Y-110644394D01*
X124225000Y-110542661D01*
X124225000Y-110536447D01*
X124904474Y-111215921D01*
X124936859Y-111171349D01*
X125029755Y-110989031D01*
X125092990Y-110794417D01*
X125125000Y-110592317D01*
X125125000Y-110387682D01*
X125092990Y-110185582D01*
X125029755Y-109990968D01*
X124936859Y-109808650D01*
X124904474Y-109764077D01*
X124904474Y-109764076D01*
X124225000Y-110443551D01*
X124225000Y-110437339D01*
X124197741Y-110335606D01*
X124145080Y-110244394D01*
X124070606Y-110169920D01*
X123979394Y-110117259D01*
X123877661Y-110090000D01*
X123871446Y-110090000D01*
X124550922Y-109410524D01*
X124550921Y-109410523D01*
X124506359Y-109378147D01*
X124506350Y-109378141D01*
X124324031Y-109285244D01*
X124129417Y-109222009D01*
X123927317Y-109190000D01*
X123722683Y-109190000D01*
X123520582Y-109222009D01*
X123325968Y-109285244D01*
X123143644Y-109378143D01*
X123099077Y-109410523D01*
X123099077Y-109410524D01*
X123778554Y-110090000D01*
X123772339Y-110090000D01*
X123670606Y-110117259D01*
X123579394Y-110169920D01*
X123504920Y-110244394D01*
X123452259Y-110335606D01*
X123425000Y-110437339D01*
X123425000Y-110443553D01*
X122745524Y-109764077D01*
X122745523Y-109764077D01*
X122713143Y-109808644D01*
X122620244Y-109990968D01*
X122557009Y-110185582D01*
X122525000Y-110387682D01*
X122525000Y-110510691D01*
X122505315Y-110577730D01*
X122452511Y-110623485D01*
X122383353Y-110633429D01*
X122319797Y-110604404D01*
X122313319Y-110598372D01*
X118524673Y-106809726D01*
X118524669Y-106809723D01*
X118418127Y-106738535D01*
X118350442Y-106710499D01*
X118299744Y-106689499D01*
X118299738Y-106689497D01*
X118174071Y-106664500D01*
X118174069Y-106664500D01*
X102669808Y-106664500D01*
X102602769Y-106644815D01*
X102582127Y-106628181D01*
X98466819Y-102512873D01*
X98433334Y-102451550D01*
X98430500Y-102425192D01*
X98430500Y-99547268D01*
X98450185Y-99480229D01*
X98481615Y-99446950D01*
X98594646Y-99364828D01*
X98733828Y-99225646D01*
X98849524Y-99066405D01*
X98916724Y-98934517D01*
X98939515Y-98889787D01*
X98987489Y-98838990D01*
X99055310Y-98822195D01*
X99121445Y-98844732D01*
X99160485Y-98889787D01*
X99250474Y-99066403D01*
X99263792Y-99084733D01*
X99366172Y-99225646D01*
X99505354Y-99364828D01*
X99524623Y-99378828D01*
X99618385Y-99446950D01*
X99661051Y-99502280D01*
X99669500Y-99547268D01*
X99669500Y-102810071D01*
X99684505Y-102885500D01*
X99684505Y-102885502D01*
X99691896Y-102922661D01*
X99694499Y-102935744D01*
X99743535Y-103054127D01*
X99812235Y-103156945D01*
X99814726Y-103160673D01*
X102569328Y-105915275D01*
X102672228Y-105984030D01*
X102674085Y-105985270D01*
X102675873Y-105986465D01*
X102794256Y-106035501D01*
X102794260Y-106035501D01*
X102794261Y-106035502D01*
X102919928Y-106060500D01*
X102919931Y-106060500D01*
X122626929Y-106060500D01*
X122693968Y-106080185D01*
X122727245Y-106111613D01*
X122793591Y-106202930D01*
X122833034Y-106257219D01*
X122977786Y-106401971D01*
X123098226Y-106489474D01*
X123143390Y-106522287D01*
X123235529Y-106569234D01*
X123325776Y-106615218D01*
X123325778Y-106615218D01*
X123325781Y-106615220D01*
X123416856Y-106644812D01*
X123520465Y-106678477D01*
X123563613Y-106685311D01*
X123722648Y-106710500D01*
X123722649Y-106710500D01*
X123927351Y-106710500D01*
X123927352Y-106710500D01*
X124129534Y-106678477D01*
X124324219Y-106615220D01*
X124506610Y-106522287D01*
X124635482Y-106428657D01*
X124672213Y-106401971D01*
X124672215Y-106401968D01*
X124672219Y-106401966D01*
X124816966Y-106257219D01*
X124816968Y-106257215D01*
X124816971Y-106257213D01*
X124896876Y-106147231D01*
X124937287Y-106091610D01*
X125030220Y-105909219D01*
X125093477Y-105714534D01*
X125125500Y-105512352D01*
X125125500Y-105307648D01*
X125104787Y-105176873D01*
X125093477Y-105105465D01*
X125062458Y-105010000D01*
X125030220Y-104910781D01*
X125030218Y-104910778D01*
X125030218Y-104910776D01*
X124978865Y-104809991D01*
X124937287Y-104728390D01*
X124905092Y-104684077D01*
X124816971Y-104562786D01*
X124672213Y-104418028D01*
X124506611Y-104297713D01*
X124413369Y-104250203D01*
X124362574Y-104202229D01*
X124345779Y-104134407D01*
X124368317Y-104068273D01*
X124413371Y-104029234D01*
X124506346Y-103981861D01*
X124506347Y-103981861D01*
X124550921Y-103949474D01*
X123871447Y-103270000D01*
X123877661Y-103270000D01*
X123979394Y-103242741D01*
X124070606Y-103190080D01*
X124145080Y-103115606D01*
X124197741Y-103024394D01*
X124225000Y-102922661D01*
X124225000Y-102916447D01*
X124904474Y-103595921D01*
X124936859Y-103551349D01*
X125029755Y-103369031D01*
X125092990Y-103174417D01*
X125125000Y-102972317D01*
X125125000Y-102767682D01*
X125092990Y-102565582D01*
X125029755Y-102370968D01*
X124936859Y-102188650D01*
X124904474Y-102144077D01*
X124904474Y-102144076D01*
X124225000Y-102823551D01*
X124225000Y-102817339D01*
X124197741Y-102715606D01*
X124145080Y-102624394D01*
X124070606Y-102549920D01*
X123979394Y-102497259D01*
X123877661Y-102470000D01*
X123871446Y-102470000D01*
X124550922Y-101790524D01*
X124550921Y-101790523D01*
X124506359Y-101758147D01*
X124506350Y-101758141D01*
X124324031Y-101665244D01*
X124129417Y-101602009D01*
X123927317Y-101570000D01*
X123722683Y-101570000D01*
X123520582Y-101602009D01*
X123325968Y-101665244D01*
X123143644Y-101758143D01*
X123099077Y-101790523D01*
X123099077Y-101790524D01*
X123778554Y-102470000D01*
X123772339Y-102470000D01*
X123670606Y-102497259D01*
X123579394Y-102549920D01*
X123504920Y-102624394D01*
X123452259Y-102715606D01*
X123425000Y-102817339D01*
X123425000Y-102823553D01*
X122745524Y-102144077D01*
X122745523Y-102144077D01*
X122713143Y-102188644D01*
X122620244Y-102370968D01*
X122557009Y-102565582D01*
X122525000Y-102767682D01*
X122525000Y-102972317D01*
X122557009Y-103174417D01*
X122620244Y-103369031D01*
X122713141Y-103551350D01*
X122713147Y-103551359D01*
X122745523Y-103595921D01*
X122745524Y-103595922D01*
X123425000Y-102916446D01*
X123425000Y-102922661D01*
X123452259Y-103024394D01*
X123504920Y-103115606D01*
X123579394Y-103190080D01*
X123670606Y-103242741D01*
X123772339Y-103270000D01*
X123778553Y-103270000D01*
X123099076Y-103949474D01*
X123143652Y-103981861D01*
X123236628Y-104029234D01*
X123287425Y-104077208D01*
X123304220Y-104145029D01*
X123281683Y-104211164D01*
X123236630Y-104250203D01*
X123143388Y-104297713D01*
X122977786Y-104418028D01*
X122833034Y-104562780D01*
X122833030Y-104562786D01*
X122727246Y-104708386D01*
X122671918Y-104751051D01*
X122626929Y-104759500D01*
X103304808Y-104759500D01*
X103237769Y-104739815D01*
X103217127Y-104723181D01*
X101006819Y-102512873D01*
X100973334Y-102451550D01*
X100970500Y-102425192D01*
X100970500Y-99547268D01*
X100990185Y-99480229D01*
X101021615Y-99446950D01*
X101134646Y-99364828D01*
X101273828Y-99225646D01*
X101389524Y-99066405D01*
X101456724Y-98934517D01*
X101479515Y-98889787D01*
X101527489Y-98838990D01*
X101595310Y-98822195D01*
X101661445Y-98844732D01*
X101700485Y-98889787D01*
X101790474Y-99066403D01*
X101803792Y-99084733D01*
X101906172Y-99225646D01*
X102045354Y-99364828D01*
X102204595Y-99480524D01*
X102232070Y-99494523D01*
X102379970Y-99569882D01*
X102379972Y-99569882D01*
X102379975Y-99569884D01*
X102480317Y-99602487D01*
X102567173Y-99630709D01*
X102761578Y-99661500D01*
X102761583Y-99661500D01*
X102958422Y-99661500D01*
X103152826Y-99630709D01*
X103340025Y-99569884D01*
X103515405Y-99480524D01*
X103674646Y-99364828D01*
X103813828Y-99225646D01*
X103929524Y-99066405D01*
X103996724Y-98934517D01*
X104019515Y-98889787D01*
X104067489Y-98838990D01*
X104135310Y-98822195D01*
X104201445Y-98844732D01*
X104240485Y-98889787D01*
X104330474Y-99066403D01*
X104343792Y-99084733D01*
X104446172Y-99225646D01*
X104585354Y-99364828D01*
X104744595Y-99480524D01*
X104772070Y-99494523D01*
X104919970Y-99569882D01*
X104919972Y-99569882D01*
X104919975Y-99569884D01*
X105020317Y-99602487D01*
X105107173Y-99630709D01*
X105301578Y-99661500D01*
X105301583Y-99661500D01*
X105498422Y-99661500D01*
X105692826Y-99630709D01*
X105880025Y-99569884D01*
X106055405Y-99480524D01*
X106214646Y-99364828D01*
X106353828Y-99225646D01*
X106469524Y-99066405D01*
X106536724Y-98934517D01*
X106559515Y-98889787D01*
X106607489Y-98838990D01*
X106675310Y-98822195D01*
X106741445Y-98844732D01*
X106780485Y-98889787D01*
X106870474Y-99066403D01*
X106883792Y-99084733D01*
X106986172Y-99225646D01*
X107125354Y-99364828D01*
X107284595Y-99480524D01*
X107312070Y-99494523D01*
X107459970Y-99569882D01*
X107459972Y-99569882D01*
X107459975Y-99569884D01*
X107560317Y-99602487D01*
X107647173Y-99630709D01*
X107841578Y-99661500D01*
X107841583Y-99661500D01*
X108038422Y-99661500D01*
X108232826Y-99630709D01*
X108420025Y-99569884D01*
X108595405Y-99480524D01*
X108754646Y-99364828D01*
X108893828Y-99225646D01*
X109009524Y-99066405D01*
X109076724Y-98934517D01*
X109099515Y-98889787D01*
X109147489Y-98838990D01*
X109215310Y-98822195D01*
X109281445Y-98844732D01*
X109320485Y-98889787D01*
X109410474Y-99066403D01*
X109423792Y-99084733D01*
X109526172Y-99225646D01*
X109665354Y-99364828D01*
X109824595Y-99480524D01*
X109852070Y-99494523D01*
X109999970Y-99569882D01*
X109999972Y-99569882D01*
X109999975Y-99569884D01*
X110100317Y-99602487D01*
X110187173Y-99630709D01*
X110381578Y-99661500D01*
X110381583Y-99661500D01*
X110578422Y-99661500D01*
X110772826Y-99630709D01*
X110960025Y-99569884D01*
X111135405Y-99480524D01*
X111294646Y-99364828D01*
X111433828Y-99225646D01*
X111549524Y-99066405D01*
X111616724Y-98934517D01*
X111639515Y-98889787D01*
X111687489Y-98838990D01*
X111755310Y-98822195D01*
X111821445Y-98844732D01*
X111860485Y-98889787D01*
X111950474Y-99066403D01*
X111963792Y-99084733D01*
X112066172Y-99225646D01*
X112205354Y-99364828D01*
X112364595Y-99480524D01*
X112392070Y-99494523D01*
X112539970Y-99569882D01*
X112539972Y-99569882D01*
X112539975Y-99569884D01*
X112640317Y-99602487D01*
X112727173Y-99630709D01*
X112921578Y-99661500D01*
X112921583Y-99661500D01*
X113118422Y-99661500D01*
X113312826Y-99630709D01*
X113500025Y-99569884D01*
X113675405Y-99480524D01*
X113834646Y-99364828D01*
X113973828Y-99225646D01*
X114089524Y-99066405D01*
X114176153Y-98896385D01*
X114224127Y-98845588D01*
X114291948Y-98828793D01*
X114358083Y-98851330D01*
X114397952Y-98901168D01*
X114398904Y-98900684D01*
X114401116Y-98905025D01*
X114490476Y-99080405D01*
X114606172Y-99239646D01*
X114745354Y-99378828D01*
X114904595Y-99494524D01*
X114987455Y-99536743D01*
X115079970Y-99583882D01*
X115079972Y-99583882D01*
X115079975Y-99583884D01*
X115180317Y-99616487D01*
X115267173Y-99644709D01*
X115461578Y-99675500D01*
X115461583Y-99675500D01*
X115658422Y-99675500D01*
X115852826Y-99644709D01*
X115895913Y-99630709D01*
X116040025Y-99583884D01*
X116215405Y-99494524D01*
X116374646Y-99378828D01*
X116513828Y-99239646D01*
X116629524Y-99080405D01*
X116718884Y-98905025D01*
X116779709Y-98717826D01*
X116781926Y-98703826D01*
X116810500Y-98523422D01*
X116810500Y-98326577D01*
X116779709Y-98132173D01*
X116718882Y-97944970D01*
X116629523Y-97769594D01*
X116619352Y-97755595D01*
X116513828Y-97610354D01*
X116374646Y-97471172D01*
X116215405Y-97355476D01*
X116040029Y-97266117D01*
X115852826Y-97205290D01*
X115658422Y-97174500D01*
X115658417Y-97174500D01*
X115461583Y-97174500D01*
X115461578Y-97174500D01*
X115267173Y-97205290D01*
X115079970Y-97266117D01*
X114904594Y-97355476D01*
X114877655Y-97375049D01*
X114745354Y-97471172D01*
X114745352Y-97471174D01*
X114745351Y-97471174D01*
X114606174Y-97610351D01*
X114606174Y-97610352D01*
X114606172Y-97610354D01*
X114561455Y-97671902D01*
X114490476Y-97769594D01*
X114403846Y-97939615D01*
X114355871Y-97990411D01*
X114288050Y-98007206D01*
X114221915Y-97984668D01*
X114182050Y-97934829D01*
X114181096Y-97935316D01*
X114096657Y-97769595D01*
X114089524Y-97755595D01*
X113973828Y-97596354D01*
X113834646Y-97457172D01*
X113675405Y-97341476D01*
X113669066Y-97338246D01*
X113500029Y-97252117D01*
X113312826Y-97191290D01*
X113118422Y-97160500D01*
X113118417Y-97160500D01*
X112921583Y-97160500D01*
X112921578Y-97160500D01*
X112727173Y-97191290D01*
X112539970Y-97252117D01*
X112364594Y-97341476D01*
X112274163Y-97407179D01*
X112205354Y-97457172D01*
X112205352Y-97457174D01*
X112205351Y-97457174D01*
X112066174Y-97596351D01*
X112066174Y-97596352D01*
X112066172Y-97596354D01*
X112016485Y-97664741D01*
X111950476Y-97755594D01*
X111860485Y-97932213D01*
X111812511Y-97983009D01*
X111744690Y-97999804D01*
X111678555Y-97977267D01*
X111639515Y-97932213D01*
X111556657Y-97769595D01*
X111549524Y-97755595D01*
X111433828Y-97596354D01*
X111294646Y-97457172D01*
X111135405Y-97341476D01*
X111129066Y-97338246D01*
X110960029Y-97252117D01*
X110772826Y-97191290D01*
X110578422Y-97160500D01*
X110578417Y-97160500D01*
X110381583Y-97160500D01*
X110381578Y-97160500D01*
X110187173Y-97191290D01*
X109999970Y-97252117D01*
X109824594Y-97341476D01*
X109734163Y-97407179D01*
X109665354Y-97457172D01*
X109665352Y-97457174D01*
X109665351Y-97457174D01*
X109526174Y-97596351D01*
X109526174Y-97596352D01*
X109526172Y-97596354D01*
X109476485Y-97664741D01*
X109410476Y-97755594D01*
X109320485Y-97932213D01*
X109272511Y-97983009D01*
X109204690Y-97999804D01*
X109138555Y-97977267D01*
X109099515Y-97932213D01*
X109016657Y-97769595D01*
X109009524Y-97755595D01*
X108893828Y-97596354D01*
X108754646Y-97457172D01*
X108641613Y-97375048D01*
X108598949Y-97319718D01*
X108590500Y-97274731D01*
X108590500Y-97004728D01*
X108565502Y-96879061D01*
X108565501Y-96879060D01*
X108565501Y-96879056D01*
X108516465Y-96760673D01*
X108445277Y-96654131D01*
X108445275Y-96654129D01*
X108445273Y-96654126D01*
X108445272Y-96654125D01*
X97770146Y-85979000D01*
X103632000Y-85979000D01*
X103636825Y-85789614D01*
X111852834Y-94005624D01*
X111852842Y-94005630D01*
X111992127Y-94098697D01*
X111992130Y-94098698D01*
X111992138Y-94098704D01*
X112082806Y-94136259D01*
X112146918Y-94162816D01*
X112311228Y-94195499D01*
X112311232Y-94195500D01*
X112311233Y-94195500D01*
X117558768Y-94195500D01*
X117558769Y-94195499D01*
X117723082Y-94162816D01*
X117877863Y-94098703D01*
X118017162Y-94005626D01*
X118135626Y-93887162D01*
X118228703Y-93747863D01*
X118292816Y-93593082D01*
X118325500Y-93428767D01*
X118325500Y-93261233D01*
X118292816Y-93096918D01*
X118228703Y-92942137D01*
X118179307Y-92868211D01*
X118135626Y-92802837D01*
X118017162Y-92684373D01*
X117877860Y-92591295D01*
X117723082Y-92527184D01*
X117723074Y-92527182D01*
X117558771Y-92494500D01*
X117558767Y-92494500D01*
X112798651Y-92494500D01*
X112731612Y-92474815D01*
X112710970Y-92458181D01*
X103696591Y-83443801D01*
X103803812Y-79235356D01*
X115359094Y-79146848D01*
X115426283Y-79166018D01*
G37*
%TD.AperFunction*%
M02*
