M48
; DRILL file {KiCad 9.0.6} date 2026-01-21T01:22:44+0300
; FORMAT={-:-/ absolute / metric / decimal}
; #@! TF.CreationDate,2026-01-21T01:22:44+03:00
; #@! TF.GenerationSoftware,Kicad,Pcbnew,9.0.6
; #@! TF.FileFunction,Plated,1,2,PTH
FMAT,2
METRIC
; #@! TA.AperFunction,Plated,PTH,ViaDrill
T1C0.300
; #@! TA.AperFunction,Plated,PTH,ViaDrill
T2C0.600
; #@! TA.AperFunction,Plated,PTH,ComponentDrill
T3C0.750
; #@! TA.AperFunction,Plated,PTH,ComponentDrill
T4C0.800
; #@! TA.AperFunction,Plated,PTH,ComponentDrill
T5C0.850
; #@! TA.AperFunction,Plated,PTH,ComponentDrill
T6C1.000
; #@! TA.AperFunction,Plated,PTH,ComponentDrill
T7C1.100
; #@! TA.AperFunction,Plated,PTH,ComponentDrill
T8C1.200
; #@! TA.AperFunction,Plated,PTH,ComponentDrill
T9C1.300
; #@! TA.AperFunction,Plated,PTH,ViaDrill
T10C1.500
; #@! TA.AperFunction,Plated,PTH,ComponentDrill
T11C1.600
; #@! TA.AperFunction,Plated,PTH,ComponentDrill
T12C1.850
; #@! TA.AperFunction,Plated,PTH,ComponentDrill
T13C3.500
%
G90
G05
T1
X114.935Y-90.17
X117.475Y-85.725
X117.475Y-93.345
X119.888Y-90.17
X123.825Y-85.725
X125.882Y-90.805
X127.635Y-118.11
X127.978Y-79.083
X134.62Y-101.555
X137.414Y-120.65
X139.065Y-118.745
X139.7Y-97.028
X143.51Y-120.65
X144.78Y-93.915
X146.05Y-130.81
X146.685Y-97.155
X147.002Y-101.282
X147.32Y-130.81
X152.082Y-98.742
X154.439Y-104.641
T2
X128.905Y-97.79
X154.457Y-120.269
T3
X94.793Y-78.029
X94.793Y-80.029
X94.793Y-82.029
X94.793Y-84.029
X94.793Y-86.029
X94.793Y-88.029
X94.793Y-90.029
X94.793Y-92.029
T4
X106.68Y-83.82
X109.22Y-83.82
X111.76Y-83.82
X123.825Y-102.87
X123.825Y-105.41
X123.825Y-110.49
X123.825Y-113.03
X131.445Y-102.87
X131.445Y-105.41
X131.445Y-110.49
X131.445Y-113.03
X137.16Y-83.82
X139.7Y-83.82
X142.24Y-83.82
X149.855Y-105.41
X149.855Y-107.95
X149.855Y-110.49
X149.855Y-113.03
X157.475Y-105.41
X157.475Y-107.95
X157.475Y-110.49
X157.475Y-113.03
T5
X97.78Y-98.411
X97.78Y-113.665
X100.32Y-98.411
X100.32Y-113.665
X102.86Y-98.411
X102.86Y-113.665
X105.4Y-98.411
X105.4Y-113.665
X107.94Y-98.411
X107.94Y-113.665
X110.48Y-98.411
X110.48Y-113.665
X113.02Y-98.411
X113.02Y-113.665
X115.56Y-98.425
X115.56Y-113.665
T6
X155.875Y-81.715
X167.875Y-81.715
T7
X162.192Y-114.935
X169.812Y-114.935
X178.918Y-87.122
X178.918Y-92.202
T8
X104.14Y-65.515
X104.14Y-70.595
X173.892Y-89.662
T9
X155.875Y-93.915
X161.925Y-79.765
X167.925Y-93.965
T10
X121.285Y-77.47
X144.272Y-77.47
T11
X112.37Y-71.069
X119.99Y-71.069
X127.61Y-71.069
X135.23Y-71.069
X156.21Y-71.005
X163.83Y-71.005
T12
X179.375Y-102.87
X179.375Y-110.49
X179.375Y-118.11
X179.705Y-76.2
T13
X94.844Y-66.04
X94.86Y-129.54
X177.698Y-66.396
X177.8Y-129.54
M30
