%TF.GenerationSoftware,KiCad,Pcbnew,9.0.6*%
%TF.CreationDate,2026-01-21T01:22:50+03:00*%
%TF.ProjectId,Backup power switch 12v Module,4261636b-7570-4207-906f-776572207377,rev?*%
%TF.SameCoordinates,Original*%
%TF.FileFunction,Copper,L1,Top*%
%TF.FilePolarity,Positive*%
%FSLAX46Y46*%
G04 Gerber Fmt 4.6, Leading zero omitted, Abs format (unit mm)*
G04 Created by KiCad (PCBNEW 9.0.6) date 2026-01-21 01:22:50*
%MOMM*%
%LPD*%
G01*
G04 APERTURE LIST*
G04 Aperture macros list*
%AMRoundRect*
0 Rectangle with rounded corners*
0 $1 Rounding radius*
0 $2 $3 $4 $5 $6 $7 $8 $9 X,Y pos of 4 corners*
0 Add a 4 corners polygon primitive as box body*
4,1,4,$2,$3,$4,$5,$6,$7,$8,$9,$2,$3,0*
0 Add four circle primitives for the rounded corners*
1,1,$1+$1,$2,$3*
1,1,$1+$1,$4,$5*
1,1,$1+$1,$6,$7*
1,1,$1+$1,$8,$9*
0 Add four rect primitives between the rounded corners*
20,1,$1+$1,$2,$3,$4,$5,0*
20,1,$1+$1,$4,$5,$6,$7,0*
20,1,$1+$1,$6,$7,$8,$9,0*
20,1,$1+$1,$8,$9,$2,$3,0*%
G04 Aperture macros list end*
%TA.AperFunction,ComponentPad*%
%ADD10C,2.400000*%
%TD*%
%TA.AperFunction,ComponentPad*%
%ADD11O,2.400000X2.400000*%
%TD*%
%TA.AperFunction,SMDPad,CuDef*%
%ADD12RoundRect,0.237500X0.250000X0.237500X-0.250000X0.237500X-0.250000X-0.237500X0.250000X-0.237500X0*%
%TD*%
%TA.AperFunction,SMDPad,CuDef*%
%ADD13RoundRect,0.249999X-0.450001X-1.425001X0.450001X-1.425001X0.450001X1.425001X-0.450001X1.425001X0*%
%TD*%
%TA.AperFunction,SMDPad,CuDef*%
%ADD14RoundRect,0.250000X0.450000X-0.350000X0.450000X0.350000X-0.450000X0.350000X-0.450000X-0.350000X0*%
%TD*%
%TA.AperFunction,ComponentPad*%
%ADD15RoundRect,0.250000X-0.625000X0.350000X-0.625000X-0.350000X0.625000X-0.350000X0.625000X0.350000X0*%
%TD*%
%TA.AperFunction,ComponentPad*%
%ADD16O,1.750000X1.200000*%
%TD*%
%TA.AperFunction,SMDPad,CuDef*%
%ADD17RoundRect,0.250000X1.000000X0.650000X-1.000000X0.650000X-1.000000X-0.650000X1.000000X-0.650000X0*%
%TD*%
%TA.AperFunction,SMDPad,CuDef*%
%ADD18RoundRect,0.250000X0.350000X0.450000X-0.350000X0.450000X-0.350000X-0.450000X0.350000X-0.450000X0*%
%TD*%
%TA.AperFunction,ComponentPad*%
%ADD19RoundRect,0.250000X0.550000X0.550000X-0.550000X0.550000X-0.550000X-0.550000X0.550000X-0.550000X0*%
%TD*%
%TA.AperFunction,ComponentPad*%
%ADD20C,1.600000*%
%TD*%
%TA.AperFunction,ComponentPad*%
%ADD21C,3.000000*%
%TD*%
%TA.AperFunction,ComponentPad*%
%ADD22C,2.500000*%
%TD*%
%TA.AperFunction,ComponentPad*%
%ADD23C,1.440000*%
%TD*%
%TA.AperFunction,SMDPad,CuDef*%
%ADD24RoundRect,0.250000X-0.475000X0.337500X-0.475000X-0.337500X0.475000X-0.337500X0.475000X0.337500X0*%
%TD*%
%TA.AperFunction,SMDPad,CuDef*%
%ADD25RoundRect,0.250000X-0.350000X-0.450000X0.350000X-0.450000X0.350000X0.450000X-0.350000X0.450000X0*%
%TD*%
%TA.AperFunction,SMDPad,CuDef*%
%ADD26RoundRect,0.150000X0.150000X-0.587500X0.150000X0.587500X-0.150000X0.587500X-0.150000X-0.587500X0*%
%TD*%
%TA.AperFunction,SMDPad,CuDef*%
%ADD27RoundRect,0.250001X0.944999X-0.507499X0.944999X0.507499X-0.944999X0.507499X-0.944999X-0.507499X0*%
%TD*%
%TA.AperFunction,SMDPad,CuDef*%
%ADD28RoundRect,0.237500X-0.287500X-0.237500X0.287500X-0.237500X0.287500X0.237500X-0.287500X0.237500X0*%
%TD*%
%TA.AperFunction,ComponentPad*%
%ADD29C,3.500000*%
%TD*%
%TA.AperFunction,ComponentPad*%
%ADD30RoundRect,0.249999X-0.850001X-0.850001X0.850001X-0.850001X0.850001X0.850001X-0.850001X0.850001X0*%
%TD*%
%TA.AperFunction,ComponentPad*%
%ADD31C,2.200000*%
%TD*%
%TA.AperFunction,ComponentPad*%
%ADD32C,3.900000*%
%TD*%
%TA.AperFunction,ConnectorPad*%
%ADD33C,7.000000*%
%TD*%
%TA.AperFunction,ComponentPad*%
%ADD34C,3.400000*%
%TD*%
%TA.AperFunction,SMDPad,CuDef*%
%ADD35RoundRect,0.200000X0.200000X-0.250000X0.200000X0.250000X-0.200000X0.250000X-0.200000X-0.250000X0*%
%TD*%
%TA.AperFunction,SMDPad,CuDef*%
%ADD36RoundRect,0.250000X1.100000X-0.412500X1.100000X0.412500X-1.100000X0.412500X-1.100000X-0.412500X0*%
%TD*%
%TA.AperFunction,SMDPad,CuDef*%
%ADD37RoundRect,0.250000X-1.100000X0.412500X-1.100000X-0.412500X1.100000X-0.412500X1.100000X0.412500X0*%
%TD*%
%TA.AperFunction,SMDPad,CuDef*%
%ADD38RoundRect,0.150000X0.150000X-0.825000X0.150000X0.825000X-0.150000X0.825000X-0.150000X-0.825000X0*%
%TD*%
%TA.AperFunction,SMDPad,CuDef*%
%ADD39RoundRect,0.250001X1.499999X-0.949999X1.499999X0.949999X-1.499999X0.949999X-1.499999X-0.949999X0*%
%TD*%
%TA.AperFunction,SMDPad,CuDef*%
%ADD40RoundRect,0.250000X0.475000X-0.337500X0.475000X0.337500X-0.475000X0.337500X-0.475000X-0.337500X0*%
%TD*%
%TA.AperFunction,SMDPad,CuDef*%
%ADD41RoundRect,0.237500X0.287500X0.237500X-0.287500X0.237500X-0.287500X-0.237500X0.287500X-0.237500X0*%
%TD*%
%TA.AperFunction,SMDPad,CuDef*%
%ADD42RoundRect,0.250000X0.337500X0.475000X-0.337500X0.475000X-0.337500X-0.475000X0.337500X-0.475000X0*%
%TD*%
%TA.AperFunction,SMDPad,CuDef*%
%ADD43RoundRect,0.250000X-0.300000X0.300000X-0.300000X-0.300000X0.300000X-0.300000X0.300000X0.300000X0*%
%TD*%
%TA.AperFunction,SMDPad,CuDef*%
%ADD44RoundRect,0.249999X1.425001X-0.450001X1.425001X0.450001X-1.425001X0.450001X-1.425001X-0.450001X0*%
%TD*%
%TA.AperFunction,SMDPad,CuDef*%
%ADD45RoundRect,0.375000X-0.625000X-0.375000X0.625000X-0.375000X0.625000X0.375000X-0.625000X0.375000X0*%
%TD*%
%TA.AperFunction,SMDPad,CuDef*%
%ADD46RoundRect,0.500000X-0.500000X-1.400000X0.500000X-1.400000X0.500000X1.400000X-0.500000X1.400000X0*%
%TD*%
%TA.AperFunction,SMDPad,CuDef*%
%ADD47R,0.510000X1.100000*%
%TD*%
%TA.AperFunction,ComponentPad*%
%ADD48C,1.500000*%
%TD*%
%TA.AperFunction,SMDPad,CuDef*%
%ADD49RoundRect,0.381000X-0.381000X0.762000X-0.381000X-0.762000X0.381000X-0.762000X0.381000X0.762000X0*%
%TD*%
%TA.AperFunction,SMDPad,CuDef*%
%ADD50RoundRect,0.381000X-0.381000X0.869000X-0.381000X-0.869000X0.381000X-0.869000X0.381000X0.869000X0*%
%TD*%
%TA.AperFunction,ComponentPad*%
%ADD51R,2.000000X1.905000*%
%TD*%
%TA.AperFunction,ComponentPad*%
%ADD52O,2.000000X1.905000*%
%TD*%
%TA.AperFunction,ViaPad*%
%ADD53C,0.600000*%
%TD*%
%TA.AperFunction,ViaPad*%
%ADD54C,1.000000*%
%TD*%
%TA.AperFunction,ViaPad*%
%ADD55C,2.000000*%
%TD*%
%TA.AperFunction,Conductor*%
%ADD56C,0.300000*%
%TD*%
%TA.AperFunction,Conductor*%
%ADD57C,4.000000*%
%TD*%
%TA.AperFunction,Conductor*%
%ADD58C,1.000000*%
%TD*%
%TA.AperFunction,Conductor*%
%ADD59C,2.000000*%
%TD*%
%TA.AperFunction,Conductor*%
%ADD60C,0.500000*%
%TD*%
%TA.AperFunction,Conductor*%
%ADD61C,0.700000*%
%TD*%
%TA.AperFunction,Conductor*%
%ADD62C,0.400000*%
%TD*%
%TA.AperFunction,Conductor*%
%ADD63C,1.500000*%
%TD*%
%TA.AperFunction,Conductor*%
%ADD64C,0.200000*%
%TD*%
G04 APERTURE END LIST*
D10*
X104140000Y-70595000D03*
D11*
X104140000Y-65515001D03*
D12*
X137080000Y-105410000D03*
X135255000Y-105410000D03*
D13*
X111250000Y-78105000D03*
X117350000Y-78105000D03*
D14*
X151130000Y-124190000D03*
X151130000Y-122190000D03*
D15*
X94792800Y-78028800D03*
D16*
X94792800Y-80028800D03*
X94792800Y-82028800D03*
X94792800Y-84028800D03*
X94792800Y-86028800D03*
X94792800Y-88028800D03*
X94792800Y-90028800D03*
X94792800Y-92028800D03*
D17*
X155670001Y-132080000D03*
X151669999Y-132080000D03*
D18*
X163925000Y-100965000D03*
X161925000Y-100965000D03*
D19*
X131445000Y-105410000D03*
D20*
X131445000Y-102870000D03*
X123825000Y-102870000D03*
X123825000Y-105410000D03*
D21*
X161925000Y-79765000D03*
D22*
X155875000Y-81715000D03*
D21*
X155875000Y-93915000D03*
X167925000Y-93965000D03*
D22*
X167875000Y-81715000D03*
D23*
X106680000Y-83820000D03*
X109220000Y-83820000D03*
X111760000Y-83820000D03*
D24*
X139700000Y-123422500D03*
X139700000Y-125497500D03*
D25*
X161830000Y-108585000D03*
X163830000Y-108585000D03*
D26*
X140655000Y-120952500D03*
X142555000Y-120952500D03*
X141605000Y-119077499D03*
D27*
X106680001Y-123905000D03*
X106680001Y-120650000D03*
D28*
X135255000Y-110490000D03*
X137005000Y-110490000D03*
D17*
X168268401Y-120650000D03*
X164268399Y-120650000D03*
D14*
X107950000Y-93710000D03*
X107950000Y-91710000D03*
D29*
X156210000Y-71005200D03*
X163830000Y-71005200D03*
D27*
X111760000Y-123905000D03*
X111760000Y-120650000D03*
D30*
X162192350Y-114935000D03*
D31*
X169812350Y-114935000D03*
D32*
X177698400Y-66395600D03*
D33*
X177698400Y-66395600D03*
D19*
X157475000Y-113030000D03*
D20*
X157475000Y-110490000D03*
X157475000Y-107950000D03*
X157475000Y-105410000D03*
X149855000Y-105410000D03*
X149855000Y-107950000D03*
X149855000Y-110490000D03*
X149855000Y-113030000D03*
D14*
X139700000Y-130540000D03*
X139700000Y-128540000D03*
D19*
X131445000Y-113030000D03*
D20*
X131445000Y-110490000D03*
X123825000Y-110490000D03*
X123825000Y-113030000D03*
D34*
X179705000Y-76200000D03*
D32*
X177800000Y-129540000D03*
D33*
X177800000Y-129540000D03*
D25*
X161830000Y-106045000D03*
X163830000Y-106045000D03*
D35*
X148275000Y-100060000D03*
X150175000Y-100060000D03*
X149225000Y-98060000D03*
D25*
X161830000Y-111125000D03*
X163830000Y-111125000D03*
D34*
X179374800Y-102870000D03*
D36*
X125730000Y-119672500D03*
X125730000Y-116547500D03*
D13*
X131570000Y-77470000D03*
X137670000Y-77470000D03*
D18*
X163925000Y-103505000D03*
X161925000Y-103505000D03*
D37*
X154990800Y-123100700D03*
X154990800Y-126225700D03*
D29*
X112369600Y-71069200D03*
X119989600Y-71069200D03*
X127609600Y-71069200D03*
X135229600Y-71069200D03*
D38*
X116078000Y-88200000D03*
X117348000Y-88200000D03*
X118618000Y-88200000D03*
X119888000Y-88200000D03*
X119888000Y-83250000D03*
X118618000Y-83250000D03*
X117348000Y-83250000D03*
X116078000Y-83250000D03*
D39*
X168275000Y-131270000D03*
X168275000Y-125270000D03*
D40*
X102870001Y-123315000D03*
X102870001Y-121240000D03*
D32*
X94843600Y-66040000D03*
D33*
X94843600Y-66040000D03*
D40*
X135890000Y-130577500D03*
X135890000Y-128502500D03*
D23*
X137160000Y-83820000D03*
X139700000Y-83820000D03*
X142240000Y-83820000D03*
D32*
X94860000Y-129540000D03*
D33*
X94860000Y-129540000D03*
D14*
X110490000Y-93710000D03*
X110490000Y-91710000D03*
D18*
X137108500Y-113538000D03*
X135108500Y-113538000D03*
D41*
X174579382Y-100097066D03*
X172829384Y-100097066D03*
D42*
X136927500Y-100330000D03*
X134852500Y-100330000D03*
D40*
X147320000Y-112797500D03*
X147320000Y-110722500D03*
D28*
X135263200Y-102870000D03*
X137013200Y-102870000D03*
D37*
X135890000Y-122897500D03*
X135890000Y-126022500D03*
D43*
X150495000Y-82420001D03*
X150495000Y-85219999D03*
D44*
X160020000Y-128780000D03*
X160020000Y-122680000D03*
D34*
X179374800Y-118110000D03*
D45*
X116230001Y-120890000D03*
X116230001Y-123190000D03*
X116230001Y-125490000D03*
D46*
X122530001Y-123190000D03*
D47*
X144050000Y-129550000D03*
X145050000Y-129550000D03*
X146050000Y-129550000D03*
X147050000Y-129550000D03*
X148050000Y-129550000D03*
X148050000Y-124450000D03*
X147050000Y-124450000D03*
X146050000Y-124450000D03*
X145050000Y-124450000D03*
X144050000Y-124450000D03*
D48*
X97780000Y-113665000D03*
D49*
X97790000Y-115045000D03*
D48*
X100320000Y-113665000D03*
D49*
X100330000Y-115045000D03*
D48*
X102860000Y-113665000D03*
D49*
X102870000Y-115045000D03*
D48*
X105400000Y-113665000D03*
D49*
X105409999Y-115045000D03*
D48*
X107940000Y-113665000D03*
D49*
X107950000Y-115045000D03*
D50*
X115570000Y-97045000D03*
D48*
X115560000Y-98425000D03*
D50*
X113030000Y-97045000D03*
D48*
X113020000Y-98411000D03*
D50*
X110490000Y-97045000D03*
D48*
X110480000Y-98411000D03*
D50*
X107950000Y-97045000D03*
D48*
X107940000Y-98411000D03*
D50*
X105409999Y-97045000D03*
D48*
X105400000Y-98411000D03*
D50*
X102870000Y-97045000D03*
D48*
X102860000Y-98411000D03*
D50*
X100330000Y-97045000D03*
D48*
X100320000Y-98411000D03*
D50*
X97790000Y-97045000D03*
D48*
X97780000Y-98411000D03*
X110480000Y-113665000D03*
D49*
X110490000Y-115045000D03*
D48*
X115560000Y-113665000D03*
D49*
X115570000Y-115045000D03*
D48*
X113020000Y-113665000D03*
D49*
X113030000Y-115045000D03*
D34*
X179374800Y-110490000D03*
D51*
X178917600Y-87122000D03*
D52*
X173891600Y-89662000D03*
X178917600Y-92202000D03*
D38*
X123190000Y-88200000D03*
X124460000Y-88200000D03*
X125730000Y-88200000D03*
X127000000Y-88200000D03*
X127000000Y-83250000D03*
X125730000Y-83250000D03*
X124460000Y-83250000D03*
X123190000Y-83250000D03*
D53*
X117475000Y-93345000D03*
X125882400Y-90805000D03*
X119888000Y-90170000D03*
X114935000Y-90170000D03*
X134620000Y-101555000D03*
D54*
X128905000Y-97790000D03*
X154457400Y-120269000D03*
D53*
X152082500Y-98742500D03*
X117475000Y-85725000D03*
X146685000Y-97155000D03*
X123825000Y-85725000D03*
X146050000Y-130810000D03*
X147320000Y-130810000D03*
X139065000Y-118745000D03*
X127635000Y-118110000D03*
D54*
X137414000Y-120650000D03*
X144780000Y-93915000D03*
D53*
X143510000Y-120650000D03*
D55*
X121285000Y-77470000D03*
X144272000Y-77470000D03*
D53*
X127977900Y-79082900D03*
X139700000Y-97028000D03*
X147002500Y-101282500D03*
X154439000Y-104641000D03*
D56*
X125730000Y-89535000D02*
X123825000Y-91440000D01*
X114300000Y-91440000D02*
X112395000Y-89535000D01*
X112395000Y-89535000D02*
X109855000Y-89535000D01*
X123825000Y-91440000D02*
X114300000Y-91440000D01*
X125730000Y-88200000D02*
X125730000Y-89535000D01*
X109855000Y-89535000D02*
X107950000Y-91440000D01*
X107950000Y-91440000D02*
X107950000Y-91710000D01*
D57*
X144272000Y-77470000D02*
X137670000Y-77470000D01*
D58*
X155875000Y-81715000D02*
X153999999Y-81715000D01*
X153999999Y-81715000D02*
X150495000Y-85219999D01*
D59*
X128905000Y-97790000D02*
X137160000Y-89535000D01*
X137160000Y-89535000D02*
X137160000Y-83820000D01*
D56*
X139700000Y-125497500D02*
X139997500Y-125497500D01*
X139997500Y-125497500D02*
X144050000Y-129550000D01*
D60*
X111250000Y-78105000D02*
X113030000Y-78105000D01*
D57*
X111250000Y-72188800D02*
X111250000Y-78105000D01*
D58*
X112369600Y-71069200D02*
X112369600Y-75080400D01*
D57*
X112369600Y-71069200D02*
X111250000Y-72188800D01*
D60*
X116078000Y-81153000D02*
X116078000Y-83250000D01*
D58*
X106680000Y-80770000D02*
X106680000Y-83820000D01*
D60*
X113030000Y-78105000D02*
X116078000Y-81153000D01*
D58*
X112369600Y-75080400D02*
X106680000Y-80770000D01*
D61*
X135927500Y-130540000D02*
X135890000Y-130577500D01*
X139700000Y-130540000D02*
X135927500Y-130540000D01*
D56*
X107680000Y-91710000D02*
X106680000Y-92710000D01*
X106680000Y-95250000D02*
X107950000Y-96520000D01*
X118618000Y-88200000D02*
X118618000Y-91440000D01*
X107950000Y-96520000D02*
X107950000Y-97045000D01*
X106680000Y-92710000D02*
X106680000Y-95250000D01*
X107950000Y-91710000D02*
X107680000Y-91710000D01*
D60*
X123125000Y-88200000D02*
X123190000Y-88200000D01*
D61*
X118821200Y-102793800D02*
X110490000Y-111125000D01*
D60*
X107950000Y-93710000D02*
X110490000Y-93710000D01*
D61*
X127965999Y-84150999D02*
X127900999Y-84150999D01*
X110490000Y-111125000D02*
X110490000Y-113655000D01*
X111760000Y-123905000D02*
X106680001Y-123905000D01*
X101693750Y-123315000D02*
X102870001Y-123315000D01*
X128270000Y-84455000D02*
X127965999Y-84150999D01*
D60*
X119888000Y-84963000D02*
X123125000Y-88200000D01*
D61*
X100965000Y-119380000D02*
X100965000Y-122586250D01*
X110490000Y-115570000D02*
X107950000Y-118110000D01*
X118821200Y-94691200D02*
X118821200Y-102793800D01*
X112475000Y-123190000D02*
X111760000Y-123905000D01*
X127900999Y-84150999D02*
X127000000Y-83250000D01*
X125637446Y-93345000D02*
X128270000Y-90712446D01*
D60*
X124460000Y-88200000D02*
X124460000Y-86995000D01*
X123190000Y-88200000D02*
X124460000Y-88200000D01*
D61*
X128270000Y-90712446D02*
X128270000Y-84455000D01*
X107950000Y-118110000D02*
X102235000Y-118110000D01*
X108315000Y-93345000D02*
X107950000Y-93710000D01*
D60*
X119888000Y-83250000D02*
X119888000Y-84963000D01*
D61*
X117475000Y-93345000D02*
X118821200Y-94691200D01*
X110490000Y-115045000D02*
X110490000Y-115570000D01*
X102235000Y-118110000D02*
X100965000Y-119380000D01*
X116230001Y-123190000D02*
X112475000Y-123190000D01*
X106680001Y-123905000D02*
X103460001Y-123905000D01*
X103460001Y-123905000D02*
X102870001Y-123315000D01*
X110490000Y-113655000D02*
X110480000Y-113665000D01*
D60*
X127000000Y-84455000D02*
X127000000Y-83250000D01*
D61*
X100965000Y-122586250D02*
X101693750Y-123315000D01*
X117475000Y-93345000D02*
X125637446Y-93345000D01*
X117475000Y-93345000D02*
X108315000Y-93345000D01*
D60*
X124460000Y-86995000D02*
X127000000Y-84455000D01*
D56*
X100320000Y-91277600D02*
X95071200Y-86028800D01*
X95071200Y-86028800D02*
X94792800Y-86028800D01*
X100320000Y-98411000D02*
X100320000Y-91277600D01*
X125882400Y-90805000D02*
X124612400Y-92075000D01*
X94792800Y-82028800D02*
X99173800Y-82028800D01*
X105409999Y-88264999D02*
X105409999Y-88265000D01*
X105409999Y-88265000D02*
X105400000Y-88274999D01*
X113030000Y-88265000D02*
X105409999Y-88265000D01*
D62*
X127000000Y-89687400D02*
X125882400Y-90805000D01*
X127000000Y-88200000D02*
X127000000Y-89687400D01*
D56*
X105409999Y-88265000D02*
X105409999Y-97045000D01*
X110855000Y-92075000D02*
X110490000Y-91710000D01*
X105400000Y-88274999D02*
X105400000Y-98411000D01*
X99173800Y-82028800D02*
X105409999Y-88264999D01*
D62*
X119888000Y-90170000D02*
X119888000Y-88200000D01*
D56*
X124612400Y-92075000D02*
X110855000Y-92075000D01*
X114935000Y-90170000D02*
X113030000Y-88265000D01*
D58*
X149225000Y-97790000D02*
X150495000Y-96520000D01*
X150495000Y-96520000D02*
X150495000Y-85219999D01*
X149225000Y-98122499D02*
X149225000Y-97790000D01*
D63*
X141605000Y-119077499D02*
X143207499Y-117475000D01*
X160439100Y-117475000D02*
X163614100Y-120650000D01*
X143207499Y-117475000D02*
X160439100Y-117475000D01*
X163614100Y-120650000D02*
X164268399Y-120650000D01*
X168275000Y-131270000D02*
X169669200Y-131270000D01*
D58*
X168275000Y-131270000D02*
X167465000Y-132080000D01*
D63*
X169672000Y-120650000D02*
X168268401Y-120650000D01*
X169669200Y-131270000D02*
X172161200Y-128778000D01*
X172161200Y-123139200D02*
X169672000Y-120650000D01*
D58*
X167465000Y-132080000D02*
X155670001Y-132080000D01*
D63*
X172161200Y-128778000D02*
X172161200Y-123139200D01*
D57*
X127609600Y-73509600D02*
X131570000Y-77470000D01*
D60*
X151860000Y-122555000D02*
X154445100Y-122555000D01*
D63*
X156447700Y-123100700D02*
X156868400Y-122680000D01*
D59*
X131570000Y-78230000D02*
X131570000Y-77470000D01*
D60*
X154445100Y-122555000D02*
X154990800Y-123100700D01*
D59*
X154457400Y-120269000D02*
X156868400Y-122680000D01*
D60*
X123190000Y-82194400D02*
X123190000Y-83250000D01*
D57*
X127609600Y-71069200D02*
X127609600Y-73509600D01*
D60*
X148460000Y-122190000D02*
X151130000Y-122190000D01*
X147050000Y-124450000D02*
X147050000Y-123600000D01*
X128270000Y-77114400D02*
X123190000Y-82194400D01*
D56*
X135657500Y-101600000D02*
X136927500Y-100330000D01*
X134665000Y-101600000D02*
X135657500Y-101600000D01*
D63*
X154990800Y-123100700D02*
X156447700Y-123100700D01*
D60*
X147050000Y-123600000D02*
X148460000Y-122190000D01*
D59*
X137160000Y-83820000D02*
X131570000Y-78230000D01*
X156868400Y-122680000D02*
X160020000Y-122680000D01*
D60*
X127609600Y-71069200D02*
X128270000Y-71729600D01*
X128270000Y-71729600D02*
X128270000Y-77114400D01*
D56*
X134620000Y-101555000D02*
X134665000Y-101600000D01*
D60*
X151495000Y-122190000D02*
X151860000Y-122555000D01*
X151130000Y-122190000D02*
X151495000Y-122190000D01*
D56*
X97780000Y-90820400D02*
X95097600Y-88138000D01*
X97780000Y-98411000D02*
X97780000Y-90820400D01*
X95097600Y-88138000D02*
X94902000Y-88138000D01*
X94902000Y-88138000D02*
X94792800Y-88028800D01*
D64*
X129164000Y-110749000D02*
X129164000Y-107691000D01*
X135255000Y-105410000D02*
X131445000Y-105410000D01*
X129164000Y-107691000D02*
X131445000Y-105410000D01*
X131445000Y-113030000D02*
X129164000Y-110749000D01*
D58*
X111760000Y-120650000D02*
X106680001Y-120650000D01*
D61*
X116447500Y-120672501D02*
X116447500Y-119137500D01*
D58*
X135890000Y-98425000D02*
X134852500Y-99462500D01*
D61*
X116447500Y-119137500D02*
X119380000Y-116205000D01*
X123825000Y-110490000D02*
X126009400Y-108305600D01*
X150175000Y-100015000D02*
X150175000Y-99997500D01*
X126009400Y-108305600D02*
X126009400Y-104731900D01*
D60*
X134387500Y-128502500D02*
X133350000Y-129540000D01*
D56*
X175648065Y-100097066D02*
X178725799Y-103174800D01*
D60*
X151669999Y-130562501D02*
X154990800Y-127241700D01*
X154990800Y-127241700D02*
X154990800Y-126225700D01*
D61*
X134852500Y-100330000D02*
X126365000Y-100330000D01*
D60*
X149225000Y-128270000D02*
X151669999Y-130714999D01*
D61*
X124333000Y-85725000D02*
X123825000Y-85725000D01*
X124147500Y-102870000D02*
X123825000Y-102870000D01*
X126365000Y-116205000D02*
X126365000Y-113030000D01*
X125730000Y-84328000D02*
X124333000Y-85725000D01*
X130810000Y-118110000D02*
X128905000Y-116205000D01*
D62*
X118618000Y-84582000D02*
X117475000Y-85725000D01*
D56*
X178725799Y-103174800D02*
X179070000Y-103174800D01*
D61*
X126009400Y-104731900D02*
X124147500Y-102870000D01*
D60*
X145050000Y-128700000D02*
X145480000Y-128270000D01*
D58*
X113030000Y-119380000D02*
X111760000Y-120650000D01*
D56*
X174579382Y-100097066D02*
X175648065Y-100097066D01*
D61*
X125730000Y-83250000D02*
X125730000Y-84328000D01*
D58*
X146685000Y-88265000D02*
X142240000Y-83820000D01*
D60*
X133350000Y-132080000D02*
X134620000Y-133350000D01*
X136182500Y-133350000D02*
X150399999Y-133350000D01*
D58*
X150827500Y-99997500D02*
X150175000Y-99997500D01*
D61*
X128905000Y-116205000D02*
X126365000Y-116205000D01*
D58*
X142239999Y-83820000D02*
X142240000Y-83820001D01*
D61*
X116230001Y-120890000D02*
X116447500Y-120672501D01*
D60*
X134620000Y-133350000D02*
X136182500Y-133350000D01*
X133350000Y-129540000D02*
X133350000Y-132080000D01*
D58*
X142240000Y-83820000D02*
X142239999Y-83820000D01*
D60*
X135890000Y-128502500D02*
X134387500Y-128502500D01*
D58*
X142240000Y-97155000D02*
X140970000Y-98425000D01*
D64*
X116078000Y-88200000D02*
X117348000Y-88200000D01*
D58*
X135890000Y-126022500D02*
X135890000Y-128502500D01*
D61*
X135890000Y-126022500D02*
X134912500Y-126022500D01*
D56*
X179070000Y-103174800D02*
X179374800Y-102870000D01*
D61*
X119380000Y-116205000D02*
X126365000Y-116205000D01*
D62*
X117348000Y-85852000D02*
X117348000Y-88200000D01*
X118618000Y-83250000D02*
X118618000Y-84582000D01*
D58*
X113030000Y-115045000D02*
X113030000Y-119380000D01*
X103460001Y-120650000D02*
X102870001Y-121240000D01*
D60*
X151669999Y-132080000D02*
X151669999Y-130562501D01*
D58*
X106680001Y-120650000D02*
X103460001Y-120650000D01*
D61*
X126365000Y-113030000D02*
X123825000Y-110490000D01*
D58*
X134852500Y-99462500D02*
X134852500Y-100330000D01*
D60*
X151669999Y-130714999D02*
X151669999Y-132080000D01*
X145050000Y-129550000D02*
X145050000Y-128700000D01*
D61*
X134912500Y-126022500D02*
X130810000Y-121920000D01*
D58*
X140970000Y-98425000D02*
X135890000Y-98425000D01*
X116230001Y-120890000D02*
X112000000Y-120890000D01*
X152082500Y-98742500D02*
X150827500Y-99997500D01*
D62*
X117475000Y-85725000D02*
X117348000Y-85852000D01*
D61*
X126365000Y-100330000D02*
X123825000Y-102870000D01*
D60*
X145480000Y-128270000D02*
X149225000Y-128270000D01*
D61*
X147320000Y-102870000D02*
X150175000Y-100015000D01*
X147320000Y-110722500D02*
X147320000Y-102870000D01*
X130810000Y-121920000D02*
X130810000Y-118110000D01*
D58*
X142240000Y-83820001D02*
X142240000Y-97155000D01*
X112000000Y-120890000D02*
X111760000Y-120650000D01*
D60*
X150399999Y-133350000D02*
X151669999Y-132080000D01*
D58*
X146685000Y-97155000D02*
X146685000Y-88265000D01*
D62*
X156362400Y-124714000D02*
X160020000Y-128371600D01*
D59*
X164696400Y-125270000D02*
X168275000Y-125270000D01*
D62*
X146378400Y-125628400D02*
X152654000Y-125628400D01*
D59*
X160020000Y-128780000D02*
X161186400Y-128780000D01*
D62*
X146050000Y-124450000D02*
X146050000Y-125300000D01*
X153568400Y-124714000D02*
X156362400Y-124714000D01*
X146050000Y-125300000D02*
X146378400Y-125628400D01*
X152654000Y-125628400D02*
X153568400Y-124714000D01*
X160020000Y-128371600D02*
X160020000Y-128780000D01*
D59*
X161186400Y-128780000D02*
X164696400Y-125270000D01*
D56*
X143500000Y-124450000D02*
X140655000Y-121605000D01*
X144050000Y-124450000D02*
X143500000Y-124450000D01*
X140655000Y-121605000D02*
X140655000Y-120952500D01*
X148050000Y-124450000D02*
X150870000Y-124450000D01*
X150870000Y-124450000D02*
X151130000Y-124190000D01*
X148050000Y-131350000D02*
X148050000Y-129550000D01*
X143560800Y-132080000D02*
X147320000Y-132080000D01*
X140020800Y-128540000D02*
X143560800Y-132080000D01*
X147320000Y-132080000D02*
X148050000Y-131350000D01*
X139700000Y-128540000D02*
X140020800Y-128540000D01*
X161830000Y-106045000D02*
X161925000Y-106140000D01*
X161925000Y-106696000D02*
X161866716Y-106637716D01*
X161866716Y-106637716D02*
X156252284Y-106637716D01*
X155575000Y-112395000D02*
X156210000Y-113030000D01*
X156210000Y-113030000D02*
X157475000Y-113030000D01*
X155575000Y-107315000D02*
X155575000Y-112395000D01*
X162111427Y-106045000D02*
X163925000Y-104231427D01*
X163925000Y-104231427D02*
X163925000Y-103505000D01*
X156252284Y-106637716D02*
X155575000Y-107315000D01*
X161830000Y-106045000D02*
X162111427Y-106045000D01*
X161925000Y-106140000D02*
X161925000Y-106696000D01*
D64*
X161960600Y-107950000D02*
X157475000Y-107950000D01*
X162195000Y-108220000D02*
X162195000Y-108184400D01*
X162195000Y-108184400D02*
X161960600Y-107950000D01*
X161830000Y-108585000D02*
X162195000Y-108220000D01*
X162195000Y-110760000D02*
X162195000Y-110688800D01*
X162195000Y-110688800D02*
X161996200Y-110490000D01*
X161996200Y-110490000D02*
X157475000Y-110490000D01*
X161830000Y-111125000D02*
X162195000Y-110760000D01*
X146050000Y-129550000D02*
X146050000Y-130810000D01*
D56*
X131445000Y-102870000D02*
X135263200Y-102870000D01*
D64*
X147050000Y-130540000D02*
X147320000Y-130810000D01*
X131445000Y-110490000D02*
X135255000Y-110490000D01*
X147050000Y-129550000D02*
X147050000Y-130540000D01*
D61*
X126365000Y-119380000D02*
X125437500Y-119380000D01*
X150495000Y-82420001D02*
X150495000Y-82169000D01*
D58*
X179494331Y-76200000D02*
X179705000Y-76200000D01*
D57*
X167875000Y-81715000D02*
X167875000Y-81792885D01*
D58*
X144376141Y-112798859D02*
X147318641Y-112798859D01*
D61*
X117230001Y-125490000D02*
X116230001Y-125490000D01*
X150495000Y-82169000D02*
X154178000Y-78486000D01*
D58*
X173688400Y-89865200D02*
X173891600Y-89662000D01*
D61*
X118618000Y-124102001D02*
X117230001Y-125490000D01*
D56*
X162477200Y-99517200D02*
X163925000Y-100965000D01*
D61*
X160646000Y-78486000D02*
X161925000Y-79765000D01*
D57*
X173891600Y-87809485D02*
X173891600Y-89662000D01*
D58*
X147344550Y-112822050D02*
X149647050Y-112822050D01*
D61*
X154178000Y-78486000D02*
X160646000Y-78486000D01*
X120015000Y-118745000D02*
X118618000Y-120142000D01*
D56*
X156768800Y-99517200D02*
X162477200Y-99517200D01*
D58*
X173979331Y-81715000D02*
X179494331Y-76200000D01*
D57*
X167875000Y-81792885D02*
X173891600Y-87809485D01*
D61*
X124802500Y-118745000D02*
X120015000Y-118745000D01*
D58*
X139065000Y-118110000D02*
X144376141Y-112798859D01*
X167875000Y-81715000D02*
X173979331Y-81715000D01*
X150522367Y-113030000D02*
X152400000Y-111152367D01*
X149855000Y-113030000D02*
X150522367Y-113030000D01*
X147318641Y-112798859D02*
X147320000Y-112797500D01*
X156768800Y-99517200D02*
X166420800Y-89865200D01*
D61*
X125437500Y-119380000D02*
X124802500Y-118745000D01*
D58*
X166420800Y-89865200D02*
X173688400Y-89865200D01*
X147320000Y-112797500D02*
X147344550Y-112822050D01*
D61*
X127635000Y-118110000D02*
X126365000Y-119380000D01*
D58*
X152400000Y-111152367D02*
X152400000Y-103886000D01*
X152400000Y-103886000D02*
X156768800Y-99517200D01*
X149647050Y-112822050D02*
X149855000Y-113030000D01*
D61*
X118618000Y-120142000D02*
X118618000Y-124102001D01*
D58*
X139065000Y-118745000D02*
X139065000Y-118110000D01*
D62*
X139315100Y-123037600D02*
X136030100Y-123037600D01*
D58*
X143510000Y-120650000D02*
X142857500Y-120650000D01*
X144780000Y-93915000D02*
X144780000Y-97790000D01*
D56*
X139700000Y-105410000D02*
X137080000Y-105410000D01*
D60*
X117348000Y-78742000D02*
X118620000Y-77470000D01*
D58*
X144780000Y-97790000D02*
X139700000Y-102870000D01*
D57*
X117985000Y-78105000D02*
X118620000Y-77470000D01*
X118620000Y-77470000D02*
X121285000Y-77470000D01*
D58*
X139700000Y-105410000D02*
X139700000Y-114445066D01*
D62*
X139700000Y-123422500D02*
X139315100Y-123037600D01*
D58*
X142857500Y-120650000D02*
X142555000Y-120952500D01*
D60*
X117348000Y-83250000D02*
X117348000Y-78742000D01*
D56*
X142555000Y-121330000D02*
X145050000Y-123825000D01*
X142544800Y-125730000D02*
X140237300Y-123422500D01*
D58*
X135108500Y-121392500D02*
X135890000Y-122174000D01*
X139700000Y-102870000D02*
X139700000Y-105410000D01*
X139700000Y-114445066D02*
X137160000Y-116985066D01*
X135890000Y-122174000D02*
X135890000Y-122897500D01*
D57*
X117350000Y-78105000D02*
X117985000Y-78105000D01*
D56*
X145050000Y-124450000D02*
X145050000Y-124957000D01*
X145050000Y-124957000D02*
X144277000Y-125730000D01*
D58*
X137160000Y-116985066D02*
X137160000Y-120396000D01*
X135108500Y-113538000D02*
X135108500Y-121392500D01*
D56*
X142555000Y-120952500D02*
X142555000Y-121330000D01*
D62*
X136030100Y-123037600D02*
X135890000Y-122897500D01*
D56*
X144277000Y-125730000D02*
X142544800Y-125730000D01*
X145050000Y-123825000D02*
X145050000Y-124450000D01*
D58*
X137160000Y-120396000D02*
X137414000Y-120650000D01*
D56*
X140237300Y-123422500D02*
X139700000Y-123422500D01*
D60*
X127977900Y-79082900D02*
X127914400Y-79146400D01*
X124460000Y-82499200D02*
X124460000Y-83250000D01*
X127812800Y-79146400D02*
X124460000Y-82499200D01*
X127914400Y-79146400D02*
X127812800Y-79146400D01*
D64*
X137108500Y-113538000D02*
X137108500Y-110593500D01*
X137013200Y-102870000D02*
X136043500Y-103839700D01*
X137108500Y-110593500D02*
X137005000Y-110490000D01*
X136043500Y-103839700D02*
X136043500Y-109528500D01*
X136043500Y-109528500D02*
X137005000Y-110490000D01*
D56*
X163830000Y-106045000D02*
X165735000Y-106045000D01*
X171682934Y-100097066D02*
X172829384Y-100097066D01*
X165735000Y-106045000D02*
X171682934Y-100097066D01*
X163830000Y-111760000D02*
X163830000Y-111125000D01*
X170180000Y-118110000D02*
X163830000Y-111760000D01*
X179374800Y-118110000D02*
X170180000Y-118110000D01*
X164211000Y-108966000D02*
X163830000Y-108585000D01*
X176580800Y-108966000D02*
X164211000Y-108966000D01*
X179374800Y-110490000D02*
X178104800Y-110490000D01*
D60*
X139700000Y-97028000D02*
X139700000Y-83820000D01*
D56*
X178104800Y-110490000D02*
X176580800Y-108966000D01*
X94488000Y-92333600D02*
X94792800Y-92028800D01*
X97790000Y-115045000D02*
X94488000Y-111743000D01*
X94488000Y-111743000D02*
X94488000Y-92333600D01*
X100320000Y-113655000D02*
X95758000Y-109093000D01*
X96875600Y-91440000D02*
X95464400Y-90028800D01*
X96875600Y-93014800D02*
X96875600Y-91440000D01*
X95758000Y-94132400D02*
X96875600Y-93014800D01*
X100320000Y-113665000D02*
X100320000Y-113655000D01*
X95758000Y-109093000D02*
X95758000Y-94132400D01*
X95464400Y-90028800D02*
X94792800Y-90028800D01*
X154439000Y-104641000D02*
X154439000Y-113164000D01*
X158115000Y-100965000D02*
X161925000Y-100965000D01*
X154439000Y-113164000D02*
X156210000Y-114935000D01*
X156210000Y-114935000D02*
X162192350Y-114935000D01*
X161925000Y-100965000D02*
X161925000Y-103505000D01*
X147942500Y-100342500D02*
X147942500Y-100330000D01*
X154439000Y-104641000D02*
X158115000Y-100965000D01*
X147002500Y-101282500D02*
X147942500Y-100342500D01*
X147942500Y-100330000D02*
X148275000Y-99997500D01*
%TA.AperFunction,Conductor*%
G36*
X123150009Y-94215185D02*
G01*
X123172907Y-94234134D01*
X125222000Y-96393000D01*
X127875277Y-96398597D01*
X127942272Y-96418423D01*
X127987916Y-96471324D01*
X127997713Y-96540503D01*
X127968554Y-96603997D01*
X127962694Y-96610278D01*
X127760484Y-96812488D01*
X127621657Y-97003565D01*
X127514433Y-97214003D01*
X127441446Y-97438631D01*
X127404500Y-97671902D01*
X127404500Y-97908097D01*
X127441446Y-98141368D01*
X127514433Y-98365996D01*
X127594646Y-98523422D01*
X127621657Y-98576434D01*
X127760483Y-98767510D01*
X127927490Y-98934517D01*
X128118566Y-99073343D01*
X128213211Y-99121567D01*
X128329003Y-99180566D01*
X128329005Y-99180566D01*
X128329008Y-99180568D01*
X128449412Y-99219689D01*
X128553631Y-99253553D01*
X128786903Y-99290500D01*
X128786908Y-99290500D01*
X129023097Y-99290500D01*
X129256368Y-99253553D01*
X129299169Y-99239646D01*
X129480992Y-99180568D01*
X129691434Y-99073343D01*
X129882510Y-98934517D01*
X132372440Y-96444586D01*
X132433759Y-96411104D01*
X132460371Y-96408270D01*
X138825768Y-96421699D01*
X138834317Y-96424229D01*
X138843147Y-96422960D01*
X138867298Y-96433989D01*
X138892759Y-96441524D01*
X138898586Y-96448278D01*
X138906703Y-96451985D01*
X138921058Y-96474323D01*
X138938403Y-96494425D01*
X138940650Y-96504808D01*
X138944477Y-96510763D01*
X138949500Y-96545698D01*
X138949500Y-96723396D01*
X138940062Y-96770844D01*
X138930263Y-96794503D01*
X138930262Y-96794506D01*
X138930260Y-96794511D01*
X138899500Y-96949153D01*
X138899500Y-97106846D01*
X138930261Y-97261489D01*
X138930264Y-97261501D01*
X138990602Y-97407172D01*
X138990609Y-97407185D01*
X139078210Y-97538288D01*
X139078213Y-97538292D01*
X139189707Y-97649786D01*
X139189711Y-97649789D01*
X139320814Y-97737390D01*
X139320827Y-97737397D01*
X139466498Y-97797735D01*
X139466503Y-97797737D01*
X139621153Y-97828499D01*
X139621156Y-97828500D01*
X139621158Y-97828500D01*
X139778844Y-97828500D01*
X139778845Y-97828499D01*
X139933497Y-97797737D01*
X140079179Y-97737394D01*
X140210289Y-97649789D01*
X140321789Y-97538289D01*
X140409394Y-97407179D01*
X140415990Y-97391256D01*
X140447123Y-97316093D01*
X140469737Y-97261497D01*
X140500500Y-97106842D01*
X140500500Y-96949158D01*
X140500500Y-96949155D01*
X140500499Y-96949153D01*
X140469739Y-96794511D01*
X140469738Y-96794508D01*
X140469737Y-96794503D01*
X140459937Y-96770844D01*
X140458311Y-96762670D01*
X140455523Y-96758331D01*
X140450500Y-96723396D01*
X140450500Y-96549389D01*
X140470185Y-96482350D01*
X140522989Y-96436595D01*
X140574758Y-96425389D01*
X143655768Y-96431889D01*
X143722759Y-96451714D01*
X143768403Y-96504615D01*
X143779500Y-96555888D01*
X143779500Y-97324217D01*
X143759815Y-97391256D01*
X143743181Y-97411898D01*
X141410264Y-99744815D01*
X139062221Y-102092858D01*
X139062218Y-102092861D01*
X139026637Y-102128442D01*
X138922859Y-102232219D01*
X138813371Y-102396079D01*
X138813364Y-102396092D01*
X138737950Y-102578160D01*
X138737947Y-102578170D01*
X138699500Y-102771456D01*
X138699500Y-104635500D01*
X138679815Y-104702539D01*
X138627011Y-104748294D01*
X138575500Y-104759500D01*
X138010708Y-104759500D01*
X137943669Y-104739815D01*
X137918084Y-104716619D01*
X137917947Y-104716757D01*
X137915147Y-104713957D01*
X137913445Y-104712414D01*
X137912844Y-104711654D01*
X137790851Y-104589661D01*
X137790850Y-104589660D01*
X137644016Y-104499092D01*
X137480253Y-104444826D01*
X137480251Y-104444825D01*
X137379178Y-104434500D01*
X136780830Y-104434500D01*
X136780803Y-104434502D01*
X136780582Y-104434525D01*
X136780534Y-104434516D01*
X136777669Y-104434662D01*
X136777634Y-104433976D01*
X136765519Y-104431722D01*
X136750353Y-104433903D01*
X136731867Y-104425460D01*
X136711891Y-104421744D01*
X136700735Y-104411243D01*
X136686797Y-104404878D01*
X136675810Y-104387782D01*
X136661014Y-104373855D01*
X136656740Y-104358108D01*
X136649023Y-104346100D01*
X136644000Y-104311165D01*
X136644000Y-104139796D01*
X136663685Y-104072757D01*
X136680315Y-104052119D01*
X136850616Y-103881817D01*
X136911939Y-103848333D01*
X136938297Y-103845499D01*
X137349870Y-103845499D01*
X137349876Y-103845499D01*
X137353528Y-103845126D01*
X137367458Y-103843702D01*
X137450953Y-103835174D01*
X137614716Y-103780908D01*
X137761550Y-103690340D01*
X137883540Y-103568350D01*
X137974108Y-103421516D01*
X138028374Y-103257753D01*
X138038700Y-103156677D01*
X138038699Y-102583324D01*
X138038171Y-102578160D01*
X138028374Y-102482247D01*
X138024316Y-102470000D01*
X137974108Y-102318484D01*
X137883540Y-102171650D01*
X137761550Y-102049660D01*
X137614716Y-101959092D01*
X137450953Y-101904826D01*
X137450951Y-101904825D01*
X137349878Y-101894500D01*
X136676530Y-101894500D01*
X136676509Y-101894502D01*
X136584904Y-101903859D01*
X136557139Y-101898697D01*
X136528970Y-101896683D01*
X136523243Y-101892396D01*
X136516212Y-101891089D01*
X136495645Y-101871736D01*
X136473037Y-101854811D01*
X136470537Y-101848108D01*
X136465328Y-101843207D01*
X136458488Y-101815804D01*
X136448620Y-101789346D01*
X136450140Y-101782357D01*
X136448408Y-101775417D01*
X136457469Y-101748668D01*
X136463472Y-101721074D01*
X136469581Y-101712913D01*
X136470825Y-101709241D01*
X136484609Y-101692834D01*
X136585628Y-101591815D01*
X136646950Y-101558333D01*
X136673307Y-101555499D01*
X137315002Y-101555499D01*
X137315008Y-101555499D01*
X137417797Y-101544999D01*
X137584334Y-101489814D01*
X137733656Y-101397712D01*
X137857712Y-101273656D01*
X137949814Y-101124334D01*
X138004999Y-100957797D01*
X138015500Y-100855009D01*
X138015499Y-99804992D01*
X138012435Y-99775001D01*
X138004999Y-99702203D01*
X138004998Y-99702200D01*
X137981308Y-99630709D01*
X137949814Y-99535666D01*
X137857712Y-99386344D01*
X137733656Y-99262288D01*
X137640888Y-99205069D01*
X137584336Y-99170187D01*
X137584331Y-99170185D01*
X137569589Y-99165300D01*
X137417797Y-99115001D01*
X137417795Y-99115000D01*
X137315010Y-99104500D01*
X136539998Y-99104500D01*
X136539980Y-99104501D01*
X136437203Y-99115000D01*
X136437200Y-99115001D01*
X136270668Y-99170185D01*
X136270663Y-99170187D01*
X136121342Y-99262289D01*
X135997288Y-99386343D01*
X135997283Y-99386349D01*
X135995241Y-99389661D01*
X135993247Y-99391453D01*
X135992807Y-99392011D01*
X135992711Y-99391935D01*
X135943291Y-99436383D01*
X135874328Y-99447602D01*
X135810247Y-99419755D01*
X135784168Y-99389656D01*
X135782319Y-99386659D01*
X135782316Y-99386655D01*
X135658345Y-99262684D01*
X135509124Y-99170643D01*
X135509119Y-99170641D01*
X135342697Y-99115494D01*
X135342690Y-99115493D01*
X135239986Y-99105000D01*
X135102500Y-99105000D01*
X135102500Y-100206000D01*
X135082815Y-100273039D01*
X135030011Y-100318794D01*
X134978500Y-100330000D01*
X134852500Y-100330000D01*
X134852500Y-100456000D01*
X134832815Y-100523039D01*
X134780011Y-100568794D01*
X134728500Y-100580000D01*
X133765001Y-100580000D01*
X133765001Y-100854986D01*
X133775494Y-100957697D01*
X133830641Y-101124119D01*
X133830644Y-101124126D01*
X133858004Y-101168484D01*
X133876443Y-101235876D01*
X133867026Y-101281029D01*
X133850264Y-101321497D01*
X133850261Y-101321505D01*
X133819500Y-101476153D01*
X133819500Y-101633846D01*
X133850261Y-101788489D01*
X133850264Y-101788501D01*
X133910602Y-101934172D01*
X133910609Y-101934185D01*
X133972365Y-102026609D01*
X133993243Y-102093287D01*
X133974758Y-102160667D01*
X133922779Y-102207357D01*
X133869263Y-102219500D01*
X132643071Y-102219500D01*
X132576032Y-102199815D01*
X132542754Y-102168386D01*
X132436966Y-102022781D01*
X132292219Y-101878034D01*
X132292213Y-101878028D01*
X132126613Y-101757715D01*
X132126612Y-101757714D01*
X132126610Y-101757713D01*
X132054702Y-101721074D01*
X131944223Y-101664781D01*
X131749534Y-101601522D01*
X131574995Y-101573878D01*
X131547352Y-101569500D01*
X131342648Y-101569500D01*
X131318329Y-101573351D01*
X131140465Y-101601522D01*
X130945776Y-101664781D01*
X130763386Y-101757715D01*
X130597786Y-101878028D01*
X130453028Y-102022786D01*
X130332715Y-102188386D01*
X130239781Y-102370776D01*
X130176522Y-102565465D01*
X130144500Y-102767648D01*
X130144500Y-102972351D01*
X130176522Y-103174534D01*
X130239781Y-103369223D01*
X130285858Y-103459653D01*
X130332585Y-103551359D01*
X130332715Y-103551613D01*
X130453028Y-103717213D01*
X130453034Y-103717219D01*
X130597781Y-103861966D01*
X130691452Y-103930021D01*
X130734117Y-103985350D01*
X130740096Y-104054963D01*
X130707491Y-104116759D01*
X130657571Y-104148045D01*
X130575666Y-104175186D01*
X130575663Y-104175187D01*
X130426342Y-104267289D01*
X130302289Y-104391342D01*
X130210187Y-104540663D01*
X130210185Y-104540668D01*
X130192990Y-104592559D01*
X130155001Y-104707203D01*
X130155001Y-104707204D01*
X130155000Y-104707204D01*
X130144500Y-104809983D01*
X130144500Y-105809902D01*
X130124815Y-105876941D01*
X130108181Y-105897583D01*
X128683481Y-107322282D01*
X128683475Y-107322290D01*
X128641497Y-107395000D01*
X128641497Y-107395001D01*
X128604423Y-107459215D01*
X128563499Y-107611943D01*
X128563499Y-107611945D01*
X128563499Y-107780046D01*
X128563500Y-107780059D01*
X128563500Y-110662330D01*
X128563499Y-110662348D01*
X128563499Y-110828054D01*
X128563498Y-110828054D01*
X128604423Y-110980785D01*
X128633358Y-111030900D01*
X128633359Y-111030904D01*
X128633360Y-111030904D01*
X128683479Y-111117714D01*
X128683481Y-111117717D01*
X128802349Y-111236585D01*
X128802355Y-111236590D01*
X130108181Y-112542416D01*
X130141666Y-112603739D01*
X130144500Y-112630097D01*
X130144500Y-113630001D01*
X130144501Y-113630019D01*
X130155000Y-113732796D01*
X130155001Y-113732799D01*
X130210185Y-113899331D01*
X130210187Y-113899336D01*
X130220855Y-113916632D01*
X130302288Y-114048656D01*
X130426344Y-114172712D01*
X130575666Y-114264814D01*
X130742203Y-114319999D01*
X130844991Y-114330500D01*
X132045008Y-114330499D01*
X132147797Y-114319999D01*
X132314334Y-114264814D01*
X132463656Y-114172712D01*
X132587712Y-114048656D01*
X132679814Y-113899334D01*
X132734999Y-113732797D01*
X132745500Y-113630009D01*
X132745499Y-112429992D01*
X132743916Y-112414500D01*
X132734999Y-112327203D01*
X132734998Y-112327200D01*
X132723364Y-112292091D01*
X132679814Y-112160666D01*
X132587712Y-112011344D01*
X132463656Y-111887288D01*
X132351852Y-111818327D01*
X132314336Y-111795187D01*
X132314335Y-111795186D01*
X132314334Y-111795186D01*
X132232427Y-111768044D01*
X132174984Y-111728272D01*
X132148161Y-111663756D01*
X132160476Y-111594980D01*
X132198547Y-111550021D01*
X132292219Y-111481966D01*
X132436966Y-111337219D01*
X132436968Y-111337215D01*
X132436971Y-111337213D01*
X132545125Y-111188350D01*
X132557287Y-111171610D01*
X132564117Y-111158204D01*
X132612091Y-111107409D01*
X132674602Y-111090500D01*
X134255099Y-111090500D01*
X134322138Y-111110185D01*
X134360638Y-111149404D01*
X134366066Y-111158205D01*
X134384660Y-111188350D01*
X134506650Y-111310340D01*
X134653484Y-111400908D01*
X134817247Y-111455174D01*
X134918323Y-111465500D01*
X135591676Y-111465499D01*
X135591684Y-111465498D01*
X135591687Y-111465498D01*
X135647030Y-111459844D01*
X135692753Y-111455174D01*
X135856516Y-111400908D01*
X136003350Y-111310340D01*
X136042319Y-111271371D01*
X136103642Y-111237886D01*
X136173334Y-111242870D01*
X136217681Y-111271371D01*
X136256650Y-111310340D01*
X136403484Y-111400908D01*
X136423004Y-111407376D01*
X136480447Y-111447145D01*
X136507272Y-111511660D01*
X136508000Y-111525081D01*
X136508000Y-112292091D01*
X136488315Y-112359130D01*
X136444231Y-112397641D01*
X136445313Y-112399395D01*
X136439167Y-112403185D01*
X136439166Y-112403186D01*
X136371582Y-112444872D01*
X136289842Y-112495289D01*
X136196181Y-112588951D01*
X136134858Y-112622436D01*
X136065166Y-112617452D01*
X136020819Y-112588951D01*
X135927157Y-112495289D01*
X135927156Y-112495288D01*
X135829394Y-112434988D01*
X135777836Y-112403187D01*
X135777831Y-112403185D01*
X135768811Y-112400196D01*
X135611297Y-112348001D01*
X135611295Y-112348000D01*
X135508510Y-112337500D01*
X134708498Y-112337500D01*
X134708480Y-112337501D01*
X134605703Y-112348000D01*
X134605700Y-112348001D01*
X134439168Y-112403185D01*
X134439163Y-112403187D01*
X134289842Y-112495289D01*
X134165789Y-112619342D01*
X134073687Y-112768663D01*
X134073685Y-112768668D01*
X134065508Y-112793345D01*
X134018501Y-112935203D01*
X134018501Y-112935204D01*
X134018500Y-112935204D01*
X134008000Y-113037983D01*
X134008000Y-114038001D01*
X134008001Y-114038019D01*
X134018500Y-114140796D01*
X134018501Y-114140799D01*
X134070751Y-114298477D01*
X134073686Y-114307334D01*
X134089539Y-114333036D01*
X134108000Y-114398132D01*
X134108000Y-121491042D01*
X134118770Y-121545185D01*
X134118770Y-121545186D01*
X134139718Y-121650500D01*
X134146449Y-121684336D01*
X134147636Y-121687201D01*
X134149597Y-121691936D01*
X134221867Y-121866412D01*
X134222178Y-121866994D01*
X134222248Y-121867333D01*
X134224199Y-121872042D01*
X134223306Y-121872411D01*
X134236420Y-121935397D01*
X134211420Y-122000641D01*
X134200507Y-122013124D01*
X134197291Y-122016339D01*
X134105187Y-122165663D01*
X134105185Y-122165668D01*
X134082555Y-122233961D01*
X134050001Y-122332203D01*
X134050001Y-122332204D01*
X134050000Y-122332204D01*
X134039500Y-122434983D01*
X134039500Y-123360001D01*
X134039501Y-123360019D01*
X134050000Y-123462796D01*
X134050001Y-123462799D01*
X134105185Y-123629331D01*
X134105187Y-123629336D01*
X134108796Y-123635187D01*
X134197288Y-123778656D01*
X134321344Y-123902712D01*
X134470666Y-123994814D01*
X134637203Y-124049999D01*
X134739991Y-124060500D01*
X137040008Y-124060499D01*
X137142797Y-124049999D01*
X137309334Y-123994814D01*
X137458656Y-123902712D01*
X137582712Y-123778656D01*
X137582712Y-123778655D01*
X137586949Y-123774419D01*
X137648272Y-123740934D01*
X137674630Y-123738100D01*
X138355177Y-123738100D01*
X138422216Y-123757785D01*
X138467971Y-123810589D01*
X138478535Y-123849499D01*
X138485000Y-123912796D01*
X138485001Y-123912799D01*
X138514117Y-124000664D01*
X138540186Y-124079334D01*
X138602585Y-124180500D01*
X138632289Y-124228657D01*
X138756346Y-124352714D01*
X138759182Y-124354463D01*
X138760717Y-124356170D01*
X138762011Y-124357193D01*
X138761836Y-124357414D01*
X138805905Y-124406411D01*
X138817126Y-124475374D01*
X138789282Y-124539456D01*
X138759182Y-124565537D01*
X138756346Y-124567285D01*
X138632289Y-124691342D01*
X138540187Y-124840663D01*
X138540186Y-124840666D01*
X138485001Y-125007203D01*
X138485001Y-125007204D01*
X138485000Y-125007204D01*
X138474500Y-125109983D01*
X138474500Y-125885001D01*
X138474501Y-125885019D01*
X138485000Y-125987796D01*
X138485001Y-125987799D01*
X138523680Y-126104522D01*
X138540186Y-126154334D01*
X138632288Y-126303656D01*
X138756344Y-126427712D01*
X138905666Y-126519814D01*
X139072203Y-126574999D01*
X139174991Y-126585500D01*
X140114191Y-126585499D01*
X140181230Y-126605183D01*
X140201872Y-126621818D01*
X143258181Y-129678127D01*
X143291666Y-129739450D01*
X143294500Y-129765808D01*
X143294501Y-130147866D01*
X143294501Y-130147876D01*
X143300908Y-130207483D01*
X143351202Y-130342328D01*
X143351206Y-130342335D01*
X143437452Y-130457544D01*
X143437455Y-130457547D01*
X143552664Y-130543793D01*
X143552671Y-130543797D01*
X143579255Y-130553712D01*
X143687517Y-130594091D01*
X143747127Y-130600500D01*
X144352872Y-130600499D01*
X144412483Y-130594091D01*
X144507382Y-130558695D01*
X144577072Y-130553712D01*
X144594047Y-130558696D01*
X144687620Y-130593596D01*
X144687627Y-130593598D01*
X144747155Y-130599999D01*
X144747172Y-130600000D01*
X144800000Y-130600000D01*
X144800000Y-130205671D01*
X144800711Y-130192415D01*
X144800972Y-130189991D01*
X144805500Y-130147873D01*
X144805499Y-128952128D01*
X144800710Y-128907577D01*
X144800000Y-128894324D01*
X144800000Y-128500000D01*
X144747155Y-128500000D01*
X144687627Y-128506401D01*
X144687616Y-128506403D01*
X144594046Y-128541303D01*
X144524355Y-128546287D01*
X144507381Y-128541303D01*
X144412482Y-128505908D01*
X144412483Y-128505908D01*
X144352883Y-128499501D01*
X144352881Y-128499500D01*
X144352873Y-128499500D01*
X144352865Y-128499500D01*
X143970808Y-128499500D01*
X143903769Y-128479815D01*
X143883127Y-128463181D01*
X140961818Y-125541872D01*
X140947114Y-125514944D01*
X140930522Y-125489126D01*
X140929630Y-125482925D01*
X140928333Y-125480549D01*
X140925499Y-125454191D01*
X140925499Y-125330007D01*
X140945184Y-125262968D01*
X140997988Y-125217213D01*
X141067146Y-125207269D01*
X141130702Y-125236294D01*
X141137180Y-125242326D01*
X142130125Y-126235272D01*
X142130128Y-126235274D01*
X142130131Y-126235277D01*
X142229960Y-126301979D01*
X142229961Y-126301980D01*
X142236668Y-126306462D01*
X142236670Y-126306463D01*
X142236673Y-126306465D01*
X142355056Y-126355501D01*
X142355060Y-126355501D01*
X142355061Y-126355502D01*
X142480728Y-126380500D01*
X142480731Y-126380500D01*
X144341071Y-126380500D01*
X144445735Y-126359680D01*
X144466744Y-126355501D01*
X144585127Y-126306465D01*
X144591839Y-126301980D01*
X144691669Y-126235277D01*
X145268677Y-125658267D01*
X145329998Y-125624784D01*
X145399689Y-125629768D01*
X145455623Y-125671639D01*
X145459458Y-125677059D01*
X145505885Y-125746542D01*
X145505888Y-125746546D01*
X145931854Y-126172512D01*
X146046592Y-126249177D01*
X146174065Y-126301977D01*
X146174072Y-126301980D01*
X146174076Y-126301980D01*
X146174077Y-126301981D01*
X146309403Y-126328900D01*
X146309406Y-126328900D01*
X152722996Y-126328900D01*
X152814040Y-126310789D01*
X152858328Y-126301980D01*
X152969348Y-126255993D01*
X153038816Y-126248525D01*
X153101296Y-126279800D01*
X153136948Y-126339889D01*
X153140800Y-126370555D01*
X153140800Y-126688170D01*
X153140801Y-126688187D01*
X153151294Y-126790897D01*
X153206441Y-126957319D01*
X153206443Y-126957324D01*
X153298484Y-127106545D01*
X153422454Y-127230515D01*
X153571675Y-127322556D01*
X153571680Y-127322558D01*
X153738102Y-127377705D01*
X153738109Y-127377706D01*
X153840819Y-127388199D01*
X154740799Y-127388199D01*
X154740800Y-127388198D01*
X154740800Y-126349700D01*
X154760485Y-126282661D01*
X154813289Y-126236906D01*
X154864800Y-126225700D01*
X155116800Y-126225700D01*
X155183839Y-126245385D01*
X155229594Y-126298189D01*
X155240800Y-126349700D01*
X155240800Y-127388199D01*
X156140772Y-127388199D01*
X156140786Y-127388198D01*
X156243497Y-127377705D01*
X156409919Y-127322558D01*
X156409924Y-127322556D01*
X156559145Y-127230515D01*
X156683115Y-127106545D01*
X156775156Y-126957324D01*
X156775158Y-126957319D01*
X156830305Y-126790897D01*
X156830306Y-126790890D01*
X156840799Y-126688186D01*
X156840799Y-126482419D01*
X156860483Y-126415379D01*
X156913287Y-126369624D01*
X156982445Y-126359680D01*
X157046001Y-126388705D01*
X157052480Y-126394737D01*
X158181636Y-127523893D01*
X158215121Y-127585216D01*
X158210137Y-127654908D01*
X158168265Y-127710841D01*
X158159054Y-127717111D01*
X158126346Y-127737285D01*
X158002289Y-127861342D01*
X157910187Y-128010662D01*
X157910185Y-128010667D01*
X157909641Y-128012309D01*
X157855001Y-128177202D01*
X157855001Y-128177203D01*
X157855000Y-128177203D01*
X157844500Y-128279982D01*
X157844500Y-129280017D01*
X157855000Y-129382796D01*
X157890359Y-129489501D01*
X157910186Y-129549335D01*
X158002288Y-129698656D01*
X158126344Y-129822712D01*
X158275665Y-129914814D01*
X158442202Y-129969999D01*
X158544990Y-129980500D01*
X159079253Y-129980500D01*
X159146292Y-130000185D01*
X159152138Y-130004182D01*
X159226221Y-130058006D01*
X159233567Y-130063343D01*
X159359879Y-130127702D01*
X159444003Y-130170566D01*
X159444005Y-130170566D01*
X159444008Y-130170568D01*
X159552044Y-130205671D01*
X159668631Y-130243553D01*
X159901903Y-130280500D01*
X159901908Y-130280500D01*
X161304497Y-130280500D01*
X161537768Y-130243553D01*
X161762392Y-130170568D01*
X161972834Y-130063343D01*
X162163910Y-129924517D01*
X165281609Y-126806819D01*
X165342932Y-126773334D01*
X165369290Y-126770500D01*
X166212772Y-126770500D01*
X166279811Y-126790185D01*
X166300453Y-126806819D01*
X166306344Y-126812710D01*
X166306348Y-126812713D01*
X166455662Y-126904812D01*
X166455664Y-126904813D01*
X166455666Y-126904814D01*
X166622203Y-126959999D01*
X166724992Y-126970500D01*
X166724997Y-126970500D01*
X169825003Y-126970500D01*
X169825008Y-126970500D01*
X169927797Y-126959999D01*
X170094334Y-126904814D01*
X170243655Y-126812711D01*
X170367711Y-126688655D01*
X170459814Y-126539334D01*
X170514999Y-126372797D01*
X170525500Y-126270008D01*
X170525500Y-124269992D01*
X170514999Y-124167203D01*
X170459814Y-124000666D01*
X170456204Y-123994814D01*
X170367713Y-123851348D01*
X170367710Y-123851344D01*
X170243655Y-123727289D01*
X170243651Y-123727286D01*
X170094337Y-123635187D01*
X170094335Y-123635186D01*
X169984094Y-123598656D01*
X169927797Y-123580001D01*
X169927795Y-123580000D01*
X169825015Y-123569500D01*
X169825008Y-123569500D01*
X166724992Y-123569500D01*
X166724984Y-123569500D01*
X166622204Y-123580000D01*
X166622203Y-123580001D01*
X166455664Y-123635186D01*
X166455662Y-123635187D01*
X166306348Y-123727286D01*
X166306344Y-123727289D01*
X166300453Y-123733181D01*
X166239130Y-123766666D01*
X166212772Y-123769500D01*
X164578303Y-123769500D01*
X164345031Y-123806446D01*
X164120403Y-123879433D01*
X163909963Y-123986659D01*
X163718896Y-124125476D01*
X163718891Y-124125480D01*
X160601192Y-127243181D01*
X160539869Y-127276666D01*
X160513511Y-127279500D01*
X159969919Y-127279500D01*
X159902880Y-127259815D01*
X159882238Y-127243181D01*
X157031238Y-124392181D01*
X156997753Y-124330858D01*
X157002737Y-124261166D01*
X157044609Y-124205233D01*
X157110073Y-124180816D01*
X157118919Y-124180500D01*
X160138097Y-124180500D01*
X160371368Y-124143553D01*
X160595992Y-124070568D01*
X160806433Y-123963343D01*
X160852528Y-123929853D01*
X160887862Y-123904182D01*
X160953668Y-123880702D01*
X160960747Y-123880500D01*
X161495005Y-123880500D01*
X161495010Y-123880500D01*
X161597798Y-123869999D01*
X161764335Y-123814814D01*
X161913656Y-123722712D01*
X162037712Y-123598656D01*
X162129814Y-123449335D01*
X162184999Y-123282798D01*
X162195500Y-123180010D01*
X162195500Y-122179990D01*
X162184999Y-122077202D01*
X162129814Y-121910665D01*
X162037712Y-121761344D01*
X161913656Y-121637288D01*
X161820442Y-121579793D01*
X161764337Y-121545187D01*
X161764332Y-121545185D01*
X161754126Y-121541803D01*
X161597798Y-121490001D01*
X161597796Y-121490000D01*
X161495017Y-121479500D01*
X161495010Y-121479500D01*
X160960747Y-121479500D01*
X160893708Y-121459815D01*
X160887862Y-121455818D01*
X160806436Y-121396659D01*
X160806435Y-121396658D01*
X160806433Y-121396657D01*
X160714881Y-121350009D01*
X160595996Y-121289433D01*
X160371368Y-121216446D01*
X160138097Y-121179500D01*
X160138092Y-121179500D01*
X157541289Y-121179500D01*
X157474250Y-121159815D01*
X157453608Y-121143181D01*
X155434911Y-119124484D01*
X155243832Y-118985655D01*
X155193450Y-118959985D01*
X155142653Y-118912011D01*
X155125858Y-118844190D01*
X155148395Y-118778055D01*
X155203110Y-118734603D01*
X155249744Y-118725500D01*
X159869764Y-118725500D01*
X159936803Y-118745185D01*
X159957445Y-118761819D01*
X162483550Y-121287924D01*
X162517035Y-121349247D01*
X162519227Y-121363003D01*
X162528400Y-121452797D01*
X162528400Y-121452799D01*
X162583584Y-121619331D01*
X162583586Y-121619336D01*
X162594659Y-121637288D01*
X162675687Y-121768656D01*
X162799743Y-121892712D01*
X162949065Y-121984814D01*
X163115602Y-122039999D01*
X163218390Y-122050500D01*
X165318407Y-122050499D01*
X165421196Y-122039999D01*
X165587733Y-121984814D01*
X165737055Y-121892712D01*
X165861111Y-121768656D01*
X165953213Y-121619334D01*
X166008398Y-121452797D01*
X166018899Y-121350009D01*
X166018898Y-119949992D01*
X166018242Y-119943575D01*
X166008398Y-119847203D01*
X166008397Y-119847200D01*
X165995694Y-119808865D01*
X165953213Y-119680666D01*
X165861111Y-119531344D01*
X165737055Y-119407288D01*
X165587733Y-119315186D01*
X165421196Y-119260001D01*
X165421194Y-119260000D01*
X165318415Y-119249500D01*
X165318408Y-119249500D01*
X164033436Y-119249500D01*
X163966397Y-119229815D01*
X163945755Y-119213181D01*
X161479755Y-116747181D01*
X161446270Y-116685858D01*
X161451254Y-116616166D01*
X161493126Y-116560233D01*
X161558590Y-116535816D01*
X161567436Y-116535500D01*
X163092355Y-116535500D01*
X163092360Y-116535500D01*
X163195148Y-116524999D01*
X163361685Y-116469814D01*
X163511006Y-116377712D01*
X163635062Y-116253656D01*
X163727164Y-116104335D01*
X163782349Y-115937798D01*
X163792850Y-115835010D01*
X163792850Y-114034990D01*
X163782349Y-113932202D01*
X163727164Y-113765665D01*
X163635062Y-113616344D01*
X163511006Y-113492288D01*
X163361685Y-113400186D01*
X163195148Y-113345001D01*
X163195146Y-113345000D01*
X163092367Y-113334500D01*
X163092360Y-113334500D01*
X161292340Y-113334500D01*
X161292332Y-113334500D01*
X161189553Y-113345000D01*
X161189552Y-113345001D01*
X161146129Y-113359390D01*
X161023017Y-113400185D01*
X161023012Y-113400187D01*
X160873692Y-113492289D01*
X160749639Y-113616342D01*
X160657537Y-113765662D01*
X160657535Y-113765667D01*
X160636534Y-113829044D01*
X160602351Y-113932202D01*
X160602351Y-113932203D01*
X160602350Y-113932203D01*
X160591850Y-114034982D01*
X160591850Y-114160500D01*
X160572165Y-114227539D01*
X160519361Y-114273294D01*
X160467850Y-114284500D01*
X158681230Y-114284500D01*
X158614191Y-114264815D01*
X158568436Y-114212011D01*
X158558492Y-114142853D01*
X158587517Y-114079297D01*
X158593549Y-114072819D01*
X158605331Y-114061037D01*
X158617712Y-114048656D01*
X158709814Y-113899334D01*
X158764999Y-113732797D01*
X158775500Y-113630009D01*
X158775499Y-112429992D01*
X158773916Y-112414500D01*
X158764999Y-112327203D01*
X158764998Y-112327200D01*
X158753364Y-112292091D01*
X158709814Y-112160666D01*
X158617712Y-112011344D01*
X158493656Y-111887288D01*
X158381852Y-111818327D01*
X158344336Y-111795187D01*
X158344335Y-111795186D01*
X158344334Y-111795186D01*
X158262427Y-111768044D01*
X158204984Y-111728272D01*
X158178161Y-111663756D01*
X158190476Y-111594980D01*
X158228547Y-111550021D01*
X158322219Y-111481966D01*
X158466966Y-111337219D01*
X158466968Y-111337215D01*
X158466971Y-111337213D01*
X158575125Y-111188350D01*
X158587287Y-111171610D01*
X158594117Y-111158204D01*
X158642091Y-111107409D01*
X158704602Y-111090500D01*
X160605500Y-111090500D01*
X160672539Y-111110185D01*
X160718294Y-111162989D01*
X160729500Y-111214500D01*
X160729500Y-111625001D01*
X160729501Y-111625019D01*
X160740000Y-111727796D01*
X160740001Y-111727799D01*
X160794770Y-111893080D01*
X160795186Y-111894334D01*
X160887288Y-112043656D01*
X161011344Y-112167712D01*
X161160666Y-112259814D01*
X161327203Y-112314999D01*
X161429991Y-112325500D01*
X162230008Y-112325499D01*
X162230016Y-112325498D01*
X162230019Y-112325498D01*
X162286302Y-112319748D01*
X162332797Y-112314999D01*
X162499334Y-112259814D01*
X162648656Y-112167712D01*
X162742319Y-112074049D01*
X162803642Y-112040564D01*
X162873334Y-112045548D01*
X162917681Y-112074049D01*
X163011344Y-112167712D01*
X163160666Y-112259814D01*
X163327203Y-112314999D01*
X163429991Y-112325500D01*
X163430005Y-112325499D01*
X163430348Y-112325518D01*
X163430422Y-112325544D01*
X163433133Y-112325821D01*
X163433066Y-112326468D01*
X163496301Y-112348582D01*
X163511731Y-112361677D01*
X166597573Y-115447518D01*
X169674724Y-118524669D01*
X169725837Y-118575782D01*
X169765332Y-118615277D01*
X169871866Y-118686461D01*
X169871872Y-118686464D01*
X169871873Y-118686465D01*
X169990256Y-118735501D01*
X169990260Y-118735501D01*
X169990261Y-118735502D01*
X170115928Y-118760500D01*
X170115931Y-118760500D01*
X177179587Y-118760500D01*
X177246626Y-118780185D01*
X177292381Y-118832989D01*
X177294148Y-118837048D01*
X177396991Y-119085335D01*
X177396999Y-119085352D01*
X177541220Y-119335148D01*
X177541231Y-119335164D01*
X177716824Y-119564002D01*
X177716830Y-119564009D01*
X177920790Y-119767969D01*
X177920796Y-119767974D01*
X178149644Y-119943575D01*
X178149651Y-119943579D01*
X178399447Y-120087800D01*
X178399463Y-120087808D01*
X178665939Y-120198185D01*
X178665945Y-120198186D01*
X178665955Y-120198191D01*
X178944583Y-120272849D01*
X179230572Y-120310500D01*
X179230579Y-120310500D01*
X179519021Y-120310500D01*
X179519028Y-120310500D01*
X179805017Y-120272849D01*
X180083645Y-120198191D01*
X180083657Y-120198185D01*
X180083660Y-120198185D01*
X180350136Y-120087808D01*
X180350139Y-120087806D01*
X180350145Y-120087804D01*
X180599956Y-119943575D01*
X180828804Y-119767974D01*
X181032774Y-119564004D01*
X181208375Y-119335156D01*
X181352604Y-119085345D01*
X181372698Y-119036835D01*
X181462985Y-118818860D01*
X181462985Y-118818857D01*
X181462991Y-118818845D01*
X181537649Y-118540217D01*
X181575300Y-118254228D01*
X181575300Y-117965772D01*
X181537649Y-117679783D01*
X181462991Y-117401155D01*
X181462986Y-117401145D01*
X181462985Y-117401139D01*
X181352608Y-117134663D01*
X181352600Y-117134647D01*
X181210165Y-116887944D01*
X181208375Y-116884844D01*
X181115965Y-116764413D01*
X181032775Y-116655997D01*
X181032769Y-116655990D01*
X180828809Y-116452030D01*
X180828802Y-116452024D01*
X180599964Y-116276431D01*
X180599962Y-116276429D01*
X180599956Y-116276425D01*
X180599951Y-116276422D01*
X180599948Y-116276420D01*
X180350152Y-116132199D01*
X180350136Y-116132191D01*
X180083660Y-116021814D01*
X180083648Y-116021810D01*
X180083645Y-116021809D01*
X179805017Y-115947151D01*
X179805011Y-115947150D01*
X179805006Y-115947149D01*
X179519038Y-115909501D01*
X179519033Y-115909500D01*
X179519028Y-115909500D01*
X179230572Y-115909500D01*
X179230566Y-115909500D01*
X179230561Y-115909501D01*
X178944593Y-115947149D01*
X178944586Y-115947150D01*
X178944583Y-115947151D01*
X178671870Y-116020224D01*
X178665955Y-116021809D01*
X178665939Y-116021814D01*
X178399463Y-116132191D01*
X178399447Y-116132199D01*
X178149651Y-116276420D01*
X178149635Y-116276431D01*
X177920797Y-116452024D01*
X177920790Y-116452030D01*
X177716830Y-116655990D01*
X177716824Y-116655997D01*
X177541231Y-116884835D01*
X177541220Y-116884851D01*
X177396999Y-117134647D01*
X177396991Y-117134664D01*
X177294148Y-117382952D01*
X177250307Y-117437356D01*
X177184013Y-117459421D01*
X177179587Y-117459500D01*
X170500807Y-117459500D01*
X170433768Y-117439815D01*
X170413126Y-117423181D01*
X169736626Y-116746681D01*
X169703141Y-116685358D01*
X169708125Y-116615666D01*
X169749997Y-116559733D01*
X169815461Y-116535316D01*
X169824307Y-116535000D01*
X169938278Y-116535000D01*
X170187019Y-116495602D01*
X170426534Y-116417780D01*
X170650925Y-116303446D01*
X170650931Y-116303442D01*
X170753047Y-116229250D01*
X170753048Y-116229250D01*
X169982584Y-115458787D01*
X170024642Y-115447518D01*
X170150058Y-115375110D01*
X170252460Y-115272708D01*
X170324868Y-115147292D01*
X170336137Y-115105234D01*
X171106600Y-115875698D01*
X171106600Y-115875697D01*
X171180792Y-115773581D01*
X171180796Y-115773575D01*
X171295130Y-115549184D01*
X171372952Y-115309669D01*
X171412350Y-115060928D01*
X171412350Y-114809071D01*
X171372952Y-114560330D01*
X171295130Y-114320815D01*
X171180792Y-114096416D01*
X171106600Y-113994301D01*
X171106600Y-113994300D01*
X170336137Y-114764764D01*
X170324868Y-114722708D01*
X170252460Y-114597292D01*
X170150058Y-114494890D01*
X170024642Y-114422482D01*
X169982582Y-114411212D01*
X170753048Y-113640748D01*
X170650933Y-113566557D01*
X170426534Y-113452219D01*
X170187019Y-113374397D01*
X169938278Y-113335000D01*
X169686422Y-113335000D01*
X169437680Y-113374397D01*
X169198165Y-113452219D01*
X168973763Y-113566559D01*
X168871651Y-113640747D01*
X168871650Y-113640748D01*
X169642115Y-114411212D01*
X169600058Y-114422482D01*
X169474642Y-114494890D01*
X169372240Y-114597292D01*
X169299832Y-114722708D01*
X169288562Y-114764766D01*
X168518098Y-113994300D01*
X168518097Y-113994301D01*
X168443909Y-114096413D01*
X168329569Y-114320815D01*
X168251747Y-114560330D01*
X168212350Y-114809071D01*
X168212350Y-114923043D01*
X168192665Y-114990082D01*
X168139861Y-115035837D01*
X168070703Y-115045781D01*
X168007147Y-115016756D01*
X168000669Y-115010724D01*
X164923741Y-111933796D01*
X164890256Y-111872473D01*
X164893715Y-111807112D01*
X164919999Y-111727797D01*
X164930500Y-111625009D01*
X164930499Y-110624992D01*
X164928165Y-110602148D01*
X164919999Y-110522203D01*
X164919998Y-110522200D01*
X164909328Y-110490000D01*
X164864814Y-110355666D01*
X164772712Y-110206344D01*
X164648656Y-110082288D01*
X164555888Y-110025069D01*
X164499336Y-109990187D01*
X164499331Y-109990185D01*
X164488509Y-109986599D01*
X164446579Y-109972704D01*
X164389136Y-109932934D01*
X164362313Y-109868418D01*
X164374628Y-109799642D01*
X164422171Y-109748442D01*
X164427596Y-109745395D01*
X164436747Y-109740553D01*
X164499334Y-109719814D01*
X164640386Y-109632812D01*
X164644011Y-109630895D01*
X164669704Y-109625658D01*
X164702000Y-109616500D01*
X176259992Y-109616500D01*
X176327031Y-109636185D01*
X176347673Y-109652819D01*
X177137981Y-110443127D01*
X177171466Y-110504450D01*
X177174300Y-110530808D01*
X177174300Y-110634221D01*
X177174301Y-110634238D01*
X177211949Y-110920206D01*
X177211950Y-110920211D01*
X177211951Y-110920217D01*
X177283797Y-111188349D01*
X177286609Y-111198844D01*
X177286614Y-111198860D01*
X177396991Y-111465336D01*
X177396999Y-111465352D01*
X177541220Y-111715148D01*
X177541231Y-111715164D01*
X177716824Y-111944002D01*
X177716830Y-111944009D01*
X177920790Y-112147969D01*
X177920797Y-112147975D01*
X177937339Y-112160668D01*
X178149644Y-112323575D01*
X178152978Y-112325500D01*
X178399447Y-112467800D01*
X178399463Y-112467808D01*
X178665939Y-112578185D01*
X178665945Y-112578186D01*
X178665955Y-112578191D01*
X178944583Y-112652849D01*
X179230572Y-112690500D01*
X179230579Y-112690500D01*
X179519021Y-112690500D01*
X179519028Y-112690500D01*
X179805017Y-112652849D01*
X180083645Y-112578191D01*
X180083657Y-112578185D01*
X180083660Y-112578185D01*
X180350136Y-112467808D01*
X180350139Y-112467806D01*
X180350145Y-112467804D01*
X180599956Y-112323575D01*
X180828804Y-112147974D01*
X181032774Y-111944004D01*
X181208375Y-111715156D01*
X181352604Y-111465345D01*
X181354151Y-111461612D01*
X181462985Y-111198860D01*
X181462985Y-111198857D01*
X181462991Y-111198845D01*
X181537649Y-110920217D01*
X181575300Y-110634228D01*
X181575300Y-110345772D01*
X181537649Y-110059783D01*
X181462991Y-109781155D01*
X181462986Y-109781145D01*
X181462985Y-109781139D01*
X181352608Y-109514663D01*
X181352600Y-109514647D01*
X181208379Y-109264851D01*
X181208375Y-109264844D01*
X181149254Y-109187796D01*
X181032775Y-109035997D01*
X181032769Y-109035990D01*
X180828809Y-108832030D01*
X180828802Y-108832024D01*
X180599964Y-108656431D01*
X180599962Y-108656429D01*
X180599956Y-108656425D01*
X180599951Y-108656422D01*
X180599948Y-108656420D01*
X180350152Y-108512199D01*
X180350136Y-108512191D01*
X180083660Y-108401814D01*
X180083648Y-108401810D01*
X180083645Y-108401809D01*
X179805017Y-108327151D01*
X179805011Y-108327150D01*
X179805006Y-108327149D01*
X179519038Y-108289501D01*
X179519033Y-108289500D01*
X179519028Y-108289500D01*
X179230572Y-108289500D01*
X179230566Y-108289500D01*
X179230561Y-108289501D01*
X178944593Y-108327149D01*
X178944586Y-108327150D01*
X178944583Y-108327151D01*
X178711766Y-108389534D01*
X178665955Y-108401809D01*
X178665939Y-108401814D01*
X178399463Y-108512191D01*
X178399447Y-108512199D01*
X178149651Y-108656420D01*
X178149635Y-108656431D01*
X177920797Y-108832024D01*
X177920790Y-108832030D01*
X177731464Y-109021356D01*
X177670141Y-109054841D01*
X177600449Y-109049857D01*
X177556102Y-109021356D01*
X176995474Y-108460727D01*
X176995473Y-108460726D01*
X176995469Y-108460723D01*
X176888927Y-108389535D01*
X176770544Y-108340499D01*
X176770538Y-108340497D01*
X176644871Y-108315500D01*
X176644869Y-108315500D01*
X165054499Y-108315500D01*
X164987460Y-108295815D01*
X164941705Y-108243011D01*
X164930499Y-108191500D01*
X164930499Y-108084998D01*
X164930498Y-108084981D01*
X164919999Y-107982203D01*
X164919998Y-107982200D01*
X164904482Y-107935375D01*
X164864814Y-107815666D01*
X164772712Y-107666344D01*
X164648656Y-107542288D01*
X164555888Y-107485069D01*
X164499336Y-107450187D01*
X164499331Y-107450185D01*
X164498853Y-107450026D01*
X164446579Y-107432704D01*
X164389136Y-107392934D01*
X164362313Y-107328418D01*
X164374628Y-107259642D01*
X164422171Y-107208442D01*
X164446575Y-107197296D01*
X164499334Y-107179814D01*
X164648656Y-107087712D01*
X164772712Y-106963656D01*
X164864814Y-106814334D01*
X164876028Y-106780494D01*
X164915801Y-106723050D01*
X164980317Y-106696228D01*
X164993733Y-106695500D01*
X165799071Y-106695500D01*
X165903685Y-106674690D01*
X165924744Y-106670501D01*
X166043127Y-106621465D01*
X166052466Y-106615224D01*
X166052474Y-106615222D01*
X166052473Y-106615220D01*
X166090161Y-106590038D01*
X166149669Y-106550277D01*
X169092031Y-103607915D01*
X169974149Y-102725796D01*
X177174800Y-102725796D01*
X177174800Y-103014203D01*
X177212443Y-103300118D01*
X177287083Y-103578682D01*
X177397444Y-103845116D01*
X177397448Y-103845126D01*
X177541638Y-104094872D01*
X177652238Y-104239007D01*
X178566297Y-103324947D01*
X178656305Y-103459653D01*
X178785147Y-103588495D01*
X178919850Y-103678501D01*
X178005791Y-104592560D01*
X178149928Y-104703161D01*
X178399673Y-104847351D01*
X178399683Y-104847355D01*
X178666117Y-104957716D01*
X178944681Y-105032356D01*
X179230596Y-105069999D01*
X179230611Y-105070000D01*
X179518989Y-105070000D01*
X179519003Y-105069999D01*
X179804918Y-105032356D01*
X180083482Y-104957716D01*
X180349916Y-104847355D01*
X180349926Y-104847351D01*
X180599670Y-104703161D01*
X180599687Y-104703150D01*
X180743807Y-104592561D01*
X180743807Y-104592559D01*
X179829748Y-103678501D01*
X179964453Y-103588495D01*
X180093295Y-103459653D01*
X180183301Y-103324948D01*
X181097359Y-104239007D01*
X181097361Y-104239007D01*
X181207950Y-104094887D01*
X181207961Y-104094870D01*
X181352151Y-103845126D01*
X181352155Y-103845116D01*
X181462516Y-103578682D01*
X181537156Y-103300118D01*
X181574799Y-103014203D01*
X181574800Y-103014189D01*
X181574800Y-102725810D01*
X181574799Y-102725796D01*
X181537156Y-102439881D01*
X181462516Y-102161317D01*
X181352155Y-101894883D01*
X181352151Y-101894873D01*
X181207961Y-101645128D01*
X181097360Y-101500991D01*
X180183301Y-102415050D01*
X180093295Y-102280347D01*
X179964453Y-102151505D01*
X179829747Y-102061497D01*
X180743807Y-101147438D01*
X180599672Y-101036838D01*
X180349926Y-100892648D01*
X180349916Y-100892644D01*
X180083482Y-100782283D01*
X179804918Y-100707643D01*
X179519003Y-100670000D01*
X179230596Y-100670000D01*
X178944681Y-100707643D01*
X178666117Y-100782283D01*
X178399683Y-100892644D01*
X178399673Y-100892648D01*
X178149923Y-101036841D01*
X178005791Y-101147436D01*
X178005791Y-101147438D01*
X178919851Y-102061498D01*
X178785147Y-102151505D01*
X178656305Y-102280347D01*
X178566298Y-102415051D01*
X177652238Y-101500991D01*
X177652236Y-101500991D01*
X177541641Y-101645123D01*
X177397448Y-101894873D01*
X177397444Y-101894883D01*
X177287083Y-102161317D01*
X177212443Y-102439881D01*
X177174800Y-102725796D01*
X169974149Y-102725796D01*
X170065881Y-102634064D01*
X170951277Y-101748668D01*
X171844107Y-100855837D01*
X171905428Y-100822354D01*
X171975120Y-100827338D01*
X172019467Y-100855839D01*
X172081034Y-100917406D01*
X172227868Y-101007974D01*
X172391631Y-101062240D01*
X172492707Y-101072566D01*
X173166060Y-101072565D01*
X173166068Y-101072564D01*
X173166071Y-101072564D01*
X173221414Y-101066910D01*
X173267137Y-101062240D01*
X173430900Y-101007974D01*
X173577734Y-100917406D01*
X173617056Y-100878083D01*
X173678377Y-100844599D01*
X173748068Y-100849583D01*
X173792417Y-100878084D01*
X173831343Y-100917010D01*
X173831347Y-100917013D01*
X173978070Y-101007514D01*
X173978081Y-101007519D01*
X174141729Y-101061746D01*
X174242733Y-101072065D01*
X174829382Y-101072065D01*
X174916022Y-101072065D01*
X174916041Y-101072063D01*
X174916340Y-101072033D01*
X174916343Y-101072033D01*
X175017034Y-101061746D01*
X175180682Y-101007519D01*
X175180693Y-101007514D01*
X175327416Y-100917013D01*
X175327420Y-100917010D01*
X175449326Y-100795104D01*
X175449329Y-100795100D01*
X175539830Y-100648377D01*
X175539835Y-100648366D01*
X175594062Y-100484718D01*
X175604381Y-100383720D01*
X175604382Y-100383707D01*
X175604382Y-100347066D01*
X174829382Y-100347066D01*
X174829382Y-101072065D01*
X174242733Y-101072065D01*
X174329382Y-101072064D01*
X174329382Y-99847066D01*
X174829382Y-99847066D01*
X175604381Y-99847066D01*
X175604381Y-99810426D01*
X175604380Y-99810411D01*
X175594062Y-99709413D01*
X175539835Y-99545765D01*
X175539830Y-99545754D01*
X175449329Y-99399031D01*
X175449326Y-99399027D01*
X175327420Y-99277121D01*
X175327416Y-99277118D01*
X175180693Y-99186617D01*
X175180682Y-99186612D01*
X175017034Y-99132385D01*
X174916036Y-99122066D01*
X174829382Y-99122066D01*
X174829382Y-99847066D01*
X174329382Y-99847066D01*
X174329382Y-99122066D01*
X174329381Y-99122065D01*
X174242742Y-99122066D01*
X174242725Y-99122067D01*
X174141729Y-99132385D01*
X173978081Y-99186612D01*
X173978070Y-99186617D01*
X173831347Y-99277118D01*
X173831343Y-99277121D01*
X173792416Y-99316048D01*
X173731093Y-99349533D01*
X173661401Y-99344547D01*
X173617055Y-99316047D01*
X173577735Y-99276727D01*
X173577734Y-99276726D01*
X173444699Y-99194669D01*
X173430902Y-99186159D01*
X173430897Y-99186157D01*
X173429453Y-99185678D01*
X173267137Y-99131892D01*
X173267135Y-99131891D01*
X173166062Y-99121566D01*
X172492714Y-99121566D01*
X172492696Y-99121567D01*
X172391631Y-99131891D01*
X172227868Y-99186158D01*
X172227865Y-99186159D01*
X172081032Y-99276727D01*
X171959039Y-99398720D01*
X171958439Y-99399480D01*
X171957894Y-99399865D01*
X171953937Y-99403823D01*
X171953260Y-99403146D01*
X171901416Y-99439855D01*
X171861176Y-99446566D01*
X171618863Y-99446566D01*
X171493195Y-99471563D01*
X171493189Y-99471565D01*
X171374808Y-99520600D01*
X171268260Y-99591792D01*
X171268259Y-99591793D01*
X165501873Y-105358181D01*
X165440550Y-105391666D01*
X165414192Y-105394500D01*
X164993733Y-105394500D01*
X164926694Y-105374815D01*
X164880939Y-105322011D01*
X164876028Y-105309506D01*
X164870238Y-105292035D01*
X164864814Y-105275666D01*
X164772712Y-105126344D01*
X164648656Y-105002288D01*
X164499334Y-104910186D01*
X164494079Y-104908444D01*
X164436636Y-104868672D01*
X164409814Y-104804156D01*
X164422130Y-104735381D01*
X164469673Y-104684181D01*
X164494079Y-104673035D01*
X164594334Y-104639814D01*
X164743656Y-104547712D01*
X164867712Y-104423656D01*
X164959814Y-104274334D01*
X165014999Y-104107797D01*
X165025500Y-104005009D01*
X165025499Y-103004992D01*
X165021775Y-102968540D01*
X165014999Y-102902203D01*
X165014998Y-102902200D01*
X165004328Y-102870000D01*
X164959814Y-102735666D01*
X164867712Y-102586344D01*
X164743656Y-102462288D01*
X164636325Y-102396086D01*
X164594336Y-102370187D01*
X164594331Y-102370185D01*
X164593853Y-102370026D01*
X164541579Y-102352704D01*
X164484136Y-102312934D01*
X164457313Y-102248418D01*
X164469628Y-102179642D01*
X164517171Y-102128442D01*
X164541575Y-102117296D01*
X164594334Y-102099814D01*
X164743656Y-102007712D01*
X164867712Y-101883656D01*
X164959814Y-101734334D01*
X165014999Y-101567797D01*
X165025500Y-101465009D01*
X165025499Y-100464992D01*
X165024580Y-100456000D01*
X165014999Y-100362203D01*
X165014998Y-100362200D01*
X165004328Y-100330000D01*
X164959814Y-100195666D01*
X164867712Y-100046344D01*
X164743656Y-99922288D01*
X164594334Y-99830186D01*
X164427797Y-99775001D01*
X164427795Y-99775000D01*
X164325016Y-99764500D01*
X164325009Y-99764500D01*
X163695808Y-99764500D01*
X163628769Y-99744815D01*
X163608127Y-99728181D01*
X162891874Y-99011927D01*
X162891873Y-99011926D01*
X162785325Y-98940733D01*
X162666947Y-98891700D01*
X162666945Y-98891699D01*
X162666944Y-98891699D01*
X162663556Y-98891025D01*
X162663551Y-98891024D01*
X162663551Y-98891023D01*
X162541271Y-98866700D01*
X162541269Y-98866700D01*
X159133582Y-98866700D01*
X159066543Y-98847015D01*
X159020788Y-98794211D01*
X159010844Y-98725053D01*
X159039869Y-98661497D01*
X159045901Y-98655019D01*
X159560969Y-98139951D01*
X161195526Y-96505394D01*
X161256844Y-96471912D01*
X161283454Y-96469079D01*
X182881765Y-96514645D01*
X182948759Y-96534470D01*
X182994403Y-96587371D01*
X183005500Y-96638644D01*
X183005500Y-134625800D01*
X182985815Y-134692839D01*
X182933011Y-134738594D01*
X182881500Y-134749800D01*
X131211431Y-134749800D01*
X131144392Y-134730115D01*
X131098637Y-134677311D01*
X131087457Y-134623270D01*
X131125075Y-132779986D01*
X149920000Y-132779986D01*
X149930493Y-132882697D01*
X149985640Y-133049119D01*
X149985642Y-133049124D01*
X150077683Y-133198345D01*
X150201653Y-133322315D01*
X150350874Y-133414356D01*
X150350879Y-133414358D01*
X150517301Y-133469505D01*
X150517308Y-133469506D01*
X150620018Y-133479999D01*
X151419998Y-133479999D01*
X151919999Y-133479999D01*
X152719971Y-133479999D01*
X152719985Y-133479998D01*
X152822696Y-133469505D01*
X152989118Y-133414358D01*
X152989123Y-133414356D01*
X153138344Y-133322315D01*
X153262314Y-133198345D01*
X153354355Y-133049124D01*
X153354357Y-133049119D01*
X153409504Y-132882697D01*
X153409505Y-132882690D01*
X153419998Y-132779986D01*
X153419999Y-132779973D01*
X153419999Y-132330000D01*
X151919999Y-132330000D01*
X151919999Y-133479999D01*
X151419998Y-133479999D01*
X151419999Y-133479998D01*
X151419999Y-132330000D01*
X149920000Y-132330000D01*
X149920000Y-132779986D01*
X131125075Y-132779986D01*
X131177932Y-130189983D01*
X134664500Y-130189983D01*
X134664500Y-130965001D01*
X134664501Y-130965019D01*
X134675000Y-131067796D01*
X134675001Y-131067799D01*
X134689277Y-131110880D01*
X134730186Y-131234334D01*
X134822288Y-131383656D01*
X134946344Y-131507712D01*
X135095666Y-131599814D01*
X135262203Y-131654999D01*
X135364991Y-131665500D01*
X136415008Y-131665499D01*
X136415016Y-131665498D01*
X136415019Y-131665498D01*
X136471302Y-131659748D01*
X136517797Y-131654999D01*
X136684334Y-131599814D01*
X136833656Y-131507712D01*
X136914549Y-131426819D01*
X136975872Y-131393334D01*
X137002230Y-131390500D01*
X138637770Y-131390500D01*
X138704809Y-131410185D01*
X138725451Y-131426819D01*
X138781344Y-131482712D01*
X138930666Y-131574814D01*
X139097203Y-131629999D01*
X139199991Y-131640500D01*
X140200008Y-131640499D01*
X140200016Y-131640498D01*
X140200019Y-131640498D01*
X140256302Y-131634748D01*
X140302797Y-131629999D01*
X140469334Y-131574814D01*
X140618656Y-131482712D01*
X140742712Y-131358656D01*
X140834814Y-131209334D01*
X140889999Y-131042797D01*
X140900500Y-130940009D01*
X140900499Y-130639005D01*
X140920183Y-130571968D01*
X140972987Y-130526213D01*
X141042146Y-130516269D01*
X141105701Y-130545294D01*
X141112180Y-130551326D01*
X143146125Y-132585272D01*
X143146126Y-132585273D01*
X143146129Y-132585275D01*
X143146131Y-132585277D01*
X143252673Y-132656465D01*
X143371056Y-132705501D01*
X143371060Y-132705501D01*
X143371061Y-132705502D01*
X143496728Y-132730500D01*
X143496731Y-132730500D01*
X147384071Y-132730500D01*
X147468615Y-132713682D01*
X147509744Y-132705501D01*
X147628127Y-132656465D01*
X147734669Y-132585277D01*
X147812201Y-132507745D01*
X148128990Y-132190957D01*
X148555272Y-131764674D01*
X148555273Y-131764673D01*
X148555277Y-131764669D01*
X148626465Y-131658127D01*
X148675501Y-131539744D01*
X148679549Y-131519394D01*
X148700500Y-131414069D01*
X148700500Y-131380013D01*
X149919999Y-131380013D01*
X149919999Y-131830000D01*
X151419999Y-131830000D01*
X151919999Y-131830000D01*
X153419998Y-131830000D01*
X153419998Y-131380024D01*
X153419997Y-131380016D01*
X153419994Y-131379983D01*
X153919501Y-131379983D01*
X153919501Y-132780001D01*
X153919502Y-132780018D01*
X153930001Y-132882796D01*
X153930002Y-132882799D01*
X153959064Y-132970500D01*
X153985187Y-133049334D01*
X154077289Y-133198656D01*
X154201345Y-133322712D01*
X154350667Y-133414814D01*
X154517204Y-133469999D01*
X154619992Y-133480500D01*
X156720009Y-133480499D01*
X156822798Y-133469999D01*
X156989335Y-133414814D01*
X157138657Y-133322712D01*
X157262713Y-133198656D01*
X157299260Y-133139402D01*
X157351208Y-133092679D01*
X157404799Y-133080500D01*
X167563542Y-133080500D01*
X167594566Y-133074328D01*
X167660188Y-133061275D01*
X167756836Y-133042051D01*
X167810165Y-133019961D01*
X167906791Y-132979937D01*
X167954240Y-132970500D01*
X169825003Y-132970500D01*
X169825008Y-132970500D01*
X169927797Y-132959999D01*
X170094334Y-132904814D01*
X170243655Y-132812711D01*
X170367711Y-132688655D01*
X170459814Y-132539334D01*
X170514999Y-132372797D01*
X170525500Y-132270008D01*
X170525500Y-132233536D01*
X170545185Y-132166497D01*
X170561819Y-132145855D01*
X171818832Y-130888842D01*
X173115028Y-129592646D01*
X173230724Y-129433405D01*
X173276549Y-129343468D01*
X173799500Y-129343468D01*
X173799500Y-129736532D01*
X173802929Y-129771344D01*
X173838026Y-130127702D01*
X173914704Y-130513194D01*
X173914707Y-130513205D01*
X174028810Y-130889354D01*
X174102723Y-131067796D01*
X174171706Y-131234336D01*
X174179230Y-131252499D01*
X174179232Y-131252504D01*
X174364511Y-131599137D01*
X174364522Y-131599155D01*
X174582887Y-131925960D01*
X174582897Y-131925974D01*
X174832254Y-132229817D01*
X175110182Y-132507745D01*
X175110187Y-132507749D01*
X175110188Y-132507750D01*
X175414031Y-132757107D01*
X175740851Y-132975482D01*
X175740860Y-132975487D01*
X175740862Y-132975488D01*
X176087495Y-133160767D01*
X176087497Y-133160767D01*
X176087503Y-133160771D01*
X176450647Y-133311190D01*
X176826785Y-133425290D01*
X176826791Y-133425291D01*
X176826794Y-133425292D01*
X176826805Y-133425295D01*
X177212297Y-133501973D01*
X177603468Y-133540500D01*
X177603471Y-133540500D01*
X177996529Y-133540500D01*
X177996532Y-133540500D01*
X178387703Y-133501973D01*
X178462748Y-133487045D01*
X178773194Y-133425295D01*
X178773205Y-133425292D01*
X178773205Y-133425291D01*
X178773215Y-133425290D01*
X179149353Y-133311190D01*
X179512497Y-133160771D01*
X179859149Y-132975482D01*
X180185969Y-132757107D01*
X180489812Y-132507750D01*
X180767750Y-132229812D01*
X181017107Y-131925969D01*
X181235482Y-131599149D01*
X181420771Y-131252497D01*
X181571190Y-130889353D01*
X181685290Y-130513215D01*
X181685292Y-130513205D01*
X181685295Y-130513194D01*
X181761973Y-130127702D01*
X181777505Y-129969999D01*
X181800500Y-129736532D01*
X181800500Y-129343468D01*
X181761973Y-128952297D01*
X181753078Y-128907577D01*
X181685295Y-128566805D01*
X181685292Y-128566794D01*
X181685291Y-128566791D01*
X181685290Y-128566785D01*
X181571190Y-128190647D01*
X181420771Y-127827503D01*
X181361765Y-127717111D01*
X181235488Y-127480862D01*
X181235487Y-127480860D01*
X181235482Y-127480851D01*
X181017107Y-127154031D01*
X180767750Y-126850188D01*
X180767749Y-126850187D01*
X180767745Y-126850182D01*
X180489817Y-126572254D01*
X180185974Y-126322897D01*
X180185973Y-126322896D01*
X180185969Y-126322893D01*
X179859149Y-126104518D01*
X179859144Y-126104515D01*
X179859137Y-126104511D01*
X179512504Y-125919232D01*
X179512499Y-125919230D01*
X179149354Y-125768810D01*
X178773205Y-125654707D01*
X178773194Y-125654704D01*
X178387702Y-125578026D01*
X178093089Y-125549010D01*
X177996532Y-125539500D01*
X177603468Y-125539500D01*
X177514251Y-125548287D01*
X177212297Y-125578026D01*
X176826805Y-125654704D01*
X176826794Y-125654707D01*
X176450645Y-125768810D01*
X176087500Y-125919230D01*
X176087495Y-125919232D01*
X175740862Y-126104511D01*
X175740844Y-126104522D01*
X175414039Y-126322887D01*
X175414025Y-126322897D01*
X175110182Y-126572254D01*
X174832254Y-126850182D01*
X174582897Y-127154025D01*
X174582887Y-127154039D01*
X174364522Y-127480844D01*
X174364511Y-127480862D01*
X174179232Y-127827495D01*
X174179230Y-127827500D01*
X174028810Y-128190645D01*
X173914707Y-128566794D01*
X173914704Y-128566805D01*
X173838026Y-128952297D01*
X173817656Y-129159124D01*
X173799500Y-129343468D01*
X173276549Y-129343468D01*
X173320084Y-129258026D01*
X173380909Y-129070826D01*
X173385348Y-129042797D01*
X173411700Y-128876422D01*
X173411700Y-123040778D01*
X173393757Y-122927491D01*
X173391130Y-122910903D01*
X173380909Y-122846373D01*
X173380218Y-122844248D01*
X173360373Y-122783170D01*
X173360369Y-122783160D01*
X173320086Y-122659180D01*
X173320083Y-122659174D01*
X173319571Y-122658168D01*
X173230724Y-122483795D01*
X173115028Y-122324554D01*
X172975846Y-122185372D01*
X170486646Y-119696172D01*
X170327405Y-119580476D01*
X170282369Y-119557529D01*
X170152030Y-119491117D01*
X169964826Y-119430290D01*
X169770422Y-119399500D01*
X169770417Y-119399500D01*
X169759597Y-119399500D01*
X169694501Y-119381039D01*
X169587741Y-119315189D01*
X169587736Y-119315187D01*
X169587735Y-119315186D01*
X169421198Y-119260001D01*
X169421196Y-119260000D01*
X169318411Y-119249500D01*
X167218399Y-119249500D01*
X167218382Y-119249501D01*
X167115604Y-119260000D01*
X167115601Y-119260001D01*
X166949069Y-119315185D01*
X166949064Y-119315187D01*
X166799743Y-119407289D01*
X166675690Y-119531342D01*
X166583588Y-119680663D01*
X166583586Y-119680668D01*
X166571676Y-119716611D01*
X166528402Y-119847203D01*
X166528402Y-119847204D01*
X166528401Y-119847204D01*
X166517901Y-119949983D01*
X166517901Y-121350001D01*
X166517902Y-121350018D01*
X166528401Y-121452796D01*
X166528402Y-121452799D01*
X166583586Y-121619331D01*
X166583588Y-121619336D01*
X166594661Y-121637288D01*
X166675689Y-121768656D01*
X166799745Y-121892712D01*
X166949067Y-121984814D01*
X167115604Y-122039999D01*
X167218392Y-122050500D01*
X169252663Y-122050499D01*
X169319702Y-122070184D01*
X169340344Y-122086818D01*
X170874381Y-123620855D01*
X170907866Y-123682178D01*
X170910700Y-123708536D01*
X170910700Y-128208664D01*
X170891015Y-128275703D01*
X170874381Y-128296345D01*
X169637545Y-129533181D01*
X169576222Y-129566666D01*
X169549864Y-129569500D01*
X166724984Y-129569500D01*
X166622204Y-129580000D01*
X166622203Y-129580001D01*
X166455664Y-129635186D01*
X166455662Y-129635187D01*
X166306348Y-129727286D01*
X166306344Y-129727289D01*
X166182289Y-129851344D01*
X166182286Y-129851348D01*
X166090187Y-130000662D01*
X166090186Y-130000664D01*
X166035001Y-130167203D01*
X166035000Y-130167204D01*
X166024500Y-130269984D01*
X166024500Y-130955500D01*
X166004815Y-131022539D01*
X165952011Y-131068294D01*
X165900500Y-131079500D01*
X157404799Y-131079500D01*
X157337760Y-131059815D01*
X157299260Y-131020597D01*
X157262713Y-130961344D01*
X157138657Y-130837288D01*
X156989335Y-130745186D01*
X156822798Y-130690001D01*
X156822796Y-130690000D01*
X156720011Y-130679500D01*
X154619999Y-130679500D01*
X154619982Y-130679501D01*
X154517204Y-130690000D01*
X154517201Y-130690001D01*
X154350669Y-130745185D01*
X154350664Y-130745187D01*
X154201343Y-130837289D01*
X154077290Y-130961342D01*
X153985188Y-131110663D01*
X153985186Y-131110668D01*
X153985116Y-131110880D01*
X153930002Y-131277203D01*
X153930002Y-131277204D01*
X153930001Y-131277204D01*
X153919501Y-131379983D01*
X153419994Y-131379983D01*
X153409504Y-131277302D01*
X153354357Y-131110880D01*
X153354355Y-131110875D01*
X153262314Y-130961654D01*
X153138344Y-130837684D01*
X152989123Y-130745643D01*
X152989118Y-130745641D01*
X152822696Y-130690494D01*
X152822689Y-130690493D01*
X152719985Y-130680000D01*
X151919999Y-130680000D01*
X151919999Y-131830000D01*
X151419999Y-131830000D01*
X151419999Y-130680000D01*
X150620027Y-130680000D01*
X150620011Y-130680001D01*
X150517301Y-130690494D01*
X150350879Y-130745641D01*
X150350874Y-130745643D01*
X150201653Y-130837684D01*
X150077683Y-130961654D01*
X149985642Y-131110875D01*
X149985640Y-131110880D01*
X149930493Y-131277302D01*
X149930492Y-131277309D01*
X149919999Y-131380013D01*
X148700500Y-131380013D01*
X148700500Y-130448118D01*
X148720185Y-130381079D01*
X148725233Y-130373807D01*
X148748796Y-130342331D01*
X148799091Y-130207483D01*
X148805500Y-130147873D01*
X148805499Y-128952128D01*
X148799091Y-128892517D01*
X148798142Y-128889973D01*
X148748797Y-128757671D01*
X148748793Y-128757664D01*
X148662547Y-128642455D01*
X148662544Y-128642452D01*
X148547335Y-128556206D01*
X148547328Y-128556202D01*
X148412486Y-128505910D01*
X148412485Y-128505909D01*
X148412483Y-128505909D01*
X148352873Y-128499500D01*
X148352863Y-128499500D01*
X147747129Y-128499500D01*
X147747123Y-128499501D01*
X147687514Y-128505909D01*
X147593332Y-128541036D01*
X147523640Y-128546020D01*
X147506668Y-128541036D01*
X147412488Y-128505910D01*
X147412484Y-128505909D01*
X147412483Y-128505909D01*
X147352873Y-128499500D01*
X147352863Y-128499500D01*
X146747129Y-128499500D01*
X146747123Y-128499501D01*
X146687514Y-128505909D01*
X146593332Y-128541036D01*
X146523640Y-128546020D01*
X146506668Y-128541036D01*
X146412488Y-128505910D01*
X146412484Y-128505909D01*
X146412483Y-128505909D01*
X146352873Y-128499500D01*
X146352863Y-128499500D01*
X145747129Y-128499500D01*
X145747123Y-128499501D01*
X145687515Y-128505909D01*
X145592617Y-128541303D01*
X145522926Y-128546287D01*
X145505952Y-128541303D01*
X145412380Y-128506403D01*
X145412372Y-128506401D01*
X145352844Y-128500000D01*
X145300000Y-128500000D01*
X145300000Y-128894329D01*
X145299289Y-128907584D01*
X145294500Y-128952127D01*
X145294500Y-129549337D01*
X145294501Y-129550000D01*
X145294501Y-130147874D01*
X145299290Y-130192421D01*
X145300000Y-130205675D01*
X145300000Y-130504189D01*
X145290562Y-130551636D01*
X145280263Y-130576503D01*
X145280262Y-130576507D01*
X145280261Y-130576510D01*
X145280260Y-130576511D01*
X145249500Y-130731153D01*
X145249500Y-130888846D01*
X145280261Y-131043489D01*
X145280264Y-131043501D01*
X145340602Y-131189172D01*
X145340609Y-131189185D01*
X145372297Y-131236609D01*
X145393175Y-131303287D01*
X145374690Y-131370667D01*
X145322711Y-131417357D01*
X145269195Y-131429500D01*
X143881608Y-131429500D01*
X143814569Y-131409815D01*
X143793927Y-131393181D01*
X140936818Y-128536072D01*
X140903333Y-128474749D01*
X140900499Y-128448391D01*
X140900499Y-128139998D01*
X140900498Y-128139981D01*
X140889999Y-128037203D01*
X140889998Y-128037200D01*
X140881204Y-128010662D01*
X140834814Y-127870666D01*
X140742712Y-127721344D01*
X140618656Y-127597288D01*
X140469334Y-127505186D01*
X140302797Y-127450001D01*
X140302795Y-127450000D01*
X140200010Y-127439500D01*
X139199998Y-127439500D01*
X139199980Y-127439501D01*
X139097203Y-127450000D01*
X139097200Y-127450001D01*
X138930668Y-127505185D01*
X138930663Y-127505187D01*
X138781342Y-127597289D01*
X138657289Y-127721342D01*
X138565187Y-127870663D01*
X138565186Y-127870666D01*
X138510001Y-128037203D01*
X138510001Y-128037204D01*
X138510000Y-128037204D01*
X138499500Y-128139983D01*
X138499500Y-128940001D01*
X138499501Y-128940019D01*
X138510000Y-129042796D01*
X138510001Y-129042799D01*
X138565185Y-129209331D01*
X138565187Y-129209336D01*
X138657289Y-129358657D01*
X138750951Y-129452319D01*
X138755289Y-129460264D01*
X138762537Y-129465690D01*
X138771771Y-129490449D01*
X138784436Y-129513642D01*
X138783790Y-129522671D01*
X138786954Y-129531154D01*
X138781337Y-129556974D01*
X138779452Y-129583334D01*
X138773633Y-129592387D01*
X138772102Y-129599427D01*
X138750951Y-129627681D01*
X138725451Y-129653181D01*
X138664128Y-129686666D01*
X138637770Y-129689500D01*
X136927230Y-129689500D01*
X136860191Y-129669815D01*
X136839549Y-129653181D01*
X136833657Y-129647289D01*
X136833656Y-129647288D01*
X136830342Y-129645243D01*
X136828546Y-129643248D01*
X136827989Y-129642807D01*
X136828064Y-129642711D01*
X136783618Y-129593297D01*
X136772397Y-129524334D01*
X136800240Y-129460252D01*
X136830348Y-129434165D01*
X136833342Y-129432318D01*
X136957315Y-129308345D01*
X137049356Y-129159124D01*
X137049358Y-129159119D01*
X137104505Y-128992697D01*
X137104506Y-128992690D01*
X137114999Y-128889986D01*
X137115000Y-128889973D01*
X137115000Y-128752500D01*
X134665001Y-128752500D01*
X134665001Y-128889986D01*
X134675494Y-128992697D01*
X134730641Y-129159119D01*
X134730643Y-129159124D01*
X134822684Y-129308345D01*
X134946655Y-129432316D01*
X134946659Y-129432319D01*
X134949656Y-129434168D01*
X134951279Y-129435972D01*
X134952323Y-129436798D01*
X134952181Y-129436976D01*
X134996381Y-129486116D01*
X135007602Y-129555079D01*
X134979759Y-129619161D01*
X134949661Y-129645241D01*
X134946349Y-129647283D01*
X134946343Y-129647288D01*
X134822289Y-129771342D01*
X134730187Y-129920663D01*
X134730185Y-129920668D01*
X134710359Y-129980499D01*
X134675001Y-130087203D01*
X134675001Y-130087204D01*
X134675000Y-130087204D01*
X134664500Y-130189983D01*
X131177932Y-130189983D01*
X131178048Y-130184304D01*
X131246091Y-126850182D01*
X131253544Y-126484986D01*
X134040001Y-126484986D01*
X134050494Y-126587697D01*
X134105641Y-126754119D01*
X134105643Y-126754124D01*
X134197684Y-126903345D01*
X134321654Y-127027315D01*
X134470875Y-127119356D01*
X134470880Y-127119358D01*
X134637302Y-127174505D01*
X134637309Y-127174506D01*
X134740019Y-127184999D01*
X135219643Y-127184999D01*
X135286682Y-127204683D01*
X135332437Y-127257487D01*
X135342381Y-127326646D01*
X135313356Y-127390202D01*
X135258648Y-127426705D01*
X135095878Y-127480642D01*
X135095875Y-127480643D01*
X134946654Y-127572684D01*
X134822684Y-127696654D01*
X134730643Y-127845875D01*
X134730641Y-127845880D01*
X134675494Y-128012302D01*
X134675493Y-128012309D01*
X134665000Y-128115013D01*
X134665000Y-128252500D01*
X135640000Y-128252500D01*
X135640000Y-127414999D01*
X135612681Y-127387680D01*
X135579196Y-127326357D01*
X135584180Y-127256665D01*
X135612681Y-127212318D01*
X135640000Y-127184999D01*
X136140000Y-127184999D01*
X136167319Y-127212318D01*
X136200804Y-127273641D01*
X136195820Y-127343333D01*
X136167320Y-127387680D01*
X136140000Y-127415000D01*
X136140000Y-128252500D01*
X137114999Y-128252500D01*
X137114999Y-128115028D01*
X137114998Y-128115013D01*
X137104505Y-128012302D01*
X137049358Y-127845880D01*
X137049356Y-127845875D01*
X136957315Y-127696654D01*
X136833345Y-127572684D01*
X136684124Y-127480643D01*
X136684119Y-127480641D01*
X136521349Y-127426705D01*
X136463904Y-127386933D01*
X136437081Y-127322417D01*
X136449396Y-127253641D01*
X136496939Y-127202441D01*
X136560353Y-127184999D01*
X137039972Y-127184999D01*
X137039986Y-127184998D01*
X137142697Y-127174505D01*
X137309119Y-127119358D01*
X137309124Y-127119356D01*
X137458345Y-127027315D01*
X137582315Y-126903345D01*
X137674356Y-126754124D01*
X137674358Y-126754119D01*
X137729505Y-126587697D01*
X137729506Y-126587690D01*
X137739999Y-126484986D01*
X137740000Y-126484973D01*
X137740000Y-126272500D01*
X136140000Y-126272500D01*
X136140000Y-127184999D01*
X135640000Y-127184999D01*
X135640000Y-126272500D01*
X134040001Y-126272500D01*
X134040001Y-126484986D01*
X131253544Y-126484986D01*
X131262035Y-126068879D01*
X131272421Y-125560013D01*
X134040000Y-125560013D01*
X134040000Y-125772500D01*
X135640000Y-125772500D01*
X136140000Y-125772500D01*
X137739999Y-125772500D01*
X137739999Y-125560028D01*
X137739998Y-125560013D01*
X137729505Y-125457302D01*
X137674358Y-125290880D01*
X137674356Y-125290875D01*
X137582315Y-125141654D01*
X137458345Y-125017684D01*
X137309124Y-124925643D01*
X137309119Y-124925641D01*
X137142697Y-124870494D01*
X137142690Y-124870493D01*
X137039986Y-124860000D01*
X136140000Y-124860000D01*
X136140000Y-125772500D01*
X135640000Y-125772500D01*
X135640000Y-124860000D01*
X134740028Y-124860000D01*
X134740012Y-124860001D01*
X134637302Y-124870494D01*
X134470880Y-124925641D01*
X134470875Y-124925643D01*
X134321654Y-125017684D01*
X134197684Y-125141654D01*
X134105643Y-125290875D01*
X134105641Y-125290880D01*
X134050494Y-125457302D01*
X134050493Y-125457309D01*
X134040000Y-125560013D01*
X131272421Y-125560013D01*
X131272537Y-125554334D01*
X131306696Y-123880500D01*
X131320740Y-123192366D01*
X131320740Y-123192354D01*
X131318475Y-123133160D01*
X131318472Y-123133122D01*
X131317225Y-123120302D01*
X131315666Y-123104258D01*
X131306485Y-123045712D01*
X131256203Y-122910903D01*
X131222718Y-122849580D01*
X131222716Y-122849577D01*
X131136500Y-122734405D01*
X131136484Y-122734387D01*
X130550657Y-122148562D01*
X130535236Y-122129772D01*
X130511052Y-122093578D01*
X130499593Y-122072139D01*
X130482930Y-122031910D01*
X130475873Y-122008648D01*
X130467382Y-121965958D01*
X130465000Y-121941768D01*
X130465000Y-118513648D01*
X130462102Y-118459600D01*
X130462102Y-118459599D01*
X130460907Y-118448490D01*
X130459269Y-118433253D01*
X130450614Y-118379841D01*
X130400332Y-118245032D01*
X130366847Y-118183709D01*
X130280623Y-118068528D01*
X130280618Y-118068523D01*
X130280613Y-118068517D01*
X129111987Y-116899892D01*
X129111981Y-116899886D01*
X129111972Y-116899877D01*
X129111948Y-116899855D01*
X129071730Y-116863728D01*
X129071718Y-116863718D01*
X129051067Y-116847076D01*
X129007185Y-116815433D01*
X128876311Y-116755663D01*
X128856773Y-116749926D01*
X128819026Y-116738842D01*
X128809266Y-116735976D01*
X128731658Y-116724818D01*
X128666849Y-116715500D01*
X128244148Y-116715500D01*
X128244146Y-116715500D01*
X128176683Y-116720023D01*
X128176677Y-116720023D01*
X128176670Y-116720024D01*
X128176665Y-116720024D01*
X128176650Y-116720026D01*
X128143870Y-116724441D01*
X128143851Y-116724444D01*
X128077595Y-116737932D01*
X127945674Y-116795358D01*
X127945671Y-116795359D01*
X127886236Y-116832075D01*
X127883510Y-116834232D01*
X127881986Y-116835626D01*
X127783519Y-116917921D01*
X127719456Y-116945808D01*
X127650486Y-116934633D01*
X127598506Y-116887944D01*
X127580000Y-116822775D01*
X127580000Y-116797500D01*
X124170712Y-116797500D01*
X124159075Y-116794855D01*
X124150795Y-116795890D01*
X124117121Y-116785321D01*
X124108178Y-116781035D01*
X124108176Y-116781035D01*
X124087599Y-116771173D01*
X124078371Y-116766751D01*
X124078365Y-116766749D01*
X124070923Y-116764413D01*
X124064859Y-116762336D01*
X124060637Y-116760766D01*
X124049468Y-116755666D01*
X124037305Y-116752094D01*
X124037240Y-116752070D01*
X123997124Y-116740294D01*
X123997113Y-116740291D01*
X123982403Y-116735971D01*
X123981045Y-116735676D01*
X123970267Y-116732818D01*
X123941159Y-116723682D01*
X123941150Y-116723680D01*
X123898037Y-116722877D01*
X123882708Y-116721638D01*
X123840003Y-116715500D01*
X123839998Y-116715500D01*
X119618150Y-116715500D01*
X119618148Y-116715500D01*
X119564099Y-116718397D01*
X119564098Y-116718397D01*
X119537765Y-116721229D01*
X119537738Y-116721232D01*
X119484342Y-116729885D01*
X119484340Y-116729885D01*
X119349535Y-116780166D01*
X119288210Y-116813651D01*
X119173028Y-116899876D01*
X119173016Y-116899886D01*
X116976892Y-119096011D01*
X116976855Y-119096050D01*
X116940728Y-119136268D01*
X116940718Y-119136280D01*
X116924076Y-119156931D01*
X116892433Y-119200813D01*
X116832663Y-119331687D01*
X116812976Y-119398732D01*
X116806757Y-119441990D01*
X116795234Y-119522139D01*
X116793579Y-119533647D01*
X116764554Y-119597202D01*
X116705776Y-119634977D01*
X116670841Y-119640000D01*
X116480001Y-119640000D01*
X116480001Y-120766000D01*
X116460316Y-120833039D01*
X116407512Y-120878794D01*
X116356001Y-120890000D01*
X116230001Y-120890000D01*
X116230001Y-121016000D01*
X116210316Y-121083039D01*
X116157512Y-121128794D01*
X116106001Y-121140000D01*
X114730001Y-121140000D01*
X114730001Y-121341096D01*
X114732898Y-121383824D01*
X114778832Y-121568523D01*
X114863391Y-121739022D01*
X114863393Y-121739025D01*
X114982631Y-121887364D01*
X115051885Y-121943031D01*
X115060251Y-121955049D01*
X115072129Y-121963616D01*
X115079812Y-121983148D01*
X115091804Y-122000375D01*
X115092344Y-122015009D01*
X115097705Y-122028636D01*
X115093608Y-122049220D01*
X115094384Y-122070197D01*
X115086683Y-122084024D01*
X115084069Y-122097162D01*
X115069477Y-122114918D01*
X115063424Y-122125788D01*
X115057984Y-122131423D01*
X114982279Y-122192278D01*
X114897644Y-122297568D01*
X114893745Y-122301609D01*
X114868065Y-122316229D01*
X114843823Y-122333106D01*
X114836264Y-122334335D01*
X114833027Y-122336179D01*
X114826941Y-122335852D01*
X114804519Y-122339500D01*
X112391228Y-122339500D01*
X112226925Y-122372182D01*
X112226913Y-122372185D01*
X112181583Y-122390962D01*
X112072143Y-122436292D01*
X112072130Y-122436299D01*
X111932839Y-122529371D01*
X111892185Y-122570026D01*
X111851528Y-122610682D01*
X111790208Y-122644166D01*
X111763849Y-122647000D01*
X110764984Y-122647000D01*
X110662204Y-122657500D01*
X110662203Y-122657501D01*
X110495664Y-122712686D01*
X110495662Y-122712687D01*
X110346348Y-122804786D01*
X110346344Y-122804789D01*
X110222289Y-122928844D01*
X110222286Y-122928848D01*
X110181115Y-122995597D01*
X110129167Y-123042322D01*
X110075577Y-123054500D01*
X108364424Y-123054500D01*
X108297385Y-123034815D01*
X108258886Y-122995597D01*
X108217714Y-122928848D01*
X108217711Y-122928844D01*
X108093656Y-122804789D01*
X108093652Y-122804786D01*
X107944338Y-122712687D01*
X107944336Y-122712686D01*
X107821447Y-122671965D01*
X107777798Y-122657501D01*
X107777796Y-122657500D01*
X107675016Y-122647000D01*
X107675009Y-122647000D01*
X105684993Y-122647000D01*
X105684985Y-122647000D01*
X105582205Y-122657500D01*
X105582204Y-122657501D01*
X105415665Y-122712686D01*
X105415663Y-122712687D01*
X105266349Y-122804786D01*
X105266345Y-122804789D01*
X105142290Y-122928844D01*
X105142287Y-122928848D01*
X105101116Y-122995597D01*
X105049168Y-123042322D01*
X104995578Y-123054500D01*
X104219500Y-123054500D01*
X104152461Y-123034815D01*
X104106706Y-122982011D01*
X104095500Y-122930500D01*
X104095500Y-122927491D01*
X104095499Y-122927481D01*
X104085000Y-122824703D01*
X104084999Y-122824700D01*
X104082125Y-122816026D01*
X104029815Y-122658166D01*
X103937713Y-122508844D01*
X103813657Y-122384788D01*
X103810343Y-122382743D01*
X103808547Y-122380748D01*
X103807990Y-122380307D01*
X103808065Y-122380211D01*
X103763619Y-122330797D01*
X103752398Y-122261834D01*
X103780241Y-122197752D01*
X103810349Y-122171665D01*
X103813343Y-122169818D01*
X103937316Y-122045845D01*
X104029357Y-121896624D01*
X104029359Y-121896619D01*
X104084506Y-121730197D01*
X104084507Y-121730190D01*
X104095000Y-121627486D01*
X104095001Y-121627473D01*
X104095001Y-121490000D01*
X102994001Y-121490000D01*
X102926962Y-121470315D01*
X102881207Y-121417511D01*
X102870001Y-121366000D01*
X102870001Y-121240000D01*
X102744001Y-121240000D01*
X102676962Y-121220315D01*
X102665845Y-121207485D01*
X104985001Y-121207485D01*
X104995494Y-121310189D01*
X104995495Y-121310196D01*
X105050642Y-121476618D01*
X105050644Y-121476623D01*
X105142685Y-121625844D01*
X105266656Y-121749815D01*
X105415877Y-121841856D01*
X105415882Y-121841858D01*
X105582304Y-121897005D01*
X105582311Y-121897006D01*
X105685015Y-121907499D01*
X105685028Y-121907500D01*
X106430001Y-121907500D01*
X106930001Y-121907500D01*
X107674974Y-121907500D01*
X107674986Y-121907499D01*
X107777690Y-121897006D01*
X107777697Y-121897005D01*
X107944119Y-121841858D01*
X107944124Y-121841856D01*
X108093345Y-121749815D01*
X108217316Y-121625844D01*
X108309357Y-121476623D01*
X108309359Y-121476618D01*
X108364506Y-121310196D01*
X108364507Y-121310189D01*
X108375000Y-121207485D01*
X110065000Y-121207485D01*
X110075493Y-121310189D01*
X110075494Y-121310196D01*
X110130641Y-121476618D01*
X110130643Y-121476623D01*
X110222684Y-121625844D01*
X110346655Y-121749815D01*
X110495876Y-121841856D01*
X110495881Y-121841858D01*
X110662303Y-121897005D01*
X110662310Y-121897006D01*
X110765014Y-121907499D01*
X110765027Y-121907500D01*
X111510000Y-121907500D01*
X112010000Y-121907500D01*
X112754973Y-121907500D01*
X112754985Y-121907499D01*
X112857689Y-121897006D01*
X112857696Y-121897005D01*
X113024118Y-121841858D01*
X113024123Y-121841856D01*
X113173344Y-121749815D01*
X113297315Y-121625844D01*
X113389356Y-121476623D01*
X113389358Y-121476618D01*
X113444505Y-121310196D01*
X113444506Y-121310189D01*
X113454999Y-121207485D01*
X113455000Y-121207472D01*
X113455000Y-120900000D01*
X112010000Y-120900000D01*
X112010000Y-121907500D01*
X111510000Y-121907500D01*
X111510000Y-120900000D01*
X110065000Y-120900000D01*
X110065000Y-121207485D01*
X108375000Y-121207485D01*
X108375001Y-121207472D01*
X108375001Y-120900000D01*
X106930001Y-120900000D01*
X106930001Y-121907500D01*
X106430001Y-121907500D01*
X106430001Y-120900000D01*
X104985001Y-120900000D01*
X104985001Y-121207485D01*
X102665845Y-121207485D01*
X102631207Y-121167511D01*
X102620001Y-121116000D01*
X102620001Y-120990000D01*
X103120001Y-120990000D01*
X104095000Y-120990000D01*
X104095000Y-120852528D01*
X104094999Y-120852512D01*
X104084506Y-120749802D01*
X104029359Y-120583380D01*
X104029357Y-120583375D01*
X103940245Y-120438903D01*
X114730001Y-120438903D01*
X114730001Y-120640000D01*
X115980001Y-120640000D01*
X115980001Y-119640000D01*
X115528904Y-119640000D01*
X115486176Y-119642897D01*
X115301477Y-119688831D01*
X115130978Y-119773390D01*
X115130975Y-119773392D01*
X114982634Y-119892632D01*
X114982633Y-119892633D01*
X114863393Y-120040974D01*
X114863391Y-120040977D01*
X114778832Y-120211476D01*
X114732898Y-120396175D01*
X114730001Y-120438903D01*
X103940245Y-120438903D01*
X103937316Y-120434154D01*
X103813346Y-120310184D01*
X103664125Y-120218143D01*
X103664118Y-120218140D01*
X103630712Y-120207071D01*
X103630711Y-120207071D01*
X103497698Y-120162994D01*
X103497691Y-120162993D01*
X103394987Y-120152500D01*
X103120001Y-120152500D01*
X103120001Y-120990000D01*
X102620001Y-120990000D01*
X102620001Y-120152500D01*
X102345030Y-120152500D01*
X102345013Y-120152501D01*
X102242303Y-120162994D01*
X102075881Y-120218141D01*
X102075872Y-120218145D01*
X102004596Y-120262109D01*
X101937204Y-120280549D01*
X101870540Y-120259626D01*
X101825771Y-120205984D01*
X101815500Y-120156570D01*
X101815500Y-120092514D01*
X104985001Y-120092514D01*
X104985001Y-120400000D01*
X106430001Y-120400000D01*
X106930001Y-120400000D01*
X108375001Y-120400000D01*
X108375001Y-120092527D01*
X108375000Y-120092514D01*
X110065000Y-120092514D01*
X110065000Y-120400000D01*
X111510000Y-120400000D01*
X112010000Y-120400000D01*
X113455000Y-120400000D01*
X113455000Y-120092527D01*
X113454999Y-120092514D01*
X113444506Y-119989810D01*
X113444505Y-119989803D01*
X113389358Y-119823381D01*
X113389356Y-119823376D01*
X113297315Y-119674155D01*
X113173344Y-119550184D01*
X113024123Y-119458143D01*
X113024118Y-119458141D01*
X112857696Y-119402994D01*
X112857689Y-119402993D01*
X112754985Y-119392500D01*
X112010000Y-119392500D01*
X112010000Y-120400000D01*
X111510000Y-120400000D01*
X111510000Y-119392500D01*
X110765014Y-119392500D01*
X110662310Y-119402993D01*
X110662303Y-119402994D01*
X110495881Y-119458141D01*
X110495876Y-119458143D01*
X110346655Y-119550184D01*
X110222684Y-119674155D01*
X110130643Y-119823376D01*
X110130641Y-119823381D01*
X110075494Y-119989803D01*
X110075493Y-119989810D01*
X110065000Y-120092514D01*
X108375000Y-120092514D01*
X108364507Y-119989810D01*
X108364506Y-119989803D01*
X108309359Y-119823381D01*
X108309357Y-119823376D01*
X108217316Y-119674155D01*
X108093345Y-119550184D01*
X107944124Y-119458143D01*
X107944119Y-119458141D01*
X107777697Y-119402994D01*
X107777690Y-119402993D01*
X107674986Y-119392500D01*
X106930001Y-119392500D01*
X106930001Y-120400000D01*
X106430001Y-120400000D01*
X106430001Y-119392500D01*
X105685015Y-119392500D01*
X105582311Y-119402993D01*
X105582304Y-119402994D01*
X105415882Y-119458141D01*
X105415877Y-119458143D01*
X105266656Y-119550184D01*
X105142685Y-119674155D01*
X105050644Y-119823376D01*
X105050642Y-119823381D01*
X104995495Y-119989803D01*
X104995494Y-119989810D01*
X104985001Y-120092514D01*
X101815500Y-120092514D01*
X101815500Y-119783650D01*
X101835185Y-119716611D01*
X101851819Y-119695969D01*
X102550969Y-118996819D01*
X102612292Y-118963334D01*
X102638650Y-118960500D01*
X108033768Y-118960500D01*
X108033769Y-118960499D01*
X108088538Y-118949605D01*
X108198074Y-118927818D01*
X108198078Y-118927816D01*
X108198082Y-118927816D01*
X108243415Y-118909037D01*
X108352863Y-118863704D01*
X108492162Y-118770627D01*
X110537969Y-116724817D01*
X110599292Y-116691333D01*
X110625650Y-116688499D01*
X110947657Y-116688499D01*
X110947657Y-116688498D01*
X110990704Y-116685581D01*
X111176775Y-116639307D01*
X111348547Y-116554116D01*
X111497990Y-116433990D01*
X111510508Y-116418417D01*
X112010134Y-116418417D01*
X112022363Y-116433631D01*
X112022368Y-116433636D01*
X112171725Y-116553692D01*
X112171724Y-116553692D01*
X112343397Y-116638834D01*
X112529361Y-116685081D01*
X112529357Y-116685081D01*
X112572395Y-116687999D01*
X113487605Y-116687999D01*
X113487609Y-116687998D01*
X113530632Y-116685082D01*
X113530634Y-116685082D01*
X113716602Y-116638834D01*
X113888272Y-116553693D01*
X114037635Y-116433631D01*
X114049864Y-116418417D01*
X114049864Y-116418416D01*
X113030000Y-115398552D01*
X112010134Y-116418417D01*
X111510508Y-116418417D01*
X111540443Y-116381177D01*
X111592740Y-116316116D01*
X111618116Y-116284547D01*
X111703307Y-116112775D01*
X111726323Y-116020222D01*
X111758977Y-115962469D01*
X112765542Y-114955904D01*
X112826865Y-114922419D01*
X112896557Y-114927403D01*
X112940904Y-114955904D01*
X113029999Y-115044999D01*
X113119093Y-114955905D01*
X113180416Y-114922420D01*
X113250108Y-114927404D01*
X113294456Y-114955905D01*
X114301023Y-115962472D01*
X114333676Y-116020226D01*
X114356691Y-116112771D01*
X114356694Y-116112778D01*
X114441881Y-116284543D01*
X114441883Y-116284546D01*
X114562009Y-116433989D01*
X114562010Y-116433990D01*
X114711453Y-116554116D01*
X114711456Y-116554118D01*
X114835557Y-116615666D01*
X114883225Y-116639307D01*
X115033013Y-116676558D01*
X115069291Y-116685580D01*
X115069292Y-116685580D01*
X115069296Y-116685581D01*
X115112343Y-116688500D01*
X115544172Y-116688499D01*
X115611210Y-116708183D01*
X115656965Y-116760987D01*
X115666909Y-116830146D01*
X115637884Y-116893702D01*
X115633407Y-116898598D01*
X115557926Y-116976828D01*
X115491248Y-117104307D01*
X115491238Y-117104329D01*
X115468001Y-117170205D01*
X115468001Y-117170207D01*
X115439935Y-117311326D01*
X115439934Y-117311333D01*
X115395031Y-118149548D01*
X115394327Y-118181109D01*
X115394464Y-118196570D01*
X115395733Y-118228131D01*
X115426315Y-118368712D01*
X115426317Y-118368719D01*
X115441476Y-118409363D01*
X115450734Y-118434184D01*
X115450736Y-118434188D01*
X115500007Y-118524420D01*
X115519685Y-118560458D01*
X115621422Y-118662198D01*
X115677355Y-118704070D01*
X115677363Y-118704076D01*
X115803644Y-118773029D01*
X115944236Y-118803612D01*
X116005205Y-118807972D01*
X116013926Y-118808596D01*
X116013928Y-118808596D01*
X116013929Y-118808596D01*
X116023507Y-118807910D01*
X116157439Y-118798332D01*
X116292248Y-118748050D01*
X116353571Y-118714565D01*
X116468752Y-118628342D01*
X117306972Y-117790124D01*
X117319481Y-117777161D01*
X117325513Y-117770683D01*
X117337594Y-117757235D01*
X117415381Y-117636195D01*
X117444228Y-117573028D01*
X117444403Y-117572648D01*
X117444406Y-117572639D01*
X117444408Y-117572636D01*
X117484942Y-117434583D01*
X117484941Y-117290703D01*
X117474997Y-117221545D01*
X117434462Y-117083496D01*
X117356674Y-116962457D01*
X117342248Y-116945808D01*
X117310925Y-116909659D01*
X117310921Y-116909656D01*
X117310919Y-116909653D01*
X117202185Y-116815433D01*
X117202182Y-116815431D01*
X117202180Y-116815430D01*
X117071314Y-116755664D01*
X117071309Y-116755662D01*
X117071308Y-116755662D01*
X117014026Y-116738842D01*
X117004266Y-116735976D01*
X116926658Y-116724818D01*
X116861849Y-116715500D01*
X116579960Y-116715500D01*
X116512921Y-116695815D01*
X116467166Y-116643011D01*
X116457222Y-116573853D01*
X116486247Y-116510297D01*
X116502273Y-116494853D01*
X116521174Y-116479660D01*
X116577990Y-116433990D01*
X116698116Y-116284547D01*
X116783307Y-116112775D01*
X116790211Y-116085013D01*
X123880000Y-116085013D01*
X123880000Y-116297500D01*
X125480000Y-116297500D01*
X125980000Y-116297500D01*
X127579999Y-116297500D01*
X127579999Y-116085028D01*
X127579998Y-116085013D01*
X127569505Y-115982302D01*
X127514358Y-115815880D01*
X127514356Y-115815875D01*
X127422315Y-115666654D01*
X127298345Y-115542684D01*
X127149124Y-115450643D01*
X127149119Y-115450641D01*
X126982697Y-115395494D01*
X126982690Y-115395493D01*
X126879986Y-115385000D01*
X125980000Y-115385000D01*
X125980000Y-116297500D01*
X125480000Y-116297500D01*
X125480000Y-115385000D01*
X124580028Y-115385000D01*
X124580012Y-115385001D01*
X124477302Y-115395494D01*
X124310880Y-115450641D01*
X124310875Y-115450643D01*
X124161654Y-115542684D01*
X124037684Y-115666654D01*
X123945643Y-115815875D01*
X123945641Y-115815880D01*
X123890494Y-115982302D01*
X123890493Y-115982309D01*
X123880000Y-116085013D01*
X116790211Y-116085013D01*
X116829581Y-115926704D01*
X116832500Y-115883657D01*
X116832499Y-114206344D01*
X116829581Y-114163296D01*
X116785311Y-113985283D01*
X116783173Y-113935959D01*
X116810500Y-113763422D01*
X116810500Y-113566577D01*
X116779709Y-113372173D01*
X116751487Y-113285317D01*
X116718884Y-113184975D01*
X116718882Y-113184972D01*
X116718882Y-113184970D01*
X116643988Y-113037983D01*
X116629524Y-113009595D01*
X116569986Y-112927648D01*
X122524500Y-112927648D01*
X122524500Y-113132351D01*
X122556522Y-113334534D01*
X122619781Y-113529223D01*
X122671135Y-113630009D01*
X122690381Y-113667782D01*
X122712715Y-113711613D01*
X122833028Y-113877213D01*
X122977786Y-114021971D01*
X123080249Y-114096413D01*
X123143390Y-114142287D01*
X123259607Y-114201503D01*
X123325776Y-114235218D01*
X123325778Y-114235218D01*
X123325781Y-114235220D01*
X123416856Y-114264812D01*
X123520465Y-114298477D01*
X123621557Y-114314488D01*
X123722648Y-114330500D01*
X123722649Y-114330500D01*
X123927351Y-114330500D01*
X123927352Y-114330500D01*
X124129534Y-114298477D01*
X124324219Y-114235220D01*
X124506610Y-114142287D01*
X124635482Y-114048657D01*
X124672213Y-114021971D01*
X124672215Y-114021968D01*
X124672219Y-114021966D01*
X124816966Y-113877219D01*
X124816968Y-113877215D01*
X124816971Y-113877213D01*
X124885713Y-113782596D01*
X124937287Y-113711610D01*
X125030220Y-113529219D01*
X125093477Y-113334534D01*
X125125500Y-113132352D01*
X125125500Y-112927648D01*
X125104228Y-112793345D01*
X125093477Y-112725465D01*
X125062490Y-112630097D01*
X125030220Y-112530781D01*
X125030218Y-112530778D01*
X125030218Y-112530776D01*
X124986909Y-112445778D01*
X124937287Y-112348390D01*
X124913027Y-112314999D01*
X124816971Y-112182786D01*
X124672213Y-112038028D01*
X124506611Y-111917713D01*
X124413369Y-111870203D01*
X124362574Y-111822229D01*
X124345779Y-111754407D01*
X124368317Y-111688273D01*
X124413371Y-111649234D01*
X124506346Y-111601861D01*
X124506347Y-111601861D01*
X124550921Y-111569474D01*
X123871447Y-110890000D01*
X123877661Y-110890000D01*
X123979394Y-110862741D01*
X124070606Y-110810080D01*
X124145080Y-110735606D01*
X124197741Y-110644394D01*
X124225000Y-110542661D01*
X124225000Y-110536447D01*
X124904474Y-111215921D01*
X124936859Y-111171349D01*
X125029755Y-110989031D01*
X125092990Y-110794417D01*
X125125000Y-110592317D01*
X125125000Y-110387682D01*
X125092990Y-110185582D01*
X125029755Y-109990968D01*
X124936859Y-109808650D01*
X124904474Y-109764077D01*
X124904474Y-109764076D01*
X124225000Y-110443551D01*
X124225000Y-110437339D01*
X124197741Y-110335606D01*
X124145080Y-110244394D01*
X124070606Y-110169920D01*
X123979394Y-110117259D01*
X123877661Y-110090000D01*
X123871446Y-110090000D01*
X124550922Y-109410524D01*
X124550921Y-109410523D01*
X124506359Y-109378147D01*
X124506350Y-109378141D01*
X124324031Y-109285244D01*
X124129417Y-109222009D01*
X123927317Y-109190000D01*
X123722683Y-109190000D01*
X123520582Y-109222009D01*
X123325968Y-109285244D01*
X123143644Y-109378143D01*
X123099077Y-109410523D01*
X123099077Y-109410524D01*
X123778554Y-110090000D01*
X123772339Y-110090000D01*
X123670606Y-110117259D01*
X123579394Y-110169920D01*
X123504920Y-110244394D01*
X123452259Y-110335606D01*
X123425000Y-110437339D01*
X123425000Y-110443553D01*
X122745524Y-109764077D01*
X122745523Y-109764077D01*
X122713143Y-109808644D01*
X122620244Y-109990968D01*
X122557009Y-110185582D01*
X122525000Y-110387682D01*
X122525000Y-110592317D01*
X122557009Y-110794417D01*
X122620244Y-110989031D01*
X122713141Y-111171350D01*
X122713147Y-111171359D01*
X122745523Y-111215921D01*
X122745524Y-111215922D01*
X123425000Y-110536446D01*
X123425000Y-110542661D01*
X123452259Y-110644394D01*
X123504920Y-110735606D01*
X123579394Y-110810080D01*
X123670606Y-110862741D01*
X123772339Y-110890000D01*
X123778553Y-110890000D01*
X123099076Y-111569474D01*
X123143652Y-111601861D01*
X123236628Y-111649234D01*
X123287425Y-111697208D01*
X123304220Y-111765029D01*
X123281683Y-111831164D01*
X123236630Y-111870203D01*
X123143388Y-111917713D01*
X122977786Y-112038028D01*
X122833028Y-112182786D01*
X122712715Y-112348386D01*
X122619781Y-112530776D01*
X122556522Y-112725465D01*
X122524500Y-112927648D01*
X116569986Y-112927648D01*
X116513828Y-112850354D01*
X116374646Y-112711172D01*
X116215405Y-112595476D01*
X116181479Y-112578190D01*
X116040029Y-112506117D01*
X115852826Y-112445290D01*
X115658422Y-112414500D01*
X115658417Y-112414500D01*
X115461583Y-112414500D01*
X115461578Y-112414500D01*
X115267173Y-112445290D01*
X115079970Y-112506117D01*
X114904594Y-112595476D01*
X114825631Y-112652847D01*
X114745354Y-112711172D01*
X114745352Y-112711174D01*
X114745351Y-112711174D01*
X114606174Y-112850351D01*
X114606174Y-112850352D01*
X114606172Y-112850354D01*
X114574059Y-112894554D01*
X114490476Y-113009594D01*
X114400204Y-113186764D01*
X114352229Y-113237560D01*
X114284408Y-113254355D01*
X114218274Y-113231818D01*
X114179234Y-113186764D01*
X114089096Y-113009858D01*
X114063678Y-112974873D01*
X114063677Y-112974873D01*
X113441725Y-113596826D01*
X113416037Y-113500956D01*
X113360084Y-113404044D01*
X113280956Y-113324916D01*
X113184044Y-113268963D01*
X113088172Y-113243274D01*
X113710125Y-112621320D01*
X113710125Y-112621319D01*
X113675145Y-112595905D01*
X113499835Y-112506581D01*
X113312705Y-112445778D01*
X113118382Y-112415000D01*
X112921618Y-112415000D01*
X112727294Y-112445778D01*
X112540161Y-112506582D01*
X112364863Y-112595899D01*
X112364859Y-112595902D01*
X112329873Y-112621320D01*
X112329872Y-112621320D01*
X112951828Y-113243274D01*
X112855956Y-113268963D01*
X112759044Y-113324916D01*
X112679916Y-113404044D01*
X112623963Y-113500956D01*
X112598274Y-113596827D01*
X111976320Y-112974872D01*
X111976320Y-112974873D01*
X111950902Y-113009859D01*
X111860765Y-113186764D01*
X111812790Y-113237560D01*
X111744969Y-113254355D01*
X111678835Y-113231818D01*
X111639795Y-113186763D01*
X111549525Y-113009596D01*
X111495475Y-112935204D01*
X111433828Y-112850354D01*
X111376819Y-112793345D01*
X111362115Y-112766417D01*
X111345523Y-112740599D01*
X111344631Y-112734398D01*
X111343334Y-112732022D01*
X111340500Y-112705664D01*
X111340500Y-111528651D01*
X111360185Y-111461612D01*
X111376819Y-111440970D01*
X113447687Y-109370102D01*
X117510142Y-105307648D01*
X122524500Y-105307648D01*
X122524500Y-105512352D01*
X122526973Y-105527964D01*
X122556522Y-105714534D01*
X122619781Y-105909223D01*
X122681415Y-106030185D01*
X122701398Y-106069404D01*
X122712715Y-106091613D01*
X122833028Y-106257213D01*
X122977786Y-106401971D01*
X123124875Y-106508835D01*
X123143390Y-106522287D01*
X123236080Y-106569515D01*
X123325776Y-106615218D01*
X123325778Y-106615218D01*
X123325781Y-106615220D01*
X123416856Y-106644812D01*
X123520465Y-106678477D01*
X123539697Y-106681523D01*
X123722648Y-106710500D01*
X123722649Y-106710500D01*
X123927351Y-106710500D01*
X123927352Y-106710500D01*
X124129534Y-106678477D01*
X124324219Y-106615220D01*
X124506610Y-106522287D01*
X124635482Y-106428657D01*
X124672213Y-106401971D01*
X124672215Y-106401968D01*
X124672219Y-106401966D01*
X124816966Y-106257219D01*
X124816968Y-106257215D01*
X124816971Y-106257213D01*
X124869799Y-106184500D01*
X124937287Y-106091610D01*
X125030220Y-105909219D01*
X125093477Y-105714534D01*
X125125500Y-105512352D01*
X125125500Y-105307648D01*
X125110841Y-105215095D01*
X125093477Y-105105465D01*
X125045470Y-104957716D01*
X125030220Y-104910781D01*
X125030218Y-104910778D01*
X125030218Y-104910776D01*
X124978865Y-104809991D01*
X124937287Y-104728390D01*
X124924986Y-104711459D01*
X124816971Y-104562786D01*
X124672213Y-104418028D01*
X124506611Y-104297713D01*
X124413369Y-104250203D01*
X124362574Y-104202229D01*
X124345779Y-104134407D01*
X124368317Y-104068273D01*
X124413371Y-104029234D01*
X124506346Y-103981861D01*
X124506347Y-103981861D01*
X124550921Y-103949474D01*
X123871447Y-103270000D01*
X123877661Y-103270000D01*
X123979394Y-103242741D01*
X124070606Y-103190080D01*
X124145080Y-103115606D01*
X124197741Y-103024394D01*
X124225000Y-102922661D01*
X124225000Y-102916447D01*
X124904474Y-103595921D01*
X124936859Y-103551349D01*
X125029755Y-103369031D01*
X125092990Y-103174417D01*
X125125000Y-102972317D01*
X125125000Y-102767682D01*
X125092990Y-102565582D01*
X125029755Y-102370968D01*
X124936859Y-102188650D01*
X124904474Y-102144077D01*
X124904474Y-102144076D01*
X124225000Y-102823551D01*
X124225000Y-102817339D01*
X124197741Y-102715606D01*
X124145080Y-102624394D01*
X124070606Y-102549920D01*
X123979394Y-102497259D01*
X123877661Y-102470000D01*
X123871446Y-102470000D01*
X124550922Y-101790524D01*
X124550921Y-101790523D01*
X124506359Y-101758147D01*
X124506350Y-101758141D01*
X124324031Y-101665244D01*
X124129417Y-101602009D01*
X123927317Y-101570000D01*
X123722683Y-101570000D01*
X123520582Y-101602009D01*
X123325968Y-101665244D01*
X123143644Y-101758143D01*
X123099077Y-101790523D01*
X123099077Y-101790524D01*
X123778554Y-102470000D01*
X123772339Y-102470000D01*
X123670606Y-102497259D01*
X123579394Y-102549920D01*
X123504920Y-102624394D01*
X123452259Y-102715606D01*
X123425000Y-102817339D01*
X123425000Y-102823553D01*
X122745524Y-102144077D01*
X122745523Y-102144077D01*
X122713143Y-102188644D01*
X122620244Y-102370968D01*
X122557009Y-102565582D01*
X122525000Y-102767682D01*
X122525000Y-102972317D01*
X122557009Y-103174417D01*
X122620244Y-103369031D01*
X122713141Y-103551350D01*
X122713147Y-103551359D01*
X122745523Y-103595921D01*
X122745524Y-103595922D01*
X123425000Y-102916446D01*
X123425000Y-102922661D01*
X123452259Y-103024394D01*
X123504920Y-103115606D01*
X123579394Y-103190080D01*
X123670606Y-103242741D01*
X123772339Y-103270000D01*
X123778553Y-103270000D01*
X123099076Y-103949474D01*
X123143652Y-103981861D01*
X123236628Y-104029234D01*
X123287425Y-104077208D01*
X123304220Y-104145029D01*
X123281683Y-104211164D01*
X123236630Y-104250203D01*
X123143388Y-104297713D01*
X122977786Y-104418028D01*
X122833028Y-104562786D01*
X122712715Y-104728386D01*
X122619781Y-104910776D01*
X122556522Y-105105465D01*
X122529565Y-105275668D01*
X122524500Y-105307648D01*
X117510142Y-105307648D01*
X117602695Y-105215095D01*
X119481824Y-103335965D01*
X119481827Y-103335962D01*
X119574904Y-103196663D01*
X119639016Y-103041881D01*
X119653605Y-102968540D01*
X119671700Y-102877567D01*
X119671700Y-99805013D01*
X133765000Y-99805013D01*
X133765000Y-100080000D01*
X134602500Y-100080000D01*
X134602500Y-99105000D01*
X134465027Y-99105000D01*
X134465012Y-99105001D01*
X134362302Y-99115494D01*
X134195880Y-99170641D01*
X134195875Y-99170643D01*
X134046654Y-99262684D01*
X133922684Y-99386654D01*
X133830643Y-99535875D01*
X133830641Y-99535880D01*
X133775494Y-99702302D01*
X133775493Y-99702309D01*
X133765000Y-99805013D01*
X119671700Y-99805013D01*
X119671700Y-94607433D01*
X119639016Y-94443118D01*
X119607466Y-94366952D01*
X119599998Y-94297484D01*
X119631273Y-94235004D01*
X119691362Y-94199352D01*
X119722028Y-94195500D01*
X123082970Y-94195500D01*
X123150009Y-94215185D01*
G37*
%TD.AperFunction*%
%TA.AperFunction,Conductor*%
G36*
X182948539Y-59067185D02*
G01*
X182994294Y-59119989D01*
X183005500Y-59171500D01*
X183005500Y-66526584D01*
X182985815Y-66593623D01*
X182933011Y-66639378D01*
X182880546Y-66650580D01*
X181821946Y-66642436D01*
X181755060Y-66622237D01*
X181709713Y-66569082D01*
X181698900Y-66518440D01*
X181698900Y-66199071D01*
X181683069Y-66038339D01*
X181660373Y-65807897D01*
X181583695Y-65422405D01*
X181583692Y-65422394D01*
X181583691Y-65422391D01*
X181583690Y-65422385D01*
X181469590Y-65046247D01*
X181319171Y-64683103D01*
X181257919Y-64568509D01*
X181133888Y-64336462D01*
X181133887Y-64336460D01*
X181133882Y-64336451D01*
X180915507Y-64009631D01*
X180666150Y-63705788D01*
X180666149Y-63705787D01*
X180666145Y-63705782D01*
X180388217Y-63427854D01*
X180084374Y-63178497D01*
X180084373Y-63178496D01*
X180084369Y-63178493D01*
X179757549Y-62960118D01*
X179757544Y-62960115D01*
X179757537Y-62960111D01*
X179410904Y-62774832D01*
X179410899Y-62774830D01*
X179047754Y-62624410D01*
X178671605Y-62510307D01*
X178671594Y-62510304D01*
X178286102Y-62433626D01*
X177991489Y-62404610D01*
X177894932Y-62395100D01*
X177501868Y-62395100D01*
X177412651Y-62403887D01*
X177110697Y-62433626D01*
X176725205Y-62510304D01*
X176725194Y-62510307D01*
X176349045Y-62624410D01*
X175985900Y-62774830D01*
X175985895Y-62774832D01*
X175639262Y-62960111D01*
X175639244Y-62960122D01*
X175312439Y-63178487D01*
X175312425Y-63178497D01*
X175008582Y-63427854D01*
X174730654Y-63705782D01*
X174481297Y-64009625D01*
X174481287Y-64009639D01*
X174262922Y-64336444D01*
X174262911Y-64336462D01*
X174077632Y-64683095D01*
X174077630Y-64683100D01*
X173927210Y-65046245D01*
X173813107Y-65422394D01*
X173813104Y-65422405D01*
X173736426Y-65807897D01*
X173697900Y-66199071D01*
X173697900Y-66454987D01*
X173678215Y-66522026D01*
X173625411Y-66567781D01*
X173572946Y-66578983D01*
X105914974Y-66058538D01*
X105848088Y-66038339D01*
X105802741Y-65985184D01*
X105793330Y-65915951D01*
X105796153Y-65902449D01*
X105810913Y-65847363D01*
X105821756Y-65765001D01*
X104688482Y-65765001D01*
X104699111Y-65746592D01*
X104740000Y-65593992D01*
X104740000Y-65436010D01*
X104699111Y-65283410D01*
X104688482Y-65265001D01*
X105821755Y-65265001D01*
X105821755Y-65265000D01*
X105810912Y-65182633D01*
X105753235Y-64967380D01*
X105667954Y-64761498D01*
X105667945Y-64761480D01*
X105556535Y-64568509D01*
X105556533Y-64568505D01*
X105420869Y-64391707D01*
X105420862Y-64391699D01*
X105263302Y-64234139D01*
X105263293Y-64234131D01*
X105086495Y-64098467D01*
X105086491Y-64098465D01*
X104893520Y-63987055D01*
X104893502Y-63987046D01*
X104687618Y-63901764D01*
X104472363Y-63844088D01*
X104390000Y-63833243D01*
X104390000Y-64966518D01*
X104371591Y-64955890D01*
X104218991Y-64915001D01*
X104061009Y-64915001D01*
X103908409Y-64955890D01*
X103890000Y-64966518D01*
X103890000Y-63833243D01*
X103889999Y-63833243D01*
X103807636Y-63844088D01*
X103592381Y-63901764D01*
X103386497Y-63987046D01*
X103386479Y-63987055D01*
X103193508Y-64098465D01*
X103193504Y-64098467D01*
X103016706Y-64234131D01*
X102859130Y-64391707D01*
X102723466Y-64568505D01*
X102723464Y-64568509D01*
X102612054Y-64761480D01*
X102612045Y-64761498D01*
X102526764Y-64967380D01*
X102469087Y-65182633D01*
X102458244Y-65265000D01*
X102458245Y-65265001D01*
X103591518Y-65265001D01*
X103580889Y-65283410D01*
X103540000Y-65436010D01*
X103540000Y-65593992D01*
X103580889Y-65746592D01*
X103591518Y-65765001D01*
X102458244Y-65765001D01*
X102469087Y-65847368D01*
X102526764Y-66062621D01*
X102612045Y-66268503D01*
X102612054Y-66268521D01*
X102723464Y-66461492D01*
X102723466Y-66461496D01*
X102859130Y-66638294D01*
X102859138Y-66638303D01*
X103016698Y-66795863D01*
X103016706Y-66795870D01*
X103193504Y-66931534D01*
X103193508Y-66931536D01*
X103386485Y-67042950D01*
X103386507Y-67042961D01*
X103484341Y-67083485D01*
X103538745Y-67127326D01*
X103560744Y-67192053D01*
X103642019Y-68871754D01*
X103625598Y-68939667D01*
X103575067Y-68987920D01*
X103565617Y-68992308D01*
X103386278Y-69066593D01*
X103386273Y-69066595D01*
X103193226Y-69178052D01*
X103193217Y-69178058D01*
X103016377Y-69313751D01*
X103016370Y-69313757D01*
X102858757Y-69471370D01*
X102858751Y-69471377D01*
X102723058Y-69648217D01*
X102723052Y-69648226D01*
X102611595Y-69841273D01*
X102611593Y-69841277D01*
X102526293Y-70047209D01*
X102526290Y-70047219D01*
X102468597Y-70262534D01*
X102468594Y-70262547D01*
X102439501Y-70483533D01*
X102439500Y-70483549D01*
X102439500Y-70706450D01*
X102439501Y-70706466D01*
X102468594Y-70927452D01*
X102468595Y-70927457D01*
X102468596Y-70927463D01*
X102526290Y-71142780D01*
X102526293Y-71142790D01*
X102611593Y-71348722D01*
X102611595Y-71348726D01*
X102723052Y-71541774D01*
X102723057Y-71541780D01*
X102723058Y-71541782D01*
X102858751Y-71718622D01*
X102858757Y-71718629D01*
X103016370Y-71876242D01*
X103016376Y-71876247D01*
X103193226Y-72011948D01*
X103386274Y-72123405D01*
X103592219Y-72208710D01*
X103718871Y-72242646D01*
X103778531Y-72279011D01*
X103809060Y-72341858D01*
X103810632Y-72356428D01*
X103885999Y-73913999D01*
X103886000Y-73914000D01*
X107812958Y-78051331D01*
X107844832Y-78113506D01*
X107838032Y-78183044D01*
X107810701Y-78224376D01*
X106480831Y-79554248D01*
X106042220Y-79992859D01*
X106042218Y-79992861D01*
X105988904Y-80046175D01*
X105902859Y-80132219D01*
X105793369Y-80296082D01*
X105793012Y-80296945D01*
X105763583Y-80367994D01*
X105717949Y-80478164D01*
X105711306Y-80511560D01*
X105711306Y-80511561D01*
X105679500Y-80671456D01*
X105679500Y-83080342D01*
X105659815Y-83147381D01*
X105655818Y-83153228D01*
X105636135Y-83180318D01*
X105548916Y-83351493D01*
X105489553Y-83534197D01*
X105459500Y-83723945D01*
X105459500Y-83916054D01*
X105489553Y-84105802D01*
X105548916Y-84288506D01*
X105591068Y-84371233D01*
X105636135Y-84459681D01*
X105749055Y-84615102D01*
X105884898Y-84750945D01*
X106040319Y-84863865D01*
X106194411Y-84942379D01*
X106211493Y-84951083D01*
X106302845Y-84980764D01*
X106394199Y-85010447D01*
X106583945Y-85040500D01*
X106583946Y-85040500D01*
X106776054Y-85040500D01*
X106776055Y-85040500D01*
X106965801Y-85010447D01*
X107148509Y-84951082D01*
X107319681Y-84863865D01*
X107475102Y-84750945D01*
X107610945Y-84615102D01*
X107723865Y-84459681D01*
X107811082Y-84288509D01*
X107811143Y-84288321D01*
X107832069Y-84223919D01*
X107871506Y-84166243D01*
X107935864Y-84139044D01*
X108004711Y-84150958D01*
X108056187Y-84198202D01*
X108067931Y-84223919D01*
X108088915Y-84288504D01*
X108131068Y-84371233D01*
X108176135Y-84459681D01*
X108289055Y-84615102D01*
X108424898Y-84750945D01*
X108580319Y-84863865D01*
X108734411Y-84942379D01*
X108751493Y-84951083D01*
X108842845Y-84980764D01*
X108934199Y-85010447D01*
X109123945Y-85040500D01*
X109123946Y-85040500D01*
X109316054Y-85040500D01*
X109316055Y-85040500D01*
X109505801Y-85010447D01*
X109688509Y-84951082D01*
X109859681Y-84863865D01*
X110015102Y-84750945D01*
X110150945Y-84615102D01*
X110263865Y-84459681D01*
X110351082Y-84288509D01*
X110351143Y-84288321D01*
X110372332Y-84223109D01*
X110411769Y-84165433D01*
X110476127Y-84138234D01*
X110544973Y-84150148D01*
X110596450Y-84197392D01*
X110608194Y-84223107D01*
X110629383Y-84288321D01*
X110716561Y-84459415D01*
X110737798Y-84488646D01*
X111360000Y-83866445D01*
X111360000Y-83872661D01*
X111387259Y-83974394D01*
X111439920Y-84065606D01*
X111514394Y-84140080D01*
X111605606Y-84192741D01*
X111707339Y-84220000D01*
X111713554Y-84220000D01*
X111091351Y-84842200D01*
X111091352Y-84842201D01*
X111120577Y-84863434D01*
X111291678Y-84950616D01*
X111474315Y-85009959D01*
X111663985Y-85040000D01*
X111856015Y-85040000D01*
X112045684Y-85009959D01*
X112228321Y-84950616D01*
X112399419Y-84863436D01*
X112428646Y-84842201D01*
X112428646Y-84842200D01*
X111806447Y-84220000D01*
X111812661Y-84220000D01*
X111914394Y-84192741D01*
X112005606Y-84140080D01*
X112080080Y-84065606D01*
X112132741Y-83974394D01*
X112160000Y-83872661D01*
X112160000Y-83866446D01*
X112782200Y-84488646D01*
X112782201Y-84488646D01*
X112803436Y-84459419D01*
X112890616Y-84288321D01*
X112949959Y-84105684D01*
X112980000Y-83916015D01*
X112980000Y-83805942D01*
X112999685Y-83738903D01*
X113052489Y-83693148D01*
X113121647Y-83683204D01*
X113185203Y-83712229D01*
X113193932Y-83720571D01*
X113895211Y-84459419D01*
X115860038Y-86529505D01*
X115891912Y-86591681D01*
X115885112Y-86661219D01*
X115841796Y-86716041D01*
X115804695Y-86733946D01*
X115667806Y-86773716D01*
X115667803Y-86773717D01*
X115526447Y-86857314D01*
X115526438Y-86857321D01*
X115410321Y-86973438D01*
X115410314Y-86973447D01*
X115326717Y-87114803D01*
X115326716Y-87114806D01*
X115280900Y-87272504D01*
X115280899Y-87272510D01*
X115278000Y-87309350D01*
X115278000Y-87950000D01*
X117208305Y-87950000D01*
X117348000Y-88097178D01*
X117348000Y-88200000D01*
X117445593Y-88200000D01*
X117598000Y-88360571D01*
X117598000Y-89672295D01*
X117598001Y-89672295D01*
X117600486Y-89672100D01*
X117758198Y-89626281D01*
X117780379Y-89613164D01*
X117848103Y-89595981D01*
X117914366Y-89618141D01*
X117958129Y-89672607D01*
X117967500Y-89719896D01*
X117967500Y-90665500D01*
X117947815Y-90732539D01*
X117895011Y-90778294D01*
X117843500Y-90789500D01*
X115715805Y-90789500D01*
X115648766Y-90769815D01*
X115603011Y-90717011D01*
X115593067Y-90647853D01*
X115612703Y-90596609D01*
X115644390Y-90549185D01*
X115644390Y-90549184D01*
X115644394Y-90549179D01*
X115704737Y-90403497D01*
X115735500Y-90248842D01*
X115735500Y-90091158D01*
X115735500Y-90091155D01*
X115735499Y-90091153D01*
X115704738Y-89936510D01*
X115704737Y-89936503D01*
X115662532Y-89834612D01*
X115655064Y-89765144D01*
X115686339Y-89702665D01*
X115746428Y-89667013D01*
X115811689Y-89668085D01*
X115825505Y-89672099D01*
X115825511Y-89672100D01*
X115827998Y-89672295D01*
X115828000Y-89672295D01*
X116328000Y-89672295D01*
X116328001Y-89672295D01*
X116330486Y-89672100D01*
X116488198Y-89626281D01*
X116629552Y-89542685D01*
X116635722Y-89537900D01*
X116637546Y-89540252D01*
X116686595Y-89513445D01*
X116756288Y-89518402D01*
X116789063Y-89539465D01*
X116790278Y-89537900D01*
X116796447Y-89542685D01*
X116937801Y-89626281D01*
X117095514Y-89672100D01*
X117095511Y-89672100D01*
X117097998Y-89672295D01*
X117098000Y-89672295D01*
X117098000Y-88450000D01*
X116328000Y-88450000D01*
X116328000Y-89672295D01*
X115828000Y-89672295D01*
X115828000Y-88450000D01*
X115278000Y-88450000D01*
X115278000Y-89090649D01*
X115280899Y-89127489D01*
X115314947Y-89244684D01*
X115314937Y-89247936D01*
X115316546Y-89250761D01*
X115314838Y-89282624D01*
X115314747Y-89314553D01*
X115312980Y-89317283D01*
X115312807Y-89320530D01*
X115294136Y-89346421D01*
X115276804Y-89373223D01*
X115273843Y-89374564D01*
X115271941Y-89377203D01*
X115242238Y-89388889D01*
X115213166Y-89402066D01*
X115209043Y-89401949D01*
X115206923Y-89402784D01*
X115171679Y-89400896D01*
X115168497Y-89400263D01*
X115101418Y-89386919D01*
X115039509Y-89354536D01*
X115037930Y-89352984D01*
X113444674Y-87759727D01*
X113444673Y-87759726D01*
X113338125Y-87688533D01*
X113219747Y-87639500D01*
X113219738Y-87639497D01*
X113219676Y-87639485D01*
X113219676Y-87639484D01*
X113094071Y-87614500D01*
X113094069Y-87614500D01*
X105730807Y-87614500D01*
X105663768Y-87594815D01*
X105643126Y-87578181D01*
X99588474Y-81523527D01*
X99588473Y-81523526D01*
X99588469Y-81523523D01*
X99481927Y-81452335D01*
X99481147Y-81452012D01*
X99363544Y-81403299D01*
X99363538Y-81403297D01*
X99237871Y-81378300D01*
X99237869Y-81378300D01*
X96018658Y-81378300D01*
X95951619Y-81358615D01*
X95918341Y-81327187D01*
X95907214Y-81311872D01*
X95784730Y-81189388D01*
X95784728Y-81189386D01*
X95701775Y-81129117D01*
X95659111Y-81073788D01*
X95653132Y-81004174D01*
X95685738Y-80942379D01*
X95701776Y-80928482D01*
X95784728Y-80868214D01*
X95907214Y-80745728D01*
X96009032Y-80605588D01*
X96087673Y-80451245D01*
X96141202Y-80286501D01*
X96168300Y-80115411D01*
X96168300Y-79942189D01*
X96141202Y-79771099D01*
X96087673Y-79606355D01*
X96009032Y-79452012D01*
X95907214Y-79311872D01*
X95799308Y-79203966D01*
X95765823Y-79142643D01*
X95770807Y-79072951D01*
X95812679Y-79017018D01*
X95821894Y-79010745D01*
X95886145Y-78971115D01*
X96010115Y-78847145D01*
X96102156Y-78697924D01*
X96102158Y-78697919D01*
X96157305Y-78531497D01*
X96157306Y-78531490D01*
X96167799Y-78428786D01*
X96167800Y-78428773D01*
X96167800Y-78278800D01*
X95073130Y-78278800D01*
X95092875Y-78259055D01*
X95142244Y-78173545D01*
X95167800Y-78078170D01*
X95167800Y-77979430D01*
X95142244Y-77884055D01*
X95092875Y-77798545D01*
X95073130Y-77778800D01*
X96167799Y-77778800D01*
X96167799Y-77628828D01*
X96167798Y-77628813D01*
X96157305Y-77526102D01*
X96102158Y-77359680D01*
X96102156Y-77359675D01*
X96010115Y-77210454D01*
X95886145Y-77086484D01*
X95736924Y-76994443D01*
X95736919Y-76994441D01*
X95570497Y-76939294D01*
X95570490Y-76939293D01*
X95467786Y-76928800D01*
X95042800Y-76928800D01*
X95042800Y-77748470D01*
X95023055Y-77728725D01*
X94937545Y-77679356D01*
X94842170Y-77653800D01*
X94743430Y-77653800D01*
X94648055Y-77679356D01*
X94562545Y-77728725D01*
X94542800Y-77748470D01*
X94542800Y-76928800D01*
X94117828Y-76928800D01*
X94117812Y-76928801D01*
X94015102Y-76939294D01*
X93848680Y-76994441D01*
X93848675Y-76994443D01*
X93699454Y-77086484D01*
X93575484Y-77210454D01*
X93483443Y-77359675D01*
X93483441Y-77359680D01*
X93428294Y-77526102D01*
X93428293Y-77526109D01*
X93417800Y-77628813D01*
X93417800Y-77778800D01*
X94512470Y-77778800D01*
X94492725Y-77798545D01*
X94443356Y-77884055D01*
X94417800Y-77979430D01*
X94417800Y-78078170D01*
X94443356Y-78173545D01*
X94492725Y-78259055D01*
X94512470Y-78278800D01*
X93417801Y-78278800D01*
X93417801Y-78428786D01*
X93428294Y-78531497D01*
X93483441Y-78697919D01*
X93483443Y-78697924D01*
X93575484Y-78847145D01*
X93699456Y-78971117D01*
X93763706Y-79010746D01*
X93810431Y-79062693D01*
X93821654Y-79131656D01*
X93793811Y-79195738D01*
X93786292Y-79203966D01*
X93678385Y-79311873D01*
X93576568Y-79452011D01*
X93497928Y-79606352D01*
X93444397Y-79771102D01*
X93417300Y-79942189D01*
X93417300Y-80115410D01*
X93441111Y-80265752D01*
X93444398Y-80286501D01*
X93497927Y-80451245D01*
X93576568Y-80605588D01*
X93678386Y-80745728D01*
X93800872Y-80868214D01*
X93818057Y-80880699D01*
X93883823Y-80928483D01*
X93926489Y-80983813D01*
X93932467Y-81053426D01*
X93899861Y-81115221D01*
X93883823Y-81129117D01*
X93800878Y-81189381D01*
X93800869Y-81189388D01*
X93678388Y-81311869D01*
X93678388Y-81311870D01*
X93678386Y-81311872D01*
X93667259Y-81327187D01*
X93576568Y-81452011D01*
X93497928Y-81606352D01*
X93444397Y-81771102D01*
X93417300Y-81942189D01*
X93417300Y-82115410D01*
X93432660Y-82212394D01*
X93444398Y-82286501D01*
X93497927Y-82451245D01*
X93576568Y-82605588D01*
X93678386Y-82745728D01*
X93800872Y-82868214D01*
X93818057Y-82880699D01*
X93883823Y-82928483D01*
X93926489Y-82983813D01*
X93932467Y-83053426D01*
X93899861Y-83115221D01*
X93883823Y-83129117D01*
X93800878Y-83189381D01*
X93800869Y-83189388D01*
X93678388Y-83311869D01*
X93678388Y-83311870D01*
X93678386Y-83311872D01*
X93649601Y-83351491D01*
X93576568Y-83452011D01*
X93497928Y-83606352D01*
X93444397Y-83771102D01*
X93421439Y-83916054D01*
X93417300Y-83942189D01*
X93417300Y-84115411D01*
X93422802Y-84150148D01*
X93430284Y-84197392D01*
X93444398Y-84286501D01*
X93497927Y-84451245D01*
X93576568Y-84605588D01*
X93678386Y-84745728D01*
X93800872Y-84868214D01*
X93818057Y-84880699D01*
X93883823Y-84928483D01*
X93926489Y-84983813D01*
X93932467Y-85053426D01*
X93899861Y-85115221D01*
X93883823Y-85129117D01*
X93800878Y-85189381D01*
X93800869Y-85189388D01*
X93678388Y-85311869D01*
X93678388Y-85311870D01*
X93678386Y-85311872D01*
X93651589Y-85348755D01*
X93576568Y-85452011D01*
X93497928Y-85606352D01*
X93444397Y-85771102D01*
X93417300Y-85942189D01*
X93417300Y-86115410D01*
X93436755Y-86238249D01*
X93444398Y-86286501D01*
X93497927Y-86451245D01*
X93576568Y-86605588D01*
X93678386Y-86745728D01*
X93800872Y-86868214D01*
X93800878Y-86868218D01*
X93883823Y-86928483D01*
X93926489Y-86983813D01*
X93932467Y-87053426D01*
X93899861Y-87115221D01*
X93883823Y-87129117D01*
X93800878Y-87189381D01*
X93800869Y-87189388D01*
X93678388Y-87311869D01*
X93678388Y-87311870D01*
X93678386Y-87311872D01*
X93634659Y-87372056D01*
X93576568Y-87452011D01*
X93497928Y-87606352D01*
X93444397Y-87771102D01*
X93417300Y-87942189D01*
X93417300Y-88115410D01*
X93430697Y-88200000D01*
X93444398Y-88286501D01*
X93497927Y-88451245D01*
X93576568Y-88605588D01*
X93678386Y-88745728D01*
X93800872Y-88868214D01*
X93800878Y-88868218D01*
X93883823Y-88928483D01*
X93926489Y-88983813D01*
X93932467Y-89053426D01*
X93899861Y-89115221D01*
X93883823Y-89129117D01*
X93800878Y-89189381D01*
X93800869Y-89189388D01*
X93678388Y-89311869D01*
X93678388Y-89311870D01*
X93678386Y-89311872D01*
X93674455Y-89317283D01*
X93576568Y-89452011D01*
X93497928Y-89606352D01*
X93444397Y-89771102D01*
X93417300Y-89942189D01*
X93417300Y-90115410D01*
X93438433Y-90248844D01*
X93444398Y-90286501D01*
X93497927Y-90451245D01*
X93576568Y-90605588D01*
X93678386Y-90745728D01*
X93800872Y-90868214D01*
X93800878Y-90868218D01*
X93883823Y-90928483D01*
X93926489Y-90983813D01*
X93932467Y-91053426D01*
X93899861Y-91115221D01*
X93883823Y-91129117D01*
X93800878Y-91189381D01*
X93800869Y-91189388D01*
X93678388Y-91311869D01*
X93678388Y-91311870D01*
X93678386Y-91311872D01*
X93664616Y-91330825D01*
X93576568Y-91452011D01*
X93497928Y-91606352D01*
X93444397Y-91771102D01*
X93417300Y-91942189D01*
X93417300Y-92115411D01*
X93444398Y-92286501D01*
X93497927Y-92451245D01*
X93576568Y-92605588D01*
X93678386Y-92745728D01*
X93678388Y-92745730D01*
X93801181Y-92868523D01*
X93834666Y-92929846D01*
X93837500Y-92956204D01*
X93837500Y-111807071D01*
X93854858Y-111894332D01*
X93854858Y-111894333D01*
X93862497Y-111932737D01*
X93862500Y-111932746D01*
X93911534Y-112051125D01*
X93982726Y-112157673D01*
X93982727Y-112157674D01*
X96491181Y-114666126D01*
X96524666Y-114727449D01*
X96527500Y-114753807D01*
X96527500Y-115883656D01*
X96527501Y-115883659D01*
X96530418Y-115926701D01*
X96530418Y-115926702D01*
X96544247Y-115982309D01*
X96574593Y-116104332D01*
X96576694Y-116112778D01*
X96661881Y-116284543D01*
X96661883Y-116284546D01*
X96782009Y-116433989D01*
X96782010Y-116433990D01*
X96931453Y-116554116D01*
X96931456Y-116554118D01*
X97055557Y-116615666D01*
X97103225Y-116639307D01*
X97253013Y-116676558D01*
X97289291Y-116685580D01*
X97289292Y-116685580D01*
X97289296Y-116685581D01*
X97332343Y-116688500D01*
X98247656Y-116688499D01*
X98290704Y-116685581D01*
X98476775Y-116639307D01*
X98648547Y-116554116D01*
X98797990Y-116433990D01*
X98918116Y-116284547D01*
X98933437Y-116253656D01*
X98948912Y-116222453D01*
X98996333Y-116171140D01*
X99063968Y-116153610D01*
X99130343Y-116175430D01*
X99171088Y-116222453D01*
X99201881Y-116284543D01*
X99201883Y-116284546D01*
X99322009Y-116433989D01*
X99322010Y-116433990D01*
X99471453Y-116554116D01*
X99471456Y-116554118D01*
X99595557Y-116615666D01*
X99643225Y-116639307D01*
X99793013Y-116676558D01*
X99829291Y-116685580D01*
X99829292Y-116685580D01*
X99829296Y-116685581D01*
X99872343Y-116688500D01*
X100787656Y-116688499D01*
X100830704Y-116685581D01*
X101016775Y-116639307D01*
X101188547Y-116554116D01*
X101337990Y-116433990D01*
X101458116Y-116284547D01*
X101473437Y-116253656D01*
X101488912Y-116222453D01*
X101536333Y-116171140D01*
X101603968Y-116153610D01*
X101670343Y-116175430D01*
X101711088Y-116222453D01*
X101741881Y-116284543D01*
X101741883Y-116284546D01*
X101862009Y-116433989D01*
X101862010Y-116433990D01*
X102011453Y-116554116D01*
X102011456Y-116554118D01*
X102135557Y-116615666D01*
X102183225Y-116639307D01*
X102333013Y-116676558D01*
X102369291Y-116685580D01*
X102369292Y-116685580D01*
X102369296Y-116685581D01*
X102412343Y-116688500D01*
X103327656Y-116688499D01*
X103370704Y-116685581D01*
X103556775Y-116639307D01*
X103728547Y-116554116D01*
X103877990Y-116433990D01*
X103998116Y-116284547D01*
X104028911Y-116222453D01*
X104076331Y-116171141D01*
X104143966Y-116153611D01*
X104210341Y-116175431D01*
X104251087Y-116222453D01*
X104281882Y-116284546D01*
X104402008Y-116433989D01*
X104402009Y-116433990D01*
X104551452Y-116554116D01*
X104551455Y-116554118D01*
X104675556Y-116615666D01*
X104723224Y-116639307D01*
X104873012Y-116676558D01*
X104909290Y-116685580D01*
X104909291Y-116685580D01*
X104909295Y-116685581D01*
X104952342Y-116688500D01*
X105867655Y-116688499D01*
X105910703Y-116685581D01*
X106096774Y-116639307D01*
X106268546Y-116554116D01*
X106417989Y-116433990D01*
X106538115Y-116284547D01*
X106568911Y-116222451D01*
X106616331Y-116171139D01*
X106683966Y-116153609D01*
X106750341Y-116175429D01*
X106791087Y-116222451D01*
X106821883Y-116284546D01*
X106942009Y-116433989D01*
X106942010Y-116433990D01*
X107091453Y-116554116D01*
X107091456Y-116554118D01*
X107215557Y-116615666D01*
X107263225Y-116639307D01*
X107413013Y-116676558D01*
X107449291Y-116685580D01*
X107449292Y-116685580D01*
X107449296Y-116685581D01*
X107492343Y-116688500D01*
X107869350Y-116688499D01*
X107936388Y-116708183D01*
X107982143Y-116760987D01*
X107992087Y-116830146D01*
X107963062Y-116893701D01*
X107957030Y-116900180D01*
X107634030Y-117223181D01*
X107572707Y-117256666D01*
X107546349Y-117259500D01*
X102151228Y-117259500D01*
X101994368Y-117290701D01*
X101994369Y-117290702D01*
X101986920Y-117292183D01*
X101986914Y-117292185D01*
X101832143Y-117356292D01*
X101832137Y-117356295D01*
X101832137Y-117356296D01*
X101768000Y-117399152D01*
X101692831Y-117449379D01*
X101692830Y-117449380D01*
X100304375Y-118837834D01*
X100304372Y-118837838D01*
X100211297Y-118977133D01*
X100211296Y-118977136D01*
X100171982Y-119072050D01*
X100171982Y-119072051D01*
X100147184Y-119131917D01*
X100147182Y-119131925D01*
X100114500Y-119296228D01*
X100114500Y-122670021D01*
X100143542Y-122816026D01*
X100147183Y-122834327D01*
X100147185Y-122834335D01*
X100211296Y-122989113D01*
X100211297Y-122989116D01*
X100304372Y-123128411D01*
X100304375Y-123128415D01*
X100791780Y-123615819D01*
X100825265Y-123677142D01*
X100820281Y-123746833D01*
X100778410Y-123802767D01*
X100712945Y-123827184D01*
X100704099Y-123827500D01*
X89845700Y-123827500D01*
X89778661Y-123807815D01*
X89732906Y-123755011D01*
X89721700Y-123703500D01*
X89721700Y-65843471D01*
X90843100Y-65843471D01*
X90843100Y-66236528D01*
X90881626Y-66627702D01*
X90958304Y-67013194D01*
X90958307Y-67013205D01*
X91072410Y-67389354D01*
X91222830Y-67752499D01*
X91222832Y-67752504D01*
X91408111Y-68099137D01*
X91408122Y-68099155D01*
X91626487Y-68425960D01*
X91626497Y-68425974D01*
X91875854Y-68729817D01*
X92153782Y-69007745D01*
X92153787Y-69007749D01*
X92153788Y-69007750D01*
X92457631Y-69257107D01*
X92784451Y-69475482D01*
X92784460Y-69475487D01*
X92784462Y-69475488D01*
X93131095Y-69660767D01*
X93131097Y-69660767D01*
X93131103Y-69660771D01*
X93494247Y-69811190D01*
X93870385Y-69925290D01*
X93870391Y-69925291D01*
X93870394Y-69925292D01*
X93870405Y-69925295D01*
X94255897Y-70001973D01*
X94647068Y-70040500D01*
X94647071Y-70040500D01*
X95040129Y-70040500D01*
X95040132Y-70040500D01*
X95431303Y-70001973D01*
X95506348Y-69987045D01*
X95816794Y-69925295D01*
X95816805Y-69925292D01*
X95816805Y-69925291D01*
X95816815Y-69925290D01*
X96192953Y-69811190D01*
X96556097Y-69660771D01*
X96902749Y-69475482D01*
X97229569Y-69257107D01*
X97533412Y-69007750D01*
X97811350Y-68729812D01*
X98060707Y-68425969D01*
X98279082Y-68099149D01*
X98464371Y-67752497D01*
X98614790Y-67389353D01*
X98728890Y-67013215D01*
X98728892Y-67013205D01*
X98728895Y-67013194D01*
X98803251Y-66639378D01*
X98805573Y-66627703D01*
X98844100Y-66236532D01*
X98844100Y-65843468D01*
X98805573Y-65452297D01*
X98780990Y-65328709D01*
X98780990Y-65328706D01*
X98728895Y-65066806D01*
X98728892Y-65066794D01*
X98728891Y-65066791D01*
X98728890Y-65066785D01*
X98614790Y-64690647D01*
X98464371Y-64327503D01*
X98294469Y-64009639D01*
X98279088Y-63980862D01*
X98279087Y-63980860D01*
X98279082Y-63980851D01*
X98060707Y-63654031D01*
X97811350Y-63350188D01*
X97811349Y-63350187D01*
X97811345Y-63350182D01*
X97533417Y-63072254D01*
X97229574Y-62822897D01*
X97229573Y-62822896D01*
X97229569Y-62822893D01*
X96902749Y-62604518D01*
X96902744Y-62604515D01*
X96902737Y-62604511D01*
X96556104Y-62419232D01*
X96556099Y-62419230D01*
X96192954Y-62268810D01*
X95816805Y-62154707D01*
X95816794Y-62154704D01*
X95431302Y-62078026D01*
X95136689Y-62049010D01*
X95040132Y-62039500D01*
X94647068Y-62039500D01*
X94557851Y-62048287D01*
X94255897Y-62078026D01*
X93870405Y-62154704D01*
X93870394Y-62154707D01*
X93494245Y-62268810D01*
X93131100Y-62419230D01*
X93131095Y-62419232D01*
X92784462Y-62604511D01*
X92784444Y-62604522D01*
X92457639Y-62822887D01*
X92457625Y-62822897D01*
X92153782Y-63072254D01*
X91875854Y-63350182D01*
X91626497Y-63654025D01*
X91626487Y-63654039D01*
X91408122Y-63980844D01*
X91408111Y-63980862D01*
X91222832Y-64327495D01*
X91222830Y-64327500D01*
X91072410Y-64690645D01*
X90958307Y-65066794D01*
X90958304Y-65066805D01*
X90881626Y-65452297D01*
X90867671Y-65593992D01*
X90846604Y-65807897D01*
X90843100Y-65843471D01*
X89721700Y-65843471D01*
X89721700Y-59171500D01*
X89741385Y-59104461D01*
X89794189Y-59058706D01*
X89845700Y-59047500D01*
X182881500Y-59047500D01*
X182948539Y-59067185D01*
G37*
%TD.AperFunction*%
%TA.AperFunction,Conductor*%
G36*
X148858118Y-96442865D02*
G01*
X148925111Y-96462690D01*
X148970755Y-96515591D01*
X148980552Y-96584770D01*
X148951393Y-96648264D01*
X148945533Y-96654545D01*
X148650926Y-96949153D01*
X148587221Y-97012858D01*
X148587218Y-97012861D01*
X148517538Y-97082540D01*
X148447859Y-97152219D01*
X148338371Y-97316080D01*
X148338364Y-97316093D01*
X148299128Y-97410821D01*
X148269625Y-97482048D01*
X148269624Y-97482052D01*
X148262948Y-97498167D01*
X148262947Y-97498171D01*
X148224500Y-97691454D01*
X148224500Y-97691459D01*
X148224500Y-98221040D01*
X148224500Y-98221042D01*
X148224499Y-98221042D01*
X148262947Y-98414328D01*
X148262950Y-98414338D01*
X148338364Y-98596406D01*
X148338371Y-98596419D01*
X148447860Y-98760280D01*
X148447863Y-98760284D01*
X148585398Y-98897819D01*
X148618883Y-98959142D01*
X148613899Y-99028834D01*
X148572027Y-99084767D01*
X148506563Y-99109184D01*
X148497717Y-99109500D01*
X148018384Y-99109500D01*
X147999145Y-99111248D01*
X147947807Y-99115913D01*
X147785393Y-99166522D01*
X147639811Y-99254530D01*
X147519530Y-99374811D01*
X147431522Y-99520393D01*
X147380913Y-99682807D01*
X147374500Y-99753386D01*
X147374500Y-99939191D01*
X147354815Y-100006230D01*
X147338181Y-100026872D01*
X146899568Y-100465484D01*
X146838245Y-100498969D01*
X146836079Y-100499420D01*
X146769008Y-100512761D01*
X146768998Y-100512764D01*
X146623327Y-100573102D01*
X146623314Y-100573109D01*
X146492211Y-100660710D01*
X146492207Y-100660713D01*
X146380713Y-100772207D01*
X146380710Y-100772211D01*
X146293109Y-100903314D01*
X146293102Y-100903327D01*
X146232764Y-101048998D01*
X146232761Y-101049010D01*
X146202000Y-101203653D01*
X146202000Y-101361346D01*
X146232761Y-101515989D01*
X146232764Y-101516001D01*
X146293102Y-101661672D01*
X146293109Y-101661685D01*
X146380710Y-101792788D01*
X146380713Y-101792792D01*
X146492207Y-101904286D01*
X146492211Y-101904289D01*
X146623314Y-101991890D01*
X146623327Y-101991897D01*
X146762784Y-102049661D01*
X146769003Y-102052237D01*
X146922079Y-102082686D01*
X146923653Y-102082999D01*
X146923656Y-102083000D01*
X146923658Y-102083000D01*
X147081344Y-102083000D01*
X147081345Y-102082999D01*
X147235997Y-102052237D01*
X147381679Y-101991894D01*
X147512789Y-101904289D01*
X147624289Y-101792789D01*
X147711894Y-101661679D01*
X147772237Y-101515997D01*
X147785579Y-101448916D01*
X147817963Y-101387009D01*
X147819455Y-101385489D01*
X148158127Y-101046819D01*
X148219450Y-101013334D01*
X148245808Y-101010500D01*
X148531613Y-101010500D01*
X148531616Y-101010500D01*
X148602196Y-101004086D01*
X148764606Y-100953478D01*
X148910185Y-100865472D01*
X149030472Y-100745185D01*
X149118478Y-100599606D01*
X149118479Y-100599601D01*
X149119175Y-100598451D01*
X149170703Y-100551264D01*
X149239562Y-100539425D01*
X149303891Y-100566694D01*
X149331409Y-100598451D01*
X149419927Y-100744877D01*
X149540122Y-100865072D01*
X149685604Y-100953019D01*
X149685603Y-100953019D01*
X149847894Y-101003590D01*
X149847893Y-101003590D01*
X149918408Y-101009998D01*
X149918426Y-101009999D01*
X150425000Y-101009999D01*
X150431581Y-101009999D01*
X150502102Y-101003591D01*
X150502107Y-101003590D01*
X150664396Y-100953018D01*
X150809877Y-100865072D01*
X150930072Y-100744877D01*
X151018019Y-100599395D01*
X151068590Y-100437106D01*
X151075000Y-100366572D01*
X151075000Y-100310000D01*
X150425000Y-100310000D01*
X150425000Y-101009999D01*
X149918426Y-101009999D01*
X149924999Y-101009998D01*
X149925000Y-101009998D01*
X149925000Y-99810000D01*
X150425000Y-99810000D01*
X151074999Y-99810000D01*
X151074999Y-99753417D01*
X151068591Y-99682897D01*
X151068590Y-99682892D01*
X151018018Y-99520603D01*
X150930072Y-99375122D01*
X150809877Y-99254927D01*
X150664395Y-99166980D01*
X150664396Y-99166980D01*
X150502105Y-99116409D01*
X150502106Y-99116409D01*
X150431572Y-99110000D01*
X150425000Y-99110000D01*
X150425000Y-99810000D01*
X149925000Y-99810000D01*
X149925000Y-99120774D01*
X149877562Y-99085326D01*
X149859125Y-99060741D01*
X149838999Y-99037520D01*
X149838355Y-99033045D01*
X149835642Y-99029428D01*
X149833423Y-98998773D01*
X149829047Y-98968363D01*
X149830924Y-98964250D01*
X149830598Y-98959741D01*
X149845301Y-98932758D01*
X149858064Y-98904804D01*
X149864024Y-98898400D01*
X149864031Y-98898389D01*
X149864039Y-98898384D01*
X149864089Y-98898330D01*
X150002139Y-98760281D01*
X150111632Y-98596413D01*
X150187051Y-98414334D01*
X150222289Y-98237184D01*
X150254674Y-98175273D01*
X150256171Y-98173748D01*
X151132778Y-97297141D01*
X151132782Y-97297139D01*
X151272139Y-97157782D01*
X151381632Y-96993914D01*
X151450303Y-96828127D01*
X151457051Y-96811836D01*
X151495500Y-96618540D01*
X151495500Y-96572691D01*
X151515185Y-96505652D01*
X151567989Y-96459897D01*
X151619759Y-96448691D01*
X158109598Y-96462383D01*
X158176592Y-96482208D01*
X158222236Y-96535109D01*
X158232033Y-96604288D01*
X158202874Y-96667782D01*
X158197014Y-96674063D01*
X156456754Y-98414326D01*
X156131019Y-98740061D01*
X151762221Y-103108858D01*
X151762218Y-103108861D01*
X151714402Y-103156677D01*
X151622859Y-103248219D01*
X151513371Y-103412080D01*
X151513366Y-103412089D01*
X151488972Y-103470984D01*
X151444362Y-103578682D01*
X151437949Y-103594164D01*
X151435214Y-103607915D01*
X151399500Y-103787456D01*
X151399500Y-105272637D01*
X151379815Y-105339676D01*
X151327011Y-105385431D01*
X151257853Y-105395375D01*
X151194297Y-105366350D01*
X151156523Y-105307572D01*
X151153027Y-105292035D01*
X151123477Y-105105465D01*
X151075470Y-104957716D01*
X151060220Y-104910781D01*
X151060218Y-104910778D01*
X151060218Y-104910776D01*
X151008865Y-104809991D01*
X150967287Y-104728390D01*
X150954986Y-104711459D01*
X150846971Y-104562786D01*
X150702213Y-104418028D01*
X150536613Y-104297715D01*
X150536612Y-104297714D01*
X150536610Y-104297713D01*
X150443367Y-104250203D01*
X150354223Y-104204781D01*
X150159534Y-104141522D01*
X149984995Y-104113878D01*
X149957352Y-104109500D01*
X149752648Y-104109500D01*
X149728329Y-104113351D01*
X149550465Y-104141522D01*
X149355776Y-104204781D01*
X149173386Y-104297715D01*
X149007786Y-104418028D01*
X148863028Y-104562786D01*
X148742715Y-104728386D01*
X148649781Y-104910776D01*
X148586522Y-105105465D01*
X148559565Y-105275668D01*
X148554500Y-105307648D01*
X148554500Y-105512352D01*
X148556973Y-105527964D01*
X148586522Y-105714534D01*
X148649781Y-105909223D01*
X148711415Y-106030185D01*
X148731398Y-106069404D01*
X148742715Y-106091613D01*
X148863028Y-106257213D01*
X149007786Y-106401971D01*
X149154875Y-106508835D01*
X149173390Y-106522287D01*
X149264840Y-106568883D01*
X149266080Y-106569515D01*
X149316876Y-106617490D01*
X149333671Y-106685311D01*
X149311134Y-106751446D01*
X149266080Y-106790485D01*
X149173386Y-106837715D01*
X149007786Y-106958028D01*
X148863028Y-107102786D01*
X148742715Y-107268386D01*
X148649781Y-107450776D01*
X148586522Y-107645465D01*
X148554500Y-107847648D01*
X148554500Y-108052351D01*
X148586522Y-108254534D01*
X148649781Y-108449223D01*
X148701385Y-108550500D01*
X148738320Y-108622989D01*
X148742715Y-108631613D01*
X148863028Y-108797213D01*
X149007786Y-108941971D01*
X149156281Y-109049857D01*
X149173390Y-109062287D01*
X149264840Y-109108883D01*
X149266080Y-109109515D01*
X149316876Y-109157490D01*
X149333671Y-109225311D01*
X149311134Y-109291446D01*
X149266080Y-109330485D01*
X149173386Y-109377715D01*
X149007786Y-109498028D01*
X148863028Y-109642786D01*
X148742713Y-109808388D01*
X148651909Y-109986599D01*
X148603935Y-110037394D01*
X148536114Y-110054189D01*
X148469979Y-110031651D01*
X148435886Y-109995400D01*
X148387315Y-109916654D01*
X148263345Y-109792684D01*
X148114124Y-109700643D01*
X148114119Y-109700641D01*
X147947697Y-109645494D01*
X147947690Y-109645493D01*
X147844986Y-109635000D01*
X147570000Y-109635000D01*
X147570000Y-110598500D01*
X147550315Y-110665539D01*
X147497511Y-110711294D01*
X147446000Y-110722500D01*
X147320000Y-110722500D01*
X147320000Y-110848500D01*
X147300315Y-110915539D01*
X147247511Y-110961294D01*
X147196000Y-110972500D01*
X146095001Y-110972500D01*
X146095001Y-111109986D01*
X146105494Y-111212697D01*
X146160641Y-111379119D01*
X146160643Y-111379124D01*
X146252684Y-111528345D01*
X146311017Y-111586678D01*
X146344502Y-111648001D01*
X146339518Y-111717693D01*
X146297646Y-111773626D01*
X146232182Y-111798043D01*
X146223336Y-111798359D01*
X144277595Y-111798359D01*
X144245532Y-111804735D01*
X144245533Y-111804736D01*
X144084311Y-111836805D01*
X144084305Y-111836807D01*
X143902229Y-111912225D01*
X143902220Y-111912230D01*
X143738360Y-112021718D01*
X143738356Y-112021721D01*
X140847499Y-114912579D01*
X140786176Y-114946064D01*
X140716484Y-114941080D01*
X140660551Y-114899208D01*
X140636134Y-114833744D01*
X140645257Y-114777445D01*
X140662051Y-114736902D01*
X140700500Y-114543607D01*
X140700500Y-114346526D01*
X140700500Y-110335013D01*
X146095000Y-110335013D01*
X146095000Y-110472500D01*
X147070000Y-110472500D01*
X147070000Y-109635000D01*
X146795029Y-109635000D01*
X146795012Y-109635001D01*
X146692302Y-109645494D01*
X146525880Y-109700641D01*
X146525875Y-109700643D01*
X146376654Y-109792684D01*
X146252684Y-109916654D01*
X146160643Y-110065875D01*
X146160641Y-110065880D01*
X146105494Y-110232302D01*
X146105493Y-110232309D01*
X146095000Y-110335013D01*
X140700500Y-110335013D01*
X140700500Y-105311459D01*
X140700500Y-103335781D01*
X140720185Y-103268742D01*
X140736814Y-103248105D01*
X145417778Y-98567141D01*
X145417782Y-98567139D01*
X145557139Y-98427782D01*
X145666632Y-98263914D01*
X145742051Y-98081835D01*
X145780500Y-97888541D01*
X145780500Y-96560634D01*
X145800185Y-96493595D01*
X145852989Y-96447840D01*
X145904759Y-96436634D01*
X148858118Y-96442865D01*
G37*
%TD.AperFunction*%
%TA.AperFunction,Conductor*%
G36*
X160828306Y-101635185D02*
G01*
X160874061Y-101687989D01*
X160878972Y-101700494D01*
X160885792Y-101721074D01*
X160890186Y-101734334D01*
X160982288Y-101883656D01*
X161106344Y-102007712D01*
X161215597Y-102075099D01*
X161222421Y-102082686D01*
X161231703Y-102086925D01*
X161245391Y-102108224D01*
X161262321Y-102127047D01*
X161264965Y-102138682D01*
X161269477Y-102145703D01*
X161274500Y-102180638D01*
X161274500Y-102289362D01*
X161254815Y-102356401D01*
X161215598Y-102394899D01*
X161155695Y-102431848D01*
X161106342Y-102462289D01*
X160982289Y-102586342D01*
X160890187Y-102735663D01*
X160890186Y-102735666D01*
X160835001Y-102902203D01*
X160835001Y-102902204D01*
X160835000Y-102902204D01*
X160824500Y-103004983D01*
X160824500Y-104005001D01*
X160824501Y-104005019D01*
X160835000Y-104107796D01*
X160835001Y-104107799D01*
X160890185Y-104274331D01*
X160890186Y-104274334D01*
X160982288Y-104423656D01*
X161106344Y-104547712D01*
X161255666Y-104639814D01*
X161260915Y-104641553D01*
X161318359Y-104681322D01*
X161345184Y-104745836D01*
X161332872Y-104814613D01*
X161285331Y-104865815D01*
X161260918Y-104876964D01*
X161160674Y-104910182D01*
X161160663Y-104910187D01*
X161011342Y-105002289D01*
X160887289Y-105126342D01*
X160795187Y-105275663D01*
X160795185Y-105275668D01*
X160783325Y-105311459D01*
X160740001Y-105442203D01*
X160740001Y-105442204D01*
X160740000Y-105442204D01*
X160729500Y-105544983D01*
X160729500Y-105863216D01*
X160709815Y-105930255D01*
X160657011Y-105976010D01*
X160605500Y-105987216D01*
X158825023Y-105987216D01*
X158757984Y-105967531D01*
X158712229Y-105914727D01*
X158702285Y-105845569D01*
X158707092Y-105824897D01*
X158742990Y-105714417D01*
X158775000Y-105512317D01*
X158775000Y-105307682D01*
X158742990Y-105105582D01*
X158679755Y-104910968D01*
X158586859Y-104728650D01*
X158554474Y-104684077D01*
X158554474Y-104684076D01*
X157875000Y-105363551D01*
X157875000Y-105357339D01*
X157847741Y-105255606D01*
X157795080Y-105164394D01*
X157720606Y-105089920D01*
X157629394Y-105037259D01*
X157527661Y-105010000D01*
X157521446Y-105010000D01*
X158200922Y-104330524D01*
X158200921Y-104330523D01*
X158156359Y-104298147D01*
X158156350Y-104298141D01*
X157974031Y-104205244D01*
X157779417Y-104142009D01*
X157577317Y-104110000D01*
X157372683Y-104110000D01*
X157170582Y-104142009D01*
X156975968Y-104205244D01*
X156793644Y-104298143D01*
X156749077Y-104330523D01*
X156749077Y-104330524D01*
X157428554Y-105010000D01*
X157422339Y-105010000D01*
X157320606Y-105037259D01*
X157229394Y-105089920D01*
X157154920Y-105164394D01*
X157102259Y-105255606D01*
X157075000Y-105357339D01*
X157075000Y-105363553D01*
X156395524Y-104684077D01*
X156395523Y-104684077D01*
X156363143Y-104728644D01*
X156270244Y-104910968D01*
X156207009Y-105105582D01*
X156175000Y-105307682D01*
X156175000Y-105512317D01*
X156207009Y-105714417D01*
X156246005Y-105834430D01*
X156246470Y-105850732D01*
X156251896Y-105866110D01*
X156247447Y-105884935D01*
X156248000Y-105904271D01*
X156239579Y-105918235D01*
X156235829Y-105934107D01*
X156221908Y-105947540D01*
X156211920Y-105964104D01*
X156196788Y-105971780D01*
X156185551Y-105982624D01*
X156152267Y-105994366D01*
X156091102Y-106006533D01*
X156073635Y-106010008D01*
X156065293Y-106011667D01*
X156062539Y-106012215D01*
X155944159Y-106061249D01*
X155944150Y-106061254D01*
X155837615Y-106132439D01*
X155837611Y-106132442D01*
X155301181Y-106668873D01*
X155239858Y-106702358D01*
X155170166Y-106697374D01*
X155114233Y-106655502D01*
X155089816Y-106590038D01*
X155089500Y-106581192D01*
X155089500Y-105145935D01*
X155109185Y-105078896D01*
X155110366Y-105077090D01*
X155148394Y-105020179D01*
X155208737Y-104874497D01*
X155222079Y-104807416D01*
X155254463Y-104745509D01*
X155255959Y-104743985D01*
X158348127Y-101651819D01*
X158409450Y-101618334D01*
X158435808Y-101615500D01*
X160761267Y-101615500D01*
X160828306Y-101635185D01*
G37*
%TD.AperFunction*%
%TA.AperFunction,Conductor*%
G36*
X109286160Y-79681273D02*
G01*
X109339773Y-79720142D01*
X109382584Y-79773825D01*
X109581175Y-79972416D01*
X109800752Y-80147523D01*
X109800756Y-80147525D01*
X109801489Y-80148110D01*
X109814114Y-80159692D01*
X110752265Y-81148101D01*
X111187215Y-81606352D01*
X111931620Y-82390635D01*
X111963494Y-82452811D01*
X111956694Y-82522349D01*
X111913378Y-82577171D01*
X111847300Y-82599873D01*
X111841682Y-82600000D01*
X111663985Y-82600000D01*
X111474315Y-82630040D01*
X111291678Y-82689383D01*
X111120578Y-82776564D01*
X111091352Y-82797798D01*
X111091351Y-82797798D01*
X111713554Y-83420000D01*
X111707339Y-83420000D01*
X111605606Y-83447259D01*
X111514394Y-83499920D01*
X111439920Y-83574394D01*
X111387259Y-83665606D01*
X111360000Y-83767339D01*
X111360000Y-83773553D01*
X110737798Y-83151351D01*
X110737798Y-83151352D01*
X110716564Y-83180578D01*
X110629384Y-83351677D01*
X110608194Y-83416893D01*
X110568755Y-83474568D01*
X110504396Y-83501765D01*
X110435550Y-83489850D01*
X110384075Y-83442605D01*
X110372332Y-83416890D01*
X110351084Y-83351495D01*
X110340962Y-83331629D01*
X110263865Y-83180319D01*
X110150945Y-83024898D01*
X110015102Y-82889055D01*
X109859681Y-82776135D01*
X109800008Y-82745730D01*
X109688506Y-82688916D01*
X109505802Y-82629553D01*
X109410928Y-82614526D01*
X109316055Y-82599500D01*
X109123945Y-82599500D01*
X109060696Y-82609517D01*
X108934197Y-82629553D01*
X108751493Y-82688916D01*
X108580318Y-82776135D01*
X108550502Y-82797798D01*
X108424898Y-82889055D01*
X108424896Y-82889057D01*
X108424895Y-82889057D01*
X108289057Y-83024895D01*
X108289057Y-83024896D01*
X108289055Y-83024898D01*
X108253534Y-83073788D01*
X108176135Y-83180318D01*
X108088916Y-83351493D01*
X108067931Y-83416081D01*
X108028494Y-83473756D01*
X107964135Y-83500955D01*
X107895289Y-83489041D01*
X107843813Y-83441797D01*
X107832069Y-83416081D01*
X107811083Y-83351493D01*
X107800962Y-83331629D01*
X107723865Y-83180319D01*
X107704181Y-83153227D01*
X107680702Y-83087422D01*
X107680500Y-83080342D01*
X107680500Y-81235782D01*
X107700185Y-81168743D01*
X107716819Y-81148101D01*
X108413675Y-80451245D01*
X109155147Y-79709772D01*
X109216468Y-79676289D01*
X109286160Y-79681273D01*
G37*
%TD.AperFunction*%
%TA.AperFunction,Conductor*%
G36*
X128733888Y-117240685D02*
G01*
X128754530Y-117257319D01*
X129923181Y-118425970D01*
X129956666Y-118487293D01*
X129959500Y-118513651D01*
X129959500Y-122003771D01*
X129992182Y-122168075D01*
X129992185Y-122168086D01*
X130006253Y-122202045D01*
X130006254Y-122202051D01*
X130006255Y-122202051D01*
X130056296Y-122322863D01*
X130056297Y-122322866D01*
X130149372Y-122462161D01*
X130149375Y-122462165D01*
X130779052Y-123091841D01*
X130812537Y-123153164D01*
X130815345Y-123182052D01*
X130581748Y-134628330D01*
X130560700Y-134694954D01*
X130506973Y-134739622D01*
X130457774Y-134749800D01*
X89845700Y-134749800D01*
X89778661Y-134730115D01*
X89732906Y-134677311D01*
X89721700Y-134625800D01*
X89721700Y-129343471D01*
X90859500Y-129343471D01*
X90859500Y-129736528D01*
X90898026Y-130127702D01*
X90974704Y-130513194D01*
X90974707Y-130513205D01*
X91088810Y-130889354D01*
X91239230Y-131252499D01*
X91239232Y-131252504D01*
X91424511Y-131599137D01*
X91424522Y-131599155D01*
X91642887Y-131925960D01*
X91642897Y-131925974D01*
X91892254Y-132229817D01*
X92170182Y-132507745D01*
X92170187Y-132507749D01*
X92170188Y-132507750D01*
X92474031Y-132757107D01*
X92800851Y-132975482D01*
X92800860Y-132975487D01*
X92800862Y-132975488D01*
X93147495Y-133160767D01*
X93147497Y-133160767D01*
X93147503Y-133160771D01*
X93510647Y-133311190D01*
X93886785Y-133425290D01*
X93886791Y-133425291D01*
X93886794Y-133425292D01*
X93886805Y-133425295D01*
X94272297Y-133501973D01*
X94663468Y-133540500D01*
X94663471Y-133540500D01*
X95056529Y-133540500D01*
X95056532Y-133540500D01*
X95447703Y-133501973D01*
X95522748Y-133487045D01*
X95833194Y-133425295D01*
X95833205Y-133425292D01*
X95833205Y-133425291D01*
X95833215Y-133425290D01*
X96209353Y-133311190D01*
X96572497Y-133160771D01*
X96919149Y-132975482D01*
X97245969Y-132757107D01*
X97549812Y-132507750D01*
X97827750Y-132229812D01*
X98077107Y-131925969D01*
X98295482Y-131599149D01*
X98480771Y-131252497D01*
X98631190Y-130889353D01*
X98745290Y-130513215D01*
X98745292Y-130513205D01*
X98745295Y-130513194D01*
X98821973Y-130127702D01*
X98860500Y-129736528D01*
X98860500Y-129343471D01*
X98821973Y-128952297D01*
X98745295Y-128566805D01*
X98745292Y-128566794D01*
X98745291Y-128566791D01*
X98745290Y-128566785D01*
X98631190Y-128190647D01*
X98480771Y-127827503D01*
X98295482Y-127480851D01*
X98077107Y-127154031D01*
X97827750Y-126850188D01*
X97827749Y-126850187D01*
X97827745Y-126850182D01*
X97549817Y-126572254D01*
X97245974Y-126322897D01*
X97245973Y-126322896D01*
X97245969Y-126322893D01*
X96919149Y-126104518D01*
X96919144Y-126104515D01*
X96919137Y-126104511D01*
X96572504Y-125919232D01*
X96572499Y-125919230D01*
X96209354Y-125768810D01*
X95833205Y-125654707D01*
X95833194Y-125654704D01*
X95447702Y-125578026D01*
X95153089Y-125549010D01*
X95056532Y-125539500D01*
X94663468Y-125539500D01*
X94574251Y-125548287D01*
X94272297Y-125578026D01*
X93886805Y-125654704D01*
X93886794Y-125654707D01*
X93510645Y-125768810D01*
X93147500Y-125919230D01*
X93147495Y-125919232D01*
X92800862Y-126104511D01*
X92800844Y-126104522D01*
X92474039Y-126322887D01*
X92474025Y-126322897D01*
X92170182Y-126572254D01*
X91892254Y-126850182D01*
X91642897Y-127154025D01*
X91642887Y-127154039D01*
X91424522Y-127480844D01*
X91424511Y-127480862D01*
X91239232Y-127827495D01*
X91239230Y-127827500D01*
X91088810Y-128190645D01*
X90974707Y-128566794D01*
X90974704Y-128566805D01*
X90898026Y-128952297D01*
X90859500Y-129343471D01*
X89721700Y-129343471D01*
X89721700Y-124457000D01*
X89741385Y-124389961D01*
X89794189Y-124344206D01*
X89845700Y-124333000D01*
X102042639Y-124333000D01*
X102081641Y-124339293D01*
X102242204Y-124392499D01*
X102344992Y-124403000D01*
X102703848Y-124402999D01*
X102770887Y-124422683D01*
X102791529Y-124439318D01*
X102917835Y-124565624D01*
X102917839Y-124565627D01*
X103057138Y-124658704D01*
X103057140Y-124658705D01*
X103057144Y-124658707D01*
X103139223Y-124692703D01*
X103166585Y-124704037D01*
X103211919Y-124722816D01*
X103376229Y-124755499D01*
X103376233Y-124755500D01*
X103376234Y-124755500D01*
X103543768Y-124755500D01*
X104995578Y-124755500D01*
X105062617Y-124775185D01*
X105101116Y-124814403D01*
X105142287Y-124881151D01*
X105142290Y-124881155D01*
X105266345Y-125005210D01*
X105266349Y-125005213D01*
X105415663Y-125097312D01*
X105415665Y-125097313D01*
X105415667Y-125097314D01*
X105582204Y-125152499D01*
X105684993Y-125163000D01*
X105684998Y-125163000D01*
X107675004Y-125163000D01*
X107675009Y-125163000D01*
X107777798Y-125152499D01*
X107944335Y-125097314D01*
X108093656Y-125005211D01*
X108217712Y-124881155D01*
X108258886Y-124814403D01*
X108310834Y-124767678D01*
X108364424Y-124755500D01*
X110075577Y-124755500D01*
X110142616Y-124775185D01*
X110181115Y-124814403D01*
X110222286Y-124881151D01*
X110222289Y-124881155D01*
X110346344Y-125005210D01*
X110346348Y-125005213D01*
X110495662Y-125097312D01*
X110495664Y-125097313D01*
X110495666Y-125097314D01*
X110662203Y-125152499D01*
X110764992Y-125163000D01*
X110764997Y-125163000D01*
X112755003Y-125163000D01*
X112755008Y-125163000D01*
X112857797Y-125152499D01*
X113024334Y-125097314D01*
X113173655Y-125005211D01*
X113297711Y-124881155D01*
X113389814Y-124731834D01*
X113444999Y-124565297D01*
X113455500Y-124462508D01*
X113455500Y-124457000D01*
X113475185Y-124389961D01*
X113527989Y-124344206D01*
X113579500Y-124333000D01*
X114851543Y-124333000D01*
X114918582Y-124352685D01*
X114964337Y-124405489D01*
X114974281Y-124474647D01*
X114948190Y-124534687D01*
X114862970Y-124640704D01*
X114862968Y-124640707D01*
X114778361Y-124811302D01*
X114732401Y-124996107D01*
X114729501Y-125038879D01*
X114729501Y-125941122D01*
X114729502Y-125941125D01*
X114732400Y-125983886D01*
X114732400Y-125983887D01*
X114778361Y-126168696D01*
X114862968Y-126339292D01*
X114862970Y-126339295D01*
X114982278Y-126487721D01*
X114982279Y-126487722D01*
X115130705Y-126607030D01*
X115130708Y-126607032D01*
X115301303Y-126691639D01*
X115301304Y-126691639D01*
X115301308Y-126691641D01*
X115486112Y-126737600D01*
X115528878Y-126740500D01*
X116931123Y-126740499D01*
X116973890Y-126737600D01*
X117158694Y-126691641D01*
X117329297Y-126607030D01*
X117477723Y-126487722D01*
X117597031Y-126339296D01*
X117635482Y-126261766D01*
X117677677Y-126213759D01*
X117772163Y-126150627D01*
X119278627Y-124644163D01*
X119371704Y-124504864D01*
X119435816Y-124350082D01*
X119448094Y-124288359D01*
X119468500Y-124185768D01*
X119468500Y-120545650D01*
X119488185Y-120478611D01*
X119504819Y-120457969D01*
X120330969Y-119631819D01*
X120392292Y-119598334D01*
X120418650Y-119595500D01*
X123755500Y-119595500D01*
X123822539Y-119615185D01*
X123868294Y-119667989D01*
X123879500Y-119719500D01*
X123879500Y-120135001D01*
X123879501Y-120135019D01*
X123890000Y-120237796D01*
X123890001Y-120237799D01*
X123913856Y-120309788D01*
X123945186Y-120404334D01*
X124037288Y-120553656D01*
X124161344Y-120677712D01*
X124310666Y-120769814D01*
X124477203Y-120824999D01*
X124579991Y-120835500D01*
X126880008Y-120835499D01*
X126982797Y-120824999D01*
X127149334Y-120769814D01*
X127298656Y-120677712D01*
X127422712Y-120553656D01*
X127514814Y-120404334D01*
X127569999Y-120237797D01*
X127580500Y-120135009D01*
X127580499Y-119418649D01*
X127600183Y-119351611D01*
X127616813Y-119330974D01*
X128295626Y-118652162D01*
X128388704Y-118512863D01*
X128452816Y-118358082D01*
X128485499Y-118193767D01*
X128485499Y-118026233D01*
X128452816Y-117861919D01*
X128409392Y-117757083D01*
X128388707Y-117707143D01*
X128388705Y-117707140D01*
X128388704Y-117707137D01*
X128295626Y-117567838D01*
X128295622Y-117567834D01*
X128295620Y-117567831D01*
X128177169Y-117449380D01*
X128177170Y-117449380D01*
X128177163Y-117449375D01*
X128177162Y-117449374D01*
X128175256Y-117448100D01*
X128174484Y-117447177D01*
X128172460Y-117445516D01*
X128172775Y-117445131D01*
X128130453Y-117394492D01*
X128121744Y-117325168D01*
X128151898Y-117262139D01*
X128211340Y-117225419D01*
X128244148Y-117221000D01*
X128666849Y-117221000D01*
X128733888Y-117240685D01*
G37*
%TD.AperFunction*%
M02*
