M48
; DRILL file {KiCad 9.0.6} date 2026-01-17T02:02:54+0300
; FORMAT={-:-/ absolute / metric / decimal}
; #@! TF.CreationDate,2026-01-17T02:02:54+03:00
; #@! TF.GenerationSoftware,Kicad,Pcbnew,9.0.6
; #@! TF.FileFunction,Plated,1,2,PTH
FMAT,2
METRIC
; #@! TA.AperFunction,Plated,PTH,ViaDrill
T1C0.300
; #@! TA.AperFunction,Plated,PTH,ViaDrill
T2C0.600
; #@! TA.AperFunction,Plated,PTH,ComponentDrill
T3C0.750
; #@! TA.AperFunction,Plated,PTH,ComponentDrill
T4C0.800
; #@! TA.AperFunction,Plated,PTH,ComponentDrill
T5C0.850
; #@! TA.AperFunction,Plated,PTH,ComponentDrill
T6C1.000
; #@! TA.AperFunction,Plated,PTH,ComponentDrill
T7C1.300
; #@! TA.AperFunction,Plated,PTH,ViaDrill
T8C1.500
; #@! TA.AperFunction,Plated,PTH,ComponentDrill
T9C1.500
; #@! TA.AperFunction,Plated,PTH,ComponentDrill
T10C1.600
; #@! TA.AperFunction,Plated,PTH,ComponentDrill
T11C1.850
; #@! TA.AperFunction,Plated,PTH,ComponentDrill
T12C3.500
%
G90
G05
T1
X115.57Y-90.805
X117.475Y-85.725
X120.142Y-90.805
X122.91Y-97.25
X123.825Y-85.725
X127.0Y-90.805
X128.27Y-79.375
X131.445Y-132.08
X135.89Y-120.65
X136.652Y-101.854
X139.7Y-97.028
X144.78Y-93.915
X146.05Y-115.57
X146.05Y-130.81
X147.32Y-130.81
X147.955Y-120.65
X148.082Y-97.282
X149.86Y-98.425
X153.67Y-100.965
X157.988Y-105.41
X159.512Y-102.108
T2
X129.286Y-98.806
X155.956Y-119.38
T3
X96.266Y-78.138
X96.266Y-80.138
X96.266Y-82.138
X96.266Y-84.138
X96.266Y-86.138
X96.266Y-88.138
T4
X105.664Y-82.042
X108.204Y-82.042
X110.744Y-82.042
X128.265Y-104.145
X128.265Y-106.685
X128.265Y-111.765
X128.265Y-114.305
X135.885Y-104.145
X135.885Y-106.685
X135.885Y-111.765
X135.885Y-114.305
X137.16Y-83.82
X139.7Y-83.82
X142.24Y-83.82
T5
X97.78Y-102.746
X97.78Y-118.0
X100.32Y-102.746
X100.32Y-118.0
X102.86Y-102.746
X102.86Y-118.0
X105.4Y-102.746
X105.4Y-118.0
X107.94Y-102.746
X107.94Y-118.0
X110.48Y-102.746
X110.48Y-118.0
X113.02Y-102.746
X113.02Y-118.0
X115.56Y-102.76
X115.56Y-118.0
T6
X155.875Y-81.715
X167.875Y-81.715
T7
X155.875Y-93.915
X161.925Y-79.765
X167.925Y-93.965
T8
X121.285Y-77.47
X141.605Y-77.47
T9
X178.12Y-81.915
X178.12Y-87.365
X178.12Y-92.815
T10
X107.95Y-70.04
X115.57Y-70.04
X128.27Y-70.04
X135.89Y-70.04
X156.21Y-70.04
X163.83Y-70.04
T11
X178.054Y-104.648
X178.054Y-111.506
X178.054Y-118.364
T12
X94.86Y-62.23
X94.86Y-133.35
X177.41Y-62.23
X177.8Y-133.35
M30
