%TF.GenerationSoftware,KiCad,Pcbnew,9.0.6*%
%TF.CreationDate,2026-01-17T02:02:38+03:00*%
%TF.ProjectId,Backup power switch 12v Module,4261636b-7570-4207-906f-776572207377,rev?*%
%TF.SameCoordinates,Original*%
%TF.FileFunction,Copper,L1,Top*%
%TF.FilePolarity,Positive*%
%FSLAX46Y46*%
G04 Gerber Fmt 4.6, Leading zero omitted, Abs format (unit mm)*
G04 Created by KiCad (PCBNEW 9.0.6) date 2026-01-17 02:02:38*
%MOMM*%
%LPD*%
G01*
G04 APERTURE LIST*
G04 Aperture macros list*
%AMRoundRect*
0 Rectangle with rounded corners*
0 $1 Rounding radius*
0 $2 $3 $4 $5 $6 $7 $8 $9 X,Y pos of 4 corners*
0 Add a 4 corners polygon primitive as box body*
4,1,4,$2,$3,$4,$5,$6,$7,$8,$9,$2,$3,0*
0 Add four circle primitives for the rounded corners*
1,1,$1+$1,$2,$3*
1,1,$1+$1,$4,$5*
1,1,$1+$1,$6,$7*
1,1,$1+$1,$8,$9*
0 Add four rect primitives between the rounded corners*
20,1,$1+$1,$2,$3,$4,$5,0*
20,1,$1+$1,$4,$5,$6,$7,0*
20,1,$1+$1,$6,$7,$8,$9,0*
20,1,$1+$1,$8,$9,$2,$3,0*%
G04 Aperture macros list end*
%TA.AperFunction,SMDPad,CuDef*%
%ADD10RoundRect,0.237500X0.250000X0.237500X-0.250000X0.237500X-0.250000X-0.237500X0.250000X-0.237500X0*%
%TD*%
%TA.AperFunction,SMDPad,CuDef*%
%ADD11RoundRect,0.249999X-0.450001X-1.425001X0.450001X-1.425001X0.450001X1.425001X-0.450001X1.425001X0*%
%TD*%
%TA.AperFunction,SMDPad,CuDef*%
%ADD12RoundRect,0.250000X0.450000X-0.350000X0.450000X0.350000X-0.450000X0.350000X-0.450000X-0.350000X0*%
%TD*%
%TA.AperFunction,ComponentPad*%
%ADD13RoundRect,0.250000X-0.625000X0.350000X-0.625000X-0.350000X0.625000X-0.350000X0.625000X0.350000X0*%
%TD*%
%TA.AperFunction,ComponentPad*%
%ADD14O,1.750000X1.200000*%
%TD*%
%TA.AperFunction,SMDPad,CuDef*%
%ADD15RoundRect,0.250000X1.000000X0.650000X-1.000000X0.650000X-1.000000X-0.650000X1.000000X-0.650000X0*%
%TD*%
%TA.AperFunction,SMDPad,CuDef*%
%ADD16RoundRect,0.250000X0.350000X0.450000X-0.350000X0.450000X-0.350000X-0.450000X0.350000X-0.450000X0*%
%TD*%
%TA.AperFunction,ComponentPad*%
%ADD17RoundRect,0.250000X0.550000X0.550000X-0.550000X0.550000X-0.550000X-0.550000X0.550000X-0.550000X0*%
%TD*%
%TA.AperFunction,ComponentPad*%
%ADD18C,1.600000*%
%TD*%
%TA.AperFunction,ComponentPad*%
%ADD19C,3.000000*%
%TD*%
%TA.AperFunction,ComponentPad*%
%ADD20C,2.500000*%
%TD*%
%TA.AperFunction,ComponentPad*%
%ADD21C,1.440000*%
%TD*%
%TA.AperFunction,SMDPad,CuDef*%
%ADD22RoundRect,0.250000X-0.475000X0.337500X-0.475000X-0.337500X0.475000X-0.337500X0.475000X0.337500X0*%
%TD*%
%TA.AperFunction,SMDPad,CuDef*%
%ADD23RoundRect,0.250000X-0.350000X-0.450000X0.350000X-0.450000X0.350000X0.450000X-0.350000X0.450000X0*%
%TD*%
%TA.AperFunction,SMDPad,CuDef*%
%ADD24RoundRect,0.150000X0.150000X-0.587500X0.150000X0.587500X-0.150000X0.587500X-0.150000X-0.587500X0*%
%TD*%
%TA.AperFunction,SMDPad,CuDef*%
%ADD25RoundRect,0.250001X0.944999X-0.507499X0.944999X0.507499X-0.944999X0.507499X-0.944999X-0.507499X0*%
%TD*%
%TA.AperFunction,SMDPad,CuDef*%
%ADD26RoundRect,0.237500X-0.287500X-0.237500X0.287500X-0.237500X0.287500X0.237500X-0.287500X0.237500X0*%
%TD*%
%TA.AperFunction,ComponentPad*%
%ADD27C,3.500000*%
%TD*%
%TA.AperFunction,ComponentPad*%
%ADD28C,3.900000*%
%TD*%
%TA.AperFunction,ConnectorPad*%
%ADD29C,7.000000*%
%TD*%
%TA.AperFunction,SMDPad,CuDef*%
%ADD30RoundRect,0.162500X0.825000X0.162500X-0.825000X0.162500X-0.825000X-0.162500X0.825000X-0.162500X0*%
%TD*%
%TA.AperFunction,ComponentPad*%
%ADD31C,3.400000*%
%TD*%
%TA.AperFunction,SMDPad,CuDef*%
%ADD32RoundRect,0.250000X1.100000X-0.412500X1.100000X0.412500X-1.100000X0.412500X-1.100000X-0.412500X0*%
%TD*%
%TA.AperFunction,SMDPad,CuDef*%
%ADD33RoundRect,0.250000X-1.100000X0.412500X-1.100000X-0.412500X1.100000X-0.412500X1.100000X0.412500X0*%
%TD*%
%TA.AperFunction,SMDPad,CuDef*%
%ADD34RoundRect,0.150000X0.150000X-0.825000X0.150000X0.825000X-0.150000X0.825000X-0.150000X-0.825000X0*%
%TD*%
%TA.AperFunction,SMDPad,CuDef*%
%ADD35RoundRect,0.475000X2.075000X-0.475000X2.075000X0.475000X-2.075000X0.475000X-2.075000X-0.475000X0*%
%TD*%
%TA.AperFunction,SMDPad,CuDef*%
%ADD36RoundRect,0.250000X0.475000X-0.337500X0.475000X0.337500X-0.475000X0.337500X-0.475000X-0.337500X0*%
%TD*%
%TA.AperFunction,SMDPad,CuDef*%
%ADD37RoundRect,0.250000X0.337500X0.475000X-0.337500X0.475000X-0.337500X-0.475000X0.337500X-0.475000X0*%
%TD*%
%TA.AperFunction,SMDPad,CuDef*%
%ADD38RoundRect,0.250000X-0.300000X0.300000X-0.300000X-0.300000X0.300000X-0.300000X0.300000X0.300000X0*%
%TD*%
%TA.AperFunction,SMDPad,CuDef*%
%ADD39RoundRect,0.249999X1.425001X-0.450001X1.425001X0.450001X-1.425001X0.450001X-1.425001X-0.450001X0*%
%TD*%
%TA.AperFunction,SMDPad,CuDef*%
%ADD40RoundRect,0.375000X-0.625000X-0.375000X0.625000X-0.375000X0.625000X0.375000X-0.625000X0.375000X0*%
%TD*%
%TA.AperFunction,SMDPad,CuDef*%
%ADD41RoundRect,0.500000X-0.500000X-1.400000X0.500000X-1.400000X0.500000X1.400000X-0.500000X1.400000X0*%
%TD*%
%TA.AperFunction,SMDPad,CuDef*%
%ADD42R,0.510000X1.100000*%
%TD*%
%TA.AperFunction,ComponentPad*%
%ADD43C,1.500000*%
%TD*%
%TA.AperFunction,SMDPad,CuDef*%
%ADD44RoundRect,0.381000X-0.381000X0.762000X-0.381000X-0.762000X0.381000X-0.762000X0.381000X0.762000X0*%
%TD*%
%TA.AperFunction,SMDPad,CuDef*%
%ADD45RoundRect,0.381000X-0.381000X0.869000X-0.381000X-0.869000X0.381000X-0.869000X0.381000X0.869000X0*%
%TD*%
%TA.AperFunction,ComponentPad*%
%ADD46R,4.500000X2.500000*%
%TD*%
%TA.AperFunction,ComponentPad*%
%ADD47O,4.500000X2.500000*%
%TD*%
%TA.AperFunction,ViaPad*%
%ADD48C,0.600000*%
%TD*%
%TA.AperFunction,ViaPad*%
%ADD49C,1.000000*%
%TD*%
%TA.AperFunction,ViaPad*%
%ADD50C,2.000000*%
%TD*%
%TA.AperFunction,Conductor*%
%ADD51C,0.300000*%
%TD*%
%TA.AperFunction,Conductor*%
%ADD52C,0.500000*%
%TD*%
%TA.AperFunction,Conductor*%
%ADD53C,1.000000*%
%TD*%
%TA.AperFunction,Conductor*%
%ADD54C,4.000000*%
%TD*%
%TA.AperFunction,Conductor*%
%ADD55C,0.700000*%
%TD*%
%TA.AperFunction,Conductor*%
%ADD56C,0.400000*%
%TD*%
%TA.AperFunction,Conductor*%
%ADD57C,1.500000*%
%TD*%
%TA.AperFunction,Conductor*%
%ADD58C,2.000000*%
%TD*%
%TA.AperFunction,Conductor*%
%ADD59C,0.200000*%
%TD*%
%TA.AperFunction,Conductor*%
%ADD60C,3.000000*%
%TD*%
G04 APERTURE END LIST*
D10*
X141650000Y-106680000D03*
X139825000Y-106680000D03*
D11*
X111250000Y-76200000D03*
X117350000Y-76200000D03*
D12*
X151130000Y-124190000D03*
X151130000Y-122190000D03*
D13*
X96266000Y-78138000D03*
D14*
X96266000Y-80138000D03*
X96266000Y-82138000D03*
X96266000Y-84138000D03*
X96266000Y-86138000D03*
X96266000Y-88138000D03*
D15*
X155670001Y-132080000D03*
X151669999Y-132080000D03*
D16*
X164322000Y-103886000D03*
X162322000Y-103886000D03*
D17*
X135885000Y-106685000D03*
D18*
X135885000Y-104145000D03*
X128265000Y-104145000D03*
X128265000Y-106685000D03*
D19*
X161925000Y-79765000D03*
D20*
X155875000Y-81715000D03*
D19*
X155875000Y-93915000D03*
X167925000Y-93965000D03*
D20*
X167875000Y-81715000D03*
D21*
X105664000Y-82042000D03*
X108204000Y-82042000D03*
X110743999Y-82042000D03*
D22*
X139700000Y-123422500D03*
X139700000Y-125497500D03*
D23*
X162322000Y-108966000D03*
X164322000Y-108966000D03*
D24*
X144540000Y-120650000D03*
X146440000Y-120650000D03*
X145490000Y-118774999D03*
D25*
X106680000Y-128985000D03*
X106680000Y-125730000D03*
D26*
X139728000Y-110490000D03*
X141478000Y-110490000D03*
D15*
X170275001Y-121920000D03*
X166274999Y-121920000D03*
D27*
X107950000Y-70040000D03*
X115570000Y-70040000D03*
D12*
X111760000Y-97250000D03*
X111760000Y-95250000D03*
D27*
X156210000Y-70040000D03*
X163830000Y-70040000D03*
D25*
X111759999Y-128985000D03*
X111759999Y-125730000D03*
D28*
X177410000Y-62230000D03*
D29*
X177410000Y-62230000D03*
D30*
X156207500Y-111125000D03*
X156207500Y-109855000D03*
X156207500Y-108585000D03*
X156207500Y-107315000D03*
X151132500Y-107315000D03*
X151132500Y-108585000D03*
X151132500Y-109855000D03*
X151132500Y-111125000D03*
D12*
X139700000Y-130540000D03*
X139700000Y-128540000D03*
D17*
X135885000Y-114305000D03*
D18*
X135885000Y-111765000D03*
X128265000Y-111765000D03*
X128265000Y-114305000D03*
D28*
X177800000Y-133350000D03*
D29*
X177800000Y-133350000D03*
D23*
X162322000Y-106426000D03*
X164322000Y-106426000D03*
D24*
X150815000Y-101267500D03*
X152715000Y-101267500D03*
X151765000Y-99392499D03*
D23*
X162322000Y-111506000D03*
X164322000Y-111506000D03*
D31*
X178054000Y-104648000D03*
D32*
X130810000Y-129832500D03*
X130810000Y-126707500D03*
D11*
X131570000Y-77470000D03*
X137670000Y-77470000D03*
D16*
X164306000Y-101092000D03*
X162306000Y-101092000D03*
D33*
X154940000Y-124167500D03*
X154940000Y-127292500D03*
D27*
X128270000Y-70040000D03*
X135890000Y-70040000D03*
D34*
X116078000Y-88200000D03*
X117348000Y-88200000D03*
X118618000Y-88200000D03*
X119888000Y-88200000D03*
X119888000Y-83250000D03*
X118618000Y-83250000D03*
X117348000Y-83250000D03*
X116078000Y-83250000D03*
D35*
X168275000Y-130370000D03*
X168275000Y-126170000D03*
D36*
X102870000Y-128395000D03*
X102870000Y-126320000D03*
D28*
X94860000Y-62230000D03*
D29*
X94860000Y-62230000D03*
D36*
X135890000Y-130577500D03*
X135890000Y-128502500D03*
D21*
X137160000Y-83820000D03*
X139700000Y-83820000D03*
X142239999Y-83820000D03*
D28*
X94860000Y-133350000D03*
D29*
X94860000Y-133350000D03*
D12*
X114300000Y-97250000D03*
X114300000Y-95250000D03*
D16*
X141732000Y-113538000D03*
X139732000Y-113538000D03*
D26*
X172720000Y-100330000D03*
X174469998Y-100330000D03*
D37*
X141775000Y-100330000D03*
X139700000Y-100330000D03*
D36*
X127000000Y-128037500D03*
X127000000Y-125962500D03*
D26*
X139862500Y-102870000D03*
X141612500Y-102870000D03*
D33*
X135890000Y-122897500D03*
X135890000Y-126022500D03*
D38*
X150495000Y-82420001D03*
X150495000Y-85219999D03*
D39*
X160020000Y-128780000D03*
X160020000Y-122680000D03*
D31*
X178054000Y-118364000D03*
D40*
X116230000Y-125970000D03*
X116230000Y-128270000D03*
X116230000Y-130570000D03*
D41*
X122530000Y-128270000D03*
D42*
X144050000Y-129550000D03*
X145050000Y-129550000D03*
X146050000Y-129550000D03*
X147050000Y-129550000D03*
X148050000Y-129550000D03*
X148050000Y-124450000D03*
X147050000Y-124450000D03*
X146050000Y-124450000D03*
X145050000Y-124450000D03*
X144050000Y-124450000D03*
D43*
X97780000Y-118000000D03*
D44*
X97790000Y-119380000D03*
D43*
X100320000Y-118000000D03*
D44*
X100330000Y-119380000D03*
D43*
X102860000Y-118000000D03*
D44*
X102870000Y-119380000D03*
D43*
X105400000Y-118000000D03*
D44*
X105409999Y-119380000D03*
D43*
X107940000Y-118000000D03*
D44*
X107950000Y-119380000D03*
D45*
X115570000Y-101380000D03*
D43*
X115560000Y-102760000D03*
D45*
X113030000Y-101380000D03*
D43*
X113020000Y-102746000D03*
D45*
X110490000Y-101380000D03*
D43*
X110480000Y-102746000D03*
D45*
X107950000Y-101380000D03*
D43*
X107940000Y-102746000D03*
D45*
X105409999Y-101380000D03*
D43*
X105400000Y-102746000D03*
D45*
X102870000Y-101380000D03*
D43*
X102860000Y-102746000D03*
D45*
X100330000Y-101380000D03*
D43*
X100320000Y-102746000D03*
D45*
X97790000Y-101380000D03*
D43*
X97780000Y-102746000D03*
X110480000Y-118000000D03*
D44*
X110490000Y-119380000D03*
D43*
X115560000Y-118000000D03*
D44*
X115570000Y-119380000D03*
D43*
X113020000Y-118000000D03*
D44*
X113030000Y-119380000D03*
D31*
X178054000Y-111506000D03*
D46*
X178120000Y-81915000D03*
D47*
X178120000Y-87365000D03*
X178120000Y-92815000D03*
D34*
X123190000Y-88200000D03*
X124460000Y-88200000D03*
X125730000Y-88200000D03*
X127000000Y-88200000D03*
X127000000Y-83250000D03*
X125730000Y-83250000D03*
X124460000Y-83250000D03*
X123190000Y-83250000D03*
D48*
X122909892Y-97250000D03*
X127000000Y-90805000D03*
X120142000Y-90805000D03*
X115570000Y-90805000D03*
X136652000Y-101854000D03*
D49*
X129286000Y-98806000D03*
X155956000Y-119380000D03*
D48*
X153670000Y-100965000D03*
X117475000Y-85725000D03*
X157988000Y-105410000D03*
X149860000Y-98425000D03*
X123825000Y-85725000D03*
X148082000Y-97282000D03*
X159512000Y-102108000D03*
X146050000Y-130810000D03*
X147320000Y-130810000D03*
X146050000Y-115570000D03*
X131445000Y-132080000D03*
D49*
X135890000Y-120650000D03*
X144780000Y-93915000D03*
D48*
X147955000Y-120650000D03*
D50*
X121285000Y-77470000D03*
X141605000Y-77470000D03*
D48*
X128270000Y-79375000D03*
X139700000Y-97028000D03*
D51*
X139700000Y-125497500D02*
X139997500Y-125497500D01*
X139997500Y-125497500D02*
X144050000Y-129550000D01*
D52*
X111250000Y-76200000D02*
X111250000Y-76325000D01*
D53*
X105664000Y-77216000D02*
X105664000Y-82042000D01*
D54*
X107950000Y-72900000D02*
X111250000Y-76200000D01*
D52*
X116078000Y-81153000D02*
X116078000Y-83250000D01*
X111250000Y-76325000D02*
X116078000Y-81153000D01*
D54*
X107950000Y-70040000D02*
X107950000Y-72900000D01*
D53*
X107950000Y-70040000D02*
X107950000Y-74930000D01*
X107950000Y-74930000D02*
X105664000Y-77216000D01*
D55*
X135927500Y-130540000D02*
X135890000Y-130577500D01*
X139700000Y-130540000D02*
X135927500Y-130540000D01*
D56*
X111760000Y-94996000D02*
X111760000Y-95250000D01*
X107950000Y-98425000D02*
X107950000Y-101380000D01*
X125730000Y-89174999D02*
X125730000Y-88200000D01*
X118618000Y-88200000D02*
X118618000Y-93472000D01*
X117475000Y-93472000D02*
X121432999Y-93472000D01*
X111760000Y-95250000D02*
X111125000Y-95250000D01*
X121432999Y-93472000D02*
X125730000Y-89174999D01*
X117475000Y-93472000D02*
X113284000Y-93472000D01*
X111125000Y-95250000D02*
X107950000Y-98425000D01*
X113284000Y-93472000D02*
X111760000Y-94996000D01*
D52*
X123125000Y-88200000D02*
X123190000Y-88200000D01*
D55*
X110490000Y-119380000D02*
X106680000Y-123190000D01*
X128905000Y-91254892D02*
X122909892Y-97250000D01*
X99695000Y-127381000D02*
X100709000Y-128395000D01*
X106680000Y-123190000D02*
X100965000Y-123190000D01*
X99695000Y-124460000D02*
X99695000Y-127381000D01*
X127900999Y-84150999D02*
X127965999Y-84150999D01*
X111759999Y-128985000D02*
X106680000Y-128985000D01*
D52*
X119888000Y-84963000D02*
X123125000Y-88200000D01*
D55*
X122909892Y-105570108D02*
X110480000Y-118000000D01*
X127000000Y-83250000D02*
X127900999Y-84150999D01*
X112474999Y-128270000D02*
X111759999Y-128985000D01*
D52*
X124460000Y-88200000D02*
X124460000Y-86995000D01*
D55*
X122909892Y-97250000D02*
X122555000Y-97250000D01*
D52*
X123190000Y-88200000D02*
X124460000Y-88200000D01*
D55*
X100965000Y-123190000D02*
X99695000Y-124460000D01*
D52*
X119888000Y-83250000D02*
X119888000Y-84963000D01*
D55*
X116230000Y-128270000D02*
X112474999Y-128270000D01*
X114300000Y-97250000D02*
X111760000Y-97250000D01*
X122909892Y-97250000D02*
X122909892Y-105570108D01*
X110490000Y-119380000D02*
X110490000Y-120015000D01*
X106680000Y-128985000D02*
X103460000Y-128985000D01*
X103460000Y-128985000D02*
X102870000Y-128395000D01*
X122555000Y-97250000D02*
X114300000Y-97250000D01*
X127965999Y-84150999D02*
X128905000Y-85090000D01*
D52*
X127000000Y-84455000D02*
X127000000Y-83250000D01*
D55*
X128905000Y-85090000D02*
X128905000Y-91254892D01*
X100709000Y-128395000D02*
X102870000Y-128395000D01*
D52*
X124460000Y-86995000D02*
X127000000Y-84455000D01*
D51*
X100320000Y-90192000D02*
X96266000Y-86138000D01*
X100320000Y-102746000D02*
X100320000Y-90192000D01*
D56*
X115570000Y-90805000D02*
X113030000Y-90805000D01*
X127000000Y-88200000D02*
X127000000Y-90805000D01*
D51*
X96266000Y-82138000D02*
X105400000Y-91272000D01*
X105400000Y-91272000D02*
X105400000Y-102746000D01*
D56*
X122555000Y-95250000D02*
X114300000Y-95250000D01*
X113030000Y-90805000D02*
X105409999Y-98425001D01*
X120142000Y-90805000D02*
X119888000Y-90551000D01*
X105409999Y-98425001D02*
X105409999Y-101380000D01*
X119888000Y-90551000D02*
X119888000Y-88200000D01*
X127000000Y-90805000D02*
X122555000Y-95250000D01*
D52*
X151765000Y-86489999D02*
X150495000Y-85219999D01*
D53*
X155875000Y-81715000D02*
X153999999Y-81715000D01*
X153999999Y-81715000D02*
X150495000Y-85219999D01*
D52*
X151765000Y-99392499D02*
X151765000Y-86489999D01*
D53*
X145490000Y-118774999D02*
X148059999Y-116205000D01*
X164465000Y-121920000D02*
X166274999Y-121920000D01*
X158750000Y-116205000D02*
X164465000Y-121920000D01*
X148059999Y-116205000D02*
X158750000Y-116205000D01*
D57*
X170862501Y-121920000D02*
X173355000Y-124412499D01*
X173355000Y-128905000D02*
X171890000Y-130370000D01*
D53*
X166565000Y-132080000D02*
X168275000Y-130370000D01*
D57*
X173355000Y-124412499D02*
X173355000Y-128905000D01*
X170275001Y-121920000D02*
X170862501Y-121920000D01*
X171890000Y-130370000D02*
X168275000Y-130370000D01*
D53*
X155670001Y-132080000D02*
X166565000Y-132080000D01*
D52*
X128270000Y-70040000D02*
X128270000Y-74930000D01*
D58*
X131570000Y-78230000D02*
X131570000Y-77470000D01*
X129794000Y-98806000D02*
X137160000Y-91440000D01*
D55*
X151130000Y-122190000D02*
X152962500Y-122190000D01*
X148460000Y-122190000D02*
X151130000Y-122190000D01*
X147050000Y-124450000D02*
X147050000Y-123600000D01*
X155232500Y-124167500D02*
X156720000Y-122680000D01*
D52*
X123190000Y-80010000D02*
X123190000Y-83250000D01*
D51*
X141775000Y-100330000D02*
X140251000Y-101854000D01*
D54*
X128270000Y-70040000D02*
X128270000Y-74170000D01*
D58*
X159256000Y-122680000D02*
X160020000Y-122680000D01*
D55*
X152962500Y-122190000D02*
X154940000Y-124167500D01*
D58*
X129286000Y-98806000D02*
X129794000Y-98806000D01*
D52*
X128270000Y-74930000D02*
X123190000Y-80010000D01*
D54*
X128270000Y-74170000D02*
X131570000Y-77470000D01*
D51*
X140251000Y-101854000D02*
X136652000Y-101854000D01*
D58*
X155956000Y-119380000D02*
X159256000Y-122680000D01*
D55*
X147050000Y-123600000D02*
X148460000Y-122190000D01*
D58*
X137160000Y-83820000D02*
X131570000Y-78230000D01*
D55*
X156720000Y-122680000D02*
X160020000Y-122680000D01*
X154940000Y-124167500D02*
X155232500Y-124167500D01*
D58*
X137160000Y-91440000D02*
X137160000Y-83820000D01*
D51*
X97780000Y-89652000D02*
X96266000Y-88138000D01*
X97780000Y-102746000D02*
X97780000Y-89652000D01*
D59*
X133604000Y-112024000D02*
X133604000Y-108966000D01*
X139825000Y-106680000D02*
X135890000Y-106680000D01*
X135890000Y-106680000D02*
X135885000Y-106685000D01*
X133604000Y-108966000D02*
X135885000Y-106685000D01*
X135885000Y-114305000D02*
X133604000Y-112024000D01*
D53*
X111759999Y-125730000D02*
X106680000Y-125730000D01*
X149860000Y-91440000D02*
X142240000Y-83820000D01*
D51*
X172720000Y-100330000D02*
X173990000Y-99060000D01*
D55*
X156210000Y-107312500D02*
X156210000Y-107188000D01*
D51*
X178054000Y-99949000D02*
X178054000Y-104648000D01*
D52*
X134387500Y-128502500D02*
X133350000Y-129540000D01*
D55*
X125730000Y-83820000D02*
X123825000Y-85725000D01*
D56*
X116078000Y-87122000D02*
X116078000Y-88200000D01*
D55*
X125730000Y-83250000D02*
X125730000Y-83820000D01*
D52*
X149225000Y-128270000D02*
X151669999Y-130714999D01*
D55*
X130175000Y-113675000D02*
X130175000Y-126072500D01*
X130810000Y-109220000D02*
X130810000Y-106367500D01*
D57*
X142240000Y-97282000D02*
X139700000Y-99822000D01*
D53*
X119380000Y-122555000D02*
X116447500Y-125487500D01*
D52*
X151669999Y-132080000D02*
X151669999Y-130562501D01*
D55*
X139700000Y-100330000D02*
X132080000Y-100330000D01*
D56*
X118618000Y-84582000D02*
X117475000Y-85725000D01*
D51*
X169545000Y-99060000D02*
X164719000Y-103886000D01*
D55*
X130175000Y-126072500D02*
X130810000Y-126707500D01*
D53*
X135205000Y-126707500D02*
X135890000Y-126022500D01*
D51*
X171450000Y-99060000D02*
X169545000Y-99060000D01*
D53*
X116447500Y-125487500D02*
X116447500Y-125752500D01*
X153017500Y-100965000D02*
X152715000Y-101267500D01*
D55*
X128587500Y-104145000D02*
X128265000Y-104145000D01*
D52*
X145050000Y-128700000D02*
X145480000Y-128270000D01*
D53*
X113030000Y-119380000D02*
X111759999Y-120650001D01*
D51*
X177165000Y-99060000D02*
X178054000Y-99949000D01*
D57*
X142239999Y-83820000D02*
X142240000Y-83820001D01*
D52*
X133350000Y-132080000D02*
X134620000Y-133350000D01*
X136182500Y-133350000D02*
X150399999Y-133350000D01*
X134620000Y-133350000D02*
X136182500Y-133350000D01*
X133350000Y-129540000D02*
X133350000Y-132080000D01*
X151669999Y-130562501D02*
X154940000Y-127292500D01*
D56*
X117475000Y-85725000D02*
X116078000Y-87122000D01*
D52*
X135890000Y-128502500D02*
X134387500Y-128502500D01*
D55*
X128265000Y-111765000D02*
X130810000Y-109220000D01*
D53*
X135890000Y-126022500D02*
X135890000Y-128502500D01*
D55*
X132080000Y-100330000D02*
X128265000Y-104145000D01*
D56*
X117348000Y-85852000D02*
X117348000Y-88200000D01*
X118618000Y-83250000D02*
X118618000Y-84582000D01*
D55*
X130810000Y-106367500D02*
X128587500Y-104145000D01*
D51*
X164719000Y-103886000D02*
X164322000Y-103886000D01*
D53*
X103460000Y-125730000D02*
X102870000Y-126320000D01*
X106680000Y-125730000D02*
X103460000Y-125730000D01*
D57*
X142240000Y-83820001D02*
X142240000Y-97282000D01*
D52*
X151669999Y-130714999D02*
X151669999Y-132080000D01*
D51*
X172720000Y-100330000D02*
X171450000Y-99060000D01*
D52*
X145050000Y-129550000D02*
X145050000Y-128700000D01*
D53*
X111759999Y-120650001D02*
X111759999Y-125730000D01*
X149860000Y-98425000D02*
X149860000Y-91440000D01*
X142240000Y-83820000D02*
X142239999Y-83820000D01*
X116230000Y-125970000D02*
X111999999Y-125970000D01*
D56*
X117475000Y-85725000D02*
X117348000Y-85852000D01*
D51*
X173990000Y-99060000D02*
X177165000Y-99060000D01*
D53*
X123592500Y-122555000D02*
X119380000Y-122555000D01*
D52*
X145480000Y-128270000D02*
X149225000Y-128270000D01*
D53*
X156207500Y-107315000D02*
X156210000Y-107312500D01*
X116447500Y-125752500D02*
X116230000Y-125970000D01*
D57*
X139700000Y-99822000D02*
X139700000Y-100330000D01*
D55*
X128265000Y-111765000D02*
X130175000Y-113675000D01*
X156210000Y-107188000D02*
X157988000Y-105410000D01*
D53*
X153670000Y-100965000D02*
X153017500Y-100965000D01*
X129832500Y-125730000D02*
X126767500Y-125730000D01*
X111999999Y-125970000D02*
X111759999Y-125730000D01*
X130810000Y-126707500D02*
X135205000Y-126707500D01*
D52*
X150399999Y-133350000D02*
X151669999Y-132080000D01*
D53*
X130810000Y-126707500D02*
X129832500Y-125730000D01*
X126767500Y-125730000D02*
X123592500Y-122555000D01*
D57*
X162120000Y-126170000D02*
X168275000Y-126170000D01*
X160020000Y-128780000D02*
X160020000Y-128270000D01*
D51*
X146050000Y-125300000D02*
X146480000Y-125730000D01*
X156970000Y-125730000D02*
X160020000Y-128780000D01*
D57*
X160020000Y-128270000D02*
X162120000Y-126170000D01*
D51*
X146480000Y-125730000D02*
X156970000Y-125730000D01*
X146050000Y-124450000D02*
X146050000Y-125300000D01*
X144540000Y-120650000D02*
X144050000Y-121140000D01*
X144050000Y-121140000D02*
X144050000Y-124450000D01*
X160528000Y-101092000D02*
X159512000Y-102108000D01*
X148082000Y-97282000D02*
X148082000Y-98534500D01*
X162306000Y-101092000D02*
X160528000Y-101092000D01*
X148082000Y-98534500D02*
X150815000Y-101267500D01*
X148050000Y-124450000D02*
X150870000Y-124450000D01*
X150870000Y-124450000D02*
X151130000Y-124190000D01*
X147320000Y-132080000D02*
X148050000Y-131350000D01*
X143240000Y-132080000D02*
X147320000Y-132080000D01*
X148050000Y-131350000D02*
X148050000Y-129550000D01*
X139700000Y-128540000D02*
X143240000Y-132080000D01*
X156464000Y-103886000D02*
X162322000Y-103886000D01*
X162322000Y-103886000D02*
X162322000Y-103713499D01*
X155220001Y-111125000D02*
X154305000Y-110209999D01*
X156207500Y-111125000D02*
X155220001Y-111125000D01*
X154305000Y-106045000D02*
X156464000Y-103886000D01*
X162322000Y-103886000D02*
X162322000Y-106426000D01*
X164306000Y-101729499D02*
X164306000Y-101092000D01*
X154305000Y-110209999D02*
X154305000Y-106045000D01*
X162322000Y-103713499D02*
X164306000Y-101729499D01*
X161941000Y-108585000D02*
X162322000Y-108966000D01*
X156207500Y-108585000D02*
X161941000Y-108585000D01*
X160671000Y-109855000D02*
X162322000Y-111506000D01*
X156207500Y-109855000D02*
X160671000Y-109855000D01*
D59*
X137160000Y-102870000D02*
X135885000Y-104145000D01*
X146050000Y-129550000D02*
X146050000Y-130810000D01*
X139862500Y-102870000D02*
X137160000Y-102870000D01*
X139220000Y-110998000D02*
X139728000Y-110490000D01*
X147050000Y-130540000D02*
X147320000Y-130810000D01*
X138966000Y-110998000D02*
X139220000Y-110998000D01*
X138199000Y-111765000D02*
X138966000Y-110998000D01*
X135885000Y-111765000D02*
X138199000Y-111765000D01*
X147050000Y-129550000D02*
X147050000Y-130540000D01*
D54*
X163830000Y-70040000D02*
X163830000Y-77860000D01*
D53*
X149860000Y-111125000D02*
X148590000Y-109855000D01*
D55*
X119380000Y-127952500D02*
X116762500Y-130570000D01*
D53*
X148590000Y-109855000D02*
X148590000Y-106045000D01*
D54*
X175260000Y-87630000D02*
X173790000Y-87630000D01*
D53*
X161925000Y-79765000D02*
X159630000Y-77470000D01*
X150495000Y-111125000D02*
X151132500Y-111125000D01*
D55*
X130810000Y-129832500D02*
X127927500Y-129832500D01*
D53*
X154940000Y-103505000D02*
X161925000Y-96520000D01*
D54*
X163830000Y-77860000D02*
X161925000Y-79765000D01*
D55*
X123698000Y-124968000D02*
X120650000Y-124968000D01*
X119380000Y-126238000D02*
X119380000Y-127952500D01*
X127000000Y-128037500D02*
X126767500Y-128037500D01*
D54*
X173790000Y-87630000D02*
X167875000Y-81715000D01*
D53*
X151132500Y-111125000D02*
X149860000Y-111125000D01*
D54*
X175260000Y-87630000D02*
X178120000Y-87630000D01*
D53*
X159630000Y-77470000D02*
X153670000Y-77470000D01*
D55*
X127927500Y-129832500D02*
X127000000Y-128905000D01*
D53*
X148590000Y-106045000D02*
X151130000Y-103505000D01*
X150495000Y-80645000D02*
X150495000Y-82420001D01*
X131445000Y-130467500D02*
X130810000Y-129832500D01*
D55*
X120650000Y-124968000D02*
X119380000Y-126238000D01*
X116762500Y-130570000D02*
X116230000Y-130570000D01*
X126767500Y-128037500D02*
X123698000Y-124968000D01*
D53*
X131445000Y-132080000D02*
X131445000Y-130467500D01*
X146050000Y-115570000D02*
X150495000Y-111125000D01*
D54*
X164020000Y-77860000D02*
X167875000Y-81715000D01*
D53*
X151130000Y-103505000D02*
X154940000Y-103505000D01*
D55*
X127000000Y-128905000D02*
X127000000Y-128037500D01*
D53*
X153670000Y-77470000D02*
X150495000Y-80645000D01*
X161925000Y-96520000D02*
X161925000Y-79765000D01*
D60*
X163830000Y-77860000D02*
X164020000Y-77860000D01*
D53*
X144780000Y-93915000D02*
X144780000Y-105410000D01*
D56*
X141650000Y-106680000D02*
X142920000Y-105410000D01*
D52*
X117348000Y-78742000D02*
X118620000Y-77470000D01*
D53*
X135890000Y-120650000D02*
X135890000Y-122897500D01*
X144780000Y-113284000D02*
X144780000Y-105410000D01*
D54*
X117350000Y-76200000D02*
X118620000Y-77470000D01*
D56*
X139700000Y-123422500D02*
X136415000Y-123422500D01*
D53*
X135890000Y-120650000D02*
X137414000Y-120650000D01*
D51*
X142007500Y-125730000D02*
X139700000Y-123422500D01*
X145050000Y-124450000D02*
X145050000Y-124957000D01*
D54*
X118620000Y-77470000D02*
X121285000Y-77470000D01*
D51*
X145050000Y-124450000D02*
X145050000Y-123555000D01*
X145050000Y-124957000D02*
X144277000Y-125730000D01*
D52*
X117348000Y-83250000D02*
X117348000Y-78742000D01*
D56*
X139737500Y-113543500D02*
X139737500Y-116115500D01*
D51*
X146440000Y-122165000D02*
X146440000Y-120650000D01*
D56*
X139732000Y-113538000D02*
X139737500Y-113543500D01*
D53*
X137414000Y-120650000D02*
X140843000Y-117221000D01*
D56*
X136415000Y-123422500D02*
X135890000Y-122897500D01*
D51*
X145050000Y-123555000D02*
X146440000Y-122165000D01*
D56*
X139737500Y-116115500D02*
X140843000Y-117221000D01*
D51*
X144277000Y-125730000D02*
X142007500Y-125730000D01*
D53*
X146440000Y-120650000D02*
X147955000Y-120650000D01*
D56*
X142920000Y-105410000D02*
X144780000Y-105410000D01*
D53*
X140843000Y-117221000D02*
X144780000Y-113284000D01*
D54*
X137670000Y-77470000D02*
X141605000Y-77470000D01*
D52*
X124460000Y-80370001D02*
X125455001Y-79375000D01*
X127635000Y-79375000D02*
X128270000Y-79375000D01*
X125455001Y-79375000D02*
X127635000Y-79375000D01*
X124460000Y-83250000D02*
X124460000Y-80370001D01*
D59*
X141612500Y-102870000D02*
X140809251Y-103673249D01*
X141612500Y-112905000D02*
X141732000Y-113024500D01*
X141612500Y-109862500D02*
X141612500Y-112905000D01*
X140809251Y-103673249D02*
X140809251Y-109059251D01*
X140809251Y-109059251D02*
X141612500Y-109862500D01*
X141732000Y-113024500D02*
X141732000Y-113538000D01*
D51*
X164322000Y-106426000D02*
X164450999Y-106426000D01*
X164450999Y-106426000D02*
X168641999Y-102235000D01*
X172564998Y-102235000D02*
X174469998Y-100330000D01*
X168641999Y-102235000D02*
X172564998Y-102235000D01*
X169656000Y-116840000D02*
X164322000Y-111506000D01*
X176530000Y-116840000D02*
X169656000Y-116840000D01*
X178054000Y-118364000D02*
X176530000Y-116840000D01*
X177800000Y-109982000D02*
X165338000Y-109982000D01*
D52*
X139700000Y-97028000D02*
X139700000Y-83820000D01*
D51*
X165338000Y-109982000D02*
X164322000Y-108966000D01*
%TA.AperFunction,Conductor*%
G36*
X182948539Y-57162185D02*
G01*
X182994294Y-57214989D01*
X183005500Y-57266500D01*
X183005500Y-66526584D01*
X182985815Y-66593623D01*
X182933011Y-66639378D01*
X182880546Y-66650580D01*
X103505000Y-66039999D01*
X103505000Y-74295000D01*
X105177637Y-76119696D01*
X105180427Y-76125379D01*
X105185497Y-76129175D01*
X105195638Y-76156365D01*
X105208427Y-76182416D01*
X105207701Y-76188707D01*
X105209914Y-76194640D01*
X105203745Y-76222993D01*
X105200420Y-76251825D01*
X105196069Y-76258281D01*
X105195062Y-76262913D01*
X105173912Y-76291167D01*
X105026221Y-76438858D01*
X105026220Y-76438858D01*
X105026219Y-76438859D01*
X105026218Y-76438861D01*
X104981278Y-76483801D01*
X104886859Y-76578219D01*
X104777371Y-76742079D01*
X104777364Y-76742092D01*
X104701950Y-76924160D01*
X104701947Y-76924170D01*
X104663500Y-77117456D01*
X104663500Y-81302342D01*
X104643815Y-81369381D01*
X104639818Y-81375228D01*
X104620135Y-81402318D01*
X104532916Y-81573493D01*
X104473553Y-81756197D01*
X104465424Y-81807523D01*
X104443500Y-81945945D01*
X104443500Y-82138055D01*
X104447705Y-82164602D01*
X104473553Y-82327802D01*
X104532916Y-82510506D01*
X104567465Y-82578311D01*
X104620135Y-82681681D01*
X104733055Y-82837102D01*
X104868898Y-82972945D01*
X105024319Y-83085865D01*
X105174970Y-83162626D01*
X105195493Y-83173083D01*
X105286845Y-83202764D01*
X105378199Y-83232447D01*
X105567945Y-83262500D01*
X105567946Y-83262500D01*
X105760054Y-83262500D01*
X105760055Y-83262500D01*
X105949801Y-83232447D01*
X106132509Y-83173082D01*
X106303681Y-83085865D01*
X106459102Y-82972945D01*
X106594945Y-82837102D01*
X106707865Y-82681681D01*
X106795082Y-82510509D01*
X106795143Y-82510322D01*
X106816069Y-82445919D01*
X106855506Y-82388243D01*
X106919864Y-82361044D01*
X106988711Y-82372958D01*
X107040187Y-82420202D01*
X107051931Y-82445919D01*
X107072915Y-82510504D01*
X107098363Y-82560447D01*
X107160135Y-82681681D01*
X107273055Y-82837102D01*
X107408898Y-82972945D01*
X107564319Y-83085865D01*
X107714970Y-83162626D01*
X107735493Y-83173083D01*
X107826845Y-83202764D01*
X107918199Y-83232447D01*
X108107945Y-83262500D01*
X108107946Y-83262500D01*
X108300054Y-83262500D01*
X108300055Y-83262500D01*
X108489801Y-83232447D01*
X108672509Y-83173082D01*
X108843681Y-83085865D01*
X108999102Y-82972945D01*
X109134945Y-82837102D01*
X109247865Y-82681681D01*
X109335082Y-82510509D01*
X109356331Y-82445108D01*
X109395767Y-82387435D01*
X109460125Y-82360236D01*
X109528971Y-82372149D01*
X109580448Y-82419392D01*
X109592193Y-82445107D01*
X109613383Y-82510322D01*
X109700560Y-82681415D01*
X109721797Y-82710646D01*
X110343999Y-82088444D01*
X110343999Y-82094661D01*
X110371258Y-82196394D01*
X110423919Y-82287606D01*
X110498393Y-82362080D01*
X110589605Y-82414741D01*
X110691338Y-82442000D01*
X110697551Y-82442000D01*
X110075350Y-83064200D01*
X110075351Y-83064201D01*
X110104576Y-83085434D01*
X110275677Y-83172616D01*
X110458314Y-83231959D01*
X110647984Y-83262000D01*
X110840014Y-83262000D01*
X111029683Y-83231959D01*
X111212320Y-83172616D01*
X111383410Y-83085440D01*
X111383418Y-83085435D01*
X111401627Y-83072206D01*
X111467433Y-83048725D01*
X111535487Y-83064549D01*
X111565921Y-83088733D01*
X115262688Y-87121569D01*
X115293478Y-87184289D01*
X115290358Y-87239951D01*
X115280901Y-87272502D01*
X115280899Y-87272515D01*
X115278000Y-87309350D01*
X115278000Y-87950000D01*
X116022083Y-87950000D01*
X116480417Y-88450000D01*
X116328000Y-88450000D01*
X116328000Y-89672295D01*
X116328001Y-89672295D01*
X116330486Y-89672100D01*
X116488198Y-89626281D01*
X116629552Y-89542685D01*
X116635722Y-89537900D01*
X116637546Y-89540252D01*
X116686595Y-89513445D01*
X116756288Y-89518402D01*
X116789063Y-89539465D01*
X116790278Y-89537900D01*
X116796447Y-89542685D01*
X116937801Y-89626281D01*
X117095514Y-89672100D01*
X117095511Y-89672100D01*
X117097998Y-89672295D01*
X117098000Y-89672295D01*
X117098000Y-89123727D01*
X117598000Y-89669181D01*
X117598000Y-89672296D01*
X117612935Y-89686102D01*
X117620166Y-89693363D01*
X117884908Y-89982172D01*
X117915697Y-90044890D01*
X117917500Y-90065960D01*
X117917500Y-92647500D01*
X117897815Y-92714539D01*
X117845011Y-92760294D01*
X117793500Y-92771500D01*
X113215004Y-92771500D01*
X113107781Y-92792827D01*
X113107782Y-92792828D01*
X113079677Y-92798418D01*
X113079668Y-92798421D01*
X113046870Y-92812006D01*
X113046863Y-92812009D01*
X113040851Y-92814500D01*
X112952189Y-92851225D01*
X112859113Y-92913417D01*
X112854396Y-92916569D01*
X112837454Y-92927888D01*
X112837453Y-92927889D01*
X111652160Y-94113181D01*
X111590837Y-94146666D01*
X111564479Y-94149500D01*
X111259999Y-94149500D01*
X111259980Y-94149501D01*
X111157203Y-94160000D01*
X111157200Y-94160001D01*
X110990668Y-94215185D01*
X110990659Y-94215189D01*
X110901422Y-94270231D01*
X110834029Y-94288671D01*
X110767366Y-94267748D01*
X110722597Y-94214106D01*
X110713936Y-94144775D01*
X110744133Y-94081768D01*
X110748626Y-94077030D01*
X113283838Y-91541819D01*
X113345161Y-91508334D01*
X113371519Y-91505500D01*
X115144684Y-91505500D01*
X115192136Y-91514939D01*
X115296318Y-91558092D01*
X115336503Y-91574737D01*
X115491153Y-91605499D01*
X115491156Y-91605500D01*
X115491158Y-91605500D01*
X115648844Y-91605500D01*
X115648845Y-91605499D01*
X115803497Y-91574737D01*
X115949179Y-91514394D01*
X116080289Y-91426789D01*
X116191789Y-91315289D01*
X116279394Y-91184179D01*
X116339737Y-91038497D01*
X116370500Y-90883842D01*
X116370500Y-90726158D01*
X116370500Y-90726155D01*
X116370499Y-90726153D01*
X116339737Y-90571503D01*
X116304507Y-90486450D01*
X116279397Y-90425827D01*
X116279390Y-90425814D01*
X116191789Y-90294711D01*
X116191786Y-90294707D01*
X116080292Y-90183213D01*
X116080288Y-90183210D01*
X115949185Y-90095609D01*
X115949172Y-90095602D01*
X115803501Y-90035264D01*
X115803489Y-90035261D01*
X115648845Y-90004500D01*
X115648842Y-90004500D01*
X115491158Y-90004500D01*
X115491155Y-90004500D01*
X115336510Y-90035261D01*
X115336498Y-90035264D01*
X115192136Y-90095061D01*
X115144684Y-90104500D01*
X112961004Y-90104500D01*
X112825677Y-90131418D01*
X112825667Y-90131421D01*
X112698192Y-90184222D01*
X112583454Y-90260887D01*
X112583453Y-90260888D01*
X106262181Y-96582161D01*
X106200858Y-96615646D01*
X106131166Y-96610662D01*
X106075233Y-96568790D01*
X106050816Y-96503326D01*
X106050500Y-96494480D01*
X106050500Y-91207928D01*
X106025502Y-91082261D01*
X106025501Y-91082260D01*
X106025501Y-91082256D01*
X105976465Y-90963873D01*
X105905277Y-90857331D01*
X105905275Y-90857329D01*
X105905273Y-90857326D01*
X104138596Y-89090649D01*
X115278000Y-89090649D01*
X115280899Y-89127489D01*
X115280900Y-89127495D01*
X115326716Y-89285193D01*
X115326717Y-89285196D01*
X115410314Y-89426552D01*
X115410321Y-89426561D01*
X115526438Y-89542678D01*
X115526447Y-89542685D01*
X115667801Y-89626281D01*
X115825514Y-89672100D01*
X115825511Y-89672100D01*
X115827998Y-89672295D01*
X115828000Y-89672295D01*
X115828000Y-88450000D01*
X115278000Y-88450000D01*
X115278000Y-89090649D01*
X104138596Y-89090649D01*
X103534266Y-88486319D01*
X97626257Y-82578311D01*
X97592772Y-82516988D01*
X97596006Y-82452314D01*
X97614402Y-82395701D01*
X97641500Y-82224611D01*
X97641500Y-82051389D01*
X97614402Y-81880299D01*
X97560873Y-81715555D01*
X97482232Y-81561212D01*
X97380414Y-81421072D01*
X97257928Y-81298586D01*
X97174975Y-81238317D01*
X97132311Y-81182988D01*
X97126332Y-81113374D01*
X97158938Y-81051579D01*
X97174976Y-81037682D01*
X97257928Y-80977414D01*
X97380414Y-80854928D01*
X97482232Y-80714788D01*
X97560873Y-80560445D01*
X97614402Y-80395701D01*
X97641500Y-80224611D01*
X97641500Y-80051389D01*
X97614402Y-79880299D01*
X97560873Y-79715555D01*
X97482232Y-79561212D01*
X97380414Y-79421072D01*
X97272508Y-79313166D01*
X97239023Y-79251843D01*
X97244007Y-79182151D01*
X97285879Y-79126218D01*
X97295094Y-79119945D01*
X97359345Y-79080315D01*
X97483315Y-78956345D01*
X97575356Y-78807124D01*
X97575358Y-78807119D01*
X97630505Y-78640697D01*
X97630506Y-78640690D01*
X97640999Y-78537986D01*
X97641000Y-78537973D01*
X97641000Y-78388000D01*
X96546330Y-78388000D01*
X96566075Y-78368255D01*
X96615444Y-78282745D01*
X96641000Y-78187370D01*
X96641000Y-78088630D01*
X96615444Y-77993255D01*
X96566075Y-77907745D01*
X96546330Y-77888000D01*
X97640999Y-77888000D01*
X97640999Y-77738028D01*
X97640998Y-77738013D01*
X97630505Y-77635302D01*
X97575358Y-77468880D01*
X97575356Y-77468875D01*
X97483315Y-77319654D01*
X97359345Y-77195684D01*
X97210124Y-77103643D01*
X97210119Y-77103641D01*
X97043697Y-77048494D01*
X97043690Y-77048493D01*
X96940986Y-77038000D01*
X96516000Y-77038000D01*
X96516000Y-77857670D01*
X96496255Y-77837925D01*
X96410745Y-77788556D01*
X96315370Y-77763000D01*
X96216630Y-77763000D01*
X96121255Y-77788556D01*
X96035745Y-77837925D01*
X96016000Y-77857670D01*
X96016000Y-77038000D01*
X95591028Y-77038000D01*
X95591012Y-77038001D01*
X95488302Y-77048494D01*
X95321880Y-77103641D01*
X95321875Y-77103643D01*
X95172654Y-77195684D01*
X95048684Y-77319654D01*
X94956643Y-77468875D01*
X94956641Y-77468880D01*
X94901494Y-77635302D01*
X94901493Y-77635309D01*
X94891000Y-77738013D01*
X94891000Y-77888000D01*
X95985670Y-77888000D01*
X95965925Y-77907745D01*
X95916556Y-77993255D01*
X95891000Y-78088630D01*
X95891000Y-78187370D01*
X95916556Y-78282745D01*
X95965925Y-78368255D01*
X95985670Y-78388000D01*
X94891001Y-78388000D01*
X94891001Y-78537986D01*
X94901494Y-78640697D01*
X94956641Y-78807119D01*
X94956643Y-78807124D01*
X95048684Y-78956345D01*
X95172656Y-79080317D01*
X95236906Y-79119946D01*
X95283631Y-79171893D01*
X95294854Y-79240856D01*
X95267011Y-79304938D01*
X95259492Y-79313166D01*
X95151585Y-79421073D01*
X95049768Y-79561211D01*
X94971128Y-79715552D01*
X94917597Y-79880302D01*
X94899518Y-79994452D01*
X94890500Y-80051389D01*
X94890500Y-80224611D01*
X94917598Y-80395701D01*
X94971127Y-80560445D01*
X95049768Y-80714788D01*
X95151586Y-80854928D01*
X95274072Y-80977414D01*
X95274078Y-80977418D01*
X95357023Y-81037683D01*
X95399689Y-81093013D01*
X95405667Y-81162626D01*
X95373061Y-81224421D01*
X95357023Y-81238317D01*
X95274078Y-81298581D01*
X95274069Y-81298588D01*
X95151588Y-81421069D01*
X95151588Y-81421070D01*
X95151586Y-81421072D01*
X95120493Y-81463868D01*
X95049768Y-81561211D01*
X94971128Y-81715552D01*
X94917597Y-81880302D01*
X94890500Y-82051389D01*
X94890500Y-82224610D01*
X94916416Y-82388243D01*
X94917598Y-82395701D01*
X94971127Y-82560445D01*
X95049768Y-82714788D01*
X95151586Y-82854928D01*
X95274072Y-82977414D01*
X95274078Y-82977418D01*
X95357023Y-83037683D01*
X95399689Y-83093013D01*
X95405667Y-83162626D01*
X95373061Y-83224421D01*
X95357023Y-83238317D01*
X95274078Y-83298581D01*
X95274069Y-83298588D01*
X95151588Y-83421069D01*
X95151588Y-83421070D01*
X95151586Y-83421072D01*
X95141069Y-83435548D01*
X95049768Y-83561211D01*
X94971128Y-83715552D01*
X94917597Y-83880302D01*
X94890500Y-84051389D01*
X94890500Y-84224611D01*
X94917598Y-84395701D01*
X94971127Y-84560445D01*
X95049768Y-84714788D01*
X95151586Y-84854928D01*
X95274072Y-84977414D01*
X95274078Y-84977418D01*
X95357023Y-85037683D01*
X95399689Y-85093013D01*
X95405667Y-85162626D01*
X95373061Y-85224421D01*
X95357023Y-85238317D01*
X95274078Y-85298581D01*
X95274069Y-85298588D01*
X95151588Y-85421069D01*
X95151588Y-85421070D01*
X95151586Y-85421072D01*
X95136171Y-85442289D01*
X95049768Y-85561211D01*
X94971128Y-85715552D01*
X94917597Y-85880302D01*
X94890500Y-86051389D01*
X94890500Y-86224610D01*
X94916756Y-86390388D01*
X94917598Y-86395701D01*
X94971127Y-86560445D01*
X95049768Y-86714788D01*
X95151586Y-86854928D01*
X95274072Y-86977414D01*
X95274078Y-86977418D01*
X95357023Y-87037683D01*
X95399689Y-87093013D01*
X95405667Y-87162626D01*
X95373061Y-87224421D01*
X95357023Y-87238317D01*
X95274078Y-87298581D01*
X95274069Y-87298588D01*
X95151588Y-87421069D01*
X95151588Y-87421070D01*
X95151586Y-87421072D01*
X95108965Y-87479734D01*
X95049768Y-87561211D01*
X94971128Y-87715552D01*
X94917597Y-87880302D01*
X94909902Y-87928887D01*
X94890500Y-88051389D01*
X94890500Y-88224611D01*
X94917598Y-88395701D01*
X94971127Y-88560445D01*
X95049768Y-88714788D01*
X95151586Y-88854928D01*
X95274072Y-88977414D01*
X95414212Y-89079232D01*
X95568555Y-89157873D01*
X95733299Y-89211402D01*
X95904389Y-89238500D01*
X96395192Y-89238500D01*
X96462231Y-89258185D01*
X96482873Y-89274819D01*
X97093181Y-89885127D01*
X97126666Y-89946450D01*
X97129500Y-89972808D01*
X97129500Y-99588747D01*
X97109815Y-99655786D01*
X97060595Y-99699835D01*
X96931453Y-99763883D01*
X96782010Y-99884009D01*
X96782009Y-99884010D01*
X96661883Y-100033453D01*
X96661881Y-100033456D01*
X96576694Y-100205221D01*
X96530419Y-100391291D01*
X96527500Y-100434345D01*
X96527500Y-102325656D01*
X96527501Y-102325659D01*
X96530418Y-102368702D01*
X96550762Y-102450508D01*
X96552900Y-102499830D01*
X96529500Y-102647577D01*
X96529500Y-102844422D01*
X96560290Y-103038826D01*
X96621117Y-103226029D01*
X96702633Y-103386013D01*
X96710476Y-103401405D01*
X96826172Y-103560646D01*
X96965354Y-103699828D01*
X97124595Y-103815524D01*
X97183423Y-103845498D01*
X97299970Y-103904882D01*
X97299972Y-103904882D01*
X97299975Y-103904884D01*
X97375750Y-103929505D01*
X97487173Y-103965709D01*
X97681578Y-103996500D01*
X97681583Y-103996500D01*
X97878422Y-103996500D01*
X98072826Y-103965709D01*
X98260025Y-103904884D01*
X98435405Y-103815524D01*
X98594646Y-103699828D01*
X98733828Y-103560646D01*
X98849524Y-103401405D01*
X98938884Y-103226025D01*
X98939515Y-103224787D01*
X98987489Y-103173990D01*
X99055310Y-103157195D01*
X99121445Y-103179732D01*
X99160485Y-103224787D01*
X99250474Y-103401403D01*
X99285234Y-103449246D01*
X99366172Y-103560646D01*
X99505354Y-103699828D01*
X99664595Y-103815524D01*
X99723423Y-103845498D01*
X99839970Y-103904882D01*
X99839972Y-103904882D01*
X99839975Y-103904884D01*
X99915750Y-103929505D01*
X100027173Y-103965709D01*
X100221578Y-103996500D01*
X100221583Y-103996500D01*
X100418422Y-103996500D01*
X100612826Y-103965709D01*
X100800025Y-103904884D01*
X100975405Y-103815524D01*
X101134646Y-103699828D01*
X101273828Y-103560646D01*
X101389524Y-103401405D01*
X101478884Y-103226025D01*
X101479515Y-103224787D01*
X101527489Y-103173990D01*
X101595310Y-103157195D01*
X101661445Y-103179732D01*
X101700485Y-103224787D01*
X101790474Y-103401403D01*
X101825234Y-103449246D01*
X101906172Y-103560646D01*
X102045354Y-103699828D01*
X102204595Y-103815524D01*
X102263423Y-103845498D01*
X102379970Y-103904882D01*
X102379972Y-103904882D01*
X102379975Y-103904884D01*
X102455750Y-103929505D01*
X102567173Y-103965709D01*
X102761578Y-103996500D01*
X102761583Y-103996500D01*
X102958422Y-103996500D01*
X103152826Y-103965709D01*
X103340025Y-103904884D01*
X103515405Y-103815524D01*
X103674646Y-103699828D01*
X103813828Y-103560646D01*
X103929524Y-103401405D01*
X104018884Y-103226025D01*
X104019515Y-103224787D01*
X104067489Y-103173990D01*
X104135310Y-103157195D01*
X104201445Y-103179732D01*
X104240485Y-103224787D01*
X104330474Y-103401403D01*
X104365234Y-103449246D01*
X104446172Y-103560646D01*
X104585354Y-103699828D01*
X104744595Y-103815524D01*
X104803423Y-103845498D01*
X104919970Y-103904882D01*
X104919972Y-103904882D01*
X104919975Y-103904884D01*
X104995750Y-103929505D01*
X105107173Y-103965709D01*
X105301578Y-103996500D01*
X105301583Y-103996500D01*
X105498422Y-103996500D01*
X105692826Y-103965709D01*
X105880025Y-103904884D01*
X106055405Y-103815524D01*
X106214646Y-103699828D01*
X106353828Y-103560646D01*
X106469524Y-103401405D01*
X106558884Y-103226025D01*
X106559515Y-103224787D01*
X106607489Y-103173990D01*
X106675310Y-103157195D01*
X106741445Y-103179732D01*
X106780485Y-103224787D01*
X106870474Y-103401403D01*
X106905234Y-103449246D01*
X106986172Y-103560646D01*
X107125354Y-103699828D01*
X107284595Y-103815524D01*
X107343423Y-103845498D01*
X107459970Y-103904882D01*
X107459972Y-103904882D01*
X107459975Y-103904884D01*
X107535750Y-103929505D01*
X107647173Y-103965709D01*
X107841578Y-103996500D01*
X107841583Y-103996500D01*
X108038422Y-103996500D01*
X108232826Y-103965709D01*
X108420025Y-103904884D01*
X108595405Y-103815524D01*
X108754646Y-103699828D01*
X108893828Y-103560646D01*
X109009524Y-103401405D01*
X109098884Y-103226025D01*
X109099515Y-103224787D01*
X109147489Y-103173990D01*
X109215310Y-103157195D01*
X109281445Y-103179732D01*
X109320485Y-103224787D01*
X109410474Y-103401403D01*
X109445234Y-103449246D01*
X109526172Y-103560646D01*
X109665354Y-103699828D01*
X109824595Y-103815524D01*
X109883423Y-103845498D01*
X109999970Y-103904882D01*
X109999972Y-103904882D01*
X109999975Y-103904884D01*
X110075750Y-103929505D01*
X110187173Y-103965709D01*
X110381578Y-103996500D01*
X110381583Y-103996500D01*
X110578422Y-103996500D01*
X110772826Y-103965709D01*
X110960025Y-103904884D01*
X111135405Y-103815524D01*
X111294646Y-103699828D01*
X111433828Y-103560646D01*
X111549524Y-103401405D01*
X111638884Y-103226025D01*
X111639515Y-103224787D01*
X111687489Y-103173990D01*
X111755310Y-103157195D01*
X111821445Y-103179732D01*
X111860485Y-103224787D01*
X111950474Y-103401403D01*
X111985234Y-103449246D01*
X112066172Y-103560646D01*
X112205354Y-103699828D01*
X112364595Y-103815524D01*
X112423423Y-103845498D01*
X112539970Y-103904882D01*
X112539972Y-103904882D01*
X112539975Y-103904884D01*
X112615750Y-103929505D01*
X112727173Y-103965709D01*
X112921578Y-103996500D01*
X112921583Y-103996500D01*
X113118422Y-103996500D01*
X113312826Y-103965709D01*
X113500025Y-103904884D01*
X113675405Y-103815524D01*
X113834646Y-103699828D01*
X113973828Y-103560646D01*
X114089524Y-103401405D01*
X114176153Y-103231385D01*
X114224127Y-103180588D01*
X114291948Y-103163793D01*
X114358083Y-103186330D01*
X114397952Y-103236168D01*
X114398904Y-103235684D01*
X114475500Y-103386013D01*
X114490476Y-103415405D01*
X114606172Y-103574646D01*
X114745354Y-103713828D01*
X114904595Y-103829524D01*
X114974580Y-103865183D01*
X115079970Y-103918882D01*
X115079972Y-103918882D01*
X115079975Y-103918884D01*
X115142861Y-103939317D01*
X115267173Y-103979709D01*
X115461578Y-104010500D01*
X115461583Y-104010500D01*
X115658422Y-104010500D01*
X115852826Y-103979709D01*
X115895913Y-103965709D01*
X116040025Y-103918884D01*
X116041786Y-103917987D01*
X116064709Y-103906307D01*
X116215405Y-103829524D01*
X116374646Y-103713828D01*
X116513828Y-103574646D01*
X116629524Y-103415405D01*
X116718884Y-103240025D01*
X116779709Y-103052826D01*
X116782826Y-103033147D01*
X116810500Y-102858422D01*
X116810500Y-102661578D01*
X116801706Y-102606062D01*
X116793525Y-102554407D01*
X116795664Y-102505085D01*
X116795810Y-102504500D01*
X116829581Y-102368704D01*
X116832500Y-102325657D01*
X116832499Y-100434344D01*
X116829581Y-100391296D01*
X116783307Y-100205225D01*
X116769029Y-100176436D01*
X116698118Y-100033456D01*
X116698116Y-100033453D01*
X116577990Y-99884010D01*
X116577989Y-99884009D01*
X116428546Y-99763883D01*
X116428543Y-99763881D01*
X116256778Y-99678694D01*
X116256776Y-99678693D01*
X116256775Y-99678693D01*
X116210497Y-99667184D01*
X116070708Y-99632419D01*
X116046105Y-99630751D01*
X116027657Y-99629500D01*
X116027654Y-99629500D01*
X115112343Y-99629500D01*
X115112340Y-99629501D01*
X115069298Y-99632418D01*
X115069297Y-99632418D01*
X114883221Y-99678694D01*
X114711456Y-99763881D01*
X114711453Y-99763883D01*
X114562010Y-99884009D01*
X114562009Y-99884010D01*
X114441883Y-100033453D01*
X114411088Y-100095547D01*
X114363667Y-100146859D01*
X114296032Y-100164388D01*
X114229657Y-100142569D01*
X114188912Y-100095547D01*
X114158116Y-100033453D01*
X114037990Y-99884010D01*
X114037989Y-99884009D01*
X113888546Y-99763883D01*
X113888543Y-99763881D01*
X113716778Y-99678694D01*
X113716776Y-99678693D01*
X113716775Y-99678693D01*
X113670497Y-99667184D01*
X113530708Y-99632419D01*
X113506105Y-99630751D01*
X113487657Y-99629500D01*
X113487654Y-99629500D01*
X112572343Y-99629500D01*
X112572340Y-99629501D01*
X112529298Y-99632418D01*
X112529297Y-99632418D01*
X112343221Y-99678694D01*
X112171456Y-99763881D01*
X112171453Y-99763883D01*
X112022010Y-99884009D01*
X112022009Y-99884010D01*
X111901883Y-100033453D01*
X111871088Y-100095547D01*
X111823667Y-100146859D01*
X111756032Y-100164388D01*
X111689657Y-100142569D01*
X111648912Y-100095547D01*
X111618116Y-100033453D01*
X111497990Y-99884010D01*
X111497989Y-99884009D01*
X111348546Y-99763883D01*
X111348543Y-99763881D01*
X111176778Y-99678694D01*
X111176776Y-99678693D01*
X111176775Y-99678693D01*
X111130497Y-99667184D01*
X110990708Y-99632419D01*
X110966105Y-99630751D01*
X110947657Y-99629500D01*
X110947654Y-99629500D01*
X110032343Y-99629500D01*
X110032340Y-99629501D01*
X109989298Y-99632418D01*
X109989297Y-99632418D01*
X109803221Y-99678694D01*
X109631456Y-99763881D01*
X109631453Y-99763883D01*
X109482010Y-99884009D01*
X109482009Y-99884010D01*
X109361883Y-100033453D01*
X109331088Y-100095547D01*
X109283667Y-100146859D01*
X109216032Y-100164388D01*
X109149657Y-100142569D01*
X109108912Y-100095547D01*
X109078116Y-100033453D01*
X108957990Y-99884010D01*
X108957989Y-99884009D01*
X108808546Y-99763883D01*
X108719405Y-99719673D01*
X108668092Y-99672251D01*
X108650500Y-99608585D01*
X108650500Y-98766518D01*
X108670185Y-98699479D01*
X108686814Y-98678842D01*
X110347821Y-97017834D01*
X110409142Y-96984351D01*
X110478834Y-96989335D01*
X110534767Y-97031207D01*
X110559184Y-97096671D01*
X110559500Y-97105517D01*
X110559500Y-97650001D01*
X110559501Y-97650019D01*
X110570000Y-97752796D01*
X110570001Y-97752799D01*
X110625185Y-97919331D01*
X110625186Y-97919334D01*
X110717288Y-98068656D01*
X110841344Y-98192712D01*
X110990666Y-98284814D01*
X111157203Y-98339999D01*
X111259991Y-98350500D01*
X112260008Y-98350499D01*
X112260016Y-98350498D01*
X112260019Y-98350498D01*
X112316302Y-98344748D01*
X112362797Y-98339999D01*
X112529334Y-98284814D01*
X112678656Y-98192712D01*
X112734549Y-98136819D01*
X112795872Y-98103334D01*
X112822230Y-98100500D01*
X113237770Y-98100500D01*
X113304809Y-98120185D01*
X113325451Y-98136819D01*
X113381344Y-98192712D01*
X113530666Y-98284814D01*
X113697203Y-98339999D01*
X113799991Y-98350500D01*
X114800008Y-98350499D01*
X114800016Y-98350498D01*
X114800019Y-98350498D01*
X114856302Y-98344748D01*
X114902797Y-98339999D01*
X115069334Y-98284814D01*
X115218656Y-98192712D01*
X115274549Y-98136819D01*
X115335872Y-98103334D01*
X115362230Y-98100500D01*
X121935392Y-98100500D01*
X122002431Y-98120185D01*
X122048186Y-98172989D01*
X122059392Y-98224500D01*
X122059392Y-105166457D01*
X122039707Y-105233496D01*
X122023073Y-105254138D01*
X110564030Y-116713181D01*
X110502707Y-116746666D01*
X110476349Y-116749500D01*
X110381578Y-116749500D01*
X110187173Y-116780290D01*
X109999970Y-116841117D01*
X109824594Y-116930476D01*
X109752977Y-116982510D01*
X109665354Y-117046172D01*
X109665352Y-117046174D01*
X109665351Y-117046174D01*
X109526174Y-117185351D01*
X109526174Y-117185352D01*
X109526172Y-117185354D01*
X109511535Y-117205500D01*
X109410476Y-117344594D01*
X109320485Y-117521213D01*
X109272511Y-117572009D01*
X109204690Y-117588804D01*
X109138555Y-117566267D01*
X109099515Y-117521213D01*
X109046141Y-117416461D01*
X109009524Y-117344595D01*
X108893828Y-117185354D01*
X108754646Y-117046172D01*
X108595405Y-116930476D01*
X108577174Y-116921187D01*
X108420029Y-116841117D01*
X108232826Y-116780290D01*
X108038422Y-116749500D01*
X108038417Y-116749500D01*
X107841583Y-116749500D01*
X107841578Y-116749500D01*
X107647173Y-116780290D01*
X107459970Y-116841117D01*
X107284594Y-116930476D01*
X107212977Y-116982510D01*
X107125354Y-117046172D01*
X107125352Y-117046174D01*
X107125351Y-117046174D01*
X106986174Y-117185351D01*
X106986174Y-117185352D01*
X106986172Y-117185354D01*
X106971535Y-117205500D01*
X106870476Y-117344594D01*
X106780485Y-117521213D01*
X106732511Y-117572009D01*
X106664690Y-117588804D01*
X106598555Y-117566267D01*
X106559515Y-117521213D01*
X106506141Y-117416461D01*
X106469524Y-117344595D01*
X106353828Y-117185354D01*
X106214646Y-117046172D01*
X106055405Y-116930476D01*
X106037174Y-116921187D01*
X105880029Y-116841117D01*
X105692826Y-116780290D01*
X105498422Y-116749500D01*
X105498417Y-116749500D01*
X105301583Y-116749500D01*
X105301578Y-116749500D01*
X105107173Y-116780290D01*
X104919970Y-116841117D01*
X104744594Y-116930476D01*
X104672977Y-116982510D01*
X104585354Y-117046172D01*
X104585352Y-117046174D01*
X104585351Y-117046174D01*
X104446174Y-117185351D01*
X104446174Y-117185352D01*
X104446172Y-117185354D01*
X104431535Y-117205500D01*
X104330476Y-117344594D01*
X104240485Y-117521213D01*
X104192511Y-117572009D01*
X104124690Y-117588804D01*
X104058555Y-117566267D01*
X104019515Y-117521213D01*
X103966141Y-117416461D01*
X103929524Y-117344595D01*
X103813828Y-117185354D01*
X103674646Y-117046172D01*
X103515405Y-116930476D01*
X103497174Y-116921187D01*
X103340029Y-116841117D01*
X103152826Y-116780290D01*
X102958422Y-116749500D01*
X102958417Y-116749500D01*
X102761583Y-116749500D01*
X102761578Y-116749500D01*
X102567173Y-116780290D01*
X102379970Y-116841117D01*
X102204594Y-116930476D01*
X102132977Y-116982510D01*
X102045354Y-117046172D01*
X102045352Y-117046174D01*
X102045351Y-117046174D01*
X101906174Y-117185351D01*
X101906174Y-117185352D01*
X101906172Y-117185354D01*
X101891535Y-117205500D01*
X101790476Y-117344594D01*
X101700485Y-117521213D01*
X101652511Y-117572009D01*
X101584690Y-117588804D01*
X101518555Y-117566267D01*
X101479515Y-117521213D01*
X101426141Y-117416461D01*
X101389524Y-117344595D01*
X101273828Y-117185354D01*
X101134646Y-117046172D01*
X100975405Y-116930476D01*
X100957174Y-116921187D01*
X100800029Y-116841117D01*
X100612826Y-116780290D01*
X100418422Y-116749500D01*
X100418417Y-116749500D01*
X100221583Y-116749500D01*
X100221578Y-116749500D01*
X100027173Y-116780290D01*
X99839970Y-116841117D01*
X99664594Y-116930476D01*
X99592977Y-116982510D01*
X99505354Y-117046172D01*
X99505352Y-117046174D01*
X99505351Y-117046174D01*
X99366174Y-117185351D01*
X99366174Y-117185352D01*
X99366172Y-117185354D01*
X99351535Y-117205500D01*
X99250476Y-117344594D01*
X99160485Y-117521213D01*
X99112511Y-117572009D01*
X99044690Y-117588804D01*
X98978555Y-117566267D01*
X98939515Y-117521213D01*
X98886141Y-117416461D01*
X98849524Y-117344595D01*
X98733828Y-117185354D01*
X98594646Y-117046172D01*
X98435405Y-116930476D01*
X98417174Y-116921187D01*
X98260029Y-116841117D01*
X98072826Y-116780290D01*
X97878422Y-116749500D01*
X97878417Y-116749500D01*
X97681583Y-116749500D01*
X97681578Y-116749500D01*
X97487173Y-116780290D01*
X97299970Y-116841117D01*
X97124594Y-116930476D01*
X97052977Y-116982510D01*
X96965354Y-117046172D01*
X96965352Y-117046174D01*
X96965351Y-117046174D01*
X96826174Y-117185351D01*
X96826174Y-117185352D01*
X96826172Y-117185354D01*
X96811535Y-117205500D01*
X96710476Y-117344594D01*
X96621117Y-117519970D01*
X96560290Y-117707173D01*
X96529500Y-117901577D01*
X96529500Y-118098422D01*
X96560291Y-118292826D01*
X96560292Y-118292834D01*
X96561342Y-118296064D01*
X96561389Y-118297401D01*
X96561430Y-118297572D01*
X96561395Y-118297580D01*
X96563742Y-118364295D01*
X96530419Y-118498291D01*
X96527500Y-118541345D01*
X96527500Y-120218656D01*
X96527501Y-120218659D01*
X96530418Y-120261701D01*
X96530418Y-120261702D01*
X96576694Y-120447778D01*
X96661881Y-120619543D01*
X96661883Y-120619546D01*
X96782009Y-120768989D01*
X96782010Y-120768990D01*
X96931453Y-120889116D01*
X96931456Y-120889118D01*
X97055551Y-120950663D01*
X97103225Y-120974307D01*
X97234485Y-121006950D01*
X97289291Y-121020580D01*
X97289292Y-121020580D01*
X97289296Y-121020581D01*
X97332343Y-121023500D01*
X98247656Y-121023499D01*
X98290704Y-121020581D01*
X98476775Y-120974307D01*
X98648547Y-120889116D01*
X98797990Y-120768990D01*
X98918116Y-120619547D01*
X98935157Y-120585187D01*
X98948912Y-120557453D01*
X98996333Y-120506140D01*
X99063968Y-120488610D01*
X99130343Y-120510430D01*
X99171088Y-120557453D01*
X99201881Y-120619543D01*
X99201883Y-120619546D01*
X99322009Y-120768989D01*
X99322010Y-120768990D01*
X99471453Y-120889116D01*
X99471456Y-120889118D01*
X99595551Y-120950663D01*
X99643225Y-120974307D01*
X99774485Y-121006950D01*
X99829291Y-121020580D01*
X99829292Y-121020580D01*
X99829296Y-121020581D01*
X99872343Y-121023500D01*
X100787656Y-121023499D01*
X100830704Y-121020581D01*
X101016775Y-120974307D01*
X101188547Y-120889116D01*
X101337990Y-120768990D01*
X101458116Y-120619547D01*
X101475157Y-120585187D01*
X101488912Y-120557453D01*
X101536333Y-120506140D01*
X101603968Y-120488610D01*
X101670343Y-120510430D01*
X101711088Y-120557453D01*
X101741881Y-120619543D01*
X101741883Y-120619546D01*
X101862009Y-120768989D01*
X101862010Y-120768990D01*
X102011453Y-120889116D01*
X102011456Y-120889118D01*
X102135551Y-120950663D01*
X102183225Y-120974307D01*
X102314485Y-121006950D01*
X102369291Y-121020580D01*
X102369292Y-121020580D01*
X102369296Y-121020581D01*
X102412343Y-121023500D01*
X103327656Y-121023499D01*
X103370704Y-121020581D01*
X103556775Y-120974307D01*
X103728547Y-120889116D01*
X103877990Y-120768990D01*
X103998116Y-120619547D01*
X104028911Y-120557453D01*
X104076331Y-120506141D01*
X104143966Y-120488611D01*
X104210341Y-120510431D01*
X104251087Y-120557453D01*
X104281882Y-120619546D01*
X104402008Y-120768989D01*
X104402009Y-120768990D01*
X104551452Y-120889116D01*
X104551455Y-120889118D01*
X104675550Y-120950663D01*
X104723224Y-120974307D01*
X104854484Y-121006950D01*
X104909290Y-121020580D01*
X104909291Y-121020580D01*
X104909295Y-121020581D01*
X104952342Y-121023500D01*
X105867655Y-121023499D01*
X105910703Y-121020581D01*
X106096774Y-120974307D01*
X106268546Y-120889116D01*
X106417989Y-120768990D01*
X106538115Y-120619547D01*
X106568911Y-120557451D01*
X106616331Y-120506139D01*
X106683966Y-120488609D01*
X106750341Y-120510429D01*
X106791087Y-120557451D01*
X106821883Y-120619546D01*
X106942009Y-120768989D01*
X106942010Y-120768990D01*
X107091453Y-120889116D01*
X107091456Y-120889118D01*
X107215551Y-120950663D01*
X107263225Y-120974307D01*
X107394490Y-121006951D01*
X107454795Y-121042232D01*
X107486454Y-121104518D01*
X107479413Y-121174032D01*
X107452243Y-121214966D01*
X106364030Y-122303181D01*
X106302707Y-122336666D01*
X106276349Y-122339500D01*
X100881228Y-122339500D01*
X100716925Y-122372181D01*
X100716916Y-122372184D01*
X100562143Y-122436292D01*
X100562137Y-122436295D01*
X100562137Y-122436296D01*
X100478341Y-122492288D01*
X100422831Y-122529379D01*
X100422830Y-122529380D01*
X99034375Y-123917834D01*
X99034372Y-123917838D01*
X98941297Y-124057133D01*
X98914015Y-124123000D01*
X98877184Y-124211917D01*
X98877182Y-124211925D01*
X98844500Y-124376228D01*
X98844500Y-127464771D01*
X98877182Y-127629075D01*
X98877184Y-127629082D01*
X98887713Y-127654499D01*
X98887714Y-127654503D01*
X98941296Y-127783863D01*
X98941297Y-127783866D01*
X99034372Y-127923161D01*
X99034375Y-127923165D01*
X100166834Y-129055624D01*
X100166842Y-129055630D01*
X100306127Y-129148697D01*
X100306131Y-129148699D01*
X100306138Y-129148704D01*
X100362076Y-129171874D01*
X100460918Y-129212816D01*
X100620206Y-129244500D01*
X100625228Y-129245499D01*
X100625232Y-129245500D01*
X100625233Y-129245500D01*
X100625234Y-129245500D01*
X100792767Y-129245500D01*
X101795270Y-129245500D01*
X101862309Y-129265185D01*
X101882951Y-129281819D01*
X101926344Y-129325212D01*
X102075666Y-129417314D01*
X102242203Y-129472499D01*
X102344991Y-129483000D01*
X102703847Y-129482999D01*
X102770886Y-129502683D01*
X102791528Y-129519318D01*
X102917834Y-129645624D01*
X102917838Y-129645627D01*
X103057137Y-129738704D01*
X103057139Y-129738705D01*
X103057143Y-129738707D01*
X103122574Y-129765808D01*
X103166584Y-129784037D01*
X103211918Y-129802816D01*
X103311933Y-129822710D01*
X103376228Y-129835499D01*
X103376232Y-129835500D01*
X103376233Y-129835500D01*
X103543767Y-129835500D01*
X104995577Y-129835500D01*
X105062616Y-129855185D01*
X105101115Y-129894403D01*
X105142286Y-129961151D01*
X105142289Y-129961155D01*
X105266344Y-130085210D01*
X105266348Y-130085213D01*
X105415662Y-130177312D01*
X105415664Y-130177313D01*
X105415666Y-130177314D01*
X105582203Y-130232499D01*
X105684992Y-130243000D01*
X105684997Y-130243000D01*
X107675003Y-130243000D01*
X107675008Y-130243000D01*
X107777797Y-130232499D01*
X107944334Y-130177314D01*
X108093655Y-130085211D01*
X108217711Y-129961155D01*
X108246475Y-129914522D01*
X108258885Y-129894403D01*
X108310833Y-129847678D01*
X108364423Y-129835500D01*
X110075576Y-129835500D01*
X110142615Y-129855185D01*
X110181114Y-129894403D01*
X110222285Y-129961151D01*
X110222288Y-129961155D01*
X110346343Y-130085210D01*
X110346347Y-130085213D01*
X110495661Y-130177312D01*
X110495663Y-130177313D01*
X110495665Y-130177314D01*
X110662202Y-130232499D01*
X110764991Y-130243000D01*
X110764996Y-130243000D01*
X112755002Y-130243000D01*
X112755007Y-130243000D01*
X112857796Y-130232499D01*
X113024333Y-130177314D01*
X113173654Y-130085211D01*
X113297710Y-129961155D01*
X113389813Y-129811834D01*
X113444998Y-129645297D01*
X113455499Y-129542508D01*
X113455499Y-129244500D01*
X113475184Y-129177461D01*
X113527988Y-129131706D01*
X113579499Y-129120500D01*
X114804518Y-129120500D01*
X114834987Y-129129447D01*
X114865898Y-129136757D01*
X114869060Y-129139451D01*
X114871557Y-129140185D01*
X114893766Y-129158414D01*
X114897654Y-129162445D01*
X114982278Y-129267722D01*
X115057602Y-129328269D01*
X115063047Y-129333914D01*
X115075747Y-129358203D01*
X115091405Y-129380696D01*
X115091701Y-129388717D01*
X115095421Y-129395831D01*
X115092972Y-129423128D01*
X115093985Y-129450518D01*
X115089896Y-129457427D01*
X115089180Y-129465422D01*
X115072362Y-129487062D01*
X115058406Y-129510651D01*
X115051486Y-129516647D01*
X114982278Y-129572277D01*
X114982277Y-129572278D01*
X114862969Y-129720704D01*
X114862967Y-129720707D01*
X114778360Y-129891302D01*
X114732400Y-130076107D01*
X114729500Y-130118879D01*
X114729500Y-131021122D01*
X114729501Y-131021125D01*
X114732399Y-131063886D01*
X114732399Y-131063887D01*
X114762933Y-131186666D01*
X114774787Y-131234331D01*
X114778360Y-131248696D01*
X114862967Y-131419292D01*
X114862969Y-131419295D01*
X114982277Y-131567721D01*
X114982278Y-131567722D01*
X115130704Y-131687030D01*
X115130707Y-131687032D01*
X115301302Y-131771639D01*
X115301303Y-131771639D01*
X115301307Y-131771641D01*
X115486111Y-131817600D01*
X115528877Y-131820500D01*
X116931122Y-131820499D01*
X116973889Y-131817600D01*
X117158693Y-131771641D01*
X117329296Y-131687030D01*
X117477722Y-131567722D01*
X117597030Y-131419296D01*
X117681641Y-131248693D01*
X117727600Y-131063889D01*
X117730500Y-131021123D01*
X117730499Y-130856150D01*
X117750183Y-130789111D01*
X117766813Y-130768474D01*
X118807288Y-129728000D01*
X121030000Y-129728000D01*
X121040608Y-129847325D01*
X121040609Y-129847328D01*
X121096557Y-130042861D01*
X121190721Y-130223129D01*
X121319246Y-130380753D01*
X121476870Y-130509278D01*
X121657138Y-130603442D01*
X121852671Y-130659390D01*
X121852674Y-130659391D01*
X121971999Y-130669999D01*
X121972002Y-130670000D01*
X122280000Y-130670000D01*
X122780000Y-130670000D01*
X123087998Y-130670000D01*
X123088000Y-130669999D01*
X123207325Y-130659391D01*
X123207328Y-130659390D01*
X123402861Y-130603442D01*
X123583129Y-130509278D01*
X123740753Y-130380753D01*
X123869278Y-130223129D01*
X123963442Y-130042861D01*
X124019390Y-129847328D01*
X124019391Y-129847325D01*
X124029999Y-129728000D01*
X124030000Y-129727998D01*
X124030000Y-128520000D01*
X122780000Y-128520000D01*
X122780000Y-130670000D01*
X122280000Y-130670000D01*
X122280000Y-128520000D01*
X121030000Y-128520000D01*
X121030000Y-129728000D01*
X118807288Y-129728000D01*
X120040627Y-128494662D01*
X120088280Y-128423345D01*
X120104048Y-128399747D01*
X120133702Y-128355366D01*
X120133702Y-128355365D01*
X120133704Y-128355363D01*
X120197816Y-128200581D01*
X120202467Y-128177202D01*
X120230500Y-128036267D01*
X120230500Y-126641650D01*
X120250185Y-126574611D01*
X120266819Y-126553969D01*
X120965969Y-125854819D01*
X121027292Y-125821334D01*
X121053650Y-125818500D01*
X121388844Y-125818500D01*
X121455883Y-125838185D01*
X121501638Y-125890989D01*
X121511582Y-125960147D01*
X121482557Y-126023703D01*
X121467205Y-126038602D01*
X121319246Y-126159246D01*
X121190721Y-126316870D01*
X121096557Y-126497138D01*
X121040609Y-126692671D01*
X121040608Y-126692674D01*
X121030000Y-126811999D01*
X121030000Y-128020000D01*
X124030000Y-128020000D01*
X124030000Y-126812002D01*
X124029878Y-126809255D01*
X124030000Y-126809249D01*
X124030000Y-126809247D01*
X124030058Y-126809247D01*
X124030770Y-126809215D01*
X124043710Y-126744230D01*
X124092236Y-126693960D01*
X124160236Y-126677905D01*
X124226121Y-126701162D01*
X124241256Y-126714045D01*
X125738181Y-128210970D01*
X125771666Y-128272293D01*
X125774500Y-128298650D01*
X125774500Y-128425000D01*
X125774501Y-128425019D01*
X125785000Y-128527796D01*
X125785001Y-128527799D01*
X125840185Y-128694331D01*
X125840186Y-128694334D01*
X125932288Y-128843656D01*
X126056344Y-128967712D01*
X126111773Y-129001901D01*
X126158496Y-129053847D01*
X126168292Y-129083246D01*
X126176697Y-129125499D01*
X126182184Y-129153081D01*
X126182185Y-129153083D01*
X126182185Y-129153085D01*
X126246296Y-129307863D01*
X126246297Y-129307866D01*
X126339372Y-129447161D01*
X126339375Y-129447165D01*
X127385330Y-130493119D01*
X127385331Y-130493120D01*
X127385334Y-130493122D01*
X127385338Y-130493126D01*
X127524637Y-130586204D01*
X127634084Y-130631537D01*
X127679418Y-130650316D01*
X127778372Y-130669999D01*
X127843728Y-130682999D01*
X127843732Y-130683000D01*
X127843733Y-130683000D01*
X129035270Y-130683000D01*
X129102309Y-130702685D01*
X129122951Y-130719319D01*
X129241344Y-130837712D01*
X129390666Y-130929814D01*
X129557203Y-130984999D01*
X129659991Y-130995500D01*
X130320500Y-130995499D01*
X130387539Y-131015183D01*
X130433294Y-131067987D01*
X130444500Y-131119499D01*
X130444500Y-132178541D01*
X130444500Y-132178543D01*
X130444499Y-132178543D01*
X130482947Y-132371829D01*
X130482950Y-132371839D01*
X130558364Y-132553907D01*
X130558371Y-132553920D01*
X130667860Y-132717781D01*
X130667863Y-132717785D01*
X130807214Y-132857136D01*
X130807218Y-132857139D01*
X130971079Y-132966628D01*
X130971092Y-132966635D01*
X131129247Y-133032144D01*
X131153165Y-133042051D01*
X131153169Y-133042051D01*
X131153170Y-133042052D01*
X131346456Y-133080500D01*
X131346459Y-133080500D01*
X131543543Y-133080500D01*
X131701302Y-133049119D01*
X131736835Y-133042051D01*
X131918914Y-132966632D01*
X132082782Y-132857139D01*
X132159935Y-132779986D01*
X149920000Y-132779986D01*
X149930493Y-132882697D01*
X149985640Y-133049119D01*
X149985642Y-133049124D01*
X150077683Y-133198345D01*
X150201653Y-133322315D01*
X150350874Y-133414356D01*
X150350879Y-133414358D01*
X150517301Y-133469505D01*
X150517308Y-133469506D01*
X150620018Y-133479999D01*
X151419998Y-133479999D01*
X151919999Y-133479999D01*
X152719971Y-133479999D01*
X152719985Y-133479998D01*
X152822696Y-133469505D01*
X152989118Y-133414358D01*
X152989123Y-133414356D01*
X153138344Y-133322315D01*
X153262314Y-133198345D01*
X153354355Y-133049124D01*
X153354357Y-133049119D01*
X153409504Y-132882697D01*
X153409505Y-132882690D01*
X153419998Y-132779986D01*
X153419999Y-132779973D01*
X153419999Y-132330000D01*
X151919999Y-132330000D01*
X151919999Y-133479999D01*
X151419998Y-133479999D01*
X151419999Y-133479998D01*
X151419999Y-132330000D01*
X149920000Y-132330000D01*
X149920000Y-132779986D01*
X132159935Y-132779986D01*
X132222139Y-132717782D01*
X132331632Y-132553914D01*
X132407051Y-132371835D01*
X132419632Y-132308582D01*
X132445500Y-132178543D01*
X132445500Y-130822230D01*
X132465185Y-130755191D01*
X132481819Y-130734549D01*
X132485215Y-130731153D01*
X132502712Y-130713656D01*
X132594814Y-130564334D01*
X132649999Y-130397797D01*
X132660500Y-130295009D01*
X132660500Y-130189983D01*
X134664500Y-130189983D01*
X134664500Y-130965001D01*
X134664501Y-130965019D01*
X134675000Y-131067796D01*
X134675001Y-131067799D01*
X134730185Y-131234331D01*
X134730187Y-131234336D01*
X134739044Y-131248696D01*
X134822288Y-131383656D01*
X134946344Y-131507712D01*
X135095666Y-131599814D01*
X135262203Y-131654999D01*
X135364991Y-131665500D01*
X136415008Y-131665499D01*
X136415016Y-131665498D01*
X136415019Y-131665498D01*
X136471302Y-131659748D01*
X136517797Y-131654999D01*
X136684334Y-131599814D01*
X136833656Y-131507712D01*
X136914549Y-131426819D01*
X136975872Y-131393334D01*
X137002230Y-131390500D01*
X138637770Y-131390500D01*
X138704809Y-131410185D01*
X138725451Y-131426819D01*
X138781344Y-131482712D01*
X138930666Y-131574814D01*
X139097203Y-131629999D01*
X139199991Y-131640500D01*
X140200008Y-131640499D01*
X140200016Y-131640498D01*
X140200019Y-131640498D01*
X140256302Y-131634748D01*
X140302797Y-131629999D01*
X140469334Y-131574814D01*
X140618656Y-131482712D01*
X140742712Y-131358656D01*
X140834814Y-131209334D01*
X140889999Y-131042797D01*
X140899892Y-130945954D01*
X140926288Y-130881264D01*
X140983468Y-130841113D01*
X141053279Y-130838249D01*
X141110931Y-130870877D01*
X142825325Y-132585272D01*
X142825326Y-132585273D01*
X142825329Y-132585275D01*
X142825331Y-132585277D01*
X142931873Y-132656465D01*
X143050256Y-132705501D01*
X143050260Y-132705501D01*
X143050261Y-132705502D01*
X143175928Y-132730500D01*
X143175931Y-132730500D01*
X147384071Y-132730500D01*
X147483577Y-132710706D01*
X147509744Y-132705501D01*
X147628127Y-132656465D01*
X147734669Y-132585277D01*
X147766039Y-132553907D01*
X148128990Y-132190957D01*
X148555272Y-131764674D01*
X148555273Y-131764673D01*
X148555277Y-131764669D01*
X148626465Y-131658127D01*
X148675501Y-131539744D01*
X148679549Y-131519394D01*
X148700500Y-131414069D01*
X148700500Y-131380013D01*
X149919999Y-131380013D01*
X149919999Y-131830000D01*
X151419999Y-131830000D01*
X151919999Y-131830000D01*
X153419998Y-131830000D01*
X153419998Y-131380024D01*
X153419997Y-131380016D01*
X153419994Y-131379983D01*
X153919501Y-131379983D01*
X153919501Y-132780001D01*
X153919502Y-132780018D01*
X153930001Y-132882796D01*
X153930002Y-132882799D01*
X153957781Y-132966628D01*
X153985187Y-133049334D01*
X154077289Y-133198656D01*
X154201345Y-133322712D01*
X154350667Y-133414814D01*
X154517204Y-133469999D01*
X154619992Y-133480500D01*
X156720009Y-133480499D01*
X156822798Y-133469999D01*
X156989335Y-133414814D01*
X157138657Y-133322712D01*
X157262713Y-133198656D01*
X157290582Y-133153471D01*
X173799500Y-133153471D01*
X173799500Y-133546528D01*
X173838026Y-133937702D01*
X173914704Y-134323194D01*
X173914707Y-134323205D01*
X174028810Y-134699354D01*
X174179230Y-135062499D01*
X174179232Y-135062504D01*
X174364511Y-135409137D01*
X174364522Y-135409155D01*
X174582887Y-135735960D01*
X174582897Y-135735974D01*
X174832254Y-136039817D01*
X175110182Y-136317745D01*
X175110187Y-136317749D01*
X175110188Y-136317750D01*
X175414031Y-136567107D01*
X175740851Y-136785482D01*
X175740860Y-136785487D01*
X175740862Y-136785488D01*
X176087495Y-136970767D01*
X176087497Y-136970767D01*
X176087503Y-136970771D01*
X176450647Y-137121190D01*
X176826785Y-137235290D01*
X176826791Y-137235291D01*
X176826794Y-137235292D01*
X176826805Y-137235295D01*
X177212297Y-137311973D01*
X177603468Y-137350500D01*
X177603471Y-137350500D01*
X177996529Y-137350500D01*
X177996532Y-137350500D01*
X178387703Y-137311973D01*
X178462748Y-137297045D01*
X178773194Y-137235295D01*
X178773205Y-137235292D01*
X178773205Y-137235291D01*
X178773215Y-137235290D01*
X179149353Y-137121190D01*
X179512497Y-136970771D01*
X179859149Y-136785482D01*
X180185969Y-136567107D01*
X180489812Y-136317750D01*
X180767750Y-136039812D01*
X181017107Y-135735969D01*
X181235482Y-135409149D01*
X181420771Y-135062497D01*
X181571190Y-134699353D01*
X181685290Y-134323215D01*
X181685292Y-134323205D01*
X181685295Y-134323194D01*
X181761973Y-133937702D01*
X181800500Y-133546528D01*
X181800500Y-133153471D01*
X181799114Y-133139403D01*
X181761973Y-132762297D01*
X181753119Y-132717785D01*
X181685295Y-132376805D01*
X181685292Y-132376794D01*
X181685291Y-132376791D01*
X181685290Y-132376785D01*
X181571190Y-132000647D01*
X181420771Y-131637503D01*
X181412104Y-131621289D01*
X181235488Y-131290862D01*
X181235487Y-131290860D01*
X181235482Y-131290851D01*
X181017107Y-130964031D01*
X180767750Y-130660188D01*
X180767749Y-130660187D01*
X180767745Y-130660182D01*
X180489817Y-130382254D01*
X180185974Y-130132897D01*
X180185973Y-130132896D01*
X180185969Y-130132893D01*
X179859149Y-129914518D01*
X179859144Y-129914515D01*
X179859137Y-129914511D01*
X179512504Y-129729232D01*
X179512499Y-129729230D01*
X179495090Y-129722019D01*
X179310664Y-129645627D01*
X179149354Y-129578810D01*
X178773205Y-129464707D01*
X178773194Y-129464704D01*
X178387702Y-129388026D01*
X178093089Y-129359010D01*
X177996532Y-129349500D01*
X177603468Y-129349500D01*
X177515105Y-129358203D01*
X177212297Y-129388026D01*
X176826805Y-129464704D01*
X176826794Y-129464707D01*
X176450645Y-129578810D01*
X176087500Y-129729230D01*
X176087495Y-129729232D01*
X175740862Y-129914511D01*
X175740844Y-129914522D01*
X175414039Y-130132887D01*
X175414025Y-130132897D01*
X175110182Y-130382254D01*
X174832254Y-130660182D01*
X174582897Y-130964025D01*
X174582887Y-130964039D01*
X174364522Y-131290844D01*
X174364511Y-131290862D01*
X174179232Y-131637495D01*
X174179230Y-131637500D01*
X174028810Y-132000645D01*
X173914707Y-132376794D01*
X173914704Y-132376805D01*
X173838026Y-132762297D01*
X173809777Y-133049119D01*
X173800886Y-133139403D01*
X173799500Y-133153471D01*
X157290582Y-133153471D01*
X157299260Y-133139402D01*
X157351208Y-133092679D01*
X157404799Y-133080500D01*
X166663542Y-133080500D01*
X166698136Y-133073618D01*
X166760188Y-133061275D01*
X166856836Y-133042051D01*
X166910165Y-133019961D01*
X167038914Y-132966632D01*
X167202782Y-132857139D01*
X167342139Y-132717782D01*
X167342140Y-132717779D01*
X167349206Y-132710714D01*
X167349208Y-132710710D01*
X168203101Y-131856819D01*
X168264424Y-131823334D01*
X168290782Y-131820500D01*
X170406580Y-131820500D01*
X170406586Y-131820500D01*
X170522985Y-131810151D01*
X170713728Y-131755573D01*
X170889579Y-131663716D01*
X170892935Y-131660979D01*
X170908366Y-131648398D01*
X170972762Y-131621289D01*
X170986726Y-131620500D01*
X171988422Y-131620500D01*
X172182826Y-131589709D01*
X172228674Y-131574812D01*
X172370026Y-131528884D01*
X172545405Y-131439524D01*
X172704646Y-131323828D01*
X174308828Y-129719646D01*
X174424524Y-129560405D01*
X174513884Y-129385026D01*
X174574709Y-129197826D01*
X174590097Y-129100666D01*
X174605500Y-129003417D01*
X174605500Y-124314082D01*
X174605500Y-124314076D01*
X174574709Y-124119672D01*
X174558754Y-124070569D01*
X174558549Y-124069938D01*
X174513884Y-123932473D01*
X174513882Y-123932470D01*
X174513882Y-123932468D01*
X174435510Y-123778656D01*
X174424524Y-123757094D01*
X174308828Y-123597853D01*
X172061819Y-121350844D01*
X172028334Y-121289521D01*
X172025500Y-121263163D01*
X172025500Y-121219998D01*
X172025499Y-121219981D01*
X172015000Y-121117203D01*
X172014999Y-121117200D01*
X171990157Y-121042232D01*
X171959815Y-120950666D01*
X171867713Y-120801344D01*
X171743657Y-120677288D01*
X171594335Y-120585186D01*
X171427798Y-120530001D01*
X171427796Y-120530000D01*
X171325011Y-120519500D01*
X169224999Y-120519500D01*
X169224982Y-120519501D01*
X169122204Y-120530000D01*
X169122201Y-120530001D01*
X168955669Y-120585185D01*
X168955664Y-120585187D01*
X168806343Y-120677289D01*
X168682290Y-120801342D01*
X168590188Y-120950663D01*
X168590186Y-120950668D01*
X168566218Y-121022999D01*
X168535002Y-121117203D01*
X168535002Y-121117204D01*
X168535001Y-121117204D01*
X168524501Y-121219983D01*
X168524501Y-122620001D01*
X168524502Y-122620018D01*
X168535001Y-122722796D01*
X168535002Y-122722799D01*
X168587774Y-122882051D01*
X168590187Y-122889334D01*
X168682289Y-123038656D01*
X168806345Y-123162712D01*
X168955667Y-123254814D01*
X169122204Y-123309999D01*
X169224992Y-123320500D01*
X170443164Y-123320499D01*
X170510203Y-123340184D01*
X170530845Y-123356818D01*
X172068181Y-124894154D01*
X172101666Y-124955477D01*
X172104500Y-124981835D01*
X172104500Y-128335664D01*
X172084815Y-128402703D01*
X172068181Y-128423345D01*
X171408345Y-129083181D01*
X171347022Y-129116666D01*
X171320664Y-129119500D01*
X170986726Y-129119500D01*
X170919687Y-129099815D01*
X170908366Y-129091602D01*
X170889580Y-129076284D01*
X170713726Y-128984426D01*
X170600875Y-128952136D01*
X170522985Y-128929849D01*
X170522982Y-128929848D01*
X170522980Y-128929848D01*
X170452017Y-128923539D01*
X170406586Y-128919500D01*
X166143414Y-128919500D01*
X166109340Y-128922529D01*
X166027019Y-128929848D01*
X166027016Y-128929848D01*
X166027015Y-128929849D01*
X165972438Y-128945465D01*
X165836273Y-128984426D01*
X165660422Y-129076283D01*
X165506659Y-129201659D01*
X165381283Y-129355422D01*
X165289426Y-129531273D01*
X165256707Y-129645624D01*
X165235224Y-129720707D01*
X165234849Y-129722016D01*
X165234848Y-129722019D01*
X165224500Y-129838417D01*
X165224500Y-130901585D01*
X165228317Y-130944520D01*
X165214646Y-131013039D01*
X165166101Y-131063290D01*
X165104804Y-131079500D01*
X157404799Y-131079500D01*
X157337760Y-131059815D01*
X157299260Y-131020597D01*
X157295921Y-131015183D01*
X157262713Y-130961344D01*
X157138657Y-130837288D01*
X156989335Y-130745186D01*
X156822798Y-130690001D01*
X156822796Y-130690000D01*
X156720011Y-130679500D01*
X154619999Y-130679500D01*
X154619982Y-130679501D01*
X154517204Y-130690000D01*
X154517201Y-130690001D01*
X154350669Y-130745185D01*
X154350664Y-130745187D01*
X154201343Y-130837289D01*
X154077290Y-130961342D01*
X153985188Y-131110663D01*
X153985186Y-131110668D01*
X153985116Y-131110880D01*
X153930002Y-131277203D01*
X153930002Y-131277204D01*
X153930001Y-131277204D01*
X153919501Y-131379983D01*
X153419994Y-131379983D01*
X153409504Y-131277302D01*
X153354357Y-131110880D01*
X153354355Y-131110875D01*
X153262314Y-130961654D01*
X153138344Y-130837684D01*
X152989123Y-130745643D01*
X152989118Y-130745641D01*
X152822696Y-130690494D01*
X152822689Y-130690493D01*
X152719985Y-130680000D01*
X151919999Y-130680000D01*
X151919999Y-131830000D01*
X151419999Y-131830000D01*
X151419999Y-130680000D01*
X150620027Y-130680000D01*
X150620011Y-130680001D01*
X150517301Y-130690494D01*
X150350879Y-130745641D01*
X150350874Y-130745643D01*
X150201653Y-130837684D01*
X150077683Y-130961654D01*
X149985642Y-131110875D01*
X149985640Y-131110880D01*
X149930493Y-131277302D01*
X149930492Y-131277309D01*
X149919999Y-131380013D01*
X148700500Y-131380013D01*
X148700500Y-130448118D01*
X148720185Y-130381079D01*
X148725233Y-130373807D01*
X148748796Y-130342331D01*
X148799091Y-130207483D01*
X148805500Y-130147873D01*
X148805499Y-128952128D01*
X148799091Y-128892517D01*
X148798142Y-128889973D01*
X148748797Y-128757671D01*
X148748793Y-128757664D01*
X148662547Y-128642455D01*
X148662544Y-128642452D01*
X148547335Y-128556206D01*
X148547328Y-128556202D01*
X148412486Y-128505910D01*
X148412485Y-128505909D01*
X148412483Y-128505909D01*
X148352873Y-128499500D01*
X148352863Y-128499500D01*
X147747129Y-128499500D01*
X147747123Y-128499501D01*
X147687514Y-128505909D01*
X147593332Y-128541036D01*
X147523640Y-128546020D01*
X147506668Y-128541036D01*
X147412488Y-128505910D01*
X147412484Y-128505909D01*
X147412483Y-128505909D01*
X147352873Y-128499500D01*
X147352863Y-128499500D01*
X146747129Y-128499500D01*
X146747123Y-128499501D01*
X146687514Y-128505909D01*
X146593332Y-128541036D01*
X146523640Y-128546020D01*
X146506668Y-128541036D01*
X146412488Y-128505910D01*
X146412484Y-128505909D01*
X146412483Y-128505909D01*
X146352873Y-128499500D01*
X146352863Y-128499500D01*
X145747129Y-128499500D01*
X145747123Y-128499501D01*
X145687515Y-128505909D01*
X145592617Y-128541303D01*
X145522926Y-128546287D01*
X145505952Y-128541303D01*
X145412380Y-128506403D01*
X145412372Y-128506401D01*
X145352844Y-128500000D01*
X145300000Y-128500000D01*
X145300000Y-128894329D01*
X145299289Y-128907584D01*
X145294500Y-128952127D01*
X145294500Y-129549337D01*
X145294501Y-129550000D01*
X145294501Y-130147874D01*
X145299290Y-130192421D01*
X145300000Y-130205675D01*
X145300000Y-130504189D01*
X145290562Y-130551636D01*
X145280263Y-130576503D01*
X145280262Y-130576507D01*
X145280261Y-130576510D01*
X145280260Y-130576511D01*
X145249500Y-130731153D01*
X145249500Y-130888846D01*
X145280261Y-131043489D01*
X145280264Y-131043501D01*
X145340602Y-131189172D01*
X145340609Y-131189185D01*
X145372297Y-131236609D01*
X145393175Y-131303287D01*
X145374690Y-131370667D01*
X145322711Y-131417357D01*
X145269195Y-131429500D01*
X143560808Y-131429500D01*
X143493769Y-131409815D01*
X143473127Y-131393181D01*
X140936818Y-128856872D01*
X140903333Y-128795549D01*
X140900499Y-128769191D01*
X140900499Y-128139998D01*
X140900498Y-128139981D01*
X140889999Y-128037203D01*
X140889998Y-128037200D01*
X140864398Y-127959944D01*
X140834814Y-127870666D01*
X140742712Y-127721344D01*
X140618656Y-127597288D01*
X140487348Y-127516297D01*
X140469336Y-127505187D01*
X140469331Y-127505185D01*
X140467862Y-127504698D01*
X140302797Y-127450001D01*
X140302795Y-127450000D01*
X140200010Y-127439500D01*
X139199998Y-127439500D01*
X139199980Y-127439501D01*
X139097203Y-127450000D01*
X139097200Y-127450001D01*
X138930668Y-127505185D01*
X138930663Y-127505187D01*
X138781342Y-127597289D01*
X138657289Y-127721342D01*
X138565187Y-127870663D01*
X138565185Y-127870668D01*
X138538286Y-127951844D01*
X138510001Y-128037203D01*
X138510001Y-128037204D01*
X138510000Y-128037204D01*
X138499500Y-128139983D01*
X138499500Y-128940001D01*
X138499501Y-128940019D01*
X138510000Y-129042796D01*
X138510001Y-129042799D01*
X138565185Y-129209331D01*
X138565187Y-129209336D01*
X138567334Y-129212817D01*
X138655293Y-129355422D01*
X138657289Y-129358657D01*
X138750951Y-129452319D01*
X138755289Y-129460264D01*
X138762537Y-129465690D01*
X138771771Y-129490449D01*
X138784436Y-129513642D01*
X138783790Y-129522671D01*
X138786954Y-129531154D01*
X138781337Y-129556974D01*
X138779452Y-129583334D01*
X138773633Y-129592387D01*
X138772102Y-129599427D01*
X138750951Y-129627681D01*
X138725451Y-129653181D01*
X138664128Y-129686666D01*
X138637770Y-129689500D01*
X136927230Y-129689500D01*
X136860191Y-129669815D01*
X136839549Y-129653181D01*
X136833657Y-129647289D01*
X136833656Y-129647288D01*
X136830342Y-129645243D01*
X136828546Y-129643248D01*
X136827989Y-129642807D01*
X136828064Y-129642711D01*
X136783618Y-129593297D01*
X136772397Y-129524334D01*
X136800240Y-129460252D01*
X136830348Y-129434165D01*
X136833342Y-129432318D01*
X136957315Y-129308345D01*
X137049356Y-129159124D01*
X137049358Y-129159119D01*
X137104505Y-128992697D01*
X137104506Y-128992690D01*
X137114999Y-128889986D01*
X137115000Y-128889973D01*
X137115000Y-128752500D01*
X134665001Y-128752500D01*
X134665001Y-128889986D01*
X134675494Y-128992697D01*
X134730641Y-129159119D01*
X134730643Y-129159124D01*
X134822684Y-129308345D01*
X134946655Y-129432316D01*
X134946659Y-129432319D01*
X134949656Y-129434168D01*
X134951279Y-129435972D01*
X134952323Y-129436798D01*
X134952181Y-129436976D01*
X134996381Y-129486116D01*
X135007602Y-129555079D01*
X134979759Y-129619161D01*
X134949661Y-129645241D01*
X134946349Y-129647283D01*
X134946343Y-129647288D01*
X134822289Y-129771342D01*
X134730187Y-129920663D01*
X134730185Y-129920668D01*
X134710359Y-129980499D01*
X134675001Y-130087203D01*
X134675001Y-130087204D01*
X134675000Y-130087204D01*
X134664500Y-130189983D01*
X132660500Y-130189983D01*
X132660499Y-129822712D01*
X132660499Y-129369998D01*
X132660498Y-129369980D01*
X132649999Y-129267203D01*
X132649998Y-129267200D01*
X132631977Y-129212816D01*
X132594814Y-129100666D01*
X132502712Y-128951344D01*
X132378656Y-128827288D01*
X132229334Y-128735186D01*
X132062797Y-128680001D01*
X132062795Y-128680000D01*
X131960010Y-128669500D01*
X129659998Y-128669500D01*
X129659981Y-128669501D01*
X129557203Y-128680000D01*
X129557200Y-128680001D01*
X129390668Y-128735185D01*
X129390663Y-128735187D01*
X129241342Y-128827289D01*
X129122951Y-128945681D01*
X129061628Y-128979166D01*
X129035270Y-128982000D01*
X128331150Y-128982000D01*
X128301709Y-128973355D01*
X128271723Y-128966832D01*
X128266707Y-128963077D01*
X128264111Y-128962315D01*
X128243469Y-128945681D01*
X128165169Y-128867381D01*
X128131684Y-128806058D01*
X128136668Y-128736366D01*
X128147309Y-128714606D01*
X128159814Y-128694334D01*
X128214999Y-128527797D01*
X128225500Y-128425009D01*
X128225499Y-127649992D01*
X128222486Y-127620500D01*
X128214999Y-127547203D01*
X128214998Y-127547200D01*
X128201076Y-127505186D01*
X128159814Y-127380666D01*
X128067712Y-127231344D01*
X128006354Y-127169986D01*
X128960001Y-127169986D01*
X128970494Y-127272697D01*
X129025641Y-127439119D01*
X129025643Y-127439124D01*
X129117684Y-127588345D01*
X129241654Y-127712315D01*
X129390875Y-127804356D01*
X129390880Y-127804358D01*
X129557302Y-127859505D01*
X129557309Y-127859506D01*
X129660019Y-127869999D01*
X130559999Y-127869999D01*
X131060000Y-127869999D01*
X131959972Y-127869999D01*
X131959986Y-127869998D01*
X132062697Y-127859505D01*
X132229119Y-127804358D01*
X132229124Y-127804356D01*
X132378345Y-127712315D01*
X132502315Y-127588345D01*
X132594356Y-127439124D01*
X132594358Y-127439119D01*
X132649505Y-127272697D01*
X132649506Y-127272690D01*
X132659999Y-127169986D01*
X132660000Y-127169973D01*
X132660000Y-126957500D01*
X131060000Y-126957500D01*
X131060000Y-127869999D01*
X130559999Y-127869999D01*
X130560000Y-127869998D01*
X130560000Y-126957500D01*
X128960001Y-126957500D01*
X128960001Y-127169986D01*
X128006354Y-127169986D01*
X127943656Y-127107288D01*
X127940342Y-127105243D01*
X127938546Y-127103248D01*
X127937989Y-127102807D01*
X127938064Y-127102711D01*
X127893618Y-127053297D01*
X127882397Y-126984334D01*
X127910240Y-126920252D01*
X127920468Y-126909397D01*
X128018542Y-126817118D01*
X128067315Y-126768345D01*
X128159356Y-126619124D01*
X128159358Y-126619119D01*
X128203805Y-126484986D01*
X134040001Y-126484986D01*
X134050494Y-126587697D01*
X134105641Y-126754119D01*
X134105643Y-126754124D01*
X134197684Y-126903345D01*
X134321654Y-127027315D01*
X134470875Y-127119356D01*
X134470880Y-127119358D01*
X134637302Y-127174505D01*
X134637309Y-127174506D01*
X134740019Y-127184999D01*
X135219643Y-127184999D01*
X135286682Y-127204683D01*
X135332437Y-127257487D01*
X135342381Y-127326646D01*
X135313356Y-127390202D01*
X135258648Y-127426705D01*
X135095878Y-127480642D01*
X135095875Y-127480643D01*
X134946654Y-127572684D01*
X134822684Y-127696654D01*
X134730643Y-127845875D01*
X134730641Y-127845880D01*
X134675494Y-128012302D01*
X134675493Y-128012309D01*
X134665000Y-128115013D01*
X134665000Y-128252500D01*
X135640000Y-128252500D01*
X135640000Y-127414999D01*
X135612681Y-127387680D01*
X135579196Y-127326357D01*
X135584180Y-127256665D01*
X135612681Y-127212318D01*
X135640000Y-127184999D01*
X136140000Y-127184999D01*
X136167319Y-127212318D01*
X136200804Y-127273641D01*
X136195820Y-127343333D01*
X136167320Y-127387680D01*
X136140000Y-127415000D01*
X136140000Y-128252500D01*
X137114999Y-128252500D01*
X137114999Y-128115028D01*
X137114998Y-128115013D01*
X137104505Y-128012302D01*
X137049358Y-127845880D01*
X137049356Y-127845875D01*
X136957315Y-127696654D01*
X136833345Y-127572684D01*
X136684124Y-127480643D01*
X136684119Y-127480641D01*
X136521349Y-127426705D01*
X136463904Y-127386933D01*
X136437081Y-127322417D01*
X136449396Y-127253641D01*
X136496939Y-127202441D01*
X136560353Y-127184999D01*
X137039972Y-127184999D01*
X137039986Y-127184998D01*
X137142697Y-127174505D01*
X137309119Y-127119358D01*
X137309124Y-127119356D01*
X137458345Y-127027315D01*
X137582315Y-126903345D01*
X137674356Y-126754124D01*
X137674358Y-126754119D01*
X137729505Y-126587697D01*
X137729506Y-126587690D01*
X137739999Y-126484986D01*
X137740000Y-126484973D01*
X137740000Y-126272500D01*
X136140000Y-126272500D01*
X136140000Y-127184999D01*
X135640000Y-127184999D01*
X135640000Y-126272500D01*
X134040001Y-126272500D01*
X134040001Y-126484986D01*
X128203805Y-126484986D01*
X128214505Y-126452697D01*
X128214506Y-126452690D01*
X128224999Y-126349986D01*
X128225000Y-126349973D01*
X128225000Y-126245013D01*
X128960000Y-126245013D01*
X128960000Y-126457500D01*
X130560000Y-126457500D01*
X131060000Y-126457500D01*
X132659999Y-126457500D01*
X132659999Y-126245028D01*
X132659997Y-126245003D01*
X132658847Y-126233736D01*
X132649505Y-126142302D01*
X132594358Y-125975880D01*
X132594356Y-125975875D01*
X132502315Y-125826654D01*
X132378345Y-125702684D01*
X132313039Y-125662403D01*
X132229124Y-125610643D01*
X132229119Y-125610641D01*
X132076334Y-125560013D01*
X134040000Y-125560013D01*
X134040000Y-125772500D01*
X135640000Y-125772500D01*
X136140000Y-125772500D01*
X137739999Y-125772500D01*
X137739999Y-125560028D01*
X137739998Y-125560013D01*
X137729505Y-125457302D01*
X137674358Y-125290880D01*
X137674356Y-125290875D01*
X137582315Y-125141654D01*
X137458345Y-125017684D01*
X137309124Y-124925643D01*
X137309119Y-124925641D01*
X137142697Y-124870494D01*
X137142690Y-124870493D01*
X137039986Y-124860000D01*
X136140000Y-124860000D01*
X136140000Y-125772500D01*
X135640000Y-125772500D01*
X135640000Y-124860000D01*
X134740028Y-124860000D01*
X134740012Y-124860001D01*
X134637302Y-124870494D01*
X134470880Y-124925641D01*
X134470875Y-124925643D01*
X134321654Y-125017684D01*
X134197684Y-125141654D01*
X134105643Y-125290875D01*
X134105641Y-125290880D01*
X134050494Y-125457302D01*
X134050493Y-125457309D01*
X134040000Y-125560013D01*
X132076334Y-125560013D01*
X132062697Y-125555494D01*
X132062690Y-125555493D01*
X131959986Y-125545000D01*
X131060000Y-125545000D01*
X131060000Y-126457500D01*
X130560000Y-126457500D01*
X130560000Y-125545000D01*
X129660028Y-125545000D01*
X129660012Y-125545001D01*
X129557302Y-125555494D01*
X129390880Y-125610641D01*
X129390875Y-125610643D01*
X129241654Y-125702684D01*
X129117684Y-125826654D01*
X129025643Y-125975875D01*
X129025641Y-125975880D01*
X128970494Y-126142302D01*
X128970493Y-126142309D01*
X128960000Y-126245013D01*
X128225000Y-126245013D01*
X128225000Y-126212500D01*
X127124000Y-126212500D01*
X127056961Y-126192815D01*
X127011206Y-126140011D01*
X127000000Y-126088500D01*
X127000000Y-125962500D01*
X126874000Y-125962500D01*
X126806961Y-125942815D01*
X126761206Y-125890011D01*
X126750000Y-125838500D01*
X126750000Y-125712500D01*
X127250000Y-125712500D01*
X128224999Y-125712500D01*
X128224999Y-125575028D01*
X128224998Y-125575013D01*
X128214505Y-125472302D01*
X128159358Y-125305880D01*
X128159356Y-125305875D01*
X128067315Y-125156654D01*
X127943345Y-125032684D01*
X127794124Y-124940643D01*
X127794119Y-124940641D01*
X127627697Y-124885494D01*
X127627690Y-124885493D01*
X127524986Y-124875000D01*
X127250000Y-124875000D01*
X127250000Y-125712500D01*
X126750000Y-125712500D01*
X126750000Y-124875000D01*
X126475029Y-124875000D01*
X126475012Y-124875001D01*
X126372302Y-124885494D01*
X126205880Y-124940641D01*
X126205875Y-124940643D01*
X126056654Y-125032684D01*
X125932684Y-125156654D01*
X125840643Y-125305875D01*
X125840641Y-125305880D01*
X125785494Y-125472302D01*
X125785493Y-125472310D01*
X125776754Y-125557848D01*
X125750357Y-125622540D01*
X125693176Y-125662691D01*
X125623365Y-125665554D01*
X125565715Y-125632926D01*
X124240165Y-124307375D01*
X124240161Y-124307372D01*
X124100866Y-124214297D01*
X124100863Y-124214296D01*
X123991416Y-124168962D01*
X123991414Y-124168961D01*
X123946086Y-124150185D01*
X123946074Y-124150182D01*
X123781771Y-124117500D01*
X123781767Y-124117500D01*
X120566233Y-124117500D01*
X120566228Y-124117500D01*
X120401925Y-124150181D01*
X120401916Y-124150184D01*
X120247143Y-124214292D01*
X120247137Y-124214295D01*
X120247137Y-124214296D01*
X120107840Y-124307373D01*
X120107831Y-124307379D01*
X120107830Y-124307380D01*
X118719375Y-125695834D01*
X118719372Y-125695838D01*
X118626299Y-125835130D01*
X118626292Y-125835143D01*
X118580962Y-125944583D01*
X118562185Y-125989913D01*
X118562182Y-125989925D01*
X118529500Y-126154228D01*
X118529500Y-127548848D01*
X118509815Y-127615887D01*
X118493181Y-127636529D01*
X117942180Y-128187530D01*
X117880857Y-128221015D01*
X117811165Y-128216031D01*
X117755232Y-128174159D01*
X117730815Y-128108695D01*
X117730499Y-128099849D01*
X117730499Y-127818877D01*
X117730498Y-127818876D01*
X117727600Y-127776111D01*
X117681641Y-127591307D01*
X117657248Y-127542123D01*
X117597032Y-127420707D01*
X117597030Y-127420704D01*
X117477724Y-127272280D01*
X117477722Y-127272278D01*
X117408112Y-127216324D01*
X117368196Y-127158985D01*
X117365616Y-127089163D01*
X117401194Y-127029030D01*
X117408115Y-127023033D01*
X117477366Y-126967367D01*
X117477367Y-126967366D01*
X117596607Y-126819025D01*
X117596609Y-126819022D01*
X117681168Y-126648523D01*
X117727102Y-126463824D01*
X117730000Y-126421096D01*
X117730000Y-126220000D01*
X114730000Y-126220000D01*
X114730000Y-126421096D01*
X114732897Y-126463824D01*
X114778831Y-126648523D01*
X114863390Y-126819022D01*
X114863392Y-126819025D01*
X114982630Y-126967364D01*
X115051884Y-127023031D01*
X115060250Y-127035049D01*
X115072128Y-127043616D01*
X115079811Y-127063148D01*
X115091803Y-127080375D01*
X115092343Y-127095009D01*
X115097704Y-127108636D01*
X115093607Y-127129220D01*
X115094383Y-127150197D01*
X115086682Y-127164024D01*
X115084068Y-127177162D01*
X115069476Y-127194918D01*
X115063423Y-127205788D01*
X115057983Y-127211423D01*
X114982278Y-127272278D01*
X114897643Y-127377568D01*
X114893744Y-127381609D01*
X114868064Y-127396229D01*
X114843822Y-127413106D01*
X114836263Y-127414335D01*
X114833026Y-127416179D01*
X114826940Y-127415852D01*
X114804518Y-127419500D01*
X112391227Y-127419500D01*
X112226924Y-127452182D01*
X112226912Y-127452185D01*
X112196487Y-127464787D01*
X112196488Y-127464788D01*
X112072132Y-127516297D01*
X111932838Y-127609371D01*
X111905681Y-127636529D01*
X111851527Y-127690682D01*
X111790207Y-127724166D01*
X111763848Y-127727000D01*
X110764983Y-127727000D01*
X110662203Y-127737500D01*
X110662202Y-127737501D01*
X110495663Y-127792686D01*
X110495661Y-127792687D01*
X110346347Y-127884786D01*
X110346343Y-127884789D01*
X110222288Y-128008844D01*
X110222285Y-128008848D01*
X110181114Y-128075597D01*
X110129166Y-128122322D01*
X110075576Y-128134500D01*
X108364423Y-128134500D01*
X108297384Y-128114815D01*
X108258885Y-128075597D01*
X108217713Y-128008848D01*
X108217710Y-128008844D01*
X108093655Y-127884789D01*
X108093651Y-127884786D01*
X107944337Y-127792687D01*
X107944335Y-127792686D01*
X107830524Y-127754973D01*
X107777797Y-127737501D01*
X107777795Y-127737500D01*
X107675015Y-127727000D01*
X107675008Y-127727000D01*
X105684992Y-127727000D01*
X105684984Y-127727000D01*
X105582204Y-127737500D01*
X105582203Y-127737501D01*
X105415664Y-127792686D01*
X105415662Y-127792687D01*
X105266348Y-127884786D01*
X105266344Y-127884789D01*
X105142289Y-128008844D01*
X105142286Y-128008848D01*
X105101115Y-128075597D01*
X105049167Y-128122322D01*
X104995577Y-128134500D01*
X104219499Y-128134500D01*
X104152460Y-128114815D01*
X104106705Y-128062011D01*
X104095499Y-128010500D01*
X104095499Y-128007498D01*
X104095498Y-128007481D01*
X104084999Y-127904703D01*
X104084998Y-127904700D01*
X104070631Y-127861344D01*
X104029814Y-127738166D01*
X103937712Y-127588844D01*
X103813656Y-127464788D01*
X103810342Y-127462743D01*
X103808546Y-127460748D01*
X103807989Y-127460307D01*
X103808064Y-127460211D01*
X103763618Y-127410797D01*
X103752397Y-127341834D01*
X103780240Y-127277752D01*
X103810348Y-127251665D01*
X103813342Y-127249818D01*
X103937315Y-127125845D01*
X104029356Y-126976624D01*
X104029358Y-126976619D01*
X104084505Y-126810197D01*
X104084506Y-126810190D01*
X104094999Y-126707486D01*
X104095000Y-126707473D01*
X104095000Y-126570000D01*
X101645001Y-126570000D01*
X101645001Y-126707486D01*
X101655494Y-126810197D01*
X101710641Y-126976619D01*
X101710643Y-126976624D01*
X101802684Y-127125845D01*
X101926655Y-127249816D01*
X101926659Y-127249819D01*
X101929656Y-127251668D01*
X101931279Y-127253472D01*
X101932323Y-127254298D01*
X101932181Y-127254476D01*
X101976381Y-127303616D01*
X101987602Y-127372579D01*
X101959759Y-127436661D01*
X101948190Y-127448758D01*
X101939576Y-127456626D01*
X101926344Y-127464788D01*
X101880969Y-127510162D01*
X101878901Y-127512052D01*
X101849929Y-127526211D01*
X101821628Y-127541666D01*
X101817375Y-127542123D01*
X101816128Y-127542733D01*
X101814010Y-127542485D01*
X101795270Y-127544500D01*
X101112651Y-127544500D01*
X101045612Y-127524815D01*
X101024970Y-127508181D01*
X100581819Y-127065030D01*
X100548334Y-127003707D01*
X100545500Y-126977349D01*
X100545500Y-126287485D01*
X104985000Y-126287485D01*
X104995493Y-126390189D01*
X104995494Y-126390196D01*
X105050641Y-126556618D01*
X105050643Y-126556623D01*
X105142684Y-126705844D01*
X105266655Y-126829815D01*
X105415876Y-126921856D01*
X105415881Y-126921858D01*
X105582303Y-126977005D01*
X105582310Y-126977006D01*
X105685014Y-126987499D01*
X105685027Y-126987500D01*
X106430000Y-126987500D01*
X106930000Y-126987500D01*
X107674973Y-126987500D01*
X107674985Y-126987499D01*
X107777689Y-126977006D01*
X107777696Y-126977005D01*
X107944118Y-126921858D01*
X107944123Y-126921856D01*
X108093344Y-126829815D01*
X108217315Y-126705844D01*
X108309356Y-126556623D01*
X108309358Y-126556618D01*
X108364505Y-126390196D01*
X108364506Y-126390189D01*
X108374999Y-126287485D01*
X110064999Y-126287485D01*
X110075492Y-126390189D01*
X110075493Y-126390196D01*
X110130640Y-126556618D01*
X110130642Y-126556623D01*
X110222683Y-126705844D01*
X110346654Y-126829815D01*
X110495875Y-126921856D01*
X110495880Y-126921858D01*
X110662302Y-126977005D01*
X110662309Y-126977006D01*
X110765013Y-126987499D01*
X110765026Y-126987500D01*
X111509999Y-126987500D01*
X112009999Y-126987500D01*
X112754972Y-126987500D01*
X112754984Y-126987499D01*
X112857688Y-126977006D01*
X112857695Y-126977005D01*
X113024117Y-126921858D01*
X113024122Y-126921856D01*
X113173343Y-126829815D01*
X113297314Y-126705844D01*
X113389355Y-126556623D01*
X113389357Y-126556618D01*
X113444504Y-126390196D01*
X113444505Y-126390189D01*
X113454998Y-126287485D01*
X113454999Y-126287472D01*
X113454999Y-125980000D01*
X112009999Y-125980000D01*
X112009999Y-126987500D01*
X111509999Y-126987500D01*
X111509999Y-125980000D01*
X110064999Y-125980000D01*
X110064999Y-126287485D01*
X108374999Y-126287485D01*
X108375000Y-126287472D01*
X108375000Y-125980000D01*
X106930000Y-125980000D01*
X106930000Y-126987500D01*
X106430000Y-126987500D01*
X106430000Y-125980000D01*
X104985000Y-125980000D01*
X104985000Y-126287485D01*
X100545500Y-126287485D01*
X100545500Y-125932513D01*
X101645000Y-125932513D01*
X101645000Y-126070000D01*
X102620000Y-126070000D01*
X103120000Y-126070000D01*
X104094999Y-126070000D01*
X104094999Y-125932528D01*
X104094998Y-125932512D01*
X104084505Y-125829802D01*
X104029358Y-125663380D01*
X104029356Y-125663375D01*
X103940244Y-125518903D01*
X114730000Y-125518903D01*
X114730000Y-125720000D01*
X115980000Y-125720000D01*
X116480000Y-125720000D01*
X117730000Y-125720000D01*
X117730000Y-125518903D01*
X117727102Y-125476175D01*
X117681168Y-125291476D01*
X117596609Y-125120977D01*
X117596607Y-125120974D01*
X117477367Y-124972633D01*
X117477366Y-124972632D01*
X117329025Y-124853392D01*
X117329022Y-124853390D01*
X117158523Y-124768831D01*
X116973824Y-124722897D01*
X116931097Y-124720000D01*
X116480000Y-124720000D01*
X116480000Y-125720000D01*
X115980000Y-125720000D01*
X115980000Y-124720000D01*
X115528903Y-124720000D01*
X115486175Y-124722897D01*
X115301476Y-124768831D01*
X115130977Y-124853390D01*
X115130974Y-124853392D01*
X114982633Y-124972632D01*
X114982632Y-124972633D01*
X114863392Y-125120974D01*
X114863390Y-125120977D01*
X114778831Y-125291476D01*
X114732897Y-125476175D01*
X114730000Y-125518903D01*
X103940244Y-125518903D01*
X103937315Y-125514154D01*
X103813345Y-125390184D01*
X103664124Y-125298143D01*
X103664117Y-125298140D01*
X103630711Y-125287071D01*
X103630710Y-125287071D01*
X103497697Y-125242994D01*
X103497690Y-125242993D01*
X103394986Y-125232500D01*
X103120000Y-125232500D01*
X103120000Y-126070000D01*
X102620000Y-126070000D01*
X102620000Y-125232500D01*
X102345029Y-125232500D01*
X102345012Y-125232501D01*
X102242302Y-125242994D01*
X102075880Y-125298141D01*
X102075875Y-125298143D01*
X101926654Y-125390184D01*
X101802684Y-125514154D01*
X101710643Y-125663375D01*
X101710641Y-125663380D01*
X101655494Y-125829802D01*
X101655493Y-125829809D01*
X101645000Y-125932513D01*
X100545500Y-125932513D01*
X100545500Y-125172514D01*
X104985000Y-125172514D01*
X104985000Y-125480000D01*
X106430000Y-125480000D01*
X106930000Y-125480000D01*
X108375000Y-125480000D01*
X108375000Y-125172527D01*
X108374999Y-125172514D01*
X110064999Y-125172514D01*
X110064999Y-125480000D01*
X111509999Y-125480000D01*
X112009999Y-125480000D01*
X113454999Y-125480000D01*
X113454999Y-125172527D01*
X113454998Y-125172514D01*
X113444505Y-125069810D01*
X113444504Y-125069803D01*
X113389357Y-124903381D01*
X113389355Y-124903376D01*
X113297314Y-124754155D01*
X113173343Y-124630184D01*
X113024122Y-124538143D01*
X113024117Y-124538141D01*
X112857695Y-124482994D01*
X112857688Y-124482993D01*
X112754984Y-124472500D01*
X112009999Y-124472500D01*
X112009999Y-125480000D01*
X111509999Y-125480000D01*
X111509999Y-124472500D01*
X110765013Y-124472500D01*
X110662309Y-124482993D01*
X110662302Y-124482994D01*
X110495880Y-124538141D01*
X110495875Y-124538143D01*
X110346654Y-124630184D01*
X110222683Y-124754155D01*
X110130642Y-124903376D01*
X110130640Y-124903381D01*
X110075493Y-125069803D01*
X110075492Y-125069810D01*
X110064999Y-125172514D01*
X108374999Y-125172514D01*
X108364506Y-125069810D01*
X108364505Y-125069803D01*
X108309358Y-124903381D01*
X108309356Y-124903376D01*
X108217315Y-124754155D01*
X108093344Y-124630184D01*
X107944123Y-124538143D01*
X107944118Y-124538141D01*
X107777696Y-124482994D01*
X107777689Y-124482993D01*
X107674985Y-124472500D01*
X106930000Y-124472500D01*
X106930000Y-125480000D01*
X106430000Y-125480000D01*
X106430000Y-124472500D01*
X105685014Y-124472500D01*
X105582310Y-124482993D01*
X105582303Y-124482994D01*
X105415881Y-124538141D01*
X105415876Y-124538143D01*
X105266655Y-124630184D01*
X105142684Y-124754155D01*
X105050643Y-124903376D01*
X105050641Y-124903381D01*
X104995494Y-125069803D01*
X104995493Y-125069810D01*
X104985000Y-125172514D01*
X100545500Y-125172514D01*
X100545500Y-124863650D01*
X100565185Y-124796611D01*
X100581819Y-124775969D01*
X101280969Y-124076819D01*
X101342292Y-124043334D01*
X101368650Y-124040500D01*
X106763768Y-124040500D01*
X106763769Y-124040499D01*
X106818538Y-124029605D01*
X106928074Y-124007818D01*
X106928078Y-124007816D01*
X106928082Y-124007816D01*
X106973415Y-123989037D01*
X107082863Y-123943704D01*
X107222162Y-123850627D01*
X110012970Y-121059817D01*
X110074293Y-121026333D01*
X110100651Y-121023499D01*
X110947657Y-121023499D01*
X110947657Y-121023498D01*
X110990704Y-121020581D01*
X111176775Y-120974307D01*
X111348547Y-120889116D01*
X111497990Y-120768990D01*
X111510508Y-120753417D01*
X112010134Y-120753417D01*
X112022363Y-120768631D01*
X112022368Y-120768636D01*
X112171725Y-120888692D01*
X112171724Y-120888692D01*
X112343397Y-120973834D01*
X112529361Y-121020081D01*
X112529357Y-121020081D01*
X112572395Y-121022999D01*
X113487605Y-121022999D01*
X113487609Y-121022998D01*
X113530632Y-121020082D01*
X113530634Y-121020082D01*
X113716602Y-120973834D01*
X113888272Y-120888693D01*
X114037635Y-120768631D01*
X114049864Y-120753417D01*
X114049864Y-120753416D01*
X113030000Y-119733552D01*
X112010134Y-120753417D01*
X111510508Y-120753417D01*
X111618116Y-120619547D01*
X111703307Y-120447775D01*
X111726323Y-120355222D01*
X111758977Y-120297469D01*
X112765542Y-119290904D01*
X112826865Y-119257419D01*
X112896557Y-119262403D01*
X112940904Y-119290904D01*
X113029999Y-119379999D01*
X113119093Y-119290905D01*
X113180416Y-119257420D01*
X113250108Y-119262404D01*
X113294456Y-119290905D01*
X114301023Y-120297472D01*
X114333676Y-120355226D01*
X114356691Y-120447771D01*
X114356694Y-120447778D01*
X114441881Y-120619543D01*
X114441883Y-120619546D01*
X114562009Y-120768989D01*
X114562010Y-120768990D01*
X114711453Y-120889116D01*
X114711456Y-120889118D01*
X114835551Y-120950663D01*
X114883225Y-120974307D01*
X115014485Y-121006950D01*
X115069291Y-121020580D01*
X115069292Y-121020580D01*
X115069296Y-121020581D01*
X115112343Y-121023500D01*
X116027656Y-121023499D01*
X116070704Y-121020581D01*
X116256775Y-120974307D01*
X116428547Y-120889116D01*
X116577990Y-120768990D01*
X116698116Y-120619547D01*
X116783307Y-120447775D01*
X116829581Y-120261704D01*
X116832500Y-120218657D01*
X116832499Y-118541344D01*
X116829581Y-118498296D01*
X116785311Y-118320283D01*
X116783173Y-118270959D01*
X116810500Y-118098422D01*
X116810500Y-117901577D01*
X116779709Y-117707173D01*
X116751487Y-117620317D01*
X116718884Y-117519975D01*
X116718882Y-117519972D01*
X116718882Y-117519970D01*
X116666141Y-117416461D01*
X116629524Y-117344595D01*
X116513828Y-117185354D01*
X116374646Y-117046172D01*
X116215405Y-116930476D01*
X116197174Y-116921187D01*
X116040029Y-116841117D01*
X115852826Y-116780290D01*
X115658422Y-116749500D01*
X115658417Y-116749500D01*
X115461583Y-116749500D01*
X115461578Y-116749500D01*
X115267173Y-116780290D01*
X115079970Y-116841117D01*
X114904594Y-116930476D01*
X114832977Y-116982510D01*
X114745354Y-117046172D01*
X114745352Y-117046174D01*
X114745351Y-117046174D01*
X114606174Y-117185351D01*
X114606174Y-117185352D01*
X114606172Y-117185354D01*
X114591535Y-117205500D01*
X114490476Y-117344594D01*
X114400204Y-117521764D01*
X114352229Y-117572560D01*
X114284408Y-117589355D01*
X114218274Y-117566818D01*
X114179234Y-117521764D01*
X114089096Y-117344858D01*
X114063678Y-117309873D01*
X114063677Y-117309873D01*
X113441725Y-117931826D01*
X113416037Y-117835956D01*
X113360084Y-117739044D01*
X113280956Y-117659916D01*
X113184044Y-117603963D01*
X113088171Y-117578274D01*
X113710125Y-116956320D01*
X113710125Y-116956319D01*
X113675145Y-116930905D01*
X113499835Y-116841581D01*
X113312705Y-116780778D01*
X113312707Y-116780778D01*
X113198530Y-116762694D01*
X113135396Y-116732764D01*
X113098465Y-116673453D01*
X113099463Y-116603590D01*
X113130246Y-116552542D01*
X115480140Y-114202648D01*
X126964500Y-114202648D01*
X126964500Y-114407351D01*
X126996522Y-114609534D01*
X127059781Y-114804223D01*
X127152715Y-114986613D01*
X127273028Y-115152213D01*
X127417786Y-115296971D01*
X127572749Y-115409556D01*
X127583390Y-115417287D01*
X127689701Y-115471455D01*
X127765776Y-115510218D01*
X127765778Y-115510218D01*
X127765781Y-115510220D01*
X127856856Y-115539812D01*
X127960465Y-115573477D01*
X128061557Y-115589488D01*
X128162648Y-115605500D01*
X128162649Y-115605500D01*
X128367351Y-115605500D01*
X128367352Y-115605500D01*
X128569534Y-115573477D01*
X128764219Y-115510220D01*
X128946610Y-115417287D01*
X129075482Y-115323657D01*
X129112213Y-115296971D01*
X129112215Y-115296968D01*
X129112219Y-115296966D01*
X129256966Y-115152219D01*
X129256968Y-115152215D01*
X129256971Y-115152213D01*
X129361892Y-115007799D01*
X129377287Y-114986610D01*
X129470220Y-114804219D01*
X129533477Y-114609534D01*
X129565500Y-114407352D01*
X129565500Y-114202648D01*
X129533477Y-114000466D01*
X129470220Y-113805781D01*
X129470218Y-113805778D01*
X129470218Y-113805776D01*
X129436503Y-113739607D01*
X129377287Y-113623390D01*
X129356072Y-113594190D01*
X129256971Y-113457786D01*
X129112213Y-113313028D01*
X128946611Y-113192713D01*
X128853369Y-113145203D01*
X128802574Y-113097229D01*
X128785779Y-113029407D01*
X128808317Y-112963273D01*
X128853371Y-112924234D01*
X128946346Y-112876861D01*
X128946347Y-112876861D01*
X128990921Y-112844474D01*
X128311447Y-112165000D01*
X128317661Y-112165000D01*
X128419394Y-112137741D01*
X128510606Y-112085080D01*
X128585080Y-112010606D01*
X128637741Y-111919394D01*
X128665000Y-111817661D01*
X128665000Y-111811447D01*
X129344474Y-112490921D01*
X129376859Y-112446349D01*
X129469755Y-112264031D01*
X129532990Y-112069417D01*
X129565000Y-111867317D01*
X129565000Y-111662682D01*
X129532990Y-111460582D01*
X129469755Y-111265968D01*
X129376859Y-111083650D01*
X129344474Y-111039077D01*
X129344474Y-111039076D01*
X128665000Y-111718551D01*
X128665000Y-111712339D01*
X128637741Y-111610606D01*
X128585080Y-111519394D01*
X128510606Y-111444920D01*
X128419394Y-111392259D01*
X128317661Y-111365000D01*
X128311446Y-111365000D01*
X128990922Y-110685524D01*
X128990921Y-110685523D01*
X128946359Y-110653147D01*
X128946350Y-110653141D01*
X128764031Y-110560244D01*
X128569417Y-110497009D01*
X128367317Y-110465000D01*
X128162683Y-110465000D01*
X127960582Y-110497009D01*
X127765968Y-110560244D01*
X127583644Y-110653143D01*
X127539077Y-110685523D01*
X127539077Y-110685524D01*
X128218554Y-111365000D01*
X128212339Y-111365000D01*
X128110606Y-111392259D01*
X128019394Y-111444920D01*
X127944920Y-111519394D01*
X127892259Y-111610606D01*
X127865000Y-111712339D01*
X127865000Y-111718553D01*
X127185524Y-111039077D01*
X127185523Y-111039077D01*
X127153143Y-111083644D01*
X127060244Y-111265968D01*
X126997009Y-111460582D01*
X126965000Y-111662682D01*
X126965000Y-111867317D01*
X126997009Y-112069417D01*
X127060244Y-112264031D01*
X127153141Y-112446350D01*
X127153147Y-112446359D01*
X127185523Y-112490921D01*
X127185524Y-112490922D01*
X127865000Y-111811446D01*
X127865000Y-111817661D01*
X127892259Y-111919394D01*
X127944920Y-112010606D01*
X128019394Y-112085080D01*
X128110606Y-112137741D01*
X128212339Y-112165000D01*
X128218553Y-112165000D01*
X127539076Y-112844474D01*
X127583652Y-112876861D01*
X127676628Y-112924234D01*
X127727425Y-112972208D01*
X127744220Y-113040029D01*
X127721683Y-113106164D01*
X127676630Y-113145203D01*
X127583388Y-113192713D01*
X127417786Y-113313028D01*
X127273028Y-113457786D01*
X127152715Y-113623386D01*
X127059781Y-113805776D01*
X126996522Y-114000465D01*
X126964500Y-114202648D01*
X115480140Y-114202648D01*
X121085507Y-108597282D01*
X123100142Y-106582648D01*
X126964500Y-106582648D01*
X126964500Y-106787351D01*
X126996522Y-106989534D01*
X127059781Y-107184223D01*
X127111135Y-107285009D01*
X127141527Y-107344657D01*
X127152715Y-107366613D01*
X127273028Y-107532213D01*
X127417786Y-107676971D01*
X127539640Y-107765501D01*
X127583390Y-107797287D01*
X127699607Y-107856503D01*
X127765776Y-107890218D01*
X127765778Y-107890218D01*
X127765781Y-107890220D01*
X127841477Y-107914815D01*
X127960465Y-107953477D01*
X128061557Y-107969488D01*
X128162648Y-107985500D01*
X128162649Y-107985500D01*
X128367351Y-107985500D01*
X128367352Y-107985500D01*
X128569534Y-107953477D01*
X128764219Y-107890220D01*
X128946610Y-107797287D01*
X129041994Y-107727987D01*
X129112213Y-107676971D01*
X129112215Y-107676968D01*
X129112219Y-107676966D01*
X129256966Y-107532219D01*
X129256968Y-107532215D01*
X129256971Y-107532213D01*
X129323240Y-107441000D01*
X129377287Y-107366610D01*
X129470220Y-107184219D01*
X129533477Y-106989534D01*
X129565500Y-106787352D01*
X129565500Y-106582648D01*
X129533477Y-106380466D01*
X129530258Y-106370560D01*
X129500225Y-106278127D01*
X129470220Y-106185781D01*
X129470218Y-106185778D01*
X129470218Y-106185776D01*
X129418865Y-106084991D01*
X129377287Y-106003390D01*
X129360968Y-105980928D01*
X129256971Y-105837786D01*
X129112213Y-105693028D01*
X128946611Y-105572713D01*
X128853369Y-105525203D01*
X128802574Y-105477229D01*
X128785779Y-105409407D01*
X128808317Y-105343273D01*
X128853371Y-105304234D01*
X128946346Y-105256861D01*
X128946347Y-105256861D01*
X128990921Y-105224474D01*
X128311447Y-104545000D01*
X128317661Y-104545000D01*
X128419394Y-104517741D01*
X128510606Y-104465080D01*
X128585080Y-104390606D01*
X128637741Y-104299394D01*
X128665000Y-104197661D01*
X128665000Y-104191447D01*
X129344474Y-104870921D01*
X129376859Y-104826349D01*
X129469755Y-104644031D01*
X129532990Y-104449417D01*
X129565000Y-104247317D01*
X129565000Y-104042682D01*
X129532990Y-103840582D01*
X129469755Y-103645968D01*
X129376859Y-103463650D01*
X129344474Y-103419077D01*
X129344474Y-103419076D01*
X128665000Y-104098551D01*
X128665000Y-104092339D01*
X128637741Y-103990606D01*
X128585080Y-103899394D01*
X128510606Y-103824920D01*
X128419394Y-103772259D01*
X128317661Y-103745000D01*
X128311446Y-103745000D01*
X128990922Y-103065524D01*
X128990921Y-103065523D01*
X128946359Y-103033147D01*
X128946350Y-103033141D01*
X128764031Y-102940244D01*
X128569417Y-102877009D01*
X128367317Y-102845000D01*
X128162683Y-102845000D01*
X127960582Y-102877009D01*
X127765968Y-102940244D01*
X127583644Y-103033143D01*
X127539077Y-103065523D01*
X127539077Y-103065524D01*
X128218554Y-103745000D01*
X128212339Y-103745000D01*
X128110606Y-103772259D01*
X128019394Y-103824920D01*
X127944920Y-103899394D01*
X127892259Y-103990606D01*
X127865000Y-104092339D01*
X127865000Y-104098553D01*
X127185524Y-103419077D01*
X127185523Y-103419077D01*
X127153143Y-103463644D01*
X127060244Y-103645968D01*
X126997009Y-103840582D01*
X126965000Y-104042682D01*
X126965000Y-104247317D01*
X126997009Y-104449417D01*
X127060244Y-104644031D01*
X127153141Y-104826350D01*
X127153147Y-104826359D01*
X127185523Y-104870921D01*
X127185524Y-104870922D01*
X127865000Y-104191446D01*
X127865000Y-104197661D01*
X127892259Y-104299394D01*
X127944920Y-104390606D01*
X128019394Y-104465080D01*
X128110606Y-104517741D01*
X128212339Y-104545000D01*
X128218553Y-104545000D01*
X127539076Y-105224474D01*
X127583652Y-105256861D01*
X127676628Y-105304234D01*
X127727425Y-105352208D01*
X127744220Y-105420029D01*
X127721683Y-105486164D01*
X127676630Y-105525203D01*
X127583388Y-105572713D01*
X127417786Y-105693028D01*
X127273028Y-105837786D01*
X127152715Y-106003386D01*
X127059781Y-106185776D01*
X126996522Y-106380465D01*
X126964500Y-106582648D01*
X123100142Y-106582648D01*
X123192695Y-106490095D01*
X123570516Y-106112273D01*
X123570519Y-106112270D01*
X123663596Y-105972971D01*
X123710530Y-105859660D01*
X123727708Y-105818190D01*
X123760392Y-105653875D01*
X123760392Y-97653650D01*
X123780077Y-97586611D01*
X123796706Y-97565974D01*
X124247752Y-97114928D01*
X124309071Y-97081446D01*
X124378762Y-97086430D01*
X124426835Y-97118821D01*
X124459999Y-97154999D01*
X124460000Y-97155000D01*
X128868702Y-97109075D01*
X128935940Y-97128060D01*
X128982243Y-97180384D01*
X128992906Y-97249436D01*
X128964545Y-97313290D01*
X128908310Y-97350999D01*
X128710003Y-97415433D01*
X128499566Y-97522657D01*
X128478051Y-97538289D01*
X128308490Y-97661483D01*
X128308488Y-97661485D01*
X128308487Y-97661485D01*
X128141485Y-97828487D01*
X128141485Y-97828488D01*
X128141483Y-97828490D01*
X128141476Y-97828500D01*
X128002657Y-98019566D01*
X127895433Y-98230003D01*
X127822446Y-98454631D01*
X127785500Y-98687902D01*
X127785500Y-98924097D01*
X127822446Y-99157368D01*
X127895433Y-99381996D01*
X127995039Y-99577481D01*
X128002657Y-99592433D01*
X128141483Y-99783510D01*
X128308490Y-99950517D01*
X128499567Y-100089343D01*
X128598991Y-100140002D01*
X128710003Y-100196566D01*
X128710005Y-100196566D01*
X128710008Y-100196568D01*
X128739037Y-100206000D01*
X128934631Y-100269553D01*
X129167903Y-100306500D01*
X129167908Y-100306500D01*
X129912097Y-100306500D01*
X130145368Y-100269553D01*
X130155617Y-100266223D01*
X130369992Y-100196568D01*
X130580434Y-100089343D01*
X130771510Y-99950517D01*
X130917014Y-99805013D01*
X138612500Y-99805013D01*
X138612500Y-100080000D01*
X139450000Y-100080000D01*
X139450000Y-99105000D01*
X139312527Y-99105000D01*
X139312512Y-99105001D01*
X139209802Y-99115494D01*
X139043380Y-99170641D01*
X139043375Y-99170643D01*
X138894154Y-99262684D01*
X138770184Y-99386654D01*
X138678143Y-99535875D01*
X138678141Y-99535880D01*
X138622994Y-99702302D01*
X138622993Y-99702309D01*
X138612500Y-99805013D01*
X130917014Y-99805013D01*
X133627109Y-97094917D01*
X133688428Y-97061435D01*
X133713480Y-97058609D01*
X138776360Y-97005871D01*
X138843598Y-97024855D01*
X138889901Y-97077179D01*
X138899266Y-97105671D01*
X138930261Y-97261491D01*
X138930264Y-97261501D01*
X138990602Y-97407172D01*
X138990609Y-97407185D01*
X139078210Y-97538288D01*
X139078213Y-97538292D01*
X139189707Y-97649786D01*
X139189711Y-97649789D01*
X139320814Y-97737390D01*
X139320827Y-97737397D01*
X139435079Y-97784721D01*
X139466503Y-97797737D01*
X139621093Y-97828487D01*
X139621153Y-97828499D01*
X139621156Y-97828500D01*
X139621158Y-97828500D01*
X139778844Y-97828500D01*
X139778845Y-97828499D01*
X139933497Y-97797737D01*
X140079179Y-97737394D01*
X140210289Y-97649789D01*
X140321789Y-97538289D01*
X140409394Y-97407179D01*
X140469737Y-97261497D01*
X140500500Y-97106842D01*
X140500500Y-97106835D01*
X140501097Y-97100782D01*
X140503325Y-97101001D01*
X140520185Y-97043586D01*
X140572989Y-96997831D01*
X140623202Y-96986633D01*
X143654208Y-96955060D01*
X143721449Y-96974045D01*
X143767752Y-97026369D01*
X143779500Y-97079053D01*
X143779500Y-104585500D01*
X143759815Y-104652539D01*
X143707011Y-104698294D01*
X143655500Y-104709500D01*
X142851003Y-104709500D01*
X142742590Y-104731065D01*
X142742589Y-104731065D01*
X142715671Y-104736420D01*
X142588190Y-104789224D01*
X142473454Y-104865887D01*
X142473453Y-104865888D01*
X141671161Y-105668181D01*
X141644233Y-105682884D01*
X141618415Y-105699477D01*
X141612214Y-105700368D01*
X141609838Y-105701666D01*
X141583480Y-105704500D01*
X141533751Y-105704500D01*
X141466712Y-105684815D01*
X141420957Y-105632011D01*
X141409751Y-105580500D01*
X141409751Y-103973346D01*
X141429436Y-103906307D01*
X141446070Y-103885665D01*
X141449917Y-103881818D01*
X141511240Y-103848333D01*
X141537598Y-103845499D01*
X141949170Y-103845499D01*
X141949176Y-103845499D01*
X142050253Y-103835174D01*
X142214016Y-103780908D01*
X142360850Y-103690340D01*
X142482840Y-103568350D01*
X142573408Y-103421516D01*
X142627674Y-103257753D01*
X142638000Y-103156677D01*
X142637999Y-102583324D01*
X142636724Y-102570846D01*
X142627674Y-102482247D01*
X142619223Y-102456743D01*
X142573408Y-102318484D01*
X142482840Y-102171650D01*
X142360850Y-102049660D01*
X142214016Y-101959092D01*
X142050253Y-101904826D01*
X142050251Y-101904825D01*
X141949184Y-101894500D01*
X141429806Y-101894500D01*
X141408560Y-101888261D01*
X141386472Y-101886682D01*
X141375687Y-101878609D01*
X141362767Y-101874815D01*
X141348268Y-101858083D01*
X141330538Y-101844810D01*
X141325830Y-101832188D01*
X141317012Y-101822011D01*
X141313860Y-101800094D01*
X141306122Y-101779345D01*
X141308984Y-101766184D01*
X141307068Y-101752853D01*
X141316267Y-101732709D01*
X141320974Y-101711073D01*
X141334243Y-101693346D01*
X141336093Y-101689297D01*
X141342098Y-101682846D01*
X141433129Y-101591815D01*
X141494451Y-101558333D01*
X141520808Y-101555499D01*
X142162502Y-101555499D01*
X142162508Y-101555499D01*
X142265297Y-101544999D01*
X142431834Y-101489814D01*
X142581156Y-101397712D01*
X142705212Y-101273656D01*
X142797314Y-101124334D01*
X142852499Y-100957797D01*
X142863000Y-100855009D01*
X142862999Y-99804992D01*
X142858799Y-99763881D01*
X142852499Y-99702203D01*
X142852498Y-99702200D01*
X142844709Y-99678694D01*
X142797314Y-99535666D01*
X142705212Y-99386344D01*
X142581156Y-99262288D01*
X142431834Y-99170186D01*
X142265297Y-99115001D01*
X142265295Y-99115000D01*
X142162510Y-99104500D01*
X141387498Y-99104500D01*
X141387480Y-99104501D01*
X141284703Y-99115000D01*
X141284700Y-99115001D01*
X141118168Y-99170185D01*
X141118163Y-99170187D01*
X140968842Y-99262289D01*
X140844788Y-99386343D01*
X140844783Y-99386349D01*
X140842741Y-99389661D01*
X140840747Y-99391453D01*
X140840307Y-99392011D01*
X140840211Y-99391935D01*
X140790791Y-99436383D01*
X140721828Y-99447602D01*
X140657747Y-99419755D01*
X140631668Y-99389656D01*
X140629819Y-99386659D01*
X140629816Y-99386655D01*
X140505845Y-99262684D01*
X140356624Y-99170643D01*
X140356619Y-99170641D01*
X140190197Y-99115494D01*
X140190190Y-99115493D01*
X140087486Y-99105000D01*
X139950000Y-99105000D01*
X139950000Y-100206000D01*
X139930315Y-100273039D01*
X139877511Y-100318794D01*
X139826000Y-100330000D01*
X139700000Y-100330000D01*
X139700000Y-100456000D01*
X139680315Y-100523039D01*
X139627511Y-100568794D01*
X139576000Y-100580000D01*
X138612501Y-100580000D01*
X138612501Y-100854986D01*
X138622994Y-100957697D01*
X138650431Y-101040496D01*
X138652833Y-101110324D01*
X138617101Y-101170366D01*
X138554581Y-101201559D01*
X138532725Y-101203500D01*
X137156935Y-101203500D01*
X137089896Y-101183815D01*
X137088090Y-101182633D01*
X137031179Y-101144606D01*
X137031172Y-101144602D01*
X136885501Y-101084264D01*
X136885489Y-101084261D01*
X136730845Y-101053500D01*
X136730842Y-101053500D01*
X136573158Y-101053500D01*
X136573155Y-101053500D01*
X136418510Y-101084261D01*
X136418498Y-101084264D01*
X136272827Y-101144602D01*
X136272814Y-101144609D01*
X136141711Y-101232210D01*
X136141707Y-101232213D01*
X136030213Y-101343707D01*
X136030210Y-101343711D01*
X135942609Y-101474814D01*
X135942602Y-101474827D01*
X135882264Y-101620498D01*
X135882261Y-101620510D01*
X135851500Y-101775153D01*
X135851500Y-101932846D01*
X135882261Y-102087489D01*
X135882264Y-102087501D01*
X135942602Y-102233172D01*
X135942609Y-102233185D01*
X136030210Y-102364288D01*
X136030213Y-102364292D01*
X136141707Y-102475786D01*
X136141711Y-102475789D01*
X136272814Y-102563390D01*
X136272821Y-102563394D01*
X136345003Y-102593292D01*
X136370554Y-102613882D01*
X136396816Y-102633542D01*
X136397617Y-102635690D01*
X136399404Y-102637130D01*
X136409768Y-102668269D01*
X136421233Y-102699006D01*
X136420745Y-102701247D01*
X136421470Y-102703424D01*
X136413354Y-102735223D01*
X136406381Y-102767279D01*
X136404548Y-102769726D01*
X136404192Y-102771124D01*
X136385230Y-102795533D01*
X136329842Y-102850921D01*
X136268519Y-102884406D01*
X136203848Y-102881173D01*
X136189534Y-102876522D01*
X136014995Y-102848878D01*
X135987352Y-102844500D01*
X135782648Y-102844500D01*
X135758329Y-102848351D01*
X135580465Y-102876522D01*
X135385776Y-102939781D01*
X135203386Y-103032715D01*
X135037786Y-103153028D01*
X134893028Y-103297786D01*
X134772715Y-103463386D01*
X134679781Y-103645776D01*
X134616522Y-103840465D01*
X134584500Y-104042648D01*
X134584500Y-104247351D01*
X134616522Y-104449534D01*
X134679781Y-104644223D01*
X134713042Y-104709500D01*
X134772585Y-104826359D01*
X134772715Y-104826613D01*
X134893028Y-104992213D01*
X134893034Y-104992219D01*
X135037781Y-105136966D01*
X135131452Y-105205021D01*
X135174117Y-105260350D01*
X135180096Y-105329963D01*
X135147491Y-105391759D01*
X135097571Y-105423045D01*
X135015666Y-105450186D01*
X135015663Y-105450187D01*
X134866342Y-105542289D01*
X134742289Y-105666342D01*
X134650187Y-105815663D01*
X134650186Y-105815665D01*
X134650186Y-105815666D01*
X134595001Y-105982203D01*
X134595001Y-105982204D01*
X134595000Y-105982204D01*
X134584500Y-106084983D01*
X134584500Y-107084902D01*
X134564815Y-107151941D01*
X134548181Y-107172583D01*
X133123481Y-108597282D01*
X133123479Y-108597285D01*
X133073361Y-108684094D01*
X133073359Y-108684096D01*
X133044425Y-108734209D01*
X133044424Y-108734210D01*
X133044423Y-108734215D01*
X133003499Y-108886943D01*
X133003499Y-108886945D01*
X133003499Y-109055046D01*
X133003500Y-109055059D01*
X133003500Y-111937330D01*
X133003499Y-111937348D01*
X133003499Y-112103054D01*
X133003498Y-112103054D01*
X133009513Y-112125500D01*
X133044423Y-112255785D01*
X133072548Y-112304499D01*
X133123477Y-112392712D01*
X133123481Y-112392717D01*
X133242349Y-112511585D01*
X133242355Y-112511590D01*
X134548181Y-113817416D01*
X134581666Y-113878739D01*
X134584500Y-113905097D01*
X134584500Y-114905001D01*
X134584501Y-114905019D01*
X134595000Y-115007796D01*
X134595001Y-115007799D01*
X134642856Y-115152213D01*
X134650186Y-115174334D01*
X134742288Y-115323656D01*
X134866344Y-115447712D01*
X135015666Y-115539814D01*
X135182203Y-115594999D01*
X135284991Y-115605500D01*
X136485008Y-115605499D01*
X136587797Y-115594999D01*
X136754334Y-115539814D01*
X136903656Y-115447712D01*
X137027712Y-115323656D01*
X137119814Y-115174334D01*
X137174999Y-115007797D01*
X137185500Y-114905009D01*
X137185499Y-113704992D01*
X137174999Y-113602203D01*
X137119814Y-113435666D01*
X137027712Y-113286344D01*
X136903656Y-113162288D01*
X136754334Y-113070186D01*
X136672427Y-113043044D01*
X136614984Y-113003272D01*
X136588161Y-112938756D01*
X136600476Y-112869980D01*
X136638547Y-112825021D01*
X136732219Y-112756966D01*
X136876966Y-112612219D01*
X136876968Y-112612215D01*
X136876971Y-112612213D01*
X136997284Y-112446614D01*
X136997283Y-112446614D01*
X136997287Y-112446610D01*
X137004117Y-112433204D01*
X137052091Y-112382409D01*
X137114602Y-112365500D01*
X138112331Y-112365500D01*
X138112347Y-112365501D01*
X138119943Y-112365501D01*
X138278054Y-112365501D01*
X138278057Y-112365501D01*
X138430785Y-112324577D01*
X138501932Y-112283500D01*
X138567716Y-112245520D01*
X138679520Y-112133716D01*
X138679520Y-112133714D01*
X138689721Y-112123514D01*
X138689724Y-112123509D01*
X139178417Y-111634817D01*
X139239739Y-111601335D01*
X139266097Y-111598501D01*
X139299054Y-111598501D01*
X139299057Y-111598501D01*
X139451785Y-111557577D01*
X139501904Y-111528639D01*
X139582498Y-111482109D01*
X139644495Y-111465499D01*
X140064670Y-111465499D01*
X140064676Y-111465499D01*
X140165753Y-111455174D01*
X140329516Y-111400908D01*
X140476350Y-111310340D01*
X140515319Y-111271371D01*
X140576642Y-111237886D01*
X140646334Y-111242870D01*
X140690681Y-111271371D01*
X140729650Y-111310340D01*
X140876484Y-111400908D01*
X140927005Y-111417648D01*
X140984449Y-111457420D01*
X141011272Y-111521936D01*
X141012000Y-111535354D01*
X141012000Y-112365229D01*
X140992315Y-112432268D01*
X140969499Y-112458685D01*
X140961796Y-112465401D01*
X140913344Y-112495288D01*
X140816680Y-112591951D01*
X140813499Y-112594726D01*
X140785451Y-112607641D01*
X140758358Y-112622436D01*
X140754001Y-112622124D01*
X140750035Y-112623951D01*
X140719464Y-112619654D01*
X140688666Y-112617452D01*
X140684432Y-112614731D01*
X140680846Y-112614227D01*
X140672596Y-112607124D01*
X140644319Y-112588951D01*
X140550657Y-112495289D01*
X140550656Y-112495288D01*
X140401334Y-112403186D01*
X140234797Y-112348001D01*
X140234795Y-112348000D01*
X140132010Y-112337500D01*
X139331998Y-112337500D01*
X139331980Y-112337501D01*
X139229203Y-112348000D01*
X139229200Y-112348001D01*
X139062668Y-112403185D01*
X139062663Y-112403187D01*
X138913342Y-112495289D01*
X138789289Y-112619342D01*
X138697187Y-112768663D01*
X138697186Y-112768666D01*
X138642001Y-112935203D01*
X138642001Y-112935204D01*
X138642000Y-112935204D01*
X138631500Y-113037983D01*
X138631500Y-114038001D01*
X138631501Y-114038019D01*
X138642000Y-114140796D01*
X138642001Y-114140799D01*
X138697185Y-114307331D01*
X138697187Y-114307336D01*
X138789289Y-114456657D01*
X138913344Y-114580712D01*
X138978096Y-114620651D01*
X139024821Y-114672599D01*
X139037000Y-114726190D01*
X139037000Y-116046506D01*
X139037000Y-116184494D01*
X139037000Y-116184496D01*
X139036999Y-116184496D01*
X139063918Y-116319822D01*
X139063921Y-116319832D01*
X139116722Y-116447307D01*
X139193387Y-116562045D01*
X139552529Y-116921187D01*
X139586014Y-116982510D01*
X139581030Y-117052202D01*
X139552529Y-117096549D01*
X137035899Y-119613181D01*
X136974576Y-119646666D01*
X136948218Y-119649500D01*
X135791457Y-119649500D01*
X135598170Y-119687947D01*
X135598160Y-119687950D01*
X135416092Y-119763364D01*
X135416079Y-119763371D01*
X135252218Y-119872860D01*
X135252214Y-119872863D01*
X135112863Y-120012214D01*
X135112860Y-120012218D01*
X135003371Y-120176079D01*
X135003364Y-120176092D01*
X134927950Y-120358160D01*
X134927947Y-120358170D01*
X134889500Y-120551456D01*
X134889500Y-121610500D01*
X134869815Y-121677539D01*
X134817011Y-121723294D01*
X134765504Y-121734500D01*
X134740000Y-121734500D01*
X134739980Y-121734501D01*
X134637203Y-121745000D01*
X134637200Y-121745001D01*
X134470668Y-121800185D01*
X134470663Y-121800187D01*
X134321342Y-121892289D01*
X134197289Y-122016342D01*
X134105187Y-122165663D01*
X134105185Y-122165668D01*
X134100442Y-122179982D01*
X134050001Y-122332203D01*
X134050001Y-122332204D01*
X134050000Y-122332204D01*
X134039500Y-122434983D01*
X134039500Y-123360001D01*
X134039501Y-123360019D01*
X134050000Y-123462796D01*
X134050001Y-123462799D01*
X134105185Y-123629331D01*
X134105186Y-123629334D01*
X134197288Y-123778656D01*
X134321344Y-123902712D01*
X134470666Y-123994814D01*
X134637203Y-124049999D01*
X134739991Y-124060500D01*
X136100106Y-124060499D01*
X136147558Y-124069938D01*
X136210667Y-124096078D01*
X136210672Y-124096080D01*
X136210676Y-124096080D01*
X136210677Y-124096081D01*
X136346004Y-124123000D01*
X136346007Y-124123000D01*
X138497912Y-124123000D01*
X138564951Y-124142685D01*
X138603449Y-124181901D01*
X138632288Y-124228656D01*
X138632289Y-124228657D01*
X138756346Y-124352714D01*
X138759182Y-124354463D01*
X138760717Y-124356170D01*
X138762011Y-124357193D01*
X138761836Y-124357414D01*
X138805905Y-124406411D01*
X138817126Y-124475374D01*
X138789282Y-124539456D01*
X138759182Y-124565537D01*
X138756346Y-124567285D01*
X138632289Y-124691342D01*
X138540187Y-124840663D01*
X138540185Y-124840668D01*
X138528383Y-124876284D01*
X138485001Y-125007203D01*
X138485001Y-125007204D01*
X138485000Y-125007204D01*
X138474500Y-125109983D01*
X138474500Y-125885001D01*
X138474501Y-125885019D01*
X138485000Y-125987796D01*
X138485001Y-125987799D01*
X138535440Y-126140011D01*
X138540186Y-126154334D01*
X138632288Y-126303656D01*
X138756344Y-126427712D01*
X138905666Y-126519814D01*
X139072203Y-126574999D01*
X139174991Y-126585500D01*
X140114191Y-126585499D01*
X140181230Y-126605183D01*
X140201872Y-126621818D01*
X143258181Y-129678127D01*
X143291666Y-129739450D01*
X143294500Y-129765808D01*
X143294500Y-130147869D01*
X143294501Y-130147876D01*
X143300908Y-130207483D01*
X143351202Y-130342328D01*
X143351206Y-130342335D01*
X143437452Y-130457544D01*
X143437455Y-130457547D01*
X143552664Y-130543793D01*
X143552671Y-130543797D01*
X143579255Y-130553712D01*
X143687517Y-130594091D01*
X143747127Y-130600500D01*
X144352872Y-130600499D01*
X144412483Y-130594091D01*
X144507382Y-130558695D01*
X144577072Y-130553712D01*
X144594047Y-130558696D01*
X144687620Y-130593596D01*
X144687627Y-130593598D01*
X144747155Y-130599999D01*
X144747172Y-130600000D01*
X144800000Y-130600000D01*
X144800000Y-130205671D01*
X144800711Y-130192415D01*
X144800972Y-130189991D01*
X144805500Y-130147873D01*
X144805499Y-128952128D01*
X144800710Y-128907577D01*
X144800000Y-128894324D01*
X144800000Y-128500000D01*
X144747155Y-128500000D01*
X144687627Y-128506401D01*
X144687616Y-128506403D01*
X144594046Y-128541303D01*
X144524355Y-128546287D01*
X144507381Y-128541303D01*
X144412482Y-128505908D01*
X144412483Y-128505908D01*
X144352883Y-128499501D01*
X144352881Y-128499500D01*
X144352873Y-128499500D01*
X144352865Y-128499500D01*
X143970808Y-128499500D01*
X143903769Y-128479815D01*
X143883127Y-128463181D01*
X143174932Y-127754986D01*
X153090001Y-127754986D01*
X153100494Y-127857697D01*
X153155641Y-128024119D01*
X153155643Y-128024124D01*
X153247684Y-128173345D01*
X153371654Y-128297315D01*
X153520875Y-128389356D01*
X153520880Y-128389358D01*
X153687302Y-128444505D01*
X153687309Y-128444506D01*
X153790019Y-128454999D01*
X154689999Y-128454999D01*
X155190000Y-128454999D01*
X156089972Y-128454999D01*
X156089986Y-128454998D01*
X156192697Y-128444505D01*
X156359119Y-128389358D01*
X156359124Y-128389356D01*
X156508345Y-128297315D01*
X156632315Y-128173345D01*
X156724356Y-128024124D01*
X156724358Y-128024119D01*
X156779505Y-127857697D01*
X156779506Y-127857690D01*
X156789999Y-127754986D01*
X156790000Y-127754973D01*
X156790000Y-127542500D01*
X155190000Y-127542500D01*
X155190000Y-128454999D01*
X154689999Y-128454999D01*
X154690000Y-128454998D01*
X154690000Y-127542500D01*
X153090001Y-127542500D01*
X153090001Y-127754986D01*
X143174932Y-127754986D01*
X142012127Y-126592181D01*
X141978642Y-126530858D01*
X141983626Y-126461166D01*
X142025498Y-126405233D01*
X142090962Y-126380816D01*
X142099808Y-126380500D01*
X144341071Y-126380500D01*
X144425615Y-126363682D01*
X144466744Y-126355501D01*
X144585127Y-126306465D01*
X144589322Y-126303661D01*
X144589332Y-126303658D01*
X144589331Y-126303657D01*
X144677113Y-126245003D01*
X144691669Y-126235277D01*
X145304724Y-125622220D01*
X145366047Y-125588736D01*
X145435738Y-125593720D01*
X145491672Y-125635591D01*
X145495507Y-125641012D01*
X145544721Y-125714667D01*
X145544727Y-125714674D01*
X146065325Y-126235272D01*
X146065332Y-126235278D01*
X146167667Y-126303656D01*
X146167671Y-126303657D01*
X146171873Y-126306465D01*
X146290256Y-126355501D01*
X146290260Y-126355501D01*
X146290261Y-126355502D01*
X146415928Y-126380500D01*
X146415931Y-126380500D01*
X153045113Y-126380500D01*
X153112152Y-126400185D01*
X153157907Y-126452989D01*
X153167851Y-126522147D01*
X153157496Y-126556904D01*
X153155641Y-126560881D01*
X153100494Y-126727302D01*
X153100493Y-126727309D01*
X153090000Y-126830013D01*
X153090000Y-127042500D01*
X156789999Y-127042500D01*
X156789999Y-126830028D01*
X156789998Y-126830016D01*
X156784451Y-126775720D01*
X156797220Y-126707027D01*
X156845100Y-126656142D01*
X156912890Y-126639221D01*
X156979066Y-126661636D01*
X156995490Y-126675436D01*
X158004162Y-127684108D01*
X158037647Y-127745431D01*
X158032663Y-127815123D01*
X158006654Y-127855592D01*
X158006766Y-127855681D01*
X158005864Y-127856821D01*
X158004162Y-127859470D01*
X158002289Y-127861342D01*
X157910187Y-128010662D01*
X157910185Y-128010667D01*
X157855002Y-128177199D01*
X157855000Y-128177203D01*
X157844500Y-128279982D01*
X157844500Y-129280017D01*
X157855000Y-129382796D01*
X157904201Y-129531273D01*
X157910186Y-129549335D01*
X158002288Y-129698656D01*
X158126344Y-129822712D01*
X158275665Y-129914814D01*
X158442202Y-129969999D01*
X158544990Y-129980500D01*
X159648415Y-129980500D01*
X159686732Y-129986568D01*
X159702041Y-129991542D01*
X159727173Y-129999709D01*
X159921578Y-130030500D01*
X159921583Y-130030500D01*
X160118422Y-130030500D01*
X160312826Y-129999709D01*
X160353267Y-129986568D01*
X160391585Y-129980500D01*
X161495005Y-129980500D01*
X161495010Y-129980500D01*
X161597798Y-129969999D01*
X161764335Y-129914814D01*
X161913656Y-129822712D01*
X162037712Y-129698656D01*
X162129814Y-129549335D01*
X162184999Y-129382798D01*
X162195500Y-129280010D01*
X162195500Y-128279990D01*
X162184999Y-128177202D01*
X162133459Y-128021667D01*
X162131058Y-127951844D01*
X162163483Y-127894989D01*
X162601655Y-127456819D01*
X162662978Y-127423334D01*
X162689336Y-127420500D01*
X165563274Y-127420500D01*
X165630313Y-127440185D01*
X165641634Y-127448398D01*
X165660419Y-127463715D01*
X165660421Y-127463716D01*
X165836272Y-127555573D01*
X166027015Y-127610151D01*
X166143414Y-127620500D01*
X166143420Y-127620500D01*
X170406580Y-127620500D01*
X170406586Y-127620500D01*
X170522985Y-127610151D01*
X170713728Y-127555573D01*
X170889579Y-127463716D01*
X171043340Y-127338340D01*
X171168716Y-127184579D01*
X171260573Y-127008728D01*
X171315151Y-126817985D01*
X171325500Y-126701586D01*
X171325500Y-125638414D01*
X171315151Y-125522015D01*
X171260573Y-125331272D01*
X171168716Y-125155421D01*
X171098909Y-125069810D01*
X171043340Y-125001659D01*
X170941611Y-124918711D01*
X170889579Y-124876284D01*
X170713728Y-124784427D01*
X170713727Y-124784426D01*
X170713726Y-124784426D01*
X170607931Y-124754155D01*
X170522985Y-124729849D01*
X170522982Y-124729848D01*
X170522980Y-124729848D01*
X170444793Y-124722897D01*
X170406586Y-124719500D01*
X166143414Y-124719500D01*
X166109340Y-124722529D01*
X166027019Y-124729848D01*
X166027016Y-124729848D01*
X166027015Y-124729849D01*
X165972438Y-124745465D01*
X165836273Y-124784426D01*
X165660419Y-124876284D01*
X165641634Y-124891602D01*
X165577238Y-124918711D01*
X165563274Y-124919500D01*
X162021578Y-124919500D01*
X161827172Y-124950291D01*
X161766348Y-124970053D01*
X161766348Y-124970054D01*
X161730091Y-124981835D01*
X161639970Y-125011117D01*
X161464594Y-125100476D01*
X161322516Y-125203703D01*
X161322515Y-125203702D01*
X161305357Y-125216169D01*
X161305351Y-125216174D01*
X159428417Y-127093108D01*
X159367094Y-127126593D01*
X159297402Y-127121609D01*
X159253055Y-127093108D01*
X157384673Y-125224726D01*
X157371871Y-125216172D01*
X157278127Y-125153535D01*
X157159744Y-125104499D01*
X157159738Y-125104497D01*
X157034071Y-125079500D01*
X157034069Y-125079500D01*
X156835442Y-125079500D01*
X156768403Y-125059815D01*
X156722648Y-125007011D01*
X156712704Y-124937853D01*
X156723059Y-124903097D01*
X156724809Y-124899340D01*
X156724814Y-124899334D01*
X156779999Y-124732797D01*
X156790500Y-124630009D01*
X156790499Y-123863650D01*
X156810183Y-123796612D01*
X156826818Y-123775970D01*
X157035970Y-123566819D01*
X157097293Y-123533334D01*
X157123651Y-123530500D01*
X157891042Y-123530500D01*
X157958081Y-123550185D01*
X157996580Y-123589402D01*
X158001792Y-123597853D01*
X158002288Y-123598656D01*
X158126344Y-123722712D01*
X158245380Y-123796134D01*
X158267963Y-123813991D01*
X158278491Y-123824519D01*
X158278496Y-123824523D01*
X158445155Y-123945606D01*
X158469567Y-123963343D01*
X158603659Y-124031666D01*
X158680003Y-124070566D01*
X158680005Y-124070566D01*
X158680008Y-124070568D01*
X158758526Y-124096080D01*
X158904631Y-124143553D01*
X159137903Y-124180500D01*
X159137908Y-124180500D01*
X160138097Y-124180500D01*
X160371368Y-124143553D01*
X160434623Y-124123000D01*
X160595992Y-124070568D01*
X160597229Y-124069938D01*
X160601307Y-124067859D01*
X160806433Y-123963343D01*
X160848929Y-123932468D01*
X160887862Y-123904182D01*
X160953668Y-123880702D01*
X160960747Y-123880500D01*
X161495005Y-123880500D01*
X161495010Y-123880500D01*
X161597798Y-123869999D01*
X161764335Y-123814814D01*
X161913656Y-123722712D01*
X162037712Y-123598656D01*
X162129814Y-123449335D01*
X162184999Y-123282798D01*
X162195500Y-123180010D01*
X162195500Y-122179990D01*
X162184999Y-122077202D01*
X162129814Y-121910665D01*
X162037712Y-121761344D01*
X161913656Y-121637288D01*
X161764335Y-121545186D01*
X161597798Y-121490001D01*
X161597796Y-121490000D01*
X161495017Y-121479500D01*
X161495010Y-121479500D01*
X160960747Y-121479500D01*
X160893708Y-121459815D01*
X160887862Y-121455818D01*
X160806436Y-121396659D01*
X160806435Y-121396658D01*
X160806433Y-121396657D01*
X160695369Y-121340067D01*
X160595996Y-121289433D01*
X160371368Y-121216446D01*
X160138097Y-121179500D01*
X160138092Y-121179500D01*
X159928890Y-121179500D01*
X159861851Y-121159815D01*
X159841209Y-121143181D01*
X156933512Y-118235485D01*
X156933511Y-118235484D01*
X156911870Y-118219761D01*
X156742434Y-118096657D01*
X156727593Y-118089095D01*
X156531996Y-117989433D01*
X156307368Y-117916446D01*
X156074097Y-117879500D01*
X156074092Y-117879500D01*
X155837908Y-117879500D01*
X155837903Y-117879500D01*
X155604631Y-117916446D01*
X155380003Y-117989433D01*
X155169565Y-118096657D01*
X154978488Y-118235484D01*
X154811484Y-118402488D01*
X154672657Y-118593565D01*
X154565433Y-118804003D01*
X154492446Y-119028631D01*
X154455500Y-119261902D01*
X154455500Y-119498097D01*
X154492446Y-119731368D01*
X154565433Y-119955996D01*
X154611894Y-120047180D01*
X154672657Y-120166434D01*
X154767862Y-120297472D01*
X154811484Y-120357511D01*
X154811485Y-120357512D01*
X156248141Y-121794169D01*
X156281626Y-121855492D01*
X156276642Y-121925184D01*
X156234770Y-121981117D01*
X156229352Y-121984952D01*
X156177834Y-122019375D01*
X155229029Y-122968181D01*
X155202101Y-122982884D01*
X155176283Y-122999477D01*
X155170082Y-123000368D01*
X155167706Y-123001666D01*
X155141348Y-123004500D01*
X155031150Y-123004500D01*
X154964111Y-122984815D01*
X154943469Y-122968181D01*
X153504665Y-121529375D01*
X153504661Y-121529372D01*
X153365366Y-121436297D01*
X153365363Y-121436296D01*
X153255916Y-121390962D01*
X153255914Y-121390961D01*
X153210586Y-121372185D01*
X153210574Y-121372182D01*
X153046271Y-121339500D01*
X153046267Y-121339500D01*
X152192230Y-121339500D01*
X152125191Y-121319815D01*
X152104549Y-121303181D01*
X152048657Y-121247289D01*
X152048656Y-121247288D01*
X151938754Y-121179500D01*
X151899336Y-121155187D01*
X151899331Y-121155185D01*
X151897862Y-121154698D01*
X151732797Y-121100001D01*
X151732795Y-121100000D01*
X151630010Y-121089500D01*
X150629998Y-121089500D01*
X150629980Y-121089501D01*
X150527203Y-121100000D01*
X150527200Y-121100001D01*
X150360668Y-121155185D01*
X150360663Y-121155187D01*
X150211342Y-121247289D01*
X150155451Y-121303181D01*
X150094128Y-121336666D01*
X150067770Y-121339500D01*
X148929570Y-121339500D01*
X148862531Y-121319815D01*
X148816776Y-121267011D01*
X148806832Y-121197853D01*
X148826468Y-121146608D01*
X148841632Y-121123914D01*
X148917051Y-120941835D01*
X148944997Y-120801342D01*
X148955500Y-120748543D01*
X148955500Y-120551456D01*
X148917052Y-120358170D01*
X148917051Y-120358169D01*
X148917051Y-120358165D01*
X148910274Y-120341804D01*
X148841635Y-120176092D01*
X148841628Y-120176079D01*
X148732139Y-120012218D01*
X148732136Y-120012214D01*
X148592785Y-119872863D01*
X148592781Y-119872860D01*
X148428920Y-119763371D01*
X148428907Y-119763364D01*
X148246839Y-119687950D01*
X148246829Y-119687947D01*
X148053543Y-119649500D01*
X148053541Y-119649500D01*
X147148308Y-119649500D01*
X147081269Y-119629815D01*
X147060631Y-119613185D01*
X146991865Y-119544419D01*
X146850398Y-119460756D01*
X146850397Y-119460755D01*
X146850396Y-119460755D01*
X146850393Y-119460754D01*
X146692573Y-119414902D01*
X146692567Y-119414901D01*
X146655701Y-119412000D01*
X146655694Y-119412000D01*
X146567281Y-119412000D01*
X146500242Y-119392315D01*
X146454487Y-119339511D01*
X146444543Y-119270353D01*
X146473568Y-119206797D01*
X146479600Y-119200319D01*
X147382519Y-118297401D01*
X148438101Y-117241819D01*
X148499424Y-117208334D01*
X148525782Y-117205500D01*
X158284218Y-117205500D01*
X158351257Y-117225185D01*
X158371899Y-117241819D01*
X163827215Y-122697137D01*
X163827219Y-122697140D01*
X163991079Y-122806628D01*
X163991085Y-122806631D01*
X163991086Y-122806632D01*
X164173165Y-122882052D01*
X164366455Y-122920500D01*
X164366458Y-122920501D01*
X164540201Y-122920501D01*
X164607240Y-122940186D01*
X164645739Y-122979404D01*
X164682284Y-123038652D01*
X164682287Y-123038656D01*
X164806343Y-123162712D01*
X164955665Y-123254814D01*
X165122202Y-123309999D01*
X165224990Y-123320500D01*
X167325007Y-123320499D01*
X167427796Y-123309999D01*
X167594333Y-123254814D01*
X167743655Y-123162712D01*
X167867711Y-123038656D01*
X167959813Y-122889334D01*
X168014998Y-122722797D01*
X168025499Y-122620009D01*
X168025498Y-121219992D01*
X168023236Y-121197853D01*
X168014998Y-121117203D01*
X168014997Y-121117200D01*
X167990155Y-121042232D01*
X167959813Y-120950666D01*
X167867711Y-120801344D01*
X167743655Y-120677288D01*
X167594333Y-120585186D01*
X167427796Y-120530001D01*
X167427794Y-120530000D01*
X167325009Y-120519500D01*
X165224997Y-120519500D01*
X165224980Y-120519501D01*
X165122202Y-120530000D01*
X165122199Y-120530001D01*
X164955667Y-120585185D01*
X164955662Y-120585187D01*
X164806335Y-120677293D01*
X164800671Y-120681772D01*
X164799130Y-120679823D01*
X164748071Y-120707671D01*
X164678382Y-120702652D01*
X164634093Y-120674173D01*
X159534209Y-115574289D01*
X159534206Y-115574285D01*
X159534206Y-115574286D01*
X159527139Y-115567219D01*
X159527139Y-115567218D01*
X159387782Y-115427861D01*
X159387781Y-115427860D01*
X159387780Y-115427859D01*
X159223920Y-115318371D01*
X159223907Y-115318364D01*
X159094763Y-115264872D01*
X159094760Y-115264871D01*
X159087522Y-115261873D01*
X159041836Y-115242949D01*
X158945188Y-115223724D01*
X158940925Y-115222876D01*
X158940914Y-115222873D01*
X158848544Y-115204500D01*
X158848541Y-115204500D01*
X148158539Y-115204500D01*
X148129781Y-115204500D01*
X148062742Y-115184815D01*
X148016987Y-115132011D01*
X148007043Y-115062853D01*
X148036068Y-114999297D01*
X148042100Y-114992819D01*
X148576372Y-114458548D01*
X150873102Y-112161819D01*
X150934425Y-112128334D01*
X150960783Y-112125500D01*
X151231043Y-112125500D01*
X151361082Y-112099632D01*
X151424335Y-112087051D01*
X151606414Y-112011632D01*
X151666629Y-111971396D01*
X151733306Y-111950519D01*
X151735520Y-111950499D01*
X152011097Y-111950499D01*
X152077882Y-111944431D01*
X152077885Y-111944430D01*
X152077887Y-111944430D01*
X152231602Y-111896531D01*
X152369388Y-111813236D01*
X152483236Y-111699388D01*
X152566531Y-111561602D01*
X152614430Y-111407887D01*
X152620500Y-111341091D01*
X152620499Y-110908910D01*
X152620499Y-110908901D01*
X152614431Y-110842117D01*
X152614428Y-110842106D01*
X152566532Y-110688401D01*
X152566531Y-110688400D01*
X152566531Y-110688398D01*
X152485373Y-110554147D01*
X152467538Y-110486596D01*
X152485373Y-110425852D01*
X152566531Y-110291602D01*
X152614430Y-110137887D01*
X152620500Y-110071091D01*
X152620499Y-109638910D01*
X152620499Y-109638901D01*
X152614431Y-109572117D01*
X152614428Y-109572106D01*
X152566532Y-109418401D01*
X152566531Y-109418400D01*
X152566531Y-109418398D01*
X152485373Y-109284147D01*
X152467538Y-109216596D01*
X152485373Y-109155852D01*
X152566531Y-109021602D01*
X152614430Y-108867887D01*
X152620500Y-108801091D01*
X152620499Y-108368910D01*
X152620499Y-108368909D01*
X152620499Y-108368901D01*
X152614431Y-108302117D01*
X152614428Y-108302106D01*
X152566532Y-108148401D01*
X152566531Y-108148400D01*
X152566531Y-108148398D01*
X152485373Y-108014147D01*
X152467538Y-107946596D01*
X152485373Y-107885852D01*
X152566531Y-107751602D01*
X152614430Y-107597887D01*
X152620500Y-107531091D01*
X152620499Y-107098910D01*
X152620499Y-107098909D01*
X152620499Y-107098901D01*
X152614431Y-107032117D01*
X152614428Y-107032106D01*
X152566532Y-106878401D01*
X152566531Y-106878400D01*
X152566531Y-106878398D01*
X152483236Y-106740612D01*
X152483234Y-106740610D01*
X152483233Y-106740608D01*
X152369391Y-106626766D01*
X152367050Y-106625351D01*
X152231602Y-106543469D01*
X152077887Y-106495570D01*
X152077885Y-106495569D01*
X152077883Y-106495569D01*
X152031117Y-106491319D01*
X152011091Y-106489500D01*
X152011088Y-106489500D01*
X150253901Y-106489500D01*
X150187117Y-106495568D01*
X150187106Y-106495571D01*
X150033401Y-106543467D01*
X149895608Y-106626766D01*
X149895607Y-106626767D01*
X149802181Y-106720194D01*
X149782744Y-106730806D01*
X149766011Y-106745307D01*
X149752679Y-106747223D01*
X149740858Y-106753679D01*
X149718771Y-106752099D01*
X149696853Y-106755251D01*
X149684601Y-106749655D01*
X149671166Y-106748695D01*
X149653439Y-106735424D01*
X149633297Y-106726226D01*
X149626014Y-106714894D01*
X149615233Y-106706823D01*
X149607495Y-106686077D01*
X149595523Y-106667448D01*
X149592371Y-106645529D01*
X149590816Y-106641359D01*
X149590500Y-106632513D01*
X149590500Y-106510782D01*
X149610185Y-106443743D01*
X149626819Y-106423101D01*
X151508102Y-104541819D01*
X151569425Y-104508334D01*
X151595783Y-104505500D01*
X154625192Y-104505500D01*
X154692231Y-104525185D01*
X154737986Y-104577989D01*
X154747930Y-104647147D01*
X154718905Y-104710703D01*
X154712873Y-104717181D01*
X153799727Y-105630325D01*
X153799726Y-105630326D01*
X153775662Y-105666342D01*
X153757654Y-105693294D01*
X153750167Y-105704499D01*
X153750165Y-105704501D01*
X153728539Y-105736864D01*
X153728533Y-105736875D01*
X153679499Y-105855255D01*
X153679499Y-105855256D01*
X153654500Y-105980928D01*
X153654500Y-110274070D01*
X153673818Y-110371183D01*
X153673818Y-110371184D01*
X153679497Y-110399736D01*
X153679500Y-110399746D01*
X153728532Y-110518122D01*
X153799726Y-110624672D01*
X154805322Y-111630268D01*
X154805327Y-111630272D01*
X154805332Y-111630277D01*
X154805337Y-111630280D01*
X154808029Y-111632489D01*
X154835492Y-111664200D01*
X154846038Y-111681646D01*
X154856764Y-111699389D01*
X154970608Y-111813233D01*
X154970610Y-111813234D01*
X154970612Y-111813236D01*
X155108398Y-111896531D01*
X155262113Y-111944430D01*
X155328909Y-111950500D01*
X157086090Y-111950499D01*
X157086097Y-111950499D01*
X157152882Y-111944431D01*
X157152885Y-111944430D01*
X157152887Y-111944430D01*
X157306602Y-111896531D01*
X157444388Y-111813236D01*
X157558236Y-111699388D01*
X157641531Y-111561602D01*
X157689430Y-111407887D01*
X157695500Y-111341091D01*
X157695499Y-110908910D01*
X157695499Y-110908901D01*
X157689431Y-110842117D01*
X157689428Y-110842106D01*
X157641532Y-110688400D01*
X157638453Y-110681559D01*
X157641182Y-110680330D01*
X157626871Y-110626058D01*
X157648409Y-110559591D01*
X157702462Y-110515319D01*
X157750823Y-110505500D01*
X160350192Y-110505500D01*
X160417231Y-110525185D01*
X160437873Y-110541819D01*
X161185181Y-111289127D01*
X161218666Y-111350450D01*
X161221500Y-111376808D01*
X161221500Y-112006001D01*
X161221501Y-112006019D01*
X161232000Y-112108796D01*
X161232001Y-112108799D01*
X161283647Y-112264654D01*
X161287186Y-112275334D01*
X161379288Y-112424656D01*
X161503344Y-112548712D01*
X161652666Y-112640814D01*
X161819203Y-112695999D01*
X161921991Y-112706500D01*
X162722008Y-112706499D01*
X162722016Y-112706498D01*
X162722019Y-112706498D01*
X162778302Y-112700748D01*
X162824797Y-112695999D01*
X162991334Y-112640814D01*
X163140656Y-112548712D01*
X163234319Y-112455049D01*
X163295642Y-112421564D01*
X163365334Y-112426548D01*
X163409681Y-112455049D01*
X163503344Y-112548712D01*
X163652666Y-112640814D01*
X163819203Y-112695999D01*
X163921991Y-112706500D01*
X164551191Y-112706499D01*
X164618230Y-112726183D01*
X164638872Y-112742818D01*
X166895352Y-114999297D01*
X169150724Y-117254669D01*
X169205928Y-117309873D01*
X169241332Y-117345277D01*
X169347866Y-117416461D01*
X169347872Y-117416464D01*
X169347873Y-117416465D01*
X169466256Y-117465501D01*
X169466260Y-117465501D01*
X169466261Y-117465502D01*
X169591928Y-117490500D01*
X169591931Y-117490500D01*
X175848660Y-117490500D01*
X175915699Y-117510185D01*
X175961454Y-117562989D01*
X175971398Y-117632147D01*
X175966829Y-117651225D01*
X175966860Y-117651234D01*
X175966557Y-117652361D01*
X175966082Y-117654349D01*
X175965812Y-117655142D01*
X175944269Y-117735542D01*
X175892941Y-117927105D01*
X175891152Y-117933780D01*
X175891149Y-117933793D01*
X175853501Y-118219761D01*
X175853500Y-118219778D01*
X175853500Y-118508221D01*
X175853501Y-118508238D01*
X175891149Y-118794206D01*
X175891150Y-118794211D01*
X175891151Y-118794217D01*
X175964199Y-119066835D01*
X175965809Y-119072844D01*
X175965814Y-119072860D01*
X176076191Y-119339336D01*
X176076199Y-119339352D01*
X176220420Y-119589148D01*
X176220431Y-119589164D01*
X176396024Y-119818002D01*
X176396030Y-119818009D01*
X176599990Y-120021969D01*
X176599996Y-120021974D01*
X176828844Y-120197575D01*
X176828851Y-120197579D01*
X177078647Y-120341800D01*
X177078663Y-120341808D01*
X177345139Y-120452185D01*
X177345145Y-120452186D01*
X177345155Y-120452191D01*
X177623783Y-120526849D01*
X177909772Y-120564500D01*
X177909779Y-120564500D01*
X178198221Y-120564500D01*
X178198228Y-120564500D01*
X178484217Y-120526849D01*
X178762845Y-120452191D01*
X178762857Y-120452185D01*
X178762860Y-120452185D01*
X179029336Y-120341808D01*
X179029339Y-120341806D01*
X179029345Y-120341804D01*
X179279156Y-120197575D01*
X179508004Y-120021974D01*
X179711974Y-119818004D01*
X179887575Y-119589156D01*
X180031804Y-119339345D01*
X180051869Y-119290905D01*
X180142185Y-119072860D01*
X180142185Y-119072857D01*
X180142191Y-119072845D01*
X180216849Y-118794217D01*
X180254500Y-118508228D01*
X180254500Y-118219772D01*
X180216849Y-117933783D01*
X180142191Y-117655155D01*
X180142186Y-117655142D01*
X180142185Y-117655139D01*
X180031808Y-117388663D01*
X180031800Y-117388647D01*
X179887579Y-117138851D01*
X179887575Y-117138844D01*
X179711974Y-116909996D01*
X179711969Y-116909990D01*
X179508009Y-116706030D01*
X179508002Y-116706024D01*
X179279164Y-116530431D01*
X179279162Y-116530429D01*
X179279156Y-116530425D01*
X179279151Y-116530422D01*
X179279148Y-116530420D01*
X179029352Y-116386199D01*
X179029336Y-116386191D01*
X178762860Y-116275814D01*
X178762848Y-116275810D01*
X178762845Y-116275809D01*
X178484217Y-116201151D01*
X178484211Y-116201150D01*
X178484206Y-116201149D01*
X178198238Y-116163501D01*
X178198233Y-116163500D01*
X178198228Y-116163500D01*
X177909772Y-116163500D01*
X177909766Y-116163500D01*
X177909761Y-116163501D01*
X177623793Y-116201149D01*
X177623786Y-116201150D01*
X177623783Y-116201151D01*
X177390966Y-116263534D01*
X177345155Y-116275809D01*
X177345139Y-116275814D01*
X177096856Y-116378656D01*
X177027387Y-116386125D01*
X176964908Y-116354850D01*
X176961723Y-116351776D01*
X176944673Y-116334726D01*
X176944669Y-116334723D01*
X176838127Y-116263535D01*
X176719744Y-116214499D01*
X176719738Y-116214497D01*
X176594071Y-116189500D01*
X176594069Y-116189500D01*
X169976807Y-116189500D01*
X169909768Y-116169815D01*
X169889126Y-116153181D01*
X165458818Y-111722872D01*
X165425333Y-111661549D01*
X165422499Y-111635191D01*
X165422499Y-111005998D01*
X165422498Y-111005981D01*
X165411999Y-110903203D01*
X165411998Y-110903200D01*
X165376311Y-110795504D01*
X165373909Y-110725676D01*
X165409641Y-110665634D01*
X165472161Y-110634441D01*
X165494017Y-110632500D01*
X175848660Y-110632500D01*
X175915699Y-110652185D01*
X175961454Y-110704989D01*
X175971398Y-110774147D01*
X175966829Y-110793225D01*
X175966860Y-110793234D01*
X175966557Y-110794361D01*
X175966082Y-110796349D01*
X175965812Y-110797142D01*
X175891152Y-111075780D01*
X175891149Y-111075793D01*
X175853501Y-111361761D01*
X175853500Y-111361778D01*
X175853500Y-111650221D01*
X175853501Y-111650238D01*
X175891149Y-111936206D01*
X175891150Y-111936211D01*
X175891151Y-111936217D01*
X175944070Y-112133713D01*
X175965809Y-112214844D01*
X175965814Y-112214860D01*
X176076191Y-112481336D01*
X176076199Y-112481352D01*
X176220420Y-112731148D01*
X176220431Y-112731164D01*
X176396024Y-112960002D01*
X176396030Y-112960009D01*
X176599990Y-113163969D01*
X176599996Y-113163974D01*
X176828844Y-113339575D01*
X176828851Y-113339579D01*
X177078647Y-113483800D01*
X177078663Y-113483808D01*
X177345139Y-113594185D01*
X177345145Y-113594186D01*
X177345155Y-113594191D01*
X177623783Y-113668849D01*
X177909772Y-113706500D01*
X177909779Y-113706500D01*
X178198221Y-113706500D01*
X178198228Y-113706500D01*
X178484217Y-113668849D01*
X178762845Y-113594191D01*
X178762857Y-113594185D01*
X178762860Y-113594185D01*
X179029336Y-113483808D01*
X179029339Y-113483806D01*
X179029345Y-113483804D01*
X179279156Y-113339575D01*
X179508004Y-113163974D01*
X179711974Y-112960004D01*
X179887575Y-112731156D01*
X180031804Y-112481345D01*
X180046300Y-112446350D01*
X180142185Y-112214860D01*
X180142185Y-112214857D01*
X180142191Y-112214845D01*
X180216849Y-111936217D01*
X180254500Y-111650228D01*
X180254500Y-111361772D01*
X180216849Y-111075783D01*
X180142191Y-110797155D01*
X180142186Y-110797142D01*
X180142185Y-110797139D01*
X180031808Y-110530663D01*
X180031800Y-110530647D01*
X179887579Y-110280851D01*
X179887575Y-110280844D01*
X179837015Y-110214953D01*
X179711975Y-110051997D01*
X179711969Y-110051990D01*
X179508009Y-109848030D01*
X179508002Y-109848024D01*
X179279164Y-109672431D01*
X179279162Y-109672429D01*
X179279156Y-109672425D01*
X179279151Y-109672422D01*
X179279148Y-109672420D01*
X179029352Y-109528199D01*
X179029336Y-109528191D01*
X178762860Y-109417814D01*
X178762848Y-109417810D01*
X178762845Y-109417809D01*
X178484217Y-109343151D01*
X178484211Y-109343150D01*
X178484206Y-109343149D01*
X178198238Y-109305501D01*
X178198233Y-109305500D01*
X178198228Y-109305500D01*
X177909772Y-109305500D01*
X177909766Y-109305500D01*
X177909761Y-109305501D01*
X177720341Y-109330439D01*
X177704156Y-109331500D01*
X165658808Y-109331500D01*
X165629367Y-109322855D01*
X165599381Y-109316332D01*
X165594365Y-109312577D01*
X165591769Y-109311815D01*
X165571127Y-109295181D01*
X165458818Y-109182872D01*
X165425333Y-109121549D01*
X165422499Y-109095191D01*
X165422499Y-108465998D01*
X165422498Y-108465981D01*
X165411999Y-108363203D01*
X165411998Y-108363200D01*
X165391757Y-108302117D01*
X165356814Y-108196666D01*
X165264712Y-108047344D01*
X165140656Y-107923288D01*
X164991334Y-107831186D01*
X164938579Y-107813704D01*
X164881136Y-107773934D01*
X164854313Y-107709418D01*
X164866628Y-107640642D01*
X164914171Y-107589442D01*
X164938575Y-107578296D01*
X164991334Y-107560814D01*
X165140656Y-107468712D01*
X165264712Y-107344656D01*
X165356814Y-107195334D01*
X165411999Y-107028797D01*
X165422500Y-106926009D01*
X165422499Y-106425805D01*
X165431145Y-106396359D01*
X165437667Y-106366379D01*
X165441419Y-106361365D01*
X165442183Y-106358767D01*
X165458813Y-106338130D01*
X167293148Y-104503796D01*
X175854000Y-104503796D01*
X175854000Y-104792203D01*
X175891643Y-105078118D01*
X175966283Y-105356682D01*
X176076644Y-105623116D01*
X176076648Y-105623126D01*
X176220838Y-105872872D01*
X176331438Y-106017007D01*
X177245497Y-105102947D01*
X177335505Y-105237653D01*
X177464347Y-105366495D01*
X177599050Y-105456501D01*
X176684991Y-106370560D01*
X176829128Y-106481161D01*
X177078873Y-106625351D01*
X177078883Y-106625355D01*
X177345317Y-106735716D01*
X177623881Y-106810356D01*
X177909796Y-106847999D01*
X177909811Y-106848000D01*
X178198189Y-106848000D01*
X178198203Y-106847999D01*
X178484118Y-106810356D01*
X178762682Y-106735716D01*
X179029116Y-106625355D01*
X179029126Y-106625351D01*
X179278870Y-106481161D01*
X179278887Y-106481150D01*
X179423007Y-106370561D01*
X179423007Y-106370559D01*
X178508948Y-105456501D01*
X178643653Y-105366495D01*
X178772495Y-105237653D01*
X178862501Y-105102948D01*
X179776559Y-106017007D01*
X179776561Y-106017007D01*
X179887150Y-105872887D01*
X179887161Y-105872870D01*
X180031351Y-105623126D01*
X180031355Y-105623116D01*
X180141716Y-105356682D01*
X180216356Y-105078118D01*
X180253999Y-104792203D01*
X180254000Y-104792189D01*
X180254000Y-104503810D01*
X180253999Y-104503796D01*
X180216356Y-104217881D01*
X180141716Y-103939317D01*
X180031355Y-103672883D01*
X180031351Y-103672873D01*
X179887161Y-103423128D01*
X179776560Y-103278991D01*
X178862501Y-104193050D01*
X178772495Y-104058347D01*
X178643653Y-103929505D01*
X178508947Y-103839497D01*
X179423007Y-102925438D01*
X179278872Y-102814838D01*
X179029126Y-102670648D01*
X179029116Y-102670644D01*
X178762682Y-102560283D01*
X178484118Y-102485643D01*
X178198203Y-102448000D01*
X177909796Y-102448000D01*
X177623881Y-102485643D01*
X177345317Y-102560283D01*
X177078883Y-102670644D01*
X177078873Y-102670648D01*
X176829123Y-102814841D01*
X176684991Y-102925436D01*
X176684991Y-102925438D01*
X177599051Y-103839498D01*
X177464347Y-103929505D01*
X177335505Y-104058347D01*
X177245498Y-104193051D01*
X176331438Y-103278991D01*
X176331436Y-103278991D01*
X176220841Y-103423123D01*
X176076648Y-103672873D01*
X176076644Y-103672883D01*
X175966283Y-103939317D01*
X175891643Y-104217881D01*
X175854000Y-104503796D01*
X167293148Y-104503796D01*
X168875126Y-102921819D01*
X168936449Y-102888334D01*
X168962807Y-102885500D01*
X172629069Y-102885500D01*
X172713613Y-102868682D01*
X172754742Y-102860501D01*
X172873125Y-102811465D01*
X172875214Y-102810069D01*
X172979667Y-102740277D01*
X174378125Y-101341817D01*
X174439448Y-101308333D01*
X174465806Y-101305499D01*
X174806668Y-101305499D01*
X174806674Y-101305499D01*
X174907751Y-101295174D01*
X175071514Y-101240908D01*
X175218348Y-101150340D01*
X175340338Y-101028350D01*
X175430906Y-100881516D01*
X175485172Y-100717753D01*
X175495498Y-100616677D01*
X175495497Y-100043324D01*
X175494381Y-100032402D01*
X175485172Y-99942247D01*
X175472995Y-99905500D01*
X175430906Y-99778484D01*
X175340338Y-99631650D01*
X175218348Y-99509660D01*
X175072589Y-99419755D01*
X175071516Y-99419093D01*
X175071511Y-99419091D01*
X175070067Y-99418612D01*
X174907751Y-99364826D01*
X174907749Y-99364825D01*
X174806676Y-99354500D01*
X174133328Y-99354500D01*
X174133310Y-99354501D01*
X174032245Y-99364825D01*
X173868482Y-99419092D01*
X173868479Y-99419093D01*
X173721646Y-99509661D01*
X173682325Y-99548982D01*
X173621002Y-99582467D01*
X173551310Y-99577481D01*
X173506964Y-99548981D01*
X173468038Y-99510055D01*
X173468034Y-99510052D01*
X173321311Y-99419551D01*
X173321300Y-99419546D01*
X173157652Y-99365319D01*
X173056654Y-99355000D01*
X172970000Y-99355000D01*
X172970000Y-100206000D01*
X172950315Y-100273039D01*
X172897511Y-100318794D01*
X172846000Y-100330000D01*
X172720000Y-100330000D01*
X172720000Y-100456000D01*
X172700315Y-100523039D01*
X172647511Y-100568794D01*
X172596000Y-100580000D01*
X171695001Y-100580000D01*
X171695001Y-100616654D01*
X171705319Y-100717652D01*
X171759546Y-100881300D01*
X171759551Y-100881311D01*
X171850052Y-101028034D01*
X171850055Y-101028038D01*
X171971961Y-101149944D01*
X171971965Y-101149947D01*
X172118688Y-101240448D01*
X172118699Y-101240453D01*
X172282348Y-101294680D01*
X172297686Y-101296248D01*
X172312480Y-101302284D01*
X172328415Y-101303424D01*
X172344161Y-101315211D01*
X172362378Y-101322644D01*
X172371560Y-101335720D01*
X172384349Y-101345294D01*
X172391223Y-101363724D01*
X172402529Y-101379825D01*
X172403183Y-101395789D01*
X172408767Y-101410758D01*
X172404585Y-101429979D01*
X172405392Y-101449636D01*
X172397137Y-101464220D01*
X172393916Y-101479032D01*
X172372765Y-101507286D01*
X172331872Y-101548180D01*
X172270550Y-101581666D01*
X172244190Y-101584500D01*
X168577928Y-101584500D01*
X168452260Y-101609497D01*
X168452254Y-101609499D01*
X168333873Y-101658534D01*
X168227325Y-101729726D01*
X165633681Y-104323370D01*
X165572358Y-104356855D01*
X165502666Y-104351871D01*
X165446733Y-104309999D01*
X165422316Y-104244535D01*
X165422000Y-104235689D01*
X165422000Y-104136000D01*
X164446000Y-104136000D01*
X164378961Y-104116315D01*
X164333206Y-104063511D01*
X164322000Y-104012000D01*
X164322000Y-103760000D01*
X164341685Y-103692961D01*
X164394489Y-103647206D01*
X164446000Y-103636000D01*
X165421999Y-103636000D01*
X165421999Y-103386028D01*
X165421998Y-103386013D01*
X165411505Y-103283302D01*
X165356358Y-103116880D01*
X165356356Y-103116875D01*
X165264315Y-102967654D01*
X165140345Y-102843684D01*
X164991124Y-102751643D01*
X164991119Y-102751641D01*
X164824697Y-102696494D01*
X164824690Y-102696493D01*
X164721986Y-102686000D01*
X164568806Y-102686000D01*
X164547560Y-102679761D01*
X164525473Y-102678182D01*
X164514689Y-102670109D01*
X164501767Y-102666315D01*
X164487268Y-102649583D01*
X164469539Y-102636311D01*
X164464831Y-102623688D01*
X164456012Y-102613511D01*
X164452860Y-102591594D01*
X164445122Y-102570846D01*
X164447984Y-102557685D01*
X164446068Y-102544353D01*
X164455267Y-102524209D01*
X164459974Y-102502573D01*
X164473243Y-102484845D01*
X164475093Y-102480797D01*
X164481110Y-102474333D01*
X164626904Y-102328539D01*
X164688223Y-102295057D01*
X164702896Y-102293101D01*
X164702868Y-102292820D01*
X164777700Y-102285175D01*
X164808797Y-102281999D01*
X164975334Y-102226814D01*
X165124656Y-102134712D01*
X165248712Y-102010656D01*
X165340814Y-101861334D01*
X165395999Y-101694797D01*
X165406500Y-101592009D01*
X165406499Y-100591992D01*
X165395999Y-100489203D01*
X165340814Y-100322666D01*
X165248712Y-100173344D01*
X165124656Y-100049288D01*
X165115021Y-100043345D01*
X171695000Y-100043345D01*
X171695000Y-100080000D01*
X172470000Y-100080000D01*
X172470000Y-99355000D01*
X172469999Y-99354999D01*
X172383360Y-99355000D01*
X172383343Y-99355001D01*
X172282347Y-99365319D01*
X172118699Y-99419546D01*
X172118688Y-99419551D01*
X171971965Y-99510052D01*
X171971961Y-99510055D01*
X171850055Y-99631961D01*
X171850052Y-99631965D01*
X171759551Y-99778688D01*
X171759546Y-99778699D01*
X171705319Y-99942347D01*
X171695000Y-100043345D01*
X165115021Y-100043345D01*
X165031888Y-99992069D01*
X164975336Y-99957187D01*
X164975331Y-99957185D01*
X164955199Y-99950514D01*
X164808797Y-99902001D01*
X164808795Y-99902000D01*
X164706010Y-99891500D01*
X163905998Y-99891500D01*
X163905980Y-99891501D01*
X163803203Y-99902000D01*
X163803200Y-99902001D01*
X163636668Y-99957185D01*
X163636663Y-99957187D01*
X163487342Y-100049289D01*
X163393681Y-100142951D01*
X163332358Y-100176436D01*
X163262666Y-100171452D01*
X163218319Y-100142951D01*
X163124657Y-100049289D01*
X163124656Y-100049288D01*
X163031888Y-99992069D01*
X162975336Y-99957187D01*
X162975331Y-99957185D01*
X162955199Y-99950514D01*
X162808797Y-99902001D01*
X162808795Y-99902000D01*
X162706010Y-99891500D01*
X161905998Y-99891500D01*
X161905980Y-99891501D01*
X161803203Y-99902000D01*
X161803200Y-99902001D01*
X161636668Y-99957185D01*
X161636663Y-99957187D01*
X161487342Y-100049289D01*
X161363289Y-100173342D01*
X161271187Y-100322663D01*
X161271184Y-100322671D01*
X161259972Y-100356506D01*
X161220199Y-100413950D01*
X161155683Y-100440772D01*
X161142267Y-100441500D01*
X160463929Y-100441500D01*
X160338261Y-100466497D01*
X160338255Y-100466499D01*
X160219874Y-100515534D01*
X160113326Y-100586726D01*
X159409068Y-101290984D01*
X159347745Y-101324469D01*
X159345579Y-101324920D01*
X159278508Y-101338261D01*
X159278498Y-101338264D01*
X159132827Y-101398602D01*
X159132814Y-101398609D01*
X159001711Y-101486210D01*
X159001707Y-101486213D01*
X158890213Y-101597707D01*
X158890210Y-101597711D01*
X158802609Y-101728814D01*
X158802602Y-101728827D01*
X158742264Y-101874498D01*
X158742261Y-101874510D01*
X158711500Y-102029153D01*
X158711500Y-102186846D01*
X158742261Y-102341489D01*
X158742264Y-102341501D01*
X158802602Y-102487172D01*
X158802609Y-102487185D01*
X158890210Y-102618288D01*
X158890213Y-102618292D01*
X159001707Y-102729786D01*
X159001711Y-102729789D01*
X159132814Y-102817390D01*
X159132827Y-102817397D01*
X159275570Y-102876522D01*
X159278503Y-102877737D01*
X159413818Y-102904653D01*
X159433153Y-102908499D01*
X159433156Y-102908500D01*
X159433158Y-102908500D01*
X159590844Y-102908500D01*
X159590845Y-102908499D01*
X159745497Y-102877737D01*
X159891179Y-102817394D01*
X160022289Y-102729789D01*
X160133789Y-102618289D01*
X160221394Y-102487179D01*
X160224038Y-102480797D01*
X160235017Y-102454289D01*
X160281737Y-102341497D01*
X160295079Y-102274416D01*
X160327463Y-102212509D01*
X160328956Y-102210988D01*
X160761127Y-101778819D01*
X160822450Y-101745334D01*
X160848808Y-101742500D01*
X161142267Y-101742500D01*
X161209306Y-101762185D01*
X161255061Y-101814989D01*
X161259972Y-101827494D01*
X161271184Y-101861328D01*
X161271187Y-101861336D01*
X161291643Y-101894500D01*
X161363288Y-102010656D01*
X161487344Y-102134712D01*
X161636666Y-102226814D01*
X161803203Y-102281999D01*
X161905991Y-102292500D01*
X162523690Y-102292499D01*
X162544936Y-102298737D01*
X162567024Y-102300317D01*
X162577806Y-102308388D01*
X162590729Y-102312183D01*
X162605230Y-102328919D01*
X162622957Y-102342189D01*
X162627663Y-102354807D01*
X162636484Y-102364987D01*
X162639635Y-102386905D01*
X162647374Y-102407653D01*
X162644511Y-102420813D01*
X162646428Y-102434146D01*
X162637228Y-102454289D01*
X162632522Y-102475926D01*
X162619253Y-102493651D01*
X162617403Y-102497702D01*
X162611371Y-102504180D01*
X162466370Y-102649181D01*
X162405047Y-102682666D01*
X162378689Y-102685500D01*
X161921998Y-102685500D01*
X161921980Y-102685501D01*
X161819203Y-102696000D01*
X161819200Y-102696001D01*
X161652668Y-102751185D01*
X161652663Y-102751187D01*
X161503342Y-102843289D01*
X161379289Y-102967342D01*
X161287187Y-103116663D01*
X161287184Y-103116671D01*
X161275972Y-103150506D01*
X161236199Y-103207950D01*
X161171683Y-103234772D01*
X161158267Y-103235500D01*
X156923782Y-103235500D01*
X156856743Y-103215815D01*
X156810988Y-103163011D01*
X156801044Y-103093853D01*
X156830069Y-103030297D01*
X156836101Y-103023819D01*
X159663353Y-100196568D01*
X162702140Y-97157781D01*
X162746047Y-97092069D01*
X162811632Y-96993914D01*
X162815131Y-96985468D01*
X162871245Y-96849994D01*
X162871246Y-96849991D01*
X162879462Y-96830156D01*
X162923302Y-96775754D01*
X162989595Y-96753688D01*
X162992646Y-96753617D01*
X182880210Y-96546455D01*
X182947449Y-96565440D01*
X182993752Y-96617764D01*
X183005500Y-96670448D01*
X183005500Y-138435800D01*
X182985815Y-138502839D01*
X182933011Y-138548594D01*
X182881500Y-138559800D01*
X89845700Y-138559800D01*
X89778661Y-138540115D01*
X89732906Y-138487311D01*
X89721700Y-138435800D01*
X89721700Y-133153471D01*
X90859500Y-133153471D01*
X90859500Y-133546528D01*
X90898026Y-133937702D01*
X90974704Y-134323194D01*
X90974707Y-134323205D01*
X91088810Y-134699354D01*
X91239230Y-135062499D01*
X91239232Y-135062504D01*
X91424511Y-135409137D01*
X91424522Y-135409155D01*
X91642887Y-135735960D01*
X91642897Y-135735974D01*
X91892254Y-136039817D01*
X92170182Y-136317745D01*
X92170187Y-136317749D01*
X92170188Y-136317750D01*
X92474031Y-136567107D01*
X92800851Y-136785482D01*
X92800860Y-136785487D01*
X92800862Y-136785488D01*
X93147495Y-136970767D01*
X93147497Y-136970767D01*
X93147503Y-136970771D01*
X93510647Y-137121190D01*
X93886785Y-137235290D01*
X93886791Y-137235291D01*
X93886794Y-137235292D01*
X93886805Y-137235295D01*
X94272297Y-137311973D01*
X94663468Y-137350500D01*
X94663471Y-137350500D01*
X95056529Y-137350500D01*
X95056532Y-137350500D01*
X95447703Y-137311973D01*
X95522748Y-137297045D01*
X95833194Y-137235295D01*
X95833205Y-137235292D01*
X95833205Y-137235291D01*
X95833215Y-137235290D01*
X96209353Y-137121190D01*
X96572497Y-136970771D01*
X96919149Y-136785482D01*
X97245969Y-136567107D01*
X97549812Y-136317750D01*
X97827750Y-136039812D01*
X98077107Y-135735969D01*
X98295482Y-135409149D01*
X98480771Y-135062497D01*
X98631190Y-134699353D01*
X98745290Y-134323215D01*
X98745292Y-134323205D01*
X98745295Y-134323194D01*
X98821973Y-133937702D01*
X98860500Y-133546528D01*
X98860500Y-133153471D01*
X98859114Y-133139403D01*
X98821973Y-132762297D01*
X98813119Y-132717785D01*
X98745295Y-132376805D01*
X98745292Y-132376794D01*
X98745291Y-132376791D01*
X98745290Y-132376785D01*
X98631190Y-132000647D01*
X98480771Y-131637503D01*
X98472104Y-131621289D01*
X98295488Y-131290862D01*
X98295487Y-131290860D01*
X98295482Y-131290851D01*
X98077107Y-130964031D01*
X97827750Y-130660188D01*
X97827749Y-130660187D01*
X97827745Y-130660182D01*
X97549817Y-130382254D01*
X97245974Y-130132897D01*
X97245973Y-130132896D01*
X97245969Y-130132893D01*
X96919149Y-129914518D01*
X96919144Y-129914515D01*
X96919137Y-129914511D01*
X96572504Y-129729232D01*
X96572499Y-129729230D01*
X96555090Y-129722019D01*
X96370664Y-129645627D01*
X96209354Y-129578810D01*
X95833205Y-129464707D01*
X95833194Y-129464704D01*
X95447702Y-129388026D01*
X95153089Y-129359010D01*
X95056532Y-129349500D01*
X94663468Y-129349500D01*
X94575105Y-129358203D01*
X94272297Y-129388026D01*
X93886805Y-129464704D01*
X93886794Y-129464707D01*
X93510645Y-129578810D01*
X93147500Y-129729230D01*
X93147495Y-129729232D01*
X92800862Y-129914511D01*
X92800844Y-129914522D01*
X92474039Y-130132887D01*
X92474025Y-130132897D01*
X92170182Y-130382254D01*
X91892254Y-130660182D01*
X91642897Y-130964025D01*
X91642887Y-130964039D01*
X91424522Y-131290844D01*
X91424511Y-131290862D01*
X91239232Y-131637495D01*
X91239230Y-131637500D01*
X91088810Y-132000645D01*
X90974707Y-132376794D01*
X90974704Y-132376805D01*
X90898026Y-132762297D01*
X90869777Y-133049119D01*
X90860886Y-133139403D01*
X90859500Y-133153471D01*
X89721700Y-133153471D01*
X89721700Y-62033471D01*
X90859500Y-62033471D01*
X90859500Y-62426528D01*
X90898026Y-62817702D01*
X90974704Y-63203194D01*
X90974707Y-63203205D01*
X91088810Y-63579354D01*
X91239230Y-63942499D01*
X91239232Y-63942504D01*
X91424511Y-64289137D01*
X91424522Y-64289155D01*
X91642887Y-64615960D01*
X91642897Y-64615974D01*
X91892254Y-64919817D01*
X92170182Y-65197745D01*
X92170187Y-65197749D01*
X92170188Y-65197750D01*
X92474031Y-65447107D01*
X92800851Y-65665482D01*
X92800860Y-65665487D01*
X92800862Y-65665488D01*
X93147495Y-65850767D01*
X93147497Y-65850767D01*
X93147503Y-65850771D01*
X93510647Y-66001190D01*
X93886785Y-66115290D01*
X93886791Y-66115291D01*
X93886794Y-66115292D01*
X93886805Y-66115295D01*
X94272297Y-66191973D01*
X94663468Y-66230500D01*
X94663471Y-66230500D01*
X95056529Y-66230500D01*
X95056532Y-66230500D01*
X95447703Y-66191973D01*
X95522748Y-66177045D01*
X95833194Y-66115295D01*
X95833205Y-66115292D01*
X95833205Y-66115291D01*
X95833215Y-66115290D01*
X96209353Y-66001190D01*
X96572497Y-65850771D01*
X96919149Y-65665482D01*
X97245969Y-65447107D01*
X97549812Y-65197750D01*
X97827750Y-64919812D01*
X98077107Y-64615969D01*
X98295482Y-64289149D01*
X98480771Y-63942497D01*
X98631190Y-63579353D01*
X98745290Y-63203215D01*
X98745292Y-63203205D01*
X98745295Y-63203194D01*
X98821973Y-62817702D01*
X98860500Y-62426528D01*
X98860500Y-62033471D01*
X173409500Y-62033471D01*
X173409500Y-62426528D01*
X173448026Y-62817702D01*
X173524704Y-63203194D01*
X173524707Y-63203205D01*
X173638810Y-63579354D01*
X173789230Y-63942499D01*
X173789232Y-63942504D01*
X173974511Y-64289137D01*
X173974522Y-64289155D01*
X174192887Y-64615960D01*
X174192897Y-64615974D01*
X174442254Y-64919817D01*
X174720182Y-65197745D01*
X174720187Y-65197749D01*
X174720188Y-65197750D01*
X175024031Y-65447107D01*
X175350851Y-65665482D01*
X175350860Y-65665487D01*
X175350862Y-65665488D01*
X175697495Y-65850767D01*
X175697497Y-65850767D01*
X175697503Y-65850771D01*
X176060647Y-66001190D01*
X176436785Y-66115290D01*
X176436791Y-66115291D01*
X176436794Y-66115292D01*
X176436805Y-66115295D01*
X176822297Y-66191973D01*
X177213468Y-66230500D01*
X177213471Y-66230500D01*
X177606529Y-66230500D01*
X177606532Y-66230500D01*
X177997703Y-66191973D01*
X178072748Y-66177045D01*
X178383194Y-66115295D01*
X178383205Y-66115292D01*
X178383205Y-66115291D01*
X178383215Y-66115290D01*
X178759353Y-66001190D01*
X179122497Y-65850771D01*
X179469149Y-65665482D01*
X179795969Y-65447107D01*
X180099812Y-65197750D01*
X180377750Y-64919812D01*
X180627107Y-64615969D01*
X180845482Y-64289149D01*
X181030771Y-63942497D01*
X181181190Y-63579353D01*
X181295290Y-63203215D01*
X181295292Y-63203205D01*
X181295295Y-63203194D01*
X181371973Y-62817702D01*
X181410500Y-62426528D01*
X181410500Y-62033471D01*
X181371973Y-61642297D01*
X181295295Y-61256805D01*
X181295292Y-61256794D01*
X181295291Y-61256791D01*
X181295290Y-61256785D01*
X181181190Y-60880647D01*
X181030771Y-60517503D01*
X180845482Y-60170851D01*
X180627107Y-59844031D01*
X180377750Y-59540188D01*
X180377749Y-59540187D01*
X180377745Y-59540182D01*
X180099817Y-59262254D01*
X179795974Y-59012897D01*
X179795973Y-59012896D01*
X179795969Y-59012893D01*
X179469149Y-58794518D01*
X179469144Y-58794515D01*
X179469137Y-58794511D01*
X179122504Y-58609232D01*
X179122499Y-58609230D01*
X178759354Y-58458810D01*
X178383205Y-58344707D01*
X178383194Y-58344704D01*
X177997702Y-58268026D01*
X177703089Y-58239010D01*
X177606532Y-58229500D01*
X177213468Y-58229500D01*
X177124251Y-58238287D01*
X176822297Y-58268026D01*
X176436805Y-58344704D01*
X176436794Y-58344707D01*
X176060645Y-58458810D01*
X175697500Y-58609230D01*
X175697495Y-58609232D01*
X175350862Y-58794511D01*
X175350844Y-58794522D01*
X175024039Y-59012887D01*
X175024025Y-59012897D01*
X174720182Y-59262254D01*
X174442254Y-59540182D01*
X174192897Y-59844025D01*
X174192887Y-59844039D01*
X173974522Y-60170844D01*
X173974511Y-60170862D01*
X173789232Y-60517495D01*
X173789230Y-60517500D01*
X173638810Y-60880645D01*
X173524707Y-61256794D01*
X173524704Y-61256805D01*
X173448026Y-61642297D01*
X173409500Y-62033471D01*
X98860500Y-62033471D01*
X98821973Y-61642297D01*
X98745295Y-61256805D01*
X98745292Y-61256794D01*
X98745291Y-61256791D01*
X98745290Y-61256785D01*
X98631190Y-60880647D01*
X98480771Y-60517503D01*
X98295482Y-60170851D01*
X98077107Y-59844031D01*
X97827750Y-59540188D01*
X97827749Y-59540187D01*
X97827745Y-59540182D01*
X97549817Y-59262254D01*
X97245974Y-59012897D01*
X97245973Y-59012896D01*
X97245969Y-59012893D01*
X96919149Y-58794518D01*
X96919144Y-58794515D01*
X96919137Y-58794511D01*
X96572504Y-58609232D01*
X96572499Y-58609230D01*
X96209354Y-58458810D01*
X95833205Y-58344707D01*
X95833194Y-58344704D01*
X95447702Y-58268026D01*
X95153089Y-58239010D01*
X95056532Y-58229500D01*
X94663468Y-58229500D01*
X94574251Y-58238287D01*
X94272297Y-58268026D01*
X93886805Y-58344704D01*
X93886794Y-58344707D01*
X93510645Y-58458810D01*
X93147500Y-58609230D01*
X93147495Y-58609232D01*
X92800862Y-58794511D01*
X92800844Y-58794522D01*
X92474039Y-59012887D01*
X92474025Y-59012897D01*
X92170182Y-59262254D01*
X91892254Y-59540182D01*
X91642897Y-59844025D01*
X91642887Y-59844039D01*
X91424522Y-60170844D01*
X91424511Y-60170862D01*
X91239232Y-60517495D01*
X91239230Y-60517500D01*
X91088810Y-60880645D01*
X90974707Y-61256794D01*
X90974704Y-61256805D01*
X90898026Y-61642297D01*
X90859500Y-62033471D01*
X89721700Y-62033471D01*
X89721700Y-57266500D01*
X89741385Y-57199461D01*
X89794189Y-57153706D01*
X89845700Y-57142500D01*
X182881500Y-57142500D01*
X182948539Y-57162185D01*
G37*
%TD.AperFunction*%
%TA.AperFunction,Conductor*%
G36*
X161225306Y-104556185D02*
G01*
X161271061Y-104608989D01*
X161275972Y-104621494D01*
X161283503Y-104644219D01*
X161287186Y-104655334D01*
X161379288Y-104804656D01*
X161503344Y-104928712D01*
X161612597Y-104996099D01*
X161619421Y-105003686D01*
X161628703Y-105007925D01*
X161642391Y-105029224D01*
X161659321Y-105048047D01*
X161661965Y-105059682D01*
X161666477Y-105066703D01*
X161671500Y-105101638D01*
X161671500Y-105210362D01*
X161651815Y-105277401D01*
X161612598Y-105315899D01*
X161568219Y-105343273D01*
X161503342Y-105383289D01*
X161379289Y-105507342D01*
X161287187Y-105656663D01*
X161287185Y-105656668D01*
X161272274Y-105701666D01*
X161232001Y-105823203D01*
X161232001Y-105823204D01*
X161232000Y-105823204D01*
X161221500Y-105925983D01*
X161221500Y-106926001D01*
X161221501Y-106926019D01*
X161232000Y-107028796D01*
X161232001Y-107028799D01*
X161255234Y-107098910D01*
X161287186Y-107195334D01*
X161379288Y-107344656D01*
X161503344Y-107468712D01*
X161652666Y-107560814D01*
X161705417Y-107578294D01*
X161762862Y-107618064D01*
X161789686Y-107682580D01*
X161777372Y-107751356D01*
X161729829Y-107802556D01*
X161724404Y-107805604D01*
X161715247Y-107810448D01*
X161652666Y-107831186D01*
X161511607Y-107918190D01*
X161507990Y-107920105D01*
X161482292Y-107925341D01*
X161450000Y-107934500D01*
X157750238Y-107934500D01*
X157683199Y-107914815D01*
X157637444Y-107862011D01*
X157627500Y-107792853D01*
X157639612Y-107758964D01*
X157637993Y-107758235D01*
X157641072Y-107751393D01*
X157688932Y-107597802D01*
X157688935Y-107597792D01*
X157691914Y-107565000D01*
X156331500Y-107565000D01*
X156264461Y-107545315D01*
X156218706Y-107492511D01*
X156207500Y-107441000D01*
X156207500Y-107315000D01*
X156081500Y-107315000D01*
X156014461Y-107295315D01*
X155968706Y-107242511D01*
X155957500Y-107191000D01*
X155957500Y-107065000D01*
X156457500Y-107065000D01*
X157691915Y-107065000D01*
X157691914Y-107064999D01*
X157688935Y-107032207D01*
X157688932Y-107032197D01*
X157641072Y-106878607D01*
X157557836Y-106740919D01*
X157444080Y-106627163D01*
X157306396Y-106543929D01*
X157152792Y-106496065D01*
X157086043Y-106490000D01*
X156457500Y-106490000D01*
X156457500Y-107065000D01*
X155957500Y-107065000D01*
X155957500Y-106490000D01*
X155328957Y-106490000D01*
X155262205Y-106496066D01*
X155116389Y-106541503D01*
X155088982Y-106541954D01*
X155061853Y-106545855D01*
X155054552Y-106542520D01*
X155046529Y-106542653D01*
X155023231Y-106528217D01*
X154998297Y-106516830D01*
X154993958Y-106510078D01*
X154987137Y-106505852D01*
X154975341Y-106481109D01*
X154960523Y-106458052D01*
X154958871Y-106446562D01*
X154957069Y-106442783D01*
X154955500Y-106423117D01*
X154955500Y-106365808D01*
X154975185Y-106298769D01*
X154991819Y-106278127D01*
X156697127Y-104572819D01*
X156758450Y-104539334D01*
X156784808Y-104536500D01*
X161158267Y-104536500D01*
X161225306Y-104556185D01*
G37*
%TD.AperFunction*%
%TA.AperFunction,Conductor*%
G36*
X160011298Y-96804358D02*
G01*
X160057601Y-96856682D01*
X160068264Y-96925734D01*
X160039903Y-96989588D01*
X160033030Y-96997047D01*
X154561899Y-102468181D01*
X154500576Y-102501666D01*
X154474218Y-102504500D01*
X153434102Y-102504500D01*
X153367063Y-102484815D01*
X153321308Y-102432011D01*
X153311364Y-102362853D01*
X153340389Y-102299297D01*
X153346421Y-102292819D01*
X153382678Y-102256561D01*
X153382685Y-102256552D01*
X153466282Y-102115196D01*
X153466283Y-102115193D01*
X153512099Y-101957495D01*
X153512100Y-101957489D01*
X153514999Y-101920649D01*
X153515000Y-101920634D01*
X153515000Y-101517500D01*
X151915000Y-101517500D01*
X151915000Y-101920649D01*
X151917899Y-101957489D01*
X151917900Y-101957495D01*
X151963716Y-102115193D01*
X151963717Y-102115196D01*
X152047314Y-102256552D01*
X152047321Y-102256561D01*
X152083579Y-102292819D01*
X152117064Y-102354142D01*
X152112080Y-102423834D01*
X152070208Y-102479767D01*
X152004744Y-102504184D01*
X151995898Y-102504500D01*
X151534809Y-102504500D01*
X151467770Y-102484815D01*
X151422015Y-102432011D01*
X151412071Y-102362853D01*
X151441096Y-102299297D01*
X151447128Y-102292819D01*
X151483076Y-102256870D01*
X151483081Y-102256865D01*
X151566744Y-102115398D01*
X151612598Y-101957569D01*
X151615500Y-101920694D01*
X151615500Y-100754499D01*
X151618050Y-100745813D01*
X151616762Y-100736852D01*
X151627740Y-100712811D01*
X151635185Y-100687460D01*
X151642025Y-100681532D01*
X151645787Y-100673296D01*
X151668021Y-100659006D01*
X151687989Y-100641705D01*
X151698503Y-100639417D01*
X151704565Y-100635522D01*
X151739500Y-100630499D01*
X151791000Y-100630499D01*
X151858039Y-100650184D01*
X151903794Y-100702988D01*
X151915000Y-100754499D01*
X151915000Y-101017500D01*
X152465000Y-101017500D01*
X152965000Y-101017500D01*
X153515000Y-101017500D01*
X153515000Y-100614365D01*
X153514999Y-100614350D01*
X153512100Y-100577510D01*
X153512099Y-100577504D01*
X153466283Y-100419806D01*
X153466282Y-100419803D01*
X153382685Y-100278447D01*
X153382678Y-100278438D01*
X153266561Y-100162321D01*
X153266552Y-100162314D01*
X153125196Y-100078717D01*
X153125193Y-100078716D01*
X152967494Y-100032900D01*
X152967497Y-100032900D01*
X152965000Y-100032703D01*
X152965000Y-101017500D01*
X152465000Y-101017500D01*
X152465000Y-100361813D01*
X152482267Y-100298693D01*
X152516744Y-100240397D01*
X152562598Y-100082568D01*
X152565500Y-100045693D01*
X152565500Y-98739305D01*
X152562598Y-98702430D01*
X152562597Y-98702425D01*
X152520424Y-98557264D01*
X152515500Y-98522669D01*
X152515500Y-96985468D01*
X152535185Y-96918429D01*
X152587989Y-96872674D01*
X152638199Y-96861476D01*
X159944060Y-96785374D01*
X160011298Y-96804358D01*
G37*
%TD.AperFunction*%
%TA.AperFunction,Conductor*%
G36*
X150956449Y-96898680D02*
G01*
X151002752Y-96951004D01*
X151014500Y-97003688D01*
X151014500Y-98522669D01*
X151009576Y-98557264D01*
X150967402Y-98702425D01*
X150967401Y-98702431D01*
X150964500Y-98739297D01*
X150964500Y-99905500D01*
X150944815Y-99972539D01*
X150892011Y-100018294D01*
X150840500Y-100029500D01*
X150599298Y-100029500D01*
X150561401Y-100032483D01*
X150493024Y-100018118D01*
X150463992Y-99996546D01*
X148768819Y-98301373D01*
X148735334Y-98240050D01*
X148732500Y-98213692D01*
X148732500Y-97786935D01*
X148752185Y-97719896D01*
X148753366Y-97718090D01*
X148791394Y-97661179D01*
X148851737Y-97515497D01*
X148882500Y-97360842D01*
X148882500Y-97203158D01*
X148882500Y-97203155D01*
X148853747Y-97058609D01*
X148851737Y-97048503D01*
X148851736Y-97048501D01*
X148851607Y-97047851D01*
X148857834Y-96978259D01*
X148900697Y-96923082D01*
X148966586Y-96899837D01*
X148971877Y-96899667D01*
X150889209Y-96879695D01*
X150956449Y-96898680D01*
G37*
%TD.AperFunction*%
M02*
