%TF.GenerationSoftware,KiCad,Pcbnew,9.0.7*%
%TF.CreationDate,2026-02-09T01:10:45+03:00*%
%TF.ProjectId,Backup power switch 12v Module,4261636b-7570-4207-906f-776572207377,rev?*%
%TF.SameCoordinates,Original*%
%TF.FileFunction,Copper,L2,Bot*%
%TF.FilePolarity,Positive*%
%FSLAX46Y46*%
G04 Gerber Fmt 4.6, Leading zero omitted, Abs format (unit mm)*
G04 Created by KiCad (PCBNEW 9.0.7) date 2026-02-09 01:10:45*
%MOMM*%
%LPD*%
G01*
G04 APERTURE LIST*
G04 Aperture macros list*
%AMRoundRect*
0 Rectangle with rounded corners*
0 $1 Rounding radius*
0 $2 $3 $4 $5 $6 $7 $8 $9 X,Y pos of 4 corners*
0 Add a 4 corners polygon primitive as box body*
4,1,4,$2,$3,$4,$5,$6,$7,$8,$9,$2,$3,0*
0 Add four circle primitives for the rounded corners*
1,1,$1+$1,$2,$3*
1,1,$1+$1,$4,$5*
1,1,$1+$1,$6,$7*
1,1,$1+$1,$8,$9*
0 Add four rect primitives between the rounded corners*
20,1,$1+$1,$2,$3,$4,$5,0*
20,1,$1+$1,$4,$5,$6,$7,0*
20,1,$1+$1,$6,$7,$8,$9,0*
20,1,$1+$1,$8,$9,$2,$3,0*%
G04 Aperture macros list end*
%TA.AperFunction,ComponentPad*%
%ADD10RoundRect,0.250000X-0.625000X0.350000X-0.625000X-0.350000X0.625000X-0.350000X0.625000X0.350000X0*%
%TD*%
%TA.AperFunction,ComponentPad*%
%ADD11O,1.750000X1.200000*%
%TD*%
%TA.AperFunction,ComponentPad*%
%ADD12RoundRect,0.250000X0.550000X0.550000X-0.550000X0.550000X-0.550000X-0.550000X0.550000X-0.550000X0*%
%TD*%
%TA.AperFunction,ComponentPad*%
%ADD13C,1.600000*%
%TD*%
%TA.AperFunction,ComponentPad*%
%ADD14C,3.000000*%
%TD*%
%TA.AperFunction,ComponentPad*%
%ADD15C,2.500000*%
%TD*%
%TA.AperFunction,ComponentPad*%
%ADD16C,1.440000*%
%TD*%
%TA.AperFunction,ComponentPad*%
%ADD17C,3.500000*%
%TD*%
%TA.AperFunction,ComponentPad*%
%ADD18RoundRect,0.249999X-0.850001X-0.850001X0.850001X-0.850001X0.850001X0.850001X-0.850001X0.850001X0*%
%TD*%
%TA.AperFunction,ComponentPad*%
%ADD19C,2.200000*%
%TD*%
%TA.AperFunction,ComponentPad*%
%ADD20C,3.900000*%
%TD*%
%TA.AperFunction,ConnectorPad*%
%ADD21C,7.000000*%
%TD*%
%TA.AperFunction,ComponentPad*%
%ADD22RoundRect,0.250000X0.350000X0.625000X-0.350000X0.625000X-0.350000X-0.625000X0.350000X-0.625000X0*%
%TD*%
%TA.AperFunction,ComponentPad*%
%ADD23O,1.200000X1.750000*%
%TD*%
%TA.AperFunction,ComponentPad*%
%ADD24C,3.400000*%
%TD*%
%TA.AperFunction,ComponentPad*%
%ADD25C,1.500000*%
%TD*%
%TA.AperFunction,ComponentPad*%
%ADD26R,2.000000X1.905000*%
%TD*%
%TA.AperFunction,ComponentPad*%
%ADD27O,2.000000X1.905000*%
%TD*%
%TA.AperFunction,ViaPad*%
%ADD28C,0.600000*%
%TD*%
%TA.AperFunction,ViaPad*%
%ADD29C,1.000000*%
%TD*%
%TA.AperFunction,ViaPad*%
%ADD30C,2.000000*%
%TD*%
%TA.AperFunction,Conductor*%
%ADD31C,0.700000*%
%TD*%
%TA.AperFunction,Conductor*%
%ADD32C,1.000000*%
%TD*%
%TA.AperFunction,Conductor*%
%ADD33C,0.300000*%
%TD*%
%TA.AperFunction,Conductor*%
%ADD34C,0.400000*%
%TD*%
%TA.AperFunction,Conductor*%
%ADD35C,0.200000*%
%TD*%
%TA.AperFunction,Conductor*%
%ADD36C,1.500000*%
%TD*%
%TA.AperFunction,Conductor*%
%ADD37C,4.000000*%
%TD*%
%TA.AperFunction,Conductor*%
%ADD38C,3.500000*%
%TD*%
%TA.AperFunction,Conductor*%
%ADD39C,0.500000*%
%TD*%
G04 APERTURE END LIST*
D10*
X94792800Y-78028800D03*
D11*
X94792800Y-80028800D03*
X94792800Y-82028800D03*
X94792800Y-84028800D03*
X94792800Y-86028800D03*
X94792800Y-88028800D03*
X94792800Y-90028800D03*
X94792800Y-92028800D03*
D12*
X129286000Y-100584000D03*
D13*
X129286000Y-98044000D03*
X121666000Y-98044000D03*
X121666000Y-100584000D03*
D14*
X161798000Y-78740000D03*
D15*
X155748000Y-80690000D03*
D14*
X155748000Y-92890000D03*
X167798000Y-92940000D03*
D15*
X167748000Y-80690000D03*
D16*
X106680000Y-83820000D03*
X109220000Y-83820000D03*
X111760000Y-83820000D03*
D17*
X156210000Y-71005200D03*
X163830000Y-71005200D03*
D18*
X164846000Y-114554000D03*
D19*
X172466000Y-114554000D03*
D20*
X177698400Y-66395600D03*
D21*
X177698400Y-66395600D03*
D12*
X161031000Y-114046000D03*
D13*
X161031000Y-111506000D03*
X161031000Y-108966000D03*
X161031000Y-106426000D03*
X153411000Y-106426000D03*
X153411000Y-108966000D03*
X153411000Y-111506000D03*
X153411000Y-114046000D03*
D22*
X114046000Y-99314000D03*
D23*
X112045999Y-99314000D03*
X110046000Y-99314000D03*
X108046000Y-99314000D03*
X106046000Y-99314000D03*
X104046000Y-99314000D03*
X102046001Y-99314000D03*
X100046000Y-99314000D03*
D12*
X129286000Y-108458000D03*
D13*
X129286000Y-105918000D03*
X121666000Y-105918000D03*
X121666000Y-108458000D03*
D24*
X178130200Y-76708000D03*
D20*
X177800000Y-129540000D03*
D21*
X177800000Y-129540000D03*
D24*
X177800000Y-103378000D03*
D17*
X112369600Y-71069200D03*
X119989600Y-71069200D03*
X127609600Y-71069200D03*
X135229600Y-71069200D03*
D20*
X94843600Y-66040000D03*
D21*
X94843600Y-66040000D03*
D20*
X94860000Y-129540000D03*
D21*
X94860000Y-129540000D03*
D16*
X142240000Y-83820000D03*
X139700000Y-83820000D03*
X137160000Y-83820000D03*
D24*
X177800000Y-118618000D03*
D25*
X96520000Y-121426000D03*
X99060000Y-121426000D03*
X101600000Y-121426000D03*
X104140000Y-121426000D03*
X106680000Y-121426000D03*
X114300000Y-106186000D03*
X111760000Y-106172000D03*
X109220000Y-106172000D03*
X106680000Y-106172000D03*
X104140000Y-106172000D03*
X101600000Y-106172000D03*
X99060000Y-106172000D03*
X96520000Y-106172000D03*
X109220000Y-121426000D03*
X114300000Y-121426000D03*
X111760000Y-121426000D03*
D24*
X177800000Y-110998000D03*
D26*
X178917600Y-87122000D03*
D27*
X173891600Y-89662000D03*
X178917600Y-92202000D03*
D28*
X119126000Y-111760000D03*
X119126000Y-94234000D03*
X101600000Y-108458000D03*
X93726000Y-105156000D03*
X96225600Y-93218000D03*
X124841000Y-91313000D03*
X106426000Y-90424000D03*
X119888000Y-90170000D03*
X114935000Y-90170000D03*
X150114000Y-119888000D03*
D29*
X127508000Y-93726000D03*
D28*
X131318000Y-97536000D03*
X91948000Y-105156000D03*
X152654000Y-98044000D03*
X117475000Y-85725000D03*
X130683000Y-92583000D03*
X123825000Y-85725000D03*
X146050000Y-130810000D03*
X147320000Y-130810000D03*
X139065000Y-118745000D03*
X130937000Y-118745000D03*
D29*
X137414000Y-120650000D03*
D28*
X137340000Y-93525000D03*
X143510000Y-120650000D03*
D30*
X121285000Y-77470000D03*
X144272000Y-77470000D03*
D28*
X128016000Y-80264000D03*
X146050000Y-85852000D03*
X146939000Y-112141000D03*
X96520000Y-112268000D03*
X150876000Y-96520000D03*
X159004000Y-100838000D03*
D31*
X172466000Y-109474000D02*
X172466000Y-108712000D01*
X172466000Y-108712000D02*
X174752000Y-106426000D01*
D32*
X161031000Y-106426000D02*
X174752000Y-106426000D01*
X174752000Y-106426000D02*
X177800000Y-103378000D01*
X152654000Y-98044000D02*
X161031000Y-106421000D01*
X161031000Y-106421000D02*
X161031000Y-106426000D01*
D31*
X102046001Y-99314000D02*
X102108000Y-99252001D01*
X94902000Y-80138000D02*
X94792800Y-80028800D01*
X119126000Y-94234000D02*
X114808000Y-94234000D01*
X100712000Y-80138000D02*
X94902000Y-80138000D01*
X119126000Y-116600000D02*
X114300000Y-121426000D01*
X114808000Y-94234000D02*
X106553000Y-85979000D01*
X106553000Y-85979000D02*
X100712000Y-80138000D01*
X102108000Y-99252001D02*
X102108000Y-90424000D01*
X102108000Y-90424000D02*
X106553000Y-85979000D01*
X119126000Y-111760000D02*
X119126000Y-116600000D01*
D33*
X96520000Y-108458000D02*
X93726000Y-105664000D01*
X96225600Y-93218000D02*
X96266000Y-93177600D01*
X101600000Y-108458000D02*
X113792000Y-108458000D01*
X96266000Y-93177600D02*
X96266000Y-87502000D01*
X93726000Y-105664000D02*
X93726000Y-105156000D01*
X96266000Y-87502000D02*
X94792800Y-86028800D01*
X113792000Y-108458000D02*
X121666000Y-100584000D01*
X101600000Y-108458000D02*
X96520000Y-108458000D01*
D34*
X124841000Y-91313000D02*
X123698000Y-90170000D01*
D35*
X104140000Y-103632000D02*
X104140000Y-106172000D01*
X106426000Y-91948000D02*
X105029000Y-93345000D01*
X105029000Y-93345000D02*
X105029000Y-102743000D01*
D34*
X123698000Y-90170000D02*
X119888000Y-90170000D01*
X119888000Y-90170000D02*
X114935000Y-90170000D01*
D35*
X106426000Y-90424000D02*
X106426000Y-91948000D01*
X105029000Y-102743000D02*
X104140000Y-103632000D01*
D32*
X135255000Y-105029000D02*
X150114000Y-119888000D01*
X135255000Y-101473000D02*
X135255000Y-105029000D01*
X127508000Y-93726000D02*
X131318000Y-97536000D01*
X131318000Y-97536000D02*
X135255000Y-101473000D01*
D33*
X119634000Y-110490000D02*
X105918000Y-110490000D01*
X91948000Y-105156000D02*
X101600000Y-114808000D01*
X101600000Y-114808000D02*
X101600000Y-121426000D01*
X121666000Y-108458000D02*
X119634000Y-110490000D01*
X105918000Y-110490000D02*
X101600000Y-114808000D01*
D31*
X94996000Y-99314000D02*
X90932000Y-95250000D01*
D36*
X119393200Y-70472800D02*
X119393200Y-69227200D01*
D37*
X136042400Y-70040000D02*
X135229600Y-70852800D01*
D36*
X119989600Y-71069200D02*
X119393200Y-70472800D01*
D37*
X124727200Y-64770000D02*
X119989600Y-69507600D01*
D32*
X136144000Y-98044000D02*
X152654000Y-98044000D01*
X119989600Y-71272400D02*
X117348000Y-73914000D01*
D37*
X156210000Y-71005200D02*
X155244800Y-70040000D01*
D36*
X135890000Y-76708000D02*
X139954000Y-80772000D01*
D31*
X94792800Y-78028800D02*
X94902000Y-78138000D01*
D36*
X135890000Y-71729600D02*
X135890000Y-76708000D01*
X142239999Y-83057999D02*
X142239999Y-83820000D01*
D31*
X93675200Y-78028800D02*
X94792800Y-78028800D01*
X100046000Y-99314000D02*
X94996000Y-99314000D01*
X90932000Y-95250000D02*
X90932000Y-80772000D01*
X123825000Y-85725000D02*
X117475000Y-85725000D01*
D37*
X135229600Y-69355200D02*
X130644400Y-64770000D01*
D32*
X117348000Y-85598000D02*
X117475000Y-85725000D01*
D37*
X135229600Y-70852800D02*
X135229600Y-71069200D01*
D31*
X113411000Y-85725000D02*
X117475000Y-85725000D01*
X111760000Y-84074000D02*
X113411000Y-85725000D01*
D37*
X130644400Y-64770000D02*
X124727200Y-64770000D01*
D31*
X111760000Y-83820000D02*
X111760000Y-84074000D01*
X90932000Y-80772000D02*
X93675200Y-78028800D01*
D32*
X130683000Y-92583000D02*
X136144000Y-98044000D01*
X119989600Y-71069200D02*
X119989600Y-71272400D01*
D37*
X119989600Y-69507600D02*
X119989600Y-71069200D01*
D31*
X106078000Y-78138000D02*
X111760000Y-83820000D01*
D36*
X135229600Y-71069200D02*
X135890000Y-71729600D01*
D32*
X117348000Y-73914000D02*
X117348000Y-85598000D01*
D31*
X94902000Y-78138000D02*
X106078000Y-78138000D01*
D37*
X155244800Y-70040000D02*
X136042400Y-70040000D01*
X135229600Y-71069200D02*
X135229600Y-69355200D01*
D36*
X139954000Y-80772000D02*
X142239999Y-83057999D01*
D33*
X133350000Y-102108000D02*
X129286000Y-98044000D01*
X146050000Y-130810000D02*
X146050000Y-118618000D01*
X133350000Y-105918000D02*
X133350000Y-102108000D01*
X146050000Y-118618000D02*
X133350000Y-105918000D01*
X145542000Y-131572000D02*
X145034000Y-131064000D01*
X145034000Y-119126000D02*
X133609000Y-107701000D01*
X133609000Y-107701000D02*
X131069000Y-107701000D01*
X145034000Y-131064000D02*
X145034000Y-119126000D01*
X131069000Y-107701000D02*
X129286000Y-105918000D01*
X146558000Y-131572000D02*
X145542000Y-131572000D01*
X147320000Y-130810000D02*
X146558000Y-131572000D01*
D37*
X167748000Y-80690000D02*
X167748000Y-79810000D01*
X163830000Y-71005200D02*
X163830000Y-76200000D01*
X167748000Y-79810000D02*
X166678000Y-78740000D01*
X163830000Y-76200000D02*
X161798000Y-78232000D01*
D32*
X130937000Y-118745000D02*
X139065000Y-118745000D01*
D37*
X161798000Y-78232000D02*
X161798000Y-78740000D01*
X166678000Y-78740000D02*
X161798000Y-78740000D01*
X178917600Y-92202000D02*
X178733000Y-92202000D01*
X137340000Y-93525000D02*
X121285000Y-77470000D01*
X148537000Y-93525000D02*
X148590000Y-93472000D01*
X155748000Y-93264000D02*
X163449000Y-100965000D01*
X178917600Y-92227400D02*
X178917600Y-92202000D01*
X148590000Y-93472000D02*
X155166000Y-93472000D01*
X170180000Y-100965000D02*
X178917600Y-92227400D01*
X163449000Y-100965000D02*
X170180000Y-100965000D01*
X155748000Y-92890000D02*
X155748000Y-93264000D01*
X155166000Y-93472000D02*
X155748000Y-92890000D01*
D32*
X143510000Y-120650000D02*
X137414000Y-120650000D01*
D37*
X140462000Y-93525000D02*
X139192000Y-93525000D01*
X140462000Y-93525000D02*
X148537000Y-93525000D01*
X139192000Y-93525000D02*
X137340000Y-93525000D01*
X161848800Y-87020400D02*
X167768400Y-92940000D01*
X144272000Y-77470000D02*
X144272000Y-79502000D01*
X144272000Y-79502000D02*
X151765000Y-86995000D01*
D38*
X167843200Y-90424000D02*
X167843200Y-89458800D01*
D37*
X160100400Y-87020400D02*
X161848800Y-87020400D01*
X160075000Y-86995000D02*
X160100400Y-87020400D01*
X167768400Y-92940000D02*
X167798000Y-92940000D01*
D38*
X167798000Y-90469200D02*
X167843200Y-90424000D01*
D39*
X128016000Y-80264000D02*
X129159000Y-80264000D01*
X149479000Y-87376000D02*
X151130000Y-85725000D01*
D38*
X176885600Y-85090000D02*
X178917600Y-87122000D01*
D39*
X136271000Y-87376000D02*
X149479000Y-87376000D01*
X129159000Y-80264000D02*
X136271000Y-87376000D01*
D38*
X167843200Y-89458800D02*
X172212000Y-85090000D01*
X172212000Y-85090000D02*
X176885600Y-85090000D01*
X167798000Y-92940000D02*
X167798000Y-90469200D01*
D37*
X151765000Y-86995000D02*
X160075000Y-86995000D01*
D39*
X177292000Y-119126000D02*
X151638000Y-119126000D01*
X177800000Y-118618000D02*
X177292000Y-119126000D01*
X113538000Y-88646000D02*
X109220000Y-84328000D01*
X109220000Y-84328000D02*
X109220000Y-83820000D01*
X151638000Y-119126000D02*
X137160000Y-104648000D01*
X137160000Y-104648000D02*
X137160000Y-101346000D01*
X124460000Y-88646000D02*
X113538000Y-88646000D01*
X137160000Y-101346000D02*
X124460000Y-88646000D01*
D33*
X146050000Y-85852000D02*
X139192000Y-85852000D01*
D39*
X177800000Y-113334800D02*
X177800000Y-110998000D01*
D33*
X139192000Y-85852000D02*
X137160000Y-83820000D01*
D39*
X173659800Y-117475000D02*
X177800000Y-113334800D01*
X152273000Y-117475000D02*
X173659800Y-117475000D01*
X146939000Y-112141000D02*
X152273000Y-117475000D01*
D33*
X96520000Y-112268000D02*
X96520000Y-121426000D01*
D34*
X154686000Y-96520000D02*
X159004000Y-100838000D01*
X150876000Y-96520000D02*
X154686000Y-96520000D01*
D31*
X172466000Y-114554000D02*
X172466000Y-109474000D01*
%TA.AperFunction,Conductor*%
G36*
X182948539Y-59067185D02*
G01*
X182994294Y-59119989D01*
X183005500Y-59171500D01*
X183005500Y-65916000D01*
X182985815Y-65983039D01*
X182933011Y-66028794D01*
X182881500Y-66040000D01*
X181795620Y-66040000D01*
X181728581Y-66020315D01*
X181682826Y-65967511D01*
X181672217Y-65928154D01*
X181660373Y-65807897D01*
X181583695Y-65422405D01*
X181583692Y-65422394D01*
X181583691Y-65422391D01*
X181583690Y-65422385D01*
X181469590Y-65046247D01*
X181319171Y-64683103D01*
X181133882Y-64336451D01*
X180915507Y-64009631D01*
X180666150Y-63705788D01*
X180666149Y-63705787D01*
X180666145Y-63705782D01*
X180388217Y-63427854D01*
X180084374Y-63178497D01*
X180084373Y-63178496D01*
X180084369Y-63178493D01*
X179757549Y-62960118D01*
X179757544Y-62960115D01*
X179757537Y-62960111D01*
X179410904Y-62774832D01*
X179410899Y-62774830D01*
X179047754Y-62624410D01*
X178671605Y-62510307D01*
X178671594Y-62510304D01*
X178286102Y-62433626D01*
X177991489Y-62404610D01*
X177894932Y-62395100D01*
X177501868Y-62395100D01*
X177412651Y-62403887D01*
X177110697Y-62433626D01*
X176725205Y-62510304D01*
X176725194Y-62510307D01*
X176349045Y-62624410D01*
X175985900Y-62774830D01*
X175985895Y-62774832D01*
X175639262Y-62960111D01*
X175639244Y-62960122D01*
X175312439Y-63178487D01*
X175312425Y-63178497D01*
X175008582Y-63427854D01*
X174730654Y-63705782D01*
X174481297Y-64009625D01*
X174481287Y-64009639D01*
X174262922Y-64336444D01*
X174262911Y-64336462D01*
X174077632Y-64683095D01*
X174077630Y-64683100D01*
X173927210Y-65046245D01*
X173813107Y-65422394D01*
X173813104Y-65422405D01*
X173736426Y-65807897D01*
X173724583Y-65928154D01*
X173698422Y-65992941D01*
X173641388Y-66033300D01*
X173601180Y-66040000D01*
X158750000Y-66040000D01*
X158750000Y-72901000D01*
X158730315Y-72968039D01*
X158677511Y-73013794D01*
X158626000Y-73025000D01*
X157639066Y-73025000D01*
X157572027Y-73005315D01*
X157526272Y-72952511D01*
X157516328Y-72883353D01*
X157545353Y-72819797D01*
X157563579Y-72802625D01*
X157614667Y-72763422D01*
X157614667Y-72763420D01*
X156572293Y-71721047D01*
X156588942Y-71714151D01*
X156719970Y-71626601D01*
X156831401Y-71515170D01*
X156918951Y-71384142D01*
X156925846Y-71367493D01*
X157968220Y-72409867D01*
X157968222Y-72409867D01*
X158084813Y-72257925D01*
X158084825Y-72257907D01*
X158232290Y-72002492D01*
X158232295Y-72002481D01*
X158345161Y-71730000D01*
X158345164Y-71729990D01*
X158421500Y-71445097D01*
X158421503Y-71445084D01*
X158459998Y-71152683D01*
X158460000Y-71152666D01*
X158460000Y-70857733D01*
X158459998Y-70857716D01*
X158421503Y-70565315D01*
X158421500Y-70565302D01*
X158345164Y-70280409D01*
X158345161Y-70280399D01*
X158232295Y-70007918D01*
X158232290Y-70007907D01*
X158084825Y-69752492D01*
X158084819Y-69752484D01*
X157968221Y-69600531D01*
X156925846Y-70642905D01*
X156918951Y-70626258D01*
X156831401Y-70495230D01*
X156719970Y-70383799D01*
X156588942Y-70296249D01*
X156572293Y-70289352D01*
X157614667Y-69246977D01*
X157462715Y-69130380D01*
X157462707Y-69130374D01*
X157207292Y-68982909D01*
X157207281Y-68982904D01*
X156934800Y-68870038D01*
X156934790Y-68870035D01*
X156649897Y-68793699D01*
X156649884Y-68793696D01*
X156357483Y-68755201D01*
X156357466Y-68755200D01*
X156062534Y-68755200D01*
X156062516Y-68755201D01*
X155770115Y-68793696D01*
X155770102Y-68793699D01*
X155485209Y-68870035D01*
X155485199Y-68870038D01*
X155212718Y-68982904D01*
X155212707Y-68982909D01*
X154957292Y-69130374D01*
X154957276Y-69130385D01*
X154805331Y-69246975D01*
X154805331Y-69246977D01*
X155847706Y-70289352D01*
X155831058Y-70296249D01*
X155700030Y-70383799D01*
X155588599Y-70495230D01*
X155501049Y-70626258D01*
X155494152Y-70642906D01*
X154451777Y-69600531D01*
X154451775Y-69600531D01*
X154335185Y-69752476D01*
X154335174Y-69752492D01*
X154187709Y-70007907D01*
X154187704Y-70007918D01*
X154074838Y-70280399D01*
X154074835Y-70280409D01*
X153998499Y-70565302D01*
X153998496Y-70565315D01*
X153960001Y-70857716D01*
X153960000Y-70857733D01*
X153960000Y-71152666D01*
X153960001Y-71152683D01*
X153998496Y-71445084D01*
X153998499Y-71445097D01*
X154074835Y-71729990D01*
X154074838Y-71730000D01*
X154187704Y-72002481D01*
X154187709Y-72002492D01*
X154335174Y-72257907D01*
X154335180Y-72257915D01*
X154451777Y-72409867D01*
X155494152Y-71367491D01*
X155501049Y-71384142D01*
X155588599Y-71515170D01*
X155700030Y-71626601D01*
X155831058Y-71714151D01*
X155847706Y-71721047D01*
X154805331Y-72763421D01*
X154856421Y-72802624D01*
X154897623Y-72859052D01*
X154901778Y-72928798D01*
X154867566Y-72989719D01*
X154805848Y-73022471D01*
X154780934Y-73025000D01*
X136742071Y-73025000D01*
X136675032Y-73005315D01*
X136629277Y-72952511D01*
X136619333Y-72883353D01*
X136632489Y-72854543D01*
X136634267Y-72827420D01*
X135591893Y-71785047D01*
X135608542Y-71778151D01*
X135739570Y-71690601D01*
X135851001Y-71579170D01*
X135938551Y-71448142D01*
X135945447Y-71431493D01*
X136987820Y-72473867D01*
X136987822Y-72473867D01*
X137104413Y-72321925D01*
X137104425Y-72321907D01*
X137251890Y-72066492D01*
X137251895Y-72066481D01*
X137364761Y-71794000D01*
X137364764Y-71793990D01*
X137441100Y-71509097D01*
X137441103Y-71509084D01*
X137479598Y-71216683D01*
X137479600Y-71216666D01*
X137479600Y-70921733D01*
X137479598Y-70921716D01*
X137472771Y-70869853D01*
X137441103Y-70629315D01*
X137441100Y-70629302D01*
X137364764Y-70344409D01*
X137364761Y-70344399D01*
X137251895Y-70071918D01*
X137251890Y-70071907D01*
X137104425Y-69816492D01*
X137104419Y-69816484D01*
X136987821Y-69664531D01*
X135945446Y-70706905D01*
X135938551Y-70690258D01*
X135851001Y-70559230D01*
X135739570Y-70447799D01*
X135608542Y-70360249D01*
X135591893Y-70353352D01*
X136634267Y-69310977D01*
X136482315Y-69194380D01*
X136482307Y-69194374D01*
X136226892Y-69046909D01*
X136226881Y-69046904D01*
X135954400Y-68934038D01*
X135954390Y-68934035D01*
X135669497Y-68857699D01*
X135669484Y-68857696D01*
X135377083Y-68819201D01*
X135377066Y-68819200D01*
X135082134Y-68819200D01*
X135082116Y-68819201D01*
X134789715Y-68857696D01*
X134789702Y-68857699D01*
X134504809Y-68934035D01*
X134504799Y-68934038D01*
X134232318Y-69046904D01*
X134232307Y-69046909D01*
X133976892Y-69194374D01*
X133976876Y-69194385D01*
X133824931Y-69310975D01*
X133824931Y-69310977D01*
X134867306Y-70353352D01*
X134850658Y-70360249D01*
X134719630Y-70447799D01*
X134608199Y-70559230D01*
X134520649Y-70690258D01*
X134513752Y-70706906D01*
X133468002Y-69661156D01*
X133456353Y-69662831D01*
X133435886Y-69653484D01*
X133413926Y-69648570D01*
X133404715Y-69639248D01*
X133392797Y-69633806D01*
X133380631Y-69614876D01*
X133364816Y-69598871D01*
X133361247Y-69584713D01*
X133355023Y-69575028D01*
X133350000Y-69540093D01*
X133350000Y-66040000D01*
X108458000Y-66040000D01*
X108458000Y-79375000D01*
X101092420Y-79375000D01*
X101005416Y-79338962D01*
X101005414Y-79338961D01*
X100960086Y-79320185D01*
X100960074Y-79320182D01*
X100795771Y-79287500D01*
X100795767Y-79287500D01*
X95934204Y-79287500D01*
X95904763Y-79278855D01*
X95874777Y-79272332D01*
X95869761Y-79268577D01*
X95867165Y-79267815D01*
X95846523Y-79251181D01*
X95799308Y-79203966D01*
X95765823Y-79142643D01*
X95770807Y-79072951D01*
X95812679Y-79017018D01*
X95821894Y-79010745D01*
X95886145Y-78971115D01*
X96010115Y-78847145D01*
X96102156Y-78697924D01*
X96102158Y-78697919D01*
X96157305Y-78531497D01*
X96157306Y-78531490D01*
X96167799Y-78428786D01*
X96167800Y-78428773D01*
X96167800Y-78278800D01*
X95073130Y-78278800D01*
X95092875Y-78259055D01*
X95142244Y-78173545D01*
X95167800Y-78078170D01*
X95167800Y-77979430D01*
X95142244Y-77884055D01*
X95092875Y-77798545D01*
X95073130Y-77778800D01*
X96167799Y-77778800D01*
X96167799Y-77628828D01*
X96167798Y-77628813D01*
X96157305Y-77526102D01*
X96102158Y-77359680D01*
X96102156Y-77359675D01*
X96010115Y-77210454D01*
X95886145Y-77086484D01*
X95736924Y-76994443D01*
X95736919Y-76994441D01*
X95570497Y-76939294D01*
X95570490Y-76939293D01*
X95467786Y-76928800D01*
X95042800Y-76928800D01*
X95042800Y-77748470D01*
X95023055Y-77728725D01*
X94937545Y-77679356D01*
X94842170Y-77653800D01*
X94743430Y-77653800D01*
X94648055Y-77679356D01*
X94562545Y-77728725D01*
X94542800Y-77748470D01*
X94542800Y-76928800D01*
X94117828Y-76928800D01*
X94117812Y-76928801D01*
X94015102Y-76939294D01*
X93848680Y-76994441D01*
X93848675Y-76994443D01*
X93699454Y-77086484D01*
X93575484Y-77210454D01*
X93483443Y-77359675D01*
X93483441Y-77359680D01*
X93428294Y-77526102D01*
X93428293Y-77526109D01*
X93417800Y-77628813D01*
X93417800Y-77778800D01*
X94512470Y-77778800D01*
X94492725Y-77798545D01*
X94443356Y-77884055D01*
X94417800Y-77979430D01*
X94417800Y-78078170D01*
X94443356Y-78173545D01*
X94492725Y-78259055D01*
X94512470Y-78278800D01*
X93417801Y-78278800D01*
X93417801Y-78428786D01*
X93428294Y-78531497D01*
X93483441Y-78697919D01*
X93483443Y-78697924D01*
X93575484Y-78847145D01*
X93699456Y-78971117D01*
X93763706Y-79010746D01*
X93810431Y-79062693D01*
X93821654Y-79131656D01*
X93793811Y-79195738D01*
X93786292Y-79203966D01*
X93678385Y-79311873D01*
X93632520Y-79375000D01*
X89721700Y-79375000D01*
X89721700Y-65843471D01*
X90843100Y-65843471D01*
X90843100Y-66236528D01*
X90881626Y-66627702D01*
X90958304Y-67013194D01*
X90958307Y-67013205D01*
X91072410Y-67389354D01*
X91222830Y-67752499D01*
X91222832Y-67752504D01*
X91408111Y-68099137D01*
X91408122Y-68099155D01*
X91626487Y-68425960D01*
X91626497Y-68425974D01*
X91875854Y-68729817D01*
X92153782Y-69007745D01*
X92153787Y-69007749D01*
X92153788Y-69007750D01*
X92457631Y-69257107D01*
X92784451Y-69475482D01*
X92784460Y-69475487D01*
X92784462Y-69475488D01*
X93131095Y-69660767D01*
X93131097Y-69660767D01*
X93131103Y-69660771D01*
X93494247Y-69811190D01*
X93870385Y-69925290D01*
X93870391Y-69925291D01*
X93870394Y-69925292D01*
X93870405Y-69925295D01*
X94255897Y-70001973D01*
X94647068Y-70040500D01*
X94647071Y-70040500D01*
X95040129Y-70040500D01*
X95040132Y-70040500D01*
X95431303Y-70001973D01*
X95506348Y-69987045D01*
X95816794Y-69925295D01*
X95816805Y-69925292D01*
X95816805Y-69925291D01*
X95816815Y-69925290D01*
X96192953Y-69811190D01*
X96556097Y-69660771D01*
X96902749Y-69475482D01*
X97229569Y-69257107D01*
X97533412Y-69007750D01*
X97811350Y-68729812D01*
X98060707Y-68425969D01*
X98279082Y-68099149D01*
X98464371Y-67752497D01*
X98614790Y-67389353D01*
X98728890Y-67013215D01*
X98728892Y-67013205D01*
X98728895Y-67013194D01*
X98805573Y-66627702D01*
X98844100Y-66236528D01*
X98844100Y-65843471D01*
X98840596Y-65807897D01*
X98805573Y-65452297D01*
X98799623Y-65422385D01*
X98728895Y-65066805D01*
X98728892Y-65066794D01*
X98728891Y-65066791D01*
X98728890Y-65066785D01*
X98614790Y-64690647D01*
X98464371Y-64327503D01*
X98294469Y-64009639D01*
X98279088Y-63980862D01*
X98279087Y-63980860D01*
X98279082Y-63980851D01*
X98060707Y-63654031D01*
X97811350Y-63350188D01*
X97811349Y-63350187D01*
X97811345Y-63350182D01*
X97533417Y-63072254D01*
X97229574Y-62822897D01*
X97229573Y-62822896D01*
X97229569Y-62822893D01*
X96902749Y-62604518D01*
X96902744Y-62604515D01*
X96902737Y-62604511D01*
X96556104Y-62419232D01*
X96556099Y-62419230D01*
X96192954Y-62268810D01*
X95816805Y-62154707D01*
X95816794Y-62154704D01*
X95431302Y-62078026D01*
X95136689Y-62049010D01*
X95040132Y-62039500D01*
X94647068Y-62039500D01*
X94557851Y-62048287D01*
X94255897Y-62078026D01*
X93870405Y-62154704D01*
X93870394Y-62154707D01*
X93494245Y-62268810D01*
X93131100Y-62419230D01*
X93131095Y-62419232D01*
X92784462Y-62604511D01*
X92784444Y-62604522D01*
X92457639Y-62822887D01*
X92457625Y-62822897D01*
X92153782Y-63072254D01*
X91875854Y-63350182D01*
X91626497Y-63654025D01*
X91626487Y-63654039D01*
X91408122Y-63980844D01*
X91408111Y-63980862D01*
X91222832Y-64327495D01*
X91222830Y-64327500D01*
X91072410Y-64690645D01*
X90958307Y-65066794D01*
X90958304Y-65066805D01*
X90881626Y-65452297D01*
X90851887Y-65754251D01*
X90846604Y-65807897D01*
X90843100Y-65843471D01*
X89721700Y-65843471D01*
X89721700Y-59171500D01*
X89741385Y-59104461D01*
X89794189Y-59058706D01*
X89845700Y-59047500D01*
X182881500Y-59047500D01*
X182948539Y-59067185D01*
G37*
%TD.AperFunction*%
%TA.AperFunction,Conductor*%
G36*
X134520649Y-71448142D02*
G01*
X134608199Y-71579170D01*
X134719630Y-71690601D01*
X134850658Y-71778151D01*
X134867306Y-71785047D01*
X133824931Y-72827421D01*
X133826332Y-72848801D01*
X133833817Y-72859051D01*
X133837972Y-72928797D01*
X133803760Y-72989718D01*
X133742043Y-73022471D01*
X133717128Y-73025000D01*
X133474000Y-73025000D01*
X133406961Y-73005315D01*
X133361206Y-72952511D01*
X133350000Y-72901000D01*
X133350000Y-72598305D01*
X133369685Y-72531266D01*
X133422489Y-72485511D01*
X133468103Y-72477141D01*
X134513752Y-71431491D01*
X134520649Y-71448142D01*
G37*
%TD.AperFunction*%
%TA.AperFunction,Conductor*%
G36*
X93576568Y-79452011D02*
G01*
X93497928Y-79606352D01*
X93444397Y-79771102D01*
X93426386Y-79884821D01*
X93417300Y-79942189D01*
X93417300Y-80115411D01*
X93444398Y-80286501D01*
X93497927Y-80451245D01*
X93576568Y-80605588D01*
X93678386Y-80745728D01*
X93800872Y-80868214D01*
X93800878Y-80868218D01*
X93883823Y-80928483D01*
X93926489Y-80983813D01*
X93932467Y-81053426D01*
X93899861Y-81115221D01*
X93883823Y-81129117D01*
X93800878Y-81189381D01*
X93800869Y-81189388D01*
X93678388Y-81311869D01*
X93678388Y-81311870D01*
X93678386Y-81311872D01*
X93634659Y-81372056D01*
X93576568Y-81452011D01*
X93497928Y-81606352D01*
X93444397Y-81771102D01*
X93417300Y-81942189D01*
X93417300Y-82115410D01*
X93444397Y-82286497D01*
X93497928Y-82451247D01*
X93552023Y-82557416D01*
X93576568Y-82605588D01*
X93678386Y-82745728D01*
X93800872Y-82868214D01*
X93818057Y-82880699D01*
X93883823Y-82928483D01*
X93926489Y-82983813D01*
X93932467Y-83053426D01*
X93899861Y-83115221D01*
X93883823Y-83129117D01*
X93800878Y-83189381D01*
X93800869Y-83189388D01*
X93678388Y-83311869D01*
X93678388Y-83311870D01*
X93678386Y-83311872D01*
X93649601Y-83351491D01*
X93576568Y-83452011D01*
X93497928Y-83606352D01*
X93444397Y-83771102D01*
X93428312Y-83872661D01*
X93417300Y-83942189D01*
X93417300Y-84115411D01*
X93444398Y-84286501D01*
X93497927Y-84451245D01*
X93576568Y-84605588D01*
X93678386Y-84745728D01*
X93800872Y-84868214D01*
X93800878Y-84868218D01*
X93883823Y-84928483D01*
X93926489Y-84983813D01*
X93932467Y-85053426D01*
X93899861Y-85115221D01*
X93883823Y-85129117D01*
X93800878Y-85189381D01*
X93800869Y-85189388D01*
X93678388Y-85311869D01*
X93678388Y-85311870D01*
X93678386Y-85311872D01*
X93673663Y-85318373D01*
X93576568Y-85452011D01*
X93497928Y-85606352D01*
X93444397Y-85771102D01*
X93428891Y-85869007D01*
X93417300Y-85942189D01*
X93417300Y-86115411D01*
X93444398Y-86286501D01*
X93497927Y-86451245D01*
X93576568Y-86605588D01*
X93678386Y-86745728D01*
X93800872Y-86868214D01*
X93800878Y-86868218D01*
X93883823Y-86928483D01*
X93926489Y-86983813D01*
X93932467Y-87053426D01*
X93899861Y-87115221D01*
X93883823Y-87129117D01*
X93800878Y-87189381D01*
X93800869Y-87189388D01*
X93678388Y-87311869D01*
X93678388Y-87311870D01*
X93678386Y-87311872D01*
X93634659Y-87372056D01*
X93576568Y-87452011D01*
X93497928Y-87606352D01*
X93444397Y-87771102D01*
X93417300Y-87942189D01*
X93417300Y-88115410D01*
X93437789Y-88244778D01*
X93444398Y-88286501D01*
X93497927Y-88451245D01*
X93576568Y-88605588D01*
X93678386Y-88745728D01*
X93800872Y-88868214D01*
X93800878Y-88868218D01*
X93883823Y-88928483D01*
X93926489Y-88983813D01*
X93932467Y-89053426D01*
X93899861Y-89115221D01*
X93883823Y-89129117D01*
X93800878Y-89189381D01*
X93800869Y-89189388D01*
X93678388Y-89311869D01*
X93678388Y-89311870D01*
X93678386Y-89311872D01*
X93637856Y-89367656D01*
X93576568Y-89452011D01*
X93497928Y-89606352D01*
X93444397Y-89771102D01*
X93417300Y-89942189D01*
X93417300Y-90115410D01*
X93429194Y-90190510D01*
X93444398Y-90286501D01*
X93497927Y-90451245D01*
X93576568Y-90605588D01*
X93678386Y-90745728D01*
X93800872Y-90868214D01*
X93810306Y-90875068D01*
X93883823Y-90928483D01*
X93926489Y-90983813D01*
X93932467Y-91053426D01*
X93899861Y-91115221D01*
X93883823Y-91129117D01*
X93800878Y-91189381D01*
X93800869Y-91189388D01*
X93678388Y-91311869D01*
X93678388Y-91311870D01*
X93678386Y-91311872D01*
X93634659Y-91372056D01*
X93576568Y-91452011D01*
X93497928Y-91606352D01*
X93444397Y-91771102D01*
X93418472Y-91934789D01*
X93417300Y-91942189D01*
X93417300Y-92115411D01*
X93444398Y-92286501D01*
X93497927Y-92451245D01*
X93576568Y-92605588D01*
X93678386Y-92745728D01*
X93800872Y-92868214D01*
X93941012Y-92970032D01*
X94095355Y-93048673D01*
X94260099Y-93102202D01*
X94431189Y-93129300D01*
X94431190Y-93129300D01*
X95154410Y-93129300D01*
X95154411Y-93129300D01*
X95281702Y-93109139D01*
X95350996Y-93118094D01*
X95404448Y-93163090D01*
X95425087Y-93229841D01*
X95425100Y-93231612D01*
X95425100Y-93296846D01*
X95455861Y-93451489D01*
X95455864Y-93451501D01*
X95516202Y-93597172D01*
X95516209Y-93597185D01*
X95603810Y-93728288D01*
X95603813Y-93728292D01*
X95715307Y-93839786D01*
X95715311Y-93839789D01*
X95846414Y-93927390D01*
X95846427Y-93927397D01*
X95987728Y-93985925D01*
X95992103Y-93987737D01*
X96143420Y-94017836D01*
X96146753Y-94018499D01*
X96146756Y-94018500D01*
X96146758Y-94018500D01*
X96304444Y-94018500D01*
X96304445Y-94018499D01*
X96459097Y-93987737D01*
X96604779Y-93927394D01*
X96735889Y-93839789D01*
X96847389Y-93728289D01*
X96934994Y-93597179D01*
X96995337Y-93451497D01*
X97026100Y-93296842D01*
X97026100Y-93139158D01*
X97026100Y-93139155D01*
X97026099Y-93139153D01*
X97015967Y-93088218D01*
X96995337Y-92984503D01*
X96934994Y-92838821D01*
X96934990Y-92838815D01*
X96932121Y-92833447D01*
X96934229Y-92832320D01*
X96916519Y-92775708D01*
X96916500Y-92773527D01*
X96916500Y-87437928D01*
X96891502Y-87312261D01*
X96891501Y-87312260D01*
X96891501Y-87312256D01*
X96842465Y-87193873D01*
X96842464Y-87193872D01*
X96842460Y-87193864D01*
X96817887Y-87157089D01*
X96817885Y-87157087D01*
X96771276Y-87087330D01*
X96771274Y-87087328D01*
X96771272Y-87087325D01*
X96771271Y-87087324D01*
X96153057Y-86469111D01*
X96119572Y-86407788D01*
X96122806Y-86343114D01*
X96141202Y-86286501D01*
X96168300Y-86115411D01*
X96168300Y-85942189D01*
X96141202Y-85771099D01*
X96087673Y-85606355D01*
X96009032Y-85452012D01*
X95907214Y-85311872D01*
X95784728Y-85189386D01*
X95701775Y-85129117D01*
X95659111Y-85073788D01*
X95653132Y-85004174D01*
X95685738Y-84942379D01*
X95701776Y-84928482D01*
X95784728Y-84868214D01*
X95907214Y-84745728D01*
X96009032Y-84605588D01*
X96087673Y-84451245D01*
X96141202Y-84286501D01*
X96168300Y-84115411D01*
X96168300Y-83942189D01*
X96141202Y-83771099D01*
X96087673Y-83606355D01*
X96009032Y-83452012D01*
X95907214Y-83311872D01*
X95784728Y-83189386D01*
X95701775Y-83129117D01*
X95659111Y-83073788D01*
X95653132Y-83004174D01*
X95685738Y-82942379D01*
X95701776Y-82928482D01*
X95784728Y-82868214D01*
X95907214Y-82745728D01*
X96009032Y-82605588D01*
X96087673Y-82451245D01*
X96141202Y-82286501D01*
X96168300Y-82115411D01*
X96168300Y-81942189D01*
X96141202Y-81771099D01*
X96087673Y-81606355D01*
X96009032Y-81452012D01*
X95907214Y-81311872D01*
X95795523Y-81200181D01*
X95762038Y-81138858D01*
X95767022Y-81069166D01*
X95808894Y-81013233D01*
X95874358Y-80988816D01*
X95883204Y-80988500D01*
X100308349Y-80988500D01*
X100375388Y-81008185D01*
X100396030Y-81024819D01*
X105262529Y-85891318D01*
X105296014Y-85952641D01*
X105291030Y-86022333D01*
X105262529Y-86066680D01*
X101447375Y-89881834D01*
X101447372Y-89881838D01*
X101354297Y-90021133D01*
X101354296Y-90021136D01*
X101325293Y-90091157D01*
X101325293Y-90091158D01*
X101290184Y-90175917D01*
X101290182Y-90175925D01*
X101257500Y-90340228D01*
X101257500Y-98219797D01*
X101250939Y-98242140D01*
X101248837Y-98265331D01*
X101240316Y-98278315D01*
X101237815Y-98286836D01*
X101231337Y-98295980D01*
X101226615Y-98302043D01*
X101206587Y-98322072D01*
X101144808Y-98407102D01*
X101143528Y-98408747D01*
X101116776Y-98427990D01*
X101090678Y-98448115D01*
X101088546Y-98448298D01*
X101086809Y-98449548D01*
X101053901Y-98451273D01*
X101021065Y-98454094D01*
X101019171Y-98453094D01*
X101017035Y-98453207D01*
X100988423Y-98436870D01*
X100959270Y-98421488D01*
X100957104Y-98418988D01*
X100956359Y-98418563D01*
X100955789Y-98417471D01*
X100945372Y-98405449D01*
X100885032Y-98322397D01*
X100762602Y-98199967D01*
X100622524Y-98098195D01*
X100468257Y-98019591D01*
X100303589Y-97966087D01*
X100303581Y-97966085D01*
X100296000Y-97964884D01*
X100296000Y-99033670D01*
X100276255Y-99013925D01*
X100190745Y-98964556D01*
X100095370Y-98939000D01*
X99996630Y-98939000D01*
X99901255Y-98964556D01*
X99815745Y-99013925D01*
X99796000Y-99033670D01*
X99796000Y-97964884D01*
X99795999Y-97964884D01*
X99788418Y-97966085D01*
X99788410Y-97966087D01*
X99623742Y-98019591D01*
X99469475Y-98098195D01*
X99329397Y-98199967D01*
X99206967Y-98322397D01*
X99105195Y-98462475D01*
X99026591Y-98616742D01*
X98973085Y-98781415D01*
X98946000Y-98952428D01*
X98946000Y-99064000D01*
X99765670Y-99064000D01*
X99745925Y-99083745D01*
X99696556Y-99169255D01*
X99671000Y-99264630D01*
X99671000Y-99363370D01*
X99696556Y-99458745D01*
X99745925Y-99544255D01*
X99765670Y-99564000D01*
X98946000Y-99564000D01*
X98946000Y-99675571D01*
X98973085Y-99846584D01*
X99026591Y-100011257D01*
X99105195Y-100165524D01*
X99206967Y-100305602D01*
X99329397Y-100428032D01*
X99469475Y-100529804D01*
X99623744Y-100608408D01*
X99788415Y-100661914D01*
X99788414Y-100661914D01*
X99795999Y-100663115D01*
X99796000Y-100663114D01*
X99796000Y-99594330D01*
X99815745Y-99614075D01*
X99901255Y-99663444D01*
X99996630Y-99689000D01*
X100095370Y-99689000D01*
X100190745Y-99663444D01*
X100276255Y-99614075D01*
X100296000Y-99594330D01*
X100296000Y-100663115D01*
X100303584Y-100661914D01*
X100468255Y-100608408D01*
X100622524Y-100529804D01*
X100762602Y-100428032D01*
X100885036Y-100305598D01*
X100945372Y-100222551D01*
X101000701Y-100179884D01*
X101070315Y-100173904D01*
X101132110Y-100206509D01*
X101146005Y-100222544D01*
X101206587Y-100305928D01*
X101329073Y-100428414D01*
X101469213Y-100530232D01*
X101623556Y-100608873D01*
X101788300Y-100662402D01*
X101959390Y-100689500D01*
X101959391Y-100689500D01*
X102132611Y-100689500D01*
X102132612Y-100689500D01*
X102303702Y-100662402D01*
X102468446Y-100608873D01*
X102622789Y-100530232D01*
X102762929Y-100428414D01*
X102885415Y-100305928D01*
X102945683Y-100222975D01*
X103001011Y-100180311D01*
X103070625Y-100174332D01*
X103132420Y-100206937D01*
X103146315Y-100222973D01*
X103206586Y-100305928D01*
X103329072Y-100428414D01*
X103469212Y-100530232D01*
X103623555Y-100608873D01*
X103788299Y-100662402D01*
X103959389Y-100689500D01*
X103959390Y-100689500D01*
X104132610Y-100689500D01*
X104132611Y-100689500D01*
X104285104Y-100665347D01*
X104354395Y-100674301D01*
X104407847Y-100719297D01*
X104428487Y-100786049D01*
X104428500Y-100787820D01*
X104428500Y-102442902D01*
X104408815Y-102509941D01*
X104392181Y-102530583D01*
X103659481Y-103263282D01*
X103659475Y-103263290D01*
X103613168Y-103343498D01*
X103613168Y-103343499D01*
X103580423Y-103400214D01*
X103580423Y-103400215D01*
X103539499Y-103552943D01*
X103539499Y-103552945D01*
X103539499Y-103721046D01*
X103539500Y-103721059D01*
X103539500Y-104999403D01*
X103519815Y-105066442D01*
X103488386Y-105099721D01*
X103325352Y-105218173D01*
X103186174Y-105357351D01*
X103186174Y-105357352D01*
X103186172Y-105357354D01*
X103162821Y-105389494D01*
X103070476Y-105516594D01*
X102980485Y-105693213D01*
X102932511Y-105744009D01*
X102864690Y-105760804D01*
X102798555Y-105738267D01*
X102759515Y-105693213D01*
X102710589Y-105597191D01*
X102669524Y-105516595D01*
X102553828Y-105357354D01*
X102414646Y-105218172D01*
X102255405Y-105102476D01*
X102249998Y-105099721D01*
X102080029Y-105013117D01*
X101892826Y-104952290D01*
X101698422Y-104921500D01*
X101698417Y-104921500D01*
X101501583Y-104921500D01*
X101501578Y-104921500D01*
X101307173Y-104952290D01*
X101119970Y-105013117D01*
X100944594Y-105102476D01*
X100868831Y-105157522D01*
X100785354Y-105218172D01*
X100785352Y-105218174D01*
X100785351Y-105218174D01*
X100646174Y-105357351D01*
X100646174Y-105357352D01*
X100646172Y-105357354D01*
X100622821Y-105389494D01*
X100530476Y-105516594D01*
X100440485Y-105693213D01*
X100392511Y-105744009D01*
X100324690Y-105760804D01*
X100258555Y-105738267D01*
X100219515Y-105693213D01*
X100170589Y-105597191D01*
X100129524Y-105516595D01*
X100013828Y-105357354D01*
X99874646Y-105218172D01*
X99715405Y-105102476D01*
X99709998Y-105099721D01*
X99540029Y-105013117D01*
X99352826Y-104952290D01*
X99158422Y-104921500D01*
X99158417Y-104921500D01*
X98961583Y-104921500D01*
X98961578Y-104921500D01*
X98767173Y-104952290D01*
X98579970Y-105013117D01*
X98404594Y-105102476D01*
X98328831Y-105157522D01*
X98245354Y-105218172D01*
X98245352Y-105218174D01*
X98245351Y-105218174D01*
X98106174Y-105357351D01*
X98106174Y-105357352D01*
X98106172Y-105357354D01*
X98082821Y-105389494D01*
X97990476Y-105516594D01*
X97900485Y-105693213D01*
X97852511Y-105744009D01*
X97784690Y-105760804D01*
X97718555Y-105738267D01*
X97679515Y-105693213D01*
X97630589Y-105597191D01*
X97589524Y-105516595D01*
X97473828Y-105357354D01*
X97334646Y-105218172D01*
X97175405Y-105102476D01*
X97169998Y-105099721D01*
X97000029Y-105013117D01*
X96812826Y-104952290D01*
X96618422Y-104921500D01*
X96618417Y-104921500D01*
X96421583Y-104921500D01*
X96421578Y-104921500D01*
X96227173Y-104952290D01*
X96039970Y-105013117D01*
X95864594Y-105102476D01*
X95788831Y-105157522D01*
X95705354Y-105218172D01*
X95705352Y-105218174D01*
X95705351Y-105218174D01*
X95566174Y-105357351D01*
X95566174Y-105357352D01*
X95566172Y-105357354D01*
X95542821Y-105389494D01*
X95450476Y-105516594D01*
X95361117Y-105691970D01*
X95300291Y-105879172D01*
X95278313Y-106017931D01*
X95248383Y-106081065D01*
X95189071Y-106117996D01*
X95119209Y-106116998D01*
X95068159Y-106086213D01*
X94517918Y-105535972D01*
X94484433Y-105474649D01*
X94489417Y-105404957D01*
X94491016Y-105400893D01*
X94495737Y-105389497D01*
X94526500Y-105234842D01*
X94526500Y-105077158D01*
X94526500Y-105077155D01*
X94526499Y-105077153D01*
X94498322Y-104935500D01*
X94495737Y-104922503D01*
X94451230Y-104815052D01*
X94435397Y-104776827D01*
X94435390Y-104776814D01*
X94347789Y-104645711D01*
X94347786Y-104645707D01*
X94236292Y-104534213D01*
X94236288Y-104534210D01*
X94105185Y-104446609D01*
X94105172Y-104446602D01*
X93959501Y-104386264D01*
X93959489Y-104386261D01*
X93804845Y-104355500D01*
X93804842Y-104355500D01*
X93647158Y-104355500D01*
X93647155Y-104355500D01*
X93492510Y-104386261D01*
X93492498Y-104386264D01*
X93346827Y-104446602D01*
X93346814Y-104446609D01*
X93215711Y-104534210D01*
X93215707Y-104534213D01*
X93104213Y-104645707D01*
X93104210Y-104645711D01*
X93016609Y-104776814D01*
X93016602Y-104776827D01*
X92956260Y-104922507D01*
X92955655Y-104924504D01*
X92955054Y-104925420D01*
X92953932Y-104928130D01*
X92953417Y-104927916D01*
X92917351Y-104982938D01*
X92853535Y-105011386D01*
X92784469Y-105000818D01*
X92732081Y-104954587D01*
X92718336Y-104924480D01*
X92717738Y-104922510D01*
X92717737Y-104922503D01*
X92669541Y-104806147D01*
X92657397Y-104776827D01*
X92657390Y-104776814D01*
X92569789Y-104645711D01*
X92569786Y-104645707D01*
X92458292Y-104534213D01*
X92458288Y-104534210D01*
X92327185Y-104446609D01*
X92327172Y-104446602D01*
X92181501Y-104386264D01*
X92181489Y-104386261D01*
X92026845Y-104355500D01*
X92026842Y-104355500D01*
X91869158Y-104355500D01*
X91869155Y-104355500D01*
X91714510Y-104386261D01*
X91714498Y-104386264D01*
X91568827Y-104446602D01*
X91568814Y-104446609D01*
X91437711Y-104534210D01*
X91437707Y-104534213D01*
X91326213Y-104645707D01*
X91326210Y-104645711D01*
X91238609Y-104776814D01*
X91238602Y-104776827D01*
X91178264Y-104922498D01*
X91178261Y-104922510D01*
X91147500Y-105077153D01*
X91147500Y-105234846D01*
X91178261Y-105389489D01*
X91178264Y-105389501D01*
X91238602Y-105535172D01*
X91238609Y-105535185D01*
X91326210Y-105666288D01*
X91326213Y-105666292D01*
X91437707Y-105777786D01*
X91437711Y-105777789D01*
X91568814Y-105865390D01*
X91568827Y-105865397D01*
X91635888Y-105893174D01*
X91714503Y-105925737D01*
X91781580Y-105939079D01*
X91843490Y-105971463D01*
X91845069Y-105973015D01*
X100913181Y-115041127D01*
X100946666Y-115102450D01*
X100949500Y-115128808D01*
X100949500Y-120289731D01*
X100929815Y-120356770D01*
X100898386Y-120390049D01*
X100785352Y-120472173D01*
X100646174Y-120611351D01*
X100646174Y-120611352D01*
X100646172Y-120611354D01*
X100607097Y-120665136D01*
X100530476Y-120770594D01*
X100440485Y-120947213D01*
X100392511Y-120998009D01*
X100324690Y-121014804D01*
X100258555Y-120992267D01*
X100219515Y-120947213D01*
X100170009Y-120850052D01*
X100129524Y-120770595D01*
X100013828Y-120611354D01*
X99874646Y-120472172D01*
X99715405Y-120356476D01*
X99710498Y-120353976D01*
X99540029Y-120267117D01*
X99352826Y-120206290D01*
X99158422Y-120175500D01*
X99158417Y-120175500D01*
X98961583Y-120175500D01*
X98961578Y-120175500D01*
X98767173Y-120206290D01*
X98579970Y-120267117D01*
X98404594Y-120356476D01*
X98313741Y-120422485D01*
X98245354Y-120472172D01*
X98245352Y-120472174D01*
X98245351Y-120472174D01*
X98106174Y-120611351D01*
X98106174Y-120611352D01*
X98106172Y-120611354D01*
X98067097Y-120665136D01*
X97990476Y-120770594D01*
X97900485Y-120947213D01*
X97852511Y-120998009D01*
X97784690Y-121014804D01*
X97718555Y-120992267D01*
X97679515Y-120947213D01*
X97630009Y-120850052D01*
X97589524Y-120770595D01*
X97473828Y-120611354D01*
X97334646Y-120472172D01*
X97221613Y-120390048D01*
X97178949Y-120334718D01*
X97170500Y-120289731D01*
X97170500Y-112772935D01*
X97190185Y-112705896D01*
X97191366Y-112704090D01*
X97229394Y-112647179D01*
X97289737Y-112501497D01*
X97320500Y-112346842D01*
X97320500Y-112189158D01*
X97320500Y-112189155D01*
X97320499Y-112189153D01*
X97289738Y-112034510D01*
X97289737Y-112034503D01*
X97264401Y-111973336D01*
X97229397Y-111888827D01*
X97229390Y-111888814D01*
X97141789Y-111757711D01*
X97141786Y-111757707D01*
X97030292Y-111646213D01*
X97030288Y-111646210D01*
X96899185Y-111558609D01*
X96899172Y-111558602D01*
X96753501Y-111498264D01*
X96753489Y-111498261D01*
X96598845Y-111467500D01*
X96598842Y-111467500D01*
X96441158Y-111467500D01*
X96441155Y-111467500D01*
X96286510Y-111498261D01*
X96286498Y-111498264D01*
X96140827Y-111558602D01*
X96140814Y-111558609D01*
X96009711Y-111646210D01*
X96009707Y-111646213D01*
X95898213Y-111757707D01*
X95898210Y-111757711D01*
X95810609Y-111888814D01*
X95810602Y-111888827D01*
X95750264Y-112034498D01*
X95750261Y-112034510D01*
X95719500Y-112189153D01*
X95719500Y-112346846D01*
X95750261Y-112501489D01*
X95750264Y-112501501D01*
X95810602Y-112647172D01*
X95810606Y-112647179D01*
X95848602Y-112704044D01*
X95869480Y-112770721D01*
X95869500Y-112772935D01*
X95869500Y-120289731D01*
X95849815Y-120356770D01*
X95818386Y-120390049D01*
X95705352Y-120472173D01*
X95566174Y-120611351D01*
X95566174Y-120611352D01*
X95566172Y-120611354D01*
X95527097Y-120665136D01*
X95450476Y-120770594D01*
X95361117Y-120945970D01*
X95300290Y-121133173D01*
X95269500Y-121327577D01*
X95269500Y-121524422D01*
X95300290Y-121718826D01*
X95361117Y-121906029D01*
X95450341Y-122081141D01*
X95450476Y-122081405D01*
X95566172Y-122240646D01*
X95705354Y-122379828D01*
X95864595Y-122495524D01*
X95947455Y-122537743D01*
X96039970Y-122584882D01*
X96039972Y-122584882D01*
X96039975Y-122584884D01*
X96140317Y-122617487D01*
X96227173Y-122645709D01*
X96421578Y-122676500D01*
X96421583Y-122676500D01*
X96618422Y-122676500D01*
X96812826Y-122645709D01*
X96814328Y-122645221D01*
X97000025Y-122584884D01*
X97175405Y-122495524D01*
X97334646Y-122379828D01*
X97473828Y-122240646D01*
X97589524Y-122081405D01*
X97678884Y-121906025D01*
X97679515Y-121904787D01*
X97727489Y-121853990D01*
X97795310Y-121837195D01*
X97861445Y-121859732D01*
X97900485Y-121904787D01*
X97990474Y-122081403D01*
X98015702Y-122116125D01*
X98106172Y-122240646D01*
X98245354Y-122379828D01*
X98404595Y-122495524D01*
X98487455Y-122537743D01*
X98579970Y-122584882D01*
X98579972Y-122584882D01*
X98579975Y-122584884D01*
X98680317Y-122617487D01*
X98767173Y-122645709D01*
X98961578Y-122676500D01*
X98961583Y-122676500D01*
X99158422Y-122676500D01*
X99352826Y-122645709D01*
X99354328Y-122645221D01*
X99540025Y-122584884D01*
X99715405Y-122495524D01*
X99874646Y-122379828D01*
X100013828Y-122240646D01*
X100129524Y-122081405D01*
X100218884Y-121906025D01*
X100219515Y-121904787D01*
X100267489Y-121853990D01*
X100335310Y-121837195D01*
X100401445Y-121859732D01*
X100440485Y-121904787D01*
X100530474Y-122081403D01*
X100555702Y-122116125D01*
X100646172Y-122240646D01*
X100785354Y-122379828D01*
X100944595Y-122495524D01*
X101027455Y-122537743D01*
X101119970Y-122584882D01*
X101119972Y-122584882D01*
X101119975Y-122584884D01*
X101220317Y-122617487D01*
X101307173Y-122645709D01*
X101501578Y-122676500D01*
X101501583Y-122676500D01*
X101698422Y-122676500D01*
X101892826Y-122645709D01*
X101894328Y-122645221D01*
X102080025Y-122584884D01*
X102255405Y-122495524D01*
X102414646Y-122379828D01*
X102553828Y-122240646D01*
X102669524Y-122081405D01*
X102758884Y-121906025D01*
X102759515Y-121904787D01*
X102807489Y-121853990D01*
X102875310Y-121837195D01*
X102941445Y-121859732D01*
X102980485Y-121904787D01*
X103070474Y-122081403D01*
X103095702Y-122116125D01*
X103186172Y-122240646D01*
X103325354Y-122379828D01*
X103484595Y-122495524D01*
X103567455Y-122537743D01*
X103659970Y-122584882D01*
X103659972Y-122584882D01*
X103659975Y-122584884D01*
X103760317Y-122617487D01*
X103847173Y-122645709D01*
X104041578Y-122676500D01*
X104041583Y-122676500D01*
X104238422Y-122676500D01*
X104432826Y-122645709D01*
X104434328Y-122645221D01*
X104620025Y-122584884D01*
X104795405Y-122495524D01*
X104954646Y-122379828D01*
X105093828Y-122240646D01*
X105209524Y-122081405D01*
X105298884Y-121906025D01*
X105299515Y-121904787D01*
X105347489Y-121853990D01*
X105415310Y-121837195D01*
X105481445Y-121859732D01*
X105520485Y-121904787D01*
X105610474Y-122081403D01*
X105635702Y-122116125D01*
X105726172Y-122240646D01*
X105865354Y-122379828D01*
X106024595Y-122495524D01*
X106107455Y-122537743D01*
X106199970Y-122584882D01*
X106199972Y-122584882D01*
X106199975Y-122584884D01*
X106300317Y-122617487D01*
X106387173Y-122645709D01*
X106581578Y-122676500D01*
X106581583Y-122676500D01*
X106778422Y-122676500D01*
X106972826Y-122645709D01*
X106974328Y-122645221D01*
X107160025Y-122584884D01*
X107335405Y-122495524D01*
X107494646Y-122379828D01*
X107633828Y-122240646D01*
X107749524Y-122081405D01*
X107838884Y-121906025D01*
X107839515Y-121904787D01*
X107887489Y-121853990D01*
X107955310Y-121837195D01*
X108021445Y-121859732D01*
X108060485Y-121904787D01*
X108150474Y-122081403D01*
X108175702Y-122116125D01*
X108266172Y-122240646D01*
X108405354Y-122379828D01*
X108564595Y-122495524D01*
X108647455Y-122537743D01*
X108739970Y-122584882D01*
X108739972Y-122584882D01*
X108739975Y-122584884D01*
X108840317Y-122617487D01*
X108927173Y-122645709D01*
X109121578Y-122676500D01*
X109121583Y-122676500D01*
X109318422Y-122676500D01*
X109512826Y-122645709D01*
X109514328Y-122645221D01*
X109700025Y-122584884D01*
X109875405Y-122495524D01*
X110034646Y-122379828D01*
X110173828Y-122240646D01*
X110289524Y-122081405D01*
X110378884Y-121906025D01*
X110378884Y-121906022D01*
X110379795Y-121904236D01*
X110427769Y-121853440D01*
X110495590Y-121836644D01*
X110561725Y-121859181D01*
X110600765Y-121904235D01*
X110690905Y-122081145D01*
X110716319Y-122116125D01*
X110716320Y-122116125D01*
X111338274Y-121494171D01*
X111363963Y-121590044D01*
X111419916Y-121686956D01*
X111499044Y-121766084D01*
X111595956Y-121822037D01*
X111691827Y-121847725D01*
X111069873Y-122469677D01*
X111069873Y-122469678D01*
X111104858Y-122495096D01*
X111280164Y-122584418D01*
X111467294Y-122645221D01*
X111661618Y-122676000D01*
X111858382Y-122676000D01*
X112052705Y-122645221D01*
X112239835Y-122584418D01*
X112415143Y-122495095D01*
X112450125Y-122469678D01*
X112450126Y-122469678D01*
X111828173Y-121847725D01*
X111924044Y-121822037D01*
X112020956Y-121766084D01*
X112100084Y-121686956D01*
X112156037Y-121590044D01*
X112181725Y-121494172D01*
X112803678Y-122116126D01*
X112803678Y-122116125D01*
X112829097Y-122081141D01*
X112919234Y-121904236D01*
X112967208Y-121853439D01*
X113035029Y-121836644D01*
X113101164Y-121859181D01*
X113140204Y-121904235D01*
X113141115Y-121906024D01*
X113141116Y-121906025D01*
X113230476Y-122081405D01*
X113346172Y-122240646D01*
X113485354Y-122379828D01*
X113644595Y-122495524D01*
X113727455Y-122537743D01*
X113819970Y-122584882D01*
X113819972Y-122584882D01*
X113819975Y-122584884D01*
X113920317Y-122617487D01*
X114007173Y-122645709D01*
X114201578Y-122676500D01*
X114201583Y-122676500D01*
X114398422Y-122676500D01*
X114592826Y-122645709D01*
X114594328Y-122645221D01*
X114780025Y-122584884D01*
X114955405Y-122495524D01*
X115114646Y-122379828D01*
X115253828Y-122240646D01*
X115369524Y-122081405D01*
X115458884Y-121906025D01*
X115519709Y-121718826D01*
X115530531Y-121650500D01*
X115550500Y-121524422D01*
X115550500Y-121429651D01*
X115570185Y-121362612D01*
X115586819Y-121341970D01*
X119786624Y-117142165D01*
X119786627Y-117142162D01*
X119879704Y-117002863D01*
X119943816Y-116848081D01*
X119943816Y-116848078D01*
X119943818Y-116848074D01*
X119951408Y-116809917D01*
X119976499Y-116683771D01*
X119976500Y-116683768D01*
X119976500Y-111676232D01*
X119976499Y-111676228D01*
X119962998Y-111608352D01*
X119943816Y-111511918D01*
X119885554Y-111371263D01*
X119879704Y-111357139D01*
X119825059Y-111275357D01*
X119804181Y-111208679D01*
X119822666Y-111141299D01*
X119874644Y-111094609D01*
X119880669Y-111091921D01*
X119942127Y-111066465D01*
X119965862Y-111050606D01*
X120048669Y-110995277D01*
X121278809Y-109765135D01*
X121340130Y-109731652D01*
X121385886Y-109730345D01*
X121482719Y-109745681D01*
X121563648Y-109758500D01*
X121563649Y-109758500D01*
X121768351Y-109758500D01*
X121768352Y-109758500D01*
X121970534Y-109726477D01*
X122165219Y-109663220D01*
X122347610Y-109570287D01*
X122476482Y-109476657D01*
X122513213Y-109449971D01*
X122513215Y-109449968D01*
X122513219Y-109449966D01*
X122657966Y-109305219D01*
X122657968Y-109305215D01*
X122657971Y-109305213D01*
X122714259Y-109227738D01*
X122778287Y-109139610D01*
X122871220Y-108957219D01*
X122934477Y-108762534D01*
X122966500Y-108560352D01*
X122966500Y-108355648D01*
X122961884Y-108326502D01*
X122934477Y-108153465D01*
X122871218Y-107958776D01*
X122819865Y-107857991D01*
X122778287Y-107776390D01*
X122758098Y-107748602D01*
X122657971Y-107610786D01*
X122513213Y-107466028D01*
X122347611Y-107345713D01*
X122254369Y-107298203D01*
X122203574Y-107250229D01*
X122186779Y-107182407D01*
X122209317Y-107116273D01*
X122254371Y-107077234D01*
X122347346Y-107029861D01*
X122347347Y-107029861D01*
X122391921Y-106997474D01*
X121712447Y-106318000D01*
X121718661Y-106318000D01*
X121820394Y-106290741D01*
X121911606Y-106238080D01*
X121986080Y-106163606D01*
X122038741Y-106072394D01*
X122066000Y-105970661D01*
X122066000Y-105964447D01*
X122745474Y-106643921D01*
X122777859Y-106599349D01*
X122870755Y-106417031D01*
X122933990Y-106222417D01*
X122966000Y-106020317D01*
X122966000Y-105815682D01*
X122933990Y-105613582D01*
X122870755Y-105418968D01*
X122777859Y-105236650D01*
X122745474Y-105192077D01*
X122745474Y-105192076D01*
X122066000Y-105871551D01*
X122066000Y-105865339D01*
X122038741Y-105763606D01*
X121986080Y-105672394D01*
X121911606Y-105597920D01*
X121820394Y-105545259D01*
X121718661Y-105518000D01*
X121712446Y-105518000D01*
X122391922Y-104838524D01*
X122391921Y-104838523D01*
X122347359Y-104806147D01*
X122347350Y-104806141D01*
X122165031Y-104713244D01*
X121970417Y-104650009D01*
X121768317Y-104618000D01*
X121563683Y-104618000D01*
X121361582Y-104650009D01*
X121166968Y-104713244D01*
X120984644Y-104806143D01*
X120940077Y-104838523D01*
X120940077Y-104838524D01*
X121619554Y-105518000D01*
X121613339Y-105518000D01*
X121511606Y-105545259D01*
X121420394Y-105597920D01*
X121345920Y-105672394D01*
X121293259Y-105763606D01*
X121266000Y-105865339D01*
X121266000Y-105871553D01*
X120586524Y-105192077D01*
X120586523Y-105192077D01*
X120554143Y-105236644D01*
X120461244Y-105418968D01*
X120398009Y-105613582D01*
X120366000Y-105815682D01*
X120366000Y-106020317D01*
X120398009Y-106222417D01*
X120461244Y-106417031D01*
X120554141Y-106599350D01*
X120554147Y-106599359D01*
X120586523Y-106643921D01*
X120586524Y-106643922D01*
X121266000Y-105964446D01*
X121266000Y-105970661D01*
X121293259Y-106072394D01*
X121345920Y-106163606D01*
X121420394Y-106238080D01*
X121511606Y-106290741D01*
X121613339Y-106318000D01*
X121619553Y-106318000D01*
X120940076Y-106997474D01*
X120984652Y-107029861D01*
X121077628Y-107077234D01*
X121128425Y-107125208D01*
X121145220Y-107193029D01*
X121122683Y-107259164D01*
X121077630Y-107298203D01*
X120984388Y-107345713D01*
X120818786Y-107466028D01*
X120674028Y-107610786D01*
X120553715Y-107776386D01*
X120460781Y-107958776D01*
X120397522Y-108153465D01*
X120365500Y-108355648D01*
X120365500Y-108560351D01*
X120393654Y-108738111D01*
X120384699Y-108807405D01*
X120358862Y-108845190D01*
X119400873Y-109803181D01*
X119339550Y-109836666D01*
X119313192Y-109839500D01*
X105853929Y-109839500D01*
X105728261Y-109864497D01*
X105728255Y-109864499D01*
X105609875Y-109913533D01*
X105609866Y-109913538D01*
X105503331Y-109984723D01*
X105503327Y-109984726D01*
X101687681Y-113800373D01*
X101626358Y-113833858D01*
X101556666Y-113828874D01*
X101512319Y-113800373D01*
X97032127Y-109320181D01*
X96998642Y-109258858D01*
X97003626Y-109189166D01*
X97045498Y-109133233D01*
X97110962Y-109108816D01*
X97119808Y-109108500D01*
X101095065Y-109108500D01*
X101162104Y-109128185D01*
X101163909Y-109129366D01*
X101220821Y-109167394D01*
X101220823Y-109167395D01*
X101220827Y-109167397D01*
X101366498Y-109227735D01*
X101366503Y-109227737D01*
X101521153Y-109258499D01*
X101521156Y-109258500D01*
X101521158Y-109258500D01*
X101678844Y-109258500D01*
X101678845Y-109258499D01*
X101833497Y-109227737D01*
X101979179Y-109167394D01*
X102036044Y-109129397D01*
X102102721Y-109108520D01*
X102104935Y-109108500D01*
X113856071Y-109108500D01*
X113940615Y-109091682D01*
X113981744Y-109083501D01*
X114100127Y-109034465D01*
X114121481Y-109020197D01*
X114121482Y-109020197D01*
X114185227Y-108977603D01*
X114206669Y-108963277D01*
X117764989Y-105404957D01*
X118371844Y-104798102D01*
X120536120Y-102633825D01*
X121278809Y-101891135D01*
X121340130Y-101857652D01*
X121385886Y-101856345D01*
X121482719Y-101871681D01*
X121563648Y-101884500D01*
X121563649Y-101884500D01*
X121768351Y-101884500D01*
X121768352Y-101884500D01*
X121970534Y-101852477D01*
X122165219Y-101789220D01*
X122347610Y-101696287D01*
X122476482Y-101602657D01*
X122513213Y-101575971D01*
X122513215Y-101575968D01*
X122513219Y-101575966D01*
X122657966Y-101431219D01*
X122657968Y-101431215D01*
X122657971Y-101431213D01*
X122762892Y-101286799D01*
X122778287Y-101265610D01*
X122871220Y-101083219D01*
X122934477Y-100888534D01*
X122966500Y-100686352D01*
X122966500Y-100481648D01*
X122938669Y-100305930D01*
X122934477Y-100279465D01*
X122897455Y-100165524D01*
X122871220Y-100084781D01*
X122871218Y-100084778D01*
X122871218Y-100084776D01*
X122822425Y-99989016D01*
X122778287Y-99902390D01*
X122737742Y-99846584D01*
X122657971Y-99736786D01*
X122513213Y-99592028D01*
X122347611Y-99471713D01*
X122254369Y-99424203D01*
X122203574Y-99376229D01*
X122186779Y-99308407D01*
X122209317Y-99242273D01*
X122254371Y-99203234D01*
X122347346Y-99155861D01*
X122347347Y-99155861D01*
X122391921Y-99123474D01*
X121712447Y-98444000D01*
X121718661Y-98444000D01*
X121820394Y-98416741D01*
X121911606Y-98364080D01*
X121986080Y-98289606D01*
X122038741Y-98198394D01*
X122066000Y-98096661D01*
X122066000Y-98090447D01*
X122745474Y-98769921D01*
X122777859Y-98725349D01*
X122870755Y-98543031D01*
X122933990Y-98348417D01*
X122966000Y-98146317D01*
X122966000Y-97941682D01*
X122933990Y-97739582D01*
X122870755Y-97544968D01*
X122777859Y-97362650D01*
X122745474Y-97318077D01*
X122745474Y-97318076D01*
X122066000Y-97997551D01*
X122066000Y-97991339D01*
X122038741Y-97889606D01*
X121986080Y-97798394D01*
X121911606Y-97723920D01*
X121820394Y-97671259D01*
X121718661Y-97644000D01*
X121712446Y-97644000D01*
X122391922Y-96964524D01*
X122391921Y-96964523D01*
X122347359Y-96932147D01*
X122347350Y-96932141D01*
X122165031Y-96839244D01*
X121970417Y-96776009D01*
X121768317Y-96744000D01*
X121563683Y-96744000D01*
X121361582Y-96776009D01*
X121166968Y-96839244D01*
X120984644Y-96932143D01*
X120940077Y-96964523D01*
X120940077Y-96964524D01*
X121619554Y-97644000D01*
X121613339Y-97644000D01*
X121511606Y-97671259D01*
X121420394Y-97723920D01*
X121345920Y-97798394D01*
X121293259Y-97889606D01*
X121266000Y-97991339D01*
X121266000Y-97997553D01*
X120586524Y-97318077D01*
X120586523Y-97318077D01*
X120554143Y-97362644D01*
X120461244Y-97544968D01*
X120398009Y-97739582D01*
X120366000Y-97941682D01*
X120366000Y-98146317D01*
X120398009Y-98348417D01*
X120461244Y-98543031D01*
X120554141Y-98725350D01*
X120554147Y-98725359D01*
X120586523Y-98769921D01*
X120586524Y-98769922D01*
X121266000Y-98090446D01*
X121266000Y-98096661D01*
X121293259Y-98198394D01*
X121345920Y-98289606D01*
X121420394Y-98364080D01*
X121511606Y-98416741D01*
X121613339Y-98444000D01*
X121619553Y-98444000D01*
X120940076Y-99123474D01*
X120984652Y-99155861D01*
X121077628Y-99203234D01*
X121128425Y-99251208D01*
X121145220Y-99319029D01*
X121122683Y-99385164D01*
X121077630Y-99424203D01*
X120984388Y-99471713D01*
X120818786Y-99592028D01*
X120674028Y-99736786D01*
X120553715Y-99902386D01*
X120460781Y-100084776D01*
X120397522Y-100279465D01*
X120371927Y-100441069D01*
X120365500Y-100481648D01*
X120365500Y-100686352D01*
X120365999Y-100689500D01*
X120393654Y-100864111D01*
X120384699Y-100933405D01*
X120358862Y-100971190D01*
X115635326Y-105694726D01*
X115574003Y-105728211D01*
X115504311Y-105723227D01*
X115448378Y-105681355D01*
X115437160Y-105663339D01*
X115369525Y-105530596D01*
X115330865Y-105477386D01*
X115253828Y-105371354D01*
X115114646Y-105232172D01*
X114955405Y-105116476D01*
X114780029Y-105027117D01*
X114592826Y-104966290D01*
X114398422Y-104935500D01*
X114398417Y-104935500D01*
X114201583Y-104935500D01*
X114201578Y-104935500D01*
X114007173Y-104966290D01*
X113819970Y-105027117D01*
X113644594Y-105116476D01*
X113588100Y-105157522D01*
X113485354Y-105232172D01*
X113485352Y-105232174D01*
X113485351Y-105232174D01*
X113346174Y-105371351D01*
X113346174Y-105371352D01*
X113346172Y-105371354D01*
X113324756Y-105400831D01*
X113230476Y-105530594D01*
X113143846Y-105700615D01*
X113095871Y-105751411D01*
X113028050Y-105768206D01*
X112961915Y-105745668D01*
X112922050Y-105695829D01*
X112921096Y-105696316D01*
X112870589Y-105597191D01*
X112829524Y-105516595D01*
X112713828Y-105357354D01*
X112574646Y-105218172D01*
X112415405Y-105102476D01*
X112409998Y-105099721D01*
X112240029Y-105013117D01*
X112052826Y-104952290D01*
X111858422Y-104921500D01*
X111858417Y-104921500D01*
X111661583Y-104921500D01*
X111661578Y-104921500D01*
X111467173Y-104952290D01*
X111279970Y-105013117D01*
X111104594Y-105102476D01*
X111028831Y-105157522D01*
X110945354Y-105218172D01*
X110945352Y-105218174D01*
X110945351Y-105218174D01*
X110806174Y-105357351D01*
X110806174Y-105357352D01*
X110806172Y-105357354D01*
X110782821Y-105389494D01*
X110690476Y-105516594D01*
X110600485Y-105693213D01*
X110552511Y-105744009D01*
X110484690Y-105760804D01*
X110418555Y-105738267D01*
X110379515Y-105693213D01*
X110330589Y-105597191D01*
X110289524Y-105516595D01*
X110173828Y-105357354D01*
X110034646Y-105218172D01*
X109875405Y-105102476D01*
X109869998Y-105099721D01*
X109700029Y-105013117D01*
X109512826Y-104952290D01*
X109318422Y-104921500D01*
X109318417Y-104921500D01*
X109121583Y-104921500D01*
X109121578Y-104921500D01*
X108927173Y-104952290D01*
X108739970Y-105013117D01*
X108564594Y-105102476D01*
X108488831Y-105157522D01*
X108405354Y-105218172D01*
X108405352Y-105218174D01*
X108405351Y-105218174D01*
X108266174Y-105357351D01*
X108266174Y-105357352D01*
X108266172Y-105357354D01*
X108242821Y-105389494D01*
X108150476Y-105516594D01*
X108060485Y-105693213D01*
X108012511Y-105744009D01*
X107944690Y-105760804D01*
X107878555Y-105738267D01*
X107839515Y-105693213D01*
X107790589Y-105597191D01*
X107749524Y-105516595D01*
X107633828Y-105357354D01*
X107494646Y-105218172D01*
X107335405Y-105102476D01*
X107329998Y-105099721D01*
X107160029Y-105013117D01*
X106972826Y-104952290D01*
X106778422Y-104921500D01*
X106778417Y-104921500D01*
X106581583Y-104921500D01*
X106581578Y-104921500D01*
X106387173Y-104952290D01*
X106199970Y-105013117D01*
X106024594Y-105102476D01*
X105948831Y-105157522D01*
X105865354Y-105218172D01*
X105865352Y-105218174D01*
X105865351Y-105218174D01*
X105726174Y-105357351D01*
X105726174Y-105357352D01*
X105726172Y-105357354D01*
X105702821Y-105389494D01*
X105610476Y-105516594D01*
X105520485Y-105693213D01*
X105472511Y-105744009D01*
X105404690Y-105760804D01*
X105338555Y-105738267D01*
X105299515Y-105693213D01*
X105250589Y-105597191D01*
X105209524Y-105516595D01*
X105093828Y-105357354D01*
X104954646Y-105218172D01*
X104871839Y-105158009D01*
X104791614Y-105099721D01*
X104748949Y-105044390D01*
X104740500Y-104999403D01*
X104740500Y-103932096D01*
X104760185Y-103865057D01*
X104776815Y-103844419D01*
X105397713Y-103223521D01*
X105397716Y-103223520D01*
X105509520Y-103111716D01*
X105559639Y-103024904D01*
X105588577Y-102974785D01*
X105629501Y-102822057D01*
X105629501Y-102663943D01*
X105629501Y-102656348D01*
X105629500Y-102656330D01*
X105629500Y-100781476D01*
X105649185Y-100714437D01*
X105701989Y-100668682D01*
X105771147Y-100658738D01*
X105783481Y-100661606D01*
X105783564Y-100661265D01*
X105788293Y-100662400D01*
X105788299Y-100662402D01*
X105959389Y-100689500D01*
X105959390Y-100689500D01*
X106132610Y-100689500D01*
X106132611Y-100689500D01*
X106303701Y-100662402D01*
X106468445Y-100608873D01*
X106622788Y-100530232D01*
X106762928Y-100428414D01*
X106885414Y-100305928D01*
X106945682Y-100222975D01*
X107001012Y-100180311D01*
X107070626Y-100174332D01*
X107132421Y-100206938D01*
X107146315Y-100222973D01*
X107206586Y-100305928D01*
X107329072Y-100428414D01*
X107469212Y-100530232D01*
X107623555Y-100608873D01*
X107788299Y-100662402D01*
X107959389Y-100689500D01*
X107959390Y-100689500D01*
X108132610Y-100689500D01*
X108132611Y-100689500D01*
X108303701Y-100662402D01*
X108468445Y-100608873D01*
X108622788Y-100530232D01*
X108762928Y-100428414D01*
X108885414Y-100305928D01*
X108945682Y-100222975D01*
X109001012Y-100180311D01*
X109070626Y-100174332D01*
X109132421Y-100206938D01*
X109146315Y-100222973D01*
X109206586Y-100305928D01*
X109329072Y-100428414D01*
X109469212Y-100530232D01*
X109623555Y-100608873D01*
X109788299Y-100662402D01*
X109959389Y-100689500D01*
X109959390Y-100689500D01*
X110132610Y-100689500D01*
X110132611Y-100689500D01*
X110303701Y-100662402D01*
X110468445Y-100608873D01*
X110622788Y-100530232D01*
X110762928Y-100428414D01*
X110885414Y-100305928D01*
X110945682Y-100222975D01*
X111001010Y-100180311D01*
X111070624Y-100174332D01*
X111132419Y-100206937D01*
X111146314Y-100222973D01*
X111206585Y-100305928D01*
X111329071Y-100428414D01*
X111469211Y-100530232D01*
X111623554Y-100608873D01*
X111788298Y-100662402D01*
X111959388Y-100689500D01*
X111959389Y-100689500D01*
X112132609Y-100689500D01*
X112132610Y-100689500D01*
X112303700Y-100662402D01*
X112468444Y-100608873D01*
X112622787Y-100530232D01*
X112762927Y-100428414D01*
X112870472Y-100320868D01*
X112931791Y-100287386D01*
X113001483Y-100292370D01*
X113057417Y-100334241D01*
X113063686Y-100343450D01*
X113103288Y-100407656D01*
X113227344Y-100531712D01*
X113376666Y-100623814D01*
X113543203Y-100678999D01*
X113645991Y-100689500D01*
X114446008Y-100689499D01*
X114446016Y-100689498D01*
X114446019Y-100689498D01*
X114502302Y-100683748D01*
X114548797Y-100678999D01*
X114715334Y-100623814D01*
X114864656Y-100531712D01*
X114988712Y-100407656D01*
X115080814Y-100258334D01*
X115135999Y-100091797D01*
X115146500Y-99989009D01*
X115146499Y-98638992D01*
X115135999Y-98536203D01*
X115080814Y-98369666D01*
X114988712Y-98220344D01*
X114864656Y-98096288D01*
X114864655Y-98096287D01*
X114779883Y-98044000D01*
X114730489Y-98013534D01*
X114715336Y-98004187D01*
X114715331Y-98004185D01*
X114676564Y-97991339D01*
X114548797Y-97949001D01*
X114548795Y-97949000D01*
X114446010Y-97938500D01*
X113645998Y-97938500D01*
X113645980Y-97938501D01*
X113543203Y-97949000D01*
X113543200Y-97949001D01*
X113376668Y-98004185D01*
X113376663Y-98004187D01*
X113227342Y-98096289D01*
X113103288Y-98220343D01*
X113103285Y-98220347D01*
X113063688Y-98284544D01*
X113011740Y-98331269D01*
X112942777Y-98342490D01*
X112878695Y-98314647D01*
X112870469Y-98307128D01*
X112762929Y-98199588D01*
X112762927Y-98199586D01*
X112622787Y-98097768D01*
X112517260Y-98044000D01*
X112468446Y-98019128D01*
X112468445Y-98019127D01*
X112468444Y-98019127D01*
X112303700Y-97965598D01*
X112303698Y-97965597D01*
X112303697Y-97965597D01*
X112152700Y-97941682D01*
X112132610Y-97938500D01*
X111959388Y-97938500D01*
X111939298Y-97941682D01*
X111788301Y-97965597D01*
X111623551Y-98019128D01*
X111469210Y-98097768D01*
X111402389Y-98146317D01*
X111329071Y-98199586D01*
X111329069Y-98199588D01*
X111329068Y-98199588D01*
X111206587Y-98322069D01*
X111206580Y-98322078D01*
X111146316Y-98405023D01*
X111090986Y-98447689D01*
X111021373Y-98453667D01*
X110959578Y-98421061D01*
X110945684Y-98405027D01*
X110885414Y-98322072D01*
X110762928Y-98199586D01*
X110622788Y-98097768D01*
X110517261Y-98044000D01*
X110468447Y-98019128D01*
X110468446Y-98019127D01*
X110468445Y-98019127D01*
X110303701Y-97965598D01*
X110303699Y-97965597D01*
X110303698Y-97965597D01*
X110152701Y-97941682D01*
X110132611Y-97938500D01*
X109959389Y-97938500D01*
X109939299Y-97941682D01*
X109788302Y-97965597D01*
X109623552Y-98019128D01*
X109469211Y-98097768D01*
X109402390Y-98146317D01*
X109329072Y-98199586D01*
X109329070Y-98199588D01*
X109329069Y-98199588D01*
X109206588Y-98322069D01*
X109206581Y-98322078D01*
X109146317Y-98405023D01*
X109090987Y-98447689D01*
X109021374Y-98453667D01*
X108959579Y-98421061D01*
X108945683Y-98405023D01*
X108885418Y-98322078D01*
X108885414Y-98322072D01*
X108762928Y-98199586D01*
X108622788Y-98097768D01*
X108517261Y-98044000D01*
X108468447Y-98019128D01*
X108468446Y-98019127D01*
X108468445Y-98019127D01*
X108303701Y-97965598D01*
X108303699Y-97965597D01*
X108303698Y-97965597D01*
X108152701Y-97941682D01*
X108132611Y-97938500D01*
X107959389Y-97938500D01*
X107939299Y-97941682D01*
X107788302Y-97965597D01*
X107623552Y-98019128D01*
X107469211Y-98097768D01*
X107402390Y-98146317D01*
X107329072Y-98199586D01*
X107329070Y-98199588D01*
X107329069Y-98199588D01*
X107206588Y-98322069D01*
X107206581Y-98322078D01*
X107146317Y-98405023D01*
X107090987Y-98447689D01*
X107021374Y-98453667D01*
X106959579Y-98421061D01*
X106945683Y-98405023D01*
X106885418Y-98322078D01*
X106885414Y-98322072D01*
X106762928Y-98199586D01*
X106622788Y-98097768D01*
X106517261Y-98044000D01*
X106468447Y-98019128D01*
X106468446Y-98019127D01*
X106468445Y-98019127D01*
X106303701Y-97965598D01*
X106303699Y-97965597D01*
X106303698Y-97965597D01*
X106152701Y-97941682D01*
X106132611Y-97938500D01*
X105959389Y-97938500D01*
X105939299Y-97941682D01*
X105788297Y-97965598D01*
X105783552Y-97966737D01*
X105783068Y-97964723D01*
X105721883Y-97966424D01*
X105662079Y-97930296D01*
X105631300Y-97867571D01*
X105629500Y-97846522D01*
X105629500Y-93645096D01*
X105649185Y-93578057D01*
X105665814Y-93557419D01*
X106784506Y-92438727D01*
X106784511Y-92438724D01*
X106794714Y-92428520D01*
X106794716Y-92428520D01*
X106906520Y-92316716D01*
X106985577Y-92179784D01*
X107017251Y-92061575D01*
X107026500Y-92027058D01*
X107026500Y-91868943D01*
X107026500Y-91003765D01*
X107046185Y-90936726D01*
X107047398Y-90934874D01*
X107084105Y-90879939D01*
X107135394Y-90803179D01*
X107195737Y-90657497D01*
X107226500Y-90502842D01*
X107226500Y-90345158D01*
X107226500Y-90345155D01*
X107226499Y-90345153D01*
X107214832Y-90286501D01*
X107195737Y-90190503D01*
X107164633Y-90115410D01*
X107135397Y-90044827D01*
X107135390Y-90044814D01*
X107047789Y-89913711D01*
X107047786Y-89913707D01*
X106936292Y-89802213D01*
X106936288Y-89802210D01*
X106805185Y-89714609D01*
X106805172Y-89714602D01*
X106659501Y-89654264D01*
X106659489Y-89654261D01*
X106504845Y-89623500D01*
X106504842Y-89623500D01*
X106347158Y-89623500D01*
X106347155Y-89623500D01*
X106192510Y-89654261D01*
X106192498Y-89654264D01*
X106046827Y-89714602D01*
X106046814Y-89714609D01*
X105915711Y-89802210D01*
X105915707Y-89802213D01*
X105804213Y-89913707D01*
X105804210Y-89913711D01*
X105716609Y-90044814D01*
X105716602Y-90044827D01*
X105656264Y-90190498D01*
X105656261Y-90190510D01*
X105625500Y-90345153D01*
X105625500Y-90502846D01*
X105656261Y-90657489D01*
X105656264Y-90657501D01*
X105716602Y-90803172D01*
X105716609Y-90803185D01*
X105804602Y-90934874D01*
X105825480Y-91001551D01*
X105825500Y-91003765D01*
X105825500Y-91647902D01*
X105805815Y-91714941D01*
X105789181Y-91735583D01*
X104548481Y-92976282D01*
X104548479Y-92976284D01*
X104526508Y-93014339D01*
X104517222Y-93030425D01*
X104469423Y-93113215D01*
X104428499Y-93265943D01*
X104428499Y-93265945D01*
X104428499Y-93434046D01*
X104428500Y-93434059D01*
X104428500Y-97840179D01*
X104408815Y-97907218D01*
X104356011Y-97952973D01*
X104286853Y-97962917D01*
X104285102Y-97962652D01*
X104152701Y-97941682D01*
X104132611Y-97938500D01*
X103959389Y-97938500D01*
X103939299Y-97941682D01*
X103788302Y-97965597D01*
X103623552Y-98019128D01*
X103469211Y-98097768D01*
X103402390Y-98146317D01*
X103329072Y-98199586D01*
X103329070Y-98199588D01*
X103329069Y-98199588D01*
X103206588Y-98322069D01*
X103206581Y-98322078D01*
X103182817Y-98354786D01*
X103127487Y-98397452D01*
X103057874Y-98403430D01*
X102996079Y-98370823D01*
X102961722Y-98309984D01*
X102958500Y-98281900D01*
X102958500Y-90827649D01*
X102978185Y-90760610D01*
X102994814Y-90739973D01*
X106465318Y-87269468D01*
X106526641Y-87235984D01*
X106596333Y-87240968D01*
X106640680Y-87269469D01*
X114265834Y-94894624D01*
X114265837Y-94894626D01*
X114265838Y-94894627D01*
X114405137Y-94987704D01*
X114405139Y-94987705D01*
X114405143Y-94987707D01*
X114487222Y-95021703D01*
X114514584Y-95033037D01*
X114559918Y-95051816D01*
X114724228Y-95084499D01*
X114724232Y-95084500D01*
X114724233Y-95084500D01*
X119209768Y-95084500D01*
X119209769Y-95084499D01*
X119374082Y-95051816D01*
X119528863Y-94987703D01*
X119668162Y-94894626D01*
X119786626Y-94776162D01*
X119879703Y-94636863D01*
X119943816Y-94482082D01*
X119976500Y-94317767D01*
X119976500Y-94150233D01*
X119943816Y-93985918D01*
X119879703Y-93831137D01*
X119810982Y-93728289D01*
X119786626Y-93691837D01*
X119668162Y-93573373D01*
X119528860Y-93480295D01*
X119374082Y-93416184D01*
X119374074Y-93416182D01*
X119209771Y-93383500D01*
X119209767Y-93383500D01*
X115211651Y-93383500D01*
X115144612Y-93363815D01*
X115123970Y-93347181D01*
X107090843Y-85314053D01*
X107090820Y-85314032D01*
X106974109Y-85197321D01*
X106940624Y-85135998D01*
X106945608Y-85066306D01*
X106987480Y-85010373D01*
X107023472Y-84991709D01*
X107148506Y-84951083D01*
X107148506Y-84951082D01*
X107148509Y-84951082D01*
X107319681Y-84863865D01*
X107475102Y-84750945D01*
X107610945Y-84615102D01*
X107723865Y-84459681D01*
X107811082Y-84288509D01*
X107811084Y-84288504D01*
X107832069Y-84223919D01*
X107871506Y-84166243D01*
X107935864Y-84139044D01*
X108004711Y-84150958D01*
X108056187Y-84198202D01*
X108067931Y-84223919D01*
X108088915Y-84288504D01*
X108088918Y-84288509D01*
X108176135Y-84459681D01*
X108289055Y-84615102D01*
X108424898Y-84750945D01*
X108580319Y-84863865D01*
X108707138Y-84928483D01*
X108751491Y-84951082D01*
X108767945Y-84956428D01*
X108817311Y-84986679D01*
X110917957Y-87087324D01*
X112955049Y-89124416D01*
X113017578Y-89186945D01*
X113059585Y-89228952D01*
X113182498Y-89311080D01*
X113182511Y-89311087D01*
X113319082Y-89367656D01*
X113319087Y-89367658D01*
X113319091Y-89367658D01*
X113319092Y-89367659D01*
X113464079Y-89396500D01*
X113464082Y-89396500D01*
X114277059Y-89396500D01*
X114344098Y-89416185D01*
X114389853Y-89468989D01*
X114399797Y-89538147D01*
X114370772Y-89601703D01*
X114364740Y-89608181D01*
X114313213Y-89659707D01*
X114313210Y-89659711D01*
X114225609Y-89790814D01*
X114225602Y-89790827D01*
X114165264Y-89936498D01*
X114165261Y-89936510D01*
X114134500Y-90091153D01*
X114134500Y-90248846D01*
X114165261Y-90403489D01*
X114165264Y-90403501D01*
X114225602Y-90549172D01*
X114225609Y-90549185D01*
X114313210Y-90680288D01*
X114313213Y-90680292D01*
X114424707Y-90791786D01*
X114424711Y-90791789D01*
X114555814Y-90879390D01*
X114555827Y-90879397D01*
X114694234Y-90936726D01*
X114701503Y-90939737D01*
X114853805Y-90970032D01*
X114856153Y-90970499D01*
X114856156Y-90970500D01*
X114856158Y-90970500D01*
X115013844Y-90970500D01*
X115013845Y-90970499D01*
X115168497Y-90939737D01*
X115247969Y-90906819D01*
X115312864Y-90879939D01*
X115360316Y-90870500D01*
X119462684Y-90870500D01*
X119510136Y-90879939D01*
X119647234Y-90936726D01*
X119654503Y-90939737D01*
X119806805Y-90970032D01*
X119809153Y-90970499D01*
X119809156Y-90970500D01*
X119809158Y-90970500D01*
X119966844Y-90970500D01*
X119966845Y-90970499D01*
X120121497Y-90939737D01*
X120200969Y-90906819D01*
X120265864Y-90879939D01*
X120313316Y-90870500D01*
X123356481Y-90870500D01*
X123423520Y-90890185D01*
X123444162Y-90906819D01*
X124044928Y-91507585D01*
X124071808Y-91547814D01*
X124131602Y-91692172D01*
X124131609Y-91692185D01*
X124219210Y-91823288D01*
X124219213Y-91823292D01*
X124330707Y-91934786D01*
X124330711Y-91934789D01*
X124461814Y-92022390D01*
X124461827Y-92022397D01*
X124607498Y-92082735D01*
X124607503Y-92082737D01*
X124762153Y-92113499D01*
X124762156Y-92113500D01*
X124762158Y-92113500D01*
X124919844Y-92113500D01*
X124919845Y-92113499D01*
X125074497Y-92082737D01*
X125208919Y-92027058D01*
X125220172Y-92022397D01*
X125220172Y-92022396D01*
X125220179Y-92022394D01*
X125351289Y-91934789D01*
X125462789Y-91823289D01*
X125550394Y-91692179D01*
X125610737Y-91546497D01*
X125641500Y-91391842D01*
X125641500Y-91234158D01*
X125635511Y-91204049D01*
X125641737Y-91134460D01*
X125684599Y-91079282D01*
X125750489Y-91056036D01*
X125818486Y-91072103D01*
X125844809Y-91092177D01*
X127302698Y-92550066D01*
X127304093Y-92552621D01*
X127306584Y-92554132D01*
X127320736Y-92583100D01*
X127336183Y-92611389D01*
X127335975Y-92614293D01*
X127337254Y-92616911D01*
X127333498Y-92648927D01*
X127331199Y-92681081D01*
X127329453Y-92683413D01*
X127329114Y-92686305D01*
X127308645Y-92711207D01*
X127289327Y-92737014D01*
X127286037Y-92738714D01*
X127284749Y-92740282D01*
X127275542Y-92744139D01*
X127253037Y-92755774D01*
X127246214Y-92757971D01*
X127216164Y-92763949D01*
X127180596Y-92778682D01*
X127175965Y-92780600D01*
X127175950Y-92780605D01*
X127034092Y-92839364D01*
X127034079Y-92839371D01*
X126870218Y-92948860D01*
X126870214Y-92948863D01*
X126730863Y-93088214D01*
X126730860Y-93088218D01*
X126621371Y-93252079D01*
X126621364Y-93252092D01*
X126586918Y-93335255D01*
X126586918Y-93335256D01*
X126545950Y-93434161D01*
X126545947Y-93434170D01*
X126534344Y-93492504D01*
X126507500Y-93627454D01*
X126507500Y-93627459D01*
X126507500Y-93824541D01*
X126513523Y-93854821D01*
X126545949Y-94017836D01*
X126555337Y-94040500D01*
X126559210Y-94049851D01*
X126559211Y-94049854D01*
X126621364Y-94199907D01*
X126621371Y-94199920D01*
X126730859Y-94363780D01*
X126730860Y-94363781D01*
X126730861Y-94363782D01*
X126870218Y-94503139D01*
X126870219Y-94503139D01*
X126877286Y-94510206D01*
X126877285Y-94510206D01*
X126877289Y-94510209D01*
X128960003Y-96592923D01*
X128993488Y-96654246D01*
X128988504Y-96723938D01*
X128946632Y-96779871D01*
X128910641Y-96798535D01*
X128786776Y-96838781D01*
X128604386Y-96931715D01*
X128438786Y-97052028D01*
X128294028Y-97196786D01*
X128173715Y-97362386D01*
X128080781Y-97544776D01*
X128017522Y-97739465D01*
X127985500Y-97941648D01*
X127985500Y-98146351D01*
X128017522Y-98348534D01*
X128080781Y-98543223D01*
X128129573Y-98638981D01*
X128173585Y-98725359D01*
X128173715Y-98725613D01*
X128294028Y-98891213D01*
X128294034Y-98891219D01*
X128438781Y-99035966D01*
X128532452Y-99104021D01*
X128575117Y-99159350D01*
X128581096Y-99228963D01*
X128548491Y-99290759D01*
X128498571Y-99322045D01*
X128416666Y-99349186D01*
X128416663Y-99349187D01*
X128267342Y-99441289D01*
X128143289Y-99565342D01*
X128051187Y-99714663D01*
X128051186Y-99714666D01*
X127996001Y-99881203D01*
X127996001Y-99881204D01*
X127996000Y-99881204D01*
X127985500Y-99983983D01*
X127985500Y-101184001D01*
X127985501Y-101184018D01*
X127996000Y-101286796D01*
X127996001Y-101286799D01*
X128016377Y-101348289D01*
X128051186Y-101453334D01*
X128143288Y-101602656D01*
X128267344Y-101726712D01*
X128416666Y-101818814D01*
X128583203Y-101873999D01*
X128685991Y-101884500D01*
X129886008Y-101884499D01*
X129988797Y-101873999D01*
X130155334Y-101818814D01*
X130304656Y-101726712D01*
X130428712Y-101602656D01*
X130520814Y-101453334D01*
X130575999Y-101286797D01*
X130586500Y-101184009D01*
X130586499Y-100563805D01*
X130606183Y-100496768D01*
X130658987Y-100451013D01*
X130728146Y-100441069D01*
X130791702Y-100470094D01*
X130798180Y-100476126D01*
X132663181Y-102341127D01*
X132696666Y-102402450D01*
X132699500Y-102428808D01*
X132699500Y-105982071D01*
X132719148Y-106080843D01*
X132719148Y-106080844D01*
X132724497Y-106107737D01*
X132724500Y-106107747D01*
X132773532Y-106226123D01*
X132785389Y-106243868D01*
X132838695Y-106323648D01*
X132844726Y-106332673D01*
X132844727Y-106332674D01*
X133350873Y-106838819D01*
X133384358Y-106900142D01*
X133379374Y-106969833D01*
X133337503Y-107025767D01*
X133272038Y-107050184D01*
X133263192Y-107050500D01*
X131389808Y-107050500D01*
X131322769Y-107030815D01*
X131302127Y-107014181D01*
X130593137Y-106305191D01*
X130559652Y-106243868D01*
X130558345Y-106198112D01*
X130571034Y-106117996D01*
X130586500Y-106020352D01*
X130586500Y-105815648D01*
X130565230Y-105681355D01*
X130554477Y-105613465D01*
X130510262Y-105477386D01*
X130491220Y-105418781D01*
X130491218Y-105418778D01*
X130491218Y-105418776D01*
X130398419Y-105236650D01*
X130398287Y-105236390D01*
X130387283Y-105221244D01*
X130277971Y-105070786D01*
X130133213Y-104926028D01*
X129967613Y-104805715D01*
X129967612Y-104805714D01*
X129967610Y-104805713D01*
X129910653Y-104776691D01*
X129785223Y-104712781D01*
X129590534Y-104649522D01*
X129415995Y-104621878D01*
X129388352Y-104617500D01*
X129183648Y-104617500D01*
X129159329Y-104621351D01*
X128981465Y-104649522D01*
X128786776Y-104712781D01*
X128604386Y-104805715D01*
X128438786Y-104926028D01*
X128294028Y-105070786D01*
X128173715Y-105236386D01*
X128080781Y-105418776D01*
X128017522Y-105613465D01*
X127985500Y-105815648D01*
X127985500Y-106020351D01*
X128017522Y-106222534D01*
X128080781Y-106417223D01*
X128112086Y-106478661D01*
X128173585Y-106599359D01*
X128173715Y-106599613D01*
X128294028Y-106765213D01*
X128294034Y-106765219D01*
X128438781Y-106909966D01*
X128532452Y-106978021D01*
X128575117Y-107033350D01*
X128581096Y-107102963D01*
X128548491Y-107164759D01*
X128498571Y-107196045D01*
X128416666Y-107223186D01*
X128416663Y-107223187D01*
X128267342Y-107315289D01*
X128143289Y-107439342D01*
X128051187Y-107588663D01*
X128051185Y-107588668D01*
X128037085Y-107631220D01*
X127996001Y-107755203D01*
X127996001Y-107755204D01*
X127996000Y-107755204D01*
X127985500Y-107857983D01*
X127985500Y-109058001D01*
X127985501Y-109058018D01*
X127996000Y-109160796D01*
X127996001Y-109160799D01*
X128028495Y-109258858D01*
X128051186Y-109327334D01*
X128143288Y-109476656D01*
X128267344Y-109600712D01*
X128416666Y-109692814D01*
X128583203Y-109747999D01*
X128685991Y-109758500D01*
X129886008Y-109758499D01*
X129988797Y-109747999D01*
X130155334Y-109692814D01*
X130304656Y-109600712D01*
X130428712Y-109476656D01*
X130520814Y-109327334D01*
X130575999Y-109160797D01*
X130586500Y-109058009D01*
X130586499Y-108390815D01*
X130606183Y-108323777D01*
X130658987Y-108278022D01*
X130728146Y-108268078D01*
X130757952Y-108276255D01*
X130760872Y-108277464D01*
X130760873Y-108277465D01*
X130879256Y-108326501D01*
X130879260Y-108326501D01*
X130879261Y-108326502D01*
X131004928Y-108351500D01*
X131004931Y-108351500D01*
X131133069Y-108351500D01*
X133288192Y-108351500D01*
X133355231Y-108371185D01*
X133375873Y-108387819D01*
X144347181Y-119359127D01*
X144380666Y-119420450D01*
X144383500Y-119446808D01*
X144383500Y-119809216D01*
X144363815Y-119876255D01*
X144311011Y-119922010D01*
X144241853Y-119931954D01*
X144178297Y-119902929D01*
X144171819Y-119896897D01*
X144147785Y-119872863D01*
X144147781Y-119872860D01*
X143983920Y-119763371D01*
X143983907Y-119763364D01*
X143801839Y-119687950D01*
X143801829Y-119687947D01*
X143608543Y-119649500D01*
X143608541Y-119649500D01*
X139874784Y-119649500D01*
X139807745Y-119629815D01*
X139761990Y-119577011D01*
X139752046Y-119507853D01*
X139781071Y-119444297D01*
X139787103Y-119437819D01*
X139842136Y-119382785D01*
X139842139Y-119382782D01*
X139951632Y-119218914D01*
X140027051Y-119036835D01*
X140065500Y-118843541D01*
X140065500Y-118646459D01*
X140065500Y-118646456D01*
X140027052Y-118453170D01*
X140027051Y-118453169D01*
X140027051Y-118453165D01*
X140016736Y-118428261D01*
X139951635Y-118271092D01*
X139951628Y-118271079D01*
X139842139Y-118107218D01*
X139842136Y-118107214D01*
X139702785Y-117967863D01*
X139702781Y-117967860D01*
X139538920Y-117858371D01*
X139538907Y-117858364D01*
X139356839Y-117782950D01*
X139356829Y-117782947D01*
X139163543Y-117744500D01*
X139163541Y-117744500D01*
X130838459Y-117744500D01*
X130838457Y-117744500D01*
X130645170Y-117782947D01*
X130645160Y-117782950D01*
X130463092Y-117858364D01*
X130463079Y-117858371D01*
X130299218Y-117967860D01*
X130299214Y-117967863D01*
X130159863Y-118107214D01*
X130159860Y-118107218D01*
X130050371Y-118271079D01*
X130050364Y-118271092D01*
X129974950Y-118453160D01*
X129974947Y-118453170D01*
X129936500Y-118646456D01*
X129936500Y-118646459D01*
X129936500Y-118843541D01*
X129936500Y-118843543D01*
X129936499Y-118843543D01*
X129974947Y-119036829D01*
X129974950Y-119036839D01*
X130050364Y-119218907D01*
X130050371Y-119218920D01*
X130159860Y-119382781D01*
X130159863Y-119382785D01*
X130299214Y-119522136D01*
X130299218Y-119522139D01*
X130463079Y-119631628D01*
X130463092Y-119631635D01*
X130645160Y-119707049D01*
X130645165Y-119707051D01*
X130645169Y-119707051D01*
X130645170Y-119707052D01*
X130838456Y-119745500D01*
X130838459Y-119745500D01*
X136604216Y-119745500D01*
X136671255Y-119765185D01*
X136717010Y-119817989D01*
X136726954Y-119887147D01*
X136697929Y-119950703D01*
X136691897Y-119957181D01*
X136636863Y-120012214D01*
X136636860Y-120012218D01*
X136527371Y-120176079D01*
X136527364Y-120176092D01*
X136451950Y-120358160D01*
X136451947Y-120358170D01*
X136413500Y-120551456D01*
X136413500Y-120551459D01*
X136413500Y-120748541D01*
X136413500Y-120748543D01*
X136413499Y-120748543D01*
X136451947Y-120941829D01*
X136451950Y-120941839D01*
X136527364Y-121123907D01*
X136527371Y-121123920D01*
X136636860Y-121287781D01*
X136636863Y-121287785D01*
X136776214Y-121427136D01*
X136776218Y-121427139D01*
X136940079Y-121536628D01*
X136940092Y-121536635D01*
X137069035Y-121590044D01*
X137122165Y-121612051D01*
X137122169Y-121612051D01*
X137122170Y-121612052D01*
X137315456Y-121650500D01*
X137315459Y-121650500D01*
X143608543Y-121650500D01*
X143738582Y-121624632D01*
X143801835Y-121612051D01*
X143983914Y-121536632D01*
X144147782Y-121427139D01*
X144158447Y-121416474D01*
X144171819Y-121403103D01*
X144233142Y-121369618D01*
X144302834Y-121374602D01*
X144358767Y-121416474D01*
X144383184Y-121481938D01*
X144383500Y-121490784D01*
X144383500Y-131128069D01*
X144404899Y-131235646D01*
X144408251Y-131252497D01*
X144408499Y-131253744D01*
X144436062Y-131320288D01*
X144457535Y-131372127D01*
X144528723Y-131478669D01*
X144528726Y-131478673D01*
X145127324Y-132077271D01*
X145127331Y-132077277D01*
X145233871Y-132148464D01*
X145233870Y-132148464D01*
X145268544Y-132162826D01*
X145352256Y-132197501D01*
X145352260Y-132197501D01*
X145352261Y-132197502D01*
X145477928Y-132222500D01*
X145477931Y-132222500D01*
X146622071Y-132222500D01*
X146706615Y-132205682D01*
X146747744Y-132197501D01*
X146866127Y-132148465D01*
X146972669Y-132077277D01*
X147422932Y-131627012D01*
X147484252Y-131593530D01*
X147486317Y-131593099D01*
X147553497Y-131579737D01*
X147699179Y-131519394D01*
X147830289Y-131431789D01*
X147941789Y-131320289D01*
X148029394Y-131189179D01*
X148089737Y-131043497D01*
X148120500Y-130888842D01*
X148120500Y-130731158D01*
X148120500Y-130731155D01*
X148120499Y-130731153D01*
X148089738Y-130576510D01*
X148089737Y-130576503D01*
X148089735Y-130576498D01*
X148029397Y-130430827D01*
X148029390Y-130430814D01*
X147941789Y-130299711D01*
X147941786Y-130299707D01*
X147830292Y-130188213D01*
X147830288Y-130188210D01*
X147699185Y-130100609D01*
X147699172Y-130100602D01*
X147553501Y-130040264D01*
X147553489Y-130040261D01*
X147398845Y-130009500D01*
X147398842Y-130009500D01*
X147241158Y-130009500D01*
X147241155Y-130009500D01*
X147086510Y-130040261D01*
X147086498Y-130040264D01*
X146940827Y-130100602D01*
X146940814Y-130100609D01*
X146893391Y-130132297D01*
X146826713Y-130153175D01*
X146759333Y-130134690D01*
X146712643Y-130082711D01*
X146700500Y-130029195D01*
X146700500Y-129343471D01*
X173799500Y-129343471D01*
X173799500Y-129736528D01*
X173838026Y-130127702D01*
X173914704Y-130513194D01*
X173914707Y-130513205D01*
X174028810Y-130889354D01*
X174179230Y-131252499D01*
X174179232Y-131252504D01*
X174364511Y-131599137D01*
X174364522Y-131599155D01*
X174582887Y-131925960D01*
X174582897Y-131925974D01*
X174832254Y-132229817D01*
X175110182Y-132507745D01*
X175110187Y-132507749D01*
X175110188Y-132507750D01*
X175414031Y-132757107D01*
X175740851Y-132975482D01*
X175740860Y-132975487D01*
X175740862Y-132975488D01*
X176087495Y-133160767D01*
X176087497Y-133160767D01*
X176087503Y-133160771D01*
X176450647Y-133311190D01*
X176826785Y-133425290D01*
X176826791Y-133425291D01*
X176826794Y-133425292D01*
X176826805Y-133425295D01*
X177212297Y-133501973D01*
X177603468Y-133540500D01*
X177603471Y-133540500D01*
X177996529Y-133540500D01*
X177996532Y-133540500D01*
X178387703Y-133501973D01*
X178462748Y-133487045D01*
X178773194Y-133425295D01*
X178773205Y-133425292D01*
X178773205Y-133425291D01*
X178773215Y-133425290D01*
X179149353Y-133311190D01*
X179512497Y-133160771D01*
X179859149Y-132975482D01*
X180185969Y-132757107D01*
X180489812Y-132507750D01*
X180767750Y-132229812D01*
X181017107Y-131925969D01*
X181235482Y-131599149D01*
X181420771Y-131252497D01*
X181571190Y-130889353D01*
X181685290Y-130513215D01*
X181685292Y-130513205D01*
X181685295Y-130513194D01*
X181761973Y-130127702D01*
X181800500Y-129736532D01*
X181800500Y-129343468D01*
X181761973Y-128952297D01*
X181685295Y-128566805D01*
X181685292Y-128566794D01*
X181685291Y-128566791D01*
X181685290Y-128566785D01*
X181571190Y-128190647D01*
X181420771Y-127827503D01*
X181235482Y-127480851D01*
X181017107Y-127154031D01*
X180767750Y-126850188D01*
X180767749Y-126850187D01*
X180767745Y-126850182D01*
X180489817Y-126572254D01*
X180185974Y-126322897D01*
X180185973Y-126322896D01*
X180185969Y-126322893D01*
X179859149Y-126104518D01*
X179859144Y-126104515D01*
X179859137Y-126104511D01*
X179512504Y-125919232D01*
X179512499Y-125919230D01*
X179149354Y-125768810D01*
X178773205Y-125654707D01*
X178773194Y-125654704D01*
X178387702Y-125578026D01*
X178093089Y-125549010D01*
X177996532Y-125539500D01*
X177603468Y-125539500D01*
X177514251Y-125548287D01*
X177212297Y-125578026D01*
X176826805Y-125654704D01*
X176826794Y-125654707D01*
X176450645Y-125768810D01*
X176087500Y-125919230D01*
X176087495Y-125919232D01*
X175740862Y-126104511D01*
X175740844Y-126104522D01*
X175414039Y-126322887D01*
X175414025Y-126322897D01*
X175110182Y-126572254D01*
X174832254Y-126850182D01*
X174582897Y-127154025D01*
X174582887Y-127154039D01*
X174364522Y-127480844D01*
X174364511Y-127480862D01*
X174179232Y-127827495D01*
X174179230Y-127827500D01*
X174028810Y-128190645D01*
X173914707Y-128566794D01*
X173914704Y-128566805D01*
X173838026Y-128952297D01*
X173799500Y-129343471D01*
X146700500Y-129343471D01*
X146700500Y-118553928D01*
X146675502Y-118428261D01*
X146675501Y-118428260D01*
X146675501Y-118428256D01*
X146626465Y-118309873D01*
X146622207Y-118303500D01*
X146609308Y-118284194D01*
X146609308Y-118284193D01*
X146555279Y-118203334D01*
X146555273Y-118203326D01*
X134036819Y-105684872D01*
X134003334Y-105623549D01*
X134000500Y-105597191D01*
X134000500Y-102043928D01*
X133978316Y-101932407D01*
X133984543Y-101862816D01*
X134027405Y-101807638D01*
X134093295Y-101784393D01*
X134161292Y-101800460D01*
X134187614Y-101820534D01*
X134218181Y-101851101D01*
X134251666Y-101912424D01*
X134254500Y-101938782D01*
X134254500Y-105127544D01*
X134292947Y-105320829D01*
X134292948Y-105320833D01*
X134292949Y-105320836D01*
X134311588Y-105365833D01*
X134368364Y-105502906D01*
X134368371Y-105502919D01*
X134393386Y-105540356D01*
X134477861Y-105666782D01*
X134617218Y-105806139D01*
X134617220Y-105806140D01*
X134624286Y-105813206D01*
X134624285Y-105813206D01*
X134624289Y-105813209D01*
X149476214Y-120665136D01*
X149476218Y-120665139D01*
X149640078Y-120774627D01*
X149640087Y-120774632D01*
X149655096Y-120780849D01*
X149822164Y-120850051D01*
X150015454Y-120888499D01*
X150015457Y-120888500D01*
X150015459Y-120888500D01*
X150212542Y-120888500D01*
X150212543Y-120888499D01*
X150405835Y-120850051D01*
X150587914Y-120774631D01*
X150751781Y-120665139D01*
X150891139Y-120525781D01*
X151000631Y-120361914D01*
X151076051Y-120179835D01*
X151114500Y-119986540D01*
X151114500Y-119907073D01*
X151134185Y-119840034D01*
X151186989Y-119794279D01*
X151256147Y-119784335D01*
X151285951Y-119792511D01*
X151419087Y-119847658D01*
X151419091Y-119847658D01*
X151419092Y-119847659D01*
X151564079Y-119876500D01*
X151564082Y-119876500D01*
X151564083Y-119876500D01*
X151711917Y-119876500D01*
X175930861Y-119876500D01*
X175997900Y-119896185D01*
X176029237Y-119925014D01*
X176142024Y-120072002D01*
X176142030Y-120072009D01*
X176345990Y-120275969D01*
X176345997Y-120275975D01*
X176453116Y-120358170D01*
X176574844Y-120451575D01*
X176574851Y-120451579D01*
X176824647Y-120595800D01*
X176824663Y-120595808D01*
X177091139Y-120706185D01*
X177091145Y-120706186D01*
X177091155Y-120706191D01*
X177369783Y-120780849D01*
X177655772Y-120818500D01*
X177655779Y-120818500D01*
X177944221Y-120818500D01*
X177944228Y-120818500D01*
X178230217Y-120780849D01*
X178508845Y-120706191D01*
X178508857Y-120706185D01*
X178508860Y-120706185D01*
X178775336Y-120595808D01*
X178775339Y-120595806D01*
X178775345Y-120595804D01*
X179025156Y-120451575D01*
X179254004Y-120275974D01*
X179457974Y-120072004D01*
X179633575Y-119843156D01*
X179777804Y-119593345D01*
X179807299Y-119522139D01*
X179888185Y-119326860D01*
X179888185Y-119326857D01*
X179888191Y-119326845D01*
X179962849Y-119048217D01*
X180000500Y-118762228D01*
X180000500Y-118473772D01*
X179962849Y-118187783D01*
X179888191Y-117909155D01*
X179888186Y-117909145D01*
X179888185Y-117909139D01*
X179777808Y-117642663D01*
X179777800Y-117642647D01*
X179633579Y-117392851D01*
X179633575Y-117392844D01*
X179457974Y-117163996D01*
X179457969Y-117163990D01*
X179254009Y-116960030D01*
X179254002Y-116960024D01*
X179025164Y-116784431D01*
X179025162Y-116784429D01*
X179025156Y-116784425D01*
X179025151Y-116784422D01*
X179025148Y-116784420D01*
X178775352Y-116640199D01*
X178775336Y-116640191D01*
X178508860Y-116529814D01*
X178508848Y-116529810D01*
X178508845Y-116529809D01*
X178230217Y-116455151D01*
X178230211Y-116455150D01*
X178230206Y-116455149D01*
X177944238Y-116417501D01*
X177944233Y-116417500D01*
X177944228Y-116417500D01*
X177655772Y-116417500D01*
X177655766Y-116417500D01*
X177655761Y-116417501D01*
X177369793Y-116455149D01*
X177369786Y-116455150D01*
X177369783Y-116455151D01*
X177091155Y-116529809D01*
X177091139Y-116529814D01*
X176824663Y-116640191D01*
X176824647Y-116640199D01*
X176574851Y-116784420D01*
X176574835Y-116784431D01*
X176345997Y-116960024D01*
X176345990Y-116960030D01*
X176142030Y-117163990D01*
X176142024Y-117163997D01*
X175966431Y-117392835D01*
X175966420Y-117392851D01*
X175822199Y-117642647D01*
X175822191Y-117642663D01*
X175711814Y-117909139D01*
X175711809Y-117909155D01*
X175641837Y-118170297D01*
X175637152Y-118187780D01*
X175637149Y-118187793D01*
X175626632Y-118267685D01*
X175598366Y-118331582D01*
X175540041Y-118370053D01*
X175503693Y-118375500D01*
X174069899Y-118375500D01*
X174036663Y-118365740D01*
X174003313Y-118356105D01*
X174003128Y-118355893D01*
X174002860Y-118355815D01*
X173980206Y-118329672D01*
X173957329Y-118303500D01*
X173957287Y-118303221D01*
X173957105Y-118303011D01*
X173952173Y-118268710D01*
X173947086Y-118234386D01*
X173947201Y-118234131D01*
X173947161Y-118233853D01*
X173961621Y-118202188D01*
X173975835Y-118170705D01*
X173976094Y-118170496D01*
X173976186Y-118170297D01*
X174002408Y-118147476D01*
X174011162Y-118141795D01*
X174015295Y-118140084D01*
X174064529Y-118107186D01*
X174138216Y-118057952D01*
X178382952Y-113813216D01*
X178430893Y-113741466D01*
X178433192Y-113738025D01*
X178433194Y-113738022D01*
X178465079Y-113690303D01*
X178465080Y-113690300D01*
X178465084Y-113690295D01*
X178521658Y-113553713D01*
X178531096Y-113506262D01*
X178550500Y-113408720D01*
X178550500Y-113151791D01*
X178570185Y-113084752D01*
X178622989Y-113038997D01*
X178627048Y-113037230D01*
X178775336Y-112975808D01*
X178775339Y-112975806D01*
X178775345Y-112975804D01*
X179025156Y-112831575D01*
X179254004Y-112655974D01*
X179457974Y-112452004D01*
X179633575Y-112223156D01*
X179777804Y-111973345D01*
X179805077Y-111907503D01*
X179888185Y-111706860D01*
X179888185Y-111706857D01*
X179888191Y-111706845D01*
X179962849Y-111428217D01*
X180000500Y-111142228D01*
X180000500Y-110853772D01*
X179962849Y-110567783D01*
X179888191Y-110289155D01*
X179888186Y-110289145D01*
X179888185Y-110289139D01*
X179777808Y-110022663D01*
X179777800Y-110022647D01*
X179633579Y-109772851D01*
X179633575Y-109772844D01*
X179478148Y-109570287D01*
X179457975Y-109543997D01*
X179457969Y-109543990D01*
X179254009Y-109340030D01*
X179254002Y-109340024D01*
X179025164Y-109164431D01*
X179025162Y-109164429D01*
X179025156Y-109164425D01*
X179025151Y-109164422D01*
X179025148Y-109164420D01*
X178775352Y-109020199D01*
X178775336Y-109020191D01*
X178508860Y-108909814D01*
X178508848Y-108909810D01*
X178508845Y-108909809D01*
X178230217Y-108835151D01*
X178230211Y-108835150D01*
X178230206Y-108835149D01*
X177944238Y-108797501D01*
X177944233Y-108797500D01*
X177944228Y-108797500D01*
X177655772Y-108797500D01*
X177655766Y-108797500D01*
X177655761Y-108797501D01*
X177369793Y-108835149D01*
X177369786Y-108835150D01*
X177369783Y-108835151D01*
X177263431Y-108863648D01*
X177091155Y-108909809D01*
X177091139Y-108909814D01*
X176824663Y-109020191D01*
X176824647Y-109020199D01*
X176574851Y-109164420D01*
X176574835Y-109164431D01*
X176345997Y-109340024D01*
X176345990Y-109340030D01*
X176142030Y-109543990D01*
X176142024Y-109543997D01*
X175966431Y-109772835D01*
X175966420Y-109772851D01*
X175822199Y-110022647D01*
X175822191Y-110022663D01*
X175711814Y-110289139D01*
X175711809Y-110289155D01*
X175637152Y-110567780D01*
X175637149Y-110567793D01*
X175599501Y-110853761D01*
X175599500Y-110853778D01*
X175599500Y-111142221D01*
X175599501Y-111142238D01*
X175637149Y-111428206D01*
X175637150Y-111428211D01*
X175637151Y-111428217D01*
X175703607Y-111676233D01*
X175711809Y-111706844D01*
X175711814Y-111706860D01*
X175822191Y-111973336D01*
X175822199Y-111973352D01*
X175966420Y-112223148D01*
X175966431Y-112223164D01*
X176142024Y-112452002D01*
X176142030Y-112452009D01*
X176345990Y-112655969D01*
X176345997Y-112655975D01*
X176408641Y-112704043D01*
X176574844Y-112831575D01*
X176574851Y-112831579D01*
X176824647Y-112975800D01*
X176824650Y-112975801D01*
X176824655Y-112975804D01*
X176846221Y-112984737D01*
X176900624Y-113028574D01*
X176922691Y-113094868D01*
X176905414Y-113162568D01*
X176886451Y-113186979D01*
X173385251Y-116688181D01*
X173323928Y-116721666D01*
X173297570Y-116724500D01*
X152635229Y-116724500D01*
X152568190Y-116704815D01*
X152547548Y-116688181D01*
X147685071Y-111825703D01*
X147658191Y-111785475D01*
X147648394Y-111761821D01*
X147591206Y-111676233D01*
X147560789Y-111630710D01*
X147449292Y-111519213D01*
X147449288Y-111519210D01*
X147318185Y-111431609D01*
X147318172Y-111431602D01*
X147172501Y-111371264D01*
X147172489Y-111371261D01*
X147017845Y-111340500D01*
X147017842Y-111340500D01*
X146860158Y-111340500D01*
X146860155Y-111340500D01*
X146705510Y-111371261D01*
X146705498Y-111371264D01*
X146559827Y-111431602D01*
X146559814Y-111431609D01*
X146428711Y-111519210D01*
X146428707Y-111519213D01*
X146317213Y-111630707D01*
X146317210Y-111630711D01*
X146229609Y-111761814D01*
X146229602Y-111761827D01*
X146169264Y-111907498D01*
X146169261Y-111907510D01*
X146138500Y-112062153D01*
X146138500Y-112219846D01*
X146144488Y-112249950D01*
X146138261Y-112319542D01*
X146095397Y-112374719D01*
X146029507Y-112397963D01*
X145961511Y-112381895D01*
X145935190Y-112361822D01*
X139897016Y-106323648D01*
X152110500Y-106323648D01*
X152110500Y-106528351D01*
X152142522Y-106730534D01*
X152205781Y-106925223D01*
X152269453Y-107050184D01*
X152298585Y-107107359D01*
X152298715Y-107107613D01*
X152419028Y-107273213D01*
X152563786Y-107417971D01*
X152684226Y-107505474D01*
X152729390Y-107538287D01*
X152793128Y-107570763D01*
X152822080Y-107585515D01*
X152872876Y-107633490D01*
X152889671Y-107701311D01*
X152867134Y-107767446D01*
X152822080Y-107806485D01*
X152729386Y-107853715D01*
X152563786Y-107974028D01*
X152419028Y-108118786D01*
X152298715Y-108284386D01*
X152205781Y-108466776D01*
X152142522Y-108661465D01*
X152110500Y-108863648D01*
X152110500Y-109068351D01*
X152142522Y-109270534D01*
X152205781Y-109465223D01*
X152298715Y-109647613D01*
X152419028Y-109813213D01*
X152563786Y-109957971D01*
X152718749Y-110070556D01*
X152729390Y-110078287D01*
X152820840Y-110124883D01*
X152822080Y-110125515D01*
X152872876Y-110173490D01*
X152889671Y-110241311D01*
X152867134Y-110307446D01*
X152822080Y-110346485D01*
X152729386Y-110393715D01*
X152563786Y-110514028D01*
X152419028Y-110658786D01*
X152298715Y-110824386D01*
X152205781Y-111006776D01*
X152142522Y-111201465D01*
X152110500Y-111403648D01*
X152110500Y-111608351D01*
X152142522Y-111810534D01*
X152205781Y-112005223D01*
X152298715Y-112187613D01*
X152419028Y-112353213D01*
X152563786Y-112497971D01*
X152718749Y-112610556D01*
X152729390Y-112618287D01*
X152803345Y-112655969D01*
X152822080Y-112665515D01*
X152872876Y-112713490D01*
X152889671Y-112781311D01*
X152867134Y-112847446D01*
X152822080Y-112886485D01*
X152729386Y-112933715D01*
X152563786Y-113054028D01*
X152419028Y-113198786D01*
X152298715Y-113364386D01*
X152205781Y-113546776D01*
X152142522Y-113741465D01*
X152110500Y-113943648D01*
X152110500Y-114148351D01*
X152142522Y-114350534D01*
X152205781Y-114545223D01*
X152298715Y-114727613D01*
X152419028Y-114893213D01*
X152563786Y-115037971D01*
X152688814Y-115128807D01*
X152729390Y-115158287D01*
X152845607Y-115217503D01*
X152911776Y-115251218D01*
X152911778Y-115251218D01*
X152911781Y-115251220D01*
X153002856Y-115280812D01*
X153106465Y-115314477D01*
X153207557Y-115330488D01*
X153308648Y-115346500D01*
X153308649Y-115346500D01*
X153513351Y-115346500D01*
X153513352Y-115346500D01*
X153715534Y-115314477D01*
X153910219Y-115251220D01*
X154092610Y-115158287D01*
X154203879Y-115077446D01*
X154258213Y-115037971D01*
X154258215Y-115037968D01*
X154258219Y-115037966D01*
X154402966Y-114893219D01*
X154402968Y-114893215D01*
X154402971Y-114893213D01*
X154507892Y-114748799D01*
X154523287Y-114727610D01*
X154616220Y-114545219D01*
X154679477Y-114350534D01*
X154711500Y-114148352D01*
X154711500Y-113943648D01*
X154679477Y-113741466D01*
X154678358Y-113738023D01*
X154637833Y-113613300D01*
X154616220Y-113546781D01*
X154616218Y-113546778D01*
X154616218Y-113546776D01*
X154564865Y-113445991D01*
X154523287Y-113364390D01*
X154507892Y-113343200D01*
X154402971Y-113198786D01*
X154258213Y-113054028D01*
X154092614Y-112933715D01*
X154086006Y-112930348D01*
X153999917Y-112886483D01*
X153949123Y-112838511D01*
X153932328Y-112770690D01*
X153954865Y-112704555D01*
X153999917Y-112665516D01*
X154092610Y-112618287D01*
X154164550Y-112566020D01*
X154258213Y-112497971D01*
X154258215Y-112497968D01*
X154258219Y-112497966D01*
X154402966Y-112353219D01*
X154402968Y-112353215D01*
X154402971Y-112353213D01*
X154455732Y-112280590D01*
X154523287Y-112187610D01*
X154616220Y-112005219D01*
X154679477Y-111810534D01*
X154711500Y-111608352D01*
X154711500Y-111403648D01*
X154681302Y-111212989D01*
X154679477Y-111201465D01*
X154643878Y-111091904D01*
X154616220Y-111006781D01*
X154616218Y-111006778D01*
X154616218Y-111006776D01*
X154582503Y-110940607D01*
X154523287Y-110824390D01*
X154515556Y-110813749D01*
X154402971Y-110658786D01*
X154258213Y-110514028D01*
X154092614Y-110393715D01*
X154086006Y-110390348D01*
X153999917Y-110346483D01*
X153949123Y-110298511D01*
X153932328Y-110230690D01*
X153954865Y-110164555D01*
X153999917Y-110125516D01*
X154092610Y-110078287D01*
X154113770Y-110062913D01*
X154258213Y-109957971D01*
X154258215Y-109957968D01*
X154258219Y-109957966D01*
X154402966Y-109813219D01*
X154402968Y-109813215D01*
X154402971Y-109813213D01*
X154465987Y-109726477D01*
X154523287Y-109647610D01*
X154616220Y-109465219D01*
X154679477Y-109270534D01*
X154711500Y-109068352D01*
X154711500Y-108863648D01*
X159730500Y-108863648D01*
X159730500Y-109068351D01*
X159762522Y-109270534D01*
X159825781Y-109465223D01*
X159918715Y-109647613D01*
X160039028Y-109813213D01*
X160183786Y-109957971D01*
X160338749Y-110070556D01*
X160349390Y-110078287D01*
X160440840Y-110124883D01*
X160442080Y-110125515D01*
X160492876Y-110173490D01*
X160509671Y-110241311D01*
X160487134Y-110307446D01*
X160442080Y-110346485D01*
X160349386Y-110393715D01*
X160183786Y-110514028D01*
X160039028Y-110658786D01*
X159918715Y-110824386D01*
X159825781Y-111006776D01*
X159762522Y-111201465D01*
X159730500Y-111403648D01*
X159730500Y-111608351D01*
X159762522Y-111810534D01*
X159825781Y-112005223D01*
X159918715Y-112187613D01*
X160039028Y-112353213D01*
X160039034Y-112353219D01*
X160183781Y-112497966D01*
X160277452Y-112566021D01*
X160320117Y-112621350D01*
X160326096Y-112690963D01*
X160293491Y-112752759D01*
X160243571Y-112784045D01*
X160161666Y-112811186D01*
X160161663Y-112811187D01*
X160012342Y-112903289D01*
X159888289Y-113027342D01*
X159796187Y-113176663D01*
X159796185Y-113176668D01*
X159788858Y-113198781D01*
X159741001Y-113343203D01*
X159741001Y-113343204D01*
X159741000Y-113343204D01*
X159730500Y-113445983D01*
X159730500Y-114646001D01*
X159730501Y-114646018D01*
X159741000Y-114748796D01*
X159741001Y-114748799D01*
X159746798Y-114766292D01*
X159796186Y-114915334D01*
X159888288Y-115064656D01*
X160012344Y-115188712D01*
X160161666Y-115280814D01*
X160328203Y-115335999D01*
X160430991Y-115346500D01*
X161631008Y-115346499D01*
X161733797Y-115335999D01*
X161900334Y-115280814D01*
X162049656Y-115188712D01*
X162173712Y-115064656D01*
X162265814Y-114915334D01*
X162320999Y-114748797D01*
X162331500Y-114646009D01*
X162331499Y-113653982D01*
X163245500Y-113653982D01*
X163245500Y-115454017D01*
X163256000Y-115556796D01*
X163256001Y-115556798D01*
X163311186Y-115723335D01*
X163403288Y-115872656D01*
X163527344Y-115996712D01*
X163676665Y-116088814D01*
X163843202Y-116143999D01*
X163945990Y-116154500D01*
X163945995Y-116154500D01*
X165746005Y-116154500D01*
X165746010Y-116154500D01*
X165848798Y-116143999D01*
X166015335Y-116088814D01*
X166164656Y-115996712D01*
X166288712Y-115872656D01*
X166380814Y-115723335D01*
X166435999Y-115556798D01*
X166446500Y-115454010D01*
X166446500Y-114428071D01*
X170866000Y-114428071D01*
X170866000Y-114679928D01*
X170905397Y-114928669D01*
X170983219Y-115168184D01*
X171097557Y-115392583D01*
X171171748Y-115494697D01*
X171171748Y-115494698D01*
X171942212Y-114724234D01*
X171953482Y-114766292D01*
X172025890Y-114891708D01*
X172128292Y-114994110D01*
X172253708Y-115066518D01*
X172295765Y-115077787D01*
X171525300Y-115848250D01*
X171627416Y-115922442D01*
X171851815Y-116036780D01*
X172091330Y-116114602D01*
X172340072Y-116154000D01*
X172591928Y-116154000D01*
X172840669Y-116114602D01*
X173080184Y-116036780D01*
X173304575Y-115922446D01*
X173304581Y-115922442D01*
X173406697Y-115848250D01*
X173406698Y-115848250D01*
X172636234Y-115077787D01*
X172678292Y-115066518D01*
X172803708Y-114994110D01*
X172906110Y-114891708D01*
X172978518Y-114766292D01*
X172989787Y-114724235D01*
X173760250Y-115494698D01*
X173760250Y-115494697D01*
X173834442Y-115392581D01*
X173834446Y-115392575D01*
X173948780Y-115168184D01*
X174026602Y-114928669D01*
X174066000Y-114679928D01*
X174066000Y-114428071D01*
X174026602Y-114179330D01*
X173948780Y-113939815D01*
X173834442Y-113715416D01*
X173760250Y-113613301D01*
X173760250Y-113613300D01*
X172989787Y-114383764D01*
X172978518Y-114341708D01*
X172906110Y-114216292D01*
X172803708Y-114113890D01*
X172678292Y-114041482D01*
X172636232Y-114030212D01*
X173406698Y-113259748D01*
X173304583Y-113185557D01*
X173080184Y-113071219D01*
X172840669Y-112993397D01*
X172591928Y-112954000D01*
X172340072Y-112954000D01*
X172091330Y-112993397D01*
X171851815Y-113071219D01*
X171627413Y-113185559D01*
X171525301Y-113259747D01*
X171525300Y-113259748D01*
X172295765Y-114030212D01*
X172253708Y-114041482D01*
X172128292Y-114113890D01*
X172025890Y-114216292D01*
X171953482Y-114341708D01*
X171942212Y-114383765D01*
X171171748Y-113613300D01*
X171171747Y-113613301D01*
X171097559Y-113715413D01*
X170983219Y-113939815D01*
X170905397Y-114179330D01*
X170866000Y-114428071D01*
X166446500Y-114428071D01*
X166446500Y-113653990D01*
X166435999Y-113551202D01*
X166380814Y-113384665D01*
X166288712Y-113235344D01*
X166164656Y-113111288D01*
X166044589Y-113037230D01*
X166015337Y-113019187D01*
X166015332Y-113019185D01*
X166013863Y-113018698D01*
X165848798Y-112964001D01*
X165848796Y-112964000D01*
X165746017Y-112953500D01*
X165746010Y-112953500D01*
X163945990Y-112953500D01*
X163945982Y-112953500D01*
X163843203Y-112964000D01*
X163843202Y-112964001D01*
X163807571Y-112975808D01*
X163676667Y-113019185D01*
X163676662Y-113019187D01*
X163527342Y-113111289D01*
X163403289Y-113235342D01*
X163311187Y-113384662D01*
X163311185Y-113384667D01*
X163290864Y-113445992D01*
X163256001Y-113551202D01*
X163256001Y-113551203D01*
X163256000Y-113551203D01*
X163245500Y-113653982D01*
X162331499Y-113653982D01*
X162331499Y-113445992D01*
X162327691Y-113408718D01*
X162320999Y-113343203D01*
X162320998Y-113343200D01*
X162265814Y-113176666D01*
X162173712Y-113027344D01*
X162049656Y-112903288D01*
X161900334Y-112811186D01*
X161818427Y-112784044D01*
X161760984Y-112744272D01*
X161734161Y-112679756D01*
X161746476Y-112610980D01*
X161784547Y-112566021D01*
X161866905Y-112506185D01*
X161878215Y-112497969D01*
X161878215Y-112497968D01*
X161878219Y-112497966D01*
X162022966Y-112353219D01*
X162022968Y-112353215D01*
X162022971Y-112353213D01*
X162075732Y-112280590D01*
X162143287Y-112187610D01*
X162236220Y-112005219D01*
X162299477Y-111810534D01*
X162331500Y-111608352D01*
X162331500Y-111403648D01*
X162301302Y-111212989D01*
X162299477Y-111201465D01*
X162263878Y-111091904D01*
X162236220Y-111006781D01*
X162236218Y-111006778D01*
X162236218Y-111006776D01*
X162202503Y-110940607D01*
X162143287Y-110824390D01*
X162135556Y-110813749D01*
X162022971Y-110658786D01*
X161878213Y-110514028D01*
X161712614Y-110393715D01*
X161706006Y-110390348D01*
X161619917Y-110346483D01*
X161569123Y-110298511D01*
X161552328Y-110230690D01*
X161574865Y-110164555D01*
X161619917Y-110125516D01*
X161712610Y-110078287D01*
X161733770Y-110062913D01*
X161878213Y-109957971D01*
X161878215Y-109957968D01*
X161878219Y-109957966D01*
X162022966Y-109813219D01*
X162022968Y-109813215D01*
X162022971Y-109813213D01*
X162085987Y-109726477D01*
X162143287Y-109647610D01*
X162236220Y-109465219D01*
X162299477Y-109270534D01*
X162331500Y-109068352D01*
X162331500Y-108863648D01*
X162299477Y-108661465D01*
X162236218Y-108466776D01*
X162187511Y-108371185D01*
X162143287Y-108284390D01*
X162131436Y-108268078D01*
X162022971Y-108118786D01*
X161878213Y-107974028D01*
X161712611Y-107853713D01*
X161619369Y-107806203D01*
X161568574Y-107758229D01*
X161551779Y-107690407D01*
X161574317Y-107624273D01*
X161619371Y-107585234D01*
X161712346Y-107537861D01*
X161712347Y-107537861D01*
X161756921Y-107505474D01*
X161077447Y-106826000D01*
X161083661Y-106826000D01*
X161185394Y-106798741D01*
X161276606Y-106746080D01*
X161351080Y-106671606D01*
X161403741Y-106580394D01*
X161431000Y-106478661D01*
X161431000Y-106472448D01*
X162110474Y-107151922D01*
X162110474Y-107151921D01*
X162142859Y-107107349D01*
X162235755Y-106925031D01*
X162298990Y-106730417D01*
X162331000Y-106528317D01*
X162331000Y-106323682D01*
X162298990Y-106121582D01*
X162235755Y-105926968D01*
X162142859Y-105744650D01*
X162110474Y-105700077D01*
X162110474Y-105700076D01*
X161431000Y-106379551D01*
X161431000Y-106373339D01*
X161403741Y-106271606D01*
X161351080Y-106180394D01*
X161276606Y-106105920D01*
X161185394Y-106053259D01*
X161083661Y-106026000D01*
X161077446Y-106026000D01*
X161756922Y-105346524D01*
X161756921Y-105346523D01*
X161712359Y-105314147D01*
X161712350Y-105314141D01*
X161530031Y-105221244D01*
X161373977Y-105170539D01*
X161335417Y-105158009D01*
X161133317Y-105126000D01*
X160928683Y-105126000D01*
X160726582Y-105158009D01*
X160531968Y-105221244D01*
X160349644Y-105314143D01*
X160305077Y-105346523D01*
X160305077Y-105346524D01*
X160984554Y-106026000D01*
X160978339Y-106026000D01*
X160876606Y-106053259D01*
X160785394Y-106105920D01*
X160710920Y-106180394D01*
X160658259Y-106271606D01*
X160631000Y-106373339D01*
X160631000Y-106379553D01*
X159951524Y-105700077D01*
X159951523Y-105700077D01*
X159919143Y-105744644D01*
X159826244Y-105926968D01*
X159763009Y-106121582D01*
X159731000Y-106323682D01*
X159731000Y-106528317D01*
X159763009Y-106730417D01*
X159826244Y-106925031D01*
X159919141Y-107107350D01*
X159919147Y-107107359D01*
X159951523Y-107151921D01*
X159951524Y-107151922D01*
X160631000Y-106472446D01*
X160631000Y-106478661D01*
X160658259Y-106580394D01*
X160710920Y-106671606D01*
X160785394Y-106746080D01*
X160876606Y-106798741D01*
X160978339Y-106826000D01*
X160984553Y-106826000D01*
X160305076Y-107505474D01*
X160349652Y-107537861D01*
X160442628Y-107585234D01*
X160493425Y-107633208D01*
X160510220Y-107701029D01*
X160487683Y-107767164D01*
X160442630Y-107806203D01*
X160349388Y-107853713D01*
X160183786Y-107974028D01*
X160039028Y-108118786D01*
X159918715Y-108284386D01*
X159825781Y-108466776D01*
X159762522Y-108661465D01*
X159730500Y-108863648D01*
X154711500Y-108863648D01*
X154679477Y-108661465D01*
X154616218Y-108466776D01*
X154567511Y-108371185D01*
X154523287Y-108284390D01*
X154511436Y-108268078D01*
X154402971Y-108118786D01*
X154258213Y-107974028D01*
X154092614Y-107853715D01*
X154086006Y-107850348D01*
X153999917Y-107806483D01*
X153949123Y-107758511D01*
X153932328Y-107690690D01*
X153954865Y-107624555D01*
X153999917Y-107585516D01*
X154092610Y-107538287D01*
X154192067Y-107466028D01*
X154258213Y-107417971D01*
X154258215Y-107417968D01*
X154258219Y-107417966D01*
X154402966Y-107273219D01*
X154402968Y-107273215D01*
X154402971Y-107273213D01*
X154468944Y-107182407D01*
X154523287Y-107107610D01*
X154616220Y-106925219D01*
X154679477Y-106730534D01*
X154711500Y-106528352D01*
X154711500Y-106323648D01*
X154691617Y-106198112D01*
X154679477Y-106121465D01*
X154622600Y-105946417D01*
X154616220Y-105926781D01*
X154616218Y-105926778D01*
X154616218Y-105926776D01*
X154559612Y-105815682D01*
X154523287Y-105744390D01*
X154491092Y-105700077D01*
X154402971Y-105578786D01*
X154258213Y-105434028D01*
X154092613Y-105313715D01*
X154092612Y-105313714D01*
X154092610Y-105313713D01*
X154035653Y-105284691D01*
X153910223Y-105220781D01*
X153715534Y-105157522D01*
X153526257Y-105127544D01*
X153513352Y-105125500D01*
X153308648Y-105125500D01*
X153295743Y-105127544D01*
X153106465Y-105157522D01*
X152911776Y-105220781D01*
X152729386Y-105313715D01*
X152563786Y-105434028D01*
X152419028Y-105578786D01*
X152298715Y-105744386D01*
X152205781Y-105926776D01*
X152142522Y-106121465D01*
X152110500Y-106323648D01*
X139897016Y-106323648D01*
X137946819Y-104373451D01*
X137913334Y-104312128D01*
X137910500Y-104285770D01*
X137910500Y-101272079D01*
X137881659Y-101127092D01*
X137881658Y-101127091D01*
X137881658Y-101127087D01*
X137863489Y-101083223D01*
X137825087Y-100990511D01*
X137825080Y-100990498D01*
X137742952Y-100867585D01*
X137732108Y-100856741D01*
X137638416Y-100763049D01*
X134519367Y-97644000D01*
X124938421Y-88063052D01*
X124938414Y-88063046D01*
X124864729Y-88013812D01*
X124864729Y-88013813D01*
X124815491Y-87980913D01*
X124678917Y-87924343D01*
X124678907Y-87924340D01*
X124533920Y-87895500D01*
X124533918Y-87895500D01*
X113900229Y-87895500D01*
X113833190Y-87875815D01*
X113812548Y-87859181D01*
X112184546Y-86231179D01*
X111054825Y-85101457D01*
X111021341Y-85040136D01*
X111026325Y-84970444D01*
X111068197Y-84914511D01*
X111133661Y-84890094D01*
X111198802Y-84903293D01*
X111291678Y-84950616D01*
X111474315Y-85009959D01*
X111663985Y-85040000D01*
X111856015Y-85040000D01*
X112045684Y-85009959D01*
X112228321Y-84950616D01*
X112399419Y-84863436D01*
X112428646Y-84842201D01*
X112428646Y-84842200D01*
X111806446Y-84220000D01*
X111812661Y-84220000D01*
X111914394Y-84192741D01*
X112005606Y-84140080D01*
X112080080Y-84065606D01*
X112132741Y-83974394D01*
X112160000Y-83872661D01*
X112160000Y-83866446D01*
X112782200Y-84488646D01*
X112839189Y-84484162D01*
X112839378Y-84486571D01*
X112875562Y-84483463D01*
X112937358Y-84516067D01*
X112946285Y-84525714D01*
X115316000Y-87376000D01*
X127712267Y-87483793D01*
X127779128Y-87504058D01*
X127798865Y-87520106D01*
X135472584Y-95193825D01*
X135671175Y-95392416D01*
X135890752Y-95567523D01*
X136128555Y-95716945D01*
X136381592Y-95838801D01*
X136580680Y-95908465D01*
X136646670Y-95931556D01*
X136646682Y-95931560D01*
X136920491Y-95994055D01*
X136920497Y-95994055D01*
X136920505Y-95994057D01*
X137106547Y-96015018D01*
X137199569Y-96025499D01*
X137199572Y-96025500D01*
X137199575Y-96025500D01*
X148677428Y-96025500D01*
X148677429Y-96025499D01*
X148820055Y-96009429D01*
X148956494Y-95994057D01*
X148956499Y-95994056D01*
X148956509Y-95994055D01*
X149037327Y-95975609D01*
X149064919Y-95972500D01*
X150050748Y-95972500D01*
X150117787Y-95992185D01*
X150163542Y-96044989D01*
X150173486Y-96114147D01*
X150165309Y-96143953D01*
X150106263Y-96286502D01*
X150106261Y-96286510D01*
X150075500Y-96441153D01*
X150075500Y-96598846D01*
X150106261Y-96753489D01*
X150106264Y-96753501D01*
X150166602Y-96899172D01*
X150166609Y-96899185D01*
X150254210Y-97030288D01*
X150254213Y-97030292D01*
X150365707Y-97141786D01*
X150365711Y-97141789D01*
X150496814Y-97229390D01*
X150496827Y-97229397D01*
X150642498Y-97289735D01*
X150642503Y-97289737D01*
X150784972Y-97318076D01*
X150797153Y-97320499D01*
X150797156Y-97320500D01*
X150797158Y-97320500D01*
X150954844Y-97320500D01*
X150954845Y-97320499D01*
X151109497Y-97289737D01*
X151187346Y-97257491D01*
X151253864Y-97229939D01*
X151301316Y-97220500D01*
X153919272Y-97220500D01*
X153986311Y-97240185D01*
X154007620Y-97257491D01*
X161035998Y-104393999D01*
X161036000Y-104394000D01*
X175928766Y-104630392D01*
X175995480Y-104651137D01*
X176025169Y-104678889D01*
X176077438Y-104747007D01*
X176189907Y-104634537D01*
X176885965Y-104645586D01*
X176430991Y-105100560D01*
X176575128Y-105211161D01*
X176824873Y-105355351D01*
X176824883Y-105355355D01*
X177091317Y-105465716D01*
X177369881Y-105540356D01*
X177655796Y-105577999D01*
X177655811Y-105578000D01*
X177944189Y-105578000D01*
X177944203Y-105577999D01*
X178230118Y-105540356D01*
X178508682Y-105465716D01*
X178775116Y-105355355D01*
X178775126Y-105355351D01*
X179024870Y-105211161D01*
X179024887Y-105211150D01*
X179169007Y-105100561D01*
X179169007Y-105100559D01*
X178743518Y-104675071D01*
X179462029Y-104686476D01*
X179522560Y-104747007D01*
X179529748Y-104737641D01*
X179586176Y-104696438D01*
X179630087Y-104689143D01*
X182883473Y-104740784D01*
X182950187Y-104761529D01*
X182995098Y-104815052D01*
X183005500Y-104864767D01*
X183005500Y-134625800D01*
X182985815Y-134692839D01*
X182933011Y-134738594D01*
X182881500Y-134749800D01*
X89845700Y-134749800D01*
X89778661Y-134730115D01*
X89732906Y-134677311D01*
X89721700Y-134625800D01*
X89721700Y-129343471D01*
X90859500Y-129343471D01*
X90859500Y-129736528D01*
X90898026Y-130127702D01*
X90974704Y-130513194D01*
X90974707Y-130513205D01*
X91088810Y-130889354D01*
X91239230Y-131252499D01*
X91239232Y-131252504D01*
X91424511Y-131599137D01*
X91424522Y-131599155D01*
X91642887Y-131925960D01*
X91642897Y-131925974D01*
X91892254Y-132229817D01*
X92170182Y-132507745D01*
X92170187Y-132507749D01*
X92170188Y-132507750D01*
X92474031Y-132757107D01*
X92800851Y-132975482D01*
X92800860Y-132975487D01*
X92800862Y-132975488D01*
X93147495Y-133160767D01*
X93147497Y-133160767D01*
X93147503Y-133160771D01*
X93510647Y-133311190D01*
X93886785Y-133425290D01*
X93886791Y-133425291D01*
X93886794Y-133425292D01*
X93886805Y-133425295D01*
X94272297Y-133501973D01*
X94663468Y-133540500D01*
X94663471Y-133540500D01*
X95056529Y-133540500D01*
X95056532Y-133540500D01*
X95447703Y-133501973D01*
X95522748Y-133487045D01*
X95833194Y-133425295D01*
X95833205Y-133425292D01*
X95833205Y-133425291D01*
X95833215Y-133425290D01*
X96209353Y-133311190D01*
X96572497Y-133160771D01*
X96919149Y-132975482D01*
X97245969Y-132757107D01*
X97549812Y-132507750D01*
X97827750Y-132229812D01*
X98077107Y-131925969D01*
X98295482Y-131599149D01*
X98480771Y-131252497D01*
X98631190Y-130889353D01*
X98745290Y-130513215D01*
X98745292Y-130513205D01*
X98745295Y-130513194D01*
X98821973Y-130127702D01*
X98860500Y-129736532D01*
X98860500Y-129343468D01*
X98821973Y-128952297D01*
X98745295Y-128566805D01*
X98745292Y-128566794D01*
X98745291Y-128566791D01*
X98745290Y-128566785D01*
X98631190Y-128190647D01*
X98480771Y-127827503D01*
X98295482Y-127480851D01*
X98077107Y-127154031D01*
X97827750Y-126850188D01*
X97827749Y-126850187D01*
X97827745Y-126850182D01*
X97549817Y-126572254D01*
X97245974Y-126322897D01*
X97245973Y-126322896D01*
X97245969Y-126322893D01*
X96919149Y-126104518D01*
X96919144Y-126104515D01*
X96919137Y-126104511D01*
X96572504Y-125919232D01*
X96572499Y-125919230D01*
X96209354Y-125768810D01*
X95833205Y-125654707D01*
X95833194Y-125654704D01*
X95447702Y-125578026D01*
X95153089Y-125549010D01*
X95056532Y-125539500D01*
X94663468Y-125539500D01*
X94574251Y-125548287D01*
X94272297Y-125578026D01*
X93886805Y-125654704D01*
X93886794Y-125654707D01*
X93510645Y-125768810D01*
X93147500Y-125919230D01*
X93147495Y-125919232D01*
X92800862Y-126104511D01*
X92800844Y-126104522D01*
X92474039Y-126322887D01*
X92474025Y-126322897D01*
X92170182Y-126572254D01*
X91892254Y-126850182D01*
X91642897Y-127154025D01*
X91642887Y-127154039D01*
X91424522Y-127480844D01*
X91424511Y-127480862D01*
X91239232Y-127827495D01*
X91239230Y-127827500D01*
X91088810Y-128190645D01*
X90974707Y-128566794D01*
X90974704Y-128566805D01*
X90898026Y-128952297D01*
X90859500Y-129343471D01*
X89721700Y-129343471D01*
X89721700Y-79375000D01*
X93632520Y-79375000D01*
X93576568Y-79452011D01*
G37*
%TD.AperFunction*%
%TA.AperFunction,Conductor*%
G36*
X118352101Y-111160185D02*
G01*
X118397856Y-111212989D01*
X118407800Y-111282147D01*
X118388164Y-111333391D01*
X118372295Y-111357139D01*
X118308184Y-111511917D01*
X118308182Y-111511925D01*
X118275500Y-111676228D01*
X118275500Y-116196349D01*
X118255815Y-116263388D01*
X118239181Y-116284030D01*
X114384030Y-120139181D01*
X114322707Y-120172666D01*
X114296349Y-120175500D01*
X114201578Y-120175500D01*
X114007173Y-120206290D01*
X113819970Y-120267117D01*
X113644594Y-120356476D01*
X113553741Y-120422485D01*
X113485354Y-120472172D01*
X113485352Y-120472174D01*
X113485351Y-120472174D01*
X113346174Y-120611351D01*
X113346174Y-120611352D01*
X113346172Y-120611354D01*
X113307097Y-120665136D01*
X113230476Y-120770594D01*
X113140204Y-120947764D01*
X113092229Y-120998560D01*
X113024408Y-121015355D01*
X112958274Y-120992818D01*
X112919234Y-120947764D01*
X112829096Y-120770858D01*
X112803678Y-120735873D01*
X112803677Y-120735873D01*
X112181725Y-121357826D01*
X112156037Y-121261956D01*
X112100084Y-121165044D01*
X112020956Y-121085916D01*
X111924044Y-121029963D01*
X111828172Y-121004274D01*
X112450125Y-120382320D01*
X112450125Y-120382319D01*
X112415145Y-120356905D01*
X112239835Y-120267581D01*
X112052705Y-120206778D01*
X111858382Y-120176000D01*
X111661618Y-120176000D01*
X111467294Y-120206778D01*
X111280161Y-120267582D01*
X111104863Y-120356899D01*
X111104859Y-120356902D01*
X111069873Y-120382320D01*
X111069872Y-120382320D01*
X111691828Y-121004274D01*
X111595956Y-121029963D01*
X111499044Y-121085916D01*
X111419916Y-121165044D01*
X111363963Y-121261956D01*
X111338274Y-121357827D01*
X110716320Y-120735872D01*
X110716320Y-120735873D01*
X110690902Y-120770859D01*
X110600765Y-120947764D01*
X110552790Y-120998560D01*
X110484969Y-121015355D01*
X110418835Y-120992818D01*
X110379795Y-120947763D01*
X110289525Y-120770596D01*
X110242731Y-120706191D01*
X110173828Y-120611354D01*
X110034646Y-120472172D01*
X109875405Y-120356476D01*
X109870498Y-120353976D01*
X109700029Y-120267117D01*
X109512826Y-120206290D01*
X109318422Y-120175500D01*
X109318417Y-120175500D01*
X109121583Y-120175500D01*
X109121578Y-120175500D01*
X108927173Y-120206290D01*
X108739970Y-120267117D01*
X108564594Y-120356476D01*
X108473741Y-120422485D01*
X108405354Y-120472172D01*
X108405352Y-120472174D01*
X108405351Y-120472174D01*
X108266174Y-120611351D01*
X108266174Y-120611352D01*
X108266172Y-120611354D01*
X108227097Y-120665136D01*
X108150476Y-120770594D01*
X108060485Y-120947213D01*
X108012511Y-120998009D01*
X107944690Y-121014804D01*
X107878555Y-120992267D01*
X107839515Y-120947213D01*
X107790009Y-120850052D01*
X107749524Y-120770595D01*
X107633828Y-120611354D01*
X107494646Y-120472172D01*
X107335405Y-120356476D01*
X107330498Y-120353976D01*
X107160029Y-120267117D01*
X106972826Y-120206290D01*
X106778422Y-120175500D01*
X106778417Y-120175500D01*
X106581583Y-120175500D01*
X106581578Y-120175500D01*
X106387173Y-120206290D01*
X106199970Y-120267117D01*
X106024594Y-120356476D01*
X105933741Y-120422485D01*
X105865354Y-120472172D01*
X105865352Y-120472174D01*
X105865351Y-120472174D01*
X105726174Y-120611351D01*
X105726174Y-120611352D01*
X105726172Y-120611354D01*
X105687097Y-120665136D01*
X105610476Y-120770594D01*
X105520485Y-120947213D01*
X105472511Y-120998009D01*
X105404690Y-121014804D01*
X105338555Y-120992267D01*
X105299515Y-120947213D01*
X105250009Y-120850052D01*
X105209524Y-120770595D01*
X105093828Y-120611354D01*
X104954646Y-120472172D01*
X104795405Y-120356476D01*
X104790498Y-120353976D01*
X104620029Y-120267117D01*
X104432826Y-120206290D01*
X104238422Y-120175500D01*
X104238417Y-120175500D01*
X104041583Y-120175500D01*
X104041578Y-120175500D01*
X103847173Y-120206290D01*
X103659970Y-120267117D01*
X103484594Y-120356476D01*
X103393741Y-120422485D01*
X103325354Y-120472172D01*
X103325352Y-120472174D01*
X103325351Y-120472174D01*
X103186174Y-120611351D01*
X103186174Y-120611352D01*
X103186172Y-120611354D01*
X103147097Y-120665136D01*
X103070476Y-120770594D01*
X102980485Y-120947213D01*
X102932511Y-120998009D01*
X102864690Y-121014804D01*
X102798555Y-120992267D01*
X102759515Y-120947213D01*
X102710009Y-120850052D01*
X102669524Y-120770595D01*
X102553828Y-120611354D01*
X102414646Y-120472172D01*
X102301613Y-120390048D01*
X102258949Y-120334718D01*
X102250500Y-120289731D01*
X102250500Y-115128807D01*
X102270185Y-115061768D01*
X102286819Y-115041126D01*
X106151126Y-111176819D01*
X106212449Y-111143334D01*
X106238807Y-111140500D01*
X118285062Y-111140500D01*
X118352101Y-111160185D01*
G37*
%TD.AperFunction*%
%TA.AperFunction,Conductor*%
G36*
X110656114Y-81771102D02*
G01*
X111282315Y-82524295D01*
X111310037Y-82588430D01*
X111298685Y-82657371D01*
X111251862Y-82709231D01*
X111243261Y-82714053D01*
X111120581Y-82776563D01*
X111091352Y-82797798D01*
X111091351Y-82797798D01*
X111713554Y-83420000D01*
X111707339Y-83420000D01*
X111605606Y-83447259D01*
X111514394Y-83499920D01*
X111439920Y-83574394D01*
X111387259Y-83665606D01*
X111360000Y-83767339D01*
X111360000Y-83773553D01*
X110737798Y-83151351D01*
X110737798Y-83151352D01*
X110716564Y-83180578D01*
X110629384Y-83351677D01*
X110608194Y-83416893D01*
X110568755Y-83474568D01*
X110504396Y-83501765D01*
X110435550Y-83489850D01*
X110384075Y-83442605D01*
X110372332Y-83416890D01*
X110351084Y-83351495D01*
X110330893Y-83311869D01*
X110263865Y-83180319D01*
X110150945Y-83024898D01*
X110015102Y-82889055D01*
X109859681Y-82776135D01*
X109800008Y-82745730D01*
X109688506Y-82688916D01*
X109505802Y-82629553D01*
X109410928Y-82614526D01*
X109316055Y-82599500D01*
X109123945Y-82599500D01*
X109060696Y-82609517D01*
X108934197Y-82629553D01*
X108751493Y-82688916D01*
X108580318Y-82776135D01*
X108550502Y-82797798D01*
X108424898Y-82889055D01*
X108424896Y-82889057D01*
X108424895Y-82889057D01*
X108289057Y-83024895D01*
X108289057Y-83024896D01*
X108289055Y-83024898D01*
X108253534Y-83073788D01*
X108176135Y-83180318D01*
X108088916Y-83351493D01*
X108067931Y-83416081D01*
X108028494Y-83473756D01*
X107964135Y-83500955D01*
X107895289Y-83489041D01*
X107843813Y-83441797D01*
X107832069Y-83416081D01*
X107811083Y-83351493D01*
X107790893Y-83311869D01*
X107723865Y-83180319D01*
X107610945Y-83024898D01*
X107475102Y-82889055D01*
X107319681Y-82776135D01*
X107260008Y-82745730D01*
X107148506Y-82688916D01*
X106965802Y-82629553D01*
X106870928Y-82614526D01*
X106776055Y-82599500D01*
X106583945Y-82599500D01*
X106520696Y-82609517D01*
X106394197Y-82629553D01*
X106211493Y-82688916D01*
X106040318Y-82776135D01*
X106010502Y-82797798D01*
X105884898Y-82889055D01*
X105884896Y-82889057D01*
X105884895Y-82889057D01*
X105749057Y-83024895D01*
X105749057Y-83024896D01*
X105749055Y-83024898D01*
X105713534Y-83073788D01*
X105636135Y-83180318D01*
X105548917Y-83351492D01*
X105508290Y-83476528D01*
X105468852Y-83534203D01*
X105404493Y-83561401D01*
X105335647Y-83549486D01*
X105302678Y-83525890D01*
X101254165Y-79477375D01*
X101254161Y-79477372D01*
X101114866Y-79384297D01*
X101114863Y-79384296D01*
X101092420Y-79375000D01*
X108458000Y-79375000D01*
X108458000Y-79127216D01*
X110656114Y-81771102D01*
G37*
%TD.AperFunction*%
M02*
