%TF.GenerationSoftware,KiCad,Pcbnew,9.0.6*%
%TF.CreationDate,2026-01-21T01:22:50+03:00*%
%TF.ProjectId,Backup power switch 12v Module,4261636b-7570-4207-906f-776572207377,rev?*%
%TF.SameCoordinates,Original*%
%TF.FileFunction,Legend,Top*%
%TF.FilePolarity,Positive*%
%FSLAX46Y46*%
G04 Gerber Fmt 4.6, Leading zero omitted, Abs format (unit mm)*
G04 Created by KiCad (PCBNEW 9.0.6) date 2026-01-21 01:22:50*
%MOMM*%
%LPD*%
G01*
G04 APERTURE LIST*
%ADD10C,0.300000*%
%ADD11C,0.150000*%
%ADD12C,0.100000*%
%ADD13C,0.200000*%
%ADD14C,0.125000*%
%ADD15C,0.120000*%
G04 APERTURE END LIST*
D10*
X102154510Y-61756828D02*
X102154510Y-60256828D01*
X102154510Y-60256828D02*
X102725939Y-60256828D01*
X102725939Y-60256828D02*
X102868796Y-60328257D01*
X102868796Y-60328257D02*
X102940225Y-60399685D01*
X102940225Y-60399685D02*
X103011653Y-60542542D01*
X103011653Y-60542542D02*
X103011653Y-60756828D01*
X103011653Y-60756828D02*
X102940225Y-60899685D01*
X102940225Y-60899685D02*
X102868796Y-60971114D01*
X102868796Y-60971114D02*
X102725939Y-61042542D01*
X102725939Y-61042542D02*
X102154510Y-61042542D01*
X103511653Y-60256828D02*
X103868796Y-61756828D01*
X103868796Y-61756828D02*
X104154510Y-60685400D01*
X104154510Y-60685400D02*
X104440225Y-61756828D01*
X104440225Y-61756828D02*
X104797368Y-60256828D01*
X106225939Y-61756828D02*
X105725939Y-61042542D01*
X105368796Y-61756828D02*
X105368796Y-60256828D01*
X105368796Y-60256828D02*
X105940225Y-60256828D01*
X105940225Y-60256828D02*
X106083082Y-60328257D01*
X106083082Y-60328257D02*
X106154511Y-60399685D01*
X106154511Y-60399685D02*
X106225939Y-60542542D01*
X106225939Y-60542542D02*
X106225939Y-60756828D01*
X106225939Y-60756828D02*
X106154511Y-60899685D01*
X106154511Y-60899685D02*
X106083082Y-60971114D01*
X106083082Y-60971114D02*
X105940225Y-61042542D01*
X105940225Y-61042542D02*
X105368796Y-61042542D01*
D11*
X98234741Y-79685362D02*
X98853788Y-79685362D01*
X98853788Y-79685362D02*
X98520455Y-80066314D01*
X98520455Y-80066314D02*
X98663312Y-80066314D01*
X98663312Y-80066314D02*
X98758550Y-80113933D01*
X98758550Y-80113933D02*
X98806169Y-80161552D01*
X98806169Y-80161552D02*
X98853788Y-80256790D01*
X98853788Y-80256790D02*
X98853788Y-80494885D01*
X98853788Y-80494885D02*
X98806169Y-80590123D01*
X98806169Y-80590123D02*
X98758550Y-80637743D01*
X98758550Y-80637743D02*
X98663312Y-80685362D01*
X98663312Y-80685362D02*
X98377598Y-80685362D01*
X98377598Y-80685362D02*
X98282360Y-80637743D01*
X98282360Y-80637743D02*
X98234741Y-80590123D01*
X99187122Y-80018695D02*
X99425217Y-80685362D01*
X99425217Y-80685362D02*
X99663312Y-80018695D01*
X99949027Y-79685362D02*
X100568074Y-79685362D01*
X100568074Y-79685362D02*
X100234741Y-80066314D01*
X100234741Y-80066314D02*
X100377598Y-80066314D01*
X100377598Y-80066314D02*
X100472836Y-80113933D01*
X100472836Y-80113933D02*
X100520455Y-80161552D01*
X100520455Y-80161552D02*
X100568074Y-80256790D01*
X100568074Y-80256790D02*
X100568074Y-80494885D01*
X100568074Y-80494885D02*
X100520455Y-80590123D01*
X100520455Y-80590123D02*
X100472836Y-80637743D01*
X100472836Y-80637743D02*
X100377598Y-80685362D01*
X100377598Y-80685362D02*
X100091884Y-80685362D01*
X100091884Y-80685362D02*
X99996646Y-80637743D01*
X99996646Y-80637743D02*
X99949027Y-80590123D01*
D10*
X104004400Y-80090489D02*
X104004400Y-78947632D01*
D11*
X98329979Y-88784333D02*
X98329979Y-87784333D01*
X98329979Y-87784333D02*
X98568074Y-87784333D01*
X98568074Y-87784333D02*
X98710931Y-87831952D01*
X98710931Y-87831952D02*
X98806169Y-87927190D01*
X98806169Y-87927190D02*
X98853788Y-88022428D01*
X98853788Y-88022428D02*
X98901407Y-88212904D01*
X98901407Y-88212904D02*
X98901407Y-88355761D01*
X98901407Y-88355761D02*
X98853788Y-88546237D01*
X98853788Y-88546237D02*
X98806169Y-88641475D01*
X98806169Y-88641475D02*
X98710931Y-88736714D01*
X98710931Y-88736714D02*
X98568074Y-88784333D01*
X98568074Y-88784333D02*
X98329979Y-88784333D01*
X99472836Y-88784333D02*
X99377598Y-88736714D01*
X99377598Y-88736714D02*
X99329979Y-88689094D01*
X99329979Y-88689094D02*
X99282360Y-88593856D01*
X99282360Y-88593856D02*
X99282360Y-88308142D01*
X99282360Y-88308142D02*
X99329979Y-88212904D01*
X99329979Y-88212904D02*
X99377598Y-88165285D01*
X99377598Y-88165285D02*
X99472836Y-88117666D01*
X99472836Y-88117666D02*
X99615693Y-88117666D01*
X99615693Y-88117666D02*
X99710931Y-88165285D01*
X99710931Y-88165285D02*
X99758550Y-88212904D01*
X99758550Y-88212904D02*
X99806169Y-88308142D01*
X99806169Y-88308142D02*
X99806169Y-88593856D01*
X99806169Y-88593856D02*
X99758550Y-88689094D01*
X99758550Y-88689094D02*
X99710931Y-88736714D01*
X99710931Y-88736714D02*
X99615693Y-88784333D01*
X99615693Y-88784333D02*
X99472836Y-88784333D01*
X100234741Y-88117666D02*
X100234741Y-88784333D01*
X100234741Y-88212904D02*
X100282360Y-88165285D01*
X100282360Y-88165285D02*
X100377598Y-88117666D01*
X100377598Y-88117666D02*
X100520455Y-88117666D01*
X100520455Y-88117666D02*
X100615693Y-88165285D01*
X100615693Y-88165285D02*
X100663312Y-88260523D01*
X100663312Y-88260523D02*
X100663312Y-88784333D01*
X101520455Y-88736714D02*
X101425217Y-88784333D01*
X101425217Y-88784333D02*
X101234741Y-88784333D01*
X101234741Y-88784333D02*
X101139503Y-88736714D01*
X101139503Y-88736714D02*
X101091884Y-88641475D01*
X101091884Y-88641475D02*
X101091884Y-88260523D01*
X101091884Y-88260523D02*
X101139503Y-88165285D01*
X101139503Y-88165285D02*
X101234741Y-88117666D01*
X101234741Y-88117666D02*
X101425217Y-88117666D01*
X101425217Y-88117666D02*
X101520455Y-88165285D01*
X101520455Y-88165285D02*
X101568074Y-88260523D01*
X101568074Y-88260523D02*
X101568074Y-88355761D01*
X101568074Y-88355761D02*
X101091884Y-88450999D01*
D12*
X181485217Y-82254209D02*
X181628074Y-82301828D01*
X181628074Y-82301828D02*
X181675693Y-82349447D01*
X181675693Y-82349447D02*
X181723312Y-82444685D01*
X181723312Y-82444685D02*
X181723312Y-82587542D01*
X181723312Y-82587542D02*
X181675693Y-82682780D01*
X181675693Y-82682780D02*
X181628074Y-82730400D01*
X181628074Y-82730400D02*
X181532836Y-82778019D01*
X181532836Y-82778019D02*
X181151884Y-82778019D01*
X181151884Y-82778019D02*
X181151884Y-81778019D01*
X181151884Y-81778019D02*
X181485217Y-81778019D01*
X181485217Y-81778019D02*
X181580455Y-81825638D01*
X181580455Y-81825638D02*
X181628074Y-81873257D01*
X181628074Y-81873257D02*
X181675693Y-81968495D01*
X181675693Y-81968495D02*
X181675693Y-82063733D01*
X181675693Y-82063733D02*
X181628074Y-82158971D01*
X181628074Y-82158971D02*
X181580455Y-82206590D01*
X181580455Y-82206590D02*
X181485217Y-82254209D01*
X181485217Y-82254209D02*
X181151884Y-82254209D01*
D11*
X98282360Y-84687229D02*
X98425217Y-84734848D01*
X98425217Y-84734848D02*
X98663312Y-84734848D01*
X98663312Y-84734848D02*
X98758550Y-84687229D01*
X98758550Y-84687229D02*
X98806169Y-84639609D01*
X98806169Y-84639609D02*
X98853788Y-84544371D01*
X98853788Y-84544371D02*
X98853788Y-84449133D01*
X98853788Y-84449133D02*
X98806169Y-84353895D01*
X98806169Y-84353895D02*
X98758550Y-84306276D01*
X98758550Y-84306276D02*
X98663312Y-84258657D01*
X98663312Y-84258657D02*
X98472836Y-84211038D01*
X98472836Y-84211038D02*
X98377598Y-84163419D01*
X98377598Y-84163419D02*
X98329979Y-84115800D01*
X98329979Y-84115800D02*
X98282360Y-84020562D01*
X98282360Y-84020562D02*
X98282360Y-83925324D01*
X98282360Y-83925324D02*
X98329979Y-83830086D01*
X98329979Y-83830086D02*
X98377598Y-83782467D01*
X98377598Y-83782467D02*
X98472836Y-83734848D01*
X98472836Y-83734848D02*
X98710931Y-83734848D01*
X98710931Y-83734848D02*
X98853788Y-83782467D01*
X99710931Y-84734848D02*
X99710931Y-83734848D01*
X99710931Y-84687229D02*
X99615693Y-84734848D01*
X99615693Y-84734848D02*
X99425217Y-84734848D01*
X99425217Y-84734848D02*
X99329979Y-84687229D01*
X99329979Y-84687229D02*
X99282360Y-84639609D01*
X99282360Y-84639609D02*
X99234741Y-84544371D01*
X99234741Y-84544371D02*
X99234741Y-84258657D01*
X99234741Y-84258657D02*
X99282360Y-84163419D01*
X99282360Y-84163419D02*
X99329979Y-84115800D01*
X99329979Y-84115800D02*
X99425217Y-84068181D01*
X99425217Y-84068181D02*
X99615693Y-84068181D01*
X99615693Y-84068181D02*
X99710931Y-84115800D01*
X100615693Y-84734848D02*
X100615693Y-84211038D01*
X100615693Y-84211038D02*
X100568074Y-84115800D01*
X100568074Y-84115800D02*
X100472836Y-84068181D01*
X100472836Y-84068181D02*
X100282360Y-84068181D01*
X100282360Y-84068181D02*
X100187122Y-84115800D01*
X100615693Y-84687229D02*
X100520455Y-84734848D01*
X100520455Y-84734848D02*
X100282360Y-84734848D01*
X100282360Y-84734848D02*
X100187122Y-84687229D01*
X100187122Y-84687229D02*
X100139503Y-84591990D01*
X100139503Y-84591990D02*
X100139503Y-84496752D01*
X100139503Y-84496752D02*
X100187122Y-84401514D01*
X100187122Y-84401514D02*
X100282360Y-84353895D01*
X100282360Y-84353895D02*
X100520455Y-84353895D01*
X100520455Y-84353895D02*
X100615693Y-84306276D01*
X98282360Y-92548104D02*
X98758550Y-92548104D01*
X98187122Y-92833819D02*
X98520455Y-91833819D01*
X98520455Y-91833819D02*
X98853788Y-92833819D01*
X99377598Y-91833819D02*
X99472836Y-91833819D01*
X99472836Y-91833819D02*
X99568074Y-91881438D01*
X99568074Y-91881438D02*
X99615693Y-91929057D01*
X99615693Y-91929057D02*
X99663312Y-92024295D01*
X99663312Y-92024295D02*
X99710931Y-92214771D01*
X99710931Y-92214771D02*
X99710931Y-92452866D01*
X99710931Y-92452866D02*
X99663312Y-92643342D01*
X99663312Y-92643342D02*
X99615693Y-92738580D01*
X99615693Y-92738580D02*
X99568074Y-92786200D01*
X99568074Y-92786200D02*
X99472836Y-92833819D01*
X99472836Y-92833819D02*
X99377598Y-92833819D01*
X99377598Y-92833819D02*
X99282360Y-92786200D01*
X99282360Y-92786200D02*
X99234741Y-92738580D01*
X99234741Y-92738580D02*
X99187122Y-92643342D01*
X99187122Y-92643342D02*
X99139503Y-92452866D01*
X99139503Y-92452866D02*
X99139503Y-92214771D01*
X99139503Y-92214771D02*
X99187122Y-92024295D01*
X99187122Y-92024295D02*
X99234741Y-91929057D01*
X99234741Y-91929057D02*
X99282360Y-91881438D01*
X99282360Y-91881438D02*
X99377598Y-91833819D01*
D10*
X142024510Y-60971114D02*
X142238796Y-61042542D01*
X142238796Y-61042542D02*
X142310225Y-61113971D01*
X142310225Y-61113971D02*
X142381653Y-61256828D01*
X142381653Y-61256828D02*
X142381653Y-61471114D01*
X142381653Y-61471114D02*
X142310225Y-61613971D01*
X142310225Y-61613971D02*
X142238796Y-61685400D01*
X142238796Y-61685400D02*
X142095939Y-61756828D01*
X142095939Y-61756828D02*
X141524510Y-61756828D01*
X141524510Y-61756828D02*
X141524510Y-60256828D01*
X141524510Y-60256828D02*
X142024510Y-60256828D01*
X142024510Y-60256828D02*
X142167368Y-60328257D01*
X142167368Y-60328257D02*
X142238796Y-60399685D01*
X142238796Y-60399685D02*
X142310225Y-60542542D01*
X142310225Y-60542542D02*
X142310225Y-60685400D01*
X142310225Y-60685400D02*
X142238796Y-60828257D01*
X142238796Y-60828257D02*
X142167368Y-60899685D01*
X142167368Y-60899685D02*
X142024510Y-60971114D01*
X142024510Y-60971114D02*
X141524510Y-60971114D01*
X142953082Y-61328257D02*
X143667368Y-61328257D01*
X142810225Y-61756828D02*
X143310225Y-60256828D01*
X143310225Y-60256828D02*
X143810225Y-61756828D01*
X144095939Y-60256828D02*
X144953082Y-60256828D01*
X144524510Y-61756828D02*
X144524510Y-60256828D01*
X134120600Y-85009510D02*
X134120600Y-86152368D01*
X133549171Y-85580939D02*
X134692028Y-85580939D01*
D12*
X181304284Y-96544819D02*
X181304284Y-95544819D01*
X181304284Y-95544819D02*
X181685236Y-95544819D01*
X181685236Y-95544819D02*
X181780474Y-95592438D01*
X181780474Y-95592438D02*
X181828093Y-95640057D01*
X181828093Y-95640057D02*
X181875712Y-95735295D01*
X181875712Y-95735295D02*
X181875712Y-95878152D01*
X181875712Y-95878152D02*
X181828093Y-95973390D01*
X181828093Y-95973390D02*
X181780474Y-96021009D01*
X181780474Y-96021009D02*
X181685236Y-96068628D01*
X181685236Y-96068628D02*
X181304284Y-96068628D01*
D10*
X156290489Y-75243400D02*
X155147632Y-75243400D01*
X127592800Y-74341510D02*
X127592800Y-75484368D01*
X127021371Y-74912939D02*
X128164228Y-74912939D01*
D13*
X177287945Y-121447275D02*
X177287945Y-120447275D01*
X177287945Y-120447275D02*
X177668897Y-120447275D01*
X177668897Y-120447275D02*
X177764135Y-120494894D01*
X177764135Y-120494894D02*
X177811754Y-120542513D01*
X177811754Y-120542513D02*
X177859373Y-120637751D01*
X177859373Y-120637751D02*
X177859373Y-120780608D01*
X177859373Y-120780608D02*
X177811754Y-120875846D01*
X177811754Y-120875846D02*
X177764135Y-120923465D01*
X177764135Y-120923465D02*
X177668897Y-120971084D01*
X177668897Y-120971084D02*
X177287945Y-120971084D01*
X178430802Y-121447275D02*
X178335564Y-121399656D01*
X178335564Y-121399656D02*
X178287945Y-121352036D01*
X178287945Y-121352036D02*
X178240326Y-121256798D01*
X178240326Y-121256798D02*
X178240326Y-120971084D01*
X178240326Y-120971084D02*
X178287945Y-120875846D01*
X178287945Y-120875846D02*
X178335564Y-120828227D01*
X178335564Y-120828227D02*
X178430802Y-120780608D01*
X178430802Y-120780608D02*
X178573659Y-120780608D01*
X178573659Y-120780608D02*
X178668897Y-120828227D01*
X178668897Y-120828227D02*
X178716516Y-120875846D01*
X178716516Y-120875846D02*
X178764135Y-120971084D01*
X178764135Y-120971084D02*
X178764135Y-121256798D01*
X178764135Y-121256798D02*
X178716516Y-121352036D01*
X178716516Y-121352036D02*
X178668897Y-121399656D01*
X178668897Y-121399656D02*
X178573659Y-121447275D01*
X178573659Y-121447275D02*
X178430802Y-121447275D01*
X179097469Y-120780608D02*
X179287945Y-121447275D01*
X179287945Y-121447275D02*
X179478421Y-120971084D01*
X179478421Y-120971084D02*
X179668897Y-121447275D01*
X179668897Y-121447275D02*
X179859373Y-120780608D01*
X180621278Y-121399656D02*
X180526040Y-121447275D01*
X180526040Y-121447275D02*
X180335564Y-121447275D01*
X180335564Y-121447275D02*
X180240326Y-121399656D01*
X180240326Y-121399656D02*
X180192707Y-121304417D01*
X180192707Y-121304417D02*
X180192707Y-120923465D01*
X180192707Y-120923465D02*
X180240326Y-120828227D01*
X180240326Y-120828227D02*
X180335564Y-120780608D01*
X180335564Y-120780608D02*
X180526040Y-120780608D01*
X180526040Y-120780608D02*
X180621278Y-120828227D01*
X180621278Y-120828227D02*
X180668897Y-120923465D01*
X180668897Y-120923465D02*
X180668897Y-121018703D01*
X180668897Y-121018703D02*
X180192707Y-121113941D01*
X181097469Y-121447275D02*
X181097469Y-120780608D01*
X181097469Y-120971084D02*
X181145088Y-120875846D01*
X181145088Y-120875846D02*
X181192707Y-120828227D01*
X181192707Y-120828227D02*
X181287945Y-120780608D01*
X181287945Y-120780608D02*
X181383183Y-120780608D01*
X176049849Y-122057219D02*
X176383182Y-123057219D01*
X176383182Y-123057219D02*
X176716515Y-122057219D01*
X177192706Y-123057219D02*
X177097468Y-123009600D01*
X177097468Y-123009600D02*
X177049849Y-122961980D01*
X177049849Y-122961980D02*
X177002230Y-122866742D01*
X177002230Y-122866742D02*
X177002230Y-122581028D01*
X177002230Y-122581028D02*
X177049849Y-122485790D01*
X177049849Y-122485790D02*
X177097468Y-122438171D01*
X177097468Y-122438171D02*
X177192706Y-122390552D01*
X177192706Y-122390552D02*
X177335563Y-122390552D01*
X177335563Y-122390552D02*
X177430801Y-122438171D01*
X177430801Y-122438171D02*
X177478420Y-122485790D01*
X177478420Y-122485790D02*
X177526039Y-122581028D01*
X177526039Y-122581028D02*
X177526039Y-122866742D01*
X177526039Y-122866742D02*
X177478420Y-122961980D01*
X177478420Y-122961980D02*
X177430801Y-123009600D01*
X177430801Y-123009600D02*
X177335563Y-123057219D01*
X177335563Y-123057219D02*
X177192706Y-123057219D01*
X178097468Y-123057219D02*
X178002230Y-123009600D01*
X178002230Y-123009600D02*
X177954611Y-122914361D01*
X177954611Y-122914361D02*
X177954611Y-122057219D01*
X178335564Y-122390552D02*
X178716516Y-122390552D01*
X178478421Y-122057219D02*
X178478421Y-122914361D01*
X178478421Y-122914361D02*
X178526040Y-123009600D01*
X178526040Y-123009600D02*
X178621278Y-123057219D01*
X178621278Y-123057219D02*
X178716516Y-123057219D01*
X179478421Y-123057219D02*
X179478421Y-122533409D01*
X179478421Y-122533409D02*
X179430802Y-122438171D01*
X179430802Y-122438171D02*
X179335564Y-122390552D01*
X179335564Y-122390552D02*
X179145088Y-122390552D01*
X179145088Y-122390552D02*
X179049850Y-122438171D01*
X179478421Y-123009600D02*
X179383183Y-123057219D01*
X179383183Y-123057219D02*
X179145088Y-123057219D01*
X179145088Y-123057219D02*
X179049850Y-123009600D01*
X179049850Y-123009600D02*
X179002231Y-122914361D01*
X179002231Y-122914361D02*
X179002231Y-122819123D01*
X179002231Y-122819123D02*
X179049850Y-122723885D01*
X179049850Y-122723885D02*
X179145088Y-122676266D01*
X179145088Y-122676266D02*
X179383183Y-122676266D01*
X179383183Y-122676266D02*
X179478421Y-122628647D01*
X180383183Y-122390552D02*
X180383183Y-123200076D01*
X180383183Y-123200076D02*
X180335564Y-123295314D01*
X180335564Y-123295314D02*
X180287945Y-123342933D01*
X180287945Y-123342933D02*
X180192707Y-123390552D01*
X180192707Y-123390552D02*
X180049850Y-123390552D01*
X180049850Y-123390552D02*
X179954612Y-123342933D01*
X180383183Y-123009600D02*
X180287945Y-123057219D01*
X180287945Y-123057219D02*
X180097469Y-123057219D01*
X180097469Y-123057219D02*
X180002231Y-123009600D01*
X180002231Y-123009600D02*
X179954612Y-122961980D01*
X179954612Y-122961980D02*
X179906993Y-122866742D01*
X179906993Y-122866742D02*
X179906993Y-122581028D01*
X179906993Y-122581028D02*
X179954612Y-122485790D01*
X179954612Y-122485790D02*
X180002231Y-122438171D01*
X180002231Y-122438171D02*
X180097469Y-122390552D01*
X180097469Y-122390552D02*
X180287945Y-122390552D01*
X180287945Y-122390552D02*
X180383183Y-122438171D01*
X181240326Y-123009600D02*
X181145088Y-123057219D01*
X181145088Y-123057219D02*
X180954612Y-123057219D01*
X180954612Y-123057219D02*
X180859374Y-123009600D01*
X180859374Y-123009600D02*
X180811755Y-122914361D01*
X180811755Y-122914361D02*
X180811755Y-122533409D01*
X180811755Y-122533409D02*
X180859374Y-122438171D01*
X180859374Y-122438171D02*
X180954612Y-122390552D01*
X180954612Y-122390552D02*
X181145088Y-122390552D01*
X181145088Y-122390552D02*
X181240326Y-122438171D01*
X181240326Y-122438171D02*
X181287945Y-122533409D01*
X181287945Y-122533409D02*
X181287945Y-122628647D01*
X181287945Y-122628647D02*
X180811755Y-122723885D01*
D11*
X98282360Y-82662486D02*
X98425217Y-82710105D01*
X98425217Y-82710105D02*
X98663312Y-82710105D01*
X98663312Y-82710105D02*
X98758550Y-82662486D01*
X98758550Y-82662486D02*
X98806169Y-82614866D01*
X98806169Y-82614866D02*
X98853788Y-82519628D01*
X98853788Y-82519628D02*
X98853788Y-82424390D01*
X98853788Y-82424390D02*
X98806169Y-82329152D01*
X98806169Y-82329152D02*
X98758550Y-82281533D01*
X98758550Y-82281533D02*
X98663312Y-82233914D01*
X98663312Y-82233914D02*
X98472836Y-82186295D01*
X98472836Y-82186295D02*
X98377598Y-82138676D01*
X98377598Y-82138676D02*
X98329979Y-82091057D01*
X98329979Y-82091057D02*
X98282360Y-81995819D01*
X98282360Y-81995819D02*
X98282360Y-81900581D01*
X98282360Y-81900581D02*
X98329979Y-81805343D01*
X98329979Y-81805343D02*
X98377598Y-81757724D01*
X98377598Y-81757724D02*
X98472836Y-81710105D01*
X98472836Y-81710105D02*
X98710931Y-81710105D01*
X98710931Y-81710105D02*
X98853788Y-81757724D01*
X99710931Y-82662486D02*
X99615693Y-82710105D01*
X99615693Y-82710105D02*
X99425217Y-82710105D01*
X99425217Y-82710105D02*
X99329979Y-82662486D01*
X99329979Y-82662486D02*
X99282360Y-82614866D01*
X99282360Y-82614866D02*
X99234741Y-82519628D01*
X99234741Y-82519628D02*
X99234741Y-82233914D01*
X99234741Y-82233914D02*
X99282360Y-82138676D01*
X99282360Y-82138676D02*
X99329979Y-82091057D01*
X99329979Y-82091057D02*
X99425217Y-82043438D01*
X99425217Y-82043438D02*
X99615693Y-82043438D01*
X99615693Y-82043438D02*
X99710931Y-82091057D01*
X100282360Y-82710105D02*
X100187122Y-82662486D01*
X100187122Y-82662486D02*
X100139503Y-82567247D01*
X100139503Y-82567247D02*
X100139503Y-81710105D01*
X98853788Y-77708238D02*
X98758550Y-77660619D01*
X98758550Y-77660619D02*
X98615693Y-77660619D01*
X98615693Y-77660619D02*
X98472836Y-77708238D01*
X98472836Y-77708238D02*
X98377598Y-77803476D01*
X98377598Y-77803476D02*
X98329979Y-77898714D01*
X98329979Y-77898714D02*
X98282360Y-78089190D01*
X98282360Y-78089190D02*
X98282360Y-78232047D01*
X98282360Y-78232047D02*
X98329979Y-78422523D01*
X98329979Y-78422523D02*
X98377598Y-78517761D01*
X98377598Y-78517761D02*
X98472836Y-78613000D01*
X98472836Y-78613000D02*
X98615693Y-78660619D01*
X98615693Y-78660619D02*
X98710931Y-78660619D01*
X98710931Y-78660619D02*
X98853788Y-78613000D01*
X98853788Y-78613000D02*
X98901407Y-78565380D01*
X98901407Y-78565380D02*
X98901407Y-78232047D01*
X98901407Y-78232047D02*
X98710931Y-78232047D01*
X99329979Y-78660619D02*
X99329979Y-77660619D01*
X99329979Y-77660619D02*
X99901407Y-78660619D01*
X99901407Y-78660619D02*
X99901407Y-77660619D01*
X100377598Y-78660619D02*
X100377598Y-77660619D01*
X100377598Y-77660619D02*
X100615693Y-77660619D01*
X100615693Y-77660619D02*
X100758550Y-77708238D01*
X100758550Y-77708238D02*
X100853788Y-77803476D01*
X100853788Y-77803476D02*
X100901407Y-77898714D01*
X100901407Y-77898714D02*
X100949026Y-78089190D01*
X100949026Y-78089190D02*
X100949026Y-78232047D01*
X100949026Y-78232047D02*
X100901407Y-78422523D01*
X100901407Y-78422523D02*
X100853788Y-78517761D01*
X100853788Y-78517761D02*
X100758550Y-78613000D01*
X100758550Y-78613000D02*
X100615693Y-78660619D01*
X100615693Y-78660619D02*
X100377598Y-78660619D01*
D10*
X111260600Y-74239910D02*
X111260600Y-75382768D01*
X110689171Y-74811339D02*
X111832028Y-74811339D01*
D11*
X98282360Y-90523361D02*
X98758550Y-90523361D01*
X98187122Y-90809076D02*
X98520455Y-89809076D01*
X98520455Y-89809076D02*
X98853788Y-90809076D01*
X99710931Y-90809076D02*
X99139503Y-90809076D01*
X99425217Y-90809076D02*
X99425217Y-89809076D01*
X99425217Y-89809076D02*
X99329979Y-89951933D01*
X99329979Y-89951933D02*
X99234741Y-90047171D01*
X99234741Y-90047171D02*
X99139503Y-90094790D01*
D13*
X177002230Y-105594838D02*
X176906992Y-105547219D01*
X176906992Y-105547219D02*
X176764135Y-105547219D01*
X176764135Y-105547219D02*
X176621278Y-105594838D01*
X176621278Y-105594838D02*
X176526040Y-105690076D01*
X176526040Y-105690076D02*
X176478421Y-105785314D01*
X176478421Y-105785314D02*
X176430802Y-105975790D01*
X176430802Y-105975790D02*
X176430802Y-106118647D01*
X176430802Y-106118647D02*
X176478421Y-106309123D01*
X176478421Y-106309123D02*
X176526040Y-106404361D01*
X176526040Y-106404361D02*
X176621278Y-106499600D01*
X176621278Y-106499600D02*
X176764135Y-106547219D01*
X176764135Y-106547219D02*
X176859373Y-106547219D01*
X176859373Y-106547219D02*
X177002230Y-106499600D01*
X177002230Y-106499600D02*
X177049849Y-106451980D01*
X177049849Y-106451980D02*
X177049849Y-106118647D01*
X177049849Y-106118647D02*
X176859373Y-106118647D01*
X177478421Y-106547219D02*
X177478421Y-105880552D01*
X177478421Y-106071028D02*
X177526040Y-105975790D01*
X177526040Y-105975790D02*
X177573659Y-105928171D01*
X177573659Y-105928171D02*
X177668897Y-105880552D01*
X177668897Y-105880552D02*
X177764135Y-105880552D01*
X178240326Y-106547219D02*
X178145088Y-106499600D01*
X178145088Y-106499600D02*
X178097469Y-106451980D01*
X178097469Y-106451980D02*
X178049850Y-106356742D01*
X178049850Y-106356742D02*
X178049850Y-106071028D01*
X178049850Y-106071028D02*
X178097469Y-105975790D01*
X178097469Y-105975790D02*
X178145088Y-105928171D01*
X178145088Y-105928171D02*
X178240326Y-105880552D01*
X178240326Y-105880552D02*
X178383183Y-105880552D01*
X178383183Y-105880552D02*
X178478421Y-105928171D01*
X178478421Y-105928171D02*
X178526040Y-105975790D01*
X178526040Y-105975790D02*
X178573659Y-106071028D01*
X178573659Y-106071028D02*
X178573659Y-106356742D01*
X178573659Y-106356742D02*
X178526040Y-106451980D01*
X178526040Y-106451980D02*
X178478421Y-106499600D01*
X178478421Y-106499600D02*
X178383183Y-106547219D01*
X178383183Y-106547219D02*
X178240326Y-106547219D01*
X179430802Y-105880552D02*
X179430802Y-106547219D01*
X179002231Y-105880552D02*
X179002231Y-106404361D01*
X179002231Y-106404361D02*
X179049850Y-106499600D01*
X179049850Y-106499600D02*
X179145088Y-106547219D01*
X179145088Y-106547219D02*
X179287945Y-106547219D01*
X179287945Y-106547219D02*
X179383183Y-106499600D01*
X179383183Y-106499600D02*
X179430802Y-106451980D01*
X179906993Y-105880552D02*
X179906993Y-106547219D01*
X179906993Y-105975790D02*
X179954612Y-105928171D01*
X179954612Y-105928171D02*
X180049850Y-105880552D01*
X180049850Y-105880552D02*
X180192707Y-105880552D01*
X180192707Y-105880552D02*
X180287945Y-105928171D01*
X180287945Y-105928171D02*
X180335564Y-106023409D01*
X180335564Y-106023409D02*
X180335564Y-106547219D01*
X181240326Y-106547219D02*
X181240326Y-105547219D01*
X181240326Y-106499600D02*
X181145088Y-106547219D01*
X181145088Y-106547219D02*
X180954612Y-106547219D01*
X180954612Y-106547219D02*
X180859374Y-106499600D01*
X180859374Y-106499600D02*
X180811755Y-106451980D01*
X180811755Y-106451980D02*
X180764136Y-106356742D01*
X180764136Y-106356742D02*
X180764136Y-106071028D01*
X180764136Y-106071028D02*
X180811755Y-105975790D01*
X180811755Y-105975790D02*
X180859374Y-105928171D01*
X180859374Y-105928171D02*
X180954612Y-105880552D01*
X180954612Y-105880552D02*
X181145088Y-105880552D01*
X181145088Y-105880552D02*
X181240326Y-105928171D01*
D10*
X118664510Y-74794400D02*
X119807368Y-74794400D01*
D13*
X172484567Y-98368133D02*
X172627424Y-98415752D01*
X172627424Y-98415752D02*
X172675043Y-98463371D01*
X172675043Y-98463371D02*
X172722662Y-98558609D01*
X172722662Y-98558609D02*
X172722662Y-98701466D01*
X172722662Y-98701466D02*
X172675043Y-98796704D01*
X172675043Y-98796704D02*
X172627424Y-98844324D01*
X172627424Y-98844324D02*
X172532186Y-98891943D01*
X172532186Y-98891943D02*
X172151234Y-98891943D01*
X172151234Y-98891943D02*
X172151234Y-97891943D01*
X172151234Y-97891943D02*
X172484567Y-97891943D01*
X172484567Y-97891943D02*
X172579805Y-97939562D01*
X172579805Y-97939562D02*
X172627424Y-97987181D01*
X172627424Y-97987181D02*
X172675043Y-98082419D01*
X172675043Y-98082419D02*
X172675043Y-98177657D01*
X172675043Y-98177657D02*
X172627424Y-98272895D01*
X172627424Y-98272895D02*
X172579805Y-98320514D01*
X172579805Y-98320514D02*
X172484567Y-98368133D01*
X172484567Y-98368133D02*
X172151234Y-98368133D01*
X173579805Y-98891943D02*
X173579805Y-98368133D01*
X173579805Y-98368133D02*
X173532186Y-98272895D01*
X173532186Y-98272895D02*
X173436948Y-98225276D01*
X173436948Y-98225276D02*
X173246472Y-98225276D01*
X173246472Y-98225276D02*
X173151234Y-98272895D01*
X173579805Y-98844324D02*
X173484567Y-98891943D01*
X173484567Y-98891943D02*
X173246472Y-98891943D01*
X173246472Y-98891943D02*
X173151234Y-98844324D01*
X173151234Y-98844324D02*
X173103615Y-98749085D01*
X173103615Y-98749085D02*
X173103615Y-98653847D01*
X173103615Y-98653847D02*
X173151234Y-98558609D01*
X173151234Y-98558609D02*
X173246472Y-98510990D01*
X173246472Y-98510990D02*
X173484567Y-98510990D01*
X173484567Y-98510990D02*
X173579805Y-98463371D01*
X174484567Y-98844324D02*
X174389329Y-98891943D01*
X174389329Y-98891943D02*
X174198853Y-98891943D01*
X174198853Y-98891943D02*
X174103615Y-98844324D01*
X174103615Y-98844324D02*
X174055996Y-98796704D01*
X174055996Y-98796704D02*
X174008377Y-98701466D01*
X174008377Y-98701466D02*
X174008377Y-98415752D01*
X174008377Y-98415752D02*
X174055996Y-98320514D01*
X174055996Y-98320514D02*
X174103615Y-98272895D01*
X174103615Y-98272895D02*
X174198853Y-98225276D01*
X174198853Y-98225276D02*
X174389329Y-98225276D01*
X174389329Y-98225276D02*
X174484567Y-98272895D01*
X174913139Y-98891943D02*
X174913139Y-97891943D01*
X175008377Y-98510990D02*
X175294091Y-98891943D01*
X175294091Y-98225276D02*
X174913139Y-98606228D01*
X176151234Y-98225276D02*
X176151234Y-98891943D01*
X175722663Y-98225276D02*
X175722663Y-98749085D01*
X175722663Y-98749085D02*
X175770282Y-98844324D01*
X175770282Y-98844324D02*
X175865520Y-98891943D01*
X175865520Y-98891943D02*
X176008377Y-98891943D01*
X176008377Y-98891943D02*
X176103615Y-98844324D01*
X176103615Y-98844324D02*
X176151234Y-98796704D01*
X176627425Y-98225276D02*
X176627425Y-99225276D01*
X176627425Y-98272895D02*
X176722663Y-98225276D01*
X176722663Y-98225276D02*
X176913139Y-98225276D01*
X176913139Y-98225276D02*
X177008377Y-98272895D01*
X177008377Y-98272895D02*
X177055996Y-98320514D01*
X177055996Y-98320514D02*
X177103615Y-98415752D01*
X177103615Y-98415752D02*
X177103615Y-98701466D01*
X177103615Y-98701466D02*
X177055996Y-98796704D01*
X177055996Y-98796704D02*
X177008377Y-98844324D01*
X177008377Y-98844324D02*
X176913139Y-98891943D01*
X176913139Y-98891943D02*
X176722663Y-98891943D01*
X176722663Y-98891943D02*
X176627425Y-98844324D01*
X178484568Y-97891943D02*
X178675044Y-97891943D01*
X178675044Y-97891943D02*
X178770282Y-97939562D01*
X178770282Y-97939562D02*
X178865520Y-98034800D01*
X178865520Y-98034800D02*
X178913139Y-98225276D01*
X178913139Y-98225276D02*
X178913139Y-98558609D01*
X178913139Y-98558609D02*
X178865520Y-98749085D01*
X178865520Y-98749085D02*
X178770282Y-98844324D01*
X178770282Y-98844324D02*
X178675044Y-98891943D01*
X178675044Y-98891943D02*
X178484568Y-98891943D01*
X178484568Y-98891943D02*
X178389330Y-98844324D01*
X178389330Y-98844324D02*
X178294092Y-98749085D01*
X178294092Y-98749085D02*
X178246473Y-98558609D01*
X178246473Y-98558609D02*
X178246473Y-98225276D01*
X178246473Y-98225276D02*
X178294092Y-98034800D01*
X178294092Y-98034800D02*
X178389330Y-97939562D01*
X178389330Y-97939562D02*
X178484568Y-97891943D01*
X179341711Y-98891943D02*
X179341711Y-97891943D01*
X179341711Y-97891943D02*
X179913139Y-98891943D01*
X179913139Y-98891943D02*
X179913139Y-97891943D01*
X100683720Y-128560314D02*
X100898006Y-128631742D01*
X100898006Y-128631742D02*
X100969435Y-128703171D01*
X100969435Y-128703171D02*
X101040863Y-128846028D01*
X101040863Y-128846028D02*
X101040863Y-129060314D01*
X101040863Y-129060314D02*
X100969435Y-129203171D01*
X100969435Y-129203171D02*
X100898006Y-129274600D01*
X100898006Y-129274600D02*
X100755149Y-129346028D01*
X100755149Y-129346028D02*
X100183720Y-129346028D01*
X100183720Y-129346028D02*
X100183720Y-127846028D01*
X100183720Y-127846028D02*
X100683720Y-127846028D01*
X100683720Y-127846028D02*
X100826578Y-127917457D01*
X100826578Y-127917457D02*
X100898006Y-127988885D01*
X100898006Y-127988885D02*
X100969435Y-128131742D01*
X100969435Y-128131742D02*
X100969435Y-128274600D01*
X100969435Y-128274600D02*
X100898006Y-128417457D01*
X100898006Y-128417457D02*
X100826578Y-128488885D01*
X100826578Y-128488885D02*
X100683720Y-128560314D01*
X100683720Y-128560314D02*
X100183720Y-128560314D01*
X102326578Y-129346028D02*
X102326578Y-128560314D01*
X102326578Y-128560314D02*
X102255149Y-128417457D01*
X102255149Y-128417457D02*
X102112292Y-128346028D01*
X102112292Y-128346028D02*
X101826578Y-128346028D01*
X101826578Y-128346028D02*
X101683720Y-128417457D01*
X102326578Y-129274600D02*
X102183720Y-129346028D01*
X102183720Y-129346028D02*
X101826578Y-129346028D01*
X101826578Y-129346028D02*
X101683720Y-129274600D01*
X101683720Y-129274600D02*
X101612292Y-129131742D01*
X101612292Y-129131742D02*
X101612292Y-128988885D01*
X101612292Y-128988885D02*
X101683720Y-128846028D01*
X101683720Y-128846028D02*
X101826578Y-128774600D01*
X101826578Y-128774600D02*
X102183720Y-128774600D01*
X102183720Y-128774600D02*
X102326578Y-128703171D01*
X103683721Y-129274600D02*
X103540863Y-129346028D01*
X103540863Y-129346028D02*
X103255149Y-129346028D01*
X103255149Y-129346028D02*
X103112292Y-129274600D01*
X103112292Y-129274600D02*
X103040863Y-129203171D01*
X103040863Y-129203171D02*
X102969435Y-129060314D01*
X102969435Y-129060314D02*
X102969435Y-128631742D01*
X102969435Y-128631742D02*
X103040863Y-128488885D01*
X103040863Y-128488885D02*
X103112292Y-128417457D01*
X103112292Y-128417457D02*
X103255149Y-128346028D01*
X103255149Y-128346028D02*
X103540863Y-128346028D01*
X103540863Y-128346028D02*
X103683721Y-128417457D01*
X104326577Y-129346028D02*
X104326577Y-127846028D01*
X104469435Y-128774600D02*
X104898006Y-129346028D01*
X104898006Y-128346028D02*
X104326577Y-128917457D01*
X106183721Y-128346028D02*
X106183721Y-129346028D01*
X105540863Y-128346028D02*
X105540863Y-129131742D01*
X105540863Y-129131742D02*
X105612292Y-129274600D01*
X105612292Y-129274600D02*
X105755149Y-129346028D01*
X105755149Y-129346028D02*
X105969435Y-129346028D01*
X105969435Y-129346028D02*
X106112292Y-129274600D01*
X106112292Y-129274600D02*
X106183721Y-129203171D01*
X106898006Y-128346028D02*
X106898006Y-129846028D01*
X106898006Y-128417457D02*
X107040864Y-128346028D01*
X107040864Y-128346028D02*
X107326578Y-128346028D01*
X107326578Y-128346028D02*
X107469435Y-128417457D01*
X107469435Y-128417457D02*
X107540864Y-128488885D01*
X107540864Y-128488885D02*
X107612292Y-128631742D01*
X107612292Y-128631742D02*
X107612292Y-129060314D01*
X107612292Y-129060314D02*
X107540864Y-129203171D01*
X107540864Y-129203171D02*
X107469435Y-129274600D01*
X107469435Y-129274600D02*
X107326578Y-129346028D01*
X107326578Y-129346028D02*
X107040864Y-129346028D01*
X107040864Y-129346028D02*
X106898006Y-129274600D01*
X109398006Y-128346028D02*
X109398006Y-129846028D01*
X109398006Y-128417457D02*
X109540864Y-128346028D01*
X109540864Y-128346028D02*
X109826578Y-128346028D01*
X109826578Y-128346028D02*
X109969435Y-128417457D01*
X109969435Y-128417457D02*
X110040864Y-128488885D01*
X110040864Y-128488885D02*
X110112292Y-128631742D01*
X110112292Y-128631742D02*
X110112292Y-129060314D01*
X110112292Y-129060314D02*
X110040864Y-129203171D01*
X110040864Y-129203171D02*
X109969435Y-129274600D01*
X109969435Y-129274600D02*
X109826578Y-129346028D01*
X109826578Y-129346028D02*
X109540864Y-129346028D01*
X109540864Y-129346028D02*
X109398006Y-129274600D01*
X110969435Y-129346028D02*
X110826578Y-129274600D01*
X110826578Y-129274600D02*
X110755149Y-129203171D01*
X110755149Y-129203171D02*
X110683721Y-129060314D01*
X110683721Y-129060314D02*
X110683721Y-128631742D01*
X110683721Y-128631742D02*
X110755149Y-128488885D01*
X110755149Y-128488885D02*
X110826578Y-128417457D01*
X110826578Y-128417457D02*
X110969435Y-128346028D01*
X110969435Y-128346028D02*
X111183721Y-128346028D01*
X111183721Y-128346028D02*
X111326578Y-128417457D01*
X111326578Y-128417457D02*
X111398007Y-128488885D01*
X111398007Y-128488885D02*
X111469435Y-128631742D01*
X111469435Y-128631742D02*
X111469435Y-129060314D01*
X111469435Y-129060314D02*
X111398007Y-129203171D01*
X111398007Y-129203171D02*
X111326578Y-129274600D01*
X111326578Y-129274600D02*
X111183721Y-129346028D01*
X111183721Y-129346028D02*
X110969435Y-129346028D01*
X111969435Y-128346028D02*
X112255150Y-129346028D01*
X112255150Y-129346028D02*
X112540864Y-128631742D01*
X112540864Y-128631742D02*
X112826578Y-129346028D01*
X112826578Y-129346028D02*
X113112292Y-128346028D01*
X114255150Y-129274600D02*
X114112293Y-129346028D01*
X114112293Y-129346028D02*
X113826579Y-129346028D01*
X113826579Y-129346028D02*
X113683721Y-129274600D01*
X113683721Y-129274600D02*
X113612293Y-129131742D01*
X113612293Y-129131742D02*
X113612293Y-128560314D01*
X113612293Y-128560314D02*
X113683721Y-128417457D01*
X113683721Y-128417457D02*
X113826579Y-128346028D01*
X113826579Y-128346028D02*
X114112293Y-128346028D01*
X114112293Y-128346028D02*
X114255150Y-128417457D01*
X114255150Y-128417457D02*
X114326579Y-128560314D01*
X114326579Y-128560314D02*
X114326579Y-128703171D01*
X114326579Y-128703171D02*
X113612293Y-128846028D01*
X114969435Y-129346028D02*
X114969435Y-128346028D01*
X114969435Y-128631742D02*
X115040864Y-128488885D01*
X115040864Y-128488885D02*
X115112293Y-128417457D01*
X115112293Y-128417457D02*
X115255150Y-128346028D01*
X115255150Y-128346028D02*
X115398007Y-128346028D01*
X116969435Y-129274600D02*
X117112292Y-129346028D01*
X117112292Y-129346028D02*
X117398006Y-129346028D01*
X117398006Y-129346028D02*
X117540863Y-129274600D01*
X117540863Y-129274600D02*
X117612292Y-129131742D01*
X117612292Y-129131742D02*
X117612292Y-129060314D01*
X117612292Y-129060314D02*
X117540863Y-128917457D01*
X117540863Y-128917457D02*
X117398006Y-128846028D01*
X117398006Y-128846028D02*
X117183721Y-128846028D01*
X117183721Y-128846028D02*
X117040863Y-128774600D01*
X117040863Y-128774600D02*
X116969435Y-128631742D01*
X116969435Y-128631742D02*
X116969435Y-128560314D01*
X116969435Y-128560314D02*
X117040863Y-128417457D01*
X117040863Y-128417457D02*
X117183721Y-128346028D01*
X117183721Y-128346028D02*
X117398006Y-128346028D01*
X117398006Y-128346028D02*
X117540863Y-128417457D01*
X118112292Y-128346028D02*
X118398007Y-129346028D01*
X118398007Y-129346028D02*
X118683721Y-128631742D01*
X118683721Y-128631742D02*
X118969435Y-129346028D01*
X118969435Y-129346028D02*
X119255149Y-128346028D01*
X119826578Y-129346028D02*
X119826578Y-128346028D01*
X119826578Y-127846028D02*
X119755150Y-127917457D01*
X119755150Y-127917457D02*
X119826578Y-127988885D01*
X119826578Y-127988885D02*
X119898007Y-127917457D01*
X119898007Y-127917457D02*
X119826578Y-127846028D01*
X119826578Y-127846028D02*
X119826578Y-127988885D01*
X120326579Y-128346028D02*
X120898007Y-128346028D01*
X120540864Y-127846028D02*
X120540864Y-129131742D01*
X120540864Y-129131742D02*
X120612293Y-129274600D01*
X120612293Y-129274600D02*
X120755150Y-129346028D01*
X120755150Y-129346028D02*
X120898007Y-129346028D01*
X122040865Y-129274600D02*
X121898007Y-129346028D01*
X121898007Y-129346028D02*
X121612293Y-129346028D01*
X121612293Y-129346028D02*
X121469436Y-129274600D01*
X121469436Y-129274600D02*
X121398007Y-129203171D01*
X121398007Y-129203171D02*
X121326579Y-129060314D01*
X121326579Y-129060314D02*
X121326579Y-128631742D01*
X121326579Y-128631742D02*
X121398007Y-128488885D01*
X121398007Y-128488885D02*
X121469436Y-128417457D01*
X121469436Y-128417457D02*
X121612293Y-128346028D01*
X121612293Y-128346028D02*
X121898007Y-128346028D01*
X121898007Y-128346028D02*
X122040865Y-128417457D01*
X122683721Y-129346028D02*
X122683721Y-127846028D01*
X123326579Y-129346028D02*
X123326579Y-128560314D01*
X123326579Y-128560314D02*
X123255150Y-128417457D01*
X123255150Y-128417457D02*
X123112293Y-128346028D01*
X123112293Y-128346028D02*
X122898007Y-128346028D01*
X122898007Y-128346028D02*
X122755150Y-128417457D01*
X122755150Y-128417457D02*
X122683721Y-128488885D01*
X125183721Y-129346028D02*
X125183721Y-127846028D01*
X125183721Y-128417457D02*
X125326579Y-128346028D01*
X125326579Y-128346028D02*
X125612293Y-128346028D01*
X125612293Y-128346028D02*
X125755150Y-128417457D01*
X125755150Y-128417457D02*
X125826579Y-128488885D01*
X125826579Y-128488885D02*
X125898007Y-128631742D01*
X125898007Y-128631742D02*
X125898007Y-129060314D01*
X125898007Y-129060314D02*
X125826579Y-129203171D01*
X125826579Y-129203171D02*
X125755150Y-129274600D01*
X125755150Y-129274600D02*
X125612293Y-129346028D01*
X125612293Y-129346028D02*
X125326579Y-129346028D01*
X125326579Y-129346028D02*
X125183721Y-129274600D01*
X126755150Y-129346028D02*
X126612293Y-129274600D01*
X126612293Y-129274600D02*
X126540864Y-129203171D01*
X126540864Y-129203171D02*
X126469436Y-129060314D01*
X126469436Y-129060314D02*
X126469436Y-128631742D01*
X126469436Y-128631742D02*
X126540864Y-128488885D01*
X126540864Y-128488885D02*
X126612293Y-128417457D01*
X126612293Y-128417457D02*
X126755150Y-128346028D01*
X126755150Y-128346028D02*
X126969436Y-128346028D01*
X126969436Y-128346028D02*
X127112293Y-128417457D01*
X127112293Y-128417457D02*
X127183722Y-128488885D01*
X127183722Y-128488885D02*
X127255150Y-128631742D01*
X127255150Y-128631742D02*
X127255150Y-129060314D01*
X127255150Y-129060314D02*
X127183722Y-129203171D01*
X127183722Y-129203171D02*
X127112293Y-129274600D01*
X127112293Y-129274600D02*
X126969436Y-129346028D01*
X126969436Y-129346028D02*
X126755150Y-129346028D01*
X128540865Y-129346028D02*
X128540865Y-128560314D01*
X128540865Y-128560314D02*
X128469436Y-128417457D01*
X128469436Y-128417457D02*
X128326579Y-128346028D01*
X128326579Y-128346028D02*
X128040865Y-128346028D01*
X128040865Y-128346028D02*
X127898007Y-128417457D01*
X128540865Y-129274600D02*
X128398007Y-129346028D01*
X128398007Y-129346028D02*
X128040865Y-129346028D01*
X128040865Y-129346028D02*
X127898007Y-129274600D01*
X127898007Y-129274600D02*
X127826579Y-129131742D01*
X127826579Y-129131742D02*
X127826579Y-128988885D01*
X127826579Y-128988885D02*
X127898007Y-128846028D01*
X127898007Y-128846028D02*
X128040865Y-128774600D01*
X128040865Y-128774600D02*
X128398007Y-128774600D01*
X128398007Y-128774600D02*
X128540865Y-128703171D01*
X129255150Y-129346028D02*
X129255150Y-128346028D01*
X129255150Y-128631742D02*
X129326579Y-128488885D01*
X129326579Y-128488885D02*
X129398008Y-128417457D01*
X129398008Y-128417457D02*
X129540865Y-128346028D01*
X129540865Y-128346028D02*
X129683722Y-128346028D01*
X130826579Y-129346028D02*
X130826579Y-127846028D01*
X130826579Y-129274600D02*
X130683721Y-129346028D01*
X130683721Y-129346028D02*
X130398007Y-129346028D01*
X130398007Y-129346028D02*
X130255150Y-129274600D01*
X130255150Y-129274600D02*
X130183721Y-129203171D01*
X130183721Y-129203171D02*
X130112293Y-129060314D01*
X130112293Y-129060314D02*
X130112293Y-128631742D01*
X130112293Y-128631742D02*
X130183721Y-128488885D01*
X130183721Y-128488885D02*
X130255150Y-128417457D01*
X130255150Y-128417457D02*
X130398007Y-128346028D01*
X130398007Y-128346028D02*
X130683721Y-128346028D01*
X130683721Y-128346028D02*
X130826579Y-128417457D01*
X100017054Y-131661504D02*
X100493244Y-131661504D01*
X99921816Y-131947219D02*
X100255149Y-130947219D01*
X100255149Y-130947219D02*
X100588482Y-131947219D01*
X100921816Y-131947219D02*
X100921816Y-130947219D01*
X100921816Y-131328171D02*
X101017054Y-131280552D01*
X101017054Y-131280552D02*
X101207530Y-131280552D01*
X101207530Y-131280552D02*
X101302768Y-131328171D01*
X101302768Y-131328171D02*
X101350387Y-131375790D01*
X101350387Y-131375790D02*
X101398006Y-131471028D01*
X101398006Y-131471028D02*
X101398006Y-131756742D01*
X101398006Y-131756742D02*
X101350387Y-131851980D01*
X101350387Y-131851980D02*
X101302768Y-131899600D01*
X101302768Y-131899600D02*
X101207530Y-131947219D01*
X101207530Y-131947219D02*
X101017054Y-131947219D01*
X101017054Y-131947219D02*
X100921816Y-131899600D01*
X102207530Y-131899600D02*
X102112292Y-131947219D01*
X102112292Y-131947219D02*
X101921816Y-131947219D01*
X101921816Y-131947219D02*
X101826578Y-131899600D01*
X101826578Y-131899600D02*
X101778959Y-131804361D01*
X101778959Y-131804361D02*
X101778959Y-131423409D01*
X101778959Y-131423409D02*
X101826578Y-131328171D01*
X101826578Y-131328171D02*
X101921816Y-131280552D01*
X101921816Y-131280552D02*
X102112292Y-131280552D01*
X102112292Y-131280552D02*
X102207530Y-131328171D01*
X102207530Y-131328171D02*
X102255149Y-131423409D01*
X102255149Y-131423409D02*
X102255149Y-131518647D01*
X102255149Y-131518647D02*
X101778959Y-131613885D01*
X102826578Y-131947219D02*
X102731340Y-131899600D01*
X102731340Y-131899600D02*
X102683721Y-131804361D01*
X102683721Y-131804361D02*
X102683721Y-130947219D01*
X104159912Y-130947219D02*
X104255150Y-130947219D01*
X104255150Y-130947219D02*
X104350388Y-130994838D01*
X104350388Y-130994838D02*
X104398007Y-131042457D01*
X104398007Y-131042457D02*
X104445626Y-131137695D01*
X104445626Y-131137695D02*
X104493245Y-131328171D01*
X104493245Y-131328171D02*
X104493245Y-131566266D01*
X104493245Y-131566266D02*
X104445626Y-131756742D01*
X104445626Y-131756742D02*
X104398007Y-131851980D01*
X104398007Y-131851980D02*
X104350388Y-131899600D01*
X104350388Y-131899600D02*
X104255150Y-131947219D01*
X104255150Y-131947219D02*
X104159912Y-131947219D01*
X104159912Y-131947219D02*
X104064674Y-131899600D01*
X104064674Y-131899600D02*
X104017055Y-131851980D01*
X104017055Y-131851980D02*
X103969436Y-131756742D01*
X103969436Y-131756742D02*
X103921817Y-131566266D01*
X103921817Y-131566266D02*
X103921817Y-131328171D01*
X103921817Y-131328171D02*
X103969436Y-131137695D01*
X103969436Y-131137695D02*
X104017055Y-131042457D01*
X104017055Y-131042457D02*
X104064674Y-130994838D01*
X104064674Y-130994838D02*
X104159912Y-130947219D01*
X105445626Y-131947219D02*
X104874198Y-131947219D01*
X105159912Y-131947219D02*
X105159912Y-130947219D01*
X105159912Y-130947219D02*
X105064674Y-131090076D01*
X105064674Y-131090076D02*
X104969436Y-131185314D01*
X104969436Y-131185314D02*
X104874198Y-131232933D01*
X106588483Y-130899600D02*
X105731341Y-132185314D01*
X106874198Y-131042457D02*
X106921817Y-130994838D01*
X106921817Y-130994838D02*
X107017055Y-130947219D01*
X107017055Y-130947219D02*
X107255150Y-130947219D01*
X107255150Y-130947219D02*
X107350388Y-130994838D01*
X107350388Y-130994838D02*
X107398007Y-131042457D01*
X107398007Y-131042457D02*
X107445626Y-131137695D01*
X107445626Y-131137695D02*
X107445626Y-131232933D01*
X107445626Y-131232933D02*
X107398007Y-131375790D01*
X107398007Y-131375790D02*
X106826579Y-131947219D01*
X106826579Y-131947219D02*
X107445626Y-131947219D01*
X108064674Y-130947219D02*
X108159912Y-130947219D01*
X108159912Y-130947219D02*
X108255150Y-130994838D01*
X108255150Y-130994838D02*
X108302769Y-131042457D01*
X108302769Y-131042457D02*
X108350388Y-131137695D01*
X108350388Y-131137695D02*
X108398007Y-131328171D01*
X108398007Y-131328171D02*
X108398007Y-131566266D01*
X108398007Y-131566266D02*
X108350388Y-131756742D01*
X108350388Y-131756742D02*
X108302769Y-131851980D01*
X108302769Y-131851980D02*
X108255150Y-131899600D01*
X108255150Y-131899600D02*
X108159912Y-131947219D01*
X108159912Y-131947219D02*
X108064674Y-131947219D01*
X108064674Y-131947219D02*
X107969436Y-131899600D01*
X107969436Y-131899600D02*
X107921817Y-131851980D01*
X107921817Y-131851980D02*
X107874198Y-131756742D01*
X107874198Y-131756742D02*
X107826579Y-131566266D01*
X107826579Y-131566266D02*
X107826579Y-131328171D01*
X107826579Y-131328171D02*
X107874198Y-131137695D01*
X107874198Y-131137695D02*
X107921817Y-131042457D01*
X107921817Y-131042457D02*
X107969436Y-130994838D01*
X107969436Y-130994838D02*
X108064674Y-130947219D01*
X108778960Y-131042457D02*
X108826579Y-130994838D01*
X108826579Y-130994838D02*
X108921817Y-130947219D01*
X108921817Y-130947219D02*
X109159912Y-130947219D01*
X109159912Y-130947219D02*
X109255150Y-130994838D01*
X109255150Y-130994838D02*
X109302769Y-131042457D01*
X109302769Y-131042457D02*
X109350388Y-131137695D01*
X109350388Y-131137695D02*
X109350388Y-131232933D01*
X109350388Y-131232933D02*
X109302769Y-131375790D01*
X109302769Y-131375790D02*
X108731341Y-131947219D01*
X108731341Y-131947219D02*
X109350388Y-131947219D01*
X110207531Y-130947219D02*
X110017055Y-130947219D01*
X110017055Y-130947219D02*
X109921817Y-130994838D01*
X109921817Y-130994838D02*
X109874198Y-131042457D01*
X109874198Y-131042457D02*
X109778960Y-131185314D01*
X109778960Y-131185314D02*
X109731341Y-131375790D01*
X109731341Y-131375790D02*
X109731341Y-131756742D01*
X109731341Y-131756742D02*
X109778960Y-131851980D01*
X109778960Y-131851980D02*
X109826579Y-131899600D01*
X109826579Y-131899600D02*
X109921817Y-131947219D01*
X109921817Y-131947219D02*
X110112293Y-131947219D01*
X110112293Y-131947219D02*
X110207531Y-131899600D01*
X110207531Y-131899600D02*
X110255150Y-131851980D01*
X110255150Y-131851980D02*
X110302769Y-131756742D01*
X110302769Y-131756742D02*
X110302769Y-131518647D01*
X110302769Y-131518647D02*
X110255150Y-131423409D01*
X110255150Y-131423409D02*
X110207531Y-131375790D01*
X110207531Y-131375790D02*
X110112293Y-131328171D01*
X110112293Y-131328171D02*
X109921817Y-131328171D01*
X109921817Y-131328171D02*
X109826579Y-131375790D01*
X109826579Y-131375790D02*
X109778960Y-131423409D01*
X109778960Y-131423409D02*
X109731341Y-131518647D01*
X111398008Y-131280552D02*
X111636103Y-131947219D01*
X111636103Y-131947219D02*
X111874198Y-131280552D01*
X112778960Y-131947219D02*
X112207532Y-131947219D01*
X112493246Y-131947219D02*
X112493246Y-130947219D01*
X112493246Y-130947219D02*
X112398008Y-131090076D01*
X112398008Y-131090076D02*
X112302770Y-131185314D01*
X112302770Y-131185314D02*
X112207532Y-131232933D01*
X113207532Y-131851980D02*
X113255151Y-131899600D01*
X113255151Y-131899600D02*
X113207532Y-131947219D01*
X113207532Y-131947219D02*
X113159913Y-131899600D01*
X113159913Y-131899600D02*
X113207532Y-131851980D01*
X113207532Y-131851980D02*
X113207532Y-131947219D01*
X114207531Y-131947219D02*
X113636103Y-131947219D01*
X113921817Y-131947219D02*
X113921817Y-130947219D01*
X113921817Y-130947219D02*
X113826579Y-131090076D01*
X113826579Y-131090076D02*
X113731341Y-131185314D01*
X113731341Y-131185314D02*
X113636103Y-131232933D01*
D11*
X98901407Y-86664351D02*
X98853788Y-86711971D01*
X98853788Y-86711971D02*
X98710931Y-86759590D01*
X98710931Y-86759590D02*
X98615693Y-86759590D01*
X98615693Y-86759590D02*
X98472836Y-86711971D01*
X98472836Y-86711971D02*
X98377598Y-86616732D01*
X98377598Y-86616732D02*
X98329979Y-86521494D01*
X98329979Y-86521494D02*
X98282360Y-86331018D01*
X98282360Y-86331018D02*
X98282360Y-86188161D01*
X98282360Y-86188161D02*
X98329979Y-85997685D01*
X98329979Y-85997685D02*
X98377598Y-85902447D01*
X98377598Y-85902447D02*
X98472836Y-85807209D01*
X98472836Y-85807209D02*
X98615693Y-85759590D01*
X98615693Y-85759590D02*
X98710931Y-85759590D01*
X98710931Y-85759590D02*
X98853788Y-85807209D01*
X98853788Y-85807209D02*
X98901407Y-85854828D01*
X99329979Y-86759590D02*
X99329979Y-85759590D01*
X99329979Y-86235780D02*
X99901407Y-86235780D01*
X99901407Y-86759590D02*
X99901407Y-85759590D01*
X100949026Y-86759590D02*
X100615693Y-86283399D01*
X100377598Y-86759590D02*
X100377598Y-85759590D01*
X100377598Y-85759590D02*
X100758550Y-85759590D01*
X100758550Y-85759590D02*
X100853788Y-85807209D01*
X100853788Y-85807209D02*
X100901407Y-85854828D01*
X100901407Y-85854828D02*
X100949026Y-85950066D01*
X100949026Y-85950066D02*
X100949026Y-86092923D01*
X100949026Y-86092923D02*
X100901407Y-86188161D01*
X100901407Y-86188161D02*
X100853788Y-86235780D01*
X100853788Y-86235780D02*
X100758550Y-86283399D01*
X100758550Y-86283399D02*
X100377598Y-86283399D01*
X101901407Y-85807209D02*
X101806169Y-85759590D01*
X101806169Y-85759590D02*
X101663312Y-85759590D01*
X101663312Y-85759590D02*
X101520455Y-85807209D01*
X101520455Y-85807209D02*
X101425217Y-85902447D01*
X101425217Y-85902447D02*
X101377598Y-85997685D01*
X101377598Y-85997685D02*
X101329979Y-86188161D01*
X101329979Y-86188161D02*
X101329979Y-86331018D01*
X101329979Y-86331018D02*
X101377598Y-86521494D01*
X101377598Y-86521494D02*
X101425217Y-86616732D01*
X101425217Y-86616732D02*
X101520455Y-86711971D01*
X101520455Y-86711971D02*
X101663312Y-86759590D01*
X101663312Y-86759590D02*
X101758550Y-86759590D01*
X101758550Y-86759590D02*
X101901407Y-86711971D01*
X101901407Y-86711971D02*
X101949026Y-86664351D01*
X101949026Y-86664351D02*
X101949026Y-86331018D01*
X101949026Y-86331018D02*
X101758550Y-86331018D01*
D10*
X164329400Y-75645489D02*
X164329400Y-74502632D01*
X164900828Y-75074060D02*
X163757971Y-75074060D01*
D13*
X138799673Y-110992219D02*
X138799673Y-109992219D01*
X138799673Y-109992219D02*
X139037768Y-109992219D01*
X139037768Y-109992219D02*
X139180625Y-110039838D01*
X139180625Y-110039838D02*
X139275863Y-110135076D01*
X139275863Y-110135076D02*
X139323482Y-110230314D01*
X139323482Y-110230314D02*
X139371101Y-110420790D01*
X139371101Y-110420790D02*
X139371101Y-110563647D01*
X139371101Y-110563647D02*
X139323482Y-110754123D01*
X139323482Y-110754123D02*
X139275863Y-110849361D01*
X139275863Y-110849361D02*
X139180625Y-110944600D01*
X139180625Y-110944600D02*
X139037768Y-110992219D01*
X139037768Y-110992219D02*
X138799673Y-110992219D01*
X139990149Y-109992219D02*
X140180625Y-109992219D01*
X140180625Y-109992219D02*
X140275863Y-110039838D01*
X140275863Y-110039838D02*
X140371101Y-110135076D01*
X140371101Y-110135076D02*
X140418720Y-110325552D01*
X140418720Y-110325552D02*
X140418720Y-110658885D01*
X140418720Y-110658885D02*
X140371101Y-110849361D01*
X140371101Y-110849361D02*
X140275863Y-110944600D01*
X140275863Y-110944600D02*
X140180625Y-110992219D01*
X140180625Y-110992219D02*
X139990149Y-110992219D01*
X139990149Y-110992219D02*
X139894911Y-110944600D01*
X139894911Y-110944600D02*
X139799673Y-110849361D01*
X139799673Y-110849361D02*
X139752054Y-110658885D01*
X139752054Y-110658885D02*
X139752054Y-110325552D01*
X139752054Y-110325552D02*
X139799673Y-110135076D01*
X139799673Y-110135076D02*
X139894911Y-110039838D01*
X139894911Y-110039838D02*
X139990149Y-109992219D01*
X140847292Y-110992219D02*
X140847292Y-109992219D01*
X140847292Y-109992219D02*
X141418720Y-110992219D01*
X141418720Y-110992219D02*
X141418720Y-109992219D01*
X141894911Y-110468409D02*
X142228244Y-110468409D01*
X142371101Y-110992219D02*
X141894911Y-110992219D01*
X141894911Y-110992219D02*
X141894911Y-109992219D01*
X141894911Y-109992219D02*
X142371101Y-109992219D01*
X173915149Y-71842219D02*
X174105625Y-71842219D01*
X174105625Y-71842219D02*
X174200863Y-71889838D01*
X174200863Y-71889838D02*
X174296101Y-71985076D01*
X174296101Y-71985076D02*
X174343720Y-72175552D01*
X174343720Y-72175552D02*
X174343720Y-72508885D01*
X174343720Y-72508885D02*
X174296101Y-72699361D01*
X174296101Y-72699361D02*
X174200863Y-72794600D01*
X174200863Y-72794600D02*
X174105625Y-72842219D01*
X174105625Y-72842219D02*
X173915149Y-72842219D01*
X173915149Y-72842219D02*
X173819911Y-72794600D01*
X173819911Y-72794600D02*
X173724673Y-72699361D01*
X173724673Y-72699361D02*
X173677054Y-72508885D01*
X173677054Y-72508885D02*
X173677054Y-72175552D01*
X173677054Y-72175552D02*
X173724673Y-71985076D01*
X173724673Y-71985076D02*
X173819911Y-71889838D01*
X173819911Y-71889838D02*
X173915149Y-71842219D01*
X174772292Y-71842219D02*
X174772292Y-72651742D01*
X174772292Y-72651742D02*
X174819911Y-72746980D01*
X174819911Y-72746980D02*
X174867530Y-72794600D01*
X174867530Y-72794600D02*
X174962768Y-72842219D01*
X174962768Y-72842219D02*
X175153244Y-72842219D01*
X175153244Y-72842219D02*
X175248482Y-72794600D01*
X175248482Y-72794600D02*
X175296101Y-72746980D01*
X175296101Y-72746980D02*
X175343720Y-72651742D01*
X175343720Y-72651742D02*
X175343720Y-71842219D01*
X175677054Y-71842219D02*
X176248482Y-71842219D01*
X175962768Y-72842219D02*
X175962768Y-71842219D01*
X177200864Y-71842219D02*
X177534197Y-72842219D01*
X177534197Y-72842219D02*
X177867530Y-71842219D01*
X178343721Y-72842219D02*
X178248483Y-72794600D01*
X178248483Y-72794600D02*
X178200864Y-72746980D01*
X178200864Y-72746980D02*
X178153245Y-72651742D01*
X178153245Y-72651742D02*
X178153245Y-72366028D01*
X178153245Y-72366028D02*
X178200864Y-72270790D01*
X178200864Y-72270790D02*
X178248483Y-72223171D01*
X178248483Y-72223171D02*
X178343721Y-72175552D01*
X178343721Y-72175552D02*
X178486578Y-72175552D01*
X178486578Y-72175552D02*
X178581816Y-72223171D01*
X178581816Y-72223171D02*
X178629435Y-72270790D01*
X178629435Y-72270790D02*
X178677054Y-72366028D01*
X178677054Y-72366028D02*
X178677054Y-72651742D01*
X178677054Y-72651742D02*
X178629435Y-72746980D01*
X178629435Y-72746980D02*
X178581816Y-72794600D01*
X178581816Y-72794600D02*
X178486578Y-72842219D01*
X178486578Y-72842219D02*
X178343721Y-72842219D01*
X179248483Y-72842219D02*
X179153245Y-72794600D01*
X179153245Y-72794600D02*
X179105626Y-72699361D01*
X179105626Y-72699361D02*
X179105626Y-71842219D01*
X179486579Y-72175552D02*
X179867531Y-72175552D01*
X179629436Y-71842219D02*
X179629436Y-72699361D01*
X179629436Y-72699361D02*
X179677055Y-72794600D01*
X179677055Y-72794600D02*
X179772293Y-72842219D01*
X179772293Y-72842219D02*
X179867531Y-72842219D01*
X180629436Y-72842219D02*
X180629436Y-72318409D01*
X180629436Y-72318409D02*
X180581817Y-72223171D01*
X180581817Y-72223171D02*
X180486579Y-72175552D01*
X180486579Y-72175552D02*
X180296103Y-72175552D01*
X180296103Y-72175552D02*
X180200865Y-72223171D01*
X180629436Y-72794600D02*
X180534198Y-72842219D01*
X180534198Y-72842219D02*
X180296103Y-72842219D01*
X180296103Y-72842219D02*
X180200865Y-72794600D01*
X180200865Y-72794600D02*
X180153246Y-72699361D01*
X180153246Y-72699361D02*
X180153246Y-72604123D01*
X180153246Y-72604123D02*
X180200865Y-72508885D01*
X180200865Y-72508885D02*
X180296103Y-72461266D01*
X180296103Y-72461266D02*
X180534198Y-72461266D01*
X180534198Y-72461266D02*
X180629436Y-72413647D01*
X181534198Y-72175552D02*
X181534198Y-72985076D01*
X181534198Y-72985076D02*
X181486579Y-73080314D01*
X181486579Y-73080314D02*
X181438960Y-73127933D01*
X181438960Y-73127933D02*
X181343722Y-73175552D01*
X181343722Y-73175552D02*
X181200865Y-73175552D01*
X181200865Y-73175552D02*
X181105627Y-73127933D01*
X181534198Y-72794600D02*
X181438960Y-72842219D01*
X181438960Y-72842219D02*
X181248484Y-72842219D01*
X181248484Y-72842219D02*
X181153246Y-72794600D01*
X181153246Y-72794600D02*
X181105627Y-72746980D01*
X181105627Y-72746980D02*
X181058008Y-72651742D01*
X181058008Y-72651742D02*
X181058008Y-72366028D01*
X181058008Y-72366028D02*
X181105627Y-72270790D01*
X181105627Y-72270790D02*
X181153246Y-72223171D01*
X181153246Y-72223171D02*
X181248484Y-72175552D01*
X181248484Y-72175552D02*
X181438960Y-72175552D01*
X181438960Y-72175552D02*
X181534198Y-72223171D01*
X182391341Y-72794600D02*
X182296103Y-72842219D01*
X182296103Y-72842219D02*
X182105627Y-72842219D01*
X182105627Y-72842219D02*
X182010389Y-72794600D01*
X182010389Y-72794600D02*
X181962770Y-72699361D01*
X181962770Y-72699361D02*
X181962770Y-72318409D01*
X181962770Y-72318409D02*
X182010389Y-72223171D01*
X182010389Y-72223171D02*
X182105627Y-72175552D01*
X182105627Y-72175552D02*
X182296103Y-72175552D01*
X182296103Y-72175552D02*
X182391341Y-72223171D01*
X182391341Y-72223171D02*
X182438960Y-72318409D01*
X182438960Y-72318409D02*
X182438960Y-72413647D01*
X182438960Y-72413647D02*
X181962770Y-72508885D01*
X139371101Y-103276980D02*
X139323482Y-103324600D01*
X139323482Y-103324600D02*
X139180625Y-103372219D01*
X139180625Y-103372219D02*
X139085387Y-103372219D01*
X139085387Y-103372219D02*
X138942530Y-103324600D01*
X138942530Y-103324600D02*
X138847292Y-103229361D01*
X138847292Y-103229361D02*
X138799673Y-103134123D01*
X138799673Y-103134123D02*
X138752054Y-102943647D01*
X138752054Y-102943647D02*
X138752054Y-102800790D01*
X138752054Y-102800790D02*
X138799673Y-102610314D01*
X138799673Y-102610314D02*
X138847292Y-102515076D01*
X138847292Y-102515076D02*
X138942530Y-102419838D01*
X138942530Y-102419838D02*
X139085387Y-102372219D01*
X139085387Y-102372219D02*
X139180625Y-102372219D01*
X139180625Y-102372219D02*
X139323482Y-102419838D01*
X139323482Y-102419838D02*
X139371101Y-102467457D01*
X139799673Y-103372219D02*
X139799673Y-102372219D01*
X139799673Y-102848409D02*
X140371101Y-102848409D01*
X140371101Y-103372219D02*
X140371101Y-102372219D01*
X141418720Y-103372219D02*
X141085387Y-102896028D01*
X140847292Y-103372219D02*
X140847292Y-102372219D01*
X140847292Y-102372219D02*
X141228244Y-102372219D01*
X141228244Y-102372219D02*
X141323482Y-102419838D01*
X141323482Y-102419838D02*
X141371101Y-102467457D01*
X141371101Y-102467457D02*
X141418720Y-102562695D01*
X141418720Y-102562695D02*
X141418720Y-102705552D01*
X141418720Y-102705552D02*
X141371101Y-102800790D01*
X141371101Y-102800790D02*
X141323482Y-102848409D01*
X141323482Y-102848409D02*
X141228244Y-102896028D01*
X141228244Y-102896028D02*
X140847292Y-102896028D01*
X142371101Y-102419838D02*
X142275863Y-102372219D01*
X142275863Y-102372219D02*
X142133006Y-102372219D01*
X142133006Y-102372219D02*
X141990149Y-102419838D01*
X141990149Y-102419838D02*
X141894911Y-102515076D01*
X141894911Y-102515076D02*
X141847292Y-102610314D01*
X141847292Y-102610314D02*
X141799673Y-102800790D01*
X141799673Y-102800790D02*
X141799673Y-102943647D01*
X141799673Y-102943647D02*
X141847292Y-103134123D01*
X141847292Y-103134123D02*
X141894911Y-103229361D01*
X141894911Y-103229361D02*
X141990149Y-103324600D01*
X141990149Y-103324600D02*
X142133006Y-103372219D01*
X142133006Y-103372219D02*
X142228244Y-103372219D01*
X142228244Y-103372219D02*
X142371101Y-103324600D01*
X142371101Y-103324600D02*
X142418720Y-103276980D01*
X142418720Y-103276980D02*
X142418720Y-102943647D01*
X142418720Y-102943647D02*
X142228244Y-102943647D01*
D12*
X176592512Y-91318780D02*
X176544893Y-91366400D01*
X176544893Y-91366400D02*
X176402036Y-91414019D01*
X176402036Y-91414019D02*
X176306798Y-91414019D01*
X176306798Y-91414019D02*
X176163941Y-91366400D01*
X176163941Y-91366400D02*
X176068703Y-91271161D01*
X176068703Y-91271161D02*
X176021084Y-91175923D01*
X176021084Y-91175923D02*
X175973465Y-90985447D01*
X175973465Y-90985447D02*
X175973465Y-90842590D01*
X175973465Y-90842590D02*
X176021084Y-90652114D01*
X176021084Y-90652114D02*
X176068703Y-90556876D01*
X176068703Y-90556876D02*
X176163941Y-90461638D01*
X176163941Y-90461638D02*
X176306798Y-90414019D01*
X176306798Y-90414019D02*
X176402036Y-90414019D01*
X176402036Y-90414019D02*
X176544893Y-90461638D01*
X176544893Y-90461638D02*
X176592512Y-90509257D01*
D10*
X135809510Y-74794400D02*
X136952368Y-74794400D01*
X133849400Y-82630489D02*
X133849400Y-81487632D01*
D13*
X176764134Y-113303465D02*
X176906991Y-113351084D01*
X176906991Y-113351084D02*
X176954610Y-113398703D01*
X176954610Y-113398703D02*
X177002229Y-113493941D01*
X177002229Y-113493941D02*
X177002229Y-113636798D01*
X177002229Y-113636798D02*
X176954610Y-113732036D01*
X176954610Y-113732036D02*
X176906991Y-113779656D01*
X176906991Y-113779656D02*
X176811753Y-113827275D01*
X176811753Y-113827275D02*
X176430801Y-113827275D01*
X176430801Y-113827275D02*
X176430801Y-112827275D01*
X176430801Y-112827275D02*
X176764134Y-112827275D01*
X176764134Y-112827275D02*
X176859372Y-112874894D01*
X176859372Y-112874894D02*
X176906991Y-112922513D01*
X176906991Y-112922513D02*
X176954610Y-113017751D01*
X176954610Y-113017751D02*
X176954610Y-113112989D01*
X176954610Y-113112989D02*
X176906991Y-113208227D01*
X176906991Y-113208227D02*
X176859372Y-113255846D01*
X176859372Y-113255846D02*
X176764134Y-113303465D01*
X176764134Y-113303465D02*
X176430801Y-113303465D01*
X177859372Y-113827275D02*
X177859372Y-113303465D01*
X177859372Y-113303465D02*
X177811753Y-113208227D01*
X177811753Y-113208227D02*
X177716515Y-113160608D01*
X177716515Y-113160608D02*
X177526039Y-113160608D01*
X177526039Y-113160608D02*
X177430801Y-113208227D01*
X177859372Y-113779656D02*
X177764134Y-113827275D01*
X177764134Y-113827275D02*
X177526039Y-113827275D01*
X177526039Y-113827275D02*
X177430801Y-113779656D01*
X177430801Y-113779656D02*
X177383182Y-113684417D01*
X177383182Y-113684417D02*
X177383182Y-113589179D01*
X177383182Y-113589179D02*
X177430801Y-113493941D01*
X177430801Y-113493941D02*
X177526039Y-113446322D01*
X177526039Y-113446322D02*
X177764134Y-113446322D01*
X177764134Y-113446322D02*
X177859372Y-113398703D01*
X178192706Y-113160608D02*
X178573658Y-113160608D01*
X178335563Y-112827275D02*
X178335563Y-113684417D01*
X178335563Y-113684417D02*
X178383182Y-113779656D01*
X178383182Y-113779656D02*
X178478420Y-113827275D01*
X178478420Y-113827275D02*
X178573658Y-113827275D01*
X178764135Y-113160608D02*
X179145087Y-113160608D01*
X178906992Y-112827275D02*
X178906992Y-113684417D01*
X178906992Y-113684417D02*
X178954611Y-113779656D01*
X178954611Y-113779656D02*
X179049849Y-113827275D01*
X179049849Y-113827275D02*
X179145087Y-113827275D01*
X179859373Y-113779656D02*
X179764135Y-113827275D01*
X179764135Y-113827275D02*
X179573659Y-113827275D01*
X179573659Y-113827275D02*
X179478421Y-113779656D01*
X179478421Y-113779656D02*
X179430802Y-113684417D01*
X179430802Y-113684417D02*
X179430802Y-113303465D01*
X179430802Y-113303465D02*
X179478421Y-113208227D01*
X179478421Y-113208227D02*
X179573659Y-113160608D01*
X179573659Y-113160608D02*
X179764135Y-113160608D01*
X179764135Y-113160608D02*
X179859373Y-113208227D01*
X179859373Y-113208227D02*
X179906992Y-113303465D01*
X179906992Y-113303465D02*
X179906992Y-113398703D01*
X179906992Y-113398703D02*
X179430802Y-113493941D01*
X180335564Y-113827275D02*
X180335564Y-113160608D01*
X180335564Y-113351084D02*
X180383183Y-113255846D01*
X180383183Y-113255846D02*
X180430802Y-113208227D01*
X180430802Y-113208227D02*
X180526040Y-113160608D01*
X180526040Y-113160608D02*
X180621278Y-113160608D01*
X180859374Y-113160608D02*
X181097469Y-113827275D01*
X181335564Y-113160608D02*
X181097469Y-113827275D01*
X181097469Y-113827275D02*
X181002231Y-114065370D01*
X181002231Y-114065370D02*
X180954612Y-114112989D01*
X180954612Y-114112989D02*
X180859374Y-114160608D01*
X176049849Y-114437219D02*
X176383182Y-115437219D01*
X176383182Y-115437219D02*
X176716515Y-114437219D01*
X177192706Y-115437219D02*
X177097468Y-115389600D01*
X177097468Y-115389600D02*
X177049849Y-115341980D01*
X177049849Y-115341980D02*
X177002230Y-115246742D01*
X177002230Y-115246742D02*
X177002230Y-114961028D01*
X177002230Y-114961028D02*
X177049849Y-114865790D01*
X177049849Y-114865790D02*
X177097468Y-114818171D01*
X177097468Y-114818171D02*
X177192706Y-114770552D01*
X177192706Y-114770552D02*
X177335563Y-114770552D01*
X177335563Y-114770552D02*
X177430801Y-114818171D01*
X177430801Y-114818171D02*
X177478420Y-114865790D01*
X177478420Y-114865790D02*
X177526039Y-114961028D01*
X177526039Y-114961028D02*
X177526039Y-115246742D01*
X177526039Y-115246742D02*
X177478420Y-115341980D01*
X177478420Y-115341980D02*
X177430801Y-115389600D01*
X177430801Y-115389600D02*
X177335563Y-115437219D01*
X177335563Y-115437219D02*
X177192706Y-115437219D01*
X178097468Y-115437219D02*
X178002230Y-115389600D01*
X178002230Y-115389600D02*
X177954611Y-115294361D01*
X177954611Y-115294361D02*
X177954611Y-114437219D01*
X178335564Y-114770552D02*
X178716516Y-114770552D01*
X178478421Y-114437219D02*
X178478421Y-115294361D01*
X178478421Y-115294361D02*
X178526040Y-115389600D01*
X178526040Y-115389600D02*
X178621278Y-115437219D01*
X178621278Y-115437219D02*
X178716516Y-115437219D01*
X179478421Y-115437219D02*
X179478421Y-114913409D01*
X179478421Y-114913409D02*
X179430802Y-114818171D01*
X179430802Y-114818171D02*
X179335564Y-114770552D01*
X179335564Y-114770552D02*
X179145088Y-114770552D01*
X179145088Y-114770552D02*
X179049850Y-114818171D01*
X179478421Y-115389600D02*
X179383183Y-115437219D01*
X179383183Y-115437219D02*
X179145088Y-115437219D01*
X179145088Y-115437219D02*
X179049850Y-115389600D01*
X179049850Y-115389600D02*
X179002231Y-115294361D01*
X179002231Y-115294361D02*
X179002231Y-115199123D01*
X179002231Y-115199123D02*
X179049850Y-115103885D01*
X179049850Y-115103885D02*
X179145088Y-115056266D01*
X179145088Y-115056266D02*
X179383183Y-115056266D01*
X179383183Y-115056266D02*
X179478421Y-115008647D01*
X180383183Y-114770552D02*
X180383183Y-115580076D01*
X180383183Y-115580076D02*
X180335564Y-115675314D01*
X180335564Y-115675314D02*
X180287945Y-115722933D01*
X180287945Y-115722933D02*
X180192707Y-115770552D01*
X180192707Y-115770552D02*
X180049850Y-115770552D01*
X180049850Y-115770552D02*
X179954612Y-115722933D01*
X180383183Y-115389600D02*
X180287945Y-115437219D01*
X180287945Y-115437219D02*
X180097469Y-115437219D01*
X180097469Y-115437219D02*
X180002231Y-115389600D01*
X180002231Y-115389600D02*
X179954612Y-115341980D01*
X179954612Y-115341980D02*
X179906993Y-115246742D01*
X179906993Y-115246742D02*
X179906993Y-114961028D01*
X179906993Y-114961028D02*
X179954612Y-114865790D01*
X179954612Y-114865790D02*
X180002231Y-114818171D01*
X180002231Y-114818171D02*
X180097469Y-114770552D01*
X180097469Y-114770552D02*
X180287945Y-114770552D01*
X180287945Y-114770552D02*
X180383183Y-114818171D01*
X181240326Y-115389600D02*
X181145088Y-115437219D01*
X181145088Y-115437219D02*
X180954612Y-115437219D01*
X180954612Y-115437219D02*
X180859374Y-115389600D01*
X180859374Y-115389600D02*
X180811755Y-115294361D01*
X180811755Y-115294361D02*
X180811755Y-114913409D01*
X180811755Y-114913409D02*
X180859374Y-114818171D01*
X180859374Y-114818171D02*
X180954612Y-114770552D01*
X180954612Y-114770552D02*
X181145088Y-114770552D01*
X181145088Y-114770552D02*
X181240326Y-114818171D01*
X181240326Y-114818171D02*
X181287945Y-114913409D01*
X181287945Y-114913409D02*
X181287945Y-115008647D01*
X181287945Y-115008647D02*
X180811755Y-115103885D01*
D10*
X104275600Y-87549510D02*
X104275600Y-88692368D01*
X103704171Y-88120939D02*
X104847028Y-88120939D01*
D11*
X101224819Y-68697857D02*
X100748628Y-69031190D01*
X101224819Y-69269285D02*
X100224819Y-69269285D01*
X100224819Y-69269285D02*
X100224819Y-68888333D01*
X100224819Y-68888333D02*
X100272438Y-68793095D01*
X100272438Y-68793095D02*
X100320057Y-68745476D01*
X100320057Y-68745476D02*
X100415295Y-68697857D01*
X100415295Y-68697857D02*
X100558152Y-68697857D01*
X100558152Y-68697857D02*
X100653390Y-68745476D01*
X100653390Y-68745476D02*
X100701009Y-68793095D01*
X100701009Y-68793095D02*
X100748628Y-68888333D01*
X100748628Y-68888333D02*
X100748628Y-69269285D01*
X101224819Y-67745476D02*
X101224819Y-68316904D01*
X101224819Y-68031190D02*
X100224819Y-68031190D01*
X100224819Y-68031190D02*
X100367676Y-68126428D01*
X100367676Y-68126428D02*
X100462914Y-68221666D01*
X100462914Y-68221666D02*
X100510533Y-68316904D01*
X100558152Y-66888333D02*
X101224819Y-66888333D01*
X100177200Y-67126428D02*
X100891485Y-67364523D01*
X100891485Y-67364523D02*
X100891485Y-66745476D01*
X139379033Y-105915619D02*
X139045700Y-105439428D01*
X138807605Y-105915619D02*
X138807605Y-104915619D01*
X138807605Y-104915619D02*
X139188557Y-104915619D01*
X139188557Y-104915619D02*
X139283795Y-104963238D01*
X139283795Y-104963238D02*
X139331414Y-105010857D01*
X139331414Y-105010857D02*
X139379033Y-105106095D01*
X139379033Y-105106095D02*
X139379033Y-105248952D01*
X139379033Y-105248952D02*
X139331414Y-105344190D01*
X139331414Y-105344190D02*
X139283795Y-105391809D01*
X139283795Y-105391809D02*
X139188557Y-105439428D01*
X139188557Y-105439428D02*
X138807605Y-105439428D01*
X140331414Y-105915619D02*
X139759986Y-105915619D01*
X140045700Y-105915619D02*
X140045700Y-104915619D01*
X140045700Y-104915619D02*
X139950462Y-105058476D01*
X139950462Y-105058476D02*
X139855224Y-105153714D01*
X139855224Y-105153714D02*
X139759986Y-105201333D01*
X115403333Y-81099819D02*
X115070000Y-80623628D01*
X114831905Y-81099819D02*
X114831905Y-80099819D01*
X114831905Y-80099819D02*
X115212857Y-80099819D01*
X115212857Y-80099819D02*
X115308095Y-80147438D01*
X115308095Y-80147438D02*
X115355714Y-80195057D01*
X115355714Y-80195057D02*
X115403333Y-80290295D01*
X115403333Y-80290295D02*
X115403333Y-80433152D01*
X115403333Y-80433152D02*
X115355714Y-80528390D01*
X115355714Y-80528390D02*
X115308095Y-80576009D01*
X115308095Y-80576009D02*
X115212857Y-80623628D01*
X115212857Y-80623628D02*
X114831905Y-80623628D01*
X116260476Y-80433152D02*
X116260476Y-81099819D01*
X116022381Y-80052200D02*
X115784286Y-80766485D01*
X115784286Y-80766485D02*
X116403333Y-80766485D01*
X150963333Y-121104819D02*
X150630000Y-120628628D01*
X150391905Y-121104819D02*
X150391905Y-120104819D01*
X150391905Y-120104819D02*
X150772857Y-120104819D01*
X150772857Y-120104819D02*
X150868095Y-120152438D01*
X150868095Y-120152438D02*
X150915714Y-120200057D01*
X150915714Y-120200057D02*
X150963333Y-120295295D01*
X150963333Y-120295295D02*
X150963333Y-120438152D01*
X150963333Y-120438152D02*
X150915714Y-120533390D01*
X150915714Y-120533390D02*
X150868095Y-120581009D01*
X150868095Y-120581009D02*
X150772857Y-120628628D01*
X150772857Y-120628628D02*
X150391905Y-120628628D01*
X151868095Y-120104819D02*
X151391905Y-120104819D01*
X151391905Y-120104819D02*
X151344286Y-120581009D01*
X151344286Y-120581009D02*
X151391905Y-120533390D01*
X151391905Y-120533390D02*
X151487143Y-120485771D01*
X151487143Y-120485771D02*
X151725238Y-120485771D01*
X151725238Y-120485771D02*
X151820476Y-120533390D01*
X151820476Y-120533390D02*
X151868095Y-120581009D01*
X151868095Y-120581009D02*
X151915714Y-120676247D01*
X151915714Y-120676247D02*
X151915714Y-120914342D01*
X151915714Y-120914342D02*
X151868095Y-121009580D01*
X151868095Y-121009580D02*
X151820476Y-121057200D01*
X151820476Y-121057200D02*
X151725238Y-121104819D01*
X151725238Y-121104819D02*
X151487143Y-121104819D01*
X151487143Y-121104819D02*
X151391905Y-121057200D01*
X151391905Y-121057200D02*
X151344286Y-121009580D01*
X92173466Y-74275619D02*
X92173466Y-74989904D01*
X92173466Y-74989904D02*
X92125847Y-75132761D01*
X92125847Y-75132761D02*
X92030609Y-75228000D01*
X92030609Y-75228000D02*
X91887752Y-75275619D01*
X91887752Y-75275619D02*
X91792514Y-75275619D01*
X93125847Y-74275619D02*
X92649657Y-74275619D01*
X92649657Y-74275619D02*
X92602038Y-74751809D01*
X92602038Y-74751809D02*
X92649657Y-74704190D01*
X92649657Y-74704190D02*
X92744895Y-74656571D01*
X92744895Y-74656571D02*
X92982990Y-74656571D01*
X92982990Y-74656571D02*
X93078228Y-74704190D01*
X93078228Y-74704190D02*
X93125847Y-74751809D01*
X93125847Y-74751809D02*
X93173466Y-74847047D01*
X93173466Y-74847047D02*
X93173466Y-75085142D01*
X93173466Y-75085142D02*
X93125847Y-75180380D01*
X93125847Y-75180380D02*
X93078228Y-75228000D01*
X93078228Y-75228000D02*
X92982990Y-75275619D01*
X92982990Y-75275619D02*
X92744895Y-75275619D01*
X92744895Y-75275619D02*
X92649657Y-75228000D01*
X92649657Y-75228000D02*
X92602038Y-75180380D01*
X158265905Y-132788819D02*
X158265905Y-131788819D01*
X158265905Y-131788819D02*
X158504000Y-131788819D01*
X158504000Y-131788819D02*
X158646857Y-131836438D01*
X158646857Y-131836438D02*
X158742095Y-131931676D01*
X158742095Y-131931676D02*
X158789714Y-132026914D01*
X158789714Y-132026914D02*
X158837333Y-132217390D01*
X158837333Y-132217390D02*
X158837333Y-132360247D01*
X158837333Y-132360247D02*
X158789714Y-132550723D01*
X158789714Y-132550723D02*
X158742095Y-132645961D01*
X158742095Y-132645961D02*
X158646857Y-132741200D01*
X158646857Y-132741200D02*
X158504000Y-132788819D01*
X158504000Y-132788819D02*
X158265905Y-132788819D01*
X159694476Y-132122152D02*
X159694476Y-132788819D01*
X159456381Y-131741200D02*
X159218286Y-132455485D01*
X159218286Y-132455485D02*
X159837333Y-132455485D01*
X166373207Y-101419819D02*
X166039874Y-100943628D01*
X165801779Y-101419819D02*
X165801779Y-100419819D01*
X165801779Y-100419819D02*
X166182731Y-100419819D01*
X166182731Y-100419819D02*
X166277969Y-100467438D01*
X166277969Y-100467438D02*
X166325588Y-100515057D01*
X166325588Y-100515057D02*
X166373207Y-100610295D01*
X166373207Y-100610295D02*
X166373207Y-100753152D01*
X166373207Y-100753152D02*
X166325588Y-100848390D01*
X166325588Y-100848390D02*
X166277969Y-100896009D01*
X166277969Y-100896009D02*
X166182731Y-100943628D01*
X166182731Y-100943628D02*
X165801779Y-100943628D01*
X167325588Y-101419819D02*
X166754160Y-101419819D01*
X167039874Y-101419819D02*
X167039874Y-100419819D01*
X167039874Y-100419819D02*
X166944636Y-100562676D01*
X166944636Y-100562676D02*
X166849398Y-100657914D01*
X166849398Y-100657914D02*
X166754160Y-100705533D01*
X168277969Y-101419819D02*
X167706541Y-101419819D01*
X167992255Y-101419819D02*
X167992255Y-100419819D01*
X167992255Y-100419819D02*
X167897017Y-100562676D01*
X167897017Y-100562676D02*
X167801779Y-100657914D01*
X167801779Y-100657914D02*
X167706541Y-100705533D01*
X127025495Y-99937219D02*
X127025495Y-100746742D01*
X127025495Y-100746742D02*
X127073114Y-100841980D01*
X127073114Y-100841980D02*
X127120733Y-100889600D01*
X127120733Y-100889600D02*
X127215971Y-100937219D01*
X127215971Y-100937219D02*
X127406447Y-100937219D01*
X127406447Y-100937219D02*
X127501685Y-100889600D01*
X127501685Y-100889600D02*
X127549304Y-100841980D01*
X127549304Y-100841980D02*
X127596923Y-100746742D01*
X127596923Y-100746742D02*
X127596923Y-99937219D01*
X128501685Y-100270552D02*
X128501685Y-100937219D01*
X128263590Y-99889600D02*
X128025495Y-100603885D01*
X128025495Y-100603885D02*
X128644542Y-100603885D01*
X167917905Y-77670819D02*
X167917905Y-76670819D01*
X168489333Y-77670819D02*
X168060762Y-77099390D01*
X168489333Y-76670819D02*
X167917905Y-77242247D01*
X169441714Y-77670819D02*
X168870286Y-77670819D01*
X169156000Y-77670819D02*
X169156000Y-76670819D01*
X169156000Y-76670819D02*
X169060762Y-76813676D01*
X169060762Y-76813676D02*
X168965524Y-76908914D01*
X168965524Y-76908914D02*
X168870286Y-76956533D01*
X108624761Y-87934819D02*
X108291428Y-87458628D01*
X108053333Y-87934819D02*
X108053333Y-86934819D01*
X108053333Y-86934819D02*
X108434285Y-86934819D01*
X108434285Y-86934819D02*
X108529523Y-86982438D01*
X108529523Y-86982438D02*
X108577142Y-87030057D01*
X108577142Y-87030057D02*
X108624761Y-87125295D01*
X108624761Y-87125295D02*
X108624761Y-87268152D01*
X108624761Y-87268152D02*
X108577142Y-87363390D01*
X108577142Y-87363390D02*
X108529523Y-87411009D01*
X108529523Y-87411009D02*
X108434285Y-87458628D01*
X108434285Y-87458628D02*
X108053333Y-87458628D01*
X108910476Y-86934819D02*
X109243809Y-87934819D01*
X109243809Y-87934819D02*
X109577142Y-86934819D01*
X110434285Y-87934819D02*
X109862857Y-87934819D01*
X110148571Y-87934819D02*
X110148571Y-86934819D01*
X110148571Y-86934819D02*
X110053333Y-87077676D01*
X110053333Y-87077676D02*
X109958095Y-87172914D01*
X109958095Y-87172914D02*
X109862857Y-87220533D01*
X138898333Y-121466780D02*
X138850714Y-121514400D01*
X138850714Y-121514400D02*
X138707857Y-121562019D01*
X138707857Y-121562019D02*
X138612619Y-121562019D01*
X138612619Y-121562019D02*
X138469762Y-121514400D01*
X138469762Y-121514400D02*
X138374524Y-121419161D01*
X138374524Y-121419161D02*
X138326905Y-121323923D01*
X138326905Y-121323923D02*
X138279286Y-121133447D01*
X138279286Y-121133447D02*
X138279286Y-120990590D01*
X138279286Y-120990590D02*
X138326905Y-120800114D01*
X138326905Y-120800114D02*
X138374524Y-120704876D01*
X138374524Y-120704876D02*
X138469762Y-120609638D01*
X138469762Y-120609638D02*
X138612619Y-120562019D01*
X138612619Y-120562019D02*
X138707857Y-120562019D01*
X138707857Y-120562019D02*
X138850714Y-120609638D01*
X138850714Y-120609638D02*
X138898333Y-120657257D01*
X139755476Y-120562019D02*
X139565000Y-120562019D01*
X139565000Y-120562019D02*
X139469762Y-120609638D01*
X139469762Y-120609638D02*
X139422143Y-120657257D01*
X139422143Y-120657257D02*
X139326905Y-120800114D01*
X139326905Y-120800114D02*
X139279286Y-120990590D01*
X139279286Y-120990590D02*
X139279286Y-121371542D01*
X139279286Y-121371542D02*
X139326905Y-121466780D01*
X139326905Y-121466780D02*
X139374524Y-121514400D01*
X139374524Y-121514400D02*
X139469762Y-121562019D01*
X139469762Y-121562019D02*
X139660238Y-121562019D01*
X139660238Y-121562019D02*
X139755476Y-121514400D01*
X139755476Y-121514400D02*
X139803095Y-121466780D01*
X139803095Y-121466780D02*
X139850714Y-121371542D01*
X139850714Y-121371542D02*
X139850714Y-121133447D01*
X139850714Y-121133447D02*
X139803095Y-121038209D01*
X139803095Y-121038209D02*
X139755476Y-120990590D01*
X139755476Y-120990590D02*
X139660238Y-120942971D01*
X139660238Y-120942971D02*
X139469762Y-120942971D01*
X139469762Y-120942971D02*
X139374524Y-120990590D01*
X139374524Y-120990590D02*
X139326905Y-121038209D01*
X139326905Y-121038209D02*
X139279286Y-121133447D01*
X166278207Y-109039819D02*
X165944874Y-108563628D01*
X165706779Y-109039819D02*
X165706779Y-108039819D01*
X165706779Y-108039819D02*
X166087731Y-108039819D01*
X166087731Y-108039819D02*
X166182969Y-108087438D01*
X166182969Y-108087438D02*
X166230588Y-108135057D01*
X166230588Y-108135057D02*
X166278207Y-108230295D01*
X166278207Y-108230295D02*
X166278207Y-108373152D01*
X166278207Y-108373152D02*
X166230588Y-108468390D01*
X166230588Y-108468390D02*
X166182969Y-108516009D01*
X166182969Y-108516009D02*
X166087731Y-108563628D01*
X166087731Y-108563628D02*
X165706779Y-108563628D01*
X166611541Y-108039819D02*
X167230588Y-108039819D01*
X167230588Y-108039819D02*
X166897255Y-108420771D01*
X166897255Y-108420771D02*
X167040112Y-108420771D01*
X167040112Y-108420771D02*
X167135350Y-108468390D01*
X167135350Y-108468390D02*
X167182969Y-108516009D01*
X167182969Y-108516009D02*
X167230588Y-108611247D01*
X167230588Y-108611247D02*
X167230588Y-108849342D01*
X167230588Y-108849342D02*
X167182969Y-108944580D01*
X167182969Y-108944580D02*
X167135350Y-108992200D01*
X167135350Y-108992200D02*
X167040112Y-109039819D01*
X167040112Y-109039819D02*
X166754398Y-109039819D01*
X166754398Y-109039819D02*
X166659160Y-108992200D01*
X166659160Y-108992200D02*
X166611541Y-108944580D01*
X141307761Y-117692557D02*
X141212523Y-117644938D01*
X141212523Y-117644938D02*
X141117285Y-117549700D01*
X141117285Y-117549700D02*
X140974428Y-117406842D01*
X140974428Y-117406842D02*
X140879190Y-117359223D01*
X140879190Y-117359223D02*
X140783952Y-117359223D01*
X140831571Y-117597319D02*
X140736333Y-117549700D01*
X140736333Y-117549700D02*
X140641095Y-117454461D01*
X140641095Y-117454461D02*
X140593476Y-117263985D01*
X140593476Y-117263985D02*
X140593476Y-116930652D01*
X140593476Y-116930652D02*
X140641095Y-116740176D01*
X140641095Y-116740176D02*
X140736333Y-116644938D01*
X140736333Y-116644938D02*
X140831571Y-116597319D01*
X140831571Y-116597319D02*
X141022047Y-116597319D01*
X141022047Y-116597319D02*
X141117285Y-116644938D01*
X141117285Y-116644938D02*
X141212523Y-116740176D01*
X141212523Y-116740176D02*
X141260142Y-116930652D01*
X141260142Y-116930652D02*
X141260142Y-117263985D01*
X141260142Y-117263985D02*
X141212523Y-117454461D01*
X141212523Y-117454461D02*
X141117285Y-117549700D01*
X141117285Y-117549700D02*
X141022047Y-117597319D01*
X141022047Y-117597319D02*
X140831571Y-117597319D01*
X141641095Y-116692557D02*
X141688714Y-116644938D01*
X141688714Y-116644938D02*
X141783952Y-116597319D01*
X141783952Y-116597319D02*
X142022047Y-116597319D01*
X142022047Y-116597319D02*
X142117285Y-116644938D01*
X142117285Y-116644938D02*
X142164904Y-116692557D01*
X142164904Y-116692557D02*
X142212523Y-116787795D01*
X142212523Y-116787795D02*
X142212523Y-116883033D01*
X142212523Y-116883033D02*
X142164904Y-117025890D01*
X142164904Y-117025890D02*
X141593476Y-117597319D01*
X141593476Y-117597319D02*
X142212523Y-117597319D01*
X106259334Y-118723580D02*
X106211715Y-118771200D01*
X106211715Y-118771200D02*
X106068858Y-118818819D01*
X106068858Y-118818819D02*
X105973620Y-118818819D01*
X105973620Y-118818819D02*
X105830763Y-118771200D01*
X105830763Y-118771200D02*
X105735525Y-118675961D01*
X105735525Y-118675961D02*
X105687906Y-118580723D01*
X105687906Y-118580723D02*
X105640287Y-118390247D01*
X105640287Y-118390247D02*
X105640287Y-118247390D01*
X105640287Y-118247390D02*
X105687906Y-118056914D01*
X105687906Y-118056914D02*
X105735525Y-117961676D01*
X105735525Y-117961676D02*
X105830763Y-117866438D01*
X105830763Y-117866438D02*
X105973620Y-117818819D01*
X105973620Y-117818819D02*
X106068858Y-117818819D01*
X106068858Y-117818819D02*
X106211715Y-117866438D01*
X106211715Y-117866438D02*
X106259334Y-117914057D01*
X106640287Y-117914057D02*
X106687906Y-117866438D01*
X106687906Y-117866438D02*
X106783144Y-117818819D01*
X106783144Y-117818819D02*
X107021239Y-117818819D01*
X107021239Y-117818819D02*
X107116477Y-117866438D01*
X107116477Y-117866438D02*
X107164096Y-117914057D01*
X107164096Y-117914057D02*
X107211715Y-118009295D01*
X107211715Y-118009295D02*
X107211715Y-118104533D01*
X107211715Y-118104533D02*
X107164096Y-118247390D01*
X107164096Y-118247390D02*
X106592668Y-118818819D01*
X106592668Y-118818819D02*
X107211715Y-118818819D01*
X165276305Y-123644819D02*
X165276305Y-122644819D01*
X165276305Y-122644819D02*
X165514400Y-122644819D01*
X165514400Y-122644819D02*
X165657257Y-122692438D01*
X165657257Y-122692438D02*
X165752495Y-122787676D01*
X165752495Y-122787676D02*
X165800114Y-122882914D01*
X165800114Y-122882914D02*
X165847733Y-123073390D01*
X165847733Y-123073390D02*
X165847733Y-123216247D01*
X165847733Y-123216247D02*
X165800114Y-123406723D01*
X165800114Y-123406723D02*
X165752495Y-123501961D01*
X165752495Y-123501961D02*
X165657257Y-123597200D01*
X165657257Y-123597200D02*
X165514400Y-123644819D01*
X165514400Y-123644819D02*
X165276305Y-123644819D01*
X166181067Y-122644819D02*
X166800114Y-122644819D01*
X166800114Y-122644819D02*
X166466781Y-123025771D01*
X166466781Y-123025771D02*
X166609638Y-123025771D01*
X166609638Y-123025771D02*
X166704876Y-123073390D01*
X166704876Y-123073390D02*
X166752495Y-123121009D01*
X166752495Y-123121009D02*
X166800114Y-123216247D01*
X166800114Y-123216247D02*
X166800114Y-123454342D01*
X166800114Y-123454342D02*
X166752495Y-123549580D01*
X166752495Y-123549580D02*
X166704876Y-123597200D01*
X166704876Y-123597200D02*
X166609638Y-123644819D01*
X166609638Y-123644819D02*
X166323924Y-123644819D01*
X166323924Y-123644819D02*
X166228686Y-123597200D01*
X166228686Y-123597200D02*
X166181067Y-123549580D01*
X107783333Y-90624819D02*
X107450000Y-90148628D01*
X107211905Y-90624819D02*
X107211905Y-89624819D01*
X107211905Y-89624819D02*
X107592857Y-89624819D01*
X107592857Y-89624819D02*
X107688095Y-89672438D01*
X107688095Y-89672438D02*
X107735714Y-89720057D01*
X107735714Y-89720057D02*
X107783333Y-89815295D01*
X107783333Y-89815295D02*
X107783333Y-89958152D01*
X107783333Y-89958152D02*
X107735714Y-90053390D01*
X107735714Y-90053390D02*
X107688095Y-90101009D01*
X107688095Y-90101009D02*
X107592857Y-90148628D01*
X107592857Y-90148628D02*
X107211905Y-90148628D01*
X108640476Y-89624819D02*
X108450000Y-89624819D01*
X108450000Y-89624819D02*
X108354762Y-89672438D01*
X108354762Y-89672438D02*
X108307143Y-89720057D01*
X108307143Y-89720057D02*
X108211905Y-89862914D01*
X108211905Y-89862914D02*
X108164286Y-90053390D01*
X108164286Y-90053390D02*
X108164286Y-90434342D01*
X108164286Y-90434342D02*
X108211905Y-90529580D01*
X108211905Y-90529580D02*
X108259524Y-90577200D01*
X108259524Y-90577200D02*
X108354762Y-90624819D01*
X108354762Y-90624819D02*
X108545238Y-90624819D01*
X108545238Y-90624819D02*
X108640476Y-90577200D01*
X108640476Y-90577200D02*
X108688095Y-90529580D01*
X108688095Y-90529580D02*
X108735714Y-90434342D01*
X108735714Y-90434342D02*
X108735714Y-90196247D01*
X108735714Y-90196247D02*
X108688095Y-90101009D01*
X108688095Y-90101009D02*
X108640476Y-90053390D01*
X108640476Y-90053390D02*
X108545238Y-90005771D01*
X108545238Y-90005771D02*
X108354762Y-90005771D01*
X108354762Y-90005771D02*
X108259524Y-90053390D01*
X108259524Y-90053390D02*
X108211905Y-90101009D01*
X108211905Y-90101009D02*
X108164286Y-90196247D01*
D14*
X153653333Y-61368795D02*
X153653333Y-61940223D01*
X153653333Y-61940223D02*
X153615238Y-62054509D01*
X153615238Y-62054509D02*
X153539047Y-62130700D01*
X153539047Y-62130700D02*
X153424762Y-62168795D01*
X153424762Y-62168795D02*
X153348571Y-62168795D01*
X153958095Y-61368795D02*
X154453333Y-61368795D01*
X154453333Y-61368795D02*
X154186667Y-61673557D01*
X154186667Y-61673557D02*
X154300952Y-61673557D01*
X154300952Y-61673557D02*
X154377143Y-61711652D01*
X154377143Y-61711652D02*
X154415238Y-61749747D01*
X154415238Y-61749747D02*
X154453333Y-61825938D01*
X154453333Y-61825938D02*
X154453333Y-62016414D01*
X154453333Y-62016414D02*
X154415238Y-62092604D01*
X154415238Y-62092604D02*
X154377143Y-62130700D01*
X154377143Y-62130700D02*
X154300952Y-62168795D01*
X154300952Y-62168795D02*
X154072381Y-62168795D01*
X154072381Y-62168795D02*
X153996190Y-62130700D01*
X153996190Y-62130700D02*
X153958095Y-62092604D01*
D10*
X169910713Y-61638328D02*
X169910713Y-60138328D01*
X169910713Y-60138328D02*
X170482142Y-60138328D01*
X170482142Y-60138328D02*
X170624999Y-60209757D01*
X170624999Y-60209757D02*
X170696428Y-60281185D01*
X170696428Y-60281185D02*
X170767856Y-60424042D01*
X170767856Y-60424042D02*
X170767856Y-60638328D01*
X170767856Y-60638328D02*
X170696428Y-60781185D01*
X170696428Y-60781185D02*
X170624999Y-60852614D01*
X170624999Y-60852614D02*
X170482142Y-60924042D01*
X170482142Y-60924042D02*
X169910713Y-60924042D01*
X171267856Y-60138328D02*
X171624999Y-61638328D01*
X171624999Y-61638328D02*
X171910713Y-60566900D01*
X171910713Y-60566900D02*
X172196428Y-61638328D01*
X172196428Y-61638328D02*
X172553571Y-60138328D01*
X173982142Y-61638328D02*
X173482142Y-60924042D01*
X173124999Y-61638328D02*
X173124999Y-60138328D01*
X173124999Y-60138328D02*
X173696428Y-60138328D01*
X173696428Y-60138328D02*
X173839285Y-60209757D01*
X173839285Y-60209757D02*
X173910714Y-60281185D01*
X173910714Y-60281185D02*
X173982142Y-60424042D01*
X173982142Y-60424042D02*
X173982142Y-60638328D01*
X173982142Y-60638328D02*
X173910714Y-60781185D01*
X173910714Y-60781185D02*
X173839285Y-60852614D01*
X173839285Y-60852614D02*
X173696428Y-60924042D01*
X173696428Y-60924042D02*
X173124999Y-60924042D01*
X176053571Y-60138328D02*
X176339285Y-60138328D01*
X176339285Y-60138328D02*
X176482142Y-60209757D01*
X176482142Y-60209757D02*
X176624999Y-60352614D01*
X176624999Y-60352614D02*
X176696428Y-60638328D01*
X176696428Y-60638328D02*
X176696428Y-61138328D01*
X176696428Y-61138328D02*
X176624999Y-61424042D01*
X176624999Y-61424042D02*
X176482142Y-61566900D01*
X176482142Y-61566900D02*
X176339285Y-61638328D01*
X176339285Y-61638328D02*
X176053571Y-61638328D01*
X176053571Y-61638328D02*
X175910714Y-61566900D01*
X175910714Y-61566900D02*
X175767856Y-61424042D01*
X175767856Y-61424042D02*
X175696428Y-61138328D01*
X175696428Y-61138328D02*
X175696428Y-60638328D01*
X175696428Y-60638328D02*
X175767856Y-60352614D01*
X175767856Y-60352614D02*
X175910714Y-60209757D01*
X175910714Y-60209757D02*
X176053571Y-60138328D01*
X177339285Y-60138328D02*
X177339285Y-61352614D01*
X177339285Y-61352614D02*
X177410714Y-61495471D01*
X177410714Y-61495471D02*
X177482143Y-61566900D01*
X177482143Y-61566900D02*
X177625000Y-61638328D01*
X177625000Y-61638328D02*
X177910714Y-61638328D01*
X177910714Y-61638328D02*
X178053571Y-61566900D01*
X178053571Y-61566900D02*
X178125000Y-61495471D01*
X178125000Y-61495471D02*
X178196428Y-61352614D01*
X178196428Y-61352614D02*
X178196428Y-60138328D01*
X178696429Y-60138328D02*
X179553572Y-60138328D01*
X179125000Y-61638328D02*
X179125000Y-60138328D01*
D11*
X111593334Y-118723580D02*
X111545715Y-118771200D01*
X111545715Y-118771200D02*
X111402858Y-118818819D01*
X111402858Y-118818819D02*
X111307620Y-118818819D01*
X111307620Y-118818819D02*
X111164763Y-118771200D01*
X111164763Y-118771200D02*
X111069525Y-118675961D01*
X111069525Y-118675961D02*
X111021906Y-118580723D01*
X111021906Y-118580723D02*
X110974287Y-118390247D01*
X110974287Y-118390247D02*
X110974287Y-118247390D01*
X110974287Y-118247390D02*
X111021906Y-118056914D01*
X111021906Y-118056914D02*
X111069525Y-117961676D01*
X111069525Y-117961676D02*
X111164763Y-117866438D01*
X111164763Y-117866438D02*
X111307620Y-117818819D01*
X111307620Y-117818819D02*
X111402858Y-117818819D01*
X111402858Y-117818819D02*
X111545715Y-117866438D01*
X111545715Y-117866438D02*
X111593334Y-117914057D01*
X111926668Y-117818819D02*
X112545715Y-117818819D01*
X112545715Y-117818819D02*
X112212382Y-118199771D01*
X112212382Y-118199771D02*
X112355239Y-118199771D01*
X112355239Y-118199771D02*
X112450477Y-118247390D01*
X112450477Y-118247390D02*
X112498096Y-118295009D01*
X112498096Y-118295009D02*
X112545715Y-118390247D01*
X112545715Y-118390247D02*
X112545715Y-118628342D01*
X112545715Y-118628342D02*
X112498096Y-118723580D01*
X112498096Y-118723580D02*
X112450477Y-118771200D01*
X112450477Y-118771200D02*
X112355239Y-118818819D01*
X112355239Y-118818819D02*
X112069525Y-118818819D01*
X112069525Y-118818819D02*
X111974287Y-118771200D01*
X111974287Y-118771200D02*
X111926668Y-118723580D01*
X169074255Y-112849819D02*
X169074255Y-111849819D01*
X169074255Y-111849819D02*
X169312350Y-111849819D01*
X169312350Y-111849819D02*
X169455207Y-111897438D01*
X169455207Y-111897438D02*
X169550445Y-111992676D01*
X169550445Y-111992676D02*
X169598064Y-112087914D01*
X169598064Y-112087914D02*
X169645683Y-112278390D01*
X169645683Y-112278390D02*
X169645683Y-112421247D01*
X169645683Y-112421247D02*
X169598064Y-112611723D01*
X169598064Y-112611723D02*
X169550445Y-112706961D01*
X169550445Y-112706961D02*
X169455207Y-112802200D01*
X169455207Y-112802200D02*
X169312350Y-112849819D01*
X169312350Y-112849819D02*
X169074255Y-112849819D01*
X170217112Y-112278390D02*
X170121874Y-112230771D01*
X170121874Y-112230771D02*
X170074255Y-112183152D01*
X170074255Y-112183152D02*
X170026636Y-112087914D01*
X170026636Y-112087914D02*
X170026636Y-112040295D01*
X170026636Y-112040295D02*
X170074255Y-111945057D01*
X170074255Y-111945057D02*
X170121874Y-111897438D01*
X170121874Y-111897438D02*
X170217112Y-111849819D01*
X170217112Y-111849819D02*
X170407588Y-111849819D01*
X170407588Y-111849819D02*
X170502826Y-111897438D01*
X170502826Y-111897438D02*
X170550445Y-111945057D01*
X170550445Y-111945057D02*
X170598064Y-112040295D01*
X170598064Y-112040295D02*
X170598064Y-112087914D01*
X170598064Y-112087914D02*
X170550445Y-112183152D01*
X170550445Y-112183152D02*
X170502826Y-112230771D01*
X170502826Y-112230771D02*
X170407588Y-112278390D01*
X170407588Y-112278390D02*
X170217112Y-112278390D01*
X170217112Y-112278390D02*
X170121874Y-112326009D01*
X170121874Y-112326009D02*
X170074255Y-112373628D01*
X170074255Y-112373628D02*
X170026636Y-112468866D01*
X170026636Y-112468866D02*
X170026636Y-112659342D01*
X170026636Y-112659342D02*
X170074255Y-112754580D01*
X170074255Y-112754580D02*
X170121874Y-112802200D01*
X170121874Y-112802200D02*
X170217112Y-112849819D01*
X170217112Y-112849819D02*
X170407588Y-112849819D01*
X170407588Y-112849819D02*
X170502826Y-112802200D01*
X170502826Y-112802200D02*
X170550445Y-112754580D01*
X170550445Y-112754580D02*
X170598064Y-112659342D01*
X170598064Y-112659342D02*
X170598064Y-112468866D01*
X170598064Y-112468866D02*
X170550445Y-112373628D01*
X170550445Y-112373628D02*
X170502826Y-112326009D01*
X170502826Y-112326009D02*
X170407588Y-112278390D01*
X164974492Y-115621128D02*
X164974492Y-114121128D01*
X165831635Y-115621128D02*
X165188778Y-114763985D01*
X165831635Y-114121128D02*
X164974492Y-114978271D01*
X152903095Y-114814819D02*
X152903095Y-115624342D01*
X152903095Y-115624342D02*
X152950714Y-115719580D01*
X152950714Y-115719580D02*
X152998333Y-115767200D01*
X152998333Y-115767200D02*
X153093571Y-115814819D01*
X153093571Y-115814819D02*
X153284047Y-115814819D01*
X153284047Y-115814819D02*
X153379285Y-115767200D01*
X153379285Y-115767200D02*
X153426904Y-115719580D01*
X153426904Y-115719580D02*
X153474523Y-115624342D01*
X153474523Y-115624342D02*
X153474523Y-114814819D01*
X154474523Y-115814819D02*
X153903095Y-115814819D01*
X154188809Y-115814819D02*
X154188809Y-114814819D01*
X154188809Y-114814819D02*
X154093571Y-114957676D01*
X154093571Y-114957676D02*
X153998333Y-115052914D01*
X153998333Y-115052914D02*
X153903095Y-115100533D01*
X139923333Y-133296819D02*
X139590000Y-132820628D01*
X139351905Y-133296819D02*
X139351905Y-132296819D01*
X139351905Y-132296819D02*
X139732857Y-132296819D01*
X139732857Y-132296819D02*
X139828095Y-132344438D01*
X139828095Y-132344438D02*
X139875714Y-132392057D01*
X139875714Y-132392057D02*
X139923333Y-132487295D01*
X139923333Y-132487295D02*
X139923333Y-132630152D01*
X139923333Y-132630152D02*
X139875714Y-132725390D01*
X139875714Y-132725390D02*
X139828095Y-132773009D01*
X139828095Y-132773009D02*
X139732857Y-132820628D01*
X139732857Y-132820628D02*
X139351905Y-132820628D01*
X140399524Y-133296819D02*
X140590000Y-133296819D01*
X140590000Y-133296819D02*
X140685238Y-133249200D01*
X140685238Y-133249200D02*
X140732857Y-133201580D01*
X140732857Y-133201580D02*
X140828095Y-133058723D01*
X140828095Y-133058723D02*
X140875714Y-132868247D01*
X140875714Y-132868247D02*
X140875714Y-132487295D01*
X140875714Y-132487295D02*
X140828095Y-132392057D01*
X140828095Y-132392057D02*
X140780476Y-132344438D01*
X140780476Y-132344438D02*
X140685238Y-132296819D01*
X140685238Y-132296819D02*
X140494762Y-132296819D01*
X140494762Y-132296819D02*
X140399524Y-132344438D01*
X140399524Y-132344438D02*
X140351905Y-132392057D01*
X140351905Y-132392057D02*
X140304286Y-132487295D01*
X140304286Y-132487295D02*
X140304286Y-132725390D01*
X140304286Y-132725390D02*
X140351905Y-132820628D01*
X140351905Y-132820628D02*
X140399524Y-132868247D01*
X140399524Y-132868247D02*
X140494762Y-132915866D01*
X140494762Y-132915866D02*
X140685238Y-132915866D01*
X140685238Y-132915866D02*
X140780476Y-132868247D01*
X140780476Y-132868247D02*
X140828095Y-132820628D01*
X140828095Y-132820628D02*
X140875714Y-132725390D01*
X127076295Y-107557219D02*
X127076295Y-108366742D01*
X127076295Y-108366742D02*
X127123914Y-108461980D01*
X127123914Y-108461980D02*
X127171533Y-108509600D01*
X127171533Y-108509600D02*
X127266771Y-108557219D01*
X127266771Y-108557219D02*
X127457247Y-108557219D01*
X127457247Y-108557219D02*
X127552485Y-108509600D01*
X127552485Y-108509600D02*
X127600104Y-108461980D01*
X127600104Y-108461980D02*
X127647723Y-108366742D01*
X127647723Y-108366742D02*
X127647723Y-107557219D01*
X128600104Y-107557219D02*
X128123914Y-107557219D01*
X128123914Y-107557219D02*
X128076295Y-108033409D01*
X128076295Y-108033409D02*
X128123914Y-107985790D01*
X128123914Y-107985790D02*
X128219152Y-107938171D01*
X128219152Y-107938171D02*
X128457247Y-107938171D01*
X128457247Y-107938171D02*
X128552485Y-107985790D01*
X128552485Y-107985790D02*
X128600104Y-108033409D01*
X128600104Y-108033409D02*
X128647723Y-108128647D01*
X128647723Y-108128647D02*
X128647723Y-108366742D01*
X128647723Y-108366742D02*
X128600104Y-108461980D01*
X128600104Y-108461980D02*
X128552485Y-108509600D01*
X128552485Y-108509600D02*
X128457247Y-108557219D01*
X128457247Y-108557219D02*
X128219152Y-108557219D01*
X128219152Y-108557219D02*
X128123914Y-108509600D01*
X128123914Y-108509600D02*
X128076295Y-108461980D01*
X166224077Y-106499819D02*
X165890744Y-106023628D01*
X165652649Y-106499819D02*
X165652649Y-105499819D01*
X165652649Y-105499819D02*
X166033601Y-105499819D01*
X166033601Y-105499819D02*
X166128839Y-105547438D01*
X166128839Y-105547438D02*
X166176458Y-105595057D01*
X166176458Y-105595057D02*
X166224077Y-105690295D01*
X166224077Y-105690295D02*
X166224077Y-105833152D01*
X166224077Y-105833152D02*
X166176458Y-105928390D01*
X166176458Y-105928390D02*
X166128839Y-105976009D01*
X166128839Y-105976009D02*
X166033601Y-106023628D01*
X166033601Y-106023628D02*
X165652649Y-106023628D01*
X167176458Y-106499819D02*
X166605030Y-106499819D01*
X166890744Y-106499819D02*
X166890744Y-105499819D01*
X166890744Y-105499819D02*
X166795506Y-105642676D01*
X166795506Y-105642676D02*
X166700268Y-105737914D01*
X166700268Y-105737914D02*
X166605030Y-105785533D01*
X167509792Y-105499819D02*
X168128839Y-105499819D01*
X168128839Y-105499819D02*
X167795506Y-105880771D01*
X167795506Y-105880771D02*
X167938363Y-105880771D01*
X167938363Y-105880771D02*
X168033601Y-105928390D01*
X168033601Y-105928390D02*
X168081220Y-105976009D01*
X168081220Y-105976009D02*
X168128839Y-106071247D01*
X168128839Y-106071247D02*
X168128839Y-106309342D01*
X168128839Y-106309342D02*
X168081220Y-106404580D01*
X168081220Y-106404580D02*
X168033601Y-106452200D01*
X168033601Y-106452200D02*
X167938363Y-106499819D01*
X167938363Y-106499819D02*
X167652649Y-106499819D01*
X167652649Y-106499819D02*
X167557411Y-106452200D01*
X167557411Y-106452200D02*
X167509792Y-106404580D01*
X149129761Y-96435057D02*
X149034523Y-96387438D01*
X149034523Y-96387438D02*
X148939285Y-96292200D01*
X148939285Y-96292200D02*
X148796428Y-96149342D01*
X148796428Y-96149342D02*
X148701190Y-96101723D01*
X148701190Y-96101723D02*
X148605952Y-96101723D01*
X148653571Y-96339819D02*
X148558333Y-96292200D01*
X148558333Y-96292200D02*
X148463095Y-96196961D01*
X148463095Y-96196961D02*
X148415476Y-96006485D01*
X148415476Y-96006485D02*
X148415476Y-95673152D01*
X148415476Y-95673152D02*
X148463095Y-95482676D01*
X148463095Y-95482676D02*
X148558333Y-95387438D01*
X148558333Y-95387438D02*
X148653571Y-95339819D01*
X148653571Y-95339819D02*
X148844047Y-95339819D01*
X148844047Y-95339819D02*
X148939285Y-95387438D01*
X148939285Y-95387438D02*
X149034523Y-95482676D01*
X149034523Y-95482676D02*
X149082142Y-95673152D01*
X149082142Y-95673152D02*
X149082142Y-96006485D01*
X149082142Y-96006485D02*
X149034523Y-96196961D01*
X149034523Y-96196961D02*
X148939285Y-96292200D01*
X148939285Y-96292200D02*
X148844047Y-96339819D01*
X148844047Y-96339819D02*
X148653571Y-96339819D01*
X149415476Y-95339819D02*
X150034523Y-95339819D01*
X150034523Y-95339819D02*
X149701190Y-95720771D01*
X149701190Y-95720771D02*
X149844047Y-95720771D01*
X149844047Y-95720771D02*
X149939285Y-95768390D01*
X149939285Y-95768390D02*
X149986904Y-95816009D01*
X149986904Y-95816009D02*
X150034523Y-95911247D01*
X150034523Y-95911247D02*
X150034523Y-96149342D01*
X150034523Y-96149342D02*
X149986904Y-96244580D01*
X149986904Y-96244580D02*
X149939285Y-96292200D01*
X149939285Y-96292200D02*
X149844047Y-96339819D01*
X149844047Y-96339819D02*
X149558333Y-96339819D01*
X149558333Y-96339819D02*
X149463095Y-96292200D01*
X149463095Y-96292200D02*
X149415476Y-96244580D01*
X166278207Y-111579819D02*
X165944874Y-111103628D01*
X165706779Y-111579819D02*
X165706779Y-110579819D01*
X165706779Y-110579819D02*
X166087731Y-110579819D01*
X166087731Y-110579819D02*
X166182969Y-110627438D01*
X166182969Y-110627438D02*
X166230588Y-110675057D01*
X166230588Y-110675057D02*
X166278207Y-110770295D01*
X166278207Y-110770295D02*
X166278207Y-110913152D01*
X166278207Y-110913152D02*
X166230588Y-111008390D01*
X166230588Y-111008390D02*
X166182969Y-111056009D01*
X166182969Y-111056009D02*
X166087731Y-111103628D01*
X166087731Y-111103628D02*
X165706779Y-111103628D01*
X166659160Y-110675057D02*
X166706779Y-110627438D01*
X166706779Y-110627438D02*
X166802017Y-110579819D01*
X166802017Y-110579819D02*
X167040112Y-110579819D01*
X167040112Y-110579819D02*
X167135350Y-110627438D01*
X167135350Y-110627438D02*
X167182969Y-110675057D01*
X167182969Y-110675057D02*
X167230588Y-110770295D01*
X167230588Y-110770295D02*
X167230588Y-110865533D01*
X167230588Y-110865533D02*
X167182969Y-111008390D01*
X167182969Y-111008390D02*
X166611541Y-111579819D01*
X166611541Y-111579819D02*
X167230588Y-111579819D01*
X128103333Y-117199580D02*
X128055714Y-117247200D01*
X128055714Y-117247200D02*
X127912857Y-117294819D01*
X127912857Y-117294819D02*
X127817619Y-117294819D01*
X127817619Y-117294819D02*
X127674762Y-117247200D01*
X127674762Y-117247200D02*
X127579524Y-117151961D01*
X127579524Y-117151961D02*
X127531905Y-117056723D01*
X127531905Y-117056723D02*
X127484286Y-116866247D01*
X127484286Y-116866247D02*
X127484286Y-116723390D01*
X127484286Y-116723390D02*
X127531905Y-116532914D01*
X127531905Y-116532914D02*
X127579524Y-116437676D01*
X127579524Y-116437676D02*
X127674762Y-116342438D01*
X127674762Y-116342438D02*
X127817619Y-116294819D01*
X127817619Y-116294819D02*
X127912857Y-116294819D01*
X127912857Y-116294819D02*
X128055714Y-116342438D01*
X128055714Y-116342438D02*
X128103333Y-116390057D01*
X129055714Y-117294819D02*
X128484286Y-117294819D01*
X128770000Y-117294819D02*
X128770000Y-116294819D01*
X128770000Y-116294819D02*
X128674762Y-116437676D01*
X128674762Y-116437676D02*
X128579524Y-116532914D01*
X128579524Y-116532914D02*
X128484286Y-116580533D01*
X135723333Y-80464819D02*
X135390000Y-79988628D01*
X135151905Y-80464819D02*
X135151905Y-79464819D01*
X135151905Y-79464819D02*
X135532857Y-79464819D01*
X135532857Y-79464819D02*
X135628095Y-79512438D01*
X135628095Y-79512438D02*
X135675714Y-79560057D01*
X135675714Y-79560057D02*
X135723333Y-79655295D01*
X135723333Y-79655295D02*
X135723333Y-79798152D01*
X135723333Y-79798152D02*
X135675714Y-79893390D01*
X135675714Y-79893390D02*
X135628095Y-79941009D01*
X135628095Y-79941009D02*
X135532857Y-79988628D01*
X135532857Y-79988628D02*
X135151905Y-79988628D01*
X136294762Y-79893390D02*
X136199524Y-79845771D01*
X136199524Y-79845771D02*
X136151905Y-79798152D01*
X136151905Y-79798152D02*
X136104286Y-79702914D01*
X136104286Y-79702914D02*
X136104286Y-79655295D01*
X136104286Y-79655295D02*
X136151905Y-79560057D01*
X136151905Y-79560057D02*
X136199524Y-79512438D01*
X136199524Y-79512438D02*
X136294762Y-79464819D01*
X136294762Y-79464819D02*
X136485238Y-79464819D01*
X136485238Y-79464819D02*
X136580476Y-79512438D01*
X136580476Y-79512438D02*
X136628095Y-79560057D01*
X136628095Y-79560057D02*
X136675714Y-79655295D01*
X136675714Y-79655295D02*
X136675714Y-79702914D01*
X136675714Y-79702914D02*
X136628095Y-79798152D01*
X136628095Y-79798152D02*
X136580476Y-79845771D01*
X136580476Y-79845771D02*
X136485238Y-79893390D01*
X136485238Y-79893390D02*
X136294762Y-79893390D01*
X136294762Y-79893390D02*
X136199524Y-79941009D01*
X136199524Y-79941009D02*
X136151905Y-79988628D01*
X136151905Y-79988628D02*
X136104286Y-80083866D01*
X136104286Y-80083866D02*
X136104286Y-80274342D01*
X136104286Y-80274342D02*
X136151905Y-80369580D01*
X136151905Y-80369580D02*
X136199524Y-80417200D01*
X136199524Y-80417200D02*
X136294762Y-80464819D01*
X136294762Y-80464819D02*
X136485238Y-80464819D01*
X136485238Y-80464819D02*
X136580476Y-80417200D01*
X136580476Y-80417200D02*
X136628095Y-80369580D01*
X136628095Y-80369580D02*
X136675714Y-80274342D01*
X136675714Y-80274342D02*
X136675714Y-80083866D01*
X136675714Y-80083866D02*
X136628095Y-79988628D01*
X136628095Y-79988628D02*
X136580476Y-79941009D01*
X136580476Y-79941009D02*
X136485238Y-79893390D01*
X166335077Y-103959819D02*
X166001744Y-103483628D01*
X165763649Y-103959819D02*
X165763649Y-102959819D01*
X165763649Y-102959819D02*
X166144601Y-102959819D01*
X166144601Y-102959819D02*
X166239839Y-103007438D01*
X166239839Y-103007438D02*
X166287458Y-103055057D01*
X166287458Y-103055057D02*
X166335077Y-103150295D01*
X166335077Y-103150295D02*
X166335077Y-103293152D01*
X166335077Y-103293152D02*
X166287458Y-103388390D01*
X166287458Y-103388390D02*
X166239839Y-103436009D01*
X166239839Y-103436009D02*
X166144601Y-103483628D01*
X166144601Y-103483628D02*
X165763649Y-103483628D01*
X167287458Y-103959819D02*
X166716030Y-103959819D01*
X167001744Y-103959819D02*
X167001744Y-102959819D01*
X167001744Y-102959819D02*
X166906506Y-103102676D01*
X166906506Y-103102676D02*
X166811268Y-103197914D01*
X166811268Y-103197914D02*
X166716030Y-103245533D01*
X167906506Y-102959819D02*
X168001744Y-102959819D01*
X168001744Y-102959819D02*
X168096982Y-103007438D01*
X168096982Y-103007438D02*
X168144601Y-103055057D01*
X168144601Y-103055057D02*
X168192220Y-103150295D01*
X168192220Y-103150295D02*
X168239839Y-103340771D01*
X168239839Y-103340771D02*
X168239839Y-103578866D01*
X168239839Y-103578866D02*
X168192220Y-103769342D01*
X168192220Y-103769342D02*
X168144601Y-103864580D01*
X168144601Y-103864580D02*
X168096982Y-103912200D01*
X168096982Y-103912200D02*
X168001744Y-103959819D01*
X168001744Y-103959819D02*
X167906506Y-103959819D01*
X167906506Y-103959819D02*
X167811268Y-103912200D01*
X167811268Y-103912200D02*
X167763649Y-103864580D01*
X167763649Y-103864580D02*
X167716030Y-103769342D01*
X167716030Y-103769342D02*
X167668411Y-103578866D01*
X167668411Y-103578866D02*
X167668411Y-103340771D01*
X167668411Y-103340771D02*
X167716030Y-103150295D01*
X167716030Y-103150295D02*
X167763649Y-103055057D01*
X167763649Y-103055057D02*
X167811268Y-103007438D01*
X167811268Y-103007438D02*
X167906506Y-102959819D01*
X155408333Y-121568380D02*
X155360714Y-121616000D01*
X155360714Y-121616000D02*
X155217857Y-121663619D01*
X155217857Y-121663619D02*
X155122619Y-121663619D01*
X155122619Y-121663619D02*
X154979762Y-121616000D01*
X154979762Y-121616000D02*
X154884524Y-121520761D01*
X154884524Y-121520761D02*
X154836905Y-121425523D01*
X154836905Y-121425523D02*
X154789286Y-121235047D01*
X154789286Y-121235047D02*
X154789286Y-121092190D01*
X154789286Y-121092190D02*
X154836905Y-120901714D01*
X154836905Y-120901714D02*
X154884524Y-120806476D01*
X154884524Y-120806476D02*
X154979762Y-120711238D01*
X154979762Y-120711238D02*
X155122619Y-120663619D01*
X155122619Y-120663619D02*
X155217857Y-120663619D01*
X155217857Y-120663619D02*
X155360714Y-120711238D01*
X155360714Y-120711238D02*
X155408333Y-120758857D01*
X155741667Y-120663619D02*
X156408333Y-120663619D01*
X156408333Y-120663619D02*
X155979762Y-121663619D01*
X124761666Y-68669819D02*
X124761666Y-69384104D01*
X124761666Y-69384104D02*
X124714047Y-69526961D01*
X124714047Y-69526961D02*
X124618809Y-69622200D01*
X124618809Y-69622200D02*
X124475952Y-69669819D01*
X124475952Y-69669819D02*
X124380714Y-69669819D01*
X125761666Y-69669819D02*
X125190238Y-69669819D01*
X125475952Y-69669819D02*
X125475952Y-68669819D01*
X125475952Y-68669819D02*
X125380714Y-68812676D01*
X125380714Y-68812676D02*
X125285476Y-68907914D01*
X125285476Y-68907914D02*
X125190238Y-68955533D01*
X116967095Y-85179819D02*
X116967095Y-85989342D01*
X116967095Y-85989342D02*
X117014714Y-86084580D01*
X117014714Y-86084580D02*
X117062333Y-86132200D01*
X117062333Y-86132200D02*
X117157571Y-86179819D01*
X117157571Y-86179819D02*
X117348047Y-86179819D01*
X117348047Y-86179819D02*
X117443285Y-86132200D01*
X117443285Y-86132200D02*
X117490904Y-86084580D01*
X117490904Y-86084580D02*
X117538523Y-85989342D01*
X117538523Y-85989342D02*
X117538523Y-85179819D01*
X117967095Y-85275057D02*
X118014714Y-85227438D01*
X118014714Y-85227438D02*
X118109952Y-85179819D01*
X118109952Y-85179819D02*
X118348047Y-85179819D01*
X118348047Y-85179819D02*
X118443285Y-85227438D01*
X118443285Y-85227438D02*
X118490904Y-85275057D01*
X118490904Y-85275057D02*
X118538523Y-85370295D01*
X118538523Y-85370295D02*
X118538523Y-85465533D01*
X118538523Y-85465533D02*
X118490904Y-85608390D01*
X118490904Y-85608390D02*
X117919476Y-86179819D01*
X117919476Y-86179819D02*
X118538523Y-86179819D01*
X166254133Y-128674019D02*
X165777943Y-128674019D01*
X165777943Y-128674019D02*
X165777943Y-127674019D01*
X166539848Y-127769257D02*
X166587467Y-127721638D01*
X166587467Y-127721638D02*
X166682705Y-127674019D01*
X166682705Y-127674019D02*
X166920800Y-127674019D01*
X166920800Y-127674019D02*
X167016038Y-127721638D01*
X167016038Y-127721638D02*
X167063657Y-127769257D01*
X167063657Y-127769257D02*
X167111276Y-127864495D01*
X167111276Y-127864495D02*
X167111276Y-127959733D01*
X167111276Y-127959733D02*
X167063657Y-128102590D01*
X167063657Y-128102590D02*
X166492229Y-128674019D01*
X166492229Y-128674019D02*
X167111276Y-128674019D01*
X102703334Y-118723580D02*
X102655715Y-118771200D01*
X102655715Y-118771200D02*
X102512858Y-118818819D01*
X102512858Y-118818819D02*
X102417620Y-118818819D01*
X102417620Y-118818819D02*
X102274763Y-118771200D01*
X102274763Y-118771200D02*
X102179525Y-118675961D01*
X102179525Y-118675961D02*
X102131906Y-118580723D01*
X102131906Y-118580723D02*
X102084287Y-118390247D01*
X102084287Y-118390247D02*
X102084287Y-118247390D01*
X102084287Y-118247390D02*
X102131906Y-118056914D01*
X102131906Y-118056914D02*
X102179525Y-117961676D01*
X102179525Y-117961676D02*
X102274763Y-117866438D01*
X102274763Y-117866438D02*
X102417620Y-117818819D01*
X102417620Y-117818819D02*
X102512858Y-117818819D01*
X102512858Y-117818819D02*
X102655715Y-117866438D01*
X102655715Y-117866438D02*
X102703334Y-117914057D01*
X103560477Y-118152152D02*
X103560477Y-118818819D01*
X103322382Y-117771200D02*
X103084287Y-118485485D01*
X103084287Y-118485485D02*
X103703334Y-118485485D01*
X135247142Y-133201580D02*
X135199523Y-133249200D01*
X135199523Y-133249200D02*
X135056666Y-133296819D01*
X135056666Y-133296819D02*
X134961428Y-133296819D01*
X134961428Y-133296819D02*
X134818571Y-133249200D01*
X134818571Y-133249200D02*
X134723333Y-133153961D01*
X134723333Y-133153961D02*
X134675714Y-133058723D01*
X134675714Y-133058723D02*
X134628095Y-132868247D01*
X134628095Y-132868247D02*
X134628095Y-132725390D01*
X134628095Y-132725390D02*
X134675714Y-132534914D01*
X134675714Y-132534914D02*
X134723333Y-132439676D01*
X134723333Y-132439676D02*
X134818571Y-132344438D01*
X134818571Y-132344438D02*
X134961428Y-132296819D01*
X134961428Y-132296819D02*
X135056666Y-132296819D01*
X135056666Y-132296819D02*
X135199523Y-132344438D01*
X135199523Y-132344438D02*
X135247142Y-132392057D01*
X136199523Y-133296819D02*
X135628095Y-133296819D01*
X135913809Y-133296819D02*
X135913809Y-132296819D01*
X135913809Y-132296819D02*
X135818571Y-132439676D01*
X135818571Y-132439676D02*
X135723333Y-132534914D01*
X135723333Y-132534914D02*
X135628095Y-132582533D01*
X136818571Y-132296819D02*
X136913809Y-132296819D01*
X136913809Y-132296819D02*
X137009047Y-132344438D01*
X137009047Y-132344438D02*
X137056666Y-132392057D01*
X137056666Y-132392057D02*
X137104285Y-132487295D01*
X137104285Y-132487295D02*
X137151904Y-132677771D01*
X137151904Y-132677771D02*
X137151904Y-132915866D01*
X137151904Y-132915866D02*
X137104285Y-133106342D01*
X137104285Y-133106342D02*
X137056666Y-133201580D01*
X137056666Y-133201580D02*
X137009047Y-133249200D01*
X137009047Y-133249200D02*
X136913809Y-133296819D01*
X136913809Y-133296819D02*
X136818571Y-133296819D01*
X136818571Y-133296819D02*
X136723333Y-133249200D01*
X136723333Y-133249200D02*
X136675714Y-133201580D01*
X136675714Y-133201580D02*
X136628095Y-133106342D01*
X136628095Y-133106342D02*
X136580476Y-132915866D01*
X136580476Y-132915866D02*
X136580476Y-132677771D01*
X136580476Y-132677771D02*
X136628095Y-132487295D01*
X136628095Y-132487295D02*
X136675714Y-132392057D01*
X136675714Y-132392057D02*
X136723333Y-132344438D01*
X136723333Y-132344438D02*
X136818571Y-132296819D01*
X139104761Y-87934819D02*
X138771428Y-87458628D01*
X138533333Y-87934819D02*
X138533333Y-86934819D01*
X138533333Y-86934819D02*
X138914285Y-86934819D01*
X138914285Y-86934819D02*
X139009523Y-86982438D01*
X139009523Y-86982438D02*
X139057142Y-87030057D01*
X139057142Y-87030057D02*
X139104761Y-87125295D01*
X139104761Y-87125295D02*
X139104761Y-87268152D01*
X139104761Y-87268152D02*
X139057142Y-87363390D01*
X139057142Y-87363390D02*
X139009523Y-87411009D01*
X139009523Y-87411009D02*
X138914285Y-87458628D01*
X138914285Y-87458628D02*
X138533333Y-87458628D01*
X139390476Y-86934819D02*
X139723809Y-87934819D01*
X139723809Y-87934819D02*
X140057142Y-86934819D01*
X140342857Y-87030057D02*
X140390476Y-86982438D01*
X140390476Y-86982438D02*
X140485714Y-86934819D01*
X140485714Y-86934819D02*
X140723809Y-86934819D01*
X140723809Y-86934819D02*
X140819047Y-86982438D01*
X140819047Y-86982438D02*
X140866666Y-87030057D01*
X140866666Y-87030057D02*
X140914285Y-87125295D01*
X140914285Y-87125295D02*
X140914285Y-87220533D01*
X140914285Y-87220533D02*
X140866666Y-87363390D01*
X140866666Y-87363390D02*
X140295238Y-87934819D01*
X140295238Y-87934819D02*
X140914285Y-87934819D01*
X110272533Y-90624819D02*
X109939200Y-90148628D01*
X109701105Y-90624819D02*
X109701105Y-89624819D01*
X109701105Y-89624819D02*
X110082057Y-89624819D01*
X110082057Y-89624819D02*
X110177295Y-89672438D01*
X110177295Y-89672438D02*
X110224914Y-89720057D01*
X110224914Y-89720057D02*
X110272533Y-89815295D01*
X110272533Y-89815295D02*
X110272533Y-89958152D01*
X110272533Y-89958152D02*
X110224914Y-90053390D01*
X110224914Y-90053390D02*
X110177295Y-90101009D01*
X110177295Y-90101009D02*
X110082057Y-90148628D01*
X110082057Y-90148628D02*
X109701105Y-90148628D01*
X110605867Y-89624819D02*
X111272533Y-89624819D01*
X111272533Y-89624819D02*
X110843962Y-90624819D01*
X139370833Y-114094419D02*
X139037500Y-113618228D01*
X138799405Y-114094419D02*
X138799405Y-113094419D01*
X138799405Y-113094419D02*
X139180357Y-113094419D01*
X139180357Y-113094419D02*
X139275595Y-113142038D01*
X139275595Y-113142038D02*
X139323214Y-113189657D01*
X139323214Y-113189657D02*
X139370833Y-113284895D01*
X139370833Y-113284895D02*
X139370833Y-113427752D01*
X139370833Y-113427752D02*
X139323214Y-113522990D01*
X139323214Y-113522990D02*
X139275595Y-113570609D01*
X139275595Y-113570609D02*
X139180357Y-113618228D01*
X139180357Y-113618228D02*
X138799405Y-113618228D01*
X140323214Y-114094419D02*
X139751786Y-114094419D01*
X140037500Y-114094419D02*
X140037500Y-113094419D01*
X140037500Y-113094419D02*
X139942262Y-113237276D01*
X139942262Y-113237276D02*
X139847024Y-113332514D01*
X139847024Y-113332514D02*
X139751786Y-113380133D01*
X140704167Y-113189657D02*
X140751786Y-113142038D01*
X140751786Y-113142038D02*
X140847024Y-113094419D01*
X140847024Y-113094419D02*
X141085119Y-113094419D01*
X141085119Y-113094419D02*
X141180357Y-113142038D01*
X141180357Y-113142038D02*
X141227976Y-113189657D01*
X141227976Y-113189657D02*
X141275595Y-113284895D01*
X141275595Y-113284895D02*
X141275595Y-113380133D01*
X141275595Y-113380133D02*
X141227976Y-113522990D01*
X141227976Y-113522990D02*
X140656548Y-114094419D01*
X140656548Y-114094419D02*
X141275595Y-114094419D01*
X139130833Y-100689580D02*
X139083214Y-100737200D01*
X139083214Y-100737200D02*
X138940357Y-100784819D01*
X138940357Y-100784819D02*
X138845119Y-100784819D01*
X138845119Y-100784819D02*
X138702262Y-100737200D01*
X138702262Y-100737200D02*
X138607024Y-100641961D01*
X138607024Y-100641961D02*
X138559405Y-100546723D01*
X138559405Y-100546723D02*
X138511786Y-100356247D01*
X138511786Y-100356247D02*
X138511786Y-100213390D01*
X138511786Y-100213390D02*
X138559405Y-100022914D01*
X138559405Y-100022914D02*
X138607024Y-99927676D01*
X138607024Y-99927676D02*
X138702262Y-99832438D01*
X138702262Y-99832438D02*
X138845119Y-99784819D01*
X138845119Y-99784819D02*
X138940357Y-99784819D01*
X138940357Y-99784819D02*
X139083214Y-99832438D01*
X139083214Y-99832438D02*
X139130833Y-99880057D01*
X139702262Y-100213390D02*
X139607024Y-100165771D01*
X139607024Y-100165771D02*
X139559405Y-100118152D01*
X139559405Y-100118152D02*
X139511786Y-100022914D01*
X139511786Y-100022914D02*
X139511786Y-99975295D01*
X139511786Y-99975295D02*
X139559405Y-99880057D01*
X139559405Y-99880057D02*
X139607024Y-99832438D01*
X139607024Y-99832438D02*
X139702262Y-99784819D01*
X139702262Y-99784819D02*
X139892738Y-99784819D01*
X139892738Y-99784819D02*
X139987976Y-99832438D01*
X139987976Y-99832438D02*
X140035595Y-99880057D01*
X140035595Y-99880057D02*
X140083214Y-99975295D01*
X140083214Y-99975295D02*
X140083214Y-100022914D01*
X140083214Y-100022914D02*
X140035595Y-100118152D01*
X140035595Y-100118152D02*
X139987976Y-100165771D01*
X139987976Y-100165771D02*
X139892738Y-100213390D01*
X139892738Y-100213390D02*
X139702262Y-100213390D01*
X139702262Y-100213390D02*
X139607024Y-100261009D01*
X139607024Y-100261009D02*
X139559405Y-100308628D01*
X139559405Y-100308628D02*
X139511786Y-100403866D01*
X139511786Y-100403866D02*
X139511786Y-100594342D01*
X139511786Y-100594342D02*
X139559405Y-100689580D01*
X139559405Y-100689580D02*
X139607024Y-100737200D01*
X139607024Y-100737200D02*
X139702262Y-100784819D01*
X139702262Y-100784819D02*
X139892738Y-100784819D01*
X139892738Y-100784819D02*
X139987976Y-100737200D01*
X139987976Y-100737200D02*
X140035595Y-100689580D01*
X140035595Y-100689580D02*
X140083214Y-100594342D01*
X140083214Y-100594342D02*
X140083214Y-100403866D01*
X140083214Y-100403866D02*
X140035595Y-100308628D01*
X140035595Y-100308628D02*
X139987976Y-100261009D01*
X139987976Y-100261009D02*
X139892738Y-100213390D01*
X144613333Y-111484580D02*
X144565714Y-111532200D01*
X144565714Y-111532200D02*
X144422857Y-111579819D01*
X144422857Y-111579819D02*
X144327619Y-111579819D01*
X144327619Y-111579819D02*
X144184762Y-111532200D01*
X144184762Y-111532200D02*
X144089524Y-111436961D01*
X144089524Y-111436961D02*
X144041905Y-111341723D01*
X144041905Y-111341723D02*
X143994286Y-111151247D01*
X143994286Y-111151247D02*
X143994286Y-111008390D01*
X143994286Y-111008390D02*
X144041905Y-110817914D01*
X144041905Y-110817914D02*
X144089524Y-110722676D01*
X144089524Y-110722676D02*
X144184762Y-110627438D01*
X144184762Y-110627438D02*
X144327619Y-110579819D01*
X144327619Y-110579819D02*
X144422857Y-110579819D01*
X144422857Y-110579819D02*
X144565714Y-110627438D01*
X144565714Y-110627438D02*
X144613333Y-110675057D01*
X145518095Y-110579819D02*
X145041905Y-110579819D01*
X145041905Y-110579819D02*
X144994286Y-111056009D01*
X144994286Y-111056009D02*
X145041905Y-111008390D01*
X145041905Y-111008390D02*
X145137143Y-110960771D01*
X145137143Y-110960771D02*
X145375238Y-110960771D01*
X145375238Y-110960771D02*
X145470476Y-111008390D01*
X145470476Y-111008390D02*
X145518095Y-111056009D01*
X145518095Y-111056009D02*
X145565714Y-111151247D01*
X145565714Y-111151247D02*
X145565714Y-111389342D01*
X145565714Y-111389342D02*
X145518095Y-111484580D01*
X145518095Y-111484580D02*
X145470476Y-111532200D01*
X145470476Y-111532200D02*
X145375238Y-111579819D01*
X145375238Y-111579819D02*
X145137143Y-111579819D01*
X145137143Y-111579819D02*
X145041905Y-111532200D01*
X145041905Y-111532200D02*
X144994286Y-111484580D01*
X135621733Y-121415980D02*
X135574114Y-121463600D01*
X135574114Y-121463600D02*
X135431257Y-121511219D01*
X135431257Y-121511219D02*
X135336019Y-121511219D01*
X135336019Y-121511219D02*
X135193162Y-121463600D01*
X135193162Y-121463600D02*
X135097924Y-121368361D01*
X135097924Y-121368361D02*
X135050305Y-121273123D01*
X135050305Y-121273123D02*
X135002686Y-121082647D01*
X135002686Y-121082647D02*
X135002686Y-120939790D01*
X135002686Y-120939790D02*
X135050305Y-120749314D01*
X135050305Y-120749314D02*
X135097924Y-120654076D01*
X135097924Y-120654076D02*
X135193162Y-120558838D01*
X135193162Y-120558838D02*
X135336019Y-120511219D01*
X135336019Y-120511219D02*
X135431257Y-120511219D01*
X135431257Y-120511219D02*
X135574114Y-120558838D01*
X135574114Y-120558838D02*
X135621733Y-120606457D01*
X136097924Y-121511219D02*
X136288400Y-121511219D01*
X136288400Y-121511219D02*
X136383638Y-121463600D01*
X136383638Y-121463600D02*
X136431257Y-121415980D01*
X136431257Y-121415980D02*
X136526495Y-121273123D01*
X136526495Y-121273123D02*
X136574114Y-121082647D01*
X136574114Y-121082647D02*
X136574114Y-120701695D01*
X136574114Y-120701695D02*
X136526495Y-120606457D01*
X136526495Y-120606457D02*
X136478876Y-120558838D01*
X136478876Y-120558838D02*
X136383638Y-120511219D01*
X136383638Y-120511219D02*
X136193162Y-120511219D01*
X136193162Y-120511219D02*
X136097924Y-120558838D01*
X136097924Y-120558838D02*
X136050305Y-120606457D01*
X136050305Y-120606457D02*
X136002686Y-120701695D01*
X136002686Y-120701695D02*
X136002686Y-120939790D01*
X136002686Y-120939790D02*
X136050305Y-121035028D01*
X136050305Y-121035028D02*
X136097924Y-121082647D01*
X136097924Y-121082647D02*
X136193162Y-121130266D01*
X136193162Y-121130266D02*
X136383638Y-121130266D01*
X136383638Y-121130266D02*
X136478876Y-121082647D01*
X136478876Y-121082647D02*
X136526495Y-121035028D01*
X136526495Y-121035028D02*
X136574114Y-120939790D01*
X149756905Y-87684819D02*
X149756905Y-86684819D01*
X149756905Y-86684819D02*
X149995000Y-86684819D01*
X149995000Y-86684819D02*
X150137857Y-86732438D01*
X150137857Y-86732438D02*
X150233095Y-86827676D01*
X150233095Y-86827676D02*
X150280714Y-86922914D01*
X150280714Y-86922914D02*
X150328333Y-87113390D01*
X150328333Y-87113390D02*
X150328333Y-87256247D01*
X150328333Y-87256247D02*
X150280714Y-87446723D01*
X150280714Y-87446723D02*
X150233095Y-87541961D01*
X150233095Y-87541961D02*
X150137857Y-87637200D01*
X150137857Y-87637200D02*
X149995000Y-87684819D01*
X149995000Y-87684819D02*
X149756905Y-87684819D01*
X150709286Y-86780057D02*
X150756905Y-86732438D01*
X150756905Y-86732438D02*
X150852143Y-86684819D01*
X150852143Y-86684819D02*
X151090238Y-86684819D01*
X151090238Y-86684819D02*
X151185476Y-86732438D01*
X151185476Y-86732438D02*
X151233095Y-86780057D01*
X151233095Y-86780057D02*
X151280714Y-86875295D01*
X151280714Y-86875295D02*
X151280714Y-86970533D01*
X151280714Y-86970533D02*
X151233095Y-87113390D01*
X151233095Y-87113390D02*
X150661667Y-87684819D01*
X150661667Y-87684819D02*
X151280714Y-87684819D01*
X159019999Y-121104819D02*
X158686666Y-120628628D01*
X158448571Y-121104819D02*
X158448571Y-120104819D01*
X158448571Y-120104819D02*
X158829523Y-120104819D01*
X158829523Y-120104819D02*
X158924761Y-120152438D01*
X158924761Y-120152438D02*
X158972380Y-120200057D01*
X158972380Y-120200057D02*
X159019999Y-120295295D01*
X159019999Y-120295295D02*
X159019999Y-120438152D01*
X159019999Y-120438152D02*
X158972380Y-120533390D01*
X158972380Y-120533390D02*
X158924761Y-120581009D01*
X158924761Y-120581009D02*
X158829523Y-120628628D01*
X158829523Y-120628628D02*
X158448571Y-120628628D01*
X159877142Y-121057200D02*
X159781904Y-121104819D01*
X159781904Y-121104819D02*
X159591428Y-121104819D01*
X159591428Y-121104819D02*
X159496190Y-121057200D01*
X159496190Y-121057200D02*
X159448571Y-121009580D01*
X159448571Y-121009580D02*
X159400952Y-120914342D01*
X159400952Y-120914342D02*
X159400952Y-120628628D01*
X159400952Y-120628628D02*
X159448571Y-120533390D01*
X159448571Y-120533390D02*
X159496190Y-120485771D01*
X159496190Y-120485771D02*
X159591428Y-120438152D01*
X159591428Y-120438152D02*
X159781904Y-120438152D01*
X159781904Y-120438152D02*
X159877142Y-120485771D01*
X160258095Y-121057200D02*
X160353333Y-121104819D01*
X160353333Y-121104819D02*
X160543809Y-121104819D01*
X160543809Y-121104819D02*
X160639047Y-121057200D01*
X160639047Y-121057200D02*
X160686666Y-120961961D01*
X160686666Y-120961961D02*
X160686666Y-120914342D01*
X160686666Y-120914342D02*
X160639047Y-120819104D01*
X160639047Y-120819104D02*
X160543809Y-120771485D01*
X160543809Y-120771485D02*
X160400952Y-120771485D01*
X160400952Y-120771485D02*
X160305714Y-120723866D01*
X160305714Y-120723866D02*
X160258095Y-120628628D01*
X160258095Y-120628628D02*
X160258095Y-120581009D01*
X160258095Y-120581009D02*
X160305714Y-120485771D01*
X160305714Y-120485771D02*
X160400952Y-120438152D01*
X160400952Y-120438152D02*
X160543809Y-120438152D01*
X160543809Y-120438152D02*
X160639047Y-120485771D01*
X161067619Y-120200057D02*
X161115238Y-120152438D01*
X161115238Y-120152438D02*
X161210476Y-120104819D01*
X161210476Y-120104819D02*
X161448571Y-120104819D01*
X161448571Y-120104819D02*
X161543809Y-120152438D01*
X161543809Y-120152438D02*
X161591428Y-120200057D01*
X161591428Y-120200057D02*
X161639047Y-120295295D01*
X161639047Y-120295295D02*
X161639047Y-120390533D01*
X161639047Y-120390533D02*
X161591428Y-120533390D01*
X161591428Y-120533390D02*
X161020000Y-121104819D01*
X161020000Y-121104819D02*
X161639047Y-121104819D01*
X118516496Y-117717219D02*
X118516496Y-118526742D01*
X118516496Y-118526742D02*
X118564115Y-118621980D01*
X118564115Y-118621980D02*
X118611734Y-118669600D01*
X118611734Y-118669600D02*
X118706972Y-118717219D01*
X118706972Y-118717219D02*
X118897448Y-118717219D01*
X118897448Y-118717219D02*
X118992686Y-118669600D01*
X118992686Y-118669600D02*
X119040305Y-118621980D01*
X119040305Y-118621980D02*
X119087924Y-118526742D01*
X119087924Y-118526742D02*
X119087924Y-117717219D01*
X119706972Y-118145790D02*
X119611734Y-118098171D01*
X119611734Y-118098171D02*
X119564115Y-118050552D01*
X119564115Y-118050552D02*
X119516496Y-117955314D01*
X119516496Y-117955314D02*
X119516496Y-117907695D01*
X119516496Y-117907695D02*
X119564115Y-117812457D01*
X119564115Y-117812457D02*
X119611734Y-117764838D01*
X119611734Y-117764838D02*
X119706972Y-117717219D01*
X119706972Y-117717219D02*
X119897448Y-117717219D01*
X119897448Y-117717219D02*
X119992686Y-117764838D01*
X119992686Y-117764838D02*
X120040305Y-117812457D01*
X120040305Y-117812457D02*
X120087924Y-117907695D01*
X120087924Y-117907695D02*
X120087924Y-117955314D01*
X120087924Y-117955314D02*
X120040305Y-118050552D01*
X120040305Y-118050552D02*
X119992686Y-118098171D01*
X119992686Y-118098171D02*
X119897448Y-118145790D01*
X119897448Y-118145790D02*
X119706972Y-118145790D01*
X119706972Y-118145790D02*
X119611734Y-118193409D01*
X119611734Y-118193409D02*
X119564115Y-118241028D01*
X119564115Y-118241028D02*
X119516496Y-118336266D01*
X119516496Y-118336266D02*
X119516496Y-118526742D01*
X119516496Y-118526742D02*
X119564115Y-118621980D01*
X119564115Y-118621980D02*
X119611734Y-118669600D01*
X119611734Y-118669600D02*
X119706972Y-118717219D01*
X119706972Y-118717219D02*
X119897448Y-118717219D01*
X119897448Y-118717219D02*
X119992686Y-118669600D01*
X119992686Y-118669600D02*
X120040305Y-118621980D01*
X120040305Y-118621980D02*
X120087924Y-118526742D01*
X120087924Y-118526742D02*
X120087924Y-118336266D01*
X120087924Y-118336266D02*
X120040305Y-118241028D01*
X120040305Y-118241028D02*
X119992686Y-118193409D01*
X119992686Y-118193409D02*
X119897448Y-118145790D01*
X145678095Y-126454819D02*
X145678095Y-127264342D01*
X145678095Y-127264342D02*
X145725714Y-127359580D01*
X145725714Y-127359580D02*
X145773333Y-127407200D01*
X145773333Y-127407200D02*
X145868571Y-127454819D01*
X145868571Y-127454819D02*
X146059047Y-127454819D01*
X146059047Y-127454819D02*
X146154285Y-127407200D01*
X146154285Y-127407200D02*
X146201904Y-127359580D01*
X146201904Y-127359580D02*
X146249523Y-127264342D01*
X146249523Y-127264342D02*
X146249523Y-126454819D01*
X147154285Y-126454819D02*
X146963809Y-126454819D01*
X146963809Y-126454819D02*
X146868571Y-126502438D01*
X146868571Y-126502438D02*
X146820952Y-126550057D01*
X146820952Y-126550057D02*
X146725714Y-126692914D01*
X146725714Y-126692914D02*
X146678095Y-126883390D01*
X146678095Y-126883390D02*
X146678095Y-127264342D01*
X146678095Y-127264342D02*
X146725714Y-127359580D01*
X146725714Y-127359580D02*
X146773333Y-127407200D01*
X146773333Y-127407200D02*
X146868571Y-127454819D01*
X146868571Y-127454819D02*
X147059047Y-127454819D01*
X147059047Y-127454819D02*
X147154285Y-127407200D01*
X147154285Y-127407200D02*
X147201904Y-127359580D01*
X147201904Y-127359580D02*
X147249523Y-127264342D01*
X147249523Y-127264342D02*
X147249523Y-127026247D01*
X147249523Y-127026247D02*
X147201904Y-126931009D01*
X147201904Y-126931009D02*
X147154285Y-126883390D01*
X147154285Y-126883390D02*
X147059047Y-126835771D01*
X147059047Y-126835771D02*
X146868571Y-126835771D01*
X146868571Y-126835771D02*
X146773333Y-126883390D01*
X146773333Y-126883390D02*
X146725714Y-126931009D01*
X146725714Y-126931009D02*
X146678095Y-127026247D01*
X118770495Y-97685019D02*
X118770495Y-98494542D01*
X118770495Y-98494542D02*
X118818114Y-98589780D01*
X118818114Y-98589780D02*
X118865733Y-98637400D01*
X118865733Y-98637400D02*
X118960971Y-98685019D01*
X118960971Y-98685019D02*
X119151447Y-98685019D01*
X119151447Y-98685019D02*
X119246685Y-98637400D01*
X119246685Y-98637400D02*
X119294304Y-98589780D01*
X119294304Y-98589780D02*
X119341923Y-98494542D01*
X119341923Y-98494542D02*
X119341923Y-97685019D01*
X119722876Y-97685019D02*
X120389542Y-97685019D01*
X120389542Y-97685019D02*
X119960971Y-98685019D01*
X181963219Y-90349294D02*
X180963219Y-90349294D01*
X180963219Y-90349294D02*
X180963219Y-90111199D01*
X180963219Y-90111199D02*
X181010838Y-89968342D01*
X181010838Y-89968342D02*
X181106076Y-89873104D01*
X181106076Y-89873104D02*
X181201314Y-89825485D01*
X181201314Y-89825485D02*
X181391790Y-89777866D01*
X181391790Y-89777866D02*
X181534647Y-89777866D01*
X181534647Y-89777866D02*
X181725123Y-89825485D01*
X181725123Y-89825485D02*
X181820361Y-89873104D01*
X181820361Y-89873104D02*
X181915600Y-89968342D01*
X181915600Y-89968342D02*
X181963219Y-90111199D01*
X181963219Y-90111199D02*
X181963219Y-90349294D01*
X180963219Y-89444532D02*
X180963219Y-88777866D01*
X180963219Y-88777866D02*
X181963219Y-89206437D01*
X124333095Y-85179819D02*
X124333095Y-85989342D01*
X124333095Y-85989342D02*
X124380714Y-86084580D01*
X124380714Y-86084580D02*
X124428333Y-86132200D01*
X124428333Y-86132200D02*
X124523571Y-86179819D01*
X124523571Y-86179819D02*
X124714047Y-86179819D01*
X124714047Y-86179819D02*
X124809285Y-86132200D01*
X124809285Y-86132200D02*
X124856904Y-86084580D01*
X124856904Y-86084580D02*
X124904523Y-85989342D01*
X124904523Y-85989342D02*
X124904523Y-85179819D01*
X125285476Y-85179819D02*
X125904523Y-85179819D01*
X125904523Y-85179819D02*
X125571190Y-85560771D01*
X125571190Y-85560771D02*
X125714047Y-85560771D01*
X125714047Y-85560771D02*
X125809285Y-85608390D01*
X125809285Y-85608390D02*
X125856904Y-85656009D01*
X125856904Y-85656009D02*
X125904523Y-85751247D01*
X125904523Y-85751247D02*
X125904523Y-85989342D01*
X125904523Y-85989342D02*
X125856904Y-86084580D01*
X125856904Y-86084580D02*
X125809285Y-86132200D01*
X125809285Y-86132200D02*
X125714047Y-86179819D01*
X125714047Y-86179819D02*
X125428333Y-86179819D01*
X125428333Y-86179819D02*
X125333095Y-86132200D01*
X125333095Y-86132200D02*
X125285476Y-86084580D01*
D15*
X104140000Y-68225000D02*
X104140000Y-67015000D01*
X106510000Y-70595000D02*
G75*
G02*
X101770000Y-70595000I-2370000J0D01*
G01*
X101770000Y-70595000D02*
G75*
G02*
X106510000Y-70595000I2370000J0D01*
G01*
X136422224Y-104887500D02*
X135912776Y-104887500D01*
X136422224Y-105932500D02*
X135912776Y-105932500D01*
X112122936Y-76395000D02*
X116477064Y-76395000D01*
X112122936Y-79815000D02*
X116477064Y-79815000D01*
X150395000Y-123417064D02*
X150395000Y-122962936D01*
X151865000Y-123417064D02*
X151865000Y-122962936D01*
X91882800Y-75968800D02*
X91882800Y-94088800D01*
X91882800Y-94088800D02*
X96602800Y-94088800D01*
X92492800Y-76578800D02*
X92492800Y-93478800D01*
X92492800Y-78928800D02*
X92992800Y-78928800D01*
X92492800Y-79028800D02*
X92992800Y-79028800D01*
X92492800Y-80928800D02*
X92992800Y-80928800D01*
X92492800Y-81028800D02*
X92992800Y-81028800D01*
X92492800Y-82928800D02*
X92992800Y-82928800D01*
X92492800Y-83028800D02*
X92992800Y-83028800D01*
X92492800Y-84928800D02*
X92992800Y-84928800D01*
X92492800Y-85028800D02*
X92992800Y-85028800D01*
X92492800Y-86928800D02*
X92992800Y-86928800D01*
X92492800Y-87028800D02*
X92992800Y-87028800D01*
X92492800Y-88928800D02*
X92992800Y-88928800D01*
X92492800Y-89028800D02*
X92992800Y-89028800D01*
X92492800Y-90928800D02*
X92992800Y-90928800D01*
X92492800Y-91028800D02*
X92992800Y-91028800D01*
X92492800Y-93478800D02*
X95992800Y-93478800D01*
X92992800Y-78928800D02*
X92992800Y-79128800D01*
X92992800Y-79128800D02*
X92492800Y-79128800D01*
X92992800Y-80928800D02*
X92992800Y-81128800D01*
X92992800Y-81128800D02*
X92492800Y-81128800D01*
X92992800Y-82928800D02*
X92992800Y-83128800D01*
X92992800Y-83128800D02*
X92492800Y-83128800D01*
X92992800Y-84928800D02*
X92992800Y-85128800D01*
X92992800Y-85128800D02*
X92492800Y-85128800D01*
X92992800Y-86928800D02*
X92992800Y-87128800D01*
X92992800Y-87128800D02*
X92492800Y-87128800D01*
X92992800Y-88928800D02*
X92992800Y-89128800D01*
X92992800Y-89128800D02*
X92492800Y-89128800D01*
X92992800Y-90928800D02*
X92992800Y-91128800D01*
X92992800Y-91128800D02*
X92492800Y-91128800D01*
X93992800Y-75968800D02*
X93992800Y-76578800D01*
X93992800Y-94088800D02*
X93992800Y-93478800D01*
X95292800Y-75968800D02*
X95292800Y-76578800D01*
X95292800Y-94088800D02*
X95292800Y-93478800D01*
X95992800Y-76578800D02*
X92492800Y-76578800D01*
X95992800Y-78528800D02*
X95992800Y-76578800D01*
X95992800Y-91528800D02*
X96602800Y-91528800D01*
X95992800Y-93478800D02*
X95992800Y-91528800D01*
X96602800Y-75968800D02*
X91882800Y-75968800D01*
X96602800Y-77728800D02*
X96802800Y-77728800D01*
X96602800Y-78528800D02*
X95992800Y-78528800D01*
X96602800Y-94088800D02*
X96602800Y-75968800D01*
X96702800Y-77728800D02*
X96702800Y-77428800D01*
X96802800Y-77428800D02*
X96602800Y-77428800D01*
X96802800Y-77728800D02*
X96802800Y-77428800D01*
X96902800Y-75668800D02*
X95652800Y-75668800D01*
X96902800Y-76918800D02*
X96902800Y-75668800D01*
X157180000Y-130430000D02*
X151670000Y-130430000D01*
X157180000Y-133730000D02*
X151670000Y-133730000D01*
X157180000Y-133730000D02*
X157180000Y-130430000D01*
X163152064Y-100230000D02*
X162697936Y-100230000D01*
X163152064Y-101700000D02*
X162697936Y-101700000D01*
X124985000Y-101540000D02*
X124985000Y-106740000D01*
X124985000Y-106740000D02*
X126635000Y-106740000D01*
X128635000Y-106740000D02*
X130285000Y-106740000D01*
X130285000Y-101540000D02*
X124985000Y-101540000D01*
X130285000Y-106740000D02*
X130285000Y-101540000D01*
X126635000Y-106740000D02*
G75*
G02*
X128635000Y-106740000I1000000J0D01*
G01*
X154125000Y-98165000D02*
X154125000Y-78365000D01*
X155875000Y-83315000D02*
X155875000Y-85815000D01*
X157725000Y-93915000D02*
X160175000Y-93915000D01*
X158275000Y-89215000D02*
X158275000Y-82415000D01*
X160075000Y-83815000D02*
X163675000Y-83815000D01*
X160075000Y-85815000D02*
X155875000Y-85815000D01*
X160075000Y-87815000D02*
X160075000Y-83815000D01*
X160075000Y-87815000D02*
X163675000Y-83815000D01*
X160725000Y-78365000D02*
X154125000Y-78365000D01*
X161875000Y-82415000D02*
X158275000Y-82415000D01*
X161875000Y-82415000D02*
X161875000Y-81615000D01*
X161875000Y-89215000D02*
X158275000Y-89215000D01*
X161875000Y-89215000D02*
X161875000Y-90715000D01*
X161875000Y-90715000D02*
X159675000Y-94965000D01*
X163675000Y-83815000D02*
X163675000Y-87815000D01*
X163675000Y-87815000D02*
X160075000Y-87815000D01*
X166125000Y-93915000D02*
X163625000Y-93915000D01*
X167875000Y-85815000D02*
X163675000Y-85815000D01*
X167875000Y-85815000D02*
X167875000Y-83315000D01*
X169725000Y-78365000D02*
X163125000Y-78365000D01*
X169725000Y-78365000D02*
X169725000Y-98165000D01*
X169725000Y-98165000D02*
X154125000Y-98165000D01*
X104335000Y-86350000D02*
X104335000Y-81280000D01*
X106680000Y-85598000D02*
X106680000Y-84836000D01*
X108204000Y-85598000D02*
X106680000Y-85598000D01*
X109220000Y-85344000D02*
X109220000Y-84836000D01*
X110236000Y-85598000D02*
X111760000Y-85598000D01*
X111760000Y-85598000D02*
X111760000Y-84836000D01*
X114105000Y-81280000D02*
X104335000Y-81280000D01*
X114105000Y-86350000D02*
X104335000Y-86350000D01*
X114105000Y-86350000D02*
X114105000Y-81280000D01*
X110236000Y-85852000D02*
X108204000Y-85852000D01*
X108204000Y-85344000D01*
X110236000Y-85344000D01*
X110236000Y-85852000D01*
X109220000Y-85344000D02*
X109093000Y-85090000D01*
X109347000Y-85090000D01*
X109220000Y-85344000D01*
G36*
X109220000Y-85344000D02*
G01*
X109093000Y-85090000D01*
X109347000Y-85090000D01*
X109220000Y-85344000D01*
G37*
X138965000Y-124198747D02*
X138965000Y-124721253D01*
X140435000Y-124198747D02*
X140435000Y-124721253D01*
X162602936Y-107850000D02*
X163057064Y-107850000D01*
X162602936Y-109320000D02*
X163057064Y-109320000D01*
X140045000Y-119255000D02*
X141045000Y-119255000D01*
X140045000Y-120775000D02*
X140045000Y-119255000D01*
X140095000Y-120775000D02*
X140045000Y-120775000D01*
X141995000Y-120775000D02*
X141215000Y-120775000D01*
X142165000Y-119255000D02*
X143165000Y-119255000D01*
X143165000Y-119255000D02*
X143165000Y-120775000D01*
X143165000Y-120775000D02*
X143115000Y-120775000D01*
X141555000Y-121555000D02*
X141225000Y-121315000D01*
X141555000Y-121075000D01*
X141555000Y-121555000D01*
G36*
X141555000Y-121555000D02*
G01*
X141225000Y-121315000D01*
X141555000Y-121075000D01*
X141555000Y-121555000D01*
G37*
X105170001Y-120527500D02*
X105170001Y-124922500D01*
X105170001Y-124922500D02*
X108190001Y-124922500D01*
X108190001Y-124922500D02*
X108190001Y-120527500D01*
X134470000Y-109755000D02*
X134470000Y-111225000D01*
X134470000Y-111225000D02*
X136930000Y-111225000D01*
X136930000Y-109755000D02*
X134470000Y-109755000D01*
X169778400Y-119000000D02*
X164268400Y-119000000D01*
X169778400Y-122300000D02*
X164268400Y-122300000D01*
X169778400Y-122300000D02*
X169778400Y-119000000D01*
X107215000Y-92937064D02*
X107215000Y-92482936D01*
X108685000Y-92937064D02*
X108685000Y-92482936D01*
D14*
X152400000Y-61005200D02*
X152400000Y-73005200D01*
X152400000Y-73005200D02*
X160020000Y-73005200D01*
D15*
X154033624Y-62838298D02*
X157419999Y-68055200D01*
X155092377Y-62089891D02*
X158547624Y-67320510D01*
D14*
X160020000Y-61005200D02*
X152400000Y-61005200D01*
X160020000Y-61005200D02*
X167640000Y-61005200D01*
X160020000Y-72005200D02*
X160020000Y-62005200D01*
D15*
X161726812Y-62846749D02*
X165113188Y-68063651D01*
X162785565Y-62098342D02*
X166240812Y-67328961D01*
D14*
X167640000Y-61005200D02*
X167640000Y-73005200D01*
X167640000Y-73005200D02*
X160020000Y-73005200D01*
D15*
X159421562Y-65105200D02*
G75*
G02*
X153018438Y-65105200I-3201562J0D01*
G01*
X153018438Y-65105200D02*
G75*
G02*
X159421562Y-65105200I3201562J0D01*
G01*
X167120000Y-65105200D02*
G75*
G02*
X160716876Y-65105200I-3201562J0D01*
G01*
X160716876Y-65105200D02*
G75*
G02*
X167120000Y-65105200I3201562J0D01*
G01*
X110250000Y-120527500D02*
X110250000Y-124922500D01*
X110250000Y-124922500D02*
X113270000Y-124922500D01*
X113270000Y-124922500D02*
X113270000Y-120527500D01*
X163282350Y-113465000D02*
X168722350Y-113465000D01*
X163282350Y-113595000D02*
X163282350Y-113465000D01*
X163282350Y-116275000D02*
X163282350Y-116405000D01*
X163282350Y-116405000D02*
X168722350Y-116405000D01*
X164062350Y-113465000D02*
X164062350Y-116405000D01*
X164182350Y-113465000D02*
X164182350Y-116405000D01*
X164302350Y-113465000D02*
X164302350Y-116405000D01*
X168722350Y-113465000D02*
X168722350Y-113595000D01*
X168722350Y-116405000D02*
X168722350Y-116275000D01*
X151015000Y-104080000D02*
X151015000Y-114360000D01*
X151015000Y-114360000D02*
X152665000Y-114360000D01*
X154665000Y-114360000D02*
X156315000Y-114360000D01*
X156315000Y-104080000D02*
X151015000Y-104080000D01*
X156315000Y-114360000D02*
X156315000Y-104080000D01*
X152665000Y-114360000D02*
G75*
G02*
X154665000Y-114360000I1000000J0D01*
G01*
X138965000Y-129767064D02*
X138965000Y-129312936D01*
X140435000Y-129767064D02*
X140435000Y-129312936D01*
X124985000Y-109160000D02*
X124985000Y-114360000D01*
X124985000Y-114360000D02*
X126635000Y-114360000D01*
X128635000Y-114360000D02*
X130285000Y-114360000D01*
X130285000Y-109160000D02*
X124985000Y-109160000D01*
X130285000Y-114360000D02*
X130285000Y-109160000D01*
X126635000Y-114360000D02*
G75*
G02*
X128635000Y-114360000I1000000J0D01*
G01*
X181605000Y-76200000D02*
G75*
G02*
X177805000Y-76200000I-1900000J0D01*
G01*
X177805000Y-76200000D02*
G75*
G02*
X181605000Y-76200000I1900000J0D01*
G01*
X162602936Y-105310000D02*
X163057064Y-105310000D01*
X162602936Y-106780000D02*
X163057064Y-106780000D01*
X147425000Y-97260000D02*
X147425000Y-100860000D01*
X147425000Y-100860000D02*
X151025000Y-100860000D01*
X151025000Y-97260000D02*
X147425000Y-97260000D01*
X151025000Y-100860000D02*
X151025000Y-97260000D01*
X162602936Y-110390000D02*
X163057064Y-110390000D01*
X162602936Y-111860000D02*
X163057064Y-111860000D01*
X181274800Y-102870000D02*
G75*
G02*
X177474800Y-102870000I-1900000J0D01*
G01*
X177474800Y-102870000D02*
G75*
G02*
X181274800Y-102870000I1900000J0D01*
G01*
X124370000Y-118821252D02*
X124370000Y-117398748D01*
X127090000Y-118821252D02*
X127090000Y-117398748D01*
X132442936Y-75760000D02*
X136797064Y-75760000D01*
X132442936Y-79180000D02*
X136797064Y-79180000D01*
X163152064Y-102770000D02*
X162697936Y-102770000D01*
X163152064Y-104240000D02*
X162697936Y-104240000D01*
X153630800Y-123951948D02*
X153630800Y-125374452D01*
X156350800Y-123951948D02*
X156350800Y-125374452D01*
D14*
X108559600Y-61069200D02*
X108559600Y-73069200D01*
X108559600Y-73069200D02*
X116179600Y-73069200D01*
D15*
X110193224Y-62902298D02*
X113579600Y-68119200D01*
X111251977Y-62153891D02*
X114707224Y-67384510D01*
D14*
X116179600Y-61069200D02*
X108559600Y-61069200D01*
X116179600Y-61069200D02*
X139039600Y-61069200D01*
X116179600Y-72069200D02*
X116179600Y-62069200D01*
D15*
X117886412Y-62910749D02*
X121272788Y-68127651D01*
X118945165Y-62162342D02*
X122400412Y-67392961D01*
D14*
X123799600Y-72269200D02*
X123799600Y-62269200D01*
D15*
X125385600Y-62836988D02*
X128771976Y-68053890D01*
X126444353Y-62088581D02*
X129899600Y-67319200D01*
D14*
X131419600Y-72269200D02*
X131419600Y-62269200D01*
D15*
X133060600Y-62986988D02*
X136446976Y-68203890D01*
X134119353Y-62238581D02*
X137574600Y-67469200D01*
D14*
X139039600Y-61069200D02*
X139039600Y-73069200D01*
X139039600Y-73069200D02*
X116179600Y-73069200D01*
D15*
X115581162Y-65169200D02*
G75*
G02*
X109178038Y-65169200I-3201562J0D01*
G01*
X109178038Y-65169200D02*
G75*
G02*
X115581162Y-65169200I3201562J0D01*
G01*
X123279600Y-65169200D02*
G75*
G02*
X116876476Y-65169200I-3201562J0D01*
G01*
X116876476Y-65169200D02*
G75*
G02*
X123279600Y-65169200I3201562J0D01*
G01*
X130778788Y-65095439D02*
G75*
G02*
X124375664Y-65095439I-3201562J0D01*
G01*
X124375664Y-65095439D02*
G75*
G02*
X130778788Y-65095439I3201562J0D01*
G01*
X138453788Y-65245439D02*
G75*
G02*
X132050664Y-65245439I-3201562J0D01*
G01*
X132050664Y-65245439D02*
G75*
G02*
X138453788Y-65245439I3201562J0D01*
G01*
X115423001Y-83665000D02*
X115518000Y-83665000D01*
X115423001Y-87785000D02*
X115423001Y-83665000D01*
X115518000Y-87785000D02*
X115423001Y-87785000D01*
X120448000Y-83665000D02*
X120542999Y-83665000D01*
X120542999Y-83665000D02*
X120542999Y-87785000D01*
X120542999Y-87785000D02*
X120448000Y-87785000D01*
X115513000Y-88325000D02*
X115183000Y-88565000D01*
X115183000Y-88085000D01*
X115513000Y-88325000D01*
G36*
X115513000Y-88325000D02*
G01*
X115183000Y-88565000D01*
X115183000Y-88085000D01*
X115513000Y-88325000D01*
G37*
X164865000Y-124610000D02*
X166265000Y-124610000D01*
X164865000Y-131930000D02*
X164865000Y-124610000D01*
X166265000Y-131930000D02*
X164865000Y-131930000D01*
X170285000Y-124610000D02*
X171685000Y-124610000D01*
X171685000Y-124610000D02*
X171685000Y-131930000D01*
X171685000Y-131930000D02*
X170285000Y-131930000D01*
X102135001Y-122538753D02*
X102135001Y-122016247D01*
X103605001Y-122538753D02*
X103605001Y-122016247D01*
X135155000Y-129801253D02*
X135155000Y-129278747D01*
X136625000Y-129801253D02*
X136625000Y-129278747D01*
X134815000Y-86350000D02*
X134815000Y-81280000D01*
X137160000Y-85598000D02*
X137160000Y-84836000D01*
X138684000Y-85598000D02*
X137160000Y-85598000D01*
X139700000Y-85344000D02*
X139700000Y-84836000D01*
X140716000Y-85598000D02*
X142240000Y-85598000D01*
X142240000Y-85598000D02*
X142240000Y-84836000D01*
X144585000Y-81280000D02*
X134815000Y-81280000D01*
X144585000Y-86350000D02*
X134815000Y-86350000D01*
X144585000Y-86350000D02*
X144585000Y-81280000D01*
X140716000Y-85852000D02*
X138684000Y-85852000D01*
X138684000Y-85344000D01*
X140716000Y-85344000D01*
X140716000Y-85852000D01*
X139700000Y-85344000D02*
X139573000Y-85090000D01*
X139827000Y-85090000D01*
X139700000Y-85344000D01*
G36*
X139700000Y-85344000D02*
G01*
X139573000Y-85090000D01*
X139827000Y-85090000D01*
X139700000Y-85344000D01*
G37*
X109755000Y-92937064D02*
X109755000Y-92482936D01*
X111225000Y-92937064D02*
X111225000Y-92482936D01*
X136335564Y-112803000D02*
X135881436Y-112803000D01*
X136335564Y-114273000D02*
X135881436Y-114273000D01*
X172904383Y-100832066D02*
X175364383Y-100832066D01*
X175364383Y-99362066D02*
X172904383Y-99362066D01*
X175364383Y-100832066D02*
X175364383Y-99362066D01*
X136151253Y-99595000D02*
X135628747Y-99595000D01*
X136151253Y-101065000D02*
X135628747Y-101065000D01*
X146585000Y-112021253D02*
X146585000Y-111498747D01*
X148055000Y-112021253D02*
X148055000Y-111498747D01*
X134478200Y-102135000D02*
X134478200Y-103605000D01*
X134478200Y-103605000D02*
X136938200Y-103605000D01*
X136938200Y-102135000D02*
X134478200Y-102135000D01*
X134530000Y-123748748D02*
X134530000Y-125171252D01*
X137250000Y-123748748D02*
X137250000Y-125171252D01*
X149495000Y-81610000D02*
X149495000Y-85470000D01*
X151495000Y-81610000D02*
X149495000Y-81610000D01*
X151495000Y-81610000D02*
X151495000Y-85470000D01*
X158310000Y-127907064D02*
X158310000Y-123552936D01*
X161730000Y-127907064D02*
X161730000Y-123552936D01*
X181274800Y-118110000D02*
G75*
G02*
X177474800Y-118110000I-1900000J0D01*
G01*
X177474800Y-118110000D02*
G75*
G02*
X181274800Y-118110000I1900000J0D01*
G01*
X117530001Y-119780000D02*
X121290001Y-119780000D01*
X117530001Y-126600000D02*
X121290001Y-126600000D01*
X121290001Y-119780000D02*
X121290001Y-121040000D01*
X121290001Y-126600000D02*
X121290001Y-125340000D01*
X116250001Y-119880000D02*
X116010001Y-119550000D01*
X116490001Y-119550000D01*
X116250001Y-119880000D01*
G36*
X116250001Y-119880000D02*
G01*
X116010001Y-119550000D01*
X116490001Y-119550000D01*
X116250001Y-119880000D01*
G37*
D11*
X143480001Y-129070000D02*
X143480001Y-124930000D01*
X148619999Y-129070000D02*
X148619999Y-124930000D01*
D15*
X143523081Y-129400000D02*
X143193081Y-129640000D01*
X143193081Y-129160000D01*
X143523081Y-129400000D01*
G36*
X143523081Y-129400000D02*
G01*
X143193081Y-129640000D01*
X143193081Y-129160000D01*
X143523081Y-129400000D01*
G37*
X90150000Y-97028000D02*
X96650000Y-97028000D01*
X90150000Y-115062000D02*
X90150000Y-97028000D01*
X90176000Y-115062000D02*
X95986000Y-115062000D01*
X94770000Y-115045000D02*
X96720000Y-115045001D01*
X94779999Y-97045000D02*
X94770000Y-115045000D01*
X96570000Y-97044999D02*
X94779999Y-97045000D01*
X118100000Y-97155000D02*
X116830000Y-97155000D01*
X118100000Y-97155000D02*
X118100000Y-114935000D01*
X118100000Y-102235000D02*
X119370000Y-102235000D01*
X118100000Y-114935000D02*
X116830000Y-114935000D01*
X119370000Y-102235000D02*
X119370000Y-109855000D01*
X119370000Y-109855000D02*
X118100000Y-109855000D01*
X117330000Y-96893000D02*
X116830000Y-96893000D01*
X116830000Y-96393000D01*
X117330000Y-96893000D01*
G36*
X117330000Y-96893000D02*
G01*
X116830000Y-96893000D01*
X116830000Y-96393000D01*
X117330000Y-96893000D01*
G37*
X181274800Y-110490000D02*
G75*
G02*
X177474800Y-110490000I-1900000J0D01*
G01*
X177474800Y-110490000D02*
G75*
G02*
X181274800Y-110490000I1900000J0D01*
G01*
X175401100Y-89162000D02*
X175201100Y-89362000D01*
X175401100Y-90162000D02*
X175201100Y-89962000D01*
X177501100Y-89162000D02*
X175401100Y-89162000D01*
X177501100Y-90162000D02*
X175401100Y-90162000D01*
X177546600Y-84542000D02*
X177546600Y-90170000D01*
X177546600Y-94782000D02*
X177546600Y-90170000D01*
X180677600Y-84542000D02*
X180677600Y-94782000D01*
X182187600Y-84542000D02*
X177546600Y-84542000D01*
X182187600Y-84542000D02*
X182187600Y-94782000D01*
X182187600Y-87812000D02*
X180677600Y-87812000D01*
X182187600Y-91513000D02*
X180677600Y-91513000D01*
X182187600Y-94782000D02*
X177546600Y-94782000D01*
X122535001Y-83665000D02*
X122630000Y-83665000D01*
X122535001Y-87785000D02*
X122535001Y-83665000D01*
X122630000Y-87785000D02*
X122535001Y-87785000D01*
X127560000Y-83665000D02*
X127654999Y-83665000D01*
X127654999Y-83665000D02*
X127654999Y-87785000D01*
X127654999Y-87785000D02*
X127560000Y-87785000D01*
X122625000Y-88325000D02*
X122295000Y-88565000D01*
X122295000Y-88085000D01*
X122625000Y-88325000D01*
G36*
X122625000Y-88325000D02*
G01*
X122295000Y-88565000D01*
X122295000Y-88085000D01*
X122625000Y-88325000D01*
G37*
M02*
