%TF.GenerationSoftware,KiCad,Pcbnew,9.0.6*%
%TF.CreationDate,2026-01-18T01:02:47+03:00*%
%TF.ProjectId,Backup power switch 12v Module,4261636b-7570-4207-906f-776572207377,rev?*%
%TF.SameCoordinates,Original*%
%TF.FileFunction,Soldermask,Top*%
%TF.FilePolarity,Negative*%
%FSLAX46Y46*%
G04 Gerber Fmt 4.6, Leading zero omitted, Abs format (unit mm)*
G04 Created by KiCad (PCBNEW 9.0.6) date 2026-01-18 01:02:47*
%MOMM*%
%LPD*%
G01*
G04 APERTURE LIST*
G04 Aperture macros list*
%AMRoundRect*
0 Rectangle with rounded corners*
0 $1 Rounding radius*
0 $2 $3 $4 $5 $6 $7 $8 $9 X,Y pos of 4 corners*
0 Add a 4 corners polygon primitive as box body*
4,1,4,$2,$3,$4,$5,$6,$7,$8,$9,$2,$3,0*
0 Add four circle primitives for the rounded corners*
1,1,$1+$1,$2,$3*
1,1,$1+$1,$4,$5*
1,1,$1+$1,$6,$7*
1,1,$1+$1,$8,$9*
0 Add four rect primitives between the rounded corners*
20,1,$1+$1,$2,$3,$4,$5,0*
20,1,$1+$1,$4,$5,$6,$7,0*
20,1,$1+$1,$6,$7,$8,$9,0*
20,1,$1+$1,$8,$9,$2,$3,0*%
G04 Aperture macros list end*
%ADD10RoundRect,0.237500X0.250000X0.237500X-0.250000X0.237500X-0.250000X-0.237500X0.250000X-0.237500X0*%
%ADD11RoundRect,0.249999X-0.450001X-1.425001X0.450001X-1.425001X0.450001X1.425001X-0.450001X1.425001X0*%
%ADD12RoundRect,0.250000X0.450000X-0.350000X0.450000X0.350000X-0.450000X0.350000X-0.450000X-0.350000X0*%
%ADD13RoundRect,0.250000X-0.625000X0.350000X-0.625000X-0.350000X0.625000X-0.350000X0.625000X0.350000X0*%
%ADD14O,1.750000X1.200000*%
%ADD15RoundRect,0.250000X1.000000X0.650000X-1.000000X0.650000X-1.000000X-0.650000X1.000000X-0.650000X0*%
%ADD16RoundRect,0.250000X0.350000X0.450000X-0.350000X0.450000X-0.350000X-0.450000X0.350000X-0.450000X0*%
%ADD17RoundRect,0.250000X0.550000X0.550000X-0.550000X0.550000X-0.550000X-0.550000X0.550000X-0.550000X0*%
%ADD18C,1.600000*%
%ADD19C,3.000000*%
%ADD20C,2.500000*%
%ADD21C,1.440000*%
%ADD22RoundRect,0.250000X-0.475000X0.337500X-0.475000X-0.337500X0.475000X-0.337500X0.475000X0.337500X0*%
%ADD23RoundRect,0.250000X-0.350000X-0.450000X0.350000X-0.450000X0.350000X0.450000X-0.350000X0.450000X0*%
%ADD24RoundRect,0.150000X0.150000X-0.587500X0.150000X0.587500X-0.150000X0.587500X-0.150000X-0.587500X0*%
%ADD25RoundRect,0.250001X0.944999X-0.507499X0.944999X0.507499X-0.944999X0.507499X-0.944999X-0.507499X0*%
%ADD26RoundRect,0.237500X-0.287500X-0.237500X0.287500X-0.237500X0.287500X0.237500X-0.287500X0.237500X0*%
%ADD27C,3.500000*%
%ADD28C,3.900000*%
%ADD29C,7.000000*%
%ADD30C,3.400000*%
%ADD31RoundRect,0.250000X-0.412500X-1.100000X0.412500X-1.100000X0.412500X1.100000X-0.412500X1.100000X0*%
%ADD32RoundRect,0.250000X-1.100000X0.412500X-1.100000X-0.412500X1.100000X-0.412500X1.100000X0.412500X0*%
%ADD33RoundRect,0.150000X0.150000X-0.825000X0.150000X0.825000X-0.150000X0.825000X-0.150000X-0.825000X0*%
%ADD34RoundRect,0.250001X1.499999X-0.949999X1.499999X0.949999X-1.499999X0.949999X-1.499999X-0.949999X0*%
%ADD35RoundRect,0.250000X0.475000X-0.337500X0.475000X0.337500X-0.475000X0.337500X-0.475000X-0.337500X0*%
%ADD36RoundRect,0.237500X-0.237500X0.287500X-0.237500X-0.287500X0.237500X-0.287500X0.237500X0.287500X0*%
%ADD37RoundRect,0.250000X0.337500X0.475000X-0.337500X0.475000X-0.337500X-0.475000X0.337500X-0.475000X0*%
%ADD38RoundRect,0.250000X-0.300000X0.300000X-0.300000X-0.300000X0.300000X-0.300000X0.300000X0.300000X0*%
%ADD39RoundRect,0.249999X1.425001X-0.450001X1.425001X0.450001X-1.425001X0.450001X-1.425001X-0.450001X0*%
%ADD40RoundRect,0.375000X-0.625000X-0.375000X0.625000X-0.375000X0.625000X0.375000X-0.625000X0.375000X0*%
%ADD41RoundRect,0.500000X-0.500000X-1.400000X0.500000X-1.400000X0.500000X1.400000X-0.500000X1.400000X0*%
%ADD42R,0.510000X1.100000*%
%ADD43C,1.500000*%
%ADD44RoundRect,0.381000X-0.381000X0.762000X-0.381000X-0.762000X0.381000X-0.762000X0.381000X0.762000X0*%
%ADD45RoundRect,0.381000X-0.381000X0.869000X-0.381000X-0.869000X0.381000X-0.869000X0.381000X0.869000X0*%
%ADD46R,2.000000X1.905000*%
%ADD47O,2.000000X1.905000*%
%ADD48C,2.000000*%
G04 APERTURE END LIST*
D10*
X141679300Y-105359200D03*
X139854300Y-105359200D03*
D11*
X111250000Y-76200000D03*
X117350000Y-76200000D03*
D12*
X151130000Y-124190000D03*
X151130000Y-122190000D03*
D13*
X94792800Y-78028800D03*
D14*
X94792800Y-80028800D03*
X94792800Y-82028800D03*
X94792800Y-84028800D03*
X94792800Y-86028800D03*
X94792800Y-88028800D03*
X94792800Y-90028800D03*
X94792800Y-92028800D03*
D15*
X155670001Y-132080000D03*
X151669999Y-132080000D03*
D16*
X166693600Y-103886000D03*
X164693600Y-103886000D03*
D17*
X132943600Y-105410000D03*
D18*
X132943600Y-102870000D03*
X125323600Y-102870000D03*
X125323600Y-105410000D03*
D19*
X161925000Y-79765000D03*
D20*
X155875000Y-81715000D03*
D19*
X155875000Y-93915000D03*
X167925000Y-93965000D03*
D20*
X167875000Y-81715000D03*
D21*
X105664000Y-82042000D03*
X108204000Y-82042000D03*
X110744000Y-82042000D03*
D22*
X139700000Y-123422500D03*
X139700000Y-125497500D03*
D23*
X164693600Y-108966000D03*
X166693600Y-108966000D03*
D24*
X144540000Y-120650000D03*
X146440000Y-120650000D03*
X145490000Y-118774999D03*
D25*
X106680000Y-128985000D03*
X106680000Y-125730000D03*
D26*
X139862500Y-110490000D03*
X141612500Y-110490000D03*
D15*
X168268401Y-120650000D03*
X164268399Y-120650000D03*
D27*
X107950000Y-70040000D03*
X115570000Y-70040000D03*
D12*
X111760000Y-97250000D03*
X111760000Y-95250000D03*
D27*
X156210000Y-70040000D03*
X163830000Y-70040000D03*
D25*
X111759999Y-128985000D03*
X111759999Y-125730000D03*
D28*
X177410000Y-62230000D03*
D29*
X177410000Y-62230000D03*
D17*
X161742200Y-112776000D03*
D18*
X161742200Y-110236000D03*
X161742200Y-107696000D03*
X161742200Y-105156000D03*
X154122200Y-105156000D03*
X154122200Y-107696000D03*
X154122200Y-110236000D03*
X154122200Y-112776000D03*
D12*
X139700000Y-130540000D03*
X139700000Y-128540000D03*
D17*
X132943600Y-113030000D03*
D18*
X132943600Y-110490000D03*
X125323600Y-110490000D03*
X125323600Y-113030000D03*
D28*
X177800000Y-133350000D03*
D29*
X177800000Y-133350000D03*
D23*
X164693600Y-106426000D03*
X166693600Y-106426000D03*
D24*
X150815000Y-101267500D03*
X152715000Y-101267500D03*
X151765000Y-99392499D03*
D23*
X164693600Y-111506000D03*
X166693600Y-111506000D03*
D30*
X179374800Y-108966000D03*
D31*
X128993500Y-126492000D03*
X132118500Y-126492000D03*
D11*
X131570000Y-77470000D03*
X137670000Y-77470000D03*
D16*
X166677600Y-101092000D03*
X164677600Y-101092000D03*
D32*
X154990800Y-123100700D03*
X154990800Y-126225700D03*
D27*
X128270000Y-70040000D03*
X135890000Y-70040000D03*
D33*
X116078000Y-88200000D03*
X117348000Y-88200000D03*
X118618000Y-88200000D03*
X119888000Y-88200000D03*
X119888000Y-83250000D03*
X118618000Y-83250000D03*
X117348000Y-83250000D03*
X116078000Y-83250000D03*
D34*
X168275000Y-131270000D03*
X168275000Y-125270000D03*
D35*
X102870000Y-128395000D03*
X102870000Y-126320000D03*
D28*
X94860000Y-62230000D03*
D29*
X94860000Y-62230000D03*
D35*
X135890000Y-130577500D03*
X135890000Y-128502500D03*
D21*
X137160000Y-83820000D03*
X139700000Y-83820000D03*
X142240000Y-83820000D03*
D28*
X94860000Y-133350000D03*
D29*
X94860000Y-133350000D03*
D12*
X114300000Y-97250000D03*
X114300000Y-95250000D03*
D16*
X141716000Y-113538000D03*
X139716000Y-113538000D03*
D36*
X173736000Y-100521801D03*
X173736000Y-102271799D03*
D37*
X141775000Y-100330000D03*
X139700000Y-100330000D03*
D35*
X151130000Y-112746700D03*
X151130000Y-110671700D03*
D26*
X139862500Y-102870000D03*
X141612500Y-102870000D03*
D32*
X135890000Y-122897500D03*
X135890000Y-126022500D03*
D38*
X150495000Y-82420001D03*
X150495000Y-85219999D03*
D39*
X160020000Y-128780000D03*
X160020000Y-122680000D03*
D30*
X179374800Y-122682000D03*
D40*
X116230000Y-125970000D03*
X116230000Y-128270000D03*
X116230000Y-130570000D03*
D41*
X122530000Y-128270000D03*
D42*
X144050000Y-129550000D03*
X145050000Y-129550000D03*
X146050000Y-129550000D03*
X147050000Y-129550000D03*
X148050000Y-129550000D03*
X148050000Y-124450000D03*
X147050000Y-124450000D03*
X146050000Y-124450000D03*
X145050000Y-124450000D03*
X144050000Y-124450000D03*
D43*
X97780000Y-118000000D03*
D44*
X97790000Y-119380000D03*
D43*
X100320000Y-118000000D03*
D44*
X100330000Y-119380000D03*
D43*
X102860000Y-118000000D03*
D44*
X102870000Y-119380000D03*
D43*
X105400000Y-118000000D03*
D44*
X105409999Y-119380000D03*
D43*
X107940000Y-118000000D03*
D44*
X107950000Y-119380000D03*
D45*
X115570000Y-101380000D03*
D43*
X115560000Y-102760000D03*
D45*
X113030000Y-101380000D03*
D43*
X113020000Y-102746000D03*
D45*
X110490000Y-101380000D03*
D43*
X110480000Y-102746000D03*
D45*
X107950000Y-101380000D03*
D43*
X107940000Y-102746000D03*
D45*
X105409999Y-101380000D03*
D43*
X105400000Y-102746000D03*
D45*
X102870000Y-101380000D03*
D43*
X102860000Y-102746000D03*
D45*
X100330000Y-101380000D03*
D43*
X100320000Y-102746000D03*
D45*
X97790000Y-101380000D03*
D43*
X97780000Y-102746000D03*
X110480000Y-118000000D03*
D44*
X110490000Y-119380000D03*
D43*
X115560000Y-118000000D03*
D44*
X115570000Y-119380000D03*
D43*
X113020000Y-118000000D03*
D44*
X113030000Y-119380000D03*
D30*
X179374800Y-115824000D03*
D46*
X178917600Y-87122000D03*
D47*
X173891600Y-89662000D03*
X178917600Y-92202000D03*
D33*
X123190000Y-88200000D03*
X124460000Y-88200000D03*
X125730000Y-88200000D03*
X127000000Y-88200000D03*
X127000000Y-83250000D03*
X125730000Y-83250000D03*
X124460000Y-83250000D03*
X123190000Y-83250000D03*
D48*
X117350000Y-76200000D02*
X118620000Y-77470000D01*
X118620000Y-77470000D02*
X121285000Y-77470000D01*
X144272000Y-77470000D02*
X144526000Y-77216000D01*
X137670000Y-77470000D02*
X144272000Y-77470000D01*
M02*
