%TF.GenerationSoftware,KiCad,Pcbnew,9.0.6*%
%TF.CreationDate,2026-01-18T01:02:47+03:00*%
%TF.ProjectId,Backup power switch 12v Module,4261636b-7570-4207-906f-776572207377,rev?*%
%TF.SameCoordinates,Original*%
%TF.FileFunction,Soldermask,Bot*%
%TF.FilePolarity,Negative*%
%FSLAX46Y46*%
G04 Gerber Fmt 4.6, Leading zero omitted, Abs format (unit mm)*
G04 Created by KiCad (PCBNEW 9.0.6) date 2026-01-18 01:02:47*
%MOMM*%
%LPD*%
G01*
G04 APERTURE LIST*
G04 Aperture macros list*
%AMRoundRect*
0 Rectangle with rounded corners*
0 $1 Rounding radius*
0 $2 $3 $4 $5 $6 $7 $8 $9 X,Y pos of 4 corners*
0 Add a 4 corners polygon primitive as box body*
4,1,4,$2,$3,$4,$5,$6,$7,$8,$9,$2,$3,0*
0 Add four circle primitives for the rounded corners*
1,1,$1+$1,$2,$3*
1,1,$1+$1,$4,$5*
1,1,$1+$1,$6,$7*
1,1,$1+$1,$8,$9*
0 Add four rect primitives between the rounded corners*
20,1,$1+$1,$2,$3,$4,$5,0*
20,1,$1+$1,$4,$5,$6,$7,0*
20,1,$1+$1,$6,$7,$8,$9,0*
20,1,$1+$1,$8,$9,$2,$3,0*%
G04 Aperture macros list end*
%ADD10RoundRect,0.250000X-0.625000X0.350000X-0.625000X-0.350000X0.625000X-0.350000X0.625000X0.350000X0*%
%ADD11O,1.750000X1.200000*%
%ADD12RoundRect,0.250000X0.550000X0.550000X-0.550000X0.550000X-0.550000X-0.550000X0.550000X-0.550000X0*%
%ADD13C,1.600000*%
%ADD14C,3.000000*%
%ADD15C,2.500000*%
%ADD16C,1.440000*%
%ADD17C,3.500000*%
%ADD18C,3.900000*%
%ADD19C,7.000000*%
%ADD20C,3.400000*%
%ADD21C,1.500000*%
%ADD22R,2.000000X1.905000*%
%ADD23O,2.000000X1.905000*%
%ADD24C,2.000000*%
%ADD25C,1.500000*%
G04 APERTURE END LIST*
D10*
X94792800Y-78028800D03*
D11*
X94792800Y-80028800D03*
X94792800Y-82028800D03*
X94792800Y-84028800D03*
X94792800Y-86028800D03*
X94792800Y-88028800D03*
X94792800Y-90028800D03*
X94792800Y-92028800D03*
D12*
X132943600Y-105410000D03*
D13*
X132943600Y-102870000D03*
X125323600Y-102870000D03*
X125323600Y-105410000D03*
D14*
X161925000Y-79765000D03*
D15*
X155875000Y-81715000D03*
D14*
X155875000Y-93915000D03*
X167925000Y-93965000D03*
D15*
X167875000Y-81715000D03*
D16*
X105664000Y-82042000D03*
X108204000Y-82042000D03*
X110744000Y-82042000D03*
D17*
X107950000Y-70040000D03*
X115570000Y-70040000D03*
X156210000Y-70040000D03*
X163830000Y-70040000D03*
D18*
X177410000Y-62230000D03*
D19*
X177410000Y-62230000D03*
D12*
X161742200Y-112776000D03*
D13*
X161742200Y-110236000D03*
X161742200Y-107696000D03*
X161742200Y-105156000D03*
X154122200Y-105156000D03*
X154122200Y-107696000D03*
X154122200Y-110236000D03*
X154122200Y-112776000D03*
D12*
X132943600Y-113030000D03*
D13*
X132943600Y-110490000D03*
X125323600Y-110490000D03*
X125323600Y-113030000D03*
D18*
X177800000Y-133350000D03*
D19*
X177800000Y-133350000D03*
D20*
X179374800Y-108966000D03*
D17*
X128270000Y-70040000D03*
X135890000Y-70040000D03*
D18*
X94860000Y-62230000D03*
D19*
X94860000Y-62230000D03*
D16*
X137160000Y-83820000D03*
X139700000Y-83820000D03*
X142240000Y-83820000D03*
D18*
X94860000Y-133350000D03*
D19*
X94860000Y-133350000D03*
D20*
X179374800Y-122682000D03*
D21*
X97780000Y-118000000D03*
X100320000Y-118000000D03*
X102860000Y-118000000D03*
X105400000Y-118000000D03*
X107940000Y-118000000D03*
X115560000Y-102760000D03*
X113020000Y-102746000D03*
X110480000Y-102746000D03*
X107940000Y-102746000D03*
X105400000Y-102746000D03*
X102860000Y-102746000D03*
X100320000Y-102746000D03*
X97780000Y-102746000D03*
X110480000Y-118000000D03*
X115560000Y-118000000D03*
X113020000Y-118000000D03*
D20*
X179374800Y-115824000D03*
D22*
X178917600Y-87122000D03*
D23*
X173891600Y-89662000D03*
X178917600Y-92202000D03*
D24*
X165916000Y-79756000D02*
X162052000Y-79756000D01*
X163830000Y-77670000D02*
X167875000Y-81715000D01*
X163830000Y-70040000D02*
X163830000Y-77670000D01*
X163195000Y-100965000D02*
X156145000Y-93915000D01*
X144780000Y-93915000D02*
X137730000Y-93915000D01*
X144780000Y-93915000D02*
X155875000Y-93915000D01*
X178917600Y-92227400D02*
X170180000Y-100965000D01*
X137730000Y-93915000D02*
X121285000Y-77470000D01*
X170180000Y-100965000D02*
X163195000Y-100965000D01*
X178917600Y-92202000D02*
X178917600Y-92227400D01*
X167925000Y-91471000D02*
X167925000Y-93965000D01*
X150495000Y-86360000D02*
X144526000Y-80391000D01*
D25*
X176225200Y-84429600D02*
X178917600Y-87122000D01*
D24*
X167894000Y-93934000D02*
X167925000Y-93965000D01*
X167894000Y-91440000D02*
X167925000Y-91471000D01*
D25*
X172872400Y-84429600D02*
X176225200Y-84429600D01*
X167925000Y-89377000D02*
X172872400Y-84429600D01*
D24*
X162814000Y-86360000D02*
X167894000Y-91440000D01*
X167894000Y-91440000D02*
X167894000Y-93934000D01*
X162814000Y-86360000D02*
X150495000Y-86360000D01*
X144526000Y-80391000D02*
X144526000Y-77216000D01*
M02*
