%TF.GenerationSoftware,KiCad,Pcbnew,10.0.1*%
%TF.CreationDate,2026-05-03T00:07:23+03:00*%
%TF.ProjectId,Backup power switch 12v Module,4261636b-7570-4207-906f-776572207377,rev?*%
%TF.SameCoordinates,Original*%
%TF.FileFunction,Soldermask,Top*%
%TF.FilePolarity,Negative*%
%FSLAX46Y46*%
G04 Gerber Fmt 4.6, Leading zero omitted, Abs format (unit mm)*
G04 Created by KiCad (PCBNEW 10.0.1) date 2026-05-03 00:07:23*
%MOMM*%
%LPD*%
G01*
G04 APERTURE LIST*
G04 Aperture macros list*
%AMRoundRect*
0 Rectangle with rounded corners*
0 $1 Rounding radius*
0 $2 $3 $4 $5 $6 $7 $8 $9 X,Y pos of 4 corners*
0 Add a 4 corners polygon primitive as box body*
4,1,4,$2,$3,$4,$5,$6,$7,$8,$9,$2,$3,0*
0 Add four circle primitives for the rounded corners*
1,1,$1+$1,$2,$3*
1,1,$1+$1,$4,$5*
1,1,$1+$1,$6,$7*
1,1,$1+$1,$8,$9*
0 Add four rect primitives between the rounded corners*
20,1,$1+$1,$2,$3,$4,$5,0*
20,1,$1+$1,$4,$5,$6,$7,0*
20,1,$1+$1,$6,$7,$8,$9,0*
20,1,$1+$1,$8,$9,$2,$3,0*%
G04 Aperture macros list end*
%ADD10RoundRect,0.249999X-0.450001X-1.425001X0.450001X-1.425001X0.450001X1.425001X-0.450001X1.425001X0*%
%ADD11RoundRect,0.250000X0.450000X-0.350000X0.450000X0.350000X-0.450000X0.350000X-0.450000X-0.350000X0*%
%ADD12RoundRect,0.250000X-0.625000X0.350000X-0.625000X-0.350000X0.625000X-0.350000X0.625000X0.350000X0*%
%ADD13O,1.750000X1.200000*%
%ADD14RoundRect,0.250000X1.000000X0.650000X-1.000000X0.650000X-1.000000X-0.650000X1.000000X-0.650000X0*%
%ADD15C,3.400000*%
%ADD16RoundRect,0.250000X0.550000X0.550000X-0.550000X0.550000X-0.550000X-0.550000X0.550000X-0.550000X0*%
%ADD17C,1.600000*%
%ADD18R,1.700000X1.700000*%
%ADD19C,1.700000*%
%ADD20C,3.000000*%
%ADD21C,2.500000*%
%ADD22RoundRect,0.250000X-0.475000X0.337500X-0.475000X-0.337500X0.475000X-0.337500X0.475000X0.337500X0*%
%ADD23RoundRect,0.250000X-0.350000X-0.450000X0.350000X-0.450000X0.350000X0.450000X-0.350000X0.450000X0*%
%ADD24RoundRect,0.150000X0.150000X-0.587500X0.150000X0.587500X-0.150000X0.587500X-0.150000X-0.587500X0*%
%ADD25RoundRect,0.250001X0.944999X-0.507499X0.944999X0.507499X-0.944999X0.507499X-0.944999X-0.507499X0*%
%ADD26RoundRect,0.237500X0.287500X0.237500X-0.287500X0.237500X-0.287500X-0.237500X0.287500X-0.237500X0*%
%ADD27C,3.500000*%
%ADD28C,3.900000*%
%ADD29C,7.000000*%
%ADD30RoundRect,0.250000X0.350000X0.625000X-0.350000X0.625000X-0.350000X-0.625000X0.350000X-0.625000X0*%
%ADD31O,1.200000X1.750000*%
%ADD32RoundRect,0.200000X0.200000X-0.750000X0.200000X0.750000X-0.200000X0.750000X-0.200000X-0.750000X0*%
%ADD33RoundRect,0.250000X0.350000X0.450000X-0.350000X0.450000X-0.350000X-0.450000X0.350000X-0.450000X0*%
%ADD34RoundRect,0.250000X0.650000X-0.412500X0.650000X0.412500X-0.650000X0.412500X-0.650000X-0.412500X0*%
%ADD35R,3.500000X3.500000*%
%ADD36RoundRect,0.750000X0.750000X1.000000X-0.750000X1.000000X-0.750000X-1.000000X0.750000X-1.000000X0*%
%ADD37RoundRect,0.875000X0.875000X0.875000X-0.875000X0.875000X-0.875000X-0.875000X0.875000X-0.875000X0*%
%ADD38RoundRect,0.250000X-1.100000X0.412500X-1.100000X-0.412500X1.100000X-0.412500X1.100000X0.412500X0*%
%ADD39RoundRect,0.150000X0.150000X-0.825000X0.150000X0.825000X-0.150000X0.825000X-0.150000X-0.825000X0*%
%ADD40RoundRect,0.250001X1.499999X-0.949999X1.499999X0.949999X-1.499999X0.949999X-1.499999X-0.949999X0*%
%ADD41RoundRect,0.250000X0.475000X-0.337500X0.475000X0.337500X-0.475000X0.337500X-0.475000X-0.337500X0*%
%ADD42RoundRect,0.237500X-0.287500X-0.237500X0.287500X-0.237500X0.287500X0.237500X-0.287500X0.237500X0*%
%ADD43RoundRect,0.250000X0.650000X-1.000000X0.650000X1.000000X-0.650000X1.000000X-0.650000X-1.000000X0*%
%ADD44RoundRect,0.249999X1.425001X-0.450001X1.425001X0.450001X-1.425001X0.450001X-1.425001X-0.450001X0*%
%ADD45RoundRect,0.375000X-0.625000X-0.375000X0.625000X-0.375000X0.625000X0.375000X-0.625000X0.375000X0*%
%ADD46RoundRect,0.500000X-0.500000X-1.400000X0.500000X-1.400000X0.500000X1.400000X-0.500000X1.400000X0*%
%ADD47R,0.510000X1.100000*%
%ADD48C,1.500000*%
%ADD49RoundRect,0.381000X0.381000X-0.762000X0.381000X0.762000X-0.381000X0.762000X-0.381000X-0.762000X0*%
%ADD50RoundRect,0.381000X0.381000X-0.869000X0.381000X0.869000X-0.381000X0.869000X-0.381000X-0.869000X0*%
%ADD51R,1.905000X2.000000*%
%ADD52O,1.905000X2.000000*%
G04 APERTURE END LIST*
D10*
X111250000Y-78105000D03*
X117350000Y-78105000D03*
D11*
X150368000Y-124444000D03*
X150368000Y-122444000D03*
D12*
X92837000Y-78105000D03*
D13*
X92837000Y-80105000D03*
X92837000Y-82105000D03*
X92837000Y-84105000D03*
X92837000Y-86105000D03*
X92837000Y-88105000D03*
X92837000Y-90105000D03*
X92837000Y-92105000D03*
D14*
X155670001Y-130810000D03*
X151669999Y-130810000D03*
D15*
X170053000Y-101600000D03*
D16*
X130048000Y-94361000D03*
D17*
X130048000Y-91821000D03*
X122428000Y-91821000D03*
X122428000Y-94361000D03*
D18*
X139954000Y-103251000D03*
D19*
X137414000Y-103251000D03*
X139954000Y-100711000D03*
X137414000Y-100711000D03*
D20*
X159385000Y-78740000D03*
D21*
X153335000Y-80690000D03*
D20*
X153335000Y-92890000D03*
X165385000Y-92940000D03*
D21*
X165335000Y-80690000D03*
D22*
X139700000Y-123422500D03*
X139700000Y-125497500D03*
D15*
X151257000Y-112080000D03*
D23*
X137750000Y-94996000D03*
X139750000Y-94996000D03*
D24*
X141163000Y-120317500D03*
X143063000Y-120317500D03*
X142113000Y-118442500D03*
D25*
X122174000Y-116943500D03*
X122174000Y-113688500D03*
D26*
X124573000Y-107061000D03*
X122823000Y-107061000D03*
D14*
X157575001Y-119380000D03*
X153574999Y-119380000D03*
D11*
X99568000Y-91424000D03*
X99568000Y-89424000D03*
D27*
X156210000Y-71005200D03*
X163830000Y-71005200D03*
D25*
X126492000Y-116943500D03*
X126492000Y-113688500D03*
D28*
X178689000Y-63500000D03*
D29*
X178689000Y-63500000D03*
D11*
X139700000Y-130540000D03*
X139700000Y-128540000D03*
D30*
X117221000Y-128778000D03*
D31*
X115221000Y-128778000D03*
X113221000Y-128778000D03*
X111221000Y-128778000D03*
X109221000Y-128778000D03*
X107221000Y-128778000D03*
X105221000Y-128778000D03*
X103221000Y-128778000D03*
D16*
X130175000Y-101219000D03*
D17*
X130175000Y-98679000D03*
X122555000Y-98679000D03*
X122555000Y-101219000D03*
D15*
X147701000Y-75438000D03*
D28*
X178562000Y-129540000D03*
D29*
X178562000Y-129540000D03*
D23*
X137684000Y-92202000D03*
X139684000Y-92202000D03*
D32*
X138054000Y-84812000D03*
X139954000Y-84812000D03*
X139004000Y-81812000D03*
D33*
X129524000Y-104775000D03*
X127524000Y-104775000D03*
D23*
X127524000Y-107061000D03*
X129524000Y-107061000D03*
D34*
X131572000Y-116878500D03*
X131572000Y-113753500D03*
D10*
X131570000Y-77470000D03*
X137670000Y-77470000D03*
D35*
X174749200Y-118872000D03*
D36*
X180749200Y-119598000D03*
D37*
X177749200Y-114172000D03*
D33*
X139969200Y-87595200D03*
X137969200Y-87595200D03*
D35*
X174749200Y-78232000D03*
D36*
X180749200Y-78232000D03*
D37*
X177749200Y-73532000D03*
D38*
X156972000Y-124167500D03*
X156972000Y-127292500D03*
D27*
X112369600Y-71069200D03*
X119989600Y-71069200D03*
X127609600Y-71069200D03*
X135229600Y-71069200D03*
D39*
X108331000Y-89089000D03*
X109601000Y-89089000D03*
X110871000Y-89089000D03*
X112141000Y-89089000D03*
X112141000Y-84139000D03*
X110871000Y-84139000D03*
X109601000Y-84139000D03*
X108331000Y-84139000D03*
D15*
X151257000Y-101600000D03*
D40*
X167132000Y-131270000D03*
X167132000Y-125270000D03*
D41*
X121158000Y-122703500D03*
X121158000Y-120628500D03*
D28*
X93980000Y-63500000D03*
D29*
X93980000Y-63500000D03*
D41*
X135890000Y-130577500D03*
X135890000Y-128502500D03*
D28*
X93980000Y-129540000D03*
D29*
X93980000Y-129540000D03*
D11*
X103505000Y-91424000D03*
X103505000Y-89424000D03*
D23*
X122698000Y-109347000D03*
X124698000Y-109347000D03*
D35*
X174749200Y-105325333D03*
D36*
X180749200Y-105325333D03*
D37*
X177749200Y-100625333D03*
D15*
X127965200Y-130403600D03*
D35*
X174749200Y-91778667D03*
D36*
X180749200Y-91778667D03*
D37*
X177749200Y-87078667D03*
D42*
X137976600Y-89779600D03*
X139726600Y-89779600D03*
D15*
X170053000Y-112080000D03*
D22*
X153416000Y-124946500D03*
X153416000Y-127021500D03*
D26*
X124573000Y-104775000D03*
X122823000Y-104775000D03*
D38*
X135890000Y-122389500D03*
X135890000Y-125514500D03*
D43*
X146685000Y-85693001D03*
X146685000Y-81692999D03*
D44*
X161036000Y-128780000D03*
X161036000Y-122680000D03*
D15*
X103124000Y-75184000D03*
D45*
X124358000Y-120890000D03*
X124358000Y-123190000D03*
X124358000Y-125490000D03*
D46*
X130658000Y-123190000D03*
D47*
X144050000Y-129550000D03*
X145050000Y-129550000D03*
X146050000Y-129550000D03*
X147050000Y-129550000D03*
X148050000Y-129550000D03*
X148050000Y-124450000D03*
X147050000Y-124450000D03*
X146050000Y-124450000D03*
X145050000Y-124450000D03*
X144050000Y-124450000D03*
D48*
X109601000Y-102108000D03*
D49*
X109591000Y-100728000D03*
D48*
X107061000Y-102108000D03*
D49*
X107051000Y-100728000D03*
D48*
X104521000Y-102108000D03*
D49*
X104511000Y-100728000D03*
D48*
X101981000Y-102108000D03*
D49*
X101971000Y-100728000D03*
D48*
X99441000Y-102108000D03*
D49*
X99431000Y-100728000D03*
D50*
X91811000Y-118728000D03*
D48*
X91821000Y-117348000D03*
D50*
X94351000Y-118728000D03*
D48*
X94361000Y-117362000D03*
D50*
X96891000Y-118728000D03*
D48*
X96901000Y-117362000D03*
D50*
X99431000Y-118728000D03*
D48*
X99441000Y-117362000D03*
D50*
X101971000Y-118728000D03*
D48*
X101981000Y-117362000D03*
D50*
X104511000Y-118728000D03*
D48*
X104521000Y-117362000D03*
D50*
X107051000Y-118728000D03*
D48*
X107061000Y-117362000D03*
D50*
X109591000Y-118728000D03*
D48*
X109601000Y-117362000D03*
X96901000Y-102108000D03*
D49*
X96891000Y-100728000D03*
D48*
X91821000Y-102108000D03*
D49*
X91811000Y-100728000D03*
D48*
X94361000Y-102108000D03*
D49*
X94351000Y-100728000D03*
D15*
X103174800Y-64058800D03*
D51*
X161645600Y-105816400D03*
D52*
X159105600Y-100790400D03*
X156565601Y-105816400D03*
D39*
X115570000Y-89216000D03*
X116840000Y-89216000D03*
X118110000Y-89216000D03*
X119380000Y-89216000D03*
X119380000Y-84266000D03*
X118110000Y-84266000D03*
X116840000Y-84266000D03*
X115570000Y-84266000D03*
M02*
