%TF.GenerationSoftware,KiCad,Pcbnew,9.0.6*%
%TF.CreationDate,2026-01-21T01:22:50+03:00*%
%TF.ProjectId,Backup power switch 12v Module,4261636b-7570-4207-906f-776572207377,rev?*%
%TF.SameCoordinates,Original*%
%TF.FileFunction,Soldermask,Bot*%
%TF.FilePolarity,Negative*%
%FSLAX46Y46*%
G04 Gerber Fmt 4.6, Leading zero omitted, Abs format (unit mm)*
G04 Created by KiCad (PCBNEW 9.0.6) date 2026-01-21 01:22:50*
%MOMM*%
%LPD*%
G01*
G04 APERTURE LIST*
G04 Aperture macros list*
%AMRoundRect*
0 Rectangle with rounded corners*
0 $1 Rounding radius*
0 $2 $3 $4 $5 $6 $7 $8 $9 X,Y pos of 4 corners*
0 Add a 4 corners polygon primitive as box body*
4,1,4,$2,$3,$4,$5,$6,$7,$8,$9,$2,$3,0*
0 Add four circle primitives for the rounded corners*
1,1,$1+$1,$2,$3*
1,1,$1+$1,$4,$5*
1,1,$1+$1,$6,$7*
1,1,$1+$1,$8,$9*
0 Add four rect primitives between the rounded corners*
20,1,$1+$1,$2,$3,$4,$5,0*
20,1,$1+$1,$4,$5,$6,$7,0*
20,1,$1+$1,$6,$7,$8,$9,0*
20,1,$1+$1,$8,$9,$2,$3,0*%
G04 Aperture macros list end*
%ADD10C,2.400000*%
%ADD11O,2.400000X2.400000*%
%ADD12RoundRect,0.250000X-0.625000X0.350000X-0.625000X-0.350000X0.625000X-0.350000X0.625000X0.350000X0*%
%ADD13O,1.750000X1.200000*%
%ADD14RoundRect,0.250000X0.550000X0.550000X-0.550000X0.550000X-0.550000X-0.550000X0.550000X-0.550000X0*%
%ADD15C,1.600000*%
%ADD16C,3.000000*%
%ADD17C,2.500000*%
%ADD18C,1.440000*%
%ADD19C,3.500000*%
%ADD20RoundRect,0.249999X-0.850001X-0.850001X0.850001X-0.850001X0.850001X0.850001X-0.850001X0.850001X0*%
%ADD21C,2.200000*%
%ADD22C,3.900000*%
%ADD23C,7.000000*%
%ADD24C,3.400000*%
%ADD25C,1.500000*%
%ADD26R,2.000000X1.905000*%
%ADD27O,2.000000X1.905000*%
%ADD28C,2.000000*%
%ADD29C,1.500000*%
G04 APERTURE END LIST*
D10*
X104140000Y-70595000D03*
D11*
X104140000Y-65515001D03*
D12*
X94792800Y-78028800D03*
D13*
X94792800Y-80028800D03*
X94792800Y-82028800D03*
X94792800Y-84028800D03*
X94792800Y-86028800D03*
X94792800Y-88028800D03*
X94792800Y-90028800D03*
X94792800Y-92028800D03*
D14*
X131445000Y-105410000D03*
D15*
X131445000Y-102870000D03*
X123825000Y-102870000D03*
X123825000Y-105410000D03*
D16*
X161925000Y-79765000D03*
D17*
X155875000Y-81715000D03*
D16*
X155875000Y-93915000D03*
X167925000Y-93965000D03*
D17*
X167875000Y-81715000D03*
D18*
X106680000Y-83820000D03*
X109220000Y-83820000D03*
X111760000Y-83820000D03*
D19*
X156210000Y-71005200D03*
X163830000Y-71005200D03*
D20*
X162192350Y-114935000D03*
D21*
X169812350Y-114935000D03*
D22*
X177698400Y-66395600D03*
D23*
X177698400Y-66395600D03*
D14*
X157475000Y-113030000D03*
D15*
X157475000Y-110490000D03*
X157475000Y-107950000D03*
X157475000Y-105410000D03*
X149855000Y-105410000D03*
X149855000Y-107950000D03*
X149855000Y-110490000D03*
X149855000Y-113030000D03*
D14*
X131445000Y-113030000D03*
D15*
X131445000Y-110490000D03*
X123825000Y-110490000D03*
X123825000Y-113030000D03*
D24*
X179705000Y-76200000D03*
D22*
X177800000Y-129540000D03*
D23*
X177800000Y-129540000D03*
D24*
X179374800Y-102870000D03*
D19*
X112369600Y-71069200D03*
X119989600Y-71069200D03*
X127609600Y-71069200D03*
X135229600Y-71069200D03*
D22*
X94843600Y-66040000D03*
D23*
X94843600Y-66040000D03*
D18*
X137160000Y-83820000D03*
X139700000Y-83820000D03*
X142240000Y-83820000D03*
D22*
X94860000Y-129540000D03*
D23*
X94860000Y-129540000D03*
D24*
X179374800Y-118110000D03*
D25*
X97780000Y-113665000D03*
X100320000Y-113665000D03*
X102860000Y-113665000D03*
X105400000Y-113665000D03*
X107940000Y-113665000D03*
X115560000Y-98425000D03*
X113020000Y-98411000D03*
X110480000Y-98411000D03*
X107940000Y-98411000D03*
X105400000Y-98411000D03*
X102860000Y-98411000D03*
X100320000Y-98411000D03*
X97780000Y-98411000D03*
X110480000Y-113665000D03*
X115560000Y-113665000D03*
X113020000Y-113665000D03*
D24*
X179374800Y-110490000D03*
D26*
X178917600Y-87122000D03*
D27*
X173891600Y-89662000D03*
X178917600Y-92202000D03*
D28*
X144780000Y-77470000D02*
X154305000Y-86995000D01*
X144272000Y-77470000D02*
X144780000Y-77470000D01*
X154305000Y-86995000D02*
X165543000Y-86995000D01*
X165543000Y-86995000D02*
X167925000Y-89377000D01*
X163830000Y-71005200D02*
X163830000Y-77670000D01*
X165916000Y-79756000D02*
X162052000Y-79756000D01*
X163830000Y-77670000D02*
X167875000Y-81715000D01*
X163195000Y-100965000D02*
X156145000Y-93915000D01*
X144780000Y-93915000D02*
X137730000Y-93915000D01*
X144780000Y-93915000D02*
X155875000Y-93915000D01*
X178917600Y-92227400D02*
X170180000Y-100965000D01*
X137730000Y-93915000D02*
X121285000Y-77470000D01*
X170180000Y-100965000D02*
X163195000Y-100965000D01*
X178917600Y-92202000D02*
X178917600Y-92227400D01*
X167925000Y-91471000D02*
X167925000Y-93965000D01*
X167894000Y-93934000D02*
X167925000Y-93965000D01*
X167894000Y-91440000D02*
X167925000Y-91471000D01*
D29*
X172212000Y-85090000D02*
X176885600Y-85090000D01*
D28*
X167894000Y-89408000D02*
X167894000Y-91440000D01*
D29*
X167925000Y-89377000D02*
X172212000Y-85090000D01*
X176885600Y-85090000D02*
X178917600Y-87122000D01*
D28*
X167894000Y-91440000D02*
X167894000Y-93934000D01*
X167925000Y-89377000D02*
X167894000Y-89408000D01*
M02*
