M48
; DRILL file {KiCad 9.0.6} date 2026-01-18T01:02:45+0300
; FORMAT={-:-/ absolute / metric / decimal}
; #@! TF.CreationDate,2026-01-18T01:02:45+03:00
; #@! TF.GenerationSoftware,Kicad,Pcbnew,9.0.6
; #@! TF.FileFunction,Plated,1,2,PTH
FMAT,2
METRIC
; #@! TA.AperFunction,Plated,PTH,ViaDrill
T1C0.300
; #@! TA.AperFunction,Plated,PTH,ViaDrill
T2C0.600
; #@! TA.AperFunction,Plated,PTH,ComponentDrill
T3C0.750
; #@! TA.AperFunction,Plated,PTH,ComponentDrill
T4C0.800
; #@! TA.AperFunction,Plated,PTH,ComponentDrill
T5C0.850
; #@! TA.AperFunction,Plated,PTH,ComponentDrill
T6C1.000
; #@! TA.AperFunction,Plated,PTH,ComponentDrill
T7C1.100
; #@! TA.AperFunction,Plated,PTH,ComponentDrill
T8C1.200
; #@! TA.AperFunction,Plated,PTH,ComponentDrill
T9C1.300
; #@! TA.AperFunction,Plated,PTH,ViaDrill
T10C1.500
; #@! TA.AperFunction,Plated,PTH,ComponentDrill
T11C1.600
; #@! TA.AperFunction,Plated,PTH,ComponentDrill
T12C1.850
; #@! TA.AperFunction,Plated,PTH,ComponentDrill
T13C3.500
%
G90
G05
T1
X115.57Y-90.805
X117.475Y-85.725
X118.821Y-97.25
X120.142Y-90.805
X123.825Y-85.725
X125.882Y-90.805
X128.27Y-79.375
X130.302Y-129.032
X136.296Y-101.905
X137.414Y-120.65
X139.7Y-97.028
X142.494Y-118.745
X144.78Y-93.915
X146.05Y-130.81
X147.32Y-130.81
X147.955Y-120.65
X149.86Y-98.425
X150.012Y-101.6
X153.924Y-100.178
X158.293Y-101.6
T2
X129.286Y-98.806
X154.457Y-120.269
T3
X94.793Y-78.029
X94.793Y-80.029
X94.793Y-82.029
X94.793Y-84.029
X94.793Y-86.029
X94.793Y-88.029
X94.793Y-90.029
X94.793Y-92.029
T4
X105.664Y-82.042
X108.204Y-82.042
X110.744Y-82.042
X125.324Y-102.87
X125.324Y-105.41
X125.324Y-110.49
X125.324Y-113.03
X132.944Y-102.87
X132.944Y-105.41
X132.944Y-110.49
X132.944Y-113.03
X137.16Y-83.82
X139.7Y-83.82
X142.24Y-83.82
X154.122Y-105.156
X154.122Y-107.696
X154.122Y-110.236
X154.122Y-112.776
X161.742Y-105.156
X161.742Y-107.696
X161.742Y-110.236
X161.742Y-112.776
T5
X97.78Y-102.746
X97.78Y-118.0
X100.32Y-102.746
X100.32Y-118.0
X102.86Y-102.746
X102.86Y-118.0
X105.4Y-102.746
X105.4Y-118.0
X107.94Y-102.746
X107.94Y-118.0
X110.48Y-102.746
X110.48Y-118.0
X113.02Y-102.746
X113.02Y-118.0
X115.56Y-102.76
X115.56Y-118.0
T6
X155.875Y-81.715
X167.875Y-81.715
T7
X178.918Y-87.122
X178.918Y-92.202
T8
X173.892Y-89.662
T9
X155.875Y-93.915
X161.925Y-79.765
X167.925Y-93.965
T10
X121.285Y-77.47
X144.526Y-77.216
T11
X107.95Y-70.04
X115.57Y-70.04
X128.27Y-70.04
X135.89Y-70.04
X156.21Y-70.04
X163.83Y-70.04
T12
X179.375Y-108.966
X179.375Y-115.824
X179.375Y-122.682
T13
X94.86Y-62.23
X94.86Y-133.35
X177.41Y-62.23
X177.8Y-133.35
M30
